<svg xmlns="http://www.w3.org/2000/svg" xmlns:xlink="http://www.w3.org/1999/xlink" width="1278.833" height="630.07" viewBox="0 0 1278.833 630.07">
  <defs>
    <linearGradient id="linear-gradient" x1="0.386" x2="0.97" y2="0.874" gradientUnits="objectBoundingBox">
      <stop offset="0" stop-color="#fff"/>
      <stop offset="1" stop-color="#b3ccc5"/>
    </linearGradient>
    <clipPath id="clip-path">
      <rect id="Rectangle_1524" data-name="Rectangle 1524" width="1278.833" height="630.07" transform="translate(-952 4547.54)" stroke="#707070" stroke-width="1" fill="url(#linear-gradient)"/>
    </clipPath>
    <linearGradient id="linear-gradient-2" x1="0.858" y1="0.23" x2="-0.041" y2="0.572" gradientUnits="objectBoundingBox">
      <stop offset="0" stop-color="#fff"/>
      <stop offset="1" stop-color="#fff" stop-opacity="0"/>
    </linearGradient>
  </defs>
  <g id="Mask_Group_256" data-name="Mask Group 256" transform="translate(952 -4547.54)" clip-path="url(#clip-path)">
    <path id="Union_38" data-name="Union 38" d="M680.558,537.161c-69.96,0-127.69-53.357-134.627-121.517H135.326C60.707,415.643,0,354.937,0,280.318V135.326C0,60.707,60.707,0,135.326,0H701.27C771.23,0,828.96,53.357,835.9,121.517H1496.5c74.62,0,135.326,60.707,135.326,135.326V401.835c0,74.619-60.706,135.326-135.326,135.326Zm0-15.189H1496.5a120.137,120.137,0,0,0,120.136-120.136V256.843A120.136,120.136,0,0,0,1496.5,136.706H836.6v38.665h643.335a98.153,98.153,0,0,1,98.042,98.042v110.47a98.153,98.153,0,0,1-98.042,98.042h-782.8a98.213,98.213,0,0,1-92.763-66.281H561.207A120.154,120.154,0,0,0,680.558,521.971Zm16.57-55.236h782.8a82.853,82.853,0,0,0,82.853-82.852V273.413a82.853,82.853,0,0,0-82.853-82.852H836.6v89.757c0,74.619-60.707,135.326-135.326,135.326H620.582A82.881,82.881,0,0,0,697.128,466.736Zm4.142-66.282A120.136,120.136,0,0,0,821.407,280.318V190.561H782.742v71.806A98.153,98.153,0,0,1,684.7,360.408H614.276v23.476a83.22,83.22,0,0,0,1.657,16.57Zm-100.784,0a98.31,98.31,0,0,1-1.4-16.57V360.408H560.422v40.046ZM15.19,135.326V280.318A120.136,120.136,0,0,0,135.326,400.453H545.233V360.408H151.9a98.153,98.153,0,0,1-98.042-98.042V151.9A98.153,98.153,0,0,1,151.9,53.854H684.7a98.216,98.216,0,0,1,93.226,67.663h42.7A120.153,120.153,0,0,0,701.27,15.189H135.326A120.136,120.136,0,0,0,15.19,135.326ZM684.7,345.218a82.853,82.853,0,0,0,82.853-82.852V190.561H697.128a82.852,82.852,0,0,0-82.852,82.852v71.806Zm-85.613,0V273.413a98.153,98.153,0,0,1,98.042-98.042h70.424V151.9a83.3,83.3,0,0,0-1.389-15.189h-85.6A120.136,120.136,0,0,0,560.422,256.843v88.376ZM69.044,151.9V262.366A82.853,82.853,0,0,0,151.9,345.218H545.233V256.843c0-74.619,60.707-135.326,135.326-135.326h81.247A82.884,82.884,0,0,0,684.7,69.044H151.9A82.853,82.853,0,0,0,69.044,151.9Zm752.363,23.476V136.706h-39.84a98.424,98.424,0,0,1,1.175,15.189v23.476Z" transform="translate(-1106.497 4608.592)" stroke="rgba(0,0,0,0)" stroke-miterlimit="10" stroke-width="1" fill="url(#linear-gradient-2)"/>
  </g>
</svg>
