<svg id="Group_3144" data-name="Group 3144" xmlns="http://www.w3.org/2000/svg" width="71.465" height="71.313" viewBox="0 0 71.465 71.313">
  <g id="noun-852377-004986" transform="translate(0 0)">
    <path id="Path_2872" data-name="Path 2872" d="M130.385,61.152H61.228A1.154,1.154,0,0,0,60.075,62.3V85.066a1.153,1.153,0,0,0,1.152,1.152h11.8v45.095a1.153,1.153,0,0,0,1.152,1.152h43.271a1.153,1.153,0,0,0,1.152-1.152V86.219h11.781a1.153,1.153,0,0,0,1.152-1.152V62.3a1.152,1.152,0,0,0-1.152-1.152ZM106,73.461v56.7h-4.611v-56.7Zm-6.917,56.7H75.334v-56.7H99.083Zm17.216,0h-7.993v-56.7H116.3Zm12.935-46.247H118.6v-11.6a1.153,1.153,0,0,0-1.152-1.152H74.181a1.153,1.153,0,0,0-1.152,1.152v11.6H62.377V63.457h66.854Z" transform="translate(-60.075 -61.152)" fill="#012169"/>
    <path id="Path_2873" data-name="Path 2873" d="M386.845,850.739h7.04a1.152,1.152,0,0,0,1.152-1.152v-9.052a1.153,1.153,0,0,0-1.152-1.152h-7.04a1.152,1.152,0,0,0-1.152,1.152v9.052a1.152,1.152,0,0,0,1.153,1.152ZM388,841.688h4.735v6.746H388Z" transform="translate(-364.145 -787.885)" fill="#012169"/>
  </g>
</svg>
