<svg xmlns="http://www.w3.org/2000/svg" width="72.158" height="52.916" viewBox="0 0 72.158 52.916">
  <g id="noun-debit-card-2401304-004986" transform="translate(-37.55 -187.5)">
    <path id="Path_2781" data-name="Path 2781" d="M103.7,187.5H43.563a6.021,6.021,0,0,0-6.013,6.013V234.4a6.02,6.02,0,0,0,6.013,6.013H103.7a6.02,6.02,0,0,0,6.013-6.013v-40.89A6.02,6.02,0,0,0,103.7,187.5Zm3.608,46.9a3.608,3.608,0,0,1-3.608,3.608H43.563a3.608,3.608,0,0,1-3.608-3.608v-40.89a3.608,3.608,0,0,1,3.608-3.608H103.7a3.608,3.608,0,0,1,3.608,3.608Z" transform="translate(0)" fill="#012169"/>
    <path id="Path_2782" data-name="Path 2782" d="M835.824,300h-7.216A3.608,3.608,0,0,0,825,303.608v4.811a3.608,3.608,0,0,0,3.608,3.608h7.216a3.608,3.608,0,0,0,3.608-3.608v-4.811A3.608,3.608,0,0,0,835.824,300Zm1.2,8.418a1.2,1.2,0,0,1-1.2,1.2h-7.216a1.2,1.2,0,0,1-1.2-1.2v-4.811a1.2,1.2,0,0,1,1.2-1.2h7.216a1.2,1.2,0,0,1,1.2,1.2Z" transform="translate(-736.942 -105.284)" fill="#012169"/>
    <path id="Path_2783" data-name="Path 2783" d="M224.783,806.25H188.7a1.2,1.2,0,1,0,0,2.405h36.079a1.2,1.2,0,1,0,0-2.405Z" transform="translate(-140.333 -579.063)" fill="#012169"/>
    <path id="Path_2784" data-name="Path 2784" d="M188.7,696.155h21.647a1.2,1.2,0,0,0,0-2.405H188.7a1.2,1.2,0,1,0,0,2.405Z" transform="translate(-140.333 -473.779)" fill="#012169"/>
  </g>
</svg>
