<svg id="Group_3142" data-name="Group 3142" xmlns="http://www.w3.org/2000/svg" width="65.757" height="57.841" viewBox="0 0 65.757 57.841">
  <path id="noun-car-6397317" d="M156.526,178.506l-7.661-22.983a1.216,1.216,0,0,0-1.155-.832H105.5a1.217,1.217,0,0,0-1.155.832l-7.661,22.983a3.656,3.656,0,0,0-2.956,3.583v18.672a1.217,1.217,0,0,0,1.218,1.218h1.421v9.335a1.217,1.217,0,0,0,1.218,1.218h10.553a1.217,1.217,0,0,0,1.218-1.218v-9.335h34.5v9.335a1.217,1.217,0,0,0,1.218,1.218h10.553a1.217,1.217,0,0,0,1.218-1.218v-9.335h1.421a1.217,1.217,0,0,0,1.218-1.218V182.089a3.656,3.656,0,0,0-2.956-3.583Zm-50.152-21.381h40.458l7.1,21.31H99.271Zm.542,52.971H98.8v-8.117h8.118Zm47.491,0H146.29v-8.117h8.117Zm2.639-10.553H96.16V182.089a1.219,1.219,0,0,1,1.218-1.218h58.451a1.219,1.219,0,0,1,1.218,1.218Zm-52.87-14.513a5.175,5.175,0,1,0,5.175,5.175A5.181,5.181,0,0,0,104.177,185.031Zm0,7.916a2.74,2.74,0,1,1,2.74-2.74A2.744,2.744,0,0,1,104.177,192.946Zm44.854-7.916a5.175,5.175,0,1,0,5.175,5.175,5.181,5.181,0,0,0-5.175-5.175Zm0,7.916a2.74,2.74,0,1,1,2.74-2.74A2.744,2.744,0,0,1,149.03,192.946Zm-24.727-6.7v7.916a1.218,1.218,0,0,1-2.435,0v-7.916a1.218,1.218,0,1,1,2.435,0Zm-7.036,0v7.916a1.218,1.218,0,0,1-2.435,0v-7.916a1.218,1.218,0,1,1,2.435,0Zm21.108,0v7.916a1.218,1.218,0,0,1-2.435,0v-7.916a1.218,1.218,0,1,1,2.435,0Zm-7.036,0v7.916a1.218,1.218,0,0,1-2.435,0v-7.916a1.218,1.218,0,1,1,2.435,0Z" transform="translate(-93.726 -154.69)" fill="#012169"/>
</svg>
