<svg id="Group_3145" data-name="Group 3145" xmlns="http://www.w3.org/2000/svg" width="53.764" height="71.314" viewBox="0 0 53.764 71.314">
  <path id="noun-deposit-5526417-004986" d="M209.162,58.076c-1.932-5.728-5.559-12.413-10.782-19.882a2.477,2.477,0,0,0,.771-1.8V34.935a2.444,2.444,0,0,0-1.859-2.395,2.52,2.52,0,0,0,.051-.5v-.728a2.444,2.444,0,0,0-1.83-2.385l.23-.281a14.507,14.507,0,0,0,3.407-6.85c.209-.96.357-2.152-.357-2.85a1.876,1.876,0,0,0-1.835-.334c-.042.01-.081.019-.114.025-2.291.414-4.064.273-6.094-5.342a1.006,1.006,0,0,0-1.847-.108c-.643,1.29-2.438,3.324-4.135,3.79a1.785,1.785,0,0,1-1.514-.171,1.49,1.49,0,0,0-1.73.012c-1.106.8-1.212,3.155-.749,4.97h0a23.949,23.949,0,0,0,3.374,7.188,2.454,2.454,0,0,0-1.657,2.337v.728a2.524,2.524,0,0,0,.05.5,2.444,2.444,0,0,0-1.859,2.395v1.457a2.48,2.48,0,0,0,.77,1.8c-5.776,8.259-9.581,15.534-11.331,21.66-.323-.025-.648-.043-.977-.043h0a12.065,12.065,0,1,0,8.7,20.415,34.437,34.437,0,0,0,12.035,2.346h.082c10.2-.417,16.757-3.438,19.473-8.977,1.952-3.98,1.861-9.2-.271-15.519ZM182.624,18.746a3.857,3.857,0,0,0,2.677.168,9.169,9.169,0,0,0,4.277-3.131c1.847,4.155,4.03,5.48,7.623,4.831l.1-.021a5.411,5.411,0,0,1-.12.772,12.435,12.435,0,0,1-3,6c-.383.469-.778.951-1.135,1.486h-6.523a22.9,22.9,0,0,1-3.8-7.568,5.8,5.8,0,0,1-.1-2.54Zm.077,16.19a.418.418,0,0,1,.372-.443h1.8a1.006,1.006,0,1,0,0-2.012.417.417,0,0,1-.373-.442v-.728a.417.417,0,0,1,.373-.442h10.08a.417.417,0,0,1,.373.442v.728a.417.417,0,0,1-.373.442,1.006,1.006,0,1,0,0,2.012h1.809a.419.419,0,0,1,.373.443v1.457a.419.419,0,0,1-.373.443h-13.7a.418.418,0,0,1-.372-.443ZM169.147,81.928a10.063,10.063,0,1,1,7.107-2.946,10.053,10.053,0,0,1-7.107,2.946Zm38.479-9.219c-2.363,4.818-8.321,7.459-17.708,7.85a33.469,33.469,0,0,1-10.755-1.965,12.057,12.057,0,0,0-7.04-18.41c1.751-5.981,5.558-13.151,11.334-21.337H196.38c10.752,15.237,14.642,26.941,11.247,33.863ZM189.918,48.8a11.523,11.523,0,1,0,8.135,3.375,11.511,11.511,0,0,0-8.135-3.375Zm0,21.011a9.511,9.511,0,1,1,6.713-2.787,9.5,9.5,0,0,1-6.713,2.787Zm-1.094-11.958v.357c0,.743.2.85,1.33,1.123,1.074.258,2.872.69,2.872,3.079v.36a3.109,3.109,0,0,1-2.1,2.936v.815a1.006,1.006,0,1,1-2.012,0v-.819a3.109,3.109,0,0,1-2.1-2.936,1.007,1.007,0,0,1,2.013,0,1.1,1.1,0,1,0,2.189,0v-.356c0-.743-.2-.851-1.33-1.123-1.074-.258-2.872-.69-2.872-3.079v-.357a3.109,3.109,0,0,1,2.1-2.936v-.814a1.006,1.006,0,1,1,2.012,0v.814a3.109,3.109,0,0,1,2.1,2.936,1.006,1.006,0,0,1-2.012,0,1.095,1.095,0,0,0-2.189,0Zm-20.683,6.258v-.939a1.006,1.006,0,1,1,2.012,0v.939a1.006,1.006,0,1,1-2.012,0Zm10.712,7.761a1.006,1.006,0,0,1-1.006,1.006h-.939a1.006,1.006,0,1,1,0-2.012h.939a1.006,1.006,0,0,1,1.006,1.006Zm-16.568-5.44a1.006,1.006,0,0,1,1.423-1.423l.663.663a1.007,1.007,0,1,1-1.424,1.423Zm11.639.663a1.007,1.007,0,0,1,0-1.423l.663-.663a1.006,1.006,0,0,1,1.423,1.423l-.663.663a1.007,1.007,0,0,1-1.423,0Zm2.087,10.216h0a1.006,1.006,0,0,1-1.423,1.422l-.663-.663a1.006,1.006,0,1,1,1.423-1.419Zm-5.855,2.321v.938a1.006,1.006,0,0,1-2.012,0v-.938a1.006,1.006,0,0,1,2.012,0Zm-8.768-6.755h-.938a1.006,1.006,0,1,1,0-2.012h.938a1.006,1.006,0,1,1,0,2.012Zm2.984,3.773a1,1,0,0,1,0,1.423l-.663.663a1.006,1.006,0,1,1-1.423-1.423l.662-.663a1,1,0,0,1,1.424,0Zm9.639-3.77a1.006,1.006,0,1,0,0-2.012H171.3a2.4,2.4,0,0,0-1.15-1.15V66.33a1.006,1.006,0,1,0-2.012,0v3.393a2.377,2.377,0,1,0,3.159,3.159Zm-4.863-.64a.367.367,0,1,1,.366-.366.367.367,0,0,1-.366.366Z" transform="translate(-157.068 -12.628)" fill="#012169"/>
</svg>
