<svg xmlns="http://www.w3.org/2000/svg" width="53.816" height="72.01" viewBox="0 0 53.816 72.01">
  <g id="noun-2442225-004986" transform="translate(-164.816 -17.7)">
    <path id="Path_2878" data-name="Path 2878" d="M182.587,57.436a5.4,5.4,0,0,0-5.39,5.389v3.213h-6.993a5.4,5.4,0,0,0-5.389,5.389V81.456a1.091,1.091,0,0,0,1.091,1.091h4.175v3.207a3.961,3.961,0,0,0,3.957,3.957H209.41a3.961,3.961,0,0,0,3.957-3.957V82.547h4.175a1.091,1.091,0,0,0,1.091-1.091V71.427a5.4,5.4,0,0,0-5.389-5.389h-6.993V62.825a5.4,5.4,0,0,0-5.389-5.389h-2.95V54.355A39.08,39.08,0,0,1,202.831,36.1a12.553,12.553,0,1,0-21.947.487,36.655,36.655,0,0,1,4.653,18.521v2.329Zm28.6,28.318a1.776,1.776,0,0,1-1.774,1.774H174.039a1.776,1.776,0,0,1-1.774-1.774V82.547h38.919Zm2.059-17.534a3.21,3.21,0,0,1,3.207,3.207v8.938H167V71.427a3.21,3.21,0,0,1,3.207-3.207ZM182.764,35.48c-4.041-6.847,1.1-15.372,8.635-15.592l.314,0a10.378,10.378,0,0,1,9.186,15.2,41.234,41.234,0,0,0-5.171,19.276v3.075h-8.01V55.108a38.828,38.828,0,0,0-4.955-19.627Zm18.1,24.139a3.21,3.21,0,0,1,3.207,3.207v3.207H179.38V62.826a3.211,3.211,0,0,1,3.207-3.207Z" transform="translate(0 0)" fill="#012169"/>
    <path id="Path_2879" data-name="Path 2879" d="M274.243,897.629h4.3a1.091,1.091,0,0,0,0-2.182h-4.3a1.091,1.091,0,1,0,0,2.182Z" transform="translate(-101.637 -823.473)" fill="#012169"/>
    <path id="Path_2880" data-name="Path 2880" d="M444.423,897.636h2.865a1.091,1.091,0,1,0,0-2.182h-2.865a1.091,1.091,0,1,0,0,2.182Z" transform="translate(-261.295 -823.48)" fill="#012169"/>
    <path id="Path_2881" data-name="Path 2881" d="M590.541,134.393c.3-.015,3-.038,3.714,3.473a1.091,1.091,0,0,0,1.068.874,1.106,1.106,0,0,0,.218-.022,1.091,1.091,0,0,0,.852-1.287c-.89-4.378-4.321-5.327-5.984-5.217a1.087,1.087,0,0,0-1.013,1.15,1.108,1.108,0,0,0,1.146,1.029Z" transform="translate(-398.325 -107.426)" fill="#012169"/>
  </g>
</svg>
