<svg id="Group_3143" data-name="Group 3143" xmlns="http://www.w3.org/2000/svg" width="71.315" height="71.314" viewBox="0 0 71.315 71.314">
  <path id="noun-safety-box-5751990" d="M79.986,12.5H16.471a3.9,3.9,0,0,0-3.9,3.9V74.187a3.9,3.9,0,0,0,3.9,3.9H18.8V82.8a1.01,1.01,0,0,0,1.01,1.01h6.751a1.01,1.01,0,0,0,1.01-1.01V78.085H68.89V82.8a1.01,1.01,0,0,0,1.01,1.01h6.751a1.01,1.01,0,0,0,1.01-1.01V78.085H79.99a3.9,3.9,0,0,0,3.9-3.9V16.4a3.9,3.9,0,0,0-3.9-3.9ZM25.547,81.793h-4.73V78.084h4.73Zm50.09,0h-4.73V78.084h4.73Zm6.226-7.606a1.879,1.879,0,0,1-1.877,1.877H16.471a1.879,1.879,0,0,1-1.877-1.877V16.4a1.879,1.879,0,0,1,1.877-1.877H79.992A1.879,1.879,0,0,1,81.869,16.4V74.187ZM76.522,18.851H19.932a1.01,1.01,0,0,0-1.01,1.01v8.472H17.593a1.01,1.01,0,0,0-1.01,1.01V39.438a1.01,1.01,0,0,0,1.01,1.01h1.329v9.687H17.593a1.01,1.01,0,0,0-1.01,1.01V61.24a1.01,1.01,0,0,0,1.01,1.01h1.329v8.472a1.01,1.01,0,0,0,1.01,1.01h56.59a1.01,1.01,0,0,0,1.01-1.01V19.862a1.012,1.012,0,0,0-1.011-1.011ZM18.6,30.355h2.658v8.073H18.6Zm0,21.8h2.658v8.073H18.6ZM75.512,69.712H20.943V62.25h1.329a1.01,1.01,0,0,0,1.01-1.01V51.146a1.01,1.01,0,0,0-1.01-1.01H20.943V40.449h1.329a1.01,1.01,0,0,0,1.01-1.01V29.345a1.01,1.01,0,0,0-1.01-1.01H20.943V20.873H75.512ZM31.732,46.3h2.3a14.165,14.165,0,0,0,3.444,8.306l-1.633,1.633a1.011,1.011,0,0,0,1.429,1.429l1.633-1.633a14.158,14.158,0,0,0,8.306,3.444v2.3a1.01,1.01,0,1,0,2.021,0v-2.3a14.165,14.165,0,0,0,8.306-3.444l1.633,1.633a1.011,1.011,0,1,0,1.429-1.429l-1.633-1.633A14.166,14.166,0,0,0,62.417,46.3h2.3a1.01,1.01,0,0,0,0-2.021h-2.3a14.165,14.165,0,0,0-3.444-8.306l1.633-1.633a1.011,1.011,0,0,0-1.429-1.429l-1.633,1.633A14.164,14.164,0,0,0,49.237,31.1V28.8a1.01,1.01,0,1,0-2.021,0v2.3a14.163,14.163,0,0,0-8.306,3.444l-1.633-1.633a1.011,1.011,0,0,0-1.429,1.429l1.633,1.633a14.164,14.164,0,0,0-3.444,8.306h-2.3a1.01,1.01,0,1,0,0,2.021Zm16.5-13.231a12.22,12.22,0,1,1-12.22,12.22,12.234,12.234,0,0,1,12.22-12.22Zm0,22.519a10.3,10.3,0,1,0-10.3-10.3A10.311,10.311,0,0,0,48.227,55.591Zm0-18.576a8.278,8.278,0,1,1-8.278,8.278A8.288,8.288,0,0,1,48.227,37.015ZM49.6,47.128a.826.826,0,0,0-.825-.825H47.681a2.846,2.846,0,0,1-.464-5.653v-.872a1.01,1.01,0,0,1,2.021,0v.834h1.371a1.01,1.01,0,0,1,0,2.021H47.681a.825.825,0,0,0,0,1.649h1.092a2.846,2.846,0,0,1,.464,5.653v.872a1.01,1.01,0,1,1-2.021,0v-.834H45.846a1.01,1.01,0,1,1,0-2.021h2.928a.826.826,0,0,0,.824-.825Z" transform="translate(-12.573 -12.5)" fill="#012169"/>
</svg>
