<svg xmlns="http://www.w3.org/2000/svg" width="31.125" height="48.929" viewBox="0 0 31.125 48.929">
  <g id="noun-notification-2060552" transform="translate(-217.484 1.371)">
    <path id="Path_2534" data-name="Path 2534" d="M246.731,24.594a9.542,9.542,0,0,1-2.808-6.819V14.28a10.293,10.293,0,0,0-5.235-8.665l-.118-.065-.53-.268a2.572,2.572,0,0,1-.916-2.147,4.015,4.015,0,0,0,0-.406,4.071,4.071,0,1,0-8.141-.059.818.818,0,0,0,0,.151v.3a2.572,2.572,0,0,1-.923,2.166l-.53.275-.1.059a10.294,10.294,0,0,0-5.236,8.671v3.469a9.542,9.542,0,0,1-2.808,6.819,5.589,5.589,0,0,0-1.9,4.038.811.811,0,0,0,.6.785,57.771,57.771,0,0,0,10.052,1.754,4.941,4.941,0,0,0,9.816,0A57.763,57.763,0,0,0,248.007,29.4a.811.811,0,0,0,.6-.785,5.589,5.589,0,0,0-1.878-4.025ZM233.066,1.44a1.309,1.309,0,1,1-.926.383,1.309,1.309,0,0,1,.926-.383Z" transform="translate(0 0)" fill="#004986"/>
    <path id="Path_2535" data-name="Path 2535" d="M383.777,981.993a.8.8,0,0,1-.72-1.145l3.22-6.741h0a.8.8,0,1,1,1.446.687l-3.22,6.741h0a.8.8,0,0,1-.726.458Z" transform="translate(-158.754 -935.31)" fill="#004986"/>
    <path id="Path_2536" data-name="Path 2536" d="M581.273,986.289a.8.8,0,0,1-.8-.8v-7.474h0a.8.8,0,0,1,1.6,0v7.474h0a.8.8,0,0,1-.8.8Z" transform="translate(-348.207 -938.73)" fill="#004986"/>
    <path id="Path_2537" data-name="Path 2537" d="M699.663,980.906a.8.8,0,0,1-.694-.393l-3.789-6.446h0a.8.8,0,1,1,1.381-.811l3.789,6.446a.8.8,0,0,1-.687,1.2Z" transform="translate(-458.135 -934.553)" fill="#004986"/>
  </g>
</svg>
