<svg xmlns="http://www.w3.org/2000/svg" width="51.49" height="55" viewBox="0 0 51.49 55">
  <g id="noun-atm-1009393" transform="translate(-94.446 -59.99)">
    <path id="Path_2525" data-name="Path 2525" d="M322.871,259.15h-27.3a1.95,1.95,0,0,0-1.951,1.95v40.958a1.95,1.95,0,0,0,1.951,1.95h27.3a1.949,1.949,0,0,0,1.951-1.95V261.1a1.95,1.95,0,0,0-1.951-1.95Zm-17.554,38.227a.78.78,0,0,1-.78.78h-4.291a.78.78,0,0,1-.78-.78v-6.241a.779.779,0,0,1,.78-.779h4.291a.779.779,0,0,1,.78.779Zm13.653,2.732h-5.851V263.05h5.851Z" transform="translate(-189.026 -189.017)" fill="#004986"/>
    <path id="Path_2526" data-name="Path 2526" d="M145.157,59.991H95.226a.78.78,0,0,0-.78.78V79.495a.78.78,0,0,0,.78.78h7.8V74.033h-2.341v-7.8H139.7v7.8h-2.341v6.241h7.8a.78.78,0,0,0,.78-.78V60.77a.78.78,0,0,0-.78-.78Z" transform="translate(0 0)" fill="#004986"/>
  </g>
</svg>
