<svg xmlns="http://www.w3.org/2000/svg" width="54.649" height="35.257" viewBox="0 0 54.649 35.257">
  <g id="noun-credit-card-4524588" transform="translate(-36.357 -236.36)">
    <path id="Path_2538" data-name="Path 2538" d="M262.278,236.36H219.97a1.768,1.768,0,0,0-1.763,1.763v3.526h35.256a3.525,3.525,0,0,1,3.526,3.526v19.391h5.288a1.768,1.768,0,0,0,1.763-1.763V238.123a1.768,1.768,0,0,0-1.763-1.763Z" transform="translate(-173.034 0)" fill="#004986"/>
    <path id="Path_2539" data-name="Path 2539" d="M80.428,381.82H38.12a1.768,1.768,0,0,0-1.763,1.763v5.288H82.19v-5.288a1.768,1.768,0,0,0-1.763-1.763Z" transform="translate(0 -138.408)" fill="#004986"/>
    <path id="Path_2540" data-name="Path 2540" d="M36.363,650.463a1.768,1.768,0,0,0,1.763,1.763H80.434a1.768,1.768,0,0,0,1.763-1.763v-14.1H36.363Zm40.545-3.526H71.619a.882.882,0,0,1,0-1.763h5.288a.882.882,0,0,1,0,1.763Zm-14.1-5.288h14.1a.882.882,0,1,1,0,1.763h-14.1a.881.881,0,1,1,0-1.763Zm-18.51,0a2.644,2.644,0,1,1-2.644,2.644A2.641,2.641,0,0,1,44.3,641.649Z" transform="translate(-0.006 -380.609)" fill="#004986"/>
  </g>
</svg>
