<svg xmlns="http://www.w3.org/2000/svg" width="47.792" height="47.793" viewBox="0 0 47.792 47.793">
  <g id="noun-deposit-4257089" transform="translate(-59.986 -59.996)">
    <path id="Path_2544" data-name="Path 2544" d="M359.358,71.679a11.7,11.7,0,1,0-3.426,8.257,11.683,11.683,0,0,0,3.426-8.257Zm-10.985-1.129c1.664,1.028,3.735,2.307,3.735,4.6a3.962,3.962,0,0,1-3.1,3.9v.18a1.328,1.328,0,0,1-2.655,0v-.218h0a4.457,4.457,0,0,1-2.676-2.328,1.33,1.33,0,0,1,1.2-1.9,1.291,1.291,0,0,1,1.184.732,1.779,1.779,0,0,0,1.619,1.045c.3,0,1.777-.068,1.777-1.412,0-.812-1.258-1.589-2.475-2.341-1.664-1.028-3.735-2.307-3.735-4.6h0a3.962,3.962,0,0,1,3.1-3.9v-.18a1.328,1.328,0,1,1,2.655,0v.218h0a4.457,4.457,0,0,1,2.676,2.328,1.33,1.33,0,0,1-1.2,1.9,1.29,1.29,0,0,1-1.184-.733,1.78,1.78,0,0,0-1.619-1.045c-.3,0-1.777.068-1.777,1.412,0,.812,1.258,1.589,2.475,2.341Z" transform="translate(-263.792)" fill="#004986"/>
    <path id="Path_2545" data-name="Path 2545" d="M498.427,660H495.24a.53.53,0,0,0-.53.53V668.5h-2.389a.264.264,0,0,0-.187.451l4.325,4.325a.53.53,0,0,0,.75,0l4.325-4.325h0a.264.264,0,0,0-.187-.451h-2.389V660.53a.531.531,0,0,0-.53-.53Z" transform="translate(-412.951 -573.452)" fill="#004986"/>
    <path id="Path_2546" data-name="Path 2546" d="M107.248,852h-2.657a.53.53,0,0,0-.53.53v8.5H63.7v-8.5a.531.531,0,0,0-.53-.53H60.516a.53.53,0,0,0-.53.53v11.684a.53.53,0,0,0,.53.53h46.731a.531.531,0,0,0,.53-.53V852.529a.531.531,0,0,0-.53-.53Z" transform="translate(0 -756.954)" fill="#004986"/>
  </g>
</svg>
