<svg xmlns="http://www.w3.org/2000/svg" width="29.966" height="46.613" viewBox="0 0 29.966 46.613">
  <path id="noun-mobile-payment-2055660" d="M389.951,269.38a2.51,2.51,0,0,0-2.5,2.5V313.5a2.51,2.51,0,0,0,2.5,2.5h24.971a2.51,2.51,0,0,0,2.5-2.5V271.877a2.51,2.51,0,0,0-2.5-2.5Zm9.156,3.329h6.659a.833.833,0,1,1,0,1.665h-6.659a.833.833,0,1,1,0-1.665Zm-9.989,4.994h26.636V304.34H389.119Zm13.318,3.33a9.989,9.989,0,1,0,9.989,9.989A10,10,0,0,0,402.437,281.033Zm-.011,4.151h0a.832.832,0,0,1,.844.844v.832h1.66a.832.832,0,1,1,0,1.665H401.6a.832.832,0,1,0,0,1.665h1.676a2.5,2.5,0,1,1,0,4.995h-.007v.832h0a.833.833,0,1,1-1.665,0v-.832h-1.658a.833.833,0,1,1,0-1.665h3.329a.832.832,0,1,0,0-1.665H401.6a2.5,2.5,0,1,1,0-4.995h0v-.832h0a.833.833,0,0,1,.821-.844Zm.011,22.486a2.5,2.5,0,1,1-1.766.731A2.5,2.5,0,0,1,402.437,307.67Z" transform="translate(-387.454 -269.38)" fill="#004986"/>
</svg>
