<svg xmlns="http://www.w3.org/2000/svg" width="49.894" height="49.895" viewBox="0 0 49.894 49.895">
  <g id="noun-online-banking-2606750" transform="translate(-35.28 -35.293)">
    <path id="Path_2541" data-name="Path 2541" d="M329.343,141.89a12.473,12.473,0,1,0,12.473,12.473A12.494,12.494,0,0,0,329.343,141.89Zm-.156,10.93a.433.433,0,0,1,.14-.016,4.655,4.655,0,0,1,1.559,9.043v.312a1.559,1.559,0,0,1-3.118,0v-.312a4.641,4.641,0,0,1-3.1-4.381,1.551,1.551,0,0,1,3.1,0,1.559,1.559,0,1,0,1.731-1.528.434.434,0,0,1-.14.016,4.655,4.655,0,0,1-1.559-9.043v-.343a1.559,1.559,0,1,1,3.118,0v.343a4.574,4.574,0,0,1,2.791,2.76,4.41,4.41,0,0,1,.312,1.622,1.551,1.551,0,0,1-3.1,0,1.559,1.559,0,1,0-3.118,0,1.528,1.528,0,0,0,1.388,1.528Z" transform="translate(-269.15 -101.888)" fill="#004986"/>
    <path id="Path_2542" data-name="Path 2542" d="M82.055,35.293H38.4a3.128,3.128,0,0,0-3.118,3.118V71.154A3.128,3.128,0,0,0,38.4,74.273H82.055a3.128,3.128,0,0,0,3.118-3.118V38.411A3.128,3.128,0,0,0,82.055,35.293Zm0,30.794a.391.391,0,0,1-.39.39H38.788a.391.391,0,0,1-.39-.39V38.8a.391.391,0,0,1,.39-.39H81.666a.391.391,0,0,1,.39.39Z" fill="#004986"/>
    <path id="Path_2543" data-name="Path 2543" d="M364.171,989.02a1.559,1.559,0,0,0-1.337-.757H349.008a1.559,1.559,0,0,0-1.337.757l-2.806,4.677a1.559,1.559,0,0,0,1.337,2.361H365.64a1.559,1.559,0,0,0,1.337-2.361Z" transform="translate(-295.693 -910.871)" fill="#004986"/>
  </g>
</svg>
