<svg xmlns="http://www.w3.org/2000/svg" width="28.094" height="47.527" viewBox="0 0 28.094 47.527">
  <path id="noun-phone-2173681" d="M249.545,0a4.237,4.237,0,0,0-4.225,4.225V43.3a4.237,4.237,0,0,0,4.225,4.225h19.644a4.237,4.237,0,0,0,4.225-4.225V4.225A4.237,4.237,0,0,0,269.189,0Zm7.468,4.069h4.71c.31,0,.561.355.561.792s-.251.792-.561.792h-4.71c-.31,0-.561-.355-.561-.792S256.7,4.069,257.012,4.069Zm-9.372,5.648h23.453V37.811H247.641Zm11.727,30.337a2.616,2.616,0,1,1-2.616,2.616,2.616,2.616,0,0,1,2.616-2.616Z" transform="translate(-245.32 0)" fill="#004986"/>
</svg>
