<svg xmlns="http://www.w3.org/2000/svg" width="28.5" height="38" viewBox="0 0 28.5 38">
  <g id="noun-statement-4136913" transform="translate(-239.994 -119.99)">
    <path id="Path_2532" data-name="Path 2532" d="M266.91,119.99H241.577a1.589,1.589,0,0,0-1.583,1.584v34.833a1.589,1.589,0,0,0,1.583,1.583H257.41v-7.916a3.176,3.176,0,0,1,3.166-3.166h7.917V121.574a1.589,1.589,0,0,0-1.583-1.584Zm-12.666,33.25h-9.5v-3.167h9.5Zm0-6.333h-9.5V143.74h9.5Zm3.167-6.334H244.744v-3.167h12.666Zm0-6.334H244.744v-3.166h12.666Zm0-6.333H244.744v-3.167h12.666Zm6.333,12.667h-3.167v-3.167h3.167Zm0-6.334h-3.167v-3.166h3.167Zm0-6.333h-3.167v-3.167h3.167Z" transform="translate(0 0)" fill="#004986"/>
    <path id="Path_2533" data-name="Path 2533" d="M760,887.917V880h7.917Z" transform="translate(-499.423 -729.927)" fill="#004986"/>
  </g>
</svg>
