<svg id="Layer_1" data-name="Layer 1" xmlns="http://www.w3.org/2000/svg" viewBox="0 0 405.62 171.65"><defs><style>.fdicel{fill:#818486;}</style></defs><path class="fdicel" d="M284.66,110.07l84.92-47.79,83,48.26v16.79H439.36v59.38H297.67V127.34h-13Zm84.91-29.79L314.93,112V171.6H423V112l-53.46-31.7Zm-29.06,54.41V120h56.54v14.66Zm0,7.32h56.54v14.66H340.51Zm30.72,90.86V214.18h9.94c7.09,0,12.06,2.13,12.06,9.7,0,7.33-4.49,9-12.3,9Zm5.2-14.68v10.65h4.26c4,0,6.86-.71,6.86-5,0-3.78-3.07-5.68-6.38-5.68Zm46.39,14.68V214.18h13.72c5.2,0,7.33,1.66,7.33,5.91,0,3.08-1.65,4.5-5.2,5l5.44,7.81h-5.68L433,225.06h-5v7.81Zm13-14.67H428V221h7.57c2.6,0,3.31,0,3.31-1.42,0-1.19-.94-1.42-3.07-1.42Zm-92.95-4v18.69h5V221.51l9.94,11.36h5.91V214.18h-5v11.59l-9.94-11.59Zm-48.52,0v18.69H313v-4l-13.48-.24V214.18Zm23.92,18.69h18.21v-4H323.7v-4h10.64V221H323.7V218.2h12.77v-4H318.26Zm80.66-18.69v18.69l18-.24v-3.78H404.13v-4H415V221H404.13V218.2H416.9v-4Zm-67.68-4.74,4.73-16.8h4l4.73,16.8H341L340,205.65h-4.26l-1.05,3.79Zm6.64-13.21-1.42,6.62h3.08ZM305,203.29v-4.5c0-4.25,1.42-6.62,5.68-6.62,4.73,0,5.68,2.84,5.68,6.86v3.55a8.47,8.47,0,0,1-1,4.5l2.84.94-.24,1.19c-9.69,0-13-.24-13-5.92Zm3.54-4.26v4c0,3.08.48,4,2.13,4,1.9,0,2.13-.71,2.13-3.78v-4.5c0-3.31-.23-3.78-1.89-3.78-2.13,0-2.37.94-2.37,4Zm92.5,5.91c0,2.6,1.66,4.73,5.44,4.73,3.08,0,5.92-2.12,5.92-4.73,0-4-7.57-5.91-7.57-8.51,0-1,.95-1.42,1.89-1.42,1.42,0,2.13.94,2.84,2.36l2.37-.94c-.24-2.37-1.9-4.26-5.44-4.26-2.84,0-5.21,1.42-5.21,4.26,0,4.73,7.57,5.91,7.57,9,0,1.18-.71,1.65-2.13,1.65s-2.36-.94-2.84-2.6l-2.84.47ZM375.52,204v-5.44c0-4.5,2.12-6.39,5.67-6.39,4.5,0,5.68,1.65,5.68,5.91v5.21c0,4.49-1.18,6.38-5.68,6.38s-5.67-1.65-5.67-5.67Zm3.53-5.68v5.2c0,2.37.24,3.55,2.13,3.55,1.42,0,2.13-.94,2.13-3.78v-5c0-1.89-.23-3.55-2.13-3.55s-2.13,1.42-2.13,3.55Zm53.45,5c0,5,1.42,6.38,6.15,6.38,3.66,0,4.73-1.71,4.73-3.54v-5.45h-5v2.61h1.66v1.89c0,1.42-.47,2.13-1.66,2.13-2.36,0-2.6-1.66-2.6-4V199.5c0-2.84.24-4.73,2.6-4.73,1.66,0,2.6,1.18,2.84,2.84l2.37-1c-.24-2.84-2.13-4.49-5.44-4.49-4.74,0-5.68,2.6-5.68,6.15v5Zm-44.21-10.65v9.7c0,5.68,1,7.49,5.94,7.49,3.78,0,5.17-2.05,5.17-7V192.64h-3.31v9.7c0,3.78-.24,4.73-2.13,4.73s-2.13-1.42-2.13-5v-9.46Zm31.44,0v16.8h2.84V198.08l4,11.36h4.26v-16.8H428v10.41l-3.79-10.41Zm-100.05,0v10.17c0,4.73.48,6.86,5.21,6.86,5.44,0,5.67-2.6,5.67-7.33v-9.7h-3.31v9.94c0,3.31-.47,4.25-2.13,4.25-1.89,0-2.13-.94-2.13-4.73v-9.46Zm42.81,0v16.8h3.31v-7.57h4v7.57h3.31v-16.8h-3.31V199h-4v-6.39Zm-68.37,0v16.8h8.52v-2.6h-5.2v-4.73h4.73v-2.37h-4.73v-4.49h5.2v-2.61Zm52,0v16.8H354v-2.6h-5v-14.2Zm67.92,0h3.08v16.8h-3.08Z" transform="translate(-46.99 -62.28)"/><path class="fdicel" d="M47,112.16c.39,0,.79.09,1.18.09,4.28,0,8.55,0,12.83,0a1.21,1.21,0,0,1,1.37,1c2,6.09,4.12,12.16,6.19,18.24.12.34.25.68.45,1.23.39-1,.72-1.87,1-2.72q3.1-8.44,6.2-16.87c.17-.47.26-.9,1-.89,4.61,0,9.22,0,13.82,0a1.86,1.86,0,0,1,.36.08V116c-1,.12-2,.17-3,.35a2.25,2.25,0,0,0-2.07,2.29q-.06.64-.06,1.29,0,9,0,18.09c0,2.38.44,2.84,2.78,3l2.33.17v3.53H74.12v-3.56c1.11-.11,2.23-.17,3.34-.34,1.38-.21,1.73-.63,1.88-2a2.56,2.56,0,0,0,0-.39c0-6.2,0-12.39-.14-18.65-.12.27-.27.53-.37.81q-4.39,11.65-8.78,23.31a1.15,1.15,0,0,1-1.27.92c-2.92,0-2.91,0-3.89-2.8q-3.77-10.78-7.54-21.55a1.34,1.34,0,0,0-.39-.61c0,.28,0,.55,0,.82,0,5.6,0,11.2,0,16.8,0,2.6.7,3.34,3.32,3.54.55,0,1.11.1,1.73.16,0,1,0,1.93,0,2.85a5.69,5.69,0,0,1-.09.74H47v-3.58l2.08-.16c2.14-.19,2.76-.76,2.78-2.91,0-6.16,0-12.32,0-18.47a12.15,12.15,0,0,0-.12-1.59A1.8,1.8,0,0,0,50,116.19c-1-.1-2,0-3-.06Z" transform="translate(-46.99 -62.28)"/><path class="fdicel" d="M94.15,233.47V156.59c.37,0,.7-.05,1-.05,9,0,18.1-.09,27.15,0,8.72.12,17,2.12,24.18,7.25,7.65,5.44,12.07,13,13.79,22.09a45.14,45.14,0,0,1-2.14,25.68c-3.55,8.8-10.11,14.57-18.8,18.06a56.8,56.8,0,0,1-20.5,3.81c-8,.1-15.91.06-23.87.07C94.72,233.53,94.46,233.49,94.15,233.47Zm21.5-17.68a31.58,31.58,0,0,0,14-2.72,16.94,16.94,0,0,0,9.39-11.42,27.26,27.26,0,0,0,.16-13.37,16.91,16.91,0,0,0-8.42-11.38c-4.74-2.62-9.85-3-15.16-2.46Z" transform="translate(-46.99 -62.28)"/><path class="fdicel" d="M245,208.8c0,.39.05.72.05,1,0,6.06,0,12.13,0,18.19a1.72,1.72,0,0,1-.88,1.61,24.21,24.21,0,0,1-11,3.93c-8.87,1-17.42-.1-25.36-4.34-11.71-6.25-18.65-16-20.34-29.17-2.78-21.63,11.36-40.63,32.83-44.31a43,43,0,0,1,23.9,2.52c.52.22.88.4.88,1.1,0,6.3,0,12.59,0,18.89,0,.16,0,.32-.06.64-.34-.19-.62-.32-.88-.47a36,36,0,0,0-10.87-4.74c-11.7-2.5-22.44,4.46-24.58,16.19-1.78,9.74,2.61,19.31,12,22.92a22.86,22.86,0,0,0,18.26-.83C240.93,211,242.87,209.9,245,208.8Z" transform="translate(-46.99 -62.28)"/><path class="fdicel" d="M47.69,156.6H91.07v17.76h-22v11.86H89.55V204H69v29.43H47.69Z" transform="translate(-46.99 -62.28)"/><path class="fdicel" d="M163.41,156.59h21.12v76.88H163.41Z" transform="translate(-46.99 -62.28)"/><path class="fdicel" d="M144.87,125c.73-.66,1.35-1.26,2-1.81a9.38,9.38,0,0,1,8-2,4.91,4.91,0,0,1,4.25,4,16.78,16.78,0,0,1,.42,3.53c.05,3.45,0,6.89,0,10.34,0,1.52.27,1.8,1.77,1.91.85.07,1.71,0,2.66,0v3.62H150.34v-3.5l2-.2a1.24,1.24,0,0,0,1.28-1.34c0-3.81,0-7.62,0-11.43a2.82,2.82,0,0,0-1.69-2.91,4.52,4.52,0,0,0-4.51.69,7,7,0,0,0-2.47,5.64c-.1,2.45,0,4.9,0,7.35,0,1.53.43,1.91,1.94,2.07l1.17.11v3.55H135.63v-3.52l1.56-.19c1.34-.17,1.8-.62,1.87-2s0-2.65,0-4c0-1.95,0-3.91,0-5.86-.05-1.61-.35-3.14-2.13-3.79a4.68,4.68,0,0,0-5,1.3,6.86,6.86,0,0,0-1.61,4.49c-.06,2.39,0,4.77,0,7.16,0,2,.45,2.44,2.48,2.7.26,0,.52.09.86.15,0,.95,0,1.88,0,2.8a7,7,0,0,1-.07.72H119.82v-3.52l2.75-.21a1.59,1.59,0,0,0,1.64-1.54c.09-.82.15-1.65.16-2.47q0-4.43,0-8.85c0-2.56-.54-3-3.12-3.08h-1.5v-3.35h10.51v3.59l1.07-1.2a8.77,8.77,0,0,1,8.38-3,6.69,6.69,0,0,1,4.39,2.84C144.35,124.26,144.58,124.61,144.87,125Z" transform="translate(-46.99 -62.28)"/><path class="fdicel" d="M165.76,115.61v-3.27h9.82v11.75l1.18-.9c5.23-3.93,11.55-2.3,14,3.77a16.3,16.3,0,0,1-.32,13.41c-2.9,6.3-11.6,6.73-15.31,2.66-.15-.17-.33-.32-.58-.55a11.31,11.31,0,0,0-1.07,1.43,2.12,2.12,0,0,1-2.43,1.21,10.82,10.82,0,0,0-1.41,0v-25.3c0-.62,0-1.25-.1-1.88-.16-1.62-.68-2.11-2.34-2.22Zm9.48,17.64.24,0a11.27,11.27,0,0,0,1.1,5.69,4.21,4.21,0,0,0,3.95,2.55,4,4,0,0,0,3.74-2.66,14.19,14.19,0,0,0,.16-10.93,3.93,3.93,0,0,0-4-2.75,4.07,4.07,0,0,0-4.14,2.95A50.91,50.91,0,0,0,175.24,133.25Z" transform="translate(-46.99 -62.28)"/><path class="fdicel" d="M218.55,133.87H202.89c-.42,3.18,1.37,6.41,4,7.26a5.22,5.22,0,0,0,7-3.66c.11-.34.2-.69.32-1.11h3.38c.23,0,.45,0,.67,0,.18,3.5-2.61,7.34-6.25,8.48a12.92,12.92,0,0,1-10-.81,9.63,9.63,0,0,1-5.18-6.8,14.37,14.37,0,0,1,1.42-10.94c2.44-4.07,6.18-5.69,10.79-5.17s7.34,3.28,8.64,7.54A47,47,0,0,1,218.55,133.87Zm-6.69-3.73c-.05-1.85-.18-3.62-1.83-4.7a4.33,4.33,0,0,0-4.79-.08c-1.76,1-2.14,2.81-2.12,4.78Z" transform="translate(-46.99 -62.28)"/><path class="fdicel" d="M116.39,133.86h-15.7c.1,2.56.58,4.85,2.65,6.45a5.37,5.37,0,0,0,8.57-3c.22-.81.55-1.06,1.35-1s1.91,0,2.85,0c.29,3-2.13,6.77-5.13,8.16A11.7,11.7,0,0,1,94.2,133.19a13.25,13.25,0,0,1,3.88-9.28c4.63-4.43,15.3-4.59,17.7,5.64C116.1,130.89,116.17,132.29,116.39,133.86Zm-15.21-3.73h8.53c.27-3.29-1.26-5.34-4-5.4S101,126.87,101.18,130.13Z" transform="translate(-46.99 -62.28)"/><path class="fdicel" d="M239.27,124.36a4.38,4.38,0,0,0-5,1.47,9.57,9.57,0,0,0-1.87,5.86c-.09,2.41-.05,4.83,0,7.25,0,1.55.44,2,2,2.12.82.08,1.64.09,2.51.13v3.53h-15V141.2c.9-.07,1.78-.12,2.67-.21,1.29-.13,1.81-.61,1.82-1.88q.06-5.87,0-11.73c0-1.57-.68-2.2-2.27-2.29-.72,0-1.45,0-2.24,0v-3.37h10.31v3c.73-.68,1.29-1.22,1.87-1.73a6.56,6.56,0,0,1,6.24-1.71,5.26,5.26,0,0,1,3.47,7.1A3.52,3.52,0,0,1,241,130.6a3.24,3.24,0,0,1-3.61-1.84,3.19,3.19,0,0,1,1.17-3.87C238.73,124.73,239,124.59,239.27,124.36Z" transform="translate(-46.99 -62.28)"/></svg>