<svg xmlns="http://www.w3.org/2000/svg" width="30.85" height="30.85" viewBox="0 0 30.85 31.85">
  <path id="Icon_awesome-instagram" data-name="Icon awesome-instagram" d="M15.423,9.753a7.91,7.91,0,1,0,7.908,7.91A7.9,7.9,0,0,0,15.423,9.753Zm0,13.052a5.142,5.142,0,1,1,5.141-5.142A5.151,5.151,0,0,1,15.423,22.8ZM25.5,9.43a1.844,1.844,0,1,1-1.844-1.845A1.84,1.84,0,0,1,25.5,9.43ZM30.736,11.3a9.131,9.131,0,0,0-2.491-6.464,9.187,9.187,0,0,0-6.462-2.492C19.236,2.2,11.6,2.2,9.057,2.346A9.173,9.173,0,0,0,2.595,4.831,9.161,9.161,0,0,0,.1,11.3c-.145,2.547-.145,10.181,0,12.728a9.131,9.131,0,0,0,2.491,6.464,9.2,9.2,0,0,0,6.462,2.492c2.546.145,10.179.145,12.725,0a9.127,9.127,0,0,0,6.462-2.492,9.191,9.191,0,0,0,2.491-6.464c.145-2.547.145-10.174,0-12.721Zm-3.29,15.454a5.206,5.206,0,0,1-2.932,2.933c-2.03.805-6.848.62-9.092.62s-7.068.179-9.092-.62A5.206,5.206,0,0,1,3.4,26.756c-.805-2.031-.619-6.849-.619-9.094S2.6,10.593,3.4,8.569A5.206,5.206,0,0,1,6.332,5.637c2.03-.805,6.848-.62,9.092-.62s7.068-.179,9.092.62a5.206,5.206,0,0,1,2.932,2.933c.805,2.031.619,6.849.619,9.094S28.252,24.732,27.447,26.756Z" transform="translate(0.005 -2.238)" fill="#004986"/>
</svg>
