<svg xmlns="http://www.w3.org/2000/svg" width="30.85" height="30.85" viewBox="0 0 30.85 30.85">
  <path id="Icon_awesome-linkedin" data-name="Icon awesome-linkedin" d="M28.646,2.25H2.2A2.213,2.213,0,0,0,0,4.474v26.4A2.213,2.213,0,0,0,2.2,33.1h26.45a2.219,2.219,0,0,0,2.2-2.224V4.474A2.219,2.219,0,0,0,28.646,2.25ZM9.324,28.693H4.751V13.97H9.331V28.693ZM7.038,11.959A2.651,2.651,0,1,1,9.689,9.308a2.652,2.652,0,0,1-2.651,2.651ZM26.464,28.693H21.891V21.531c0-1.708-.034-3.9-2.376-3.9-2.383,0-2.748,1.859-2.748,3.781v7.286H12.2V13.97h4.386v2.011h.062a4.816,4.816,0,0,1,4.331-2.376c4.628,0,5.488,3.051,5.488,7.017Z" transform="translate(0 -2.25)" fill="#004986"/>
</svg>
