<svg version="1.1" id="Layer_1" xmlns="http://www.w3.org/2000/svg" x="0" y="0" viewBox="0 0 158 72" xml:space="preserve"><style>.st0{fill:#004986}</style><path class="st0" d="M93.83 9.54v7.15c-2.09-1.43-5.5-2.53-8.8-2.53-6.93 0-11.16 4.67-11.16 11.65 0 7.04 4.23 11.76 11.16 11.76 3.3 0 6.71-1.15 8.8-2.53v7.04c-2.03 1.26-5.17 2.42-9.35 2.42-11.1 0-18.47-7.75-18.47-18.69 0-10.89 7.42-18.69 18.47-18.69 4.18 0 7.31 1.21 9.35 2.42zm18.3-2.42c4.89 0 8.52 1.1 10.61 2.42v7.04c-2.09-1.48-5.66-2.64-9.62-2.64-4.29 0-6.6 1.43-6.6 4.23 0 3.74 4.56 3.79 9.07 4.84 4.4.99 8.69 2.97 8.69 9.73 0 7.53-5.22 11.76-14.02 11.76-5 0-8.91-1.04-11.05-2.42V35.1c2.14 1.54 5.94 2.64 10.12 2.64 4.56 0 7.15-1.21 7.15-4.12 0-3.74-4.56-3.85-9.02-4.89-4.34-1.1-8.69-3.08-8.69-9.95 0-7.32 4.95-11.66 13.36-11.66zm17.5 36.83V7.67h14.35c7.53 0 11.65 4.51 11.65 9.95 0 3.68-1.92 6.38-5 7.86 3.74 1.43 6.1 4.4 6.1 8.52 0 5.5-4.12 9.95-11.65 9.95h-15.45zm7.53-29.74v8.47h6.82c2.31 0 3.85-1.7 3.85-4.23 0-2.47-1.54-4.23-3.85-4.23h-6.82zm11.76 18.91c0-2.58-1.54-4.29-3.85-4.29h-7.92v8.63h7.92c2.31.01 3.85-1.75 3.85-4.34z"/><circle class="st0" cx="26" cy="25.81" r="24.81"/><path fill="#ffffff" d="M9.83 31.43l13.38.25 9.13-21.27z"/><path fill="#c69214" d="M32.31 41.21l.03-30.8-9.13 21.27z"/><path class="st0" d="M10.08 61.5v1.94c-.57-.39-1.49-.69-2.39-.69-1.88 0-3.03 1.27-3.03 3.17 0 1.91 1.15 3.2 3.03 3.2.9 0 1.82-.31 2.39-.69v1.91c-.55.35-1.4.66-2.53.66-3.02 0-5.02-2.11-5.02-5.08 0-2.96 2.02-5.08 5.02-5.08 1.13 0 1.98.33 2.53.66zm.92 4.42c0-2.96 2-5.08 5.05-5.08 3.03 0 5.03 2.12 5.03 5.08 0 2.97-2 5.08-5.03 5.08C13 71 11 68.89 11 65.92zm7.96 0c0-1.9-1.15-3.17-2.91-3.17-1.76 0-2.91 1.27-2.91 3.17 0 1.91 1.15 3.2 2.91 3.2 1.76 0 2.91-1.29 2.91-3.2zm8.89 3.48h-3.94l-.58 1.45h-2.24l4.35-9.86h.97l4.35 9.86h-2.31l-.6-1.45zm-1.97-4.96l-1.33 3.35h2.66l-1.33-3.35zm9.21-3.6c1.33 0 2.31.3 2.88.66v1.91c-.57-.4-1.54-.72-2.61-.72-1.16 0-1.79.39-1.79 1.15 0 1.02 1.24 1.03 2.46 1.31 1.19.27 2.36.81 2.36 2.64 0 2.05-1.42 3.2-3.81 3.2-1.36 0-2.42-.28-3-.66v-1.9c.58.42 1.61.72 2.75.72 1.24 0 1.94-.33 1.94-1.12 0-1.02-1.24-1.05-2.45-1.33-1.18-.3-2.36-.84-2.36-2.7 0-1.98 1.34-3.16 3.63-3.16zm8.63 2.05v7.96h-2.06v-7.96h-2.6v-1.9h7.26v1.9h-2.6zm8.74 6.51h-3.94l-.58 1.45H45.7l4.35-9.86h.97l4.35 9.86h-2.31l-.6-1.45zm-1.97-4.96l-1.33 3.35h2.66l-1.33-3.35zm5.97-3.45h2.05v7.97h4.11v1.88h-6.15v-9.85zm14.64-.15c1.33 0 2.31.3 2.88.66v1.91c-.57-.4-1.54-.72-2.61-.72-1.16 0-1.79.39-1.79 1.15 0 1.02 1.24 1.03 2.46 1.31 1.19.27 2.36.81 2.36 2.64 0 2.05-1.42 3.2-3.81 3.2-1.36 0-2.42-.28-3-.66v-1.9c.58.42 1.61.72 2.75.72 1.24 0 1.94-.33 1.94-1.12 0-1.02-1.24-1.05-2.45-1.33-1.18-.3-2.36-.84-2.36-2.7 0-1.98 1.34-3.16 3.63-3.16zm8.63 2.05v7.96h-2.06v-7.96h-2.6v-1.9h7.26v1.9h-2.6zm8.74 6.51h-3.94l-.58 1.45h-2.24l4.35-9.86h.97l4.35 9.86h-2.31l-.6-1.45zm-1.97-4.96l-1.33 3.35h2.66l-1.33-3.35zm8.91-1.55v7.96h-2.06v-7.96h-2.6v-1.9h7.26v1.9h-2.6zm3.78-1.9h6.33v1.9h-4.29v2.06h4.14v1.9h-4.14v2.12h4.44v1.88h-6.48v-9.86zm11.38-.15c1.33 0 2.31.3 2.88.66v1.91c-.57-.4-1.54-.72-2.61-.72-1.16 0-1.79.39-1.79 1.15 0 1.02 1.24 1.03 2.46 1.31 1.19.27 2.36.81 2.36 2.64 0 2.05-1.42 3.2-3.81 3.2-1.36 0-2.42-.28-3-.66v-1.9c.58.42 1.61.72 2.75.72 1.24 0 1.94-.33 1.94-1.12 0-1.02-1.24-1.05-2.45-1.33-1.18-.3-2.36-.84-2.36-2.7 0-1.98 1.35-3.16 3.63-3.16zm8.8 10.01v-9.86h3.9c2.05 0 3.17 1.22 3.17 2.7 0 1-.52 1.73-1.36 2.14 1.02.39 1.66 1.19 1.66 2.31 0 1.49-1.12 2.7-3.17 2.7h-4.2zm2.05-8.08v2.3h1.85c.63 0 1.05-.46 1.05-1.15 0-.67-.42-1.15-1.05-1.15h-1.85zm3.19 5.14c0-.7-.42-1.16-1.05-1.16h-2.15v2.34h2.15c.64 0 1.05-.48 1.05-1.18zm9.27 1.49h-3.94l-.58 1.45h-2.24l4.35-9.86h.97l4.35 9.86h-2.31l-.6-1.45zm-1.97-4.96l-1.33 3.35h2.66l-1.33-3.35zm7.96.69v5.72h-1.99v-9.86h.82l5.51 5.73v-5.73h1.99v9.86h-.81l-5.52-5.72zm8.44 5.72v-9.86h2.05v9.86h-2.05zm5.8 0l-3.42-4.61v-.99l3.49-4.26h2.45l-3.9 4.61 4.08 5.24h-2.7z"/></svg>