<svg xmlns="http://www.w3.org/2000/svg" width="84" height="51.635" viewBox="0 0 84 51.635">
  <path id="Path_692" data-name="Path 692" d="M22.817,57.681H34.3c10.352,0,16.956,6.366,16.956,16.3,0,11.006-7.317,16.361-18.978,16.361h-9.46Zm10.771,7.492c-.417,0-.952.059-1.666.059V82.843c5.83,0,10.352-2.32,10.352-9.043C42.275,68.029,38.586,65.173,33.589,65.173Zm53.245,2.017V58.563a17.854,17.854,0,0,0-7.318-1.487c-9.579,0-17.254,7.258-17.254,16.837s7.556,16.6,17.075,16.6c3.391,0,5.711-.715,7.5-2.083V79.8c-2.677,1.665-4.521,2.379-7.021,2.379A8.345,8.345,0,0,1,71.246,73.5a8.5,8.5,0,0,1,8.567-8.746c2.618,0,4.522.893,7.021,2.44Zm-84-16.058v1.547H9.2V51.133c-1.844-.059-2.142-.3-2.142-1.547V41.792l3.807,10.887h1.606l4.105-10.887v7.615c0,1.606,0,1.606-2.261,1.725v1.547h7.378V51.132c-2.142,0-2.2-.238-2.2-1.368V42.149c0-1.25.178-1.666,2.2-1.666V38.877H15.388l-3.213,8.746L9.2,38.877H2.834v1.606c1.785,0,2.082,0,2.082,1.547v7.318c0,1.428,0,1.785-2.082,1.785Zm30.869,0v1.547h5.89V51.133c-1.428-.059-1.428-.238-1.428-2.2V47.265c0-1.606.714-2.915,2.2-2.915,1.19,0,1.547.774,1.547,1.844V49.7c0,1.19-.059,1.428-1.487,1.428v1.547H45.72V51.133c-1.249,0-1.368-.119-1.368-1.309V47.384c0-1.666.774-3.094,2.32-3.094,1.19,0,1.428.714,1.428,2.142V50c0,1.011,0,1.131-1.428,1.131V52.68H52.5V51.133c-1.786,0-1.9.059-1.9-.952V46.2c0-2.261-.536-3.57-2.856-3.57a4.333,4.333,0,0,0-3.391,1.725A3.052,3.052,0,0,0,41.5,42.566a4,4,0,0,0-3.331,1.9V42.863H33.7v1.428c1.785,0,1.963.059,1.963,1.487v3.272c0,2.082,0,2.082-1.963,2.082ZM3.12,57.681V90.344H12.1l.06-12.494h8.746V70.295H12.223l-.06-5.057h9.4V57.681Zm50.1-18.8H57.38v5.057a4.175,4.175,0,0,1,2.975-1.309c2.38,0,3.987,2.142,3.987,5.117,0,3.212-1.606,5.295-4.343,5.295a3.751,3.751,0,0,1-3.034-1.369L56.131,52.8H54.882V42.094c0-1.606-.119-1.785-1.666-1.785V38.881Zm8.332,8.86c0-2.261-.833-3.391-2.023-3.391-1.547,0-2.2,1.25-2.2,3.57,0,2.023.774,3.391,2.142,3.391,1.13,0,2.082-1.071,2.082-3.57Zm15.464,3.392v1.547h6.425V51.133c-1.785,0-1.963.059-1.963-1.368V47.622c0-1.963.654-3.748,2.439-3.748a1.593,1.593,0,0,1,.6.119A1.526,1.526,0,0,0,83.5,45.362a1.3,1.3,0,0,0,1.369,1.309,1.614,1.614,0,0,0,1.606-1.785,2.188,2.188,0,0,0-2.261-2.261,3.661,3.661,0,0,0-2.8,1.606V42.863h-4.4v1.428c1.547,0,1.963,0,1.963,1.309v4.045C78.976,51.014,78.976,51.133,77.012,51.133Zm-8.091-3.089c0,1.9.893,3.212,2.5,3.212,1.428,0,2.082-.833,2.32-2.142h1.785a4.077,4.077,0,0,1-4.343,3.867,4.67,4.67,0,0,1-5-5.057c0-3.034,1.9-5.295,4.76-5.295,2.8,0,4.581,2.142,4.581,5.414h-6.6Zm2.023-3.875c-1.19,0-1.9.833-1.9,2.32h3.748C72.789,44.942,72.194,44.168,70.945,44.168ZM25.613,48.044c0,1.9.952,3.212,2.558,3.212,1.428,0,2.082-.833,2.32-2.142h1.725a4.025,4.025,0,0,1-4.284,3.867,4.714,4.714,0,0,1-5.057-5.057c0-3.034,1.963-5.295,4.819-5.295,2.8,0,4.522,2.142,4.522,5.414Zm2.082-3.875c-1.19,0-1.9.833-1.9,2.32H29.48C29.48,44.882,28.885,44.168,27.695,44.168ZM52.208,90.344h8.984V57.681H52.208V90.344Z" transform="translate(-2.834 -38.877)" fill-rule="evenodd"/>
</svg>
