<svg id="consumer_retail" data-name="consumer&amp;retail" xmlns="http://www.w3.org/2000/svg" width="102.275" height="92.977" viewBox="0 0 102.275 92.977">
  <g id="Group_590" data-name="Group 590" transform="translate(0 0)">
    <g class="cart" id="Group_589" data-name="Group 589">
      <g id="Group_584" data-name="Group 584">
        <path id="Path_711" data-name="Path 711" d="M71.1,62.794l7.323-35.917,1.889-9.514.945-4.756.472-2.378.236-1.191a15.23,15.23,0,0,1,.472-1.665A10.824,10.824,0,0,1,86.45,2.14,14.848,14.848,0,0,1,92.354,0h9.921V5.945H92.827q-3.9.359-4.959,3.569c0,.238-.236.476-.236.713l-.236,1.189-.472,2.378-.945,4.758-1.891,9.514-8.03,40.673H12.518L0,23.072H73.694v5.945H7.8l9.212,33.537H71.1Z" transform="translate(0 0)" fill="#4d4d4d"/>
      </g>
      <g id="Group_585" data-name="Group 585" transform="translate(55.744 70.603)">
        <path id="Path_712" data-name="Path 712" d="M41.191,38A11.187,11.187,0,1,1,30.008,49.187,11,11,0,0,1,41.191,38Zm0,18.24a6.81,6.81,0,1,0-6.807-6.811A6.959,6.959,0,0,0,41.191,56.24Z" transform="translate(-30 -38)" fill="#4d4d4d"/>
      </g>
      <g id="Group_586" data-name="Group 586" transform="translate(31.583 31.579)">
        <path id="Path_713" data-name="Path 713" d="M30.052,17A13.052,13.052,0,1,1,17,30.052H30.052Z" transform="translate(-17 -17)" fill="#4d4d4d"/>
      </g>
      <g id="Group_587" data-name="Group 587" transform="translate(31.604 33.462)">
        <path id="Path_714" data-name="Path 714" d="M26.323,27.323H17A9.35,9.35,0,0,1,26.323,18Z" transform="translate(-17 -18)" fill="#4d4d4d"/>
      </g>
      <g id="Group_588" data-name="Group 588" transform="translate(11.187 70.603)">
        <path id="Path_715" data-name="Path 715" d="M17.308,38a11.188,11.188,0,0,1,0,22.374A11.306,11.306,0,0,1,6,49.187,11.633,11.633,0,0,1,17.308,38Zm0,18.24a6.831,6.831,0,1,0-6.736-6.811,6.922,6.922,0,0,0,6.736,6.811Z" transform="translate(-6 -38)" fill="#4d4d4d"/>
      </g>
    </g>
  </g>
</svg>
