  <svg xmlns="http://www.w3.org/2000/svg" width="125" height="74.627" viewBox="0 0 67 40" >
  <defs>
    <clipPath id="az18a">
      <path d="M0 0h67v40H0z"></path>
    </clipPath>
  </defs>
  <g>
    <g>
      <g></g>
      <g clip-path="url(#az18a)">
        <g>
          <path fill="#fff" d="M66 36.621H4.452V4H1v36h65z"></path>
        </g>
        <g class="growArrow">
          <path fill="#fff" d="M48.875.815l-6.243.93 2.709 3.376-11.78 9.194-9.305-5.354L8 24.672 10.356 27l14.37-13.966 9.071 5.238L47.461 7.797l2.827 3.608 2.356-5.702L55 0z"></path>
        </g>
        <g>
          <path fill="#fff" d="M13 27h6v8h-6z"></path>
        </g>
        <g>
          <path fill="#fff" d="M5 29h6v6H5z"></path>
        </g>
        <g>
          <path fill="#fff" d="M21 21h6v14h-6z"></path>
        </g>
        <g>
          <path fill="#fff" d="M29 22h6v13h-6z"></path>
        </g>
        <g><path fill="#fff" d="M37 18h6v16h-6z"></path>
        </g>
        <g>
          <path fill="#fff" d="M45 14h6v21h-6z"></path>
        </g>
        <g>
          <path fill="#fff" d="M53 12h6v23h-6z"></path>
        </g>
      </g>
    </g>
  </g>
</svg>