<svg xmlns="http://www.w3.org/2000/svg" width="92" height="88.655" viewBox="0 0 55 53" class="imagetoSVG">
  <defs>
    <clipPath id="p8eca"><path d="M0 0h55v53H0z"></path></clipPath>
  </defs>
  <g>
    <g>
      <g></g>
      <g clip-path="url(#p8eca)">
        <g>
          <path fill="#fff" d="M48 10.5c0 1.333-1.167 2.5-2.5 2.5S43 11.833 43 10.5 44.167 8 45.5 8 48 9.167 48 10.5z"></path>
        </g>
        <g class="rotate2">
          <path fill="#fff" d="M13.53 29.196c-1.63.272-3.124-.682-3.395-2.32-.272-1.636.679-3.137 2.308-3.41 1.63-.273 3.123.682 3.395 2.32.271 1.5-.68 3-2.309 3.41zm14.935-.41c2.037-.272 3.937.955 4.345 3.001.271 2.047-.95 3.956-2.987 4.366-2.037.273-3.938-.955-4.345-3.001-.272-2.047.95-3.956 2.987-4.366zm18.602-1.773c-2.309.41-4.617-1.228-5.024-3.547-.408-2.455 1.222-4.774 3.53-5.184 2.444-.409 4.752 1.228 5.16 3.547.407 2.32-1.087 4.638-3.666 5.184zm-24.169 6.684c.679 3.547 3.938 5.866 7.468 5.184 3.53-.682 5.838-3.956 5.16-7.503-.136-.273-.136-.682-.272-.955l5.295-3c1.63 2.045 4.48 3.273 7.332 2.728 4.074-.683 6.79-4.775 5.974-8.867-.678-4.23-4.752-6.958-8.825-6.139-4.21.682-6.925 4.774-6.11 8.867.136.546.271.955.407 1.364l-5.295 3.001c-1.494-1.637-3.802-2.592-6.11-2.182-1.901.409-3.395 1.5-4.345 3l-5.703-2.182a3.34 3.34 0 0 0 0-1.637c-.543-2.728-3.123-4.502-5.838-3.956-2.716.546-4.48 3.138-3.938 5.866.543 2.728 3.123 4.501 5.839 3.956 1.357-.273 2.58-1.091 3.258-2.183l5.703 2.183a7.452 7.452 0 0 0 0 2.455z"></path>
        </g>
        <g transform="rotate(-67.084 43 37.5)">
          <path fill="#fff" d="M40.855 35.285l5.132-.005-.005 5.122-5.132.005z"></path>
        </g>
        <g>
          <path fill="#fff" d="M42 42.406c-5.096 7.309-14.186 10.828-23 9.204l.55-1.218C27.678 51.88 35.94 48.497 40.76 42z"></path>
        </g>
        <g>
          <path fill="#fff" d="M40 0c2.207 0 4 1.793 4 4s-1.793 4-4 4-4-1.793-4-4 1.793-4 4-4z"></path>
        </g>
          <g transform="rotate(-67.12 31.5 10)">
            <path fill="#fff" d="M29.315 7.125l5.132-.005-.006 5.121-5.131.006z"></path>
          </g>
          <g>
            <path fill="#fff" d="M6 16.466c5.096-7.211 14.186-10.684 23-9.081l-.55 1.202C20.46 7.117 12.06 10.457 7.376 17z"></path>
          </g>
          <g transform="rotate(-67.07 15.5 49)">
            <path fill="#fff" d="M12.705 46.795l5.132-.005-.005 5.122-5.132.005z"></path>
          </g>
          <g>
            <path fill="#fff" d="M11 46.76L10.468 48C3.29 42.904-.299 33.814 1.428 25l1.197.55C1.163 33.678 4.486 41.94 11 46.76z"></path>
          </g>
          <g transform="rotate(-67.065 4 21)">
            <path fill="#fff" d="M1.345 18.495l5.132-.005-.005 5.122-5.132.005z"></path>
          </g>
        </g>
      </g>
    </g>
  </svg>