<svg id="Group_619" data-name="Group 619" xmlns="http://www.w3.org/2000/svg" width="117.729" height="93.435" viewBox="0 0 117.729 93.435">
  <g id="Group_618" data-name="Group 618" transform="translate(0)">
    <g id="Group_614" data-name="Group 614" transform="translate(39.243)">
      <path id="Path_737" data-name="Path 737" d="M49.02,0h16.31V9.362a33.671,33.671,0,0,1,9.938,4.16l6.37-6.5,11.466,11.7-6.37,6.5a35.111,35.111,0,0,1,4.078,10.141h9.173V52.01H90.81a35.125,35.125,0,0,1-4.074,10.141l6.369,6.5-11.466,11.7-6.372-6.5a20.033,20.033,0,0,1-4.076,2.08,43.623,43.623,0,0,0,.51-5.98v-1.3A28.851,28.851,0,0,0,85.716,43.687c0-15.862-12.743-28.864-28.287-28.864A28.111,28.111,0,0,0,32.712,29.645H32.2a57.3,57.3,0,0,0-6.625.519l2.293-4.679-6.37-6.5L32.712,6.761l6.372,6.5A33.574,33.574,0,0,1,49.02,9.1Z" transform="translate(-21.5)" fill="#4d4d4d"/>
    </g>
    <g id="Group_615" data-name="Group 615" transform="translate(13.081 20.556)">
      <path id="Path_738" data-name="Path 738" d="M15.76,15.292a12.5,12.5,0,0,1,3.252-1.261V11h5.257v3.031a12.483,12.483,0,0,1,3.253,1.261l2.254-2.018,3.754,3.786-2.254,2.02a12.731,12.731,0,0,1,1.252,3.283h3v5.3h-3a12.757,12.757,0,0,1-1.252,3.283l2.254,2.272-3.756,3.788-2.252-2.272A12.5,12.5,0,0,1,24.27,36v3.031H19.011V36a12.484,12.484,0,0,1-3.253-1.261L13.5,37.263,9.75,33.475l2-2.272A12.731,12.731,0,0,1,10.5,27.919h-3v-5.3h3a12.784,12.784,0,0,1,1.252-3.283l-2-2.018,3.756-4.042Zm11.511,9.848a5.756,5.756,0,1,0-5.756,5.81,5.689,5.689,0,0,0,5.756-5.81Z" transform="translate(-7.5 -11)" fill="#4d4d4d"/>
    </g>
    <g id="Group_616" data-name="Group 616" transform="translate(26.162 44.849)">
      <path id="Path_739" data-name="Path 739" d="M19.523,53.1H14.5V43.747h5.023a22.488,22.488,0,0,1,2.261-5.716l-3.517-3.638L24.546,27.9l3.517,3.637A23.4,23.4,0,0,1,33.338,29.2V24h8.79v5.2a21.007,21.007,0,0,1,5.526,2.34l3.517-3.377,6.279,6.5L53.933,38.29a22.48,22.48,0,0,1,2.261,5.716h5.023V53.1H56.195a17.635,17.635,0,0,1-2.261,5.457l3.517,3.636-6.279,6.5-3.517-3.637a20.914,20.914,0,0,1-5.526,2.338v5.2H33.337v-5.2a16.508,16.508,0,0,1-5.275-2.34l-3.517,3.637-6.279-6.5,3.517-3.636A17.635,17.635,0,0,1,19.521,53.1ZM47.4,48.415a9.55,9.55,0,1,0-9.545,9.863A9.7,9.7,0,0,0,47.4,48.415Z" transform="translate(-14.5 -24)" fill="#4d4d4d"/>
    </g>
    <g id="Group_617" data-name="Group 617" transform="translate(0 48.586)">
      <path id="Path_740" data-name="Path 740" d="M10.165,50.293v-2.64a8.11,8.11,0,0,1-2.612-1.321l-1.828,1.85L2.589,45.012l1.829-1.85a9.481,9.481,0,0,1-1.046-2.9H.5V35.77H3.112a13.029,13.029,0,0,1,1.045-2.9l-1.829-1.85,3.4-3.167L7.552,29.7a9.28,9.28,0,0,1,2.874-1.058V26h4.7v2.64A12.675,12.675,0,0,1,18,29.7l1.828-1.848,3.136,3.169-1.829,1.848a9.517,9.517,0,0,1,1.046,2.9h2.611v4.489H22.181a13.01,13.01,0,0,1-1.045,2.906l1.829,1.848L19.83,48.182,18,46.332a9.328,9.328,0,0,1-2.874,1.058v2.9ZM17.5,38.137a4.973,4.973,0,1,0-4.973,5.008A5.367,5.367,0,0,0,17.5,38.137Z" transform="translate(-0.5 -26)" fill="#4d4d4d"/>
    </g>
  </g>
</svg>
