<svg id="privateclientservices" xmlns="http://www.w3.org/2000/svg" xmlns:xlink="http://www.w3.org/1999/xlink" width="106.318" height="60.753" viewBox="0 0 106.318 60.753">
  <defs>
    <clipPath id="clip-path">
      <path id="Path_747" data-name="Path 747" d="M0,0H106.318V60.753H0Z" fill="#4d4d4d"/>
    </clipPath>
  </defs>
  <g id="Group_627" data-name="Group 627">
    <g id="Group_626" data-name="Group 626" clip-path="url(#clip-path)">
      <g id="Group_620" data-name="Group 620" transform="matrix(0.605, -0.796, 0.796, 0.605, 2.166, 28.623)">
        <path id="Path_741" data-name="Path 741" d="M.126.163,32.9,0l-.126,25.566L0,25.727Z" fill="#4d4d4d"/>
      </g>
      <g id="Group_621" data-name="Group 621" transform="matrix(0.796, -0.605, 0.605, 0.796, 64.446, 15.414)">
        <path id="Path_742" data-name="Path 742" d="M.163.126,25.727,0l-.161,32.776L0,32.9Z" transform="translate(0 0)" fill="#4d4d4d"/>
      </g>
      <g id="Group_622" data-name="Group 622" transform="translate(42.527 21.264)">
        <path id="Path_743" data-name="Path 743" d="M44.939,14,34.062,19.866,28,26.018s.311,2.576,3.73,3l4.663-4.865,5.594-1.144,15.7,10.731,3.73-2.576L47.582,14Z" transform="translate(-28 -14)" fill="#4d4d4d"/>
      </g>
      <g id="Group_623" data-name="Group 623" transform="translate(31.895 18.226)">
        <path id="Path_744" data-name="Path 744" d="M54.543,29.785h0l-7.854-6.209-2.947.671s-4.09,4.362-5.071,5.7c-1.309,1.845-6.709-2.517-5.726-4.362.817-1.678,6.545-7.886,6.545-7.886L48.163,12,35.727,15.019,21,34.65l.981.838h.164a5.1,5.1,0,0,1,3.109-1.174A4.81,4.81,0,0,1,30,39.181v.167a4.9,4.9,0,0,1,4.092,3.021,4.89,4.89,0,0,1,4.417,3.019H39a4.81,4.81,0,0,1,4.745,4.866A3.767,3.767,0,0,1,43.58,51.6l3.436,2.517a1.814,1.814,0,0,0,2.618-.334l.491-.671a1.923,1.923,0,0,0-.327-2.685l-5.726-4.2,1.144-1.51,7.363,5.538a1.816,1.816,0,0,0,2.618-.336l.491-.671a1.924,1.924,0,0,0-.327-2.685L48,41.026l1.145-1.51,8.672,6.375a1.813,1.813,0,0,0,2.617-.334l.492-.671A1.925,1.925,0,0,0,60.6,42.2l-9-6.207,1.145-1.678,10.308,7.719A1.815,1.815,0,0,0,65.67,41.7l.491-.671a1.924,1.924,0,0,0-.327-2.685Z" transform="translate(-21 -12)" fill="#4d4d4d"/>
      </g>
      <g id="Group_624" data-name="Group 624" transform="translate(33.414 44.046)">
        <path id="Path_745" data-name="Path 745" d="M26.556,31.278a2.278,2.278,0,1,0-2.278,2.278A2.447,2.447,0,0,0,26.556,31.278Z" transform="translate(-22 -29)" fill="#4d4d4d"/>
      </g>
      <g id="Group_625" data-name="Group 625" transform="translate(34.933 47.084)">
        <path id="Path_746" data-name="Path 746" d="M35.28,37.075a4.46,4.46,0,0,0-1.938.674v-.674a2.964,2.964,0,0,0-2.909-3.038,2.649,2.649,0,0,0-1.616.506v-.506a2.911,2.911,0,1,0-2.909,3.038,2.652,2.652,0,0,0,1.616-.506v.506a2.962,2.962,0,0,0,2.909,3.038,4.467,4.467,0,0,0,1.938-.674v.674a2.911,2.911,0,1,0,5.817,0A3.074,3.074,0,0,0,35.28,37.075Z" transform="translate(-23 -31)" fill="#4d4d4d"/>
      </g>
    </g>
  </g>
</svg>
