<svg xmlns="http://www.w3.org/2000/svg" width="92" height="93" viewBox="0 0 48 49" class="imagetoSVG">
  <defs>
    <clipPath id="g89pa">
      <path d="M0 0h48v49H0z"></path>
    </clipPath>
  </defs>
  <g class="fileCompress">
    <g>
      <g></g>
      <g clip-path="url(#g89pa)">
        <g>
          <path fill="#fff" d="M45.671 18.404L44.99 18l-17.31 9.708c-2.044 1.079-5.316 1.079-7.224 0L3.01 18l-.681.404c-1.772.944-1.772 2.697 0 3.64l18.4 10.248c1.772.944 4.77.944 6.542 0l18.4-10.247c1.772-.944 1.772-2.562 0-3.64z"></path>
        </g>
        <g>
          <path fill="#fff" d="M20.729.72c1.772-.96 4.77-.96 6.542 0l18.4 10.428c1.772.96 1.772 2.744 0 3.704l-18.4 10.428c-1.772.96-4.77.96-6.542 0l-18.4-10.428c-1.772-.96-1.772-2.744 0-3.704z"></path>
        </g>
        <g>
          <path fill="#fff" d="M45.671 26.404L44.99 26l-17.31 9.573c-2.044 1.079-5.316 1.079-7.224 0L3.01 26l-.681.404c-1.772.944-1.772 2.697 0 3.64l18.4 10.248c1.772.944 4.77.944 6.542 0l18.4-10.247c1.772-.944 1.772-2.562 0-3.64z"></path>
        </g>
        <g>
          <path fill="#fff" d="M45.671 34.404L44.99 34l-17.31 9.573c-2.044 1.079-5.316 1.079-7.224 0L3.01 34l-.681.404c-1.772.944-1.772 2.697 0 3.64l18.4 10.248c1.772.944 4.77.944 6.542 0l18.4-10.247c1.772-.944 1.772-2.562 0-3.64z"></path>
        </g>
      </g>
    </g>
  </g>
</svg>