<svg xmlns="http://www.w3.org/2000/svg" width="82.98" height="92" viewBox="0 0 82.98 92">
  <g id="technology_media" data-name="technology&amp;media" transform="translate(-0.5)">
    <g id="Group_641" data-name="Group 641" transform="translate(0.5)">
      <g id="Group_640" data-name="Group 640">
        <g class="scaleanim" id="Group_637" data-name="Group 637">
          <g id="Group_634" data-name="Group 634">
            <path id="Path_753" data-name="Path 753" d="M41.99,6.346A35.313,35.313,0,0,1,77.167,41.7H83.48A41.779,41.779,0,0,0,41.99,0,41.779,41.779,0,0,0,.5,41.7H6.814A35.313,35.313,0,0,1,41.99,6.346Z" transform="translate(-0.5)" fill="#4d4d4d"/>
          </g>
          <g id="Group_635" data-name="Group 635" transform="translate(10.879 10.879)">
            <path id="Path_754" data-name="Path 754" d="M67.721,36.825A30.882,30.882,0,0,0,37.111,6,30.735,30.735,0,0,0,6.5,36.825h6.349a24.262,24.262,0,1,1,48.523,0Z" transform="translate(-6.5 -6)" fill="#4d4d4d"/>
          </g>
          <g id="Group_636" data-name="Group 636" transform="translate(23.358 23.572)">
            <path id="Path_755" data-name="Path 755" d="M43.573,31.132h6.192a18.132,18.132,0,1,0-36.265,0h6.192a11.891,11.891,0,0,1,11.94-11.94A12.031,12.031,0,0,1,43.573,31.132Z" transform="translate(-13.5 -13)" fill="#4d4d4d"/>
          </g>
        </g>
        <g id="Group_638" data-name="Group 638" transform="translate(36.045 36.049)">
          <path id="Path_756" data-name="Path 756" d="M20.5,26.346a6.319,6.319,0,1,0,1.851-4.5A6.321,6.321,0,0,0,20.5,26.346Z" transform="translate(-20.5 -20)" fill="#4d4d4d"/>
        </g>
        <g id="Group_639" data-name="Group 639" transform="translate(1.813 48.482)">
          <path id="Path_757" data-name="Path 757" d="M12.649,33.218a51.643,51.643,0,0,0,5.13,15.1H12.872a32.127,32.127,0,0,1-5.128-15.1Zm58.413,15.32H65.943a59.458,59.458,0,0,0,5.119-15.1h5.121A33.015,33.015,0,0,1,71.062,48.538ZM51,63.191A29.74,29.74,0,0,0,64.592,50.757h4.677A32.355,32.355,0,0,1,51,63.191ZM29.586,50.757a36.766,36.766,0,0,0,5.344,11.1,26.674,26.674,0,0,1-13.362-11.1Zm-.658-2.219h-8.7a51.335,51.335,0,0,1-5.352-15.1H26.474A122.64,122.64,0,0,0,28.927,48.538Zm11.6,0H31.379a80.43,80.43,0,0,1-2.675-15.1h11.82Zm11.818,0h-9.59v-15.1H55.016a83.4,83.4,0,0,1-2.677,15.1Zm2.453,0a85.559,85.559,0,0,0,2.453-15.1H68.842a49.275,49.275,0,0,1-5.352,15.1Zm-.669,2.219h8.027a27.68,27.68,0,0,1-13.378,11.1A36.8,36.8,0,0,0,54.125,50.757Zm-13.62,12.23c-4-1.335-6.676-6.45-8.456-12.23h8.456Zm2.247-12.23h8.919c-2.008,5.995-4.906,11.324-8.919,12.433Zm-28.318,0h4.459A31.619,31.619,0,0,0,32.271,63.191,36.293,36.293,0,0,1,14.433,50.757ZM1.5,30.108a40.584,40.584,0,0,0,81.167,0V27H1.5Z" transform="translate(-1.5 -27)" fill="#4d4d4d"/>
        </g>
      </g>
    </g>
  </g>
</svg>
