<svg xmlns="http://www.w3.org/2000/svg" width="162.59" height="183.797" viewBox="0 0 46 52">
  <g>
    <g>
      <g>
        <g>
          <path fill="#fff" d="M35.287 41.451c-2.997 2.972-6.893 4.755-11.088 4.978v-2.675c0-.668-.525-1.188-1.199-1.188s-1.274.52-1.274 1.188v2.675c-4.195-.298-8.09-2.006-11.088-4.978-2.996-2.971-4.72-6.834-5.02-10.994h2.698c.674 0 1.199-.52 1.199-1.188 0-.669-.525-1.189-1.199-1.189H5.619c.3-4.16 2.023-8.023 5.02-10.994 2.996-2.972 6.892-4.68 11.087-4.977v2.6c0 .668.525 1.188 1.2 1.188.673 0 1.198-.52 1.198-1.188v-2.6c4.195.297 8.091 2.005 11.088 4.977 2.996 2.971 4.72 6.834 5.02 10.994h-2.698c-.674 0-1.199.52-1.199 1.189 0 .668.525 1.188 1.2 1.188h2.696c-.224 4.16-1.948 8.023-4.944 10.994zM27.27 6.834v-2.6C27.27 1.857 25.322 0 23 0c-2.322 0-4.27 1.931-4.27 4.234v2.6C8.016 8.84 0 18.126 0 29.27 0 41.823 10.264 52 23 52c12.661 0 23-10.177 23-22.806 0-11.068-8.091-20.354-18.73-22.36z"></path>
        </g>
        <g class="rotateTime">
          <path fill="#fff" d="M22.963 31.162c-1.18 0-2.213-.956-2.213-2.207 0-1.178.959-2.208 2.213-2.208s2.213.957 2.213 2.208c0 1.25-.959 2.207-2.213 2.207zm9.738-13.044l-8.705 5.605c-.295-.073-.664-.073-1.033-.073-2.95 0-5.385 2.433-5.385 5.383 0 .37.074.812.147 1.18l-5.606 8.482c-.443.811.442 1.622 1.18 1.18l8.631-5.532c.37.074.664.074 1.033.074 2.951 0 5.385-2.434 5.385-5.384 0-.368-.073-.737-.147-1.106l5.68-8.555c.443-.811-.442-1.696-1.18-1.254z"></path>
        </g>
      </g>
    </g>
  </g>
</svg>