<svg width="268" height="65" viewBox="0 0 268 65" fill="none" xmlns="http://www.w3.org/2000/svg">
<path d="M161.822 34.2305H166.461L178.313 64.2175H174.052L170.677 55.3105H157.432L154.057 64.2175H150.008L161.822 34.2305ZM169.458 52.0521L164.902 40.0557L164.062 37.7886L163.215 40.0557L158.658 52.0521H169.458Z" fill="#001F3F"/>
<path d="M179.789 34.2305H183.414V64.2175H179.789V34.2305Z" fill="#001F3F"/>
<path d="M187.555 56.7233V43.5742H191.18V55.9548C191.18 59.8972 192.489 61.9952 195.819 61.9952C199.149 61.9952 201.011 59.4284 201.011 54.9711V43.5742H204.599V64.2239H201.057V61.3574C200.088 63.586 197.598 64.8694 194.896 64.8694C190.128 64.8694 187.555 61.9568 187.555 56.731V56.7233Z" fill="#001F3F"/>
<path d="M208.977 43.5667H212.602V46.3486C213.828 44.3352 215.894 42.875 218.55 42.875C221.207 42.875 223.485 44.2045 224.666 46.9481C226.058 44.5503 228.374 42.875 231.288 42.875C235.382 42.875 238.417 45.4879 238.417 51.1441V64.2086H234.792V51.8742C234.792 47.9779 233.657 45.7876 230.531 45.7876C227.405 45.7876 225.513 48.6157 225.513 51.9126V64.2086H221.888V51.9971C221.888 48.0547 220.707 45.7876 217.71 45.7876C214.547 45.7876 212.602 48.6541 212.602 52.0817V64.201H208.977V43.5513V43.5667Z" fill="#001F3F"/>
<path d="M242.562 43.5667H246.15V46.3486C247.247 44.5503 249.692 42.875 252.432 42.875C257.116 42.875 259.939 45.8722 259.939 51.1825V64.2086H256.314V51.659C256.314 47.7627 255.05 45.7876 251.841 45.7876C248.299 45.7876 246.188 48.5312 246.188 51.7819V64.201H242.562V43.5513V43.5667Z" fill="#001F3F"/>
<path d="M263.727 35.2578H267.942V39.669H263.727V35.2578ZM264.067 43.5653H267.692V64.215H264.067V43.5653Z" fill="#001F3F"/>
<path d="M57.5954 50.9216C57.8527 48.4931 59.6086 46.7102 62.091 46.7102C64.5734 46.7102 66.1552 48.4086 66.193 50.9216H57.5954ZM62.1288 42.1914C55.7942 42.1914 51.3516 46.7102 51.3516 53.5268C51.3516 60.9121 55.9304 64.9929 62.2575 64.9929C68.1608 64.9929 71.9676 61.6038 72.399 57.1772H66.1552C65.86 59.1292 64.2328 60.2205 62.2651 60.2205C59.6086 60.2205 57.6862 58.0456 57.6408 55.0485H72.5277V53.8342C72.5277 46.7947 68.7208 42.1914 62.1288 42.1914Z" fill="#001F3F"/>
<path d="M80.6748 42.6367H74.4688V64.2163H80.6748V42.6367Z" fill="#001F3F"/>
<path d="M94.2831 51.2674L91.4601 50.6603C89.1896 50.2223 88.4631 49.6613 88.4631 48.6161C88.4631 47.3173 89.7875 46.6641 91.4147 46.6641C93.4279 46.6641 94.6615 47.8783 94.8356 49.5767H100.996C100.822 45.1886 97.2726 42.1914 91.4526 42.1914C86.0639 42.1914 82.469 45.0579 82.469 48.839C82.469 52.62 85.0346 54.572 89.2275 55.4404L92.1791 56.0475C94.1015 56.4395 95.0475 57.0005 95.0475 58.1763C95.0475 59.5673 93.7685 60.5202 91.8007 60.5202C89.4016 60.5202 88.0771 59.0831 87.9939 56.9544H81.75C82.0073 61.819 85.7688 64.9929 91.8083 64.9929C97.4996 64.9929 101.132 61.9957 101.132 57.8228C101.132 53.9111 98.264 52.0436 94.2907 51.2597" fill="#001F3F"/>
<path d="M113.955 51.2674L111.132 50.6603C108.862 50.2223 108.135 49.6613 108.135 48.6161C108.135 47.3173 109.459 46.6641 111.087 46.6641C113.1 46.6641 114.333 47.8783 114.507 49.5767H120.668C120.494 45.1886 116.944 42.1914 111.124 42.1914C105.736 42.1914 102.141 45.0579 102.141 48.839C102.141 52.62 104.707 54.572 108.899 55.4404L111.851 56.0475C113.773 56.4395 114.719 57.0005 114.719 58.1763C114.719 59.5673 113.44 60.5202 111.473 60.5202C109.073 60.5202 107.749 59.0831 107.666 56.9544H101.422C101.679 61.819 105.441 64.9929 111.48 64.9929C117.172 64.9929 120.804 61.9957 120.804 57.8228C120.804 53.9111 117.936 52.0436 113.963 51.2597" fill="#001F3F"/>
<path d="M6.67525 13.1645V5.6485H12.5028C15.7951 5.6485 17.0363 7.07791 17.0363 9.38342C17.0363 11.6889 15.6664 13.1645 12.5028 13.1645H6.67525ZM23.8856 9.38342C23.8856 2.65134 18.9662 0 12.6315 0H0V30.4097H6.67525V18.7668H12.6315C18.7921 18.7668 23.8856 16.2462 23.8856 9.38342Z" fill="#001F3F"/>
<path d="M36.9516 22.2043C36.9516 24.9017 35.0292 26.7231 32.5014 26.7231C30.8288 26.7231 29.5952 25.7701 29.5952 24.1179C29.5952 22.4656 31.0029 21.7278 33.1447 21.3359L34.5978 21.0746C35.839 20.8133 36.5202 20.5981 36.9516 20.2062V22.2043ZM30.1098 16.0332C30.3217 14.0812 31.6916 12.9054 33.788 12.9054C35.7558 12.9054 36.8229 14.0351 36.8229 15.3339C36.8229 16.2868 36.2704 16.8555 34.5978 17.0707L31.6008 17.4165C27.1506 17.9852 23.3438 19.6298 23.3438 24.4099C23.3438 28.7519 26.8933 31.1881 30.5715 31.1881C33.9924 31.1881 36.1796 29.751 37.2846 27.6683C37.1559 28.3216 37.1105 28.9748 37.1105 29.6203V30.4042H42.8397V17.8469C42.8397 11.8525 40.1454 8.37891 33.5534 8.37891C27.862 8.37891 24.1384 11.5913 23.7978 16.0255H30.0871L30.1098 16.0332Z" fill="#001F3F"/>
<path d="M52.0881 31.1925C55.4257 31.1925 57.2648 29.717 58.4228 27.7189C58.2941 28.3721 58.2108 29.0176 58.2108 29.6709V30.4086H64.3714V9.12109H58.2108V21.6784C58.2108 24.545 56.5004 26.2433 54.1921 26.2433C51.8837 26.2433 50.8544 24.422 50.8544 21.7245V9.12109H44.6484V22.6775C44.6484 28.2415 47.9028 31.1925 52.0956 31.1925" fill="#001F3F"/>
<path d="M72.5419 0H66.3359V30.4097H72.5419V0Z" fill="#001F3F"/>
<path d="M74.375 34.2277V38.0471C78.53 38.0471 81.9055 34.6273 81.9055 30.4005V22.7539H74.375V30.4005H78.1364C78.1364 32.5139 76.4487 34.22 74.375 34.22" fill="#001F3F"/>
<path d="M46.5727 34.2305L42.4783 52.4824C42.0469 54.3038 41.7896 55.7409 41.4944 57.8696C41.1538 55.8254 40.8133 54.3038 40.4273 52.5285L36.4539 34.2305H27.1903L22.8839 52.5285C22.498 54.3115 22.1952 55.7409 21.8547 57.8696C21.5141 55.7409 21.2113 54.3038 20.8254 52.5285L16.8142 34.2305H9.60156L17.0639 64.2098H25.8734L31.8221 41.2085L36.9534 64.2098H45.9824L53.4902 34.2305H46.5727Z" fill="#001F3F"/>
<path d="M139.417 34.2305H133.211V64.2098H139.417V34.2305Z" fill="#B9C8DA"/>
</svg>
