<svg width="142" height="75" viewBox="0 0 142 75" fill="none" xmlns="http://www.w3.org/2000/svg">
<path d="M67.4796 58.7549C67.7811 55.9529 69.8383 53.8956 72.7468 53.8956C75.6553 53.8956 77.5086 55.8553 77.5529 58.7549H67.4796ZM72.7912 48.6816C65.3692 48.6816 60.1641 53.8956 60.1641 61.761C60.1641 70.2825 65.5288 74.991 72.9419 74.991C79.8584 74.991 84.3187 71.0806 84.8242 65.973H77.5086C77.1628 68.2253 75.2563 69.4844 72.9508 69.4844C69.8383 69.4844 67.586 66.975 67.5328 63.5167H84.9749V62.1157C84.9749 53.9932 80.5146 48.6816 72.7912 48.6816Z" fill="#03203D"/>
<path d="M94.5212 49.1953H87.25V74.0948H94.5212V49.1953Z" fill="#03203D"/>
<path d="M110.466 59.154L107.158 58.4535C104.498 57.948 103.647 57.3007 103.647 56.0947C103.647 54.5962 105.198 53.8424 107.105 53.8424C109.464 53.8424 110.909 55.2435 111.113 57.2032H118.331C118.127 52.1399 113.968 48.6816 107.149 48.6816C100.836 48.6816 96.6236 51.9892 96.6236 56.3519C96.6236 60.7146 99.6297 62.9669 104.542 63.9689L108 64.6695C110.253 65.1217 111.361 65.769 111.361 67.1257C111.361 68.7307 109.863 69.8303 107.557 69.8303C104.746 69.8303 103.194 68.1721 103.097 65.7158H95.7812C96.0827 71.3288 100.49 74.991 107.566 74.991C114.234 74.991 118.491 71.5328 118.491 66.7178C118.491 62.2043 115.13 60.0496 110.474 59.1451" fill="#03203D"/>
<path d="M133.512 59.154L130.205 58.4535C127.545 57.948 126.693 57.3007 126.693 56.0947C126.693 54.5962 128.245 53.8424 130.152 53.8424C132.51 53.8424 133.956 55.2435 134.16 57.2032H141.378C141.174 52.1399 137.015 48.6816 130.196 48.6816C123.883 48.6816 119.671 51.9892 119.671 56.3519C119.671 60.7146 122.677 62.9669 127.589 63.9689L131.047 64.6695C133.3 65.1217 134.408 65.769 134.408 67.1257C134.408 68.7307 132.909 69.8303 130.604 69.8303C127.793 69.8303 126.241 68.1721 126.144 65.7158H118.828C119.13 71.3288 123.537 74.991 130.613 74.991C137.281 74.991 141.537 71.5328 141.537 66.7178C141.537 62.2043 138.177 60.0496 133.521 59.1451" fill="#03203D"/>
<path d="M7.821 15.1898V6.5175H14.6489C18.5061 6.5175 19.9604 8.16682 19.9604 10.827C19.9604 13.4872 18.3554 15.1898 14.6489 15.1898H7.821ZM27.9853 10.827C27.9853 3.05923 22.2216 0 14.7996 0H0V35.0881H7.821V21.6541H14.7996C22.0176 21.6541 27.9853 18.7456 27.9853 10.827Z" fill="#03203D"/>
<path d="M43.2872 25.6184C43.2872 28.7308 41.0349 30.8324 38.0732 30.8324C36.1136 30.8324 34.6682 29.7328 34.6682 27.8263C34.6682 25.9199 36.3175 25.0686 38.827 24.6164L40.5295 24.3149C41.9837 24.0134 42.7818 23.7651 43.2872 23.3129V25.6184ZM35.2712 18.4979C35.5194 16.2456 37.1244 14.8889 39.5807 14.8889C41.8862 14.8889 43.1365 16.1924 43.1365 17.691C43.1365 18.7905 42.4892 19.4467 40.5295 19.695L37.018 20.094C31.804 20.7502 27.3438 22.6478 27.3438 28.1633C27.3438 33.1733 31.5025 35.9843 35.8121 35.9843C39.8201 35.9843 42.3828 34.3261 43.6774 31.923C43.5267 32.6768 43.4734 33.4305 43.4734 34.1754V35.0798H50.186V20.5906C50.186 13.6741 47.0293 9.66602 39.3058 9.66602C32.6376 9.66602 28.2748 13.3726 27.8758 18.489H35.2446L35.2712 18.4979Z" fill="#03203D"/>
<path d="M61.0291 35.9924C64.9396 35.9924 67.0944 34.2899 68.4511 31.9844C68.3003 32.7381 68.2028 33.4829 68.2028 34.2367V35.0879H75.4208V10.5254H68.2028V25.0146C68.2028 28.3222 66.1988 30.2818 63.4942 30.2818C60.7897 30.2818 59.5837 28.1803 59.5837 25.0678V10.5254H52.3125V26.1674C52.3125 32.5873 56.1255 35.9924 61.038 35.9924" fill="#03203D"/>
<path d="M84.99 0H77.7188V35.0881H84.99V0Z" fill="#03203D"/>
<path d="M87.1406 39.4948V43.9019C92.0088 43.9019 95.9636 39.9559 95.9636 35.0789V26.2559H87.1406V35.0789H91.5477C91.5477 37.5174 89.5703 39.4859 87.1406 39.4859" fill="#03203D"/>
<path d="M54.567 39.4961L49.7697 60.556C49.2643 62.6576 48.9628 64.3158 48.617 66.772C48.218 64.4133 47.8189 62.6576 47.3667 60.6092L42.7113 39.4961H31.8577L26.8122 60.6092C26.36 62.6665 26.0053 64.3158 25.6062 66.772C25.2072 64.3158 24.8525 62.6576 24.4003 60.6092L19.7006 39.4961H11.25L19.9932 74.0876H30.3148L37.2845 47.5476L43.2966 74.0876H53.8753L62.6717 39.4961H54.567Z" fill="#03203D"/>
</svg>
