<svg xmlns="http://www.w3.org/2000/svg" width="30.252" height="33.349" viewBox="0 0 30.252 33.349">
  <g id="Group_2" data-name="Group 2" transform="translate(-1143.976 -4581.343)">
    <path id="Path_3" data-name="Path 3" d="M743.708,426.746c0-2.508,0-4.917,0-7.325,0-1.077.409-1.5,1.484-1.511q1.915-.017,3.83,0c1.059.009,1.5.455,1.5,1.514,0,2.408,0,4.817,0,7.323.8,0,1.577-.048,2.344.021.365.033.9.208,1.013.467a1.408,1.408,0,0,1-.2,1.17c-1.938,2.66-3.92,5.289-5.9,7.921-.463.617-.876.633-1.336.023-2.005-2.662-4.01-5.324-5.973-8.017a1.312,1.312,0,0,1-.142-1.12c.119-.252.623-.417.971-.446C742.079,426.7,742.861,426.746,743.708,426.746Z" transform="translate(420.291 4177.894)" fill="#fff"/>
    <path id="Path_4" data-name="Path 4" d="M658.866,373.267q3.613,0,7.227,0a1.22,1.22,0,0,1,1.4,1.395q.009,3.3,0,6.609a1.265,1.265,0,0,1-1.409,1.411q-7.2.008-14.392,0a1.259,1.259,0,0,1-1.394-1.424q-.007-3.3,0-6.609c0-.94.453-1.381,1.406-1.382Q655.284,373.263,658.866,373.267Zm-1.765,7.418c1.337-.071,2.8.388,3.648-1.069a3.107,3.107,0,0,0-.121-3.5c-.905-1.3-2.29-.741-3.527-.857Zm-3.587-1.785a13.233,13.233,0,0,0,1.4-.191,1.6,1.6,0,0,0,1.188-1.661c.006-.862-.391-1.579-1.135-1.68a18.742,18.742,0,0,0-2.525-.026v5.3h1.073Zm9.767,1.758v-2.1h1.676V377.6h-1.65v-1.392h2.03v-.891h-3.13v5.342Z" transform="translate(493.685 4214.304)" fill="#fff"/>
    <path id="Path_5" data-name="Path 5" d="M684.105,339.516c1.976,0,3.957-.08,5.928.019a5.3,5.3,0,0,1,4.954,5.205c.04,2.676,0,5.354.018,8.031,0,.49-.175.648-.653.638-1.559-.032-1.342.159-1.348-1.35-.008-2.348,0-4.7,0-7.043a3.38,3.38,0,0,0-3.494-3.576q-5.436-.038-10.873,0a3.383,3.383,0,0,0-3.512,3.187c-.044.455-.222.546-.612.54-1.531-.023-1.6.206-1.2-1.542a5.31,5.31,0,0,1,5.359-4.142h5.437Z" transform="translate(475.077 4241.863)" fill="#fff"/>
    <path id="Path_6" data-name="Path 6" d="M686.56,438.581a2.915,2.915,0,0,1-.508.11c-2.6,0-5.194.07-7.785-.037a5.294,5.294,0,0,1-5.1-5.256c-.05-1.667,0-3.337-.017-5.005,0-.417.151-.585.574-.6,1.414-.068,1.413-.079,1.413,1.342q0,2.008,0,4.017a3.428,3.428,0,0,0,3.557,3.594q2.935.03,5.87-.005a1.033,1.033,0,0,1,1.024.507C685.861,437.69,686.2,438.1,686.56,438.581Z" transform="translate(475.048 4169.849)" fill="#fff"/>
    <path id="Path_10" data-name="Path 10" d="M693.418,392.889V389.47c1.313-.078,1.772.4,1.753,1.769C695.155,392.5,694.628,393,693.418,392.889Z" transform="translate(458.506 4201.093)" fill="#fff"/>
    <path id="Path_11" data-name="Path 11" d="M667.926,390.471v-1.992a4.777,4.777,0,0,1,1.219.544.825.825,0,0,1,.018.818A5.157,5.157,0,0,1,667.926,390.471Z" transform="translate(479.3 4201.894)" fill="#fff"/>
  </g>
</svg>

