<svg xmlns="http://www.w3.org/2000/svg" width="75" height="73" viewBox="0 0 75 73">
  <g id="Group_1" data-name="Group 1" transform="translate(-216 -408)">
    <g id="Group_5125" data-name="Group 5125" transform="translate(-945 -494)">
      <rect id="Rectangle_932" data-name="Rectangle 932" width="75" height="73" rx="11" transform="translate(1161 902)" fill="#fc5000"/>
    </g>
    <g id="phone" transform="translate(221 412)">
      <path id="Path_1" data-name="Path 1" d="M50.907,43.245a1.483,1.483,0,0,0-1.34.318c-2.163,1.846-5.151,3.812-6.439,4.015-8.643-4.22-13.469-12.321-13.651-13.856-.106-.864,1.875-3.9,4.154-6.363a1.511,1.511,0,0,0,.393-1.161c-.58-6.657-7.532-9.924-7.825-10.057a1.479,1.479,0,0,0-.883-.118c-8.027,1.33-9.235,6-9.282,6.191a1.5,1.5,0,0,0,.029.818C25.636,52.7,45.532,58.2,52.072,60.011c.5.14.919.251,1.234.356a1.513,1.513,0,0,0,1.1-.064c.2-.092,4.927-2.315,6.082-9.57a1.509,1.509,0,0,0-.146-.928c-.1-.2-2.575-4.9-9.431-6.56" transform="translate(-5 -6)" fill="#fffffe" fill-rule="evenodd"/>
    </g>
  </g>
</svg>
