<svg xmlns="http://www.w3.org/2000/svg" xmlns:xlink="http://www.w3.org/1999/xlink" width="927.727" height="271.241" viewBox="0 0 927.727 271.241">
  <defs>
    <clipPath id="clip-path">
      <path id="Path_135" data-name="Path 135" d="M431.705,177.666a26.33,26.33,0,0,0-22.822,13.192L280.266,424a8.686,8.686,0,0,1-7.518,4.348H150.021a8.694,8.694,0,0,1-7.517-4.337L91.284,335.2l-.094.176L79.448,315.024l62.045-112.465a8.691,8.691,0,0,1,7.518-4.345H271.733a8.7,8.7,0,0,1,7.518,4.337l49.081,85.071,11.858-20.56-43.982-76.2a26.329,26.329,0,0,0-22.82-13.192H147.334a26.335,26.335,0,0,0-22.821,13.192l-57.036,103.4-.114-.187L55.918,315.353,99.105,390.2l.124-.114,26.321,45.629a26.331,26.331,0,0,0,22.82,13.19H274.414a26.331,26.331,0,0,0,22.82-13.193l128.62-233.142a8.683,8.683,0,0,1,7.518-4.345H556.108a8.7,8.7,0,0,1,7.518,4.335l49.082,85.071,11.857-20.559-44-76.216a26.33,26.33,0,0,0-22.821-13.192Z" transform="translate(-55.918 -177.666)" fill="#d8d8d8"/>
    </clipPath>
    <clipPath id="clip-path-2">
      <path id="Path_137" data-name="Path 137" d="M464.761,448.907a26.331,26.331,0,0,0,22.822-13.193L616.2,202.572a8.684,8.684,0,0,1,7.518-4.348H746.445a8.692,8.692,0,0,1,7.517,4.335l51.22,88.811.093-.174,11.743,20.353L754.973,424.014a8.687,8.687,0,0,1-7.518,4.344H624.733a8.7,8.7,0,0,1-7.518-4.335l-49.081-85.071-11.858,20.56,43.982,76.2a26.331,26.331,0,0,0,22.82,13.193H749.133a26.336,26.336,0,0,0,22.822-13.193l57.036-103.4.114.187,11.445-21.279-43.187-74.849-.124.114-26.321-45.63a26.329,26.329,0,0,0-22.82-13.189H622.053a26.33,26.33,0,0,0-22.82,13.192L470.613,424a8.686,8.686,0,0,1-7.517,4.345H340.358a8.7,8.7,0,0,1-7.518-4.337l-49.082-85.07L271.9,359.5l44,76.215a26.331,26.331,0,0,0,22.821,13.193Z" transform="translate(-271.901 -177.666)" fill="#d8d8d8"/>
    </clipPath>
  </defs>
  <g id="Group_323" data-name="Group 323" transform="translate(2304 15912.646)">
    <g id="Group_290" data-name="Group 290" transform="translate(-2304 -15912.646)">
      <g id="Group_254" data-name="Group 254" transform="translate(0 0)">
        <g id="Group_283" data-name="Group 283">
          <path id="Path_134" data-name="Path 134" d="M431.705,177.666a26.33,26.33,0,0,0-22.822,13.192L280.266,424a8.686,8.686,0,0,1-7.518,4.348H150.021a8.694,8.694,0,0,1-7.517-4.337L91.284,335.2l-.094.176L79.448,315.024l62.045-112.465a8.691,8.691,0,0,1,7.518-4.345H271.733a8.7,8.7,0,0,1,7.518,4.337l49.081,85.071,11.858-20.56-43.982-76.2a26.329,26.329,0,0,0-22.82-13.192H147.334a26.335,26.335,0,0,0-22.821,13.192l-57.036,103.4-.114-.187L55.918,315.353,99.105,390.2l.124-.114,26.321,45.629a26.331,26.331,0,0,0,22.82,13.19H274.414a26.331,26.331,0,0,0,22.82-13.193l128.62-233.142a8.683,8.683,0,0,1,7.518-4.345H556.108a8.7,8.7,0,0,1,7.518,4.335l49.082,85.071,11.857-20.559-44-76.216a26.33,26.33,0,0,0-22.821-13.192Z" transform="translate(-55.918 -177.666)" fill="#d8d8d8"/>
          <g id="Group_282" data-name="Group 282" clip-path="url(#clip-path)">
            <g id="Group_253" data-name="Group 253" transform="translate(0 0)">
              <rect id="Rectangle_155" data-name="Rectangle 155" width="568.618" height="271.24" fill="#d8d8d8"/>
            </g>
          </g>
        </g>
      </g>
      <g id="Group_254-2" data-name="Group 254" transform="translate(311.079 0)">
        <g id="Group_285" data-name="Group 285">
          <path id="Path_136" data-name="Path 136" d="M464.761,448.907a26.331,26.331,0,0,0,22.822-13.193L616.2,202.572a8.684,8.684,0,0,1,7.518-4.348H746.445a8.692,8.692,0,0,1,7.517,4.335l51.22,88.811.093-.174,11.743,20.353L754.973,424.014a8.687,8.687,0,0,1-7.518,4.344H624.733a8.7,8.7,0,0,1-7.518-4.335l-49.081-85.071-11.858,20.56,43.982,76.2a26.331,26.331,0,0,0,22.82,13.193H749.133a26.336,26.336,0,0,0,22.822-13.193l57.036-103.4.114.187,11.445-21.279-43.187-74.849-.124.114-26.321-45.63a26.329,26.329,0,0,0-22.82-13.189H622.053a26.33,26.33,0,0,0-22.82,13.192L470.613,424a8.686,8.686,0,0,1-7.517,4.345H340.358a8.7,8.7,0,0,1-7.518-4.337l-49.082-85.07L271.9,359.5l44,76.215a26.331,26.331,0,0,0,22.821,13.193Z" transform="translate(-271.901 -177.666)" fill="#d8d8d8"/>
          <g id="Group_284" data-name="Group 284" clip-path="url(#clip-path-2)">
            <g id="Group_253-2" data-name="Group 253" transform="translate(0.03 0)">
              <rect id="Rectangle_155-2" data-name="Rectangle 155" width="568.618" height="271.24" fill="#d8d8d8"/>
            </g>
          </g>
        </g>
      </g>
    </g>
  </g>
</svg>
