<svg xmlns="http://www.w3.org/2000/svg" xmlns:xlink="http://www.w3.org/1999/xlink" width="927.73" height="273.244" viewBox="0 0 927.73 273.244">
  <defs>
    <clipPath id="clip-path">
      <path id="Path_135" data-name="Path 135" d="M450.211,177.666a27.9,27.9,0,0,0-23.948,13.2L291.314,424a9.2,9.2,0,0,1-7.888,4.348H154.655a9.214,9.214,0,0,1-7.887-4.337L93.026,335.2l-.1.176-12.32-20.352,65.1-112.465a9.21,9.21,0,0,1,7.888-4.345H282.361a9.22,9.22,0,0,1,7.888,4.337l51.5,85.071,12.442-20.56-46.148-76.2A27.9,27.9,0,0,0,284.1,177.67H151.836a27.906,27.906,0,0,0-23.945,13.192l-59.845,103.4-.12-.187L55.918,315.353,101.232,390.2l.13-.114,27.617,45.629a27.9,27.9,0,0,0,23.944,13.19H285.174a27.9,27.9,0,0,0,23.944-13.194L444.071,202.57a9.2,9.2,0,0,1,7.888-4.345H580.74a9.221,9.221,0,0,1,7.888,4.335l51.5,85.071,12.441-20.559L606.4,190.856a27.9,27.9,0,0,0-23.945-13.192Z" transform="translate(-55.918 -177.664)" fill="#d8d8d8"/>
    </clipPath>
    <clipPath id="clip-path-2">
      <path id="Path_137" data-name="Path 137" d="M474.257,448.907a27.9,27.9,0,0,0,23.947-13.2l134.949-233.14a9.2,9.2,0,0,1,7.888-4.348h128.77a9.211,9.211,0,0,1,7.887,4.335L831.44,291.37l.1-.174,12.321,20.353-65.1,112.465a9.206,9.206,0,0,1-7.888,4.344H642.106a9.221,9.221,0,0,1-7.888-4.335l-51.5-85.071-12.442,20.56,46.148,76.2a27.9,27.9,0,0,0,23.944,13.193H772.632a27.907,27.907,0,0,0,23.946-13.193l59.844-103.4.12.187L868.55,311.22l-45.313-74.849-.13.114-27.617-45.63a27.9,27.9,0,0,0-23.944-13.189H639.294A27.9,27.9,0,0,0,615.35,190.86L480.4,424a9.2,9.2,0,0,1-7.887,4.345H343.729a9.22,9.22,0,0,1-7.888-4.337l-51.5-85.07L271.9,359.5l46.167,76.215a27.9,27.9,0,0,0,23.945,13.193Z" transform="translate(-271.9 -177.666)" fill="#d8d8d8"/>
    </clipPath>
  </defs>
  <g id="Group_323" data-name="Group 323" transform="translate(2307 15912.648)">
    <g id="Group_290" data-name="Group 290" transform="translate(-2307 -15912.648)">
      <g id="Group_254" data-name="Group 254" transform="translate(0)">
        <g id="Group_283" data-name="Group 283">
          <path id="Path_134" data-name="Path 134" d="M450.211,177.666a27.9,27.9,0,0,0-23.948,13.2L291.314,424a9.2,9.2,0,0,1-7.888,4.348H154.655a9.214,9.214,0,0,1-7.887-4.337L93.026,335.2l-.1.176-12.32-20.352,65.1-112.465a9.21,9.21,0,0,1,7.888-4.345H282.361a9.22,9.22,0,0,1,7.888,4.337l51.5,85.071,12.442-20.56-46.148-76.2A27.9,27.9,0,0,0,284.1,177.67H151.836a27.906,27.906,0,0,0-23.945,13.192l-59.845,103.4-.12-.187L55.918,315.353,101.232,390.2l.13-.114,27.617,45.629a27.9,27.9,0,0,0,23.944,13.19H285.174a27.9,27.9,0,0,0,23.944-13.194L444.071,202.57a9.2,9.2,0,0,1,7.888-4.345H580.74a9.221,9.221,0,0,1,7.888,4.335l51.5,85.071,12.441-20.559L606.4,190.856a27.9,27.9,0,0,0-23.945-13.192Z" transform="translate(-55.918 -177.664)" fill="#d8d8d8"/>
          <g id="Group_282" data-name="Group 282" clip-path="url(#clip-path)">
            <g id="Group_253" data-name="Group 253" transform="translate(0 0.002)">
              <rect id="Rectangle_155" data-name="Rectangle 155" width="596.62" height="271.24" fill="#d8d8d8"/>
            </g>
          </g>
        </g>
      </g>
      <g id="Group_254-2" data-name="Group 254" transform="translate(331.08 2.002)">
        <g id="Group_285" data-name="Group 285">
          <path id="Path_136" data-name="Path 136" d="M474.257,448.907a27.9,27.9,0,0,0,23.947-13.2l134.949-233.14a9.2,9.2,0,0,1,7.888-4.348h128.77a9.211,9.211,0,0,1,7.887,4.335L831.44,291.37l.1-.174,12.321,20.353-65.1,112.465a9.206,9.206,0,0,1-7.888,4.344H642.106a9.221,9.221,0,0,1-7.888-4.335l-51.5-85.071-12.442,20.56,46.148,76.2a27.9,27.9,0,0,0,23.944,13.193H772.632a27.907,27.907,0,0,0,23.946-13.193l59.844-103.4.12.187L868.55,311.22l-45.313-74.849-.13.114-27.617-45.63a27.9,27.9,0,0,0-23.944-13.189H639.294A27.9,27.9,0,0,0,615.35,190.86L480.4,424a9.2,9.2,0,0,1-7.887,4.345H343.729a9.22,9.22,0,0,1-7.888-4.337l-51.5-85.07L271.9,359.5l46.167,76.215a27.9,27.9,0,0,0,23.945,13.193Z" transform="translate(-271.9 -177.666)" fill="#d8d8d8"/>
          <g id="Group_284" data-name="Group 284" clip-path="url(#clip-path-2)">
            <g id="Group_253-2" data-name="Group 253" transform="translate(0.033 0)">
              <rect id="Rectangle_155-2" data-name="Rectangle 155" width="596.616" height="271.24" fill="#d8d8d8"/>
            </g>
          </g>
        </g>
      </g>
    </g>
  </g>
</svg>
