<svg xmlns="http://www.w3.org/2000/svg" xmlns:xlink="http://www.w3.org/1999/xlink" width="312.234" height="735.321" viewBox="0 0 312.234 735.321">
  <defs>
    <clipPath id="clip-path">
      <rect id="Rectangle_2" data-name="Rectangle 2" width="312.234" height="735.321" transform="translate(235)" fill="none"/>
    </clipPath>
    <clipPath id="clip-path-2">
      <rect id="Rectangle_1" data-name="Rectangle 1" width="306.23" height="257.686" transform="translate(-10)" fill="none"/>
    </clipPath>
    <clipPath id="clip-path-3">
      <path id="Path_152" data-name="Path 152" d="M726.725,383.53a25.013,25.013,0,0,0-21.683,12.538L582.852,617.556a8.251,8.251,0,0,1-7.143,4.131H459.117a8.261,8.261,0,0,1-7.142-4.12l-48.66-84.374-.089.167L392.07,514.024l58.945-106.845a8.256,8.256,0,0,1,7.143-4.128H574.747a8.263,8.263,0,0,1,7.143,4.12l46.628,80.82,11.265-19.533L598,396.064a25.017,25.017,0,0,0-21.68-12.532H456.563a25.018,25.018,0,0,0-21.682,12.534L380.7,494.3l-.108-.178-10.874,20.216,41.029,71.109.117-.108,25.007,43.348a25.014,25.014,0,0,0,21.68,12.531H577.3a25.014,25.014,0,0,0,21.679-12.535L721.166,407.191a8.248,8.248,0,0,1,7.143-4.128h116.6a8.269,8.269,0,0,1,7.143,4.119L898.682,488l11.264-19.531-41.8-72.408a25.014,25.014,0,0,0-21.682-12.532Z" fill="none"/>
    </clipPath>
    <clipPath id="clip-path-4">
      <path id="Path_152-2" data-name="Path 152" d="M552.937,641.218A25.013,25.013,0,0,0,574.62,628.68L696.809,407.19a8.251,8.251,0,0,1,7.143-4.131H820.544a8.261,8.261,0,0,1,7.142,4.12l48.66,84.375.089-.167,11.156,19.336L828.646,617.568A8.256,8.256,0,0,1,821.5,621.7H704.914a8.263,8.263,0,0,1-7.143-4.12l-46.628-80.82-11.265,19.533,41.785,72.394a25.017,25.017,0,0,0,21.68,12.532H823.1a25.018,25.018,0,0,0,21.682-12.534l54.183-98.233.108.178,10.874-20.216L868.916,439.3l-.117.108L843.792,396.06a25.014,25.014,0,0,0-21.68-12.531H702.363a25.014,25.014,0,0,0-21.679,12.535L558.5,617.556a8.249,8.249,0,0,1-7.143,4.128h-116.6a8.269,8.269,0,0,1-7.143-4.119l-46.63-80.82L369.72,556.276l41.8,72.408a25.014,25.014,0,0,0,21.68,12.533Z" transform="translate(-369.717 -383.531)" fill="none"/>
    </clipPath>
  </defs>
  <g id="Scroll_Group_2" data-name="Scroll Group 2" transform="translate(-235)" clip-path="url(#clip-path)">
    <g id="Group_337" data-name="Group 337" transform="translate(-567.996 66)">
      <g id="Scroll_Group_1" data-name="Scroll Group 1" transform="translate(812 -66)" clip-path="url(#clip-path-2)">
        <g id="Component_9_1" data-name="Component 9 – 1">
          <g id="Group_336" data-name="Group 336" transform="translate(-369.716 -383.53)" clip-path="url(#clip-path-3)">
            <g id="Group_282" data-name="Group 282">
              <g id="Group_253" data-name="Group 253">
                <path id="Path_150" data-name="Path 150" d="M724.212,441.776c-.739,1.361-1.484,2.858-1.3,3.131C722.957,444.974,723.722,443.017,724.212,441.776Z" fill="#d8d8d8"/>
                <path id="Path_151" data-name="Path 151" d="M903.415,562.866c-25.165-39.873-42.343-83.748-61.364-126.7q-7.052-1.251-14.134-2.341l-.59-.091c-1.255-.17-2.51-.344-3.766-.512q-4.291-.574-8.586-1.112c-5.418-.682-10.839-1.331-16.261-1.981-20.871-2.5-41.795-5.01-62.471-8.863-1.465,2.151-2.768,4.621-3.878,6.329a128.81,128.81,0,0,0-6.878,11.894c-.114.224-.577,1.019-1.081,1.934-.074.208-.165.467-.284.8-.326.915-.7,1.814-1.03,2.728a84.382,84.382,0,0,0-3.415,12.118c-.078,1.6-.206,3.187-.225,4.791-.01.817-.063,1.62-.143,2.414,8.064,6.18,16,12.531,23.073,19.814,10.722,11.044,9.281,28.221-.96,38.889-6.631,6.908-16.616,8.8-25.569,6.554a36.192,36.192,0,0,1-2.4,2.768c-10.543,10.983-28.612,9.067-38.888-.959-9.913-9.672-15.034-22.523-19.6-35.28-1.7-4.747-3.227-9.555-4.92-14.3-2.429-4.856-1.633-3.728-.826-2.042-.052-.122-.1-.249-.153-.37a64.517,64.517,0,0,0-3.278-6.3,24.567,24.567,0,0,1-2.466-5.719c-1.523-2.242-2.972-4.56-4.314-6.993-7.3-13.232-1.981-29.1,10.3-36.934H629.237V389.5H668.22v30.7a29.381,29.381,0,0,1,4.993,1.524A142.323,142.323,0,0,1,687.8,395.45c2.825-4.036,5.832-8.029,9.01-11.914h-327.1v257.68h540.2V570.25a31.623,31.623,0,0,1-6.5-7.384Z" fill="#d8d8d8"/>
              </g>
            </g>
          </g>
        </g>
      </g>
      <g id="Component_9_2" data-name="Component 9 – 2" transform="translate(567.996 171.818)">
        <g id="Group_336-2" data-name="Group 336" transform="translate(0.001 0.001)" clip-path="url(#clip-path-4)">
          <g id="Group_282-2" data-name="Group 282" transform="translate(0.026 -0.001)">
            <g id="Group_253-2" data-name="Group 253">
              <path id="Path_150-2" data-name="Path 150" d="M722.884,444.909c.739-1.361,1.484-2.858,1.3-3.131C724.139,441.711,723.374,443.668,722.884,444.909Z" transform="translate(-537.177 -245.468)" fill="#d8d8d8"/>
              <path id="Path_151-2" data-name="Path 151" d="M376.22,461.88c25.165,39.873,42.343,83.748,61.364,126.7q7.052,1.251,14.134,2.341l.59.091c1.255.17,2.51.344,3.766.512q4.291.574,8.586,1.112c5.418.682,10.839,1.331,16.261,1.981,20.871,2.5,41.795,5.01,62.471,8.863,1.465-2.151,2.768-4.621,3.878-6.329a128.836,128.836,0,0,0,6.878-11.894c.114-.224.577-1.019,1.081-1.934.074-.208.165-.467.284-.8.326-.915.7-1.814,1.03-2.728a84.371,84.371,0,0,0,3.415-12.118c.078-1.6.206-3.187.225-4.791.01-.817.063-1.62.143-2.414-8.064-6.18-16-12.531-23.073-19.814-10.722-11.044-9.281-28.221.96-38.889,6.631-6.908,16.616-8.8,25.569-6.554a36.184,36.184,0,0,1,2.4-2.768c10.543-10.983,28.612-9.067,38.888.959,9.913,9.672,15.034,22.523,19.6,35.28,1.7,4.747,3.227,9.555,4.92,14.3,2.429,4.856,1.633,3.728.826,2.042.052.122.1.249.153.37a64.46,64.46,0,0,0,3.278,6.3,24.568,24.568,0,0,1,2.466,5.719c1.523,2.242,2.972,4.56,4.314,6.993,7.3,13.232,1.981,29.1-10.3,36.934H650.4v33.9H611.414v-30.7a29.386,29.386,0,0,1-4.993-1.524,142.326,142.326,0,0,1-14.59,26.271c-2.825,4.036-5.832,8.029-9.01,11.914h327.1V383.53h-540.2V454.5a31.627,31.627,0,0,1,6.5,7.38Z" transform="translate(-369.716 -383.53)" fill="#d8d8d8"/>
            </g>
          </g>
        </g>
      </g>
      <g id="Component_9_5" data-name="Component 9 – 5" transform="translate(812 888.633)">
        <g id="Group_336-3" data-name="Group 336" transform="translate(-369.716 -860.53)" clip-path="url(#clip-path-3)">
          <g id="Group_282-3" data-name="Group 282">
            <g id="Group_253-3" data-name="Group 253">
              <path id="Path_150-3" data-name="Path 150" d="M724.212,441.776c-.739,1.361-1.484,2.858-1.3,3.131C722.957,444.974,723.722,443.017,724.212,441.776Z" fill="#d8d8d8"/>
              <path id="Path_151-3" data-name="Path 151" d="M903.415,562.866c-25.165-39.873-42.343-83.748-61.364-126.7q-7.052-1.251-14.134-2.341l-.59-.091c-1.255-.17-2.51-.344-3.766-.512q-4.291-.574-8.586-1.112c-5.418-.682-10.839-1.331-16.261-1.981-20.871-2.5-41.795-5.01-62.471-8.863-1.465,2.151-2.768,4.621-3.878,6.329a128.81,128.81,0,0,0-6.878,11.894c-.114.224-.577,1.019-1.081,1.934-.074.208-.165.467-.284.8-.326.915-.7,1.814-1.03,2.728a84.382,84.382,0,0,0-3.415,12.118c-.078,1.6-.206,3.187-.225,4.791-.01.817-.063,1.62-.143,2.414,8.064,6.18,16,12.531,23.073,19.814,10.722,11.044,9.281,28.221-.96,38.889-6.631,6.908-16.616,8.8-25.569,6.554a36.192,36.192,0,0,1-2.4,2.768c-10.543,10.983-28.612,9.067-38.888-.959-9.913-9.672-15.034-22.523-19.6-35.28-1.7-4.747-3.227-9.555-4.92-14.3-2.429-4.856-1.633-3.728-.826-2.042-.052-.122-.1-.249-.153-.37a64.517,64.517,0,0,0-3.278-6.3,24.567,24.567,0,0,1-2.466-5.719c-1.523-2.242-2.972-4.56-4.314-6.993-7.3-13.232-1.981-29.1,10.3-36.934H629.237V389.5H668.22v30.7a29.381,29.381,0,0,1,4.993,1.524A142.323,142.323,0,0,1,687.8,395.45c2.825-4.036,5.832-8.029,9.01-11.914h-327.1v257.68h540.2V570.25a31.623,31.623,0,0,1-6.5-7.384Z" fill="#d8d8d8"/>
            </g>
          </g>
        </g>
      </g>
    </g>
  </g>
</svg>
