<svg xmlns="http://www.w3.org/2000/svg" width="73.202" height="73.135" viewBox="0 0 73.202 73.135">
  <g id="Group_5127" data-name="Group 5127" transform="translate(-875.176 -971.865)">
    <g id="noun-calendar-2080646" transform="translate(871.776 969.365)">
      <path id="Path_224" data-name="Path 224" d="M70.311,10.5H63.627v4.65a7.438,7.438,0,0,1-7.548,7.318H54.743a7.438,7.438,0,0,1-7.548-7.318V10.5H32.963v4.65a7.438,7.438,0,0,1-7.548,7.318H24a7.438,7.438,0,0,1-7.548-7.318V10.5H9.769A6.248,6.248,0,0,0,3.4,16.675V70.647a6.248,6.248,0,0,0,6.369,6.175H70.232A6.248,6.248,0,0,0,76.6,70.647V16.675A6.132,6.132,0,0,0,70.311,10.5ZM67.087,64.472a3.107,3.107,0,0,1-3.145,3.049h-47.8a3.107,3.107,0,0,1-3.145-3.049V37.486a3.059,3.059,0,0,1,3.145-3.049H63.863a3.107,3.107,0,0,1,3.145,3.049V64.472Z" transform="translate(0 -1.187)" fill="#fc5000"/>
      <path id="Path_225" data-name="Path 225" d="M29,18.511H30.45a4,4,0,0,0,4-4V6.843A4.362,4.362,0,0,0,30.109,2.5h-.766A4.362,4.362,0,0,0,25,6.843v7.665A3.894,3.894,0,0,0,29,18.511Z" transform="translate(-4.807)" fill="#fc5000"/>
      <path id="Path_226" data-name="Path 226" d="M67.9,18.511h1.448a4,4,0,0,0,4-4V6.843A4.362,4.362,0,0,0,69.01,2.5h-.767A4.362,4.362,0,0,0,63.9,6.843v7.665A4,4,0,0,0,67.9,18.511Z" transform="translate(-13.467)" fill="#fc5000"/>
      <path id="Path_227" data-name="Path 227" d="M32.324,48.9H24.914A2.255,2.255,0,0,0,22.7,51.114v5.451a2.255,2.255,0,0,0,2.214,2.214h7.409a2.255,2.255,0,0,0,2.214-2.214V51.114A2.2,2.2,0,0,0,32.324,48.9Z" transform="translate(-4.347 -11.207)" fill="#fc5000"/>
      <path id="Path_228" data-name="Path 228" d="M52.724,48.9H45.314A2.255,2.255,0,0,0,43.1,51.114v5.451a2.255,2.255,0,0,0,2.214,2.214h7.409a2.255,2.255,0,0,0,2.214-2.214V51.114A2.255,2.255,0,0,0,52.724,48.9Z" transform="translate(-8.941 -11.207)" fill="#fc5000"/>
      <path id="Path_229" data-name="Path 229" d="M73.024,48.9H65.614A2.255,2.255,0,0,0,63.4,51.114v5.451a2.255,2.255,0,0,0,2.214,2.214h7.409a2.255,2.255,0,0,0,2.214-2.214V51.114A2.2,2.2,0,0,0,73.024,48.9Z" transform="translate(-13.513 -11.207)" fill="#fc5000"/>
      <path id="Path_230" data-name="Path 230" d="M32.324,66.6H24.914A2.255,2.255,0,0,0,22.7,68.814v5.451a2.255,2.255,0,0,0,2.214,2.214h7.409a2.255,2.255,0,0,0,2.214-2.214V68.814A2.2,2.2,0,0,0,32.324,66.6Z" transform="translate(-4.347 -15.483)" fill="#fc5000"/>
      <path id="Path_231" data-name="Path 231" d="M52.724,66.6H45.314A2.255,2.255,0,0,0,43.1,68.814v5.451a2.255,2.255,0,0,0,2.214,2.214h7.409a2.255,2.255,0,0,0,2.214-2.214V68.814A2.255,2.255,0,0,0,52.724,66.6Z" transform="translate(-8.941 -15.483)" fill="#fc5000"/>
      <path id="Path_232" data-name="Path 232" d="M73.024,66.6H65.614A2.255,2.255,0,0,0,63.4,68.814v5.451a2.255,2.255,0,0,0,2.214,2.214h7.409a2.255,2.255,0,0,0,2.214-2.214V68.814A2.2,2.2,0,0,0,73.024,66.6Z" transform="translate(-13.513 -15.483)" fill="#fc5000"/>
    </g>
  </g>
</svg>
