<svg xmlns="http://www.w3.org/2000/svg" width="75.758" height="75.758" viewBox="0 0 75.758 75.758">
  <g id="noun-info-2397908" transform="translate(-76.44 -76.45)">
    <path id="Path_233" data-name="Path 233" d="M91.63,85.513h45.377a6.145,6.145,0,0,1,6.127,6.127v45.378a6.145,6.145,0,0,1-6.127,6.127H91.63a6.145,6.145,0,0,1-6.127-6.127V91.64A6.145,6.145,0,0,1,91.63,85.513Zm27.884,46.041c0,2.944,5.7,2.727,5.7,2.727v3.3H104.433v-3.3s5.7.217,5.7-2.727V109.965c-1.346-3.367-6.717-4.032-6.717-4.095V104h16.095Zm-4.877-40.472a5.29,5.29,0,1,1-5.29,5.29A5.289,5.289,0,0,1,114.637,91.082ZM91.63,76.45h45.377A15.228,15.228,0,0,1,152.2,91.64v45.378a15.227,15.227,0,0,1-15.19,15.189H91.63a15.226,15.226,0,0,1-15.19-15.189V91.64A15.227,15.227,0,0,1,91.63,76.45Zm45.377,6.165H91.63A9.059,9.059,0,0,0,82.6,91.64v45.378a9.06,9.06,0,0,0,9.026,9.025h45.377a9.06,9.06,0,0,0,9.025-9.025V91.64A9.059,9.059,0,0,0,137.007,82.615Z" fill="#fc5000" fill-rule="evenodd"/>
  </g>
</svg>
