<svg xmlns="http://www.w3.org/2000/svg" width="75" height="73" viewBox="0 0 75 73">
  <g id="Group_5125" data-name="Group 5125" transform="translate(-1161 -902)">
    <rect id="Rectangle_932" data-name="Rectangle 932" width="75" height="73" rx="11" transform="translate(1161 902)" fill="#fc5000"/>
    <g id="noun-career-2839697" transform="translate(1168.371 902.09)">
      <path id="Path_234" data-name="Path 234" d="M22.217,43.53H8.1a1.576,1.576,0,1,0,0,3.153H22.216a1.576,1.576,0,0,0,0-3.153Z" transform="translate(0 23.667)" fill="#fff"/>
      <path id="Path_235" data-name="Path 235" d="M34.218,38.53H20.1a1.576,1.576,0,1,0,0,3.153h14.12a1.576,1.576,0,0,0,0-3.153Z" transform="translate(6.917 20.785)" fill="#fff"/>
      <path id="Path_236" data-name="Path 236" d="M46.218,33.53H32.1a1.576,1.576,0,1,0,0,3.153h14.12a1.576,1.576,0,0,0,0-3.153Z" transform="translate(13.834 17.903)" fill="#fff"/>
      <path id="Path_237" data-name="Path 237" d="M19.242,9.018A6.55,6.55,0,1,0,25.79,2.47,6.558,6.558,0,0,0,19.242,9.018Z" transform="translate(7.332 0)" fill="#fff"/>
      <path id="Path_238" data-name="Path 238" d="M41.024,22.834a5.87,5.87,0,0,0,4.138-.616l5.254-2.976a3.991,3.991,0,0,0,1.51-5.442,4.1,4.1,0,0,0-5.445-1.513l-4.532,2.57-12.6-2.8a.588.588,0,0,0-.211-.019l-13.193.681a5.837,5.837,0,0,0-4.9,3.181l-3.187,6.28a3.994,3.994,0,0,0,1.753,5.372A4,4,0,0,0,14.983,25.8l2.623-5.164,4.556-.233L20,27.69,10.82,47.953a4,4,0,0,0,7.28,3.3l7.847-17.322,4.326,2.1-1.22,9.837a3.995,3.995,0,0,0,7.929.982L38.394,35.48a5.829,5.829,0,0,0-3.246-5.967l-4.181-2.029,1.922-6.454Z" transform="translate(0.52 5.378)" fill="#fff"/>
    </g>
  </g>
</svg>
