<svg xmlns="http://www.w3.org/2000/svg" xmlns:xlink="http://www.w3.org/1999/xlink" width="834.06" height="497.69" viewBox="0 0 834.06 497.69">
  <defs>
    <clipPath id="clip-path">
      <path id="Path_146" data-name="Path 146" d="M824.13,146.86l68-123.2a8.27,8.27,0,0,1,7.15-4.13h116.59a8.29,8.29,0,0,1,7.14,4.12L1071.63,108l.09-.17,11.16,19.34-59,106.83a8.22,8.22,0,0,1-7.14,4.13H900.2a8.249,8.249,0,0,1-7.139-4.118L846.43,153.19l-11.27,19.54L877,245.15a25,25,0,0,0,21.68,12.53h119.75a25,25,0,0,0,21.68-12.53l54.19-98.24.11.18,10.87-20.21-41-71.11-.12.11-25-43.35A25,25,0,0,0,1017.4,0H897.65A25,25,0,0,0,876,12.54l-62.9,114" fill="none"/>
    </clipPath>
  </defs>
  <g id="Group_325" data-name="Group 325" transform="translate(-305.94 -343.314)">
    <g id="Group_323" data-name="Group 323" transform="translate(305.94 343.315)">
      <g id="Group_290" data-name="Group 290">
        <g id="P1">
          <g id="Group_283" data-name="Group 283">
            <path id="Path_142" data-name="Path 142" d="M273,125.56,213.14,234a8.29,8.29,0,0,1-7.15,4.13H89.4A8.28,8.28,0,0,1,82.26,234L33.6,149.66l-.09.17L22.35,130.49l59-106.84a8.24,8.24,0,0,1,7.14-4.13H205a8.24,8.24,0,0,1,7.14,4.12l46.63,80.82,11.27-19.53-41.79-72.4A25,25,0,0,0,206.6,0H86.85A25,25,0,0,0,65.17,12.53L11,110.77l-.11-.18L0,130.81l41,71.1.12-.1,25,43.34A25,25,0,0,0,87.8,257.69H207.58a25,25,0,0,0,21.68-12.54l57.52-104.26" fill="#d8d8d8"/>
          </g>
        </g>
        <g id="P4" transform="translate(-541)">
          <g id="Group_287" data-name="Group 287">
            <g id="Group_324" data-name="Group 324" clip-path="url(#clip-path)">
              <g id="Group_286" data-name="Group 286">
                <g id="Group_253-3" data-name="Group 253-3">
                  <rect id="Rectangle_155-3" data-name="Rectangle 155-3" width="540.2" height="257.69" transform="translate(565.03)" fill="#d8d8d8"/>
                </g>
              </g>
            </g>
          </g>
        </g>
        <g id="P5" transform="translate(-541)">
          <g id="Group_289" data-name="Group 289">
            <path id="Path_140" data-name="Path 140" d="M1105,127.373,1162,23.66a8.24,8.24,0,0,1,7.14-4.13h116.59a8.24,8.24,0,0,1,7.14,4.12L1341.49,108l.09-.16,11.16,19.33L1293.8,234a8.25,8.25,0,0,1-7.15,4.13H1170.06a8.26,8.26,0,0,1-7.14-4.12l-46.63-80.82L1105,172.76l41.78,72.39a25,25,0,0,0,21.68,12.54h119.76a25,25,0,0,0,21.68-12.54l54.18-98.23.11.18,10.87-20.22-41-71.11-.11.11-25-43.35A25,25,0,0,0,1287.27,0H1167.52a25,25,0,0,0-21.68,12.53l-52.4,95.28" fill="#d8d8d8"/>
          </g>
        </g>
      </g>
    </g>
    <g id="Group_323-2" data-name="Group 323" transform="translate(442.94 583.315)">
      <g id="Group_290-2" data-name="Group 290">
        <g id="P1-2" data-name="P1">
          <g id="Group_283-2" data-name="Group 283">
            <path id="Path_142-2" data-name="Path 142" d="M273,125.56,213.14,234a8.29,8.29,0,0,1-7.15,4.13H89.4A8.28,8.28,0,0,1,82.26,234L33.6,149.66l-.09.17L22.35,130.49l59-106.84a8.24,8.24,0,0,1,7.14-4.13H205a8.24,8.24,0,0,1,7.14,4.12l46.63,80.82,11.27-19.53-41.79-72.4A25,25,0,0,0,206.6,0H86.85A25,25,0,0,0,65.17,12.53L11,110.77l-.11-.18L0,130.81l41,71.1.12-.1,25,43.34A25,25,0,0,0,87.8,257.69H207.58a25,25,0,0,0,21.68-12.54l57.52-104.26" fill="#d8d8d8"/>
          </g>
        </g>
        <g id="P3" transform="translate(-269.905)">
          <g id="Group_285" data-name="Group 285">
            <path id="Path_145" data-name="Path 145" d="M547.185,158.623,621.67,23.66a8.27,8.27,0,0,1,7.15-4.13H745.37a8.26,8.26,0,0,1,7.14,4.12L801.17,108l.09-.16,11.15,19.33L753.47,234a8.25,8.25,0,0,1-7.14,4.13H629.73a8.26,8.26,0,0,1-7.14-4.12L576,153.22l-11.3,19.54,41.78,72.39a25,25,0,0,0,21.68,12.53H747.92a25,25,0,0,0,21.68-12.53l54.19-98.24.1.18,10.88-20.21-41-71.11-.11.11-25-43.35A25,25,0,0,0,746.93,0H627.19a25,25,0,0,0-21.68,12.54l-63.825,115.4" fill="#d8d8d8"/>
          </g>
        </g>
      </g>
    </g>
  </g>
</svg>
