<svg xmlns="http://www.w3.org/2000/svg" xmlns:xlink="http://www.w3.org/1999/xlink" width="1377.094" height="257.687" viewBox="0 0 1377.094 257.687">
  <defs>
    <clipPath id="clip-path">
      <path id="Path_135" data-name="Path 135" d="M412.927,177.666A25.014,25.014,0,0,0,391.246,190.2L269.055,411.692a8.252,8.252,0,0,1-7.143,4.131H145.319a8.259,8.259,0,0,1-7.141-4.12l-48.66-84.374-.089.167L78.272,308.16l58.945-106.845a8.257,8.257,0,0,1,7.143-4.128H260.949a8.264,8.264,0,0,1,7.143,4.12l46.628,80.82,11.265-19.533L284.2,190.2a25.014,25.014,0,0,0-21.68-12.532H142.765A25.019,25.019,0,0,0,121.084,190.2L66.9,288.434l-.108-.178L55.918,308.472l41.029,71.109.118-.108,25.006,43.348a25.015,25.015,0,0,0,21.68,12.531H263.5a25.015,25.015,0,0,0,21.68-12.534L407.368,201.327a8.249,8.249,0,0,1,7.143-4.128h116.6a8.266,8.266,0,0,1,7.143,4.119l46.63,80.82,11.264-19.531-41.8-72.408a25.014,25.014,0,0,0-21.681-12.532Z" transform="translate(-55.918 -177.666)" fill="#d8d8d8"/>
    </clipPath>
    <clipPath id="clip-path-2">
      <path id="Path_137" data-name="Path 137" d="M455.124,435.353A25.016,25.016,0,0,0,476.8,422.819L599,201.327a8.249,8.249,0,0,1,7.143-4.131H722.732a8.258,8.258,0,0,1,7.141,4.119l48.66,84.374.089-.166,11.156,19.336L730.834,411.7a8.253,8.253,0,0,1-7.143,4.127H607.1a8.266,8.266,0,0,1-7.143-4.119l-46.628-80.82-11.265,19.533,41.785,72.394a25.015,25.015,0,0,0,21.68,12.534H725.285a25.02,25.02,0,0,0,21.681-12.534l54.186-98.235.108.178,10.873-20.216L771.1,233.437l-.118.108L745.98,190.2a25.014,25.014,0,0,0-21.68-12.53H604.555a25.014,25.014,0,0,0-21.68,12.532L460.683,411.692a8.252,8.252,0,0,1-7.141,4.128h-116.6a8.264,8.264,0,0,1-7.143-4.12l-46.63-80.819L271.9,350.413l41.8,72.406a25.015,25.015,0,0,0,21.681,12.534Z" transform="translate(-271.901 -177.666)" fill="#d8d8d8"/>
    </clipPath>
    <clipPath id="clip-path-3">
      <path id="Path_139" data-name="Path 139" d="M652.785,435.353a25.017,25.017,0,0,0,21.681-12.534L796.657,201.327A8.249,8.249,0,0,1,803.8,197.2H920.393a8.258,8.258,0,0,1,7.141,4.119l48.66,84.374.089-.166,11.156,19.336L928.495,411.7a8.253,8.253,0,0,1-7.143,4.127H804.763a8.266,8.266,0,0,1-7.143-4.119l-46.63-80.82-11.264,19.533,41.784,72.394a25.015,25.015,0,0,0,21.68,12.534H922.946a25.02,25.02,0,0,0,21.681-12.534l54.186-98.235.108.178,10.873-20.216-41.029-71.109-.118.108L943.641,190.2a25.016,25.016,0,0,0-21.68-12.53H802.216a25.014,25.014,0,0,0-21.68,12.532L658.344,411.692a8.254,8.254,0,0,1-7.143,4.128H534.6a8.262,8.262,0,0,1-7.141-4.12l-46.63-80.819-11.264,19.531,41.8,72.406a25.015,25.015,0,0,0,21.68,12.534Z" transform="translate(-469.562 -177.666)" fill="#d8d8d8"/>
    </clipPath>
    <clipPath id="clip-path-4">
      <path id="Path_141" data-name="Path 141" d="M849.276,435.353a25.016,25.016,0,0,0,21.681-12.534L993.149,201.327a8.245,8.245,0,0,1,7.141-4.131h116.594a8.258,8.258,0,0,1,7.141,4.119l48.66,84.374.089-.166,11.156,19.336L1124.986,411.7a8.252,8.252,0,0,1-7.143,4.127H1001.254a8.266,8.266,0,0,1-7.143-4.119l-46.628-80.82-11.265,19.533L978,422.819a25.015,25.015,0,0,0,21.68,12.534h119.756a25.02,25.02,0,0,0,21.681-12.534l54.186-98.235.108.178,10.873-20.216-41.029-71.109-.118.108-25-43.35a25.018,25.018,0,0,0-21.681-12.53H998.707a25.014,25.014,0,0,0-21.68,12.532L854.835,411.692a8.252,8.252,0,0,1-7.141,4.128h-116.6a8.265,8.265,0,0,1-7.143-4.12l-46.63-80.819-11.264,19.531,41.8,72.406a25.016,25.016,0,0,0,21.681,12.534Z" transform="translate(-665.053 -177.666)" fill="#d8d8d8"/>
    </clipPath>
  </defs>
  <g id="Group_323" data-name="Group 323" transform="translate(2304 15446.662)">
    <g id="Group_290" data-name="Group 290" transform="translate(-2359.918 -15624.328)">
      <g id="Group_254" data-name="Group 254" transform="translate(55.918 177.666)">
        <g id="Group_283" data-name="Group 283">
          <path id="Path_134" data-name="Path 134" d="M412.927,177.666A25.014,25.014,0,0,0,391.246,190.2L269.055,411.692a8.252,8.252,0,0,1-7.143,4.131H145.319a8.259,8.259,0,0,1-7.141-4.12l-48.66-84.374-.089.167L78.272,308.16l58.945-106.845a8.257,8.257,0,0,1,7.143-4.128H260.949a8.264,8.264,0,0,1,7.143,4.12l46.628,80.82,11.265-19.533L284.2,190.2a25.014,25.014,0,0,0-21.68-12.532H142.765A25.019,25.019,0,0,0,121.084,190.2L66.9,288.434l-.108-.178L55.918,308.472l41.029,71.109.118-.108,25.006,43.348a25.015,25.015,0,0,0,21.68,12.531H263.5a25.015,25.015,0,0,0,21.68-12.534L407.368,201.327a8.249,8.249,0,0,1,7.143-4.128h116.6a8.266,8.266,0,0,1,7.143,4.119l46.63,80.82,11.264-19.531-41.8-72.408a25.014,25.014,0,0,0-21.681-12.532Z" transform="translate(-55.918 -177.666)" fill="#d8d8d8"/>
          <g id="Group_282" data-name="Group 282" clip-path="url(#clip-path)">
            <g id="Group_253" data-name="Group 253" transform="translate(0 0)">
              <rect id="Rectangle_155" data-name="Rectangle 155" width="540.204" height="257.686" fill="#d8d8d8"/>
            </g>
          </g>
        </g>
      </g>
      <g id="Group_254-2" data-name="Group 254" transform="translate(351.453 177.666)">
        <g id="Group_285" data-name="Group 285">
          <path id="Path_136" data-name="Path 136" d="M455.124,435.353A25.016,25.016,0,0,0,476.8,422.819L599,201.327a8.249,8.249,0,0,1,7.143-4.131H722.732a8.258,8.258,0,0,1,7.141,4.119l48.66,84.374.089-.166,11.156,19.336L730.834,411.7a8.253,8.253,0,0,1-7.143,4.127H607.1a8.266,8.266,0,0,1-7.143-4.119l-46.628-80.82-11.265,19.533,41.785,72.394a25.015,25.015,0,0,0,21.68,12.534H725.285a25.02,25.02,0,0,0,21.681-12.534l54.186-98.235.108.178,10.873-20.216L771.1,233.437l-.118.108L745.98,190.2a25.014,25.014,0,0,0-21.68-12.53H604.555a25.014,25.014,0,0,0-21.68,12.532L460.683,411.692a8.252,8.252,0,0,1-7.141,4.128h-116.6a8.264,8.264,0,0,1-7.143-4.12l-46.63-80.819L271.9,350.413l41.8,72.406a25.015,25.015,0,0,0,21.681,12.534Z" transform="translate(-271.901 -177.666)" fill="#d8d8d8"/>
          <g id="Group_284" data-name="Group 284" clip-path="url(#clip-path-2)">
            <g id="Group_253-2" data-name="Group 253" transform="translate(0.029 0)">
              <rect id="Rectangle_155-2" data-name="Rectangle 155" width="540.204" height="257.686" fill="#d8d8d8"/>
            </g>
          </g>
        </g>
      </g>
      <g id="Group_254-3" data-name="Group 254" transform="translate(621.917 177.666)">
        <g id="Group_287" data-name="Group 287">
          <path id="Path_138" data-name="Path 138" d="M652.785,435.353a25.017,25.017,0,0,0,21.681-12.534L796.657,201.327A8.249,8.249,0,0,1,803.8,197.2H920.393a8.258,8.258,0,0,1,7.141,4.119l48.66,84.374.089-.166,11.156,19.336L928.495,411.7a8.253,8.253,0,0,1-7.143,4.127H804.763a8.266,8.266,0,0,1-7.143-4.119l-46.63-80.82-11.264,19.533,41.784,72.394a25.015,25.015,0,0,0,21.68,12.534H922.946a25.02,25.02,0,0,0,21.681-12.534l54.186-98.235.108.178,10.873-20.216-41.029-71.109-.118.108L943.641,190.2a25.016,25.016,0,0,0-21.68-12.53H802.216a25.014,25.014,0,0,0-21.68,12.532L658.344,411.692a8.254,8.254,0,0,1-7.143,4.128H534.6a8.262,8.262,0,0,1-7.141-4.12l-46.63-80.819-11.264,19.531,41.8,72.406a25.015,25.015,0,0,0,21.68,12.534Z" transform="translate(-469.562 -177.666)" fill="#d8d8d8"/>
          <g id="Group_286" data-name="Group 286" clip-path="url(#clip-path-3)">
            <g id="Group_253-3" data-name="Group 253" transform="translate(0.028 0)">
              <rect id="Rectangle_155-3" data-name="Rectangle 155" width="540.204" height="257.686" fill="#d8d8d8"/>
            </g>
          </g>
        </g>
      </g>
      <g id="Group_254-4" data-name="Group 254" transform="translate(891.78 177.666)">
        <g id="Group_289" data-name="Group 289">
          <path id="Path_140" data-name="Path 140" d="M849.276,435.353a25.016,25.016,0,0,0,21.681-12.534L993.149,201.327a8.245,8.245,0,0,1,7.141-4.131h116.594a8.258,8.258,0,0,1,7.141,4.119l48.66,84.374.089-.166,11.156,19.336L1124.986,411.7a8.252,8.252,0,0,1-7.143,4.127H1001.254a8.266,8.266,0,0,1-7.143-4.119l-46.628-80.82-11.265,19.533L978,422.819a25.015,25.015,0,0,0,21.68,12.534h119.756a25.02,25.02,0,0,0,21.681-12.534l54.186-98.235.108.178,10.873-20.216-41.029-71.109-.118.108-25-43.35a25.018,25.018,0,0,0-21.681-12.53H998.707a25.014,25.014,0,0,0-21.68,12.532L854.835,411.692a8.252,8.252,0,0,1-7.141,4.128h-116.6a8.265,8.265,0,0,1-7.143-4.12l-46.63-80.819-11.264,19.531,41.8,72.406a25.016,25.016,0,0,0,21.681,12.534Z" transform="translate(-666.053 -177.666)" fill="#d8d8d8"/>
          <g id="Group_288" data-name="Group 288" clip-path="url(#clip-path-4)">
            <g id="Group_253-4" data-name="Group 253" transform="translate(0.029 0)">
              <rect id="Rectangle_155-4" data-name="Rectangle 155" width="540.204" height="257.686" fill="#d8d8d8"/>
            </g>
          </g>
        </g>
      </g>
    </g>
  </g>
</svg>
