<svg id="Group_5069" data-name="Group 5069" xmlns="http://www.w3.org/2000/svg" width="43.108" height="48.015" viewBox="0 0 43.108 48.015">
  <path id="Path_210" data-name="Path 210" d="M1373.6,587.2a16.537,16.537,0,0,0,3.847.68c.235.017.471.032.707.046h24.72c.6-.043,1.212-.089,1.824-.15a12.4,12.4,0,0,0,3.495-.825,5.862,5.862,0,0,0,3.727-4.627c.082-.439.13-.884.193-1.326v-1.684c-.015-.086-.033-.171-.045-.258-.089-.618-.131-1.247-.271-1.853a14.132,14.132,0,0,0-8.066-10.011c-.072-.035-.149-.061-.24-.1.127.335.254.63.349.934a7.423,7.423,0,0,1,.23.932.344.344,0,0,0,.264.311,3.2,3.2,0,1,1-4.064,4.189,3.167,3.167,0,0,1,1.1-3.765,9.8,9.8,0,0,1,1.21-.626.256.256,0,0,0-.007-.084,5.368,5.368,0,0,0-1.272-2.471.926.926,0,0,0-.459-.261c-.537-.112-1.081-.187-1.561-.266a7.629,7.629,0,0,1-.5,1.147,13.032,13.032,0,0,1-1.2,1.617,50.137,50.137,0,0,1-6.9,6.119.185.185,0,0,1-.269-.012,53.834,53.834,0,0,1-6.313-5.481,7.387,7.387,0,0,1-2.221-3.391c-.407.062-.818.121-1.228.188a.365.365,0,0,0-.168.081,5.441,5.441,0,0,0-1.719,2.5.271.271,0,0,0,.128.373.806.806,0,0,1,.3.3,1.748,1.748,0,0,0,.914.825.452.452,0,0,1,.06.04,8.161,8.161,0,0,1,2.762,3.5,1.815,1.815,0,0,1,.054.611,1.678,1.678,0,0,0,.035.457,11.983,11.983,0,0,1,.7,5.765,1.968,1.968,0,0,1-1.172,1.766c-.279.115-.555.235-.835.347a.811.811,0,0,1-.278.069c-.481.007-.963.021-1.443,0a.883.883,0,0,1-.835-.868.865.865,0,0,1,.754-.888c.589-.021,1.182.014,1.772.044a.469.469,0,0,0,.489-.259,1.769,1.769,0,0,0,.1-.419,10.566,10.566,0,0,0-.67-5.143.814.814,0,0,0-.154-.2,3.272,3.272,0,0,1-.456-.541,7.638,7.638,0,0,0-1.523-2.144,1.936,1.936,0,0,0-2.977-.032q-.063.056-.123.115a8.091,8.091,0,0,0-1.527,2.23,3.1,3.1,0,0,1-.471.556c-.079.091-.2.173-.227.279-.2.717-.421,1.431-.547,2.161a8.528,8.528,0,0,0,.015,2.92c.075.431.306.554.724.447a.982.982,0,0,1,.238-.03c.441,0,.882-.009,1.323,0a.89.89,0,0,1,.876.852.848.848,0,0,1-.805.909c-.682-.011-1.4.207-2.039-.216a.313.313,0,0,0-.093-.022,2,2,0,0,1-1.713-1.923,11.806,11.806,0,0,1,.651-5.651,2.454,2.454,0,0,0,.066-.505,2.335,2.335,0,0,1,.1-.582,8.729,8.729,0,0,1,.511-1.006,7.21,7.21,0,0,1,2.5-2.712,1.141,1.141,0,0,0,.559-.553.614.614,0,0,1,.229-.3,1.7,1.7,0,0,0,.7-1.179,11.3,11.3,0,0,1,.478-1.164.109.109,0,0,0-.039,0c-.06.021-.121.043-.18.068a14.277,14.277,0,0,0-8.5,10.856c-.076.465-.124.935-.185,1.4V581c.071.481.121.967.217,1.443A5.968,5.968,0,0,0,1373.6,587.2Z" transform="translate(-1369 -539.909)" fill="#fc5000"/>
  <path id="Path_211" data-name="Path 211" d="M1602.687,24c.466.073.937.121,1.4.222a10.71,10.71,0,0,1,7.125,5.2,11.828,11.828,0,0,1,1.551,7.584,27.911,27.911,0,0,1-.685,4.145,16.777,16.777,0,0,1-3.355,6.689,9.493,9.493,0,0,1-4.6,3.143,7.711,7.711,0,0,1-6.922-1.3,12.917,12.917,0,0,1-3.994-4.915,19.864,19.864,0,0,1-1.97-7.262,21.17,21.17,0,0,1-.13-2.638,11.355,11.355,0,0,1,7.514-10.318,10.2,10.2,0,0,1,2.416-.511,1.82,1.82,0,0,0,.209-.042Zm-10.118,13.563a1.305,1.305,0,0,0-.015.151,18.157,18.157,0,0,0,1.284,5.23,12.375,12.375,0,0,0,3.551,4.977,6.884,6.884,0,0,0,7.834.875,10.1,10.1,0,0,0,3.828-3.8,16.644,16.644,0,0,0,2.2-6.283c.054-.359.091-.72.136-1.08l-.062-.054-1.43.665c.008-.076.014-.162.026-.248a18.422,18.422,0,0,0,.17-3.907,5.966,5.966,0,0,0-.466-2.075,1.8,1.8,0,0,0-.789-.907.373.373,0,0,0-.283-.016A19.533,19.533,0,0,1,1605,32.253a12.433,12.433,0,0,1-3.189.385,17.537,17.537,0,0,1-6.341-1.519.436.436,0,0,0-.481.045,2.335,2.335,0,0,0-.86,1.325,11.4,11.4,0,0,0-.266,4.1c.04.557.111,1.111.166,1.65Z" transform="translate(-1580.411 -24)" fill="#fc5000"/>
  <path id="Path_212" data-name="Path 212" d="M2049.016,666.768a1.6,1.6,0,1,1,1.612-1.595A1.6,1.6,0,0,1,2049.016,666.768Z" transform="translate(-2014.784 -632.795)" fill="#fc5000"/>
</svg>
