<svg xmlns="http://www.w3.org/2000/svg" width="53.041" height="51.083" viewBox="0 0 53.041 51.083">
  <path id="Union_4" data-name="Union 4" d="M10.376,43.75V32.371a3.08,3.08,0,0,1,2.075-2.911v-2.3a13.358,13.358,0,0,1-6.5-2.283,13.652,13.652,0,0,1,0-22.556,13.39,13.39,0,0,1,15.084,0A13.6,13.6,0,0,1,26.7,10.859a13.826,13.826,0,0,1,0,5.483,13.607,13.607,0,0,1-5.674,8.536,13.331,13.331,0,0,1-6.576,2.288v2.293a3.078,3.078,0,0,1,2.075,2.911V43.75a3.077,3.077,0,0,1-6.154,0ZM11.449,3.74A10.388,10.388,0,0,0,7.763,5.254,10.336,10.336,0,0,0,6.239,6.484a10.17,10.17,0,0,0-1.258,1.49,9.966,9.966,0,0,0-.95,1.71,9.867,9.867,0,0,0,0,7.835,9.966,9.966,0,0,0,.95,1.71,10.17,10.17,0,0,0,1.258,1.49,10.319,10.319,0,0,0,3.275,2.157,10.457,10.457,0,0,0,1.935.586,10.612,10.612,0,0,0,4.154,0,10.37,10.37,0,0,0,3.685-1.514,10.336,10.336,0,0,0,1.525-1.229,10.176,10.176,0,0,0,1.259-1.49,10.023,10.023,0,0,0,.95-1.71,9.772,9.772,0,0,0,.6-1.889,9.917,9.917,0,0,0,0-4.057,9.772,9.772,0,0,0-.6-1.889,10.022,10.022,0,0,0-.95-1.71,10.176,10.176,0,0,0-1.259-1.49,10.319,10.319,0,0,0-3.275-2.157A10.471,10.471,0,0,0,15.6,3.74a10.657,10.657,0,0,0-4.154,0Z" transform="translate(0 20.362) rotate(-49)" fill="#fc5000" opacity="0.8"/>
</svg>
