<svg xmlns="http://www.w3.org/2000/svg" width="42.808" height="41.014" viewBox="0 0 42.808 41.014">
  <g id="Group_5109" data-name="Group 5109" transform="translate(-555.812 -430.408)">
    <path id="Path_222" data-name="Path 222" d="M577.039,436.732a39.622,39.622,0,0,1,4.357-3.97c6.162-4.15,14.274-.747,16.2,6.771,1.445,5.64-.275,10.63-4,14.776-4.939,5.489-10.223,10.668-15.334,16-.78.815-1.345.815-2.135-.012-5.044-5.285-10.225-10.444-15.164-15.825-3.594-3.915-5.377-8.636-4.348-14.007.9-4.71,3.661-8.06,8.43-9.217s8.4,1.03,11.343,4.624C576.642,436.192,576.882,436.526,577.039,436.732Z" fill="none" stroke="#fbfbfb" stroke-width="1"/>
  </g>
</svg>
