<svg xmlns="http://www.w3.org/2000/svg" width="24" height="22.966" viewBox="0 0 24 22.966">
  <g id="Group_5097" data-name="Group 5097" transform="translate(-556.321 -430.938)">
    <path id="Path_222" data-name="Path 222" d="M568.221,434.266a22.76,22.76,0,0,1,2.5-2.281c3.539-2.384,8.2-.429,9.3,3.889a8.911,8.911,0,0,1-2.3,8.487c-2.837,3.153-5.872,6.128-8.808,9.192-.448.468-.772.468-1.226-.007-2.9-3.036-5.873-6-8.71-9.09a9.02,9.02,0,0,1-2.5-8.045,6.254,6.254,0,0,1,4.842-5.294c2.745-.666,4.823.592,6.515,2.656C567.993,433.956,568.13,434.148,568.221,434.266Z" fill="#fc5000"/>
  </g>
</svg>
