<svg id="Group_221" data-name="Group 221" xmlns="http://www.w3.org/2000/svg" width="32.987" height="32.757" viewBox="0 0 32.987 32.757">
  <path id="Path_43" data-name="Path 43" d="M320.586,226.608H309.23a10.815,10.815,0,0,1-10.815-10.815V204.666a10.815,10.815,0,0,1,10.815-10.815h11.356A10.815,10.815,0,0,1,331.4,204.666v11.126A10.815,10.815,0,0,1,320.586,226.608Zm.243-29.787H309.043a7.577,7.577,0,0,0-7.577,7.577V216.24a7.577,7.577,0,0,0,7.577,7.577h11.786a7.577,7.577,0,0,0,7.577-7.577V204.4A7.577,7.577,0,0,0,320.829,196.821Z" transform="translate(-298.415 -193.851)" fill="#fc5000"/>
  <path id="Path_44" data-name="Path 44" d="M330.475,217.284a8.5,8.5,0,1,1-8.5-8.5A8.5,8.5,0,0,1,330.475,217.284Zm-8.5-5.622a5.622,5.622,0,1,0,5.622,5.622A5.622,5.622,0,0,0,321.972,211.662Z" transform="translate(-305.553 -200.93)" fill="#fc5000"/>
  <circle id="Ellipse_35" data-name="Ellipse 35" cx="2.135" cy="2.135" r="2.135" transform="translate(23.104 5.372)" fill="#fc5000"/>
</svg>
