<svg id="Group_220" data-name="Group 220" xmlns="http://www.w3.org/2000/svg" width="34.084" height="33.607" viewBox="0 0 34.084 33.607">
  <g id="Group_219" data-name="Group 219">
    <path id="Path_40" data-name="Path 40" d="M425.583,192.811a3.632,3.632,0,0,1-3.931,3.644,3.651,3.651,0,1,1,3.931-3.644Zm-7.524,29.963V199.331h7.288v23.443Z" transform="translate(-417.867 -189.167)" fill="#fc5000"/>
    <path id="Path_41" data-name="Path 41" d="M440.21,215.5c0-2.924-.1-5.368-.191-7.479h6.326l.338,3.259h.143a8.418,8.418,0,0,1,7.239-3.787c4.792,0,8.389,3.212,8.389,10.115v13.855h-7.288V218.471c0-3.021-1.054-5.081-3.691-5.081a4,4,0,0,0-3.738,2.732,5.226,5.226,0,0,0-.241,1.822v13.52H440.21Z" transform="translate(-428.371 -197.856)" fill="#fc5000"/>
  </g>
</svg>
