<svg xmlns="http://www.w3.org/2000/svg" width="31.931" height="30.835" viewBox="0 0 31.931 30.835">
  <path id="Union_11" data-name="Union 11" d="M6.422,25.891v-6.6a1.9,1.9,0,0,1,1.284-1.8V16.122a8.606,8.606,0,0,1-1.04-.14A8.5,8.5,0,0,1,5.1,15.512a8.382,8.382,0,0,1-1.418-.744,8.266,8.266,0,0,1-2.255-2.181,7.959,7.959,0,0,1-.77-1.371,7.834,7.834,0,0,1,0-6.285,7.933,7.933,0,0,1,.77-1.372,8.2,8.2,0,0,1,1.02-1.2A8.321,8.321,0,0,1,3.68,1.379,8.47,8.47,0,0,1,6.665.164a8.719,8.719,0,0,1,3.364,0,8.47,8.47,0,0,1,2.985,1.215,8.321,8.321,0,0,1,1.235.985,8.2,8.2,0,0,1,1.02,1.2,7.933,7.933,0,0,1,.769,1.372,7.837,7.837,0,0,1,0,6.285,7.959,7.959,0,0,1-.769,1.371,8.266,8.266,0,0,1-2.255,2.181,8.382,8.382,0,0,1-1.418.744,8.517,8.517,0,0,1-1.567.471,8.613,8.613,0,0,1-1.084.143v1.366a1.906,1.906,0,0,1,1.284,1.8v6.6a1.9,1.9,0,1,1-3.809,0ZM7.085,2.22a6.564,6.564,0,0,0-2.281.9,6.44,6.44,0,0,0-.944.73,6.193,6.193,0,0,0-.778.885,5.862,5.862,0,0,0-.588,1.014,5.641,5.641,0,0,0,0,4.651,5.87,5.87,0,0,0,.588,1.015,6.186,6.186,0,0,0,.778.884,6.379,6.379,0,0,0,.944.73,6.487,6.487,0,0,0,1.084.551,6.739,6.739,0,0,0,1.2.348,6.858,6.858,0,0,0,2.57,0,6.783,6.783,0,0,0,1.2-.348,6.513,6.513,0,0,0,1.083-.551,6.379,6.379,0,0,0,.944-.73,6.186,6.186,0,0,0,.778-.884,5.812,5.812,0,0,0,.588-1.015,5.641,5.641,0,0,0,0-4.651,5.8,5.8,0,0,0-.588-1.014,6.193,6.193,0,0,0-.778-.885,6.44,6.44,0,0,0-.944-.73,6.55,6.55,0,0,0-2.28-.9,6.858,6.858,0,0,0-2.57,0Z" transform="translate(0 12.6) rotate(-49)" fill="#fff"/>
</svg>
