<svg xmlns="http://www.w3.org/2000/svg" xmlns:xlink="http://www.w3.org/1999/xlink" width="483.001" height="228.89" viewBox="0 0 483.001 228.89">
  <defs>
    <clipPath id="clip-path">
      <rect id="abstract-white" width="483" height="228.89" transform="translate(-0.384 0.499)" fill="#fff" style="mix-blend-mode: luminosity;isolation: isolate"/>
    </clipPath>
    <linearGradient id="linear-gradient" x1="2.748" y1="7.004" x2="2.419" y2="-1.089" gradientUnits="objectBoundingBox">
      <stop offset="0" stop-color="#fff"/>
      <stop offset="1" stop-color="gray"/>
    </linearGradient>
  </defs>
  <g id="Group_5144" data-name="Group 5144" transform="translate(11677.269 20472.351)">
    <rect id="abstract-white-2" data-name="abstract-white" width="470" height="191" transform="translate(-11664.268 -20472.35)" fill="#fff" style="mix-blend-mode: luminosity;isolation: isolate"/>
    <g id="Mask_Group_2" data-name="Mask Group 2" transform="translate(-11676.885 -20472.85)" clip-path="url(#clip-path)">
      <g id="Group_5036" data-name="Group 5036" transform="translate(12.414 -120.666)" opacity="0.121">
        <g id="Group_4972" data-name="Group 4972" transform="translate(193.037 119.996)">
          <path id="Path_180" data-name="Path 180" d="M1106.427,1150.2H1114v-12.181a2.337,2.337,0,0,0-2.286-2.388h-15.158a2.339,2.339,0,0,0-2.288,2.388v21.42C1095.645,1159.647,1103.208,1160.317,1106.427,1150.2Z" transform="translate(-1054.419 -1135.549)" fill="url(#linear-gradient)"/>
          <path id="Path_181" data-name="Path 181" d="M1224.664,1259.81h-22.076v20.609h22.076a2.337,2.337,0,0,0,2.286-2.387V1262.2A2.339,2.339,0,0,0,1224.664,1259.81Z" transform="translate(-1142.823 -1235.878)" fill="url(#linear-gradient)"/>
          <path id="Path_182" data-name="Path 182" d="M927.529,1193.3v-25.208a1.309,1.309,0,0,0-.309-.6.748.748,0,0,0-.093-.083h-4.8v0h-5.035s.031-1.039.058-2.383a49.6,49.6,0,0,0-.087-5.877H897.318v-23.932H877.586v69.155h19.732V1179.76h20.114v22.274a2.34,2.34,0,0,0,2.287,2.388h15.158a2.338,2.338,0,0,0,2.286-2.388v-7.881h-8.892S927.695,1194.407,927.529,1193.3Z" transform="translate(-877.586 -1135.218)" fill="url(#linear-gradient)"/>
        </g>
        <g id="Group_4976" data-name="Group 4976" transform="translate(193.037 280.851)">
          <path id="Path_180-2" data-name="Path 180" d="M1106.427,1150.2H1114v-12.181a2.337,2.337,0,0,0-2.286-2.388h-15.158a2.339,2.339,0,0,0-2.288,2.388v21.42C1095.645,1159.647,1103.208,1160.317,1106.427,1150.2Z" transform="translate(-1054.419 -1135.549)" fill="url(#linear-gradient)"/>
          <path id="Path_181-2" data-name="Path 181" d="M1224.664,1259.81h-22.076v20.609h22.076a2.337,2.337,0,0,0,2.286-2.387V1262.2A2.339,2.339,0,0,0,1224.664,1259.81Z" transform="translate(-1142.823 -1235.878)" fill="url(#linear-gradient)"/>
          <path id="Path_182-2" data-name="Path 182" d="M927.529,1193.3v-25.208a1.309,1.309,0,0,0-.309-.6.748.748,0,0,0-.093-.083h-4.8v0h-5.035s.031-1.039.058-2.383a49.6,49.6,0,0,0-.087-5.877H897.318v-23.932H877.586v69.155h19.732V1179.76h20.114v22.274a2.34,2.34,0,0,0,2.287,2.388h15.158a2.338,2.338,0,0,0,2.286-2.388v-7.881h-8.892S927.695,1194.407,927.529,1193.3Z" transform="translate(-877.586 -1135.218)" fill="url(#linear-gradient)"/>
        </g>
        <g id="Group_4978" data-name="Group 4978" transform="translate(0 119.996)">
          <path id="Path_180-3" data-name="Path 180" d="M1106.427,1150.2H1114v-12.181a2.337,2.337,0,0,0-2.286-2.388h-15.158a2.339,2.339,0,0,0-2.288,2.388v21.42C1095.645,1159.647,1103.208,1160.317,1106.427,1150.2Z" transform="translate(-1054.419 -1135.549)" fill="url(#linear-gradient)"/>
          <path id="Path_181-3" data-name="Path 181" d="M1224.664,1259.81h-22.076v20.609h22.076a2.337,2.337,0,0,0,2.286-2.387V1262.2A2.339,2.339,0,0,0,1224.664,1259.81Z" transform="translate(-1142.823 -1235.878)" fill="url(#linear-gradient)"/>
          <path id="Path_182-3" data-name="Path 182" d="M927.529,1193.3v-25.208a1.309,1.309,0,0,0-.309-.6.748.748,0,0,0-.093-.083h-4.8v0h-5.035s.031-1.039.058-2.383a49.6,49.6,0,0,0-.087-5.877H897.318v-23.932H877.586v69.155h19.732V1179.76h20.114v22.274a2.34,2.34,0,0,0,2.287,2.388h15.158a2.338,2.338,0,0,0,2.286-2.388v-7.881h-8.892S927.695,1194.407,927.529,1193.3Z" transform="translate(-877.586 -1135.218)" fill="url(#linear-gradient)"/>
        </g>
        <g id="Group_4980" data-name="Group 4980" transform="translate(386.075 119.996)">
          <path id="Path_180-4" data-name="Path 180" d="M1106.427,1150.2H1114v-12.181a2.337,2.337,0,0,0-2.286-2.388h-15.158a2.339,2.339,0,0,0-2.288,2.388v21.42C1095.645,1159.647,1103.208,1160.317,1106.427,1150.2Z" transform="translate(-1054.419 -1135.549)" fill="url(#linear-gradient)"/>
          <path id="Path_181-4" data-name="Path 181" d="M1224.664,1259.81h-22.076v20.609h22.076a2.337,2.337,0,0,0,2.286-2.387V1262.2A2.339,2.339,0,0,0,1224.664,1259.81Z" transform="translate(-1142.823 -1235.878)" fill="url(#linear-gradient)"/>
          <path id="Path_182-4" data-name="Path 182" d="M927.529,1193.3v-25.208a1.309,1.309,0,0,0-.309-.6.748.748,0,0,0-.093-.083h-4.8v0h-5.035s.031-1.039.058-2.383a49.6,49.6,0,0,0-.087-5.877H897.318v-23.932H877.586v69.155h19.732V1179.76h20.114v22.274a2.34,2.34,0,0,0,2.287,2.388h15.158a2.338,2.338,0,0,0,2.286-2.388v-7.881h-8.892S927.695,1194.407,927.529,1193.3Z" transform="translate(-877.586 -1135.218)" fill="url(#linear-gradient)"/>
        </g>
        <g id="Group_5115" data-name="Group 5115" transform="translate(569.947 0)">
          <path id="Path_180-5" data-name="Path 180" d="M1106.427,1150.2H1114v-12.181a2.337,2.337,0,0,0-2.286-2.388h-15.158a2.339,2.339,0,0,0-2.288,2.388v21.42C1095.645,1159.647,1103.208,1160.317,1106.427,1150.2Z" transform="translate(-1054.419 -1135.549)" fill="url(#linear-gradient)"/>
          <path id="Path_181-5" data-name="Path 181" d="M1224.664,1259.81h-22.076v20.609h22.076a2.337,2.337,0,0,0,2.286-2.387V1262.2A2.339,2.339,0,0,0,1224.664,1259.81Z" transform="translate(-1142.823 -1235.878)" fill="url(#linear-gradient)"/>
          <path id="Path_182-5" data-name="Path 182" d="M927.529,1193.3v-25.208a1.309,1.309,0,0,0-.309-.6.748.748,0,0,0-.093-.083h-4.8v0h-5.035s.031-1.039.058-2.383a49.6,49.6,0,0,0-.087-5.877H897.318v-23.932H877.586v69.155h19.732V1179.76h20.114v22.274a2.34,2.34,0,0,0,2.287,2.388h15.158a2.338,2.338,0,0,0,2.286-2.388v-7.881h-8.892S927.695,1194.407,927.529,1193.3Z" transform="translate(-877.586 -1135.218)" fill="url(#linear-gradient)"/>
        </g>
        <g id="Group_4982" data-name="Group 4982" transform="translate(0 280.851)">
          <path id="Path_180-6" data-name="Path 180" d="M1106.427,1150.2H1114v-12.181a2.337,2.337,0,0,0-2.286-2.388h-15.158a2.339,2.339,0,0,0-2.288,2.388v21.42C1095.645,1159.647,1103.208,1160.317,1106.427,1150.2Z" transform="translate(-1054.419 -1135.549)" fill="url(#linear-gradient)"/>
          <path id="Path_181-6" data-name="Path 181" d="M1224.664,1259.81h-22.076v20.609h22.076a2.337,2.337,0,0,0,2.286-2.387V1262.2A2.339,2.339,0,0,0,1224.664,1259.81Z" transform="translate(-1142.823 -1235.878)" fill="url(#linear-gradient)"/>
          <path id="Path_182-6" data-name="Path 182" d="M927.529,1193.3v-25.208a1.309,1.309,0,0,0-.309-.6.748.748,0,0,0-.093-.083h-4.8v0h-5.035s.031-1.039.058-2.383a49.6,49.6,0,0,0-.087-5.877H897.318v-23.932H877.586v69.155h19.732V1179.76h20.114v22.274a2.34,2.34,0,0,0,2.287,2.388h15.158a2.338,2.338,0,0,0,2.286-2.388v-7.881h-8.892S927.695,1194.407,927.529,1193.3Z" transform="translate(-877.586 -1135.218)" fill="url(#linear-gradient)"/>
        </g>
        <g id="Group_4984" data-name="Group 4984" transform="translate(386.075 280.851)">
          <path id="Path_180-7" data-name="Path 180" d="M1106.427,1150.2H1114v-12.181a2.337,2.337,0,0,0-2.286-2.388h-15.158a2.339,2.339,0,0,0-2.288,2.388v21.42C1095.645,1159.647,1103.208,1160.317,1106.427,1150.2Z" transform="translate(-1054.419 -1135.549)" fill="url(#linear-gradient)"/>
          <path id="Path_181-7" data-name="Path 181" d="M1224.664,1259.81h-22.076v20.609h22.076a2.337,2.337,0,0,0,2.286-2.387V1262.2A2.339,2.339,0,0,0,1224.664,1259.81Z" transform="translate(-1142.823 -1235.878)" fill="url(#linear-gradient)"/>
          <path id="Path_182-7" data-name="Path 182" d="M927.529,1193.3v-25.208a1.309,1.309,0,0,0-.309-.6.748.748,0,0,0-.093-.083h-4.8v0h-5.035s.031-1.039.058-2.383a49.6,49.6,0,0,0-.087-5.877H897.318v-23.932H877.586v69.155h19.732V1179.76h20.114v22.274a2.34,2.34,0,0,0,2.287,2.388h15.158a2.338,2.338,0,0,0,2.286-2.388v-7.881h-8.892S927.695,1194.407,927.529,1193.3Z" transform="translate(-877.586 -1135.218)" fill="url(#linear-gradient)"/>
        </g>
        <g id="Group_4988" data-name="Group 4988" transform="translate(193.037 200.424)">
          <path id="Path_180-8" data-name="Path 180" d="M1106.427,1150.2H1114v-12.181a2.337,2.337,0,0,0-2.286-2.388h-15.158a2.339,2.339,0,0,0-2.288,2.388v21.42C1095.645,1159.647,1103.208,1160.317,1106.427,1150.2Z" transform="translate(-1054.419 -1135.549)" fill="url(#linear-gradient)"/>
          <path id="Path_181-8" data-name="Path 181" d="M1224.664,1259.81h-22.076v20.609h22.076a2.337,2.337,0,0,0,2.286-2.387V1262.2A2.339,2.339,0,0,0,1224.664,1259.81Z" transform="translate(-1142.823 -1235.878)" fill="url(#linear-gradient)"/>
          <path id="Path_182-8" data-name="Path 182" d="M927.529,1193.3v-25.208a1.309,1.309,0,0,0-.309-.6.748.748,0,0,0-.093-.083h-4.8v0h-5.035s.031-1.039.058-2.383a49.6,49.6,0,0,0-.087-5.877H897.318v-23.932H877.586v69.155h19.732V1179.76h20.114v22.274a2.34,2.34,0,0,0,2.287,2.388h15.158a2.338,2.338,0,0,0,2.286-2.388v-7.881h-8.892S927.695,1194.407,927.529,1193.3Z" transform="translate(-877.586 -1135.218)" fill="url(#linear-gradient)"/>
        </g>
        <g id="Group_4994" data-name="Group 4994" transform="translate(0 200.424)">
          <path id="Path_180-9" data-name="Path 180" d="M1106.427,1150.2H1114v-12.181a2.337,2.337,0,0,0-2.286-2.388h-15.158a2.339,2.339,0,0,0-2.288,2.388v21.42C1095.645,1159.647,1103.208,1160.317,1106.427,1150.2Z" transform="translate(-1054.419 -1135.549)" fill="url(#linear-gradient)"/>
          <path id="Path_181-9" data-name="Path 181" d="M1224.664,1259.81h-22.076v20.609h22.076a2.337,2.337,0,0,0,2.286-2.387V1262.2A2.339,2.339,0,0,0,1224.664,1259.81Z" transform="translate(-1142.823 -1235.878)" fill="url(#linear-gradient)"/>
          <path id="Path_182-9" data-name="Path 182" d="M927.529,1193.3v-25.208a1.309,1.309,0,0,0-.309-.6.748.748,0,0,0-.093-.083h-4.8v0h-5.035s.031-1.039.058-2.383a49.6,49.6,0,0,0-.087-5.877H897.318v-23.932H877.586v69.155h19.732V1179.76h20.114v22.274a2.34,2.34,0,0,0,2.287,2.388h15.158a2.338,2.338,0,0,0,2.286-2.388v-7.881h-8.892S927.695,1194.407,927.529,1193.3Z" transform="translate(-877.586 -1135.218)" fill="url(#linear-gradient)"/>
        </g>
        <g id="Group_4996" data-name="Group 4996" transform="translate(386.075 200.424)">
          <path id="Path_180-10" data-name="Path 180" d="M1106.427,1150.2H1114v-12.181a2.337,2.337,0,0,0-2.286-2.388h-15.158a2.339,2.339,0,0,0-2.288,2.388v21.42C1095.645,1159.647,1103.208,1160.317,1106.427,1150.2Z" transform="translate(-1054.419 -1135.549)" fill="url(#linear-gradient)"/>
          <path id="Path_181-10" data-name="Path 181" d="M1224.664,1259.81h-22.076v20.609h22.076a2.337,2.337,0,0,0,2.286-2.387V1262.2A2.339,2.339,0,0,0,1224.664,1259.81Z" transform="translate(-1142.823 -1235.878)" fill="url(#linear-gradient)"/>
          <path id="Path_182-10" data-name="Path 182" d="M927.529,1193.3v-25.208a1.309,1.309,0,0,0-.309-.6.748.748,0,0,0-.093-.083h-4.8v0h-5.035s.031-1.039.058-2.383a49.6,49.6,0,0,0-.087-5.877H897.318v-23.932H877.586v69.155h19.732V1179.76h20.114v22.274a2.34,2.34,0,0,0,2.287,2.388h15.158a2.338,2.338,0,0,0,2.286-2.388v-7.881h-8.892S927.695,1194.407,927.529,1193.3Z" transform="translate(-877.586 -1135.218)" fill="url(#linear-gradient)"/>
        </g>
        <g id="Group_5004" data-name="Group 5004" transform="translate(289.556 119.996)">
          <path id="Path_180-11" data-name="Path 180" d="M1106.427,1150.2H1114v-12.181a2.337,2.337,0,0,0-2.286-2.388h-15.158a2.339,2.339,0,0,0-2.288,2.388v21.42C1095.645,1159.647,1103.208,1160.317,1106.427,1150.2Z" transform="translate(-1054.419 -1135.549)" fill="url(#linear-gradient)"/>
          <path id="Path_181-11" data-name="Path 181" d="M1224.664,1259.81h-22.076v20.609h22.076a2.337,2.337,0,0,0,2.286-2.387V1262.2A2.339,2.339,0,0,0,1224.664,1259.81Z" transform="translate(-1142.823 -1235.878)" fill="url(#linear-gradient)"/>
          <path id="Path_182-11" data-name="Path 182" d="M927.529,1193.3v-25.208a1.309,1.309,0,0,0-.309-.6.748.748,0,0,0-.093-.083h-4.8v0h-5.035s.031-1.039.058-2.383a49.6,49.6,0,0,0-.087-5.877H897.318v-23.932H877.586v69.155h19.732V1179.76h20.114v22.274a2.34,2.34,0,0,0,2.287,2.388h15.158a2.338,2.338,0,0,0,2.286-2.388v-7.881h-8.892S927.695,1194.407,927.529,1193.3Z" transform="translate(-877.586 -1135.218)" fill="url(#linear-gradient)"/>
        </g>
        <g id="Group_5008" data-name="Group 5008" transform="translate(289.556 280.851)">
          <path id="Path_180-12" data-name="Path 180" d="M1106.427,1150.2H1114v-12.181a2.337,2.337,0,0,0-2.286-2.388h-15.158a2.339,2.339,0,0,0-2.288,2.388v21.42C1095.645,1159.647,1103.208,1160.317,1106.427,1150.2Z" transform="translate(-1054.419 -1135.549)" fill="url(#linear-gradient)"/>
          <path id="Path_181-12" data-name="Path 181" d="M1224.664,1259.81h-22.076v20.609h22.076a2.337,2.337,0,0,0,2.286-2.387V1262.2A2.339,2.339,0,0,0,1224.664,1259.81Z" transform="translate(-1142.823 -1235.878)" fill="url(#linear-gradient)"/>
          <path id="Path_182-12" data-name="Path 182" d="M927.529,1193.3v-25.208a1.309,1.309,0,0,0-.309-.6.748.748,0,0,0-.093-.083h-4.8v0h-5.035s.031-1.039.058-2.383a49.6,49.6,0,0,0-.087-5.877H897.318v-23.932H877.586v69.155h19.732V1179.76h20.114v22.274a2.34,2.34,0,0,0,2.287,2.388h15.158a2.338,2.338,0,0,0,2.286-2.388v-7.881h-8.892S927.695,1194.407,927.529,1193.3Z" transform="translate(-877.586 -1135.218)" fill="url(#linear-gradient)"/>
        </g>
        <g id="Group_5010" data-name="Group 5010" transform="translate(96.518 119.996)">
          <path id="Path_180-13" data-name="Path 180" d="M1106.427,1150.2H1114v-12.181a2.337,2.337,0,0,0-2.286-2.388h-15.158a2.339,2.339,0,0,0-2.288,2.388v21.42C1095.645,1159.647,1103.208,1160.317,1106.427,1150.2Z" transform="translate(-1054.419 -1135.549)" fill="url(#linear-gradient)"/>
          <path id="Path_181-13" data-name="Path 181" d="M1224.664,1259.81h-22.076v20.609h22.076a2.337,2.337,0,0,0,2.286-2.387V1262.2A2.339,2.339,0,0,0,1224.664,1259.81Z" transform="translate(-1142.823 -1235.878)" fill="url(#linear-gradient)"/>
          <path id="Path_182-13" data-name="Path 182" d="M927.529,1193.3v-25.208a1.309,1.309,0,0,0-.309-.6.748.748,0,0,0-.093-.083h-4.8v0h-5.035s.031-1.039.058-2.383a49.6,49.6,0,0,0-.087-5.877H897.318v-23.932H877.586v69.155h19.732V1179.76h20.114v22.274a2.34,2.34,0,0,0,2.287,2.388h15.158a2.338,2.338,0,0,0,2.286-2.388v-7.881h-8.892S927.695,1194.407,927.529,1193.3Z" transform="translate(-877.586 -1135.218)" fill="url(#linear-gradient)"/>
        </g>
        <g id="Group_5014" data-name="Group 5014" transform="translate(96.518 280.851)">
          <path id="Path_180-14" data-name="Path 180" d="M1106.427,1150.2H1114v-12.181a2.337,2.337,0,0,0-2.286-2.388h-15.158a2.339,2.339,0,0,0-2.288,2.388v21.42C1095.645,1159.647,1103.208,1160.317,1106.427,1150.2Z" transform="translate(-1054.419 -1135.549)" fill="url(#linear-gradient)"/>
          <path id="Path_181-14" data-name="Path 181" d="M1224.664,1259.81h-22.076v20.609h22.076a2.337,2.337,0,0,0,2.286-2.387V1262.2A2.339,2.339,0,0,0,1224.664,1259.81Z" transform="translate(-1142.823 -1235.878)" fill="url(#linear-gradient)"/>
          <path id="Path_182-14" data-name="Path 182" d="M927.529,1193.3v-25.208a1.309,1.309,0,0,0-.309-.6.748.748,0,0,0-.093-.083h-4.8v0h-5.035s.031-1.039.058-2.383a49.6,49.6,0,0,0-.087-5.877H897.318v-23.932H877.586v69.155h19.732V1179.76h20.114v22.274a2.34,2.34,0,0,0,2.287,2.388h15.158a2.338,2.338,0,0,0,2.286-2.388v-7.881h-8.892S927.695,1194.407,927.529,1193.3Z" transform="translate(-877.586 -1135.218)" fill="url(#linear-gradient)"/>
        </g>
        <g id="Group_5020" data-name="Group 5020" transform="translate(289.556 200.424)">
          <path id="Path_180-15" data-name="Path 180" d="M1106.427,1150.2H1114v-12.181a2.337,2.337,0,0,0-2.286-2.388h-15.158a2.339,2.339,0,0,0-2.288,2.388v21.42C1095.645,1159.647,1103.208,1160.317,1106.427,1150.2Z" transform="translate(-1054.419 -1135.549)" fill="url(#linear-gradient)"/>
          <path id="Path_181-15" data-name="Path 181" d="M1224.664,1259.81h-22.076v20.609h22.076a2.337,2.337,0,0,0,2.286-2.387V1262.2A2.339,2.339,0,0,0,1224.664,1259.81Z" transform="translate(-1142.823 -1235.878)" fill="url(#linear-gradient)"/>
          <path id="Path_182-15" data-name="Path 182" d="M927.529,1193.3v-25.208a1.309,1.309,0,0,0-.309-.6.748.748,0,0,0-.093-.083h-4.8v0h-5.035s.031-1.039.058-2.383a49.6,49.6,0,0,0-.087-5.877H897.318v-23.932H877.586v69.155h19.732V1179.76h20.114v22.274a2.34,2.34,0,0,0,2.287,2.388h15.158a2.338,2.338,0,0,0,2.286-2.388v-7.881h-8.892S927.695,1194.407,927.529,1193.3Z" transform="translate(-877.586 -1135.218)" fill="url(#linear-gradient)"/>
        </g>
        <g id="Group_5026" data-name="Group 5026" transform="translate(96.518 200.424)">
          <path id="Path_180-16" data-name="Path 180" d="M1106.427,1150.2H1114v-12.181a2.337,2.337,0,0,0-2.286-2.388h-15.158a2.339,2.339,0,0,0-2.288,2.388v21.42C1095.645,1159.647,1103.208,1160.317,1106.427,1150.2Z" transform="translate(-1054.419 -1135.549)" fill="url(#linear-gradient)"/>
          <path id="Path_181-16" data-name="Path 181" d="M1224.664,1259.81h-22.076v20.609h22.076a2.337,2.337,0,0,0,2.286-2.387V1262.2A2.339,2.339,0,0,0,1224.664,1259.81Z" transform="translate(-1142.823 -1235.878)" fill="url(#linear-gradient)"/>
          <path id="Path_182-16" data-name="Path 182" d="M927.529,1193.3v-25.208a1.309,1.309,0,0,0-.309-.6.748.748,0,0,0-.093-.083h-4.8v0h-5.035s.031-1.039.058-2.383a49.6,49.6,0,0,0-.087-5.877H897.318v-23.932H877.586v69.155h19.732V1179.76h20.114v22.274a2.34,2.34,0,0,0,2.287,2.388h15.158a2.338,2.338,0,0,0,2.286-2.388v-7.881h-8.892S927.695,1194.407,927.529,1193.3Z" transform="translate(-877.586 -1135.218)" fill="url(#linear-gradient)"/>
        </g>
      </g>
    </g>
  </g>
</svg>
