<svg xmlns="http://www.w3.org/2000/svg" width="42.021" height="42.021" viewBox="0 0 42.021 42.021">
  <path id="Union_14" data-name="Union 14" d="M8.307,35.365V26.128A2.465,2.465,0,0,1,9.968,23.8V21.942A10.649,10.649,0,0,1,4.761,20.1,11.01,11.01,0,0,1,.22,13.2a11.275,11.275,0,0,1,0-4.429A11.012,11.012,0,0,1,3.163,3.218a10.925,10.925,0,0,1,1.6-1.342A10.767,10.767,0,0,1,6.6.863,10.64,10.64,0,0,1,16.837,1.877a10.878,10.878,0,0,1,1.6,1.342A11.021,11.021,0,0,1,20.75,6.71a11.132,11.132,0,0,1,.629,2.062,11.275,11.275,0,0,1,0,4.429,11,11,0,0,1-1.625,3.928A10.952,10.952,0,0,1,16.837,20.1a10.6,10.6,0,0,1-5.265,1.848V23.8a2.465,2.465,0,0,1,1.661,2.33v9.237a2.463,2.463,0,0,1-4.927,0ZM9.166,3.021A8.273,8.273,0,0,0,4.994,5.237a8.251,8.251,0,0,0-1.007,1.2,8.122,8.122,0,0,0-.76,1.381,8,8,0,0,0-.648,3.165,8.057,8.057,0,0,0,.167,1.639,7.965,7.965,0,0,0,.481,1.525,8.1,8.1,0,0,0,.76,1.382,8.271,8.271,0,0,0,5.179,3.42,8.471,8.471,0,0,0,3.325,0,8.252,8.252,0,0,0,5.179-3.42,8.03,8.03,0,0,0,0-9.092,8.194,8.194,0,0,0-1.007-1.2A8.265,8.265,0,0,0,12.49,3.021a8.426,8.426,0,0,0-3.325,0Z" transform="translate(0 15.273) rotate(-45)"/>
</svg>
