<svg xmlns="http://www.w3.org/2000/svg" width="35.923" height="34.597" viewBox="0 0 35.923 34.597">
  <path id="Union_20" data-name="Union 20" d="M7.028,29.631V21.924a2.085,2.085,0,0,1,1.406-1.971V18.4A9.054,9.054,0,0,1,4.028,16.85,9.221,9.221,0,0,1,.185,11.068,9.284,9.284,0,0,1,.718,5.626a9.221,9.221,0,0,1,3.31-4.053,9.066,9.066,0,0,1,10.216,0,9.254,9.254,0,0,1,2.468,2.488,9.364,9.364,0,0,1,.842,1.565,9.21,9.21,0,0,1,.532,1.729,9.39,9.39,0,0,1,0,3.713,9.21,9.21,0,0,1-.532,1.729A9.234,9.234,0,0,1,15.6,15.725a9.226,9.226,0,0,1-1.352,1.125,9.119,9.119,0,0,1-1.552.849,9,9,0,0,1-2.9.7v1.553a2.085,2.085,0,0,1,1.4,1.971v7.707a2.084,2.084,0,1,1-4.168,0Zm.725-27.1A7,7,0,0,0,4.226,4.391,6.892,6.892,0,0,0,3.373,5.4,6.752,6.752,0,0,0,2.73,6.558a6.68,6.68,0,0,0,0,5.306,6.752,6.752,0,0,0,.644,1.158,6.892,6.892,0,0,0,.852,1.009,7.013,7.013,0,0,0,1.032.832,7.042,7.042,0,0,0,2.5,1.025,7.208,7.208,0,0,0,2.813,0A7.008,7.008,0,0,0,14.1,14.032a6.942,6.942,0,0,0,.851-1.009,6.689,6.689,0,0,0,0-7.623A6.942,6.942,0,0,0,14.1,4.391a7.021,7.021,0,0,0-1.033-.832,7.048,7.048,0,0,0-2.5-1.026,7.254,7.254,0,0,0-2.813,0Z" transform="translate(0 13.79) rotate(-49)" fill="#707070" opacity="0.8"/>
</svg>
