<?xml version="1.0" encoding="UTF-8"?><svg id="Layer_1" xmlns="http://www.w3.org/2000/svg" viewBox="0 0 1005.6 210.65"><defs><style>.cls-1{fill:#f05323;}.cls-2{fill:#231f20;}</style></defs><path class="cls-2" d="M349.01,96c11.34-6.4,22.68-20.94,22.68-40.13,0-34.32-29.37-52.35-65.72-52.35h-85.5V207.09h86.95c43.33,0,75.03-21.81,75.03-61.36,0-25.88-15.71-42.17-33.44-49.73m-76.48-52.34l35.05,.03c9.59,0,17.35,7.85,17.35,17.45s-7.83,17.45-17.43,17.45l-34.97-.04V43.65Zm41.77,119.23h-41.77s0-41.29,0-41.29l41.77-.03c11.39,0,20.62,9.23,20.62,20.62s-9.23,20.7-20.62,20.7"/><path class="cls-1" d="M517.32,72.84c15.59,0,28.67-10.61,32.55-25.03,.45-1.66,1.96-2.82,3.68-2.82h7.13s13.79,0,13.79,0V12.02c0-4.38-3.55-7.94-7.94-7.94h-44.43c-4.38,0-7.94,3.55-7.94,7.94v57.67c0,1.73,1.42,3.15,3.15,3.15"/><path class="cls-1" d="M544.22,172.14V100.11c0-2.11-1.71-3.82-3.81-3.82l-26.45,.02v-17.93c0-1.99-1.61-3.6-3.6-3.6h-57.92s0-70.69,0-70.69h-60.16V206.61h60.16v-71.67h61.74v63.77c0,4.38,3.55,7.92,7.92,7.92h44.32c4.38,0,7.92-3.55,7.92-7.92v-22.76h-26.3c-2.11,0-3.82-1.71-3.82-3.81"/><path class="cls-1" d="M640.98,74.83h-66.68v60.16h66.39c4.54,0,8.21-3.68,8.21-8.21v-44.03c0-4.38-3.55-7.92-7.92-7.92"/><path class="cls-2" d="M105.33,0C47.16,0,0,47.16,0,105.33s47.16,105.33,105.33,105.33,105.33-47.16,105.33-105.33S163.5,0,105.33,0m.62,161.74c-31,0-56.13-25.13-56.13-56.13s25.13-56.13,56.13-56.13,56.13,25.13,56.13,56.13-25.13,56.13-56.13,56.13"/><polygon class="cls-2" points="715.81 170.68 691.02 170.68 691.02 146.75 678.12 146.75 678.12 207 691.02 207 691.02 181.78 715.81 181.78 715.81 207 728.81 207 728.81 146.75 715.81 146.75 715.81 170.68"/><path class="cls-2" d="M801.75,113.58c0-12.91-9.55-22.38-22.89-22.38s-22.89,9.47-22.89,22.38,9.55,22.38,22.89,22.38,22.89-9.47,22.89-22.38m-22.89,12.05c-6.46,0-10.84-4.9-10.84-12.05s4.39-12.14,10.84-12.14,10.84,4.91,10.84,12.14-4.39,12.05-10.84,12.05"/><path class="cls-2" d="M728.11,91.89v43.38h12.05v-21.08c0-7.4,2.67-12.31,8.61-12.31h7.14v-9.98h-4.91c-5.25,0-8.52,1.81-10.84,7.23v-7.23h-12.05Z"/><path class="cls-2" d="M900.69,162.96c-6.02,0-10.76,2.5-13.25,6.71v-24.87h-11.96v62.22h11.96v-23.75c0-5.6,3.7-9.64,8.95-9.64s8.44,3.79,8.44,9.04v24.36h11.96v-27.02c0-9.98-6.37-17.04-16.09-17.04"/><path class="cls-2" d="M859.08,150.82h-11.96v12.82h-8.35v9.98h8.35v17.64c0,10.07,6.45,15.75,16.44,15.75h7.14v-10.85h-5.51c-3.87,0-6.11-1.98-6.11-6.2v-16.35h11.62v-9.98h-11.62v-12.82Z"/><rect class="cls-2" x="822.25" y="144.8" width="11.96" height="62.22"/><path class="cls-2" d="M798.75,162.96c-11.88,0-18.93,6.97-19.45,15.66h10.67c.17-3.61,2.84-6.88,8.09-6.88,4.91,0,7.75,2.49,7.75,6.11,0,1.81-1.12,3.18-3.27,3.18h-7.32c-9.47,0-15.83,5.16-15.83,13.68,0,7.4,5.77,12.99,14.2,12.99,5.94,0,10.76-2.67,12.22-6.71v6.02h11.88v-27.88c0-9.81-8-16.18-18.93-16.18m7.06,26.25c0,5.51-3.36,9.81-9.21,9.81-3.36,0-5.77-1.98-5.77-4.82,0-3.36,2.58-5.6,6.2-5.6h8.78v.6Z"/><path class="cls-2" d="M755.03,197.9c-6.02,0-9.9-3.79-10.76-9.9h31.16c.09-.95,.17-2.24,.17-3.87,0-9.9-6.11-21.17-21.43-21.17s-21.43,11.27-21.43,22.29,7.58,22.46,22.29,22.46c10.67,0,18.93-6.02,20.66-15.41h-11.7c-.95,3.7-4.13,5.59-8.95,5.59m-.86-26.16c5.77,0,9.12,3.87,9.47,8.69h-19.19c1.03-6.02,4.3-8.69,9.73-8.69"/><path class="cls-2" d="M805.69,113.58c0,12.91,9.55,22.38,22.89,22.38s22.89-9.47,22.89-22.38-9.55-22.38-22.89-22.38-22.89,9.47-22.89,22.38m22.89-12.14c6.45,0,10.84,4.91,10.84,12.14s-4.39,12.05-10.84,12.05-10.84-4.91-10.84-12.05,4.39-12.14,10.84-12.14"/><path class="cls-2" d="M989.42,91.2c-5.94,0-10.76,2.5-13.17,6.71v-6.02h-12.05v43.38h12.05v-23.75c0-5.6,3.7-9.64,8.95-9.64s8.35,3.79,8.35,9.04v24.36h12.05v-27.02c0-9.98-6.37-17.04-16.18-17.04"/><rect class="cls-2" x="901.87" y="73.04" width="11.96" height="62.22"/><polygon class="cls-2" points="899.05 135.26 880.37 108.93 897.67 91.89 882.52 91.89 867.46 106.69 867.46 73.04 855.41 73.04 855.41 135.26 867.46 135.26 867.46 121.67 872.28 116.93 884.59 135.26 899.05 135.26"/><path class="cls-2" d="M721.15,90.55c0-10.07-8.18-15.49-19.11-15.49h-23.93v60.24h24.61c12.74,0,21.52-6.54,21.52-17.99,0-7.92-4.65-12.74-10.16-14.89,3.53-1.89,7.06-6.2,7.06-11.88m-30.29-5.25h11.81c3.52,0,6.37,2.85,6.37,6.37s-2.85,6.37-6.37,6.37h-11.81v-12.74Zm13.36,38.81h-13.36v-15.15h13.36c4.18,0,7.57,3.39,7.57,7.57s-3.39,7.57-7.57,7.57"/><path class="cls-2" d="M938.97,119.86l-9.12-27.97h-12.22l14.46,39.5v1.13c0,4.22-2.24,6.2-6.11,6.2h-5.51v10.85h7.14c8.67,0,13.13-3.41,16.1-12.01l16.6-45.67h-12.31l-9.03,27.97Z"/><path class="cls-2" d="M705.63,65.5c16.88,0,29.42-13.15,29.42-30.98s-12.55-30.98-29.42-30.98-29.34,13.15-29.34,30.98,12.46,30.98,29.34,30.98m0-56.6c13.41,0,23.37,10.91,23.37,25.62s-9.95,25.61-23.37,25.61-23.28-10.9-23.28-25.61,9.95-25.62,23.28-25.62"/><path class="cls-2" d="M744.92,40.52c0-9.26,5.8-15.84,13.93-15.84,7.01,0,11.6,5.37,11.6,13.5v25.79h5.45v-26.48c0-10.82-6.4-17.83-16.27-17.83-6.92,0-12.46,3.2-14.71,9.78v-9.09h-5.45V63.97h5.45v-23.45Z"/><path class="cls-2" d="M785.79,58.06c3.85,4.47,9.26,6.93,15.24,6.94h.04c2.09-.01,6.23-.42,10.5-3.04,4.16-2.55,7.16-6.42,8.9-11.5l-5.3,.06c-.68,1.66-4.24,9.08-14.16,9.25h-.03c-5.7-.03-9.29-2.82-11.31-5.15-2.68-3.11-4.26-7.33-4.35-11.59v-.1s.1,0,.1,0l35.73,.02c.04-3.16-.43-10.85-5.36-16.15-5.37-5.78-11.09-6.45-14.92-6.45-1.57,0-9.69,.31-15.13,6.51-3.88,4.42-5.6,9.29-5.59,15.79,0,2.7,.52,5.49,1.52,8.29,.96,2.67,2.34,5.08,4.12,7.14m.08-20.07c.64-3,1.92-5.65,3.7-7.67,2.76-3.12,6.67-4.77,11.29-4.77s8.21,1.56,11.14,4.77c1.99,2.19,3.21,4.77,3.63,7.68l.05,.14-.15-.02h-29.68l.02-.13Z"/></svg>