<svg xmlns="http://www.w3.org/2000/svg" width="360.135" height="311.855" viewBox="0 0 360.135 311.855">
  <g id="Group_5117" data-name="Group 5117" transform="translate(0 -0.002)">
    <path id="Path_180" data-name="Path 180" d="M1146.33,1201.28h32.408v-54.894c0-5.947-4.376-10.76-9.785-10.76h-64.892c-5.408,0-9.793,4.813-9.793,10.76v96.529C1100.17,1243.87,1132.55,1246.89,1146.33,1201.28Z" transform="translate(-923.688 -1135.272)" fill="#fe5000"/>
    <path id="Path_181" data-name="Path 181" d="M1297.09,1259.81h-94.5v92.874h94.5c5.407,0,9.786-4.813,9.786-10.759v-71.353C1306.88,1264.63,1302.5,1259.81,1297.09,1259.81Z" transform="translate(-946.737 -1151.965)" fill="#fe5000"/>
    <path id="Path_182" data-name="Path 182" d="M1091.39,1396.97v-113.6a6.03,6.03,0,0,0-1.323-2.69,3.215,3.215,0,0,0-.4-.374h-20.534v-.01h-21.556s.135-4.682.247-10.741c.177-10.1.292-24.039-.372-26.486h-85.4V1135.22h-84.47v311.643h84.47V1335.94h86.108v100.376c0,5.939,4.385,10.759,9.792,10.759h64.891c5.409,0,9.786-4.82,9.786-10.759V1400.8h-38.066S1092.1,1401.95,1091.39,1396.97Z" transform="translate(-877.586 -1135.218)" fill="#fe5000"/>
  </g>
</svg>
