<svg xmlns="http://www.w3.org/2000/svg" xmlns:xlink="http://www.w3.org/1999/xlink" width="110" height="87" viewBox="0 0 360.142 311.859">
  <defs>
    <linearGradient id="linear-gradient" x1="2.748" y1="7.004" x2="2.419" y2="-1.089" gradientUnits="objectBoundingBox">
      <stop offset="0" stop-color="#fff"/>
      <stop offset="1" stop-color="gray"/>
    </linearGradient>
  </defs>
  <g id="Group_5117" data-name="Group 5117" opacity="0.117">
    <path id="Path_180" data-name="Path 180" d="M1146.327,1201.282h32.408v-54.894c0-5.947-4.376-10.76-9.785-10.76h-64.892c-5.408,0-9.793,4.813-9.793,10.76v96.529C1100.173,1243.867,1132.548,1246.887,1146.327,1201.282Z" transform="translate(-923.688 -1135.272)" fill="url(#linear-gradient)"/>
    <path id="Path_181" data-name="Path 181" d="M1297.093,1259.81h-93.458v0h-1.046v92.874h94.5c5.407,0,9.786-4.813,9.786-10.759v-71.353C1306.879,1264.631,1302.5,1259.81,1297.093,1259.81Z" transform="translate(-946.737 -1151.965)" fill="url(#linear-gradient)"/>
    <path id="Path_182" data-name="Path 182" d="M1091.386,1396.966v-113.6a6.031,6.031,0,0,0-1.323-2.69,3.205,3.205,0,0,0-.4-.374h-20.534v-.01h-21.556s.135-4.682.247-10.741c.177-10.1.292-24.039-.372-26.486H962.056V1135.218h-84.47v311.643h84.47V1335.943h86.108v100.376c0,5.939,4.385,10.759,9.792,10.759h64.891c5.409,0,9.786-4.82,9.786-10.759V1400.8h-38.066S1092.1,1401.951,1091.386,1396.966Z" transform="translate(-877.586 -1135.218)" fill="url(#linear-gradient)"/>
  </g>
</svg>
