<svg xmlns="http://www.w3.org/2000/svg" width="24.322" height="62.732" viewBox="0 0 24.322 62.732">
  <g id="Group_5068" data-name="Group 5068" transform="translate(0 0)">
    <path id="Path_206" data-name="Path 206" d="M1431.726,373.632h-.941v12.39h-13.557V373.671h-1.157q0,.367,0,.734c0,3.046.01,6.093-.007,9.139a2.136,2.136,0,1,1-4.261.267c-.016-4.269-.068-8.54.024-12.808a5.584,5.584,0,0,1,5.445-5.424q6.678-.128,13.36,0a5.675,5.675,0,0,1,5.443,5.735c.047,3.946,0,7.892-.025,11.839a2.138,2.138,0,0,1-2.055,2.185,2.171,2.171,0,0,1-2.219-2.106c-.048-.875-.019-1.753-.019-2.63q0-3.116,0-6.231C1431.757,374.143,1431.739,373.918,1431.726,373.632Z" transform="translate(-1411.773 -354.694)" fill="#fc5000"/>
    <path id="Path_207" data-name="Path 207" d="M1450.979,535.333h13.555c0,.3,0,.573,0,.842q0,11.941-.015,23.883a5.16,5.16,0,0,1-.306,1.822,3,3,0,0,1-3.335,1.777,2.905,2.905,0,0,1-2.444-2.714c-.067-2.536-.043-5.075-.045-7.613q-.006-7.753,0-15.506v-.759l-1.224-.056v.861q0,11.041-.007,22.083a6.351,6.351,0,0,1-.145,1.442,3.014,3.014,0,0,1-3.309,2.321,3.118,3.118,0,0,1-2.718-3.233c-.016-3.415-.007-6.83-.007-10.245q0-7.061,0-14.122Z" transform="translate(-1445.548 -501.001)" fill="#fc5000"/>
    <path id="Path_208" data-name="Path 208" d="M1413.9,535.606c0-4.2.055-8.4-.022-12.6a3.2,3.2,0,0,1,3.413-3.426c5.652.1,11.307.042,16.96.031a2.939,2.939,0,0,1,3.274,3.23c.013,4.869.005,9.739.005,14.609q0,5.3,0,10.593c0,1.383-.145,1.746-.72,1.763s-.766-.436-.766-1.742q0-12.254,0-24.509c0-.3.005-.6,0-.9a1.483,1.483,0,0,0-1.685-1.645q-6.785-.009-13.569,0c-1.131,0-2.261,0-3.392,0-1.567,0-2,.427-2,2.018q0,9.624,0,19.247c0,2.008.006,4.016,0,6.023a2.159,2.159,0,0,1-.123.946c-.124.238-.459.526-.681.51s-.482-.342-.64-.587c-.1-.151-.043-.4-.043-.611Q1413.9,542.079,1413.9,535.606Z" transform="translate(-1413.585 -487.429)" fill="#fc5000"/>
    <path id="Path_209" data-name="Path 209" d="M1465.765,292.076a4.732,4.732,0,1,1,4.65,4.78A4.722,4.722,0,0,1,1465.765,292.076Z" transform="translate(-1458.289 -287.374)" fill="#fc5000"/>
  </g>
</svg>
