<svg xmlns="http://www.w3.org/2000/svg" width="49.156" height="47.469" viewBox="0 0 49.156 47.469">
  <path id="Union_9" data-name="Union 9" d="M9.883,39.865V29.7a2.93,2.93,0,0,1,1.976-2.771V24.823a13.34,13.34,0,0,1-1.6-.216,12.966,12.966,0,0,1-4.594-1.87,12.848,12.848,0,0,1-1.9-1.517,12.652,12.652,0,0,1-1.569-1.84A12.332,12.332,0,0,1,1.01,17.268a12.08,12.08,0,0,1,0-9.677A12.3,12.3,0,0,1,2.194,5.48a12.652,12.652,0,0,1,1.569-1.84,12.848,12.848,0,0,1,1.9-1.517A12.989,12.989,0,0,1,7.846.977,13.129,13.129,0,0,1,10.258.253a13.382,13.382,0,0,1,5.179,0,13.1,13.1,0,0,1,2.411.724,12.927,12.927,0,0,1,4.084,2.664A12.651,12.651,0,0,1,23.5,5.48a12.3,12.3,0,0,1,1.184,2.111,12.08,12.08,0,0,1,0,9.677A12.332,12.332,0,0,1,23.5,19.38a12.652,12.652,0,0,1-1.569,1.84,12.848,12.848,0,0,1-1.9,1.517,12.984,12.984,0,0,1-4.594,1.87,13.348,13.348,0,0,1-1.669.221v2.1A2.931,2.931,0,0,1,15.745,29.7V39.865a2.931,2.931,0,1,1-5.862,0ZM10.9,3.418a10.221,10.221,0,0,0-1.842.536A9.976,9.976,0,0,0,7.394,4.8,9.663,9.663,0,0,0,5.942,5.926a9.373,9.373,0,0,0-1.2,1.361,9.02,9.02,0,0,0-.9,1.563,8.681,8.681,0,0,0,0,7.16,8.979,8.979,0,0,0,.9,1.562,9.333,9.333,0,0,0,1.2,1.362,9.663,9.663,0,0,0,1.453,1.123,10.114,10.114,0,0,0,1.667.849,10.3,10.3,0,0,0,1.842.535,10.546,10.546,0,0,0,3.956,0,10.316,10.316,0,0,0,1.842-.535,10.114,10.114,0,0,0,1.667-.849,9.755,9.755,0,0,0,1.453-1.123,9.38,9.38,0,0,0,1.2-1.362,8.984,8.984,0,0,0,.905-1.562,8.693,8.693,0,0,0,0-7.16,9.025,9.025,0,0,0-.905-1.563,9.421,9.421,0,0,0-1.2-1.361A9.755,9.755,0,0,0,18.369,4.8,9.976,9.976,0,0,0,16.7,3.954a10.242,10.242,0,0,0-1.842-.536,10.546,10.546,0,0,0-3.956,0Z" transform="translate(0 19.392) rotate(-49)" fill="#fff"/>
</svg>
