<svg xmlns="http://www.w3.org/2000/svg" width="36.255" height="29.464" viewBox="0 0 36.255 29.464">
  <path id="Path_42" data-name="Path 42" d="M212.475,199a14.906,14.906,0,0,1-4.273,1.172,7.446,7.446,0,0,0,3.271-4.114,14.931,14.931,0,0,1-4.722,1.8,7.446,7.446,0,0,0-12.675,6.785,21.117,21.117,0,0,1-15.332-7.773,7.449,7.449,0,0,0,2.3,9.932,7.4,7.4,0,0,1-3.369-.93v.093a7.442,7.442,0,0,0,5.966,7.293,7.471,7.471,0,0,1-3.359.127,7.449,7.449,0,0,0,6.949,5.166,14.929,14.929,0,0,1-9.238,3.184,15.311,15.311,0,0,1-1.773-.1,21.051,21.051,0,0,0,11.4,3.342c13.682,0,21.162-11.335,21.162-21.165,0-.321-.006-.642-.021-.961A15.081,15.081,0,0,0,212.475,199Z" transform="translate(-176.22 -195.511)" fill="#fc5000"/>
</svg>
