<svg xmlns="http://www.w3.org/2000/svg" xmlns:xlink="http://www.w3.org/1999/xlink" width="684.822" height="679.642" viewBox="0 0 684.822 679.642">
  <defs>
    <clipPath id="clip-path">
      <rect id="Rectangle_716" data-name="Rectangle 716" width="19.61" height="82.395" fill="rgba(0,0,0,0)"/>
    </clipPath>
    <clipPath id="clip-path-2">
      <path id="Path_519" data-name="Path 519" d="M743.138,46.285v82.236q4.874-.218,9.8-.217t9.8.217l0-82.236q-4.887-.156-9.807-.159t-9.8.159" transform="translate(-743.138 -46.126)" fill="rgba(0,0,0,0)"/>
    </clipPath>
    <linearGradient id="linear-gradient" x1="-15.808" y1="7.574" x2="-15.787" y2="7.574" gradientUnits="objectBoundingBox">
      <stop offset="0" stop-color="#484848"/>
      <stop offset="0.079" stop-color="#717171"/>
      <stop offset="0.166" stop-color="#969696"/>
      <stop offset="0.26" stop-color="#b7b7b7"/>
      <stop offset="0.361" stop-color="#d1d1d1"/>
      <stop offset="0.472" stop-color="#e5e5e5"/>
      <stop offset="0.597" stop-color="#f4f4f4"/>
      <stop offset="0.748" stop-color="#fcfcfc"/>
      <stop offset="1" stop-color="#fff"/>
    </linearGradient>
    <clipPath id="clip-path-3">
      <path id="Path_579" data-name="Path 579" d="M477.638,630.812A153.187,153.187,0,1,0,664.644,481.389l-.442-.1a153.052,153.052,0,0,0-32.807-3.643c-.191-.008-.375-.008-.567-.008A153.192,153.192,0,0,0,477.638,630.812" transform="translate(-477.638 -477.638)" fill="rgba(0,0,0,0)"/>
    </clipPath>
    <radialGradient id="radial-gradient" cx="0.452" cy="0.424" r="0.599" gradientTransform="matrix(1, 0, 0, -1, 0, 3.683)" gradientUnits="objectBoundingBox">
      <stop offset="0" stop-color="#fff"/>
      <stop offset="0.423" stop-color="#fff"/>
      <stop offset="0.553" stop-color="#f4f6f7"/>
      <stop offset="0.778" stop-color="#d8dee1"/>
      <stop offset="0.786" stop-color="#d7dde1"/>
      <stop offset="0.986" stop-color="#fff"/>
      <stop offset="1" stop-color="#fff"/>
    </radialGradient>
    <clipPath id="clip-path-4">
      <rect id="Rectangle_852" data-name="Rectangle 852" width="174.903" height="133.52" fill="#fff"/>
    </clipPath>
    <clipPath id="clip-path-5">
      <rect id="Rectangle_853" data-name="Rectangle 853" width="129.944" height="181.966" fill="#fff"/>
    </clipPath>
    <clipPath id="clip-path-6">
      <rect id="Rectangle_855" data-name="Rectangle 855" width="121.036" height="117.742" fill="#fff"/>
    </clipPath>
    <clipPath id="clip-path-7">
      <rect id="Rectangle_854" data-name="Rectangle 854" width="76.838" height="93.024" fill="#fff"/>
    </clipPath>
  </defs>
  <g id="Group_1" data-name="Group 1" transform="translate(-1038 -851)">
    <g id="Group_1683" data-name="Group 1683" transform="translate(1038 851)">
      <ellipse id="Ellipse_193" data-name="Ellipse 193" cx="342.411" cy="339.821" rx="342.411" ry="339.821" transform="translate(0 0)" fill="#fff"/>
      <g id="Group_1673" data-name="Group 1673" transform="translate(23.429 19.179)">
        <g id="Group_1626" data-name="Group 1626" transform="translate(0 0)">
          <path id="Path_496" data-name="Path 496" d="M346.694,46.13C180.7,46.13,46.139,180.693,46.139,346.685S180.7,647.241,346.694,647.241,647.249,512.678,647.249,346.685,512.686,46.13,346.694,46.13m0,518.933c-120.606,0-218.377-97.771-218.377-218.377s97.771-218.377,218.377-218.377,218.377,97.771,218.377,218.377S467.3,565.063,346.694,565.063" transform="translate(-26.892 -26.885)" fill="#b7d6ce"/>
          <path id="Path_497" data-name="Path 497" d="M515.138,695.13a179.294,179.294,0,0,1-123.254-48.822l-.463-.436.443-.456a5.585,5.585,0,0,0-7.87-7.922l-.46.44-.433-.467a180,180,0,0,1,.859-245.591l.436-.464.456.444a5.584,5.584,0,0,0,7.923-7.87l-.441-.459.467-.433a179.995,179.995,0,0,1,245.59.858l.464.436-.444.456a5.584,5.584,0,0,0,7.87,7.923l.459-.441.432.467a179.994,179.994,0,0,1-.858,245.591l-.435.464-.456-.444a5.584,5.584,0,0,0-7.922,7.87l.44.459-.467.433A179.413,179.413,0,0,1,515.138,695.13M393.184,645.811a178.745,178.745,0,0,0,242.994.849,6.836,6.836,0,0,1,9.64-9.576,178.744,178.744,0,0,0,.849-242.994,6.836,6.836,0,0,1-9.576-9.64A178.744,178.744,0,0,0,394.1,383.6a6.836,6.836,0,0,1-9.64,9.576,178.746,178.746,0,0,0-.849,242.995,6.836,6.836,0,0,1,9.576,9.64" transform="translate(-195.336 -195.33)" fill="#0f3e52"/>
          <path id="Path_498" data-name="Path 498" d="M1192.279,765.391a3.12,3.12,0,1,1,3.12-3.12,3.12,3.12,0,0,1-3.12,3.12" transform="translate(-693.104 -442.47)" fill="#0f3e52"/>
          <path id="Path_499" data-name="Path 499" d="M332.279,759.15a3.12,3.12,0,1,1-3.12,3.12,3.12,3.12,0,0,1,3.12-3.12" transform="translate(-191.851 -442.47)" fill="#0f3e52"/>
          <path id="Path_500" class="transform" data-name="Path 500" d="M310,979.069C207.907,974.115,126.013,892.22,121.06,790.13H0c5.079,168.913,141.086,304.912,310,310Z" transform="translate(0 -460.529)" fill="#015844"/>
          <path id="Path_501" class="transition" data-name="Path 501" d="M979.078,790.13c-4.952,102.09-86.847,183.986-188.939,188.939v121.058c168.913-5.084,304.921-141.083,310-310Z" transform="translate(-460.534 -460.529)" fill="#43af2b"/>
          <path id="Path_502" class="manage" data-name="Path 502" d="M790.139,121.056c102.092,4.953,183.987,86.848,188.939,188.939h121.061c-5.079-168.913-141.087-304.913-310-310Z" transform="translate(-460.534 0.002)" fill="#00bdb1"/>
          <path id="Path_503" class="grow" data-name="Path 503" d="M310,121.056V0C141.086,5.082,5.079,141.081,0,309.994H121.06C126.013,207.9,207.907,126.009,310,121.056" transform="translate(0 0.002)" fill="#002f6c"/>
          <path id="Path_504" data-name="Path 504" d="M1065.19,461.482a3.12,3.12,0,1,1,4.412,0,3.12,3.12,0,0,1-4.412,0" transform="translate(-620.316 -265.869)" fill="#0f3e52"/>
          <path id="Path_505" data-name="Path 505" d="M1062.205,460.92a6.835,6.835,0,1,1,4.833-2,6.792,6.792,0,0,1-4.833,2m0-12.419a5.584,5.584,0,1,0,3.948,1.635,5.549,5.549,0,0,0-3.948-1.635" transform="translate(-615.125 -260.68)" fill="#0f3e52"/>
          <rect id="Rectangle_709" data-name="Rectangle 709" width="26.093" height="1.251" transform="translate(451.029 188.573) rotate(-45.002)" fill="#0f3e52"/>
          <path id="Path_506" data-name="Path 506" d="M1124.33,407.453l1.453-5.424-5.424,1.453Z" transform="translate(-653.003 -234.322)" fill="#0f3e52"/>
          <path id="Path_507" data-name="Path 507" d="M459.37,1063.059a3.12,3.12,0,1,1-4.413,0,3.12,3.12,0,0,1,4.413,0" transform="translate(-264.64 -619.072)" fill="#0f3e52"/>
          <path id="Path_508" data-name="Path 508" d="M451.972,1066.91a6.836,6.836,0,1,1,4.833-2,6.792,6.792,0,0,1-4.833,2m0-12.418a5.584,5.584,0,1,0,3.948,1.635,5.548,5.548,0,0,0-3.948-1.635" transform="translate(-259.449 -613.883)" fill="#0f3e52"/>
          <rect id="Rectangle_710" data-name="Rectangle 710" width="26.093" height="1.252" transform="translate(169.24 468.591) rotate(-45)" fill="#0f3e52"/>
          <path id="Path_509" data-name="Path 509" d="M401.369,1118.228l-1.453,5.424,5.424-1.453Z" transform="translate(-233.092 -651.76)" fill="#0f3e52"/>
          <path id="Path_510" data-name="Path 510" d="M1063.068,1065.18a3.12,3.12,0,1,1,0,4.413,3.12,3.12,0,0,1,0-4.413" transform="translate(-619.079 -620.309)" fill="#0f3e52"/>
          <path id="Path_511" data-name="Path 511" d="M1060.089,1069.032a6.831,6.831,0,1,1,4.833-2,6.812,6.812,0,0,1-4.833,2m-3.948-10.78a5.584,5.584,0,1,0,7.9,0,5.59,5.59,0,0,0-7.9,0" transform="translate(-613.893 -615.123)" fill="#0f3e52"/>
          <rect id="Rectangle_711" data-name="Rectangle 711" width="1.251" height="26.093" transform="translate(450.144 451.911) rotate(-44.999)" fill="#0f3e52"/>
          <path id="Path_512" data-name="Path 512" d="M1118.237,1124.321l5.425,1.453-1.453-5.424Z" transform="translate(-651.767 -652.997)" fill="#0f3e52"/>
          <path id="Path_513" data-name="Path 513" d="M461.491,459.36a3.12,3.12,0,1,1,0-4.413,3.12,3.12,0,0,1,0,4.413" transform="translate(-265.876 -264.634)" fill="#0f3e52"/>
          <path id="Path_514" data-name="Path 514" d="M454.1,458.8a6.835,6.835,0,1,1,4.833-2,6.791,6.791,0,0,1-4.833,2m0-12.419a5.584,5.584,0,1,0,3.948,1.635,5.55,5.55,0,0,0-3.948-1.635" transform="translate(-260.691 -259.443)" fill="#0f3e52"/>
          <rect id="Rectangle_712" data-name="Rectangle 712" width="1.251" height="26.093" transform="translate(170.124 170.121) rotate(-45)" fill="#0f3e52"/>
          <path id="Path_515" data-name="Path 515" d="M407.462,401.36l-5.424-1.453,1.453,5.424Z" transform="translate(-234.328 -233.086)" fill="#0f3e52"/>
          <path id="Path_516" data-name="Path 516" d="M759.159,1192.27a3.12,3.12,0,1,1,3.12,3.12,3.12,3.12,0,0,1-3.12-3.12" transform="translate(-442.477 -693.098)" fill="#0f3e52"/>
          <path id="Path_517" data-name="Path 517" d="M765.4,332.27a3.12,3.12,0,1,1-3.12-3.12,3.12,3.12,0,0,1,3.12,3.12" transform="translate(-442.477 -191.845)" fill="#0f3e52"/>
          <g id="Group_1440" data-name="Group 1440" transform="translate(309.998 19.244)" style="mix-blend-mode: multiply;isolation: isolate">
            <g id="Group_1439" data-name="Group 1439">
              <g id="Group_1438" data-name="Group 1438" clip-path="url(#clip-path)">
                <g id="Group_1437" data-name="Group 1437" transform="translate(0 -0.002)">
                  <g id="Group_1436" data-name="Group 1436" clip-path="url(#clip-path-2)">
                    <rect id="Rectangle_715" data-name="Rectangle 715" width="19.61" height="82.395" transform="translate(0 0)" fill="url(#linear-gradient)"/>
                  </g>
                </g>
              </g>
            </g>
          </g>
        </g>
        <g id="Group_1669" data-name="Group 1669" transform="translate(166.615 166.615)">
          <g id="Group_1628" data-name="Group 1628" style="isolation: isolate">
            <g id="Group_1627" data-name="Group 1627" clip-path="url(#clip-path-3)" style="isolation: isolate">
              <rect id="Rectangle_780" data-name="Rectangle 780" width="306.373" height="306.365" transform="translate(0 0)" fill="url(#radial-gradient)"/>
            </g>
          </g>
          <g id="UHY_Avatar_RGB" transform="translate(66.272 60.006)" style="mix-blend-mode: multiply;isolation: isolate">
            <g id="Group_1634" data-name="Group 1634" transform="translate(0 0)">
              <path id="Path_591" data-name="Path 591" d="M289.58,197.031V191.9c-14,11.826-53.827,57.741-69.48,100.176,39.653-8.087,69.48-52.958,69.48-95.046" transform="translate(-115.75 -105.724)" fill="#005844"/>
              <path id="Path_592" data-name="Path 592" d="M253.985,113.235c9.218,2.7,18.435,4.957,28.957,8.522V92.8H169.2a616.339,616.339,0,0,1,84.785,20.435" transform="translate(-109.112 -92.8)" fill="#78d64b"/>
              <path id="Path_593" data-name="Path 593" d="M273.93,145.127V133.039A912.683,912.683,0,0,0,156.8,125.3c-22.957,0-41.653.957-56.7,1.739v72.35c33.131-18.261,90.959-47.479,173.83-54.262" transform="translate(-100.1 -97.038)" fill="#43b02a"/>
              <path id="Path_594" data-name="Path 594" d="M274.8,157.3c-18.87,2.087-96.959,20.7-168,76.524a86.835,86.835,0,0,0,40.871,45.653c24.609-24.435,65.306-67.393,127.133-101.22Z" transform="translate(-100.974 -101.212)" fill="#007041"/>
            </g>
          </g>
        </g>
      </g>
    </g>
    <g id="Group_1742" data-name="Group 1742" transform="translate(1459.647 1305.9) rotate(-8)">
      <path id="Path_646" data-name="Path 646" d="M0,4.469,1.118,9.028,7.593,7.439l4.248,17.316,5.282-1.3L12.877,6.143l6.458-1.583L18.217,0Z" transform="translate(0 108.765)" fill="#fff"/>
      <g id="Group_1741" data-name="Group 1741" transform="translate(0 0)">
        <g id="Group_1740" data-name="Group 1740" clip-path="url(#clip-path-4)">
          <path id="Path_647" data-name="Path 647" d="M7.272,25.453,0,4.137,10.769.463C14.787-.908,19.021.82,20.413,4.9a7.185,7.185,0,0,1-2,7.865l7.18,6.454-5.574,1.9-6.545-5.986L9.915,16.35l2.5,7.347Zm1.143-13.5,4.506-1.538c1.947-.664,2.717-2.206,2.2-3.713-.481-1.412-2.008-2.137-3.969-1.466L6.648,6.776Z" transform="translate(20.365 103.971)" fill="#fff"/>
          <path id="Path_648" data-name="Path 648" d="M0,2.677,5.885,0,23.314,16.808,18,19.225,14.9,16.1,6.225,20.047l.323,4.389L1.234,26.853Zm5.887,12.86,5.841-2.657L5.216,6.3Z" transform="translate(46.661 95.633)" fill="#fff"/>
          <path id="Path_649" data-name="Path 649" d="M11.435,30.271,0,10.889,4,8.531,20.73,14.588,13.759,2.771,18.454,0,29.89,19.382l-4.068,2.4L9.226,15.8l6.9,11.7Z" transform="translate(62.203 80.176)" fill="#fff"/>
          <path id="Path_650" data-name="Path 650" d="M8.882,16.936a6.747,6.747,0,0,0,6.4-.686c1.431-1.05,2.185-2.486,1.578-3.315-.853-1.162-2.645-.383-5.3.559C7.594,14.9,3.875,16.024,1.15,12.308-1.3,8.968.441,4.5,3.769,2.063A10.3,10.3,0,0,1,13.748.7L12.257,5.479A6.171,6.171,0,0,0,6.6,5.926c-1.269.931-1.711,2.181-1.073,3.048.882,1.2,2.428.4,4.873-.388,5.1-1.646,8.356-2.367,10.787.947,2.775,3.782.359,8.226-3.1,10.764-3.262,2.391-7.381,3.194-10.743,1.466Z" transform="translate(86.398 70.816)" fill="#fff"/>
          <rect id="Rectangle_850" data-name="Rectangle 850" width="5.455" height="22.518" transform="translate(100.684 65.157) rotate(-40.043)" fill="#fff"/>
          <path id="Path_651" data-name="Path 651" d="M0,12.942,13.579,0l3.239,3.4L12,7.985,24.3,20.89l-3.937,3.756L8.064,11.739l-4.825,4.6Z" transform="translate(106.8 47.243)" fill="#fff"/>
          <rect id="Rectangle_851" data-name="Rectangle 851" width="5.454" height="22.511" transform="translate(121.955 45.378) rotate(-47.155)" fill="#fff"/>
          <path id="Path_652" data-name="Path 652" d="M4.361,20.925a11.58,11.58,0,0,1-1.741-16.4A11.591,11.591,0,1,1,20.762,18.949a11.587,11.587,0,0,1-16.4,1.977m3.488-4.387a6.033,6.033,0,0,0,8.786-.872,6.052,6.052,0,0,0-1.107-8.783,6.058,6.058,0,0,0-8.769.928,6.04,6.04,0,0,0,1.09,8.727" transform="translate(132.523 25.151)" fill="#fff"/>
          <path id="Path_653" data-name="Path 653" d="M19.061,30.141,0,18.147l2.474-3.93L20.135,11.93,8.514,4.617,11.421,0,30.479,11.994l-2.517,4-17.5,2.288,11.509,7.241Z" transform="translate(144.423 -0.001)" fill="#fff"/>
        </g>
      </g>
    </g>
    <g id="Group_1745" data-name="Group 1745" transform="translate(1125.229 1275.141) rotate(-9)">
      <path id="Path_654" data-name="Path 654" d="M20.842,0,16.235.893,17.5,7.436,0,10.827l1.036,5.339,17.5-3.389L19.8,19.306l4.606-.893Z" transform="translate(0 0)" fill="#fff"/>
      <g id="Group_1744" data-name="Group 1744" transform="translate(0.001 0)">
        <g id="Group_1743" data-name="Group 1743" clip-path="url(#clip-path-5)">
          <path id="Path_655" data-name="Path 655" d="M0,6.218,21.639,0l3.14,10.933c1.172,4.078-.76,8.221-4.9,9.412a7.18,7.18,0,0,1-7.756-2.379l-6.8,6.852L3.7,19.16,10,12.918,8.959,9.3,1.5,11.444Zm13.42,1.8,1.313,4.573c.567,1.975,2.07,2.822,3.6,2.382,1.433-.412,2.232-1.9,1.66-3.893L18.679,6.509Z" transform="translate(3.325 20.573)" fill="#fff"/>
          <path id="Path_656" data-name="Path 656" d="M24.221,0l2.393,6.013L8.971,22.62,6.812,17.193l3.274-2.945L6.562,5.383l-4.4.109L0,.065ZM11.084,5.263l2.373,5.966,6.9-6.188Z" transform="translate(9.281 47.318)" fill="#fff"/>
          <path id="Path_657" data-name="Path 657" d="M0,10.5,19.908,0l2.166,4.105L15.222,20.534l12.14-6.4L29.9,18.957l-19.91,10.5-2.2-4.177L14.565,8.983,2.543,15.321Z" transform="translate(20.058 63.179)" fill="#fff"/>
          <path id="Path_658" data-name="Path 658" d="M5.872,8.491a6.747,6.747,0,0,0,.382,6.429c.979,1.479,2.379,2.3,3.236,1.733,1.2-.8.508-2.624-.307-5.325C7.966,7.3,7.021,3.534,10.863.989,14.318-1.3,18.694.653,20.973,4.095a10.293,10.293,0,0,1,.882,10.033l-4.7-1.718a6.175,6.175,0,0,0-.177-5.67c-.87-1.313-2.1-1.813-3-1.218-1.244.824-.512,2.408.157,4.888,1.4,5.178,1.965,8.461-1.46,10.73-3.911,2.592-8.234-.033-10.606-3.611C-.159,14.156-.762,10,1.123,6.727Z" transform="translate(35.814 87.894)" fill="#fff"/>
          <path id="Path_659" data-name="Path 659" d="M17.653,0,27.827,12.842l-3.6,2.854L17.44,7.129,14.074,9.8l5.323,6.72-3.6,2.853-5.325-6.72L3.389,18.263,0,13.986Z" transform="translate(46.165 102.788)" fill="#fff"/>
          <path id="Path_660" data-name="Path 660" d="M3.608,3.2A11.585,11.585,0,0,1,20.1,3.72a11.6,11.6,0,1,1-16.782,16A11.592,11.592,0,0,1,3.608,3.2M7.475,7.255a6.031,6.031,0,0,0-.341,8.824,6.052,6.052,0,0,0,8.855.108,6.061,6.061,0,0,0,.282-8.816,6.041,6.041,0,0,0-8.8-.116" transform="translate(62.508 120.691)" fill="#fff"/>
          <path id="Path_661" data-name="Path 661" d="M0,17.094,14.66,0,23.3,7.406c3.222,2.764,3.887,7.288,1.081,10.562a7.187,7.187,0,0,1-7.788,2.277L14.68,29.706l-4.469-3.833L12.039,17.2,9.181,14.745,4.129,20.636ZM12.2,11.22l3.614,3.1c1.559,1.34,3.28,1.22,4.316.011.972-1.133.821-2.815-.754-4.164l-3.611-3.1Z" transform="translate(78.184 135.184)" fill="#fff"/>
          <path id="Path_662" data-name="Path 662" d="M12.7,0,17.31,3.151,14.639,19.113l13.9-8.3,4.613,3.15-12.7,18.591-4.5-3.076,6.86-10.048L12.481,25.506,9.468,23.45l1.9-11.833L4.5,21.667,0,18.591Z" transform="translate(96.796 149.407)" fill="#fff"/>
        </g>
      </g>
    </g>
    <g id="Group_1750" data-name="Group 1750" transform="translate(1510.724 957.971) rotate(3)">
      <path id="Path_667" data-name="Path 667" d="M11.289,0,0,19.47,4.716,22.2l6.1-10.522L9.8,23.619l3.154,1.828L22.8,18.631,16.7,29.156l4.718,2.734L32.71,12.42l-4.832-2.8L14.634,18.912,16.122,2.8Z" transform="translate(0 0)" fill="#f0f5f7"/>
      <path id="Path_668" data-name="Path 668" d="M20.474,0l5.212,3.823L19.552,27.238l-4.705-3.451,1.213-4.23L8.374,13.921,4.7,16.347,0,12.9ZM12.141,11.421l5.171,3.794,2.557-8.9Z" transform="translate(23.148 20.134)" fill="#f0f5f7"/>
      <path id="Path_669" data-name="Path 669" d="M0,16.713,15.1,0l3.446,3.113-.788,17.8,9.208-10.191,4.048,3.659-15.1,16.713-3.508-3.17.761-17.641L4.048,20.371Z" transform="translate(44.258 32.036)" fill="#f0f5f7"/>
      <path id="Path_670" data-name="Path 670" d="M22.644,0l4.337,4.793-10.713,21.7-3.914-4.326,2.036-3.9L8,11.2l-4.082,1.64L0,8.516ZM12.186,9.511l4.3,4.755,4.292-8.2Z" transform="translate(61.722 56.038)" fill="#f0f5f7"/>
      <g id="Group_1749" data-name="Group 1749" transform="translate(0.001 0)">
        <g id="Group_1748" data-name="Group 1748" clip-path="url(#clip-path-6)">
          <path id="Path_671" data-name="Path 671" d="M21.068,4.937a11.872,11.872,0,0,1,1.722,10.777l-5-1.513a6.528,6.528,0,0,0-.824-6.212A6.1,6.1,0,0,0,8.029,6.813c-3.007,2.24-3.717,5.894-1.457,8.926,1.516,2.035,3.666,3.143,5.785,2.434L8.807,13.41l3.672-2.734,7.006,9.4c-.478.44-1.084.931-1.828,1.487C12.775,25.2,6.25,23.86,2.473,18.792a11.6,11.6,0,1,1,18.6-13.855" transform="translate(82.346 73.503)" fill="#fff"/>
          <path id="Path_672" data-name="Path 672" d="M19.206,0l8.337,13.62-3.918,2.4L18.137,7.051,14.574,9.233l4.8,7.849-3.9,2.39-4.806-7.849-3.918,2.4,5.577,9.107-3.9,2.39L0,11.758Z" transform="translate(93.493 92.223)" fill="#fff"/>
        </g>
      </g>
    </g>
    <g id="Group_1747" data-name="Group 1747" transform="matrix(0.998, 0.07, -0.07, 0.998, 1164.831, 961.247)">
      <g id="Group_1746" data-name="Group 1746" transform="translate(0 0)" clip-path="url(#clip-path-7)">
        <path id="Path_663" data-name="Path 663" d="M1.726,5.8A11.864,11.864,0,0,1,10.963,0l.563,5.185A6.526,6.526,0,0,0,6.135,8.371,6.1,6.1,0,0,0,8.55,17.056c3.235,1.889,6.874,1.114,8.779-2.149,1.278-2.191,1.457-4.6-.024-6.271l-2.991,5.124-3.951-2.305L16.269,1.332c.591.269,1.282.634,2.083,1.1,5.254,3.068,6.57,9.593,3.386,15.046a11.542,11.542,0,0,1-16,4.4A11.514,11.514,0,0,1,1.726,5.8" transform="translate(-0.001 69.526)" fill="#fff"/>
        <path id="Path_664" data-name="Path 664" d="M18.326,25.748,0,12.642,6.622,3.385C9.093-.071,13.543-1.13,17.051,1.38A7.188,7.188,0,0,1,20.007,8.94l9.6,1.07L26.178,14.8l-8.81-1.058-2.192,3.064,6.317,4.517ZM11.4,14.1l2.771-3.873c1.2-1.674.925-3.378-.371-4.3-1.214-.869-2.877-.569-4.082,1.118L6.945,10.919Z" transform="translate(10.692 48.701)" fill="#fff"/>
        <path id="Path_665" data-name="Path 665" d="M4,20.619A11.591,11.591,0,0,1,2.938,4.144,11.6,11.6,0,1,1,20.476,19.326,11.6,11.6,0,0,1,4,20.619m3.671-4.241a6.037,6.037,0,0,0,8.821-.505,6.055,6.055,0,0,0-.741-8.828,6.061,6.061,0,0,0-8.806.563,6.044,6.044,0,0,0,.726,8.77" transform="translate(28.503 29.677)" fill="#fff"/>
        <path id="Path_666" data-name="Path 666" d="M4.05,18.908l14.562,9.334L10.923,13.033l3.2-2.942,14.52,8.922-8.1-15.285L24.594,0,35.376,20.677l-5.1,4.692-11.085-6.56L24.811,30.4l-5.1,4.694L0,22.635Z" transform="translate(41.463 0)" fill="#fff"/>
      </g>
    </g>
  </g>
</svg>
