<svg xmlns="http://www.w3.org/2000/svg" viewBox="0 0 500 500"><defs><style>.cls-1{fill:#cad7e4;}.cls-2{fill:#dbe3ed;}</style></defs><rect class="cls-2" width="500" height="500"/><path class="cls-1" d="M500,156.07c-86.2,0-156.07-69.88-156.07-156.07h78.04c0,43.09,34.94,78.03,78.03,78.03v78.04Z"/><path class="cls-1" d="M343.93,343.93c0-86.18,69.87-156.06,156.07-156.06v78.03c-43.09,0-78.03,34.94-78.03,78.03h78.03s0,156.07,0,156.07h-156.06v-156.06"/><path class="cls-1" d="M156.07,187.87h0S0,187.87,0,187.87v156.07h156.07v156.06h156.06v-156.06h0c0-86.19-69.87-156.06-156.07-156.07ZM156.07,343.93v-78.03c43.09,0,78.03,34.94,78.03,78.03h-78.03Z"/><path class="cls-1" d="M156.07,156.07c86.18,0,156.06-69.87,156.06-156.07h-78.03c0,43.09-34.94,78.03-78.03,78.03V0S0,0,0,0v156.06s156.06,0,156.06,0"/></svg>