<svg xmlns="http://www.w3.org/2000/svg" viewBox="0 0 500 500"><defs><style>.cls-1{fill:#cad7e4;}.cls-2{fill:#dbe3ed;}</style></defs><rect class="cls-2" width="500" height="500"/><path class="cls-1" d="M249.99,250c-.01,138.07-111.94,250-249.99,250v-125.01c69.02,0,124.99-55.96,124.99-124.99h125Z"/><path class="cls-1" d="M249.99,0c-.01,138.07-111.94,250-249.99,250v-125.01c69.02,0,124.99-55.96,124.99-124.99h125Z"/><path class="cls-1" d="M499.98,0c-.01,138.07-111.94,250-249.99,250v-125.01c69.02,0,124.99-55.96,124.99-124.99h125Z"/><path class="cls-1" d="M499.98,250c-.01,138.07-111.94,250-249.99,250v-125.01c69.02,0,124.99-55.96,124.99-124.99h125Z"/></svg>