<svg id="Icon_ionic-logo-instagram" data-name="Icon ionic-logo-instagram" xmlns="http://www.w3.org/2000/svg" width="40" height="40" viewBox="0 0 40 40">
  <path id="Path_3" data-name="Path 3" d="M32.833,7.833a8.358,8.358,0,0,1,8.333,8.333V32.833a8.358,8.358,0,0,1-8.333,8.333H16.167a8.358,8.358,0,0,1-8.333-8.333V16.167a8.358,8.358,0,0,1,8.333-8.333H32.833m0-3.333H16.167A11.7,11.7,0,0,0,4.5,16.167V32.833A11.7,11.7,0,0,0,16.167,44.5H32.833A11.7,11.7,0,0,0,44.5,32.833V16.167A11.7,11.7,0,0,0,32.833,4.5Z" transform="translate(-4.5 -4.5)" fill="#034638"/>
  <path id="Path_4" data-name="Path 4" d="M26.219,14.188a2.594,2.594,0,1,1,2.594-2.594A2.588,2.588,0,0,1,26.219,14.188Z" transform="translate(3.668 -2.837)" fill="#034638"/>
  <path id="Path_5" data-name="Path 5" d="M21.137,14.546a6.591,6.591,0,1,1-6.591,6.591,6.6,6.6,0,0,1,6.591-6.591m0-3.3a9.887,9.887,0,1,0,9.887,9.887,9.89,9.89,0,0,0-9.887-9.887Z" transform="translate(-1.137 -0.899)" fill="#034638"/>
</svg>
