<svg xmlns="http://www.w3.org/2000/svg" width="303.797" height="71.368" viewBox="0 0 303.797 71.368">
  <g id="UHY_Logo_RGB" transform="translate(0 0)">
    <path id="Path_41" data-name="Path 41" d="M275.98,0,261.192,25.933,246.619,0h-22.5l27.111,44.578V70.832h19.825V44.257L298.162,0ZM198.29,0V25.718h-25.4V0H153.176V70.832h19.717V45.114h25.4V70.832h19.717V0ZM125.636,0V37.72a13.824,13.824,0,0,1-27.647,0V0H78.7V38.256a33.112,33.112,0,0,0,66.225,0V0H125.636Z" transform="translate(5.634 0)" fill="#007041"/>
    <path id="Path_42" data-name="Path 42" d="M275.98,0,261.192,25.933,246.619,0h-22.5l27.111,44.578V70.832h19.825V44.257L298.162,0ZM198.29,0V25.718h-25.4V0H153.176V70.832h19.717V45.114h25.4V70.832h19.717V0ZM125.636,0V37.72a13.824,13.824,0,0,1-27.647,0V0H78.7V38.256a33.112,33.112,0,0,0,66.225,0V0H125.636Z" transform="translate(5.634 0)" fill="#007041"/>
    <path id="Path_43" data-name="Path 43" d="M63.976,32.729V30.8C58.618,35.3,43.4,52.982,37.4,69.163,52.509,66.055,63.976,48.91,63.976,32.729" transform="translate(2.678 2.205)" fill="#005844"/>
    <path id="Path_44" data-name="Path 44" d="M53.969,7.815c3.536,1.072,7.073,1.929,11.037,3.322V.1H21.5A223.747,223.747,0,0,1,53.969,7.815" transform="translate(1.539 0.007)" fill="#78d64b"/>
    <path id="Path_45" data-name="Path 45" d="M66.653,17.708V13.1a345.924,345.924,0,0,0-44.9-3c-8.787,0-15.967.321-21.753.643V38.5C12.752,31.425,34.934,20.28,66.653,17.708" transform="translate(0 0.723)" fill="#43b02a"/>
    <path id="Path_46" data-name="Path 46" d="M66.5,20c-7.18.75-37.184,7.93-64.4,29.362A32.909,32.909,0,0,0,17.745,66.829C27.175,57.506,42.821,41,66.5,28.037Z" transform="translate(0.15 1.432)" fill="#007041"/>
  </g>
</svg>
