<svg xmlns="http://www.w3.org/2000/svg" width="1412.254" height="840" viewBox="0 0 1412.254 840">
  <path id="Union_37" data-name="Union 37" d="M39.766,840V796.556l-2.193.4C-3.007,804.3-44.091,812.077-84.539,820.069-117.5,826.582-150.295,833.288-182,840l21.6-697.69c43.709-13.76,165.092-49.231,347.74-81.344,48.54-8.534,98.516-16.307,148.541-23.1,27.2-3.695,54.926-7.17,82.421-10.33,28.928-3.324,58.4-6.393,87.591-9.118,30.6-2.858,61.747-5.418,92.562-7.61,32.2-2.291,64.953-4.244,97.335-5.8C729.535,3.374,763.822,2.13,797.7,1.3,832.928.437,868.689,0,903.988,0c48.359,0,97.43.82,145.853,2.437,71.571,2.391,132.27,3.746,180.413,4.029l-22.358,722.2q-2.73-.518-5.49-1.026V840Z" transform="translate(182)" fill="#dce7e4"/>
</svg>
