<svg xmlns="http://www.w3.org/2000/svg" xmlns:xlink="http://www.w3.org/1999/xlink" width="1640.819" height="1182.179" viewBox="0 0 1640.819 1182.179">
  <defs>
    <linearGradient id="linear-gradient" x1="0.971" y1="0.839" x2="0.059" y2="0.425" gradientUnits="objectBoundingBox">
      <stop offset="0" stop-color="#e7f2ef"/>
      <stop offset="1" stop-color="#fff"/>
    </linearGradient>
  </defs>
  <path id="Intersection_16" data-name="Intersection 16" d="M1598.759,0q2.082,17.22,3.547,34.716a837.381,837.381,0,0,1-20.7,267.756c-30,124.44-85.312,235.273-164.99,332.9A776.977,776.977,0,0,1,1329.99,725.6V715.335q0-298.131-.134-596.261c-.024-20.67,2.049-41.42-2.206-62.071-2.478-12.032-2.574-24.575-4.434-36.774q-1.555-10.2-3.436-20.23h-34.842a523.869,523.869,0,0,1,10.148,98.833C1297.34,371.8,1088.139,594.051,828.536,598.4q-3.987.065-7.96.067h0c-261.666,0-464.413-216.918-474.6-472.132A534.232,534.232,0,0,1,355.716,0H310q-.035,42.321-.1,84.635a675.26,675.26,0,0,0,5.5,86.851c15.848,124.028,66.346,230.464,153.848,315.839C596.428,611.413,747.919,658.48,918.272,623.64,1091.9,588.131,1214.435,480.947,1288.1,313.07c2.06-4.7,3.924-9.486,5.882-14.233l1.182.343V307q0,219.156.14,438.311c.01,6.941-1.727,11.307-7.287,15.566-116.157,89-245.669,141.764-389.118,156.99a762.179,762.179,0,0,1-80.493,4.294h-.019a736.847,736.847,0,0,1-187.912-24.325Q408.436,839.521,250.586,666.1,118.756,521.351,65.811,329.149C46.255,257.982,35.465,185.481,36.2,111.113,36.569,73.935,37.237,36.877,41.4,0H0Q.146,53.39.545,106.766c.988,127.219,27.127,249.026,79.973,364.163C120.962,559.054,173.992,638,240.341,706.851c113.593,117.868,248.566,195.48,405.236,231.431a764.089,764.089,0,0,0,159.672,19.243q265.112,4.057,483.321-153.039c1.71-1.23,3.464-2.389,6.25-4.3v381h35.168q-.011-199.921-.116-399.824c0-6.349,1.638-10.511,6.506-14.64q134.173-113.8,213.306-274.307a867.636,867.636,0,0,0,52.505-133.7,7.241,7.241,0,0,1,2.754-4.222v826.69H1639.8q.108-554.906-.55-1109.793A603.684,603.684,0,0,0,1634.682,0Z" transform="translate(0.502 0.5)" stroke="rgba(0,0,0,0)" stroke-miterlimit="10" stroke-width="1" opacity="0.204" fill="url(#linear-gradient)" style="mix-blend-mode: overlay;isolation: isolate"/>
</svg>
