<svg xmlns="http://www.w3.org/2000/svg" width="152.054" height="126.457" viewBox="0 0 152.054 126.457">
  <path id="Path_812" data-name="Path 812" d="M-3554.258,23324.895a8.45,8.45,0,0,1-5.658-3.2l-5.222-6.684-5.549,4.188a8.429,8.429,0,0,1-5.114,1.707,8.546,8.546,0,0,1-1.179-.082,8.408,8.408,0,0,1-5.594-3.293l-.063-.07a8.468,8.468,0,0,1-1.56-6.223,6.979,6.979,0,0,1,.127-.687c-.235-.02-.472-.035-.7-.062a8.42,8.42,0,0,1-5.6-3.293l-.055-.082a8.386,8.386,0,0,1-1.6-5.973,8.636,8.636,0,0,1-1.8-.066,8.383,8.383,0,0,1-5.594-3.289l-.063-.074a8.421,8.421,0,0,1-1.56-6.219,6.913,6.913,0,0,1,.127-.687c-.235-.02-.472-.039-.7-.074a8.346,8.346,0,0,1-5.6-3.293l-.064-.07a8.461,8.461,0,0,1-1.559-6.219,8.418,8.418,0,0,1,3.291-5.605l.508-.391a53.368,53.368,0,0,1-6.909-12.93,53.5,53.5,0,0,1-3.1-13.691l-2.339,1.633a2.039,2.039,0,0,1-1.151.355,2.022,2.022,0,0,1-1.66-.863l-10.454-15a2.035,2.035,0,0,1,.508-2.809l46.613-32.488a2,2,0,0,1,1.152-.363,2.048,2.048,0,0,1,1.659.859l10.455,15a2.027,2.027,0,0,1-.508,2.809l-2.058,1.441,2.176,3.074,5.712,3.1a36.052,36.052,0,0,1,6.446-.988h.109c.245-.008.535-.008.861-.008,5.685,0,23.565,1.367,31.036,1.965l.625-.324-.734-1.27a2.017,2.017,0,0,1,.734-2.75l15.478-8.945a2.024,2.024,0,0,1,1.006-.266,2.042,2.042,0,0,1,1.75,1l27.781,48.129a2.018,2.018,0,0,1-.735,2.75l-15.477,8.938a1.991,1.991,0,0,1-1.006.273,2.028,2.028,0,0,1-1.75-1.008l-1.487-2.574-.662.336a96.836,96.836,0,0,1-8.351,8.469,93.771,93.771,0,0,1-8.006,6.445l2.375,3.148a8.42,8.42,0,0,1,1.7,6.234,8.43,8.43,0,0,1-3.192,5.652,8.5,8.5,0,0,1-5.231,1.793,7.435,7.435,0,0,1-1.025-.062c-.235-.027-.471-.062-.7-.109-.009.234-.027.465-.055.7a8.421,8.421,0,0,1-3.165,5.633l-.027.02a8.351,8.351,0,0,1-5.213,1.793,8.74,8.74,0,0,1-1.052-.062,8.321,8.321,0,0,1-1.741-.4,8.445,8.445,0,0,1-3.11,5.352l-.055.043a8.359,8.359,0,0,1-5.222,1.8,10.173,10.173,0,0,1-1.034-.055c-.227-.027-.454-.066-.689-.117-.009.234-.027.473-.055.7a8.439,8.439,0,0,1-3.2,5.656,8.446,8.446,0,0,1-5.223,1.793A8.246,8.246,0,0,1-3554.258,23324.895Zm-.671-17.582-7,5.277,5.186,6.629a4.391,4.391,0,0,0,2.975,1.668,3.752,3.752,0,0,0,.553.035,4.39,4.39,0,0,0,2.729-.934,4.436,4.436,0,0,0,1.668-2.973,4.487,4.487,0,0,0-.9-3.293l-5.087-6.508Zm-7.761-10.363c-4.624,3.691-9.611,7.363-14.435,10.9l-1.26.922-.109.082a4.448,4.448,0,0,0-1.723,2.938,4.444,4.444,0,0,0,.852,3.309l.019.02a4.451,4.451,0,0,0,2.919,1.7,4.957,4.957,0,0,0,.635.047,4.441,4.441,0,0,0,2.675-.891l15.768-11.895a4.5,4.5,0,0,0,1.731-2.93,4.424,4.424,0,0,0-.789-3.219l-.073-.1a4.418,4.418,0,0,0-2.929-1.723,5.023,5.023,0,0,0-.635-.035A4.416,4.416,0,0,0-3562.69,23296.949Zm-3.962-15.152a8.474,8.474,0,0,1,5.5,3.164l.1.129a8.383,8.383,0,0,1,1.614,6.285,6.523,6.523,0,0,1-.127.688c.236.02.471.039.7.074a8.446,8.446,0,0,1,5.513,3.164l.1.133a8.428,8.428,0,0,1,1.614,6.289,8.7,8.7,0,0,1-.625,2.219l5.721,7.316a4.419,4.419,0,0,0,2.965,1.668,3.764,3.764,0,0,0,.553.039,4.4,4.4,0,0,0,2.638-.863l.2-.152a4.443,4.443,0,0,0,1.568-2.895,4.483,4.483,0,0,0-.825-3.191c-3.455-4.406-8.142-10.43-11.271-14.434a2.025,2.025,0,0,1-.408-1.477,1.974,1.974,0,0,1,.762-1.344,2.026,2.026,0,0,1,1.232-.43,1.991,1.991,0,0,1,1.587.773l4.951,6.34c2.384,3.055,4.86,6.219,7.29,9.32a4.385,4.385,0,0,0,2.892,1.574,5.1,5.1,0,0,0,.544.039,4.392,4.392,0,0,0,2.639-.863l.2-.152a4.453,4.453,0,0,0,1.568-2.9,4.438,4.438,0,0,0-.834-3.211c-2.439-3.125-5-6.391-7.462-9.555-1.6-2.039-3.192-4.082-4.751-6.082a2.007,2.007,0,0,1-.417-1.488,2.017,2.017,0,0,1,.762-1.34,2.021,2.021,0,0,1,1.242-.418,1.97,1.97,0,0,1,1.578.77l12.159,15.566a4.431,4.431,0,0,0,2.974,1.66,3.754,3.754,0,0,0,.553.035,4.413,4.413,0,0,0,2.738-.934,4.394,4.394,0,0,0,1.668-2.973,4.426,4.426,0,0,0-.9-3.281l-24.645-32.543a2.02,2.02,0,0,1-.38-1.488,2.013,2.013,0,0,1,.78-1.332,1.974,1.974,0,0,1,1.206-.406,2.032,2.032,0,0,1,1.614.8l19.811,26.168a95.021,95.021,0,0,0,7.743-6.238,92.842,92.842,0,0,0,8.169-8.316,2.088,2.088,0,0,1,.689-.59l.816-.414-21.525-37.293-1.187.617a2.037,2.037,0,0,1-1.188.289c-.245-.02-24.843-2.016-31.29-2.016-.281,0-.526.012-.725.012h-.027a27.755,27.755,0,0,0-13.319,4.07c-3.065,2.039-4.8,4.645-5,7.535-.2,3.09,7.027,14.9,11.814,22.715l1.831,2.992a1.491,1.491,0,0,0,.626.586,1.781,1.781,0,0,0,.97.184,2.334,2.334,0,0,0,.988-.281l.063-.039a2.058,2.058,0,0,0,.716-.77,11,11,0,0,0,.517-1.078,9.316,9.316,0,0,0,.363-1.105c1.042-4.008-2.357-9.965-5.086-14.762l-.625-1.1a2.146,2.146,0,0,1-.39-.687l-.916-1.7a2.028,2.028,0,0,1-.118-1.527,2.008,2.008,0,0,1,.988-1.176,2.027,2.027,0,0,1,.925-.219,2,2,0,0,1,1.786,1.086l1.016,1.852a18.341,18.341,0,0,0,6.03,4.25,19.992,19.992,0,0,0,7.825,1.68,2.026,2.026,0,0,1,1.985,2.039,2.03,2.03,0,0,1-2.021,1.988h-.009a24.122,24.122,0,0,1-9.4-2.016h-.009l-.145-.07c1.514,3.227,3.083,7.57,2.076,11.395a13.973,13.973,0,0,1-.517,1.6,16.823,16.823,0,0,1-.734,1.531,6.293,6.293,0,0,1-2.122,2.25l-.009.008-.109.055a6.23,6.23,0,0,1-2.82.852,5.894,5.894,0,0,1-3.028-.605l-.018-.008a5.767,5.767,0,0,1-2.23-2.1l-1.813-2.973c-5.358-8.758-12.7-20.754-12.4-25.1.3-4.18,2.647-7.852,6.791-10.605a23.919,23.919,0,0,1,3.672-2l-2.829-1.531a2.029,2.029,0,0,1-.671-.609l-2.466-3.488-35.089,24.457a49.682,49.682,0,0,0,3.028,14.992,50.229,50.229,0,0,0,6.347,11.9l12.041-9.086a8.41,8.41,0,0,1,5.1-1.707,8.769,8.769,0,0,1,1.188.082,8.474,8.474,0,0,1,5.5,3.164l.1.129a8.442,8.442,0,0,1,1.614,6.293c-.027.219-.073.445-.127.688.236.008.471.035.7.063a8.493,8.493,0,0,1,5.513,3.164l.1.137a8.436,8.436,0,0,1,1.641,6.043q.292-.023.585-.023A8.99,8.99,0,0,1-3566.652,23281.8Zm-8.985,8.652c-3.582,2.648-7.29,5.387-10.736,8.141a4.483,4.483,0,0,0-1.632,2.875,4.417,4.417,0,0,0,.843,3.3l.018.027a4.457,4.457,0,0,0,2.929,1.707,4.808,4.808,0,0,0,.625.043,4.359,4.359,0,0,0,2.675-.9c1.741-1.3,3.536-2.637,5.268-3.934,3.509-2.594,7.136-5.285,10.545-7.988a4.4,4.4,0,0,0,1.687-2.9,4.444,4.444,0,0,0-.8-3.234l-.055-.066a4.448,4.448,0,0,0-2.928-1.73,4.853,4.853,0,0,0-.635-.043,4.394,4.394,0,0,0-2.674.895l-.254.191-.009-.008C-3572.373,23288.031-3574.032,23289.262-3575.637,23290.449Zm-3.9-13.238c-2.919,2.2-5.984,4.508-8.949,6.746l-6.691,5.043-.154.125a4.413,4.413,0,0,0-1.723,2.93,4.437,4.437,0,0,0,.852,3.309l.019.027a4.452,4.452,0,0,0,2.919,1.7,3.374,3.374,0,0,0,.625.047,4.471,4.471,0,0,0,2.684-.887c1.56-1.18,3.119-2.352,4.678-3.531,3.672-2.754,7.471-5.613,11.18-8.441a4.353,4.353,0,0,0,1.632-2.855,4.426,4.426,0,0,0-.78-3.219l-.073-.1a4.384,4.384,0,0,0-2.938-1.715,3.735,3.735,0,0,0-.625-.043A4.425,4.425,0,0,0-3579.536,23277.211Zm-20.664-.625-2.928,2.2a4.426,4.426,0,0,0-1.723,2.941,4.439,4.439,0,0,0,.852,3.3l.018.02a4.458,4.458,0,0,0,2.919,1.707,4.951,4.951,0,0,0,.635.043,4.4,4.4,0,0,0,2.675-.895c1.777-1.344,3.582-2.707,5.4-4.066,3.445-2.6,7.009-5.3,10.427-7.859a4.458,4.458,0,0,0,1.677-2.9,4.47,4.47,0,0,0-.8-3.227l-.055-.074a4.447,4.447,0,0,0-2.937-1.73,4.8,4.8,0,0,0-.626-.039,4.4,4.4,0,0,0-2.674.891l-.263.2-.009-.012Q-3593.912,23271.842-3600.2,23276.586Zm78.1-52.2,25.759,44.641,12-6.922-25.769-44.633Zm-104.1,9.656,8.142,11.688,43.313-30.2-8.151-11.676Zm85.012,21.191a1.948,1.948,0,0,1-1.414-.629,1.99,1.99,0,0,1-.544-1.449,1.993,1.993,0,0,1,2.067-1.941l1.958.02,1.94-.09h.127a2.029,2.029,0,0,1,2.013,1.887,2.027,2.027,0,0,1-1.886,2.141h-.009l-2.14.082Z" transform="translate(3631.375 -23198.75)" fill="#fff" stroke="#fff" stroke-width="0.5"/>
</svg>
