<svg xmlns="http://www.w3.org/2000/svg" width="125.777" height="126.457" viewBox="0 0 125.777 126.457">
  <path id="noun-culture-7140022" d="M184.374,180.6a1.494,1.494,0,0,1-1.492,1.492h-20a1.494,1.494,0,0,1-1.492-1.492l-.005-35.031c0-1.766-3.608-12.765-5.265-15.553-.476-.8-1.574-2.2-3.477-4.6-1.941-2.449-4.357-5.5-6.276-8.249-2.559-3.663-3-5.062-3.078-5.461a4.154,4.154,0,0,1,2.865-1.957,1.984,1.984,0,0,1,1.771.465L165.4,128.189a11.379,11.379,0,0,0,11.808,12.142l3.575,3.679c2.225,2.28,3.586,3.794,3.586,6ZM142.782,144.38c1.831-2.723,5.522-8.2,9.059-13.793l-4.237-5.4-8.195,10.1a39.084,39.084,0,0,1-6.03,6.161,11.354,11.354,0,0,1-17.762-1.454,40.6,40.6,0,0,1-3.783-4.106l-8.4-10.316-4.292,5.478c3.411,5.3,6.927,10.5,8.676,13.076.6.891.995,1.476,1.175,1.749,1.618,2.471,4.969,11.814,4.969,13.383v21.884a1.181,1.181,0,0,0,1.263.973h20.33a1.177,1.177,0,0,0,1.263-.973v-21.9c0-1.569,3.351-10.912,4.964-13.383.159-.235.508-.749.995-1.476ZM89.95,145.566V180.6a1.5,1.5,0,0,1-1.5,1.492l-20,.005a1.494,1.494,0,0,1-1.492-1.492V150c0-2.209,1.361-3.723,3.586-6l3.57-3.668c.055,0,.115.005.169.005a11.383,11.383,0,0,0,11.36-11.863l17.773-18.271a1.988,1.988,0,0,1,1.771-.465,4.153,4.153,0,0,1,2.865,1.957c-.077.4-.519,1.8-3.078,5.461-1.919,2.75-4.335,5.8-6.276,8.249-1.9,2.4-3,3.8-3.477,4.6-1.662,2.794-5.27,13.793-5.27,15.558Zm-23.224-16.6a7.555,7.555,0,1,0,7.555-7.555A7.564,7.564,0,0,0,66.726,128.964Zm11.519-17.181H96.559l4.122-4.231a5.664,5.664,0,0,1,5.09-1.574,7.96,7.96,0,0,1,5.707,4.046,3,3,0,0,1,.4,1.766h4.964V99.843h-2.056a7.353,7.353,0,0,1,0-14.706h2.056V73.181H104.9v2.05a7.356,7.356,0,0,1-14.711,0v-2.05H78.245Zm46.829,14.339A7.551,7.551,0,0,1,130.8,138.6a9.216,9.216,0,0,1-5.467,2.2h-.005c-2.094,0-4.291-1.055-6.741-3.264a7.552,7.552,0,0,1,6.489-11.42Zm9.414-14.339h4.964a3,3,0,0,1,.4-1.766,7.97,7.97,0,0,1,5.707-4.046,5.685,5.685,0,0,1,5.1,1.574l4.117,4.231h18.314V73.18H159.236a1.906,1.906,0,0,1-1.908-1.908V67.309a3.537,3.537,0,0,0-7.074,0v3.963a1.906,1.906,0,0,1-1.908,1.908H134.493V87.033a1.906,1.906,0,0,1-1.908,1.908h-3.958a3.537,3.537,0,1,0,0,7.074h3.958a1.906,1.906,0,0,1,1.908,1.908Zm42.258,9.627a7.555,7.555,0,1,0,7.555,7.555A7.564,7.564,0,0,0,176.746,121.409Zm6.773,19.931-2-2.056a11.369,11.369,0,1,0-14.957-15.373l-8.08-8.31,16.51-.005a1.906,1.906,0,0,0,1.908-1.908l.005-42.418A1.906,1.906,0,0,0,175,69.364H161.143V67.308a7.356,7.356,0,0,0-14.711,0v2.056H132.579a1.906,1.906,0,0,0-1.908,1.908V85.124h-2.056a7.353,7.353,0,1,0,0,14.706h2.056v13.853a1.906,1.906,0,0,0,1.908,1.908h8.249a61.028,61.028,0,0,0,4.39,6.467l-8.791,10.83a11.369,11.369,0,0,0-22.622-.656l-7.965-9.791a63.368,63.368,0,0,0,4.674-6.855h8.255a1.906,1.906,0,0,0,1.908-1.908l-.011-15.75a1.906,1.906,0,0,0-1.908-1.908H114.8a3.537,3.537,0,0,1,0-7.074h3.963a1.906,1.906,0,0,0,1.908-1.908V71.271a1.906,1.906,0,0,0-1.908-1.908H102.992a1.906,1.906,0,0,0-1.908,1.908v3.958a3.537,3.537,0,1,1-7.074,0V71.271A1.906,1.906,0,0,0,92.1,69.363H76.336a1.906,1.906,0,0,0-1.908,1.908v42.418a1.906,1.906,0,0,0,1.908,1.908h16.51l-8.282,8.512a11.371,11.371,0,1,0-14.848,15.269l-1.908,1.963c-2.3,2.351-4.669,4.789-4.669,8.665v30.6a5.317,5.317,0,0,0,5.308,5.308h20a5.32,5.32,0,0,0,5.314-5.314V145.615a83.78,83.78,0,0,1,3.379-10.638c3.029,4.658,5.964,8.987,7.517,11.278.569.842.979,1.443,1.143,1.695,1.318,2.012,4.122,9.972,4.346,11.371v21.8a4.947,4.947,0,0,0,5.079,4.789h20.33a4.943,4.943,0,0,0,5.079-4.789v-21.8c.224-1.4,3.029-9.359,4.346-11.371.153-.235.487-.733.962-1.443,1.651-2.449,4.8-7.129,8-12.131a87.128,87.128,0,0,1,3.619,11.234v34.982a5.318,5.318,0,0,0,5.308,5.314h20.008a5.315,5.315,0,0,0,5.308-5.314V150.005c0-3.881-2.373-6.314-4.669-8.665Z" transform="translate(-62.659 -59.705)" fill="#fff" stroke="#fff" stroke-width="0.5" fill-rule="evenodd"/>
</svg>
