<svg xmlns="http://www.w3.org/2000/svg" xmlns:xlink="http://www.w3.org/1999/xlink" width="131.838" height="125.957" viewBox="0 0 131.838 125.957">
  <defs>
    <clipPath id="clip-path">
      <path id="Path_811" data-name="Path 811" d="M222.14,239H353.978V364.957H222.14Z" transform="translate(-222.14 -239)" fill="#fff" stroke="#fff" stroke-width="0.5"/>
    </clipPath>
  </defs>
  <g id="noun-improvement-7045360" transform="translate(-222.14 -239)">
    <g id="Group_775" data-name="Group 775" transform="translate(222.14 239)" clip-path="url(#clip-path)">
      <path id="Path_810" data-name="Path 810" d="M351.916,293.384h-8.585V267.4h4.378a2.06,2.06,0,0,0,1.632-3.311l-18.03-23.56a2.058,2.058,0,0,0-3.27,0l-18.02,23.56a2.06,2.06,0,0,0,1.632,3.311h4.378v25.987H295.425l.01-25.987h4.378a2.06,2.06,0,0,0,1.632-3.311l-18.02-23.56a2.053,2.053,0,0,0-3.266,0l-18.03,23.56a2.06,2.06,0,0,0,1.632,3.311h4.378v25.987H265.5a19.858,19.858,0,0,0-12.376-16.866,11.526,11.526,0,1,0-14.77,0,19.852,19.852,0,0,0-12.37,16.866H224.2a2.06,2.06,0,0,0-2.06,2.06V312.7a2.06,2.06,0,0,0,2.06,2.06h8.312a57.44,57.44,0,0,0,5.5,13.246l-5.881,5.881a2.065,2.065,0,0,0,0,2.915l18.648,18.648a2.058,2.058,0,0,0,2.91,0l5.887-5.881a57.345,57.345,0,0,0,13.24,5.49v8.312a2.06,2.06,0,0,0,2.06,2.06h26.378a2.06,2.06,0,0,0,2.06-2.06V355.06a57.2,57.2,0,0,0,13.24-5.49l5.887,5.881a2.058,2.058,0,0,0,2.91,0L343.989,336.8a2.065,2.065,0,0,0,0-2.915l-5.881-5.881a57.191,57.191,0,0,0,5.49-13.246h8.312a2.06,2.06,0,0,0,2.06-2.06V295.444a2.052,2.052,0,0,0-2.055-2.06Zm-33.813-30.1h-2.271l13.859-18.117,13.865,18.117h-2.271a2.06,2.06,0,0,0-2.06,2.06v28.042H320.164l-.005-28.046a2.057,2.057,0,0,0-2.055-2.055Zm7.627,36.226a37.667,37.667,0,1,1-75.334,0c0-.68.016-1.349.052-2.008h75.226c.036.68.057,1.349.057,2.008ZM270.2,263.283h-2.271L281.8,245.166l13.859,18.117h-2.271a2.06,2.06,0,0,0-2.06,2.06v28.042H272.263V265.34a2.058,2.058,0,0,0-2.06-2.055Zm-31.868,4.383a7.413,7.413,0,1,1,7.411,7.416A7.42,7.42,0,0,1,238.334,267.666Zm7.411,11.536a15.731,15.731,0,0,1,15.635,14.183H230.119A15.714,15.714,0,0,1,245.745,279.2Zm104.112,31.435h-7.848a2.054,2.054,0,0,0-2,1.571,53.267,53.267,0,0,1-6.242,15.054,2.057,2.057,0,0,0,.3,2.524l5.552,5.552-15.739,15.739-5.557-5.552a2.064,2.064,0,0,0-2.524-.3,53.077,53.077,0,0,1-15.043,6.242,2.06,2.06,0,0,0-1.571,2v7.848H276.928V353.46a2.054,2.054,0,0,0-1.571-2,53.26,53.26,0,0,1-15.048-6.242,2.057,2.057,0,0,0-2.524.3l-5.557,5.552-15.739-15.739,5.552-5.552a2.057,2.057,0,0,0,.3-2.524,53.525,53.525,0,0,1-6.242-15.054,2.06,2.06,0,0,0-2-1.571h-7.848V297.5h20.069c-.031.659-.046,1.334-.046,2.008a41.783,41.783,0,1,0,83.566,0c0-.659-.016-1.329-.052-2.008h20.064Z" transform="translate(-222.136 -239.592)" fill="#fff" stroke="#fff" stroke-width="0.5"/>
    </g>
  </g>
</svg>
