<svg xmlns="http://www.w3.org/2000/svg" xmlns:xlink="http://www.w3.org/1999/xlink" width="1259.908" height="1323.465" viewBox="0 0 1259.908 1323.465">
  <defs>
    <linearGradient id="linear-gradient" x1="0.509" y1="0.802" x2="0.5" y2="0.106" gradientUnits="objectBoundingBox">
      <stop offset="0" stop-color="#fff"/>
      <stop offset="0.46" stop-color="#acd0c6"/>
      <stop offset="1" stop-color="#fff"/>
    </linearGradient>
  </defs>
  <path id="Intersection_58" data-name="Intersection 58" d="M1232.191,1322.465V476.507a5.446,5.446,0,0,0-2.115,3.181,646,646,0,0,1-40.307,100.687q-60.706,120.887-163.753,206.583c-3.737,3.11-5,6.243-5,11.025q.164,258.819.091,517.639v6.827h-27V812.16c-2.138,1.443-3.485,2.317-4.8,3.242Q821.746,933.618,618.27,930.658a597.413,597.413,0,0,1-122.579-14.492C375.417,889.091,271.8,830.64,184.594,741.873,133.658,690.024,92.948,630.566,61.9,564.2,21.329,477.488,1.262,385.754.5,289.946-.263,193.3.032,96.65.191,0H28.464V95.051A691.522,691.522,0,0,1,66.547,0H96.313A629.655,629.655,0,0,0,33.655,195.965c-4.81,32.249-5.449,64.689-5.778,97.253-.565,56.007,7.718,110.609,22.731,164.205q40.507,144.6,141.852,253.763Q313.52,841.593,484.1,885.7a579.279,579.279,0,0,0,206.067,15.087c110.126-11.467,209.551-51.207,298.724-118.231,4.268-3.207,5.6-6.494,5.6-11.721q-.213-165.049-.109-330.1v-5.889l-.907-.257c-1.5,3.574-2.934,7.183-4.515,10.718C932.4,571.742,838.331,652.464,705.037,679.207,574.258,705.444,457.96,670,360.321,576.546c-67.174-64.3-105.941-144.454-118.108-237.859a499.17,499.17,0,0,1-4.222-65.41q.224-136.633.1-273.277h28.032V138.786Q300,56.936,357.291,0h39.468C315.116,69.526,260.483,176.853,265.686,304.685c7.9,194.148,166.638,358.869,370.462,355.517,199.295-3.278,359.9-170.659,358.168-376.231C993.329,166.7,940.773,66.375,862.914,0h39.263q3.133,3.131,6.223,6.351Q996.14,97.778,1015.91,224.775c1.428,9.185,1.5,18.633,3.4,27.695,3.267,15.553,1.676,31.18,1.693,46.745q.259,224.524.1,449.048v7.728a590.081,590.081,0,0,0,66.5-67.95c61.169-73.521,103.628-156.99,126.662-250.707a619.019,619.019,0,0,0,15.888-201.648Q1219.234,107.649,1163.719,0h29.411a665.441,665.441,0,0,1,48.234,136.1c9.985,41.818,17.083,84.375,17.168,127.2q1.047,526.685.394,1053.373v5.792Z" transform="translate(0.421 0.5)" stroke="rgba(0,0,0,0)" stroke-miterlimit="10" stroke-width="1" opacity="0.17" fill="url(#linear-gradient)"/>
</svg>
