<svg xmlns="http://www.w3.org/2000/svg" xmlns:xlink="http://www.w3.org/1999/xlink" width="1451.898" height="1525.464" viewBox="0 0 1451.898 1525.464">
  <defs>
    <linearGradient id="linear-gradient" x1="0.509" y1="0.198" x2="0.5" y2="0.894" gradientUnits="objectBoundingBox">
      <stop offset="0" stop-color="#fff"/>
      <stop offset="0.46" stop-color="#acd0c6"/>
      <stop offset="1" stop-color="#fff"/>
    </linearGradient>
  </defs>
  <path id="Intersection_59" data-name="Intersection 59" d="M1420.1,0V975.174a6.277,6.277,0,0,1-2.437-3.667,744.767,744.767,0,0,0-46.454-116.067Q1301.249,716.088,1182.486,617.3c-4.307-3.585-5.76-7.2-5.757-12.709q.189-298.352.105-596.706V.019h-31.117V588.252c-2.464-1.663-4.017-2.67-5.53-3.738Q947.065,448.241,712.558,451.654A688.38,688.38,0,0,0,571.285,468.36c-138.616,31.21-258.036,98.589-358.54,200.915-58.7,59.768-105.622,128.308-141.407,204.811C24.582,974.043,1.455,1079.789.58,1190.231c-.883,111.4-.544,222.821-.36,334.234H32.8V1414.9A797.254,797.254,0,0,0,76.7,1524.465H111q-54.138-105.549-72.214-225.9c-5.544-37.174-6.28-74.569-6.659-112.108-.652-64.561,8.895-127.5,26.2-189.287q46.684-166.69,163.485-292.524,139.523-150.325,336.11-201.171a667.486,667.486,0,0,1,237.493-17.392c126.921,13.219,241.509,59.028,344.281,136.29,4.918,3.7,6.456,7.486,6.448,13.511q-.246,190.259-.125,380.517v6.789l-1.046.3c-1.732-4.12-3.381-8.28-5.2-12.355-65.174-145.741-173.589-238.792-327.21-269.62C661.834,711.268,527.8,752.127,415.271,859.854c-77.419,74.117-122.1,166.519-136.12,274.191a575.533,575.533,0,0,0-4.866,75.4q.259,157.5.116,315.019h32.307V1364.48q39.042,94.352,105.071,159.985h45.487C363.172,1444.319,300.208,1320.6,306.2,1173.241c9.107-223.8,192.051-413.684,426.959-409.82,229.688,3.778,414.783,196.726,412.789,433.7-1.138,135.184-61.708,250.832-151.441,327.346h45.25q3.61-3.609,7.172-7.321,101.122-105.393,123.907-251.787c1.645-10.589,1.73-21.479,3.923-31.925,3.765-17.929,1.931-35.942,1.951-53.885q.3-258.819.12-517.638V653a680.135,680.135,0,0,1,76.646,78.329c70.5,84.751,119.432,180.969,145.979,289a713.721,713.721,0,0,1,18.311,232.449q-12.6,147.593-76.581,271.685h33.9a767.192,767.192,0,0,0,55.59-156.892c11.508-48.2,19.688-97.263,19.786-146.625q1.207-607.134.454-1214.271V0Z" transform="translate(1451.489 1524.965) rotate(-180)" stroke="rgba(0,0,0,0)" stroke-miterlimit="10" stroke-width="1" opacity="0.17" fill="url(#linear-gradient)"/>
</svg>
