<svg xmlns="http://www.w3.org/2000/svg" xmlns:xlink="http://www.w3.org/1999/xlink" width="252.879" height="234.386" viewBox="0 0 252.879 234.386">
  <defs>
    <clipPath id="clip-path">
      <rect id="Rectangle_1495" data-name="Rectangle 1495" width="252.879" height="234.386" transform="translate(-18 0)" fill="#17b0e1" stroke="#707070" stroke-width="1"/>
    </clipPath>
  </defs>
  <g id="Mask_Group_251" data-name="Mask Group 251" transform="translate(18 0)" clip-path="url(#clip-path)">
    <path id="Rectangle_1493" data-name="Rectangle 1493" d="M21.882,2.946A18.958,18.958,0,0,0,2.946,21.882V161.167A18.958,18.958,0,0,0,21.882,180.1H157.8a18.958,18.958,0,0,0,18.936-18.936V21.882A18.958,18.958,0,0,0,157.8,2.946H21.882m0-2.946H157.8a21.882,21.882,0,0,1,21.882,21.882V161.167A21.882,21.882,0,0,1,157.8,183.049H21.882A21.882,21.882,0,0,1,0,161.167V21.882A21.882,21.882,0,0,1,21.882,0Z" transform="translate(-31.52 251.881) rotate(-45)" fill="#fbfbfb" stroke="rgba(0,0,0,0)" stroke-miterlimit="10" stroke-width="1"/>
    <path id="Rectangle_1494" data-name="Rectangle 1494" d="M21.882,3.5C11.44,3.5,2.946,13.605,2.946,26.022V191.666c0,12.417,8.495,22.519,18.936,22.519H157.8c10.441,0,18.936-10.1,18.936-22.519V26.023c0-12.417-8.495-22.519-18.936-22.519H21.882m0-3.5H157.8c12.085,0,21.882,11.651,21.882,26.022V191.666c0,14.372-9.8,26.022-21.882,26.022H21.882C9.8,217.688,0,206.037,0,191.666V26.022C0,11.651,9.8,0,21.882,0Z" transform="translate(-33.203 224.108) rotate(-45)" fill="#fbfbfb" stroke="rgba(0,0,0,0)" stroke-miterlimit="10" stroke-width="1"/>
    <path id="Rectangle_1492" data-name="Rectangle 1492" d="M21.882,3.626C11.44,3.626,2.946,14.085,2.946,26.939V198.42c0,12.855,8.495,23.313,18.936,23.313H157.8c10.441,0,18.936-10.458,18.936-23.313l.707-177.844c0-12.855-9.2-16.949-19.643-16.949H21.882m0-3.626H157.8c12.085,0,22.589,5.7,22.589,20.576l-.707,177.844c0,14.878-9.8,26.939-21.882,26.939H21.882C9.8,225.359,0,213.3,0,198.42V26.939C0,12.061,9.8,0,21.882,0Z" transform="translate(-82.858 226.632) rotate(-45)" fill="#17b0e1" stroke="rgba(0,0,0,0)" stroke-miterlimit="10" stroke-width="1"/>
    <path id="Rectangle_1491" data-name="Rectangle 1491" d="M21.882,4.366c-10.441,0-18.936,12.592-18.936,28.07V238.9c0,15.478,8.495,28.069,18.936,28.069H157.8c10.441,0,18.936-12.592,18.936-28.069l.707-215.659c0-15.478-9.2-20.291-19.643-20.291L21.882,4.366m0-4.366H157.8c12.085,0,22.589,5.33,22.589,23.243L179.683,238.9c0,17.914-9.8,32.436-21.882,32.436H21.882C9.8,271.339,0,256.817,0,238.9V32.436C0,14.522,9.8,0,21.882,0Z" transform="translate(-84.541 198.859) rotate(-45)" fill="#17b0e1" stroke="rgba(0,0,0,0)" stroke-miterlimit="10" stroke-width="1"/>
  </g>
</svg>
