<svg xmlns="http://www.w3.org/2000/svg" xmlns:xlink="http://www.w3.org/1999/xlink" width="276" height="132" viewBox="0 0 276 132">
  <defs>
    <clipPath id="clip-path">
      <rect id="Rectangle_60" data-name="Rectangle 60" width="232.581" height="86.279" fill="#fff"/>
    </clipPath>
  </defs>
  <g id="Group_107" data-name="Group 107" transform="translate(-69 -42)">
    <path id="Path_33" data-name="Path 33" d="M59,0H217a59,59,0,0,1,59,59V73a59,59,0,0,1-59,59H59A59,59,0,0,1,0,73V59A59,59,0,0,1,59,0Z" transform="translate(69 42)" fill="#fff"/>
    <g id="WSB_150Years_LogoNoTagline_color_1" data-name="WSB_150Years_LogoNoTagline_color 1" transform="translate(93.209 66.36)" clip-path="url(#clip-path)">
      <path id="Path_1" data-name="Path 1" d="M46.86,23.471a28.872,28.872,0,0,0-15.52,4.384V4.07H70c.621,0,1.091-.318,1.091-.939S70.623,2.192,70,2.192H31.34A1.657,1.657,0,0,0,29.462,4.07V28.787c0,1.1.469,1.567,1.25,1.567.311,0,.628-.159,1.25-.621A27.293,27.293,0,1,1,46.673,79.959,28.021,28.021,0,0,1,25.92,70.293v2.762A29.155,29.155,0,1,0,46.86,23.471Z" transform="translate(-8.025 -0.673)" fill="#d1ac3f"/>
      <path id="Path_2" data-name="Path 2" d="M17.978,2.2c.822,0,1.008.635,1.008,1.919v76.5c0,.642-.311,1.118-.939,1.118s-.939-.476-.939-1.118V4.12S16.99,2.2,17.978,2.2Z" transform="translate(-5.295 -0.681)" fill="#d1ac3f"/>
      <path id="Path_3" data-name="Path 3" d="M9.763,2.49c.587.594-.152,1.381-.283,1.54L1.6,12.156c-.062.069-.946.449-1.381,0s0-1.277.062-1.381L8.133,2.67S9.058,1.8,9.763,2.49Z" transform="translate(-0.007 -0.689)" fill="#d1ac3f"/>
      <path id="Path_4" data-name="Path 4" d="M116.406,79.657A38.835,38.835,0,0,1,77.6,40.7C77.6,19.571,94.969,1.89,115.778,1.89a39.616,39.616,0,0,1,29.577,13.042h2.423A39.811,39.811,0,0,0,117.027.04c-23,0-41.307,17.992-41.307,40.367a40.664,40.664,0,0,0,76.241,20.16h-2.14a38.538,38.538,0,0,1-33.415,19.089Z" transform="translate(-23.443 -0.012)" fill="#d1ac3f"/>
      <path id="Path_5" data-name="Path 5" d="M137.279,33.8h4.757l1.546,9.831L148.07,33.8h3.293l1.56,9.831,5.468-9.831H163L152.758,52.157H150l-1.381-9.707-5.371,9.707h-2.92Z" transform="translate(-42.502 -10.465)" fill="#056837"/>
      <path id="Path_6" data-name="Path 6" d="M185.88,33.611h4.508l-3.2,18.358h-4.46l.338-1.975a10.349,10.349,0,0,1-2.817,1.905,7.428,7.428,0,0,1-2.879.539,6.787,6.787,0,0,1-5.71-2.679,9.416,9.416,0,0,1-1.94-6.214,11.087,11.087,0,0,1,5.4-8.975,9.664,9.664,0,0,1,4.9-1.381,6.335,6.335,0,0,1,3.114.78,6.164,6.164,0,0,1,2.3,2.278ZM178.6,48.42a5.661,5.661,0,0,0,2.927-.739,6.061,6.061,0,0,0,2.161-2.327,6.9,6.9,0,0,0,.953-3.231,4.717,4.717,0,0,0-1.139-3.507,4.239,4.239,0,0,0-3.293-1.332,5.613,5.613,0,0,0-4.142,1.774,6.559,6.559,0,0,0-1.843,4.57,4.637,4.637,0,0,0,1.153,3.452A4.2,4.2,0,0,0,178.6,48.42Z" transform="translate(-52.544 -10.276)" fill="#056837"/>
      <path id="Path_7" data-name="Path 7" d="M202.609,23.53H207.1l-4.35,25.448H198.26Z" transform="translate(-61.382 -7.285)" fill="#056837"/>
      <path id="Path_8" data-name="Path 8" d="M226.7,23.53l4.936.255-4.419,22.866-4.881,2.327L222.673,47a10.2,10.2,0,0,1-2.81,1.905,7.432,7.432,0,0,1-2.886.539,6.8,6.8,0,0,1-5.71-2.679,9.412,9.412,0,0,1-1.933-6.214,11.1,11.1,0,0,1,5.392-8.975,9.667,9.667,0,0,1,4.909-1.381,6.35,6.35,0,0,1,3.114.725,6.09,6.09,0,0,1,2.292,2.278Zm-8.506,21.9a5.64,5.64,0,0,0,2.927-.739,6.11,6.11,0,0,0,2.161-2.327,6.979,6.979,0,0,0,.946-3.231,4.684,4.684,0,0,0-1.139-3.507,4.21,4.21,0,0,0-3.279-1.332,5.614,5.614,0,0,0-4.142,1.774,6.58,6.58,0,0,0-1.836,4.57,4.634,4.634,0,0,0,1.146,3.452,4.2,4.2,0,0,0,3.217,1.339Z" transform="translate(-64.807 -7.285)" fill="#056837"/>
      <path id="Path_9" data-name="Path 9" d="M252.1,46.562l4.55.414a9.528,9.528,0,0,1-4.287,4.412,11.649,11.649,0,0,1-4.916,1.022,8.8,8.8,0,0,1-6.545-2.361,8.1,8.1,0,0,1-2.2-6.276,10.778,10.778,0,0,1,3.293-7.594,10.21,10.21,0,0,1,7.422-3.1,9.037,9.037,0,0,1,4.564,1.132,7.643,7.643,0,0,1,3.065,3.286,9.573,9.573,0,0,1,1,4.695,12.537,12.537,0,0,1-.235,1.857h-14.65a4.071,4.071,0,0,0,1.153,3.045,4.413,4.413,0,0,0,3.245,1.139,6.855,6.855,0,0,0,4.543-1.671Zm1.381-5.792a4.509,4.509,0,0,0-1.6-2.561,4.57,4.57,0,0,0-2.817-.863,5.384,5.384,0,0,0-3.017.891,5.812,5.812,0,0,0-2.113,2.534Z" transform="translate(-73.892 -10.241)" fill="#056837"/>
      <path id="Path_10" data-name="Path 10" d="M269.374,33.584h4.494l-.318,1.857a8.284,8.284,0,0,1,5.489-2.334,5.131,5.131,0,0,1,3.852,1.512,5.019,5.019,0,0,1,1.381,3.811,27.505,27.505,0,0,1-.4,3.224L282.1,51.942h-4.515L279.309,41.9a18.692,18.692,0,0,0,.283-2.327,2.178,2.178,0,0,0-.573-1.712,2.438,2.438,0,0,0-1.781-.6,4.08,4.08,0,0,0-2.3.787,5.272,5.272,0,0,0-1.816,2.175,22.773,22.773,0,0,0-1.3,5.226l-1.063,6.5H266.26Z" transform="translate(-82.435 -10.249)" fill="#056837"/>
      <path id="Path_11" data-name="Path 11" d="M226.664,85.775H222.17l4.142-23.384,4.695-2.071-1.54,9.072a10.061,10.061,0,0,1,2.762-1.926,7.319,7.319,0,0,1,2.858-.532,6.717,6.717,0,0,1,5.661,2.679,9.433,9.433,0,0,1,1.912,6.214A10.7,10.7,0,0,1,241.114,81a10.583,10.583,0,0,1-3.8,3.846,9.528,9.528,0,0,1-4.833,1.381,6.289,6.289,0,0,1-3.107-.78,5.909,5.909,0,0,1-2.258-2.258Zm7.194-14.83a5.461,5.461,0,0,0-2.893.753,6.069,6.069,0,0,0-2.14,2.34,7.093,7.093,0,0,0-.939,3.245,4.754,4.754,0,0,0,1.125,3.493,4.142,4.142,0,0,0,3.245,1.319,5.524,5.524,0,0,0,4.1-1.767,6.635,6.635,0,0,0,1.823-4.57,4.717,4.717,0,0,0-1.139-3.452,4.1,4.1,0,0,0-3.183-1.36Z" transform="translate(-68.785 -18.675)" fill="#056837"/>
      <path id="Path_12" data-name="Path 12" d="M269.07,70.421h4.515l-3.2,18.358h-4.446l.338-1.968a10.364,10.364,0,0,1-2.81,1.905,7.438,7.438,0,0,1-2.886.539,6.779,6.779,0,0,1-5.7-2.686,9.346,9.346,0,0,1-1.94-6.214,11.1,11.1,0,0,1,5.392-8.975A9.665,9.665,0,0,1,263.236,70a6.282,6.282,0,0,1,3.114.78,6,6,0,0,1,2.292,2.278ZM261.793,85.23a5.739,5.739,0,0,0,2.934-.739,6.11,6.11,0,0,0,2.161-2.327,7.081,7.081,0,0,0,.953-3.231,4.737,4.737,0,0,0-1.146-3.514,4.231,4.231,0,0,0-3.286-1.326,5.6,5.6,0,0,0-4.142,1.774,6.58,6.58,0,0,0-1.836,4.57,4.618,4.618,0,0,0,1.146,3.452,4.226,4.226,0,0,0,3.217,1.339Z" transform="translate(-78.305 -21.672)" fill="#056837"/>
      <path id="Path_13" data-name="Path 13" d="M284.655,70.4h4.5l-.324,1.864a8.286,8.286,0,0,1,5.454-2.334,5.129,5.129,0,0,1,3.852,1.512,4.964,4.964,0,0,1,1.381,3.8,27.478,27.478,0,0,1-.4,3.231l-1.767,10.28h-4.494l1.726-10.038a21.786,21.786,0,0,0,.283-2.327,2.145,2.145,0,0,0-.58-1.712,2.438,2.438,0,0,0-1.781-.6,4.08,4.08,0,0,0-2.292.787,5.158,5.158,0,0,0-1.823,2.175,22.563,22.563,0,0,0-1.3,5.219l-1.091,6.5H281.5Z" transform="translate(-87.153 -21.649)" fill="#056837"/>
      <path id="Path_14" data-name="Path 14" d="M143.381,69.246l-.815.207a1.757,1.757,0,0,0-.532-.884,1.208,1.208,0,0,0-.808-.324,1.008,1.008,0,0,0-.78.331,1.3,1.3,0,0,0-.3.9,2.028,2.028,0,0,0,.324,1.029,5.7,5.7,0,0,0,.96,1.049,5,5,0,0,1,1.1,1.381,2.842,2.842,0,0,1,.311,1.243,2.436,2.436,0,0,1-.338,1.243,2.551,2.551,0,0,1-.918.939,2.335,2.335,0,0,1-1.229.345,2.071,2.071,0,0,1-1.429-.539,3.163,3.163,0,0,1-.87-1.595l.794-.276a2.276,2.276,0,0,0,.608,1.181,1.38,1.38,0,0,0,.973.387,1.445,1.445,0,0,0,1.077-.476,1.665,1.665,0,0,0,.449-1.174,2.192,2.192,0,0,0-.255-1,4.925,4.925,0,0,0-.994-1.174,6.406,6.406,0,0,1-1.036-1.146,2.686,2.686,0,0,1-.394-1.381,2.071,2.071,0,0,1,.58-1.505,2,2,0,0,1,2.706-.124,2.7,2.7,0,0,1,.822,1.367Z" transform="translate(-42.741 -20.87)" fill="#231f20"/>
      <path id="Path_15" data-name="Path 15" d="M152.313,67.69l2.865,8.865H154.3l-.946-2.9h-3.638l-1.609,2.9h-.939l4.943-8.865Zm-.269,1.857-1.83,3.272h2.893Z" transform="translate(-45.564 -20.957)" fill="#231f20"/>
      <path id="Path_16" data-name="Path 16" d="M160.061,67.69h.863l2.133,7.028,3.99-7.028h.946l-5.033,8.865h-.2Z" transform="translate(-49.555 -20.957)" fill="#231f20"/>
      <path id="Path_17" data-name="Path 17" d="M173.551,67.69h.87l-1.167,8.865h-.863Z" transform="translate(-53.373 -20.957)" fill="#231f20"/>
      <path id="Path_18" data-name="Path 18" d="M186.392,67.69h.815l-1.167,8.865h-.186l-4.833-6.842-.9,6.842h-.856l1.167-8.865h.186l4.833,6.849Z" transform="translate(-55.5 -20.957)" fill="#231f20"/>
      <path id="Path_19" data-name="Path 19" d="M202.135,69.511l-.69.525a4.522,4.522,0,0,0-1.526-1.339,3.687,3.687,0,0,0-3.763.1,4.208,4.208,0,0,0-1.484,1.512,4.043,4.043,0,0,0-.545,2.023,3.4,3.4,0,0,0,1.015,2.492,3.349,3.349,0,0,0,2.472,1.029,4.024,4.024,0,0,0,1.671-.366,3.519,3.519,0,0,0,1.291-.98A3.782,3.782,0,0,0,201.3,73h-3.148v-.87h4.184a4.88,4.88,0,0,1-1.415,3.3,4.391,4.391,0,0,1-3.21,1.263,4.3,4.3,0,0,1-3.2-1.236,4.209,4.209,0,0,1-1.236-3.072,4.947,4.947,0,0,1,.649-2.485,4.828,4.828,0,0,1,8.216-.359Z" transform="translate(-59.837 -20.873)" fill="#231f20"/>
      <path id="Path_20" data-name="Path 20" d="M214.022,69.246l-.808.207a1.812,1.812,0,0,0-.539-.884,1.186,1.186,0,0,0-.808-.324,1.008,1.008,0,0,0-.78.331,1.293,1.293,0,0,0-.3.9,2.023,2.023,0,0,0,.318,1.029,5.975,5.975,0,0,0,.96,1.049,4.986,4.986,0,0,1,1.1,1.381,2.856,2.856,0,0,1,.318,1.243,2.439,2.439,0,0,1-.345,1.243,2.5,2.5,0,0,1-.918.939,2.318,2.318,0,0,1-1.229.345,2.072,2.072,0,0,1-1.429-.539,3.115,3.115,0,0,1-.863-1.595l.794-.276a2.23,2.23,0,0,0,.608,1.181,1.381,1.381,0,0,0,.967.387,1.427,1.427,0,0,0,1.077-.476,1.662,1.662,0,0,0,.449-1.174,2.071,2.071,0,0,0-.255-1,4.6,4.6,0,0,0-.994-1.174,6.432,6.432,0,0,1-1.036-1.146,2.682,2.682,0,0,1-.387-1.381A2.075,2.075,0,0,1,210.494,68a2,2,0,0,1,2.706-.124,2.688,2.688,0,0,1,.822,1.367Z" transform="translate(-64.614 -20.87)" fill="#231f20"/>
      <path id="Path_21" data-name="Path 21" d="M312.154,60.34h4.439L314.28,73.761l7.415-7.132h6.172L318.3,75.6l6.731,10.176h-5.4l-5.889-8.975-1.553,8.975H307.77Z" transform="translate(-95.287 -18.681)" fill="#056837"/>
      <path id="Path_22" data-name="Path 22" d="M214.131,120.78h3.293v.642h-3.293Z" transform="translate(-66.296 -37.394)" fill="#231f20"/>
      <path id="Path_23" data-name="Path 23" d="M222.07,116.45h4.191v.6h-3.535v1.975h3.162v.6h-3.162v2.03H226.3v.594H222.07Z" transform="translate(-68.754 -36.053)" fill="#231f20"/>
      <path id="Path_24" data-name="Path 24" d="M229.561,121.357l.407-.483a2.761,2.761,0,0,0,1.988.822c.78,0,1.291-.414,1.291-.987,0-.538-.29-.849-1.505-1.1-1.339-.29-1.947-.69-1.947-1.671a1.712,1.712,0,0,1,1.905-1.588,3.021,3.021,0,0,1,2.037.69l-.387.5a2.528,2.528,0,0,0-1.671-.628c-.753,0-1.236.414-1.236.932,0,.545.3.849,1.574,1.125s1.892.753,1.892,1.636c0,.987-.828,1.636-1.981,1.636A3.39,3.39,0,0,1,229.561,121.357Z" transform="translate(-71.073 -36.017)" fill="#231f20"/>
      <path id="Path_25" data-name="Path 25" d="M238.957,117.058H237.01v-.608h4.557v.608h-1.961v5.192h-.69Z" transform="translate(-73.379 -36.053)" fill="#231f20"/>
      <path id="Path_26" data-name="Path 26" d="M243.93,123.61h.759v.87h-.759Z" transform="translate(-75.522 -38.27)" fill="#231f20"/>
      <path id="Path_27" data-name="Path 27" d="M251.131,117.073l-1.091.338-.159-.532,1.415-.49h.476v5.841h-.642Z" transform="translate(-77.364 -36.035)" fill="#231f20"/>
      <path id="Path_28" data-name="Path 28" d="M254.461,120.684a1.561,1.561,0,0,1,1.194-1.422,1.478,1.478,0,0,1-.98-1.339h0a2.043,2.043,0,0,1,3.956,0,1.477,1.477,0,0,1-.994,1.332,1.568,1.568,0,0,1,1.194,1.381c0,.987-.946,1.65-2.175,1.65S254.461,121.644,254.461,120.684Zm3.694,0c0-.649-.69-1.1-1.512-1.1s-1.519.456-1.519,1.1c0,.587.566,1.084,1.519,1.084s1.484-.525,1.484-1.084Zm-.193-2.713c0-.566-.566-1-1.319-1s-1.326.421-1.326,1c0,.628.587,1.056,1.326,1.056a1.183,1.183,0,0,0,.9-.267,1.179,1.179,0,0,0,.42-.837Z" transform="translate(-78.782 -36.035)" fill="#231f20"/>
      <path id="Path_29" data-name="Path 29" d="M265.28,117.051h-3.19v-.6h3.921v.49l-2.63,5.309h-.732Z" transform="translate(-81.144 -36.053)" fill="#231f20"/>
      <path id="Path_30" data-name="Path 30" d="M268.811,121.706l2.071-1.857c.891-.794,1.208-1.243,1.208-1.823a1.107,1.107,0,0,0-.345-.8,1.122,1.122,0,0,0-.38-.235,1.1,1.1,0,0,0-.442-.066,1.842,1.842,0,0,0-1.553.994l-.483-.352a2.3,2.3,0,0,1,2.071-1.236,1.671,1.671,0,0,1,1.8,1.643h0c0,.849-.449,1.381-1.471,2.258l-1.546,1.381h3.072v.594H268.77Z" transform="translate(-83.212 -36.014)" fill="#231f20"/>
      <path id="Path_31" data-name="Path 31" d="M277.42,120.78h3.293v.642H277.42Z" transform="translate(-85.89 -37.394)" fill="#231f20"/>
    </g>
  </g>
</svg>
