<svg xmlns="http://www.w3.org/2000/svg" xmlns:xlink="http://www.w3.org/1999/xlink" width="992.98" height="731.064" viewBox="0 0 992.98 731.064">
  <defs>
    <linearGradient id="linear-gradient" x1="0.5" y1="1" x2="0.5" y2="0.013" gradientUnits="objectBoundingBox">
      <stop offset="0" stop-color="#9fc9bd"/>
      <stop offset="1" stop-color="#fff"/>
    </linearGradient>
  </defs>
  <path id="Intersection_46" data-name="Intersection 46" d="M967.141,0q1.259,10.644,2.145,21.457a528.475,528.475,0,0,1-12.52,165.5c-18.151,76.914-51.608,145.418-99.808,205.757a475.9,475.9,0,0,1-52.4,55.769v-6.343q0-184.269-.081-368.537c-.014-12.776,1.239-25.6-1.335-38.365-1.5-7.437-1.557-15.19-2.682-22.729Q799.515,6.2,798.377,0H777.3a330.577,330.577,0,0,1,6.139,61.087C784.8,229.8,658.25,367.172,501.208,369.862q-2.412.04-4.815.041h0c-158.29,0-280.938-134.073-287.1-291.816A337.2,337.2,0,0,1,215.184,0H187.528q-.021,26.158-.062,52.311a426.309,426.309,0,0,0,3.327,53.681c9.587,76.66,40.135,142.446,93.067,195.214C360.8,377.9,452.44,406.994,555.492,385.46c105.033-21.948,179.158-88.2,223.719-191.958,1.246-2.9,2.374-5.863,3.558-8.8l.715.212v4.832q0,135.456.085,270.912c.006,4.29-1.045,6.989-4.408,9.621-70.267,55.007-148.613,87.621-235.39,97.032a451.342,451.342,0,0,1-48.693,2.654h-.012a436.813,436.813,0,0,1-113.674-15.035q-134.316-36.042-229.8-143.227Q71.839,322.237,39.811,203.441c-11.83-43.987-18.357-88.8-17.912-134.764C22.122,45.7,22.526,22.793,25.044,0H0Q.088,33,.329,65.99c.6,78.632,16.41,153.918,48.378,225.082,24.466,54.468,56.546,103.266,96.683,145.818,68.716,72.852,150.366,120.822,245.14,143.043a452.871,452.871,0,0,0,96.591,11.894Q647.5,594.335,779.5,497.237c1.034-.76,2.1-1.477,3.781-2.66V730.064h21.274q-.007-123.568-.07-247.124c0-3.924.991-6.5,3.936-9.049q81.165-70.34,129.036-169.544a543.274,543.274,0,0,0,31.762-82.636,4.486,4.486,0,0,1,1.666-2.61V730.064H991.97q.065-342.977-.333-685.942A381.136,381.136,0,0,0,988.871,0Z" transform="translate(0.502 0.5)" stroke="rgba(0,0,0,0)" stroke-miterlimit="10" stroke-width="1" opacity="0.238" fill="url(#linear-gradient)"/>
</svg>
