<svg xmlns="http://www.w3.org/2000/svg" xmlns:xlink="http://www.w3.org/1999/xlink" width="1640.819" height="1160.064" viewBox="0 0 1640.819 1160.064">
  <defs>
    <linearGradient id="linear-gradient" x1="0.509" y1="0.802" x2="0.5" y2="0.106" gradientUnits="objectBoundingBox">
      <stop offset="0" stop-color="#fff"/>
      <stop offset="0.46" stop-color="#acd0c6"/>
      <stop offset="1" stop-color="#fff"/>
    </linearGradient>
  </defs>
  <path id="Intersection_30" data-name="Intersection 30" d="M1598.759,0q2.082,16.9,3.547,34.066a806.794,806.794,0,0,1-20.7,262.743c-30,122.11-85.312,230.868-164.99,326.664a768.975,768.975,0,0,1-86.629,88.539v-10.07q0-292.549-.134-585.1c-.024-20.283,2.049-40.644-2.206-60.909-2.478-11.807-2.574-24.115-4.434-36.085Q1321.661,9.841,1319.78,0h-34.842a504.785,504.785,0,0,1,10.148,96.982c2.254,267.855-206.947,485.946-466.549,490.217q-3.987.064-7.96.065h0c-261.666,0-464.413-212.856-474.6-463.293A514.663,514.663,0,0,1,355.716,0H310q-.035,41.528-.1,83.05a650.388,650.388,0,0,0,5.5,85.225C331.244,289.981,381.742,394.425,469.244,478.2c127.183,121.765,278.675,167.95,449.028,133.763C1091.9,577.119,1214.435,471.942,1288.1,307.208c2.06-4.608,3.924-9.308,5.882-13.967l1.182.337v7.672q0,215.053.14,430.1c.01,6.812-1.727,11.1-7.287,15.274C1171.857,833.96,1042.346,885.739,898.9,900.68a776.568,776.568,0,0,1-80.493,4.214h-.019a750.107,750.107,0,0,1-187.912-23.87Q408.436,823.8,250.586,653.633,118.756,511.59,65.811,322.986C46.255,253.152,35.465,182.008,36.2,109.033,36.569,72.55,37.237,36.187,41.4,0H0Q.146,52.391.545,104.767C1.533,229.6,27.672,349.131,80.517,462.112c40.445,86.474,93.475,163.948,159.824,231.5,113.593,115.661,248.566,191.82,405.236,227.1A777.97,777.97,0,0,0,805.249,939.6q265.112,3.981,483.321-150.174c1.71-1.207,3.464-2.345,6.25-4.223v373.864h35.168q-.011-196.178-.116-392.338c0-6.23,1.638-10.314,6.506-14.366q134.173-111.673,213.306-269.171A841.949,841.949,0,0,0,1602.189,352a7.094,7.094,0,0,1,2.754-4.143v811.212H1639.8q.108-544.516-.55-1089.014A581.448,581.448,0,0,0,1634.682,0Z" transform="translate(0.502 0.5)" stroke="rgba(0,0,0,0)" stroke-miterlimit="10" stroke-width="1" opacity="0.17" fill="url(#linear-gradient)"/>
</svg>
