<svg xmlns="http://www.w3.org/2000/svg" width="771.4" height="767.813" viewBox="0 0 771.4 767.813">
  <g id="Group_3405" data-name="Group 3405" transform="translate(-135.893 -101.22)">
    <path id="Path_6222" data-name="Path 6222" d="M17098.619,13710.66c71.418-123.707,201.068-192.868,334.395-192.9l-.34,386.4-333.738,192.856C17032.121,13981.489,17027.123,13834.484,17098.619,13710.66Z" transform="translate(-16911 -13393.317)" fill="#c0efd6"/>
    <path id="Path_6220" data-name="Path 6220" d="M17008.584,13787.767l311.406-179.312,310.648,179.066c-62.131,107.307-178.186,179.474-311.1,179.474C17186.73,13967,17070.756,13894.926,17008.584,13787.767Z" transform="translate(-16798.281 -13097.963)" fill="#5ba6d4"/>
    <path id="Path_6221" data-name="Path 6221" d="M17216,13929.855l.295-409.6c132.883,5.416,260.141,76.67,331.521,200.3,74.279,128.659,69.168,281.38-.129,401.49Z" transform="translate(-16694.314 -13419.032)" fill="#9adfe6"/>
  </g>
</svg>
