<svg xmlns="http://www.w3.org/2000/svg" xmlns:xlink="http://www.w3.org/1999/xlink" width="1240.518" height="931.677" viewBox="0 0 1240.518 931.677">
  <defs>
    <linearGradient id="linear-gradient" x1="0.5" x2="0.654" y2="0.799" gradientUnits="objectBoundingBox">
      <stop offset="0" stop-color="#9fc9bd"/>
      <stop offset="1" stop-color="#fff"/>
    </linearGradient>
  </defs>
  <path id="Intersection_45" data-name="Intersection 45" d="M1208.48,930.677q1.574-13.568,2.681-27.353a686.912,686.912,0,0,0-15.644-210.971c-22.68-98.049-64.486-185.377-124.714-262.3a601.945,601.945,0,0,0-65.481-71.093v8.086q0,234.9-.1,469.807c-.018,16.286,1.549,32.635-1.668,48.907-1.873,9.48-1.946,19.364-3.352,28.975q-1.175,8.038-2.6,15.94H971.267a429.644,429.644,0,0,0,7.671-77.873c1.7-215.075-156.428-390.193-352.658-393.622q-3.014-.051-6.017-.052h0c-197.79,0-351.043,170.914-358.744,372a438.332,438.332,0,0,0,7.365,99.544H234.323q-.027-33.345-.077-66.686a554.295,554.295,0,0,1,4.158-68.432C250.383,697.835,288.554,613.971,354.7,546.7,450.832,448.931,565.342,411.846,694.11,439.3,825.353,467.276,917.975,551.728,973.655,684c1.557,3.7,2.966,7.474,4.446,11.215l.893-.27v-6.16q0-172.678.106-345.355c.007-5.469-1.306-8.909-5.508-12.265-87.8-70.123-185.7-111.7-294.129-123.7a552.926,552.926,0,0,0-60.844-3.383h-.015a535.653,535.653,0,0,0-142.04,19.167Q308.731,269.2,189.415,405.838,89.766,519.893,49.746,671.333c-14.783,56.074-22.938,113.2-22.382,171.8.278,29.294.783,58.492,3.929,87.548H0q.11-42.067.412-84.123c.747-100.239,20.505-196.213,60.45-286.932,30.572-69.435,70.656-131.643,120.809-185.888,85.864-92.871,187.888-154.023,306.312-182.349a555.242,555.242,0,0,1,120.694-15.162q200.394-3.2,365.336,120.583c1.292.969,2.619,1.883,4.725,3.391V0h26.583q-.009,157.522-.088,315.03c0,5,1.238,8.282,4.918,11.535Q1111.57,416.233,1171.385,542.7a701.2,701.2,0,0,1,39.688,105.343,5.735,5.735,0,0,0,2.081,3.327V0h26.351q.082,437.222-.416,874.43a495.512,495.512,0,0,1-3.456,56.247Z" transform="translate(0.502 0.5)" stroke="rgba(0,0,0,0)" stroke-miterlimit="10" stroke-width="1" opacity="0.238" fill="url(#linear-gradient)"/>
</svg>
