<svg xmlns="http://www.w3.org/2000/svg" xmlns:xlink="http://www.w3.org/1999/xlink" width="505.382" height="357.509" viewBox="0 0 505.382 357.509">
  <defs>
    <linearGradient id="linear-gradient" x1="0.261" y1="0.806" x2="0.24" y2="0.148" gradientUnits="objectBoundingBox">
      <stop offset="0" stop-color="#9fc9bd"/>
      <stop offset="1" stop-color="#fff"/>
    </linearGradient>
  </defs>
  <path id="Intersection_64" data-name="Intersection 64" d="M491.752,0q.64,5.2,1.091,10.478a248.155,248.155,0,0,1-6.366,80.815A247.563,247.563,0,0,1,435.728,191.77,236.524,236.524,0,0,1,409.083,219v-3.1q0-89.983-.041-179.966c-.007-6.239.63-12.5-.679-18.734-.762-3.632-.792-7.417-1.364-11.1Q406.521,3.027,405.942,0H395.225a155.264,155.264,0,0,1,3.121,29.83c.693,82.388-63.653,149.469-143.5,150.783q-1.226.02-2.449.02h0c-80.484,0-142.846-65.471-145.979-142.5a158.3,158.3,0,0,1,3-38.132H95.35q-.011,12.773-.031,25.545a200.05,200.05,0,0,0,1.692,26.214c4.874,37.435,20.407,69.56,47.321,95.328,39.119,37.453,85.716,51.659,138.114,41.143C335.85,177.512,373.54,145.161,396.2,94.492c.634-1.417,1.207-2.863,1.809-4.3l.363.1v2.36q0,66.147.043,132.293a5.122,5.122,0,0,1-2.241,4.7c-35.728,26.862-75.564,42.788-119.686,47.383a238.858,238.858,0,0,1-24.758,1.3h-.006a230.721,230.721,0,0,1-57.8-7.342q-68.294-17.6-116.846-69.941a244.287,244.287,0,0,1-56.834-101.7,234.153,234.153,0,0,1-9.108-65.809A321.367,321.367,0,0,1,12.734,0H0Q.045,16.114.168,32.225a261.518,261.518,0,0,0,24.6,109.913,254.888,254.888,0,0,0,49.159,71.207c34.939,35.575,76.455,59,124.644,69.851A239.288,239.288,0,0,0,247.681,289q81.544,1.224,148.662-46.191c.526-.371,1.065-.721,1.922-1.3V356.509h10.817q0-60.341-.036-120.677a5.086,5.086,0,0,1,2-4.419,255.919,255.919,0,0,0,65.609-82.792,258.972,258.972,0,0,0,16.15-40.353,2.182,2.182,0,0,1,.847-1.274V356.509h10.723q.033-167.484-.169-334.963A178.833,178.833,0,0,0,502.8,0Z" transform="translate(504.88 357.009) rotate(180)" stroke="rgba(0,0,0,0)" stroke-miterlimit="10" stroke-width="1" opacity="0.238" fill="url(#linear-gradient)"/>
</svg>
