<svg xmlns="http://www.w3.org/2000/svg" xmlns:xlink="http://www.w3.org/1999/xlink" width="1433.419" height="1013.469" viewBox="0 0 1433.419 1013.469">
  <defs>
    <linearGradient id="linear-gradient" x1="0.261" y1="0.194" x2="0.24" y2="0.852" gradientUnits="objectBoundingBox">
      <stop offset="0" stop-color="#9fc9bd"/>
      <stop offset="1" stop-color="#fff"/>
    </linearGradient>
  </defs>
  <path id="Intersection_47" data-name="Intersection 47" d="M1396.552,1012.469q1.818-14.761,3.1-29.757A704.752,704.752,0,0,0,1381.572,753.2c-26.21-106.666-74.522-201.669-144.123-285.348a671.726,671.726,0,0,0-75.672-77.341v8.8q0,255.548-.117,511.1c-.021,17.718,1.789,35.5-1.927,53.205-2.165,10.313-2.248,21.065-3.873,31.521q-1.358,8.744-3,17.34h-30.435a440.937,440.937,0,0,0,8.865-84.716c1.969-233.977-180.773-424.485-407.541-428.216q-3.483-.056-6.954-.057h0c-228.571,0-405.675,185.935-414.574,404.7a449.569,449.569,0,0,0,8.511,108.292H270.79q-.031-36.276-.089-72.546a568.131,568.131,0,0,1,4.8-74.446C289.349,759.164,333.46,667.93,409.9,594.749,520.993,488.385,653.324,448.041,802.132,477.9c151.668,30.437,258.7,122.312,323.051,266.211,1.8,4.025,3.428,8.131,5.138,12.2l1.032-.294v-6.7q0-187.854.122-375.706c.008-5.95-1.509-9.692-6.365-13.343-101.466-76.286-214.6-121.515-339.9-134.567a678.349,678.349,0,0,0-70.312-3.681h-.017a655.235,655.235,0,0,0-164.146,20.851q-193.953,49.984-331.838,198.63Q103.736,565.583,57.488,730.333c-17.083,61-26.508,123.148-25.865,186.893.321,31.868.9,63.633,4.54,95.243H0Q.128,966.7.476,920.952C1.339,811.9,24.172,707.5,70.334,608.8c35.329-75.537,81.652-143.212,139.61-202.224C309.17,305.547,427.072,239.02,563.926,208.2A679.571,679.571,0,0,1,703.4,191.709q231.581-3.477,422.192,131.18c1.494,1.054,3.026,2.048,5.46,3.689V0h30.72q-.01,171.366-.1,342.716c0,5.442,1.431,9.01,5.683,12.549q117.2,97.549,186.328,235.127a735.468,735.468,0,0,1,45.865,114.6,6.2,6.2,0,0,0,2.405,3.619V0h30.452q.094,475.647-.48,951.278a507.916,507.916,0,0,1-3.994,61.19Z" transform="translate(1432.917 1012.969) rotate(180)" stroke="rgba(0,0,0,0)" stroke-miterlimit="10" stroke-width="1" opacity="0.238" fill="url(#linear-gradient)"/>
</svg>
