<svg xmlns="http://www.w3.org/2000/svg" width="771.4" height="767.813" viewBox="0 0 771.4 767.813">
  <g id="Group_3691" data-name="Group 3691" transform="translate(-908.6 -780.956)">
    <g id="Group_3405" data-name="Group 3405" transform="translate(772.707 679.736)">
      <path id="Path_6222" data-name="Path 6222" d="M17098.619,13710.66c71.418-123.707,201.068-192.868,334.395-192.9l-.34,386.4-333.738,192.856C17032.121,13981.489,17027.123,13834.484,17098.619,13710.66Z" transform="translate(-16911 -13393.317)" fill="#c0efd6"/>
      <path id="Path_6220" data-name="Path 6220" d="M17008.584,13787.767l311.406-179.312,310.648,179.066c-62.131,107.307-178.186,179.474-311.1,179.474C17186.73,13967,17070.756,13894.926,17008.584,13787.767Z" transform="translate(-16798.281 -13097.963)" fill="#5ba6d4"/>
      <path id="Path_6221" data-name="Path 6221" d="M17216,13929.855l.295-409.6c132.883,5.416,260.141,76.67,331.521,200.3,74.279,128.659,69.168,281.38-.129,401.49Z" transform="translate(-16694.314 -13419.032)" fill="#9adfe6"/>
    </g>
    <text id="Years_of_Giving_Back" data-name="Years 
of Giving Back" transform="translate(1028.854 1109.18)" fill="#01362a" font-size="34" font-family="Mundial-Regular, Mundial"><tspan x="0" y="0">Years </tspan><tspan x="0" y="36">of Giving Back</tspan></text>
    <text id="Charities_Causes_Supported" data-name="Charities &amp; 
Causes Supported" transform="translate(1349.058 1109.18)" fill="#01362a" font-size="34" font-family="Mundial-Regular, Mundial"><tspan x="0" y="0">Charities &amp; </tspan><tspan x="0" y="36">Causes Supported</tspan></text>
    <text id="Thousand_in_Donations" data-name="Thousand 
in Donations" transform="translate(1198.058 1425.18)" fill="#01362a" font-size="34" font-family="Mundial-Regular, Mundial"><tspan x="0" y="0">Thousand </tspan><tspan x="0" y="36">in Donations</tspan></text>
    <text id="_13_" data-name="13+" transform="translate(1019.693 1056.691)" fill="#01362a" font-size="91" font-family="Mundial-Regular, Mundial"><tspan x="0" y="0">13+</tspan></text>
    <text id="_110_" data-name="110+" transform="translate(1339.897 1056.691)" fill="#01362a" font-size="91" font-family="Mundial-Regular, Mundial"><tspan x="0" y="0">110+</tspan></text>
    <text id="_520" data-name="$520" transform="translate(1188.897 1372.691)" fill="#01362a" font-size="91" font-family="Mundial-Regular, Mundial"><tspan x="0" y="0">$520</tspan></text>
  </g>
</svg>
