<svg xmlns="http://www.w3.org/2000/svg" width="151" height="46" viewBox="0 0 151 46">
  <path id="Fill_6" data-name="Fill 6" d="M55.32,0c6.971,0,11.238,3.765,14.691,7.294a.484.484,0,0,1,0-.176c0-.027,0-.05,0-.062a7.345,7.345,0,0,1,2.11-4.66A7.3,7.3,0,0,1,76.671.2C77.451.106,78.947.009,80,.009h.147l5.333,0h1.3l4.034,0c7.483,0,12.012,4.641,15.318,8.029l.017.017,12.335,13A16.853,16.853,0,0,1,124.514,13a16.509,16.509,0,0,1,9.739-3.158A16.838,16.838,0,0,1,151,26.727a20.452,20.452,0,0,1-3.8,11.727,16.547,16.547,0,0,1-5.855,4.853,20.209,20.209,0,0,1-5.444,2.169c-.47.112-.911.205-1.349.285a25.791,25.791,0,0,1-3,.23c-.181.005-.364.008-.543.008-7.488,0-12.014-4.642-15.318-8.032l-.012-.012-.041-.044L113.21,35.35c-.138.287-.248.5-.355.7-.064.115-.134.236-.2.354-.054.093-.107.185-.159.275a20.185,20.185,0,0,1-1.459,2.117l-.016.021c-.107.142-.229.3-.373.484-.08.092-.164.183-.246.271l-.112.121a18.989,18.989,0,0,1-9.877,5.784c-.472.111-.913.2-1.35.285a25.882,25.882,0,0,1-3.006.23c-.181.005-.364.008-.543.008C88.026,46,83.5,41.359,80.2,37.97l-.014-.014h0s-1.907-2.01-2.3-2.421q.057-.119.111-.234C69.825,26.749,49.619,5.6,49.438,5.41a14.7,14.7,0,0,0-3.653-2.738A11.712,11.712,0,0,0,42.249,2c-.073,0-.146,0-.219,0a5.927,5.927,0,0,0-4.5,2.031A6.341,6.341,0,0,0,36.2,6.446,6.136,6.136,0,0,0,36.116,9.2c.9.945,3.176,3.322,6.054,6.333l.017.018.074.078c7.2,7.527,18.073,18.9,22.409,23.456a11.524,11.524,0,0,0,5.174,2.876A5.767,5.767,0,0,0,70.51,42a5.361,5.361,0,0,0,2.34-.539c.1-.05.207-.1.31-.162a19.318,19.318,0,0,1-8.239,4.177c-.447.105-.9.2-1.349.285a26.079,26.079,0,0,1-3.013.23C60.378,46,60.2,46,60.017,46c-7.5,0-12.024-4.649-15.327-8.044-1.959-2.063-4.114-4.383-6.2-6.627l0,0c-2-2.154-4.07-4.381-5.953-6.368a17.107,17.107,0,0,1-5.9,7.987,16.179,16.179,0,0,1-9.289,3.211c-.151,0-.3.006-.455.006A16.764,16.764,0,0,1,0,19.279a20.688,20.688,0,0,1,1.341-7.129A17.766,17.766,0,0,1,4.612,6.523,21.256,21.256,0,0,1,14.79.608,19.163,19.163,0,0,1,19.2.014h.014l.108,0C19.5,0,19.688,0,19.869,0a16.543,16.543,0,0,1,8.687,2.414A29.8,29.8,0,0,1,34.46,7.3a7.34,7.34,0,0,1,1.8-4.577,7.766,7.766,0,0,1,5.4-2.585c.726-.059,1.9-.094,2.6-.115h.01L44.652.01C44.84,0,54.892,0,55.32,0ZM104.6,42a5.228,5.228,0,0,0,2.331-.568,8.209,8.209,0,0,0,2.44-1.936c.308-.369.627-.773.922-1.167A20.074,20.074,0,0,0,112,35.349c-8.162-8.534-28.431-29.73-28.618-29.927a14.379,14.379,0,0,0-3.853-2.834A12.03,12.03,0,0,0,76.6,2.014C76.453,2,76.307,2,76.163,2a6.107,6.107,0,0,0-4.444,1.822c-.131.142-.251.284-.35.4a6.005,6.005,0,0,0-1.238,5.009c1.218,1.276,4.237,4.43,8.06,8.423l.028.029c6.931,7.241,16.424,17.158,20.357,21.288a13.017,13.017,0,0,0,4.21,2.7l.129.042c.055.018.11.037.166.054l.042.011a.178.178,0,0,1,.045.014A5.472,5.472,0,0,0,104.6,42ZM17.278,34c.231,0,.464-.006.692-.018A15.78,15.78,0,0,0,24.117,32.4a15.291,15.291,0,0,0,4.636-3.575A16.34,16.34,0,0,0,32,23.1C28.991,19.668,18.021,7.963,16.44,6.445a9.633,9.633,0,0,0-4.968-2.4A7.03,7.03,0,0,0,10.679,4,4.918,4.918,0,0,0,7.622,5.006a17.7,17.7,0,0,0-5.59,12.332,15.6,15.6,0,0,0,1.254,7.133,16.51,16.51,0,0,0,4,5.654A15.2,15.2,0,0,0,17.278,34Zm123.037,8a5.7,5.7,0,0,0,1.525-.2,4.662,4.662,0,0,0,.518-.211,7.734,7.734,0,0,0,2.495-2.026,17.728,17.728,0,0,0,2.2-3.519c.057-.132.122-.266.179-.382.025-.055.048-.11.072-.167.037-.088.075-.176.117-.262.017-.047.037-.093.056-.139.028-.068.057-.137.08-.207A19.057,19.057,0,0,0,149,27.756,15.586,15.586,0,0,0,133.627,12a14.979,14.979,0,0,0-9.122,3.087,15.822,15.822,0,0,0-5.5,7.831c6.194,6.631,12.237,13.113,15.035,16.127A9.739,9.739,0,0,0,140.113,42C140.181,42,140.249,42,140.315,42Zm-62.6-6.65h0l.143.151.031.033c-.941,1.95-2.524,4.533-4.728,5.764a18.364,18.364,0,0,0,1.625-1.607,4.705,4.705,0,0,0,.361-.392c.153-.184.277-.348.386-.493l.009-.012A18.948,18.948,0,0,0,77,36.678c.058-.1.117-.2.175-.3s.128-.222.191-.328c.123-.233.24-.467.347-.7Z" transform="translate(151 46) rotate(180)" fill="#1c375e"/>
</svg>
