<svg id="Color_logo_with_background" data-name="Color logo with background" xmlns="http://www.w3.org/2000/svg" xmlns:xlink="http://www.w3.org/1999/xlink" width="165.789" height="165.177" viewBox="0 0 165.789 165.177">
  <defs>
    <clipPath id="clip-path">
      <rect id="Rectangle_38" data-name="Rectangle 38" width="165.789" height="165.177" fill="none"/>
    </clipPath>
  </defs>
  <g id="Group_16" data-name="Group 16" clip-path="url(#clip-path)">
    <rect id="Rectangle_37" data-name="Rectangle 37" width="165.797" height="165.177" transform="translate(-0.008)" fill="#fbb901"/>
  </g>
  <path id="Path_24" data-name="Path 24" d="M1291.812,429.2l5.2,18.162h-10.4l5.2-18.162Zm0,6.962-2.659,9.283h5.318l-2.659-9.283h0Z" transform="translate(-1197.913 -399.612)" fill="#fff"/>
  <path id="Path_25" data-name="Path 25" d="M968.06,447.362l5.2-18.162,5.2,18.162Zm2.542-1.917h5.319l-2.66-9.284-2.66,9.284Z" transform="translate(-901.323 -399.612)" fill="#fff"/>
  <path id="Path_26" data-name="Path 26" d="M1020.54,364.513c0,.052,0,.1.008.155a1.457,1.457,0,0,0,.023.154c.01.051.023.1.038.151s.032.1.052.146.042.1.066.141a1.435,1.435,0,0,0,.08.133c.029.043.06.085.092.125s.068.079.1.115a1.519,1.519,0,0,0,.115.1c.04.032.082.064.125.092s.088.055.133.08a1.423,1.423,0,0,0,.141.066c.048.02.1.037.146.052s.1.028.151.038a1.442,1.442,0,0,0,.154.023c.052,0,.1.008.155.008s.1,0,.155-.008a1.44,1.44,0,0,0,.154-.023c.051-.01.1-.023.151-.038a1.529,1.529,0,0,0,.146-.052q.072-.03.141-.066a1.427,1.427,0,0,0,.133-.08c.043-.029.085-.06.125-.092a1.474,1.474,0,0,0,.115-.1c.037-.036.072-.075.1-.115a1.445,1.445,0,0,0,.092-.125c.029-.043.055-.088.08-.133a1.479,1.479,0,0,0,.066-.141c.02-.048.037-.1.052-.146s.028-.1.038-.151a1.457,1.457,0,0,0,.023-.154c0-.052.008-.1.008-.155s0-.1-.008-.155a1.457,1.457,0,0,0-.023-.154c-.01-.051-.023-.1-.038-.151a1.546,1.546,0,0,0-.052-.146q-.03-.072-.066-.141a1.4,1.4,0,0,0-.08-.133c-.029-.043-.06-.085-.092-.125a1.507,1.507,0,0,0-.1-.115c-.037-.036-.075-.072-.115-.1s-.082-.064-.125-.092-.088-.055-.133-.08a1.463,1.463,0,0,0-.141-.066c-.048-.019-.1-.037-.146-.052s-.1-.028-.151-.038a1.471,1.471,0,0,0-.154-.023c-.052,0-.1-.008-.155-.008s-.1,0-.155.008a1.474,1.474,0,0,0-.154.023c-.051.01-.1.023-.151.038a1.522,1.522,0,0,0-.146.052c-.048.02-.1.042-.141.066a1.441,1.441,0,0,0-.133.08c-.043.029-.085.06-.125.092a1.532,1.532,0,0,0-.115.1,1.5,1.5,0,0,0-.1.115c-.032.04-.064.082-.092.125s-.055.088-.08.133a1.435,1.435,0,0,0-.066.141c-.02.048-.037.1-.052.146s-.028.1-.038.151a1.457,1.457,0,0,0-.023.154c0,.052-.008.1-.008.155Z" transform="translate(-950.186 -337.91)" fill="#fff"/>
  <path id="Path_27" data-name="Path 27" d="M1175.22,79.471a1.872,1.872,0,0,0,.037.371c.012.061.028.121.045.181s.039.118.063.176.05.114.08.169.061.108.1.16.072.1.111.15a1.712,1.712,0,0,0,.125.138c.044.044.09.085.138.125a1.694,1.694,0,0,0,.15.111,1.789,1.789,0,0,0,.16.1c.055.029.111.056.169.08a1.723,1.723,0,0,0,.176.063c.059.018.12.033.181.046a1.866,1.866,0,0,0,.185.028c.062.006.124.009.186.009s.124,0,.186-.009.123-.015.185-.028.121-.028.181-.046.118-.039.176-.063.114-.05.169-.08.108-.061.16-.1.1-.072.15-.111a1.71,1.71,0,0,0,.138-.125c.044-.044.085-.09.125-.138s.077-.1.111-.15a1.76,1.76,0,0,0,.1-.16,1.862,1.862,0,0,0,.08-.169,1.711,1.711,0,0,0,.063-.176c.018-.059.033-.12.046-.181a1.888,1.888,0,0,0,0-.742c-.012-.061-.028-.121-.046-.181s-.039-.118-.063-.176-.05-.114-.08-.169-.061-.108-.1-.16a1.86,1.86,0,0,0-.236-.287c-.044-.043-.09-.085-.138-.125a1.678,1.678,0,0,0-.15-.111,1.771,1.771,0,0,0-.16-.1c-.055-.03-.111-.056-.169-.08a1.7,1.7,0,0,0-.176-.063c-.059-.018-.12-.033-.181-.046s-.123-.021-.185-.028-.124-.009-.186-.009-.124,0-.186.009a1.866,1.866,0,0,0-.185.028c-.061.012-.121.028-.181.046s-.118.039-.176.063-.114.05-.169.08-.108.061-.16.1a1.844,1.844,0,0,0-.15.111,1.824,1.824,0,0,0-.138.125c-.044.044-.085.09-.125.138s-.077.1-.111.15a1.818,1.818,0,0,0-.1.16c-.03.055-.056.111-.08.169a1.741,1.741,0,0,0-.063.176c-.018.059-.033.12-.045.181a1.83,1.83,0,0,0-.028.185,1.863,1.863,0,0,0-.009.186Z" transform="translate(-1094.202 -72.222)" fill="#fff"/>
  <path id="Path_28" data-name="Path 28" d="M1339.09,364.513c0,.052,0,.1.008.155a1.457,1.457,0,0,0,.023.154c.01.051.023.1.038.151s.032.1.052.146.042.1.066.141a1.435,1.435,0,0,0,.08.133c.029.043.06.085.092.125s.068.079.1.115a1.5,1.5,0,0,0,.115.1,1.449,1.449,0,0,0,.125.092c.043.029.088.055.133.08a1.423,1.423,0,0,0,.141.066c.048.02.1.037.146.052s.1.028.151.038a1.447,1.447,0,0,0,.154.023c.052,0,.1.008.155.008s.1,0,.155-.008a1.442,1.442,0,0,0,.154-.023c.051-.01.1-.023.151-.038a1.529,1.529,0,0,0,.146-.052q.072-.03.141-.066a1.427,1.427,0,0,0,.133-.08c.043-.029.085-.06.125-.092a1.534,1.534,0,0,0,.219-.219,1.446,1.446,0,0,0,.092-.125c.029-.043.055-.088.08-.133a1.449,1.449,0,0,0,.066-.141c.02-.048.037-.1.052-.146s.028-.1.038-.151a1.425,1.425,0,0,0,.023-.154q.008-.078.008-.155t-.008-.155a1.425,1.425,0,0,0-.023-.154c-.01-.051-.023-.1-.038-.151a1.512,1.512,0,0,0-.052-.146q-.03-.072-.066-.141a1.454,1.454,0,0,0-.08-.133c-.029-.043-.06-.085-.092-.125s-.068-.079-.1-.115a1.51,1.51,0,0,0-.115-.1c-.04-.032-.082-.064-.125-.092s-.088-.055-.133-.08a1.318,1.318,0,0,0-.141-.066c-.048-.02-.1-.037-.146-.052s-.1-.028-.151-.038a1.474,1.474,0,0,0-.154-.023c-.052,0-.1-.008-.155-.008s-.1,0-.155.008a1.479,1.479,0,0,0-.154.023c-.051.01-.1.023-.151.038a1.522,1.522,0,0,0-.146.052q-.073.03-.141.066a1.441,1.441,0,0,0-.133.08c-.043.029-.085.06-.125.092s-.079.068-.115.1a1.5,1.5,0,0,0-.1.115c-.032.04-.064.082-.092.125s-.055.088-.08.133a1.435,1.435,0,0,0-.066.141c-.02.048-.037.1-.052.146s-.027.1-.038.151a1.457,1.457,0,0,0-.023.154c0,.052-.008.1-.008.155Z" transform="translate(-1246.775 -337.91)" fill="#fff"/>
  <path id="Path_29" data-name="Path 29" d="M906.9,158.262h10.285V160.5h-8.32a9.367,9.367,0,0,1-6.828,6.827V196.73l14.152,10.4V170.312h-3.626v-2.236h6.527V153.15h3.195v14.927h6.526v2.236h-3.625v36.815l14.156-10.4v-29.4a9.369,9.369,0,0,1-6.828-6.827h-8.325v-2.236h10.29a7.1,7.1,0,0,0,7.1,7.1v32.5L925.185,209.9v6.648l-4.5,4.546-4.5-4.546V209.9L899.8,197.862v-32.5a7.1,7.1,0,0,0,7.1-7.1h0Zm11.206,57.5,2.582,2.609,2.58-2.609V170.153h-1.622v43.264H919.73V170.153h-1.623v45.609h0Z" transform="translate(-837.769 -142.592)" fill="#fff"/>
  <path id="Path_30" data-name="Path 30" d="M973.465,719.458a6.54,6.54,0,0,1-5.194-2.178h10.39a6.543,6.543,0,0,1-5.2,2.178Z" transform="translate(-901.519 -667.832)" fill="#fff"/>
  <path id="Path_31" data-name="Path 31" d="M1291.915,719.458a6.539,6.539,0,0,1-5.195-2.178h10.389a6.539,6.539,0,0,1-5.194,2.178h0Z" transform="translate(-1198.016 -667.832)" fill="#fff"/>
  <path id="Path_32" data-name="Path 32" d="M133.232,1295.45h2.776v16.007a11.053,11.053,0,0,1-2.6,7.751,9.592,9.592,0,0,1-7.319,2.776q-4.705,0-7.247-2.812a10.632,10.632,0,0,1-2.6-7.535V1295.45h2.74v16.043c0,2.776.793,4.9,2.091,6.093a7.26,7.26,0,0,0,5.156,1.8,6.582,6.582,0,0,0,5.192-2.019,8.4,8.4,0,0,0,1.8-5.732V1295.45h0Zm11.606,26.281h-2.776V1295.45h2.776v11.609h.18l11.79-11.609h3.822l-12.872,12.582,13.484,13.7H157.35l-12.331-12.654h-.18v12.654Zm38.323,0h-3.353L172.02,1311.1h-5.337v10.635h-2.776V1295.45h9.122c3.1,0,5.589.865,7.031,2.307a7.344,7.344,0,0,1,2.2,5.372c0,4.434-3.317,6.994-7.211,7.5l8.113,11.1h0Zm-16.477-23.686v10.527h6.093a7.241,7.241,0,0,0,5.156-1.694,5.066,5.066,0,0,0,1.515-3.677c0-2.6-1.586-5.155-6.6-5.155h-6.165Zm39.873,23.686-2.884-6.706H189.36l-2.884,6.706h-2.812l11.321-26.281h3.137l11.358,26.281h-2.92Zm-3.93-9.229-6.129-14.2-6.093,14.2Zm9.731,9.229V1295.45h2.776v26.281Zm27.9-26.281h2.7v26.281h-2.993l-15.684-22.352v22.352h-2.74V1295.45h3.209l15.5,22.1v-22.1Zm9.154,26.281V1295.45h16.441v2.56H252.193v9.085H264.7v2.56H252.193v9.518H266v2.56H249.417Z" transform="translate(-108.236 -1206.143)" fill="#1e3d7f"/>
  <path id="Path_33" data-name="Path 33" d="M116.25,1777.219v-16.183h1.71v16.183Zm20.113-16.183h2.442v16.183h-1.688v-13.875l-6.017,13.875h-1.532l-5.972-13.763v13.763h-1.688v-16.183h2.42l6.039,13.875,5.994-13.875h0Zm20.868,0h2.442v16.183h-1.688v-13.875l-6.017,13.875h-1.532l-5.972-13.763v13.763h-1.688v-16.183h2.42l6.039,13.875,5.994-13.875h0Zm6.414,16.183v-16.183h1.71v16.183Zm19.824-11.544-1.621.577a5.3,5.3,0,0,0-1.11-1.909,5.634,5.634,0,0,0-4.462-1.887,5.962,5.962,0,0,0-3.286.91,6.305,6.305,0,0,0-2.265,2.442,6.849,6.849,0,0,0-.8,3.286,7.191,7.191,0,0,0,1.688,4.729,6.228,6.228,0,0,0,4.684,1.976,6.4,6.4,0,0,0,3.863-1.265,4.844,4.844,0,0,0,1.843-3.574h-6.749v-1.576h8.57v.622a7.509,7.509,0,0,1-2,5.217,7.649,7.649,0,0,1-5.55,2.154,8.021,8.021,0,0,1-5.906-2.353,8.864,8.864,0,0,1-1.132-10.056,7.913,7.913,0,0,1,2.931-3,8.053,8.053,0,0,1,4.151-1.088,7.58,7.58,0,0,1,4.751,1.465,6.928,6.928,0,0,1,2.4,3.33h0Zm14.873,11.544h-2.065l-4.8-6.549H188.2v6.549h-1.71v-16.183H192.1a6.1,6.1,0,0,1,4.329,1.421,4.522,4.522,0,0,1,1.355,3.308c0,2.731-2.043,4.307-4.44,4.618l5,6.837h0Zm-10.146-14.585v6.482h3.752a4.462,4.462,0,0,0,3.175-1.043,3.119,3.119,0,0,0,.933-2.265c0-1.6-.977-3.175-4.063-3.175h-3.8Zm24.553,14.585-1.776-4.129h-8.814l-1.776,4.129H198.65l6.972-16.183h1.932l6.994,16.183h-1.8Zm-2.42-5.683-3.774-8.747-3.752,8.747Zm11.3-8.9v14.585h-1.688v-14.585h-5.417v-1.6h12.522v1.6Zm7.569,14.585v-16.183h1.71v16.183Zm20.8-8.125a8.638,8.638,0,0,1-1.044,4.2,7.913,7.913,0,0,1-2.931,3,8.173,8.173,0,0,1-4.2,1.11,8.336,8.336,0,0,1-3.219-.644,7.481,7.481,0,0,1-2.576-1.754,7.836,7.836,0,0,1-1.688-2.6,8.739,8.739,0,0,1-.622-3.219,8.417,8.417,0,0,1,1.066-4.2,7.651,7.651,0,0,1,2.931-3.019,8.075,8.075,0,0,1,4.174-1.088,8.317,8.317,0,0,1,3.219.622,8.466,8.466,0,0,1,2.576,1.732,8.434,8.434,0,0,1,2.309,5.86Zm-1.754.089a7.034,7.034,0,0,0-1.776-4.729,6.408,6.408,0,0,0-7.9-1.11,6.4,6.4,0,0,0-2.265,2.42,7.089,7.089,0,0,0-.8,3.33,6.979,6.979,0,0,0,1.776,4.707,6.24,6.24,0,0,0,4.618,2,6.128,6.128,0,0,0,3.264-.91,5.94,5.94,0,0,0,2.287-2.4,6.936,6.936,0,0,0,.8-3.308Zm16.094-8.147H266v16.183h-1.843l-9.658-13.763v13.763h-1.688v-16.183h1.976l9.547,13.608v-13.608h0Z" transform="translate(-108.236 -1639.488)" fill="#1e3d7f"/>
  <path id="Path_34" data-name="Path 34" d="M82.255,2157.7v9.844H81.117V2157.7H77.46v-1.079h8.452v1.079Zm20.379,9.844-1.2-2.787H95.486l-1.2,2.787H93.118l4.706-10.923h1.3l4.72,10.923h-1.214ZM101,2163.708l-2.547-5.9-2.533,5.9Zm14.294,3.94a4.127,4.127,0,0,1-2.667-.959,3.434,3.434,0,0,1-1.2-2.127l1.079-.3a2.726,2.726,0,0,0,.989,1.633,2.685,2.685,0,0,0,1.8.674,2.868,2.868,0,0,0,1.679-.48,1.784,1.784,0,0,0,.765-1.513,1.734,1.734,0,0,0-.914-1.558,3.2,3.2,0,0,0-1.034-.374l-1.439-.285a4.754,4.754,0,0,1-.959-.314,3.185,3.185,0,0,1-.9-.614,2.518,2.518,0,0,1-.765-1.888,2.714,2.714,0,0,1,.494-1.6,3.179,3.179,0,0,1,1.274-1.079,3.992,3.992,0,0,1,1.693-.36,3.366,3.366,0,0,1,3.612,2.623l-1.049.33a2.466,2.466,0,0,0-2.578-1.888,2.118,2.118,0,0,0-2.293,1.933,1.734,1.734,0,0,0,1.588,1.723l1.379.27a4.135,4.135,0,0,1,2.128.959,2.843,2.843,0,0,1,.719,1,2.731,2.731,0,0,1,.225,1,3.285,3.285,0,0,1-3.626,3.192Zm13.935-.1h-1.154V2156.62h1.154v4.825h.075l4.9-4.825h1.588l-5.35,5.229,5.6,5.694h-1.619l-5.125-5.26h-.075v5.26h0Zm27.06-9.844v3.926h5.14v1.048h-5.14v4.87h-1.154V2156.62h6.773v1.079h-5.62Zm24.784,4.361a5.835,5.835,0,0,1-.7,2.832,5.346,5.346,0,0,1-1.978,2.023,5.521,5.521,0,0,1-2.832.749,5.62,5.62,0,0,1-2.173-.434,5.048,5.048,0,0,1-1.739-1.183,5.3,5.3,0,0,1-1.139-1.753,5.9,5.9,0,0,1-.42-2.173,5.689,5.689,0,0,1,.719-2.832,5.172,5.172,0,0,1,1.978-2.038,5.456,5.456,0,0,1,2.818-.734,5.613,5.613,0,0,1,2.173.42,5.733,5.733,0,0,1,1.739,1.168,5.695,5.695,0,0,1,1.559,3.956h0Zm-1.184.06a4.749,4.749,0,0,0-1.2-3.192,4.326,4.326,0,0,0-5.334-.749,4.319,4.319,0,0,0-1.528,1.633,4.785,4.785,0,0,0-.54,2.248,4.708,4.708,0,0,0,1.2,3.177,4.211,4.211,0,0,0,3.117,1.348,4.133,4.133,0,0,0,2.2-.614,4.011,4.011,0,0,0,1.544-1.618,4.68,4.68,0,0,0,.54-2.233h0Zm18.311,5.424h-1.394l-3.237-4.42h-2.218v4.42H190.2V2156.62h3.792a4.122,4.122,0,0,1,2.922.959,3.052,3.052,0,0,1,.914,2.232,3.142,3.142,0,0,1-3,3.117l3.372,4.615h0Zm-6.848-9.844v4.376h2.533a3.008,3.008,0,0,0,2.143-.7,2.1,2.1,0,0,0,.629-1.529c0-1.079-.659-2.143-2.742-2.143h-2.562Zm20.439,9.964a5.525,5.525,0,0,1-3.866-1.543,5.33,5.33,0,0,1-1.154-1.753,5.943,5.943,0,0,1-.434-2.247,5.826,5.826,0,0,1,.449-2.278,5.378,5.378,0,0,1,1.184-1.783,5.579,5.579,0,0,1,3.866-1.558,4.971,4.971,0,0,1,3.866,1.678,4.71,4.71,0,0,1,1.019,1.918l-1.094.39a3.693,3.693,0,0,0-.645-1.319,4.244,4.244,0,0,0-.7-.764,3.293,3.293,0,0,0-1.049-.569,3.943,3.943,0,0,0-1.424-.24,4.277,4.277,0,0,0-3,1.229,4.552,4.552,0,0,0-1.274,3.222,4.8,4.8,0,0,0,.554,2.322,3.919,3.919,0,0,0,1.544,1.618,4.16,4.16,0,0,0,2.188.585,3.941,3.941,0,0,0,2.4-.764,3.412,3.412,0,0,0,.719-.75,5.156,5.156,0,0,0,.465-.749c.09-.209.18-.434.255-.659l1.094.39a4.966,4.966,0,0,1-1,1.858,5.279,5.279,0,0,1-.944.884,5.353,5.353,0,0,1-3.012.884h0Zm13.875-.12V2156.62H232.5v1.063h-5.679v3.776h5.2v1.064h-5.2v3.956h5.739v1.064h-6.893Z" transform="translate(-72.12 -2007.834)" fill="#fff"/>
</svg>
