<svg id="Group_473" data-name="Group 473" xmlns="http://www.w3.org/2000/svg" width="28.17" height="21" viewBox="0 0 28.17 21">
  <path id="noun_Search_2738101" d="M12.878,11.7A4.344,4.344,0,1,0,11.7,12.879l1.912,1.912a.455.455,0,0,0,.643,0l.54-.54a.455.455,0,0,0,0-.643Zm-3.6.917a3.336,3.336,0,1,1,3.336-3.336,3.336,3.336,0,0,1-3.336,3.336Z" transform="translate(-4.929 0.573)" fill="#1c375e"/>
  <rect id="Rectangle_440" data-name="Rectangle 440" width="28" height="3" rx="1.5" transform="translate(0.17)" fill="#1c375e"/>
  <rect id="Rectangle_441" data-name="Rectangle 441" width="16" height="3" rx="1.5" transform="translate(12.17 9)" fill="#1c375e"/>
  <rect id="Rectangle_442" data-name="Rectangle 442" width="28" height="3" rx="1.5" transform="translate(0.17 18)" fill="#1c375e"/>
</svg>
