<svg width="134" height="134" viewBox="0 0 134 134" fill="none" xmlns="http://www.w3.org/2000/svg">
<g clip-path="url(#clip0_312_497)">
<path d="M52.5012 97.414C81.4968 97.414 105.002 75.6071 105.002 48.707C105.002 21.8069 81.4968 0 52.5012 0C23.5056 0 0 21.8069 0 48.707C0 75.6071 23.5056 97.414 52.5012 97.414Z" fill="#FEC107"/>
<path d="M46.5953 129.492L16.5161 127.677V76.6283C16.5161 75.7045 17.323 74.9559 18.3188 74.9559H96.7101C97.7059 74.9559 98.5128 75.7045 98.5128 76.6283V127.677L46.6125 129.492H46.5953Z" fill="white"/>
<path d="M98.4955 128.473C98.0147 128.473 97.637 128.123 97.637 127.677V76.6283C97.637 76.1505 97.2078 75.7523 96.6928 75.7523H18.3015C17.7864 75.7523 17.3572 76.1505 17.3572 76.6283V127.677C17.3572 128.123 16.9795 128.473 16.4988 128.473C16.0181 128.473 15.6404 128.123 15.6404 127.677V76.6283C15.6404 75.2745 16.825 74.1595 18.3015 74.1595H96.6928C98.1521 74.1595 99.3539 75.2586 99.3539 76.6283V127.677C99.3539 128.123 98.9762 128.473 98.4955 128.473Z" fill="#37474F"/>
<path d="M22.6794 79.3201H92.2976C93.1732 79.3201 93.8943 79.989 93.8943 80.8013V121.831C93.8943 122.643 93.1732 123.312 92.2976 123.312H22.6794C21.8038 123.312 21.0828 122.643 21.0828 121.831V80.8013C21.0828 79.989 21.8038 79.3201 22.6794 79.3201Z" fill="white"/>
<path d="M92.3148 124.109H22.6795C21.3231 124.109 20.2244 123.089 20.2244 121.831V80.8013C20.2244 79.5431 21.3231 78.5237 22.6795 78.5237H92.2977C93.654 78.5237 94.7527 79.5431 94.7527 80.8013V121.831C94.7527 123.089 93.654 124.109 92.2977 124.109H92.3148ZM22.6795 80.1165C22.2674 80.1165 21.9412 80.4191 21.9412 80.8013V121.831C21.9412 122.213 22.2674 122.516 22.6795 122.516H92.2977C92.7097 122.516 93.0359 122.213 93.0359 121.831V80.8013C93.0359 80.4191 92.7097 80.1165 92.2977 80.1165H22.6795Z" fill="#37474F"/>
<path d="M72.3995 127.677C71.5068 128.776 70.1161 129.461 68.5881 129.461H46.4236C44.8956 129.461 43.505 128.776 42.6122 127.677H1.27051L3.62259 131.404C4.378 132.519 5.69998 133.188 7.10779 133.188H107.887C109.312 133.188 110.617 132.519 111.372 131.404L113.724 127.677H72.3995Z" fill="white"/>
<path d="M107.887 134H7.10768C5.39083 134 3.81133 133.188 2.9014 131.834L0.532147 128.075C0.377631 127.836 0.377631 127.517 0.532147 127.279C0.686663 127.024 0.961359 126.88 1.27039 126.88H42.5949C42.8696 126.88 43.1271 126.992 43.2817 127.199C44.0199 128.107 45.1874 128.664 46.4063 128.664H68.5708C69.7898 128.664 70.9573 128.123 71.6955 127.199C71.85 127.008 72.1075 126.88 72.3822 126.88H113.707C114.016 126.88 114.291 127.04 114.445 127.279C114.6 127.533 114.6 127.836 114.445 128.075L112.093 131.802C111.166 133.172 109.586 133.984 107.869 133.984L107.887 134ZM2.76405 128.473L4.36072 131.006C4.94445 131.866 5.97456 132.407 7.10768 132.407H107.887C109.02 132.407 110.05 131.882 110.651 130.99L112.23 128.473H72.8115C71.747 129.588 70.2018 130.257 68.588 130.257H46.4235C44.8097 130.257 43.2645 129.604 42.2001 128.473H2.76405Z" fill="#37474F"/>
<path d="M57.2911 108.149C63.0371 108.149 67.6952 103.828 67.6952 98.4971C67.6952 93.1663 63.0371 88.8448 57.2911 88.8448C51.545 88.8448 46.887 93.1663 46.887 98.4971C46.887 103.828 51.545 108.149 57.2911 108.149Z" fill="#EBEFF2"/>
<path d="M57.2911 108.93C51.0761 108.93 46.0286 104.247 46.0286 98.4812C46.0286 92.7153 51.0761 88.0326 57.2911 88.0326C63.5061 88.0326 68.5536 92.7153 68.5536 98.4812C68.5536 104.247 63.5061 108.93 57.2911 108.93ZM57.2911 89.6413C52.0375 89.6413 47.7454 93.6073 47.7454 98.4971C47.7454 103.387 52.0204 107.353 57.2911 107.353C62.5618 107.353 66.8368 103.387 66.8368 98.4971C66.8368 93.6073 62.5618 89.6413 57.2911 89.6413Z" fill="#37474F"/>
<path d="M75.5926 123.201H39.0066V118.725C39.0066 114.584 42.6291 111.239 47.0758 111.239H67.5234C71.9872 111.239 75.5926 114.6 75.5926 118.725V123.201Z" fill="#EBEFF2"/>
<path d="M75.5926 123.997H39.0066C38.5259 123.997 38.1482 123.647 38.1482 123.201V118.725C38.1482 114.154 42.1485 110.443 47.0758 110.443H67.5235C72.4508 110.443 76.4511 114.154 76.4511 118.725V123.201C76.4511 123.647 76.0734 123.997 75.5926 123.997ZM39.8479 122.405H74.7171V118.725C74.7171 115.03 71.4722 112.036 67.5063 112.036H47.0586C43.0755 112.036 39.8479 115.046 39.8479 118.725V122.405Z" fill="#37474F"/>
<path d="M48.1231 119.952H46.4062V122.755H48.1231V119.952Z" fill="#37474F"/>
<path d="M68.5538 119.952H66.8369V122.755H68.5538V119.952Z" fill="#37474F"/>
<path d="M104.453 87.5707C104.161 87.5707 103.886 87.4433 103.715 87.1885C103.474 86.8062 103.594 86.3284 104.006 86.0895C107.629 84.0348 109.809 80.451 109.809 76.5169C109.809 70.3369 104.401 65.3197 97.74 65.3197C93.7226 65.3197 89.9798 67.1673 87.7308 70.2573C87.4732 70.6236 86.941 70.7192 86.5461 70.4644C86.1513 70.2254 86.0482 69.7317 86.3229 69.3653C88.8982 65.8294 93.1732 63.7269 97.7572 63.7269C105.363 63.7269 111.543 69.4609 111.543 76.5169C111.543 81.0085 109.071 85.1019 104.934 87.4433C104.796 87.523 104.642 87.5548 104.487 87.5548L104.453 87.5707Z" fill="#37474F"/>
<path d="M113.878 93.3525C113.655 93.3525 113.415 93.2728 113.243 93.0976C112.917 92.7791 112.934 92.2694 113.277 91.9667C117.879 87.9848 120.505 82.3464 120.505 76.5168C120.505 67.0717 113.655 58.6937 103.852 56.1453C103.388 56.0338 103.131 55.5878 103.251 55.1578C103.371 54.7277 103.852 54.4888 104.316 54.6003C114.857 57.3239 122.222 66.339 122.222 76.5009C122.222 82.7764 119.389 88.829 114.445 93.1135C114.273 93.2569 114.067 93.3206 113.861 93.3206L113.878 93.3525Z" fill="#37474F"/>
<path d="M85.7393 58.4071C85.4475 58.4071 85.1556 58.2637 85.0011 58.0089C84.7607 57.6266 84.8981 57.1488 85.3101 56.9258C89.0528 54.8711 93.345 53.804 97.7229 53.804C98.2036 53.804 98.5814 54.1544 98.5814 54.6003C98.5814 55.0463 98.2036 55.3967 97.7229 55.3967C93.654 55.3967 89.6709 56.4002 86.1857 58.3115C86.0484 58.3911 85.8938 58.423 85.7565 58.423L85.7393 58.4071Z" fill="#37474F"/>
<path d="M76.0906 68.4255C75.9704 68.4255 75.8503 68.4096 75.7473 68.3618C75.318 68.1866 75.112 67.7088 75.318 67.3106C76.4168 65.017 77.9105 62.9305 79.7475 61.0829C80.0737 60.7643 80.6059 60.7325 80.9665 61.0351C81.3098 61.3377 81.327 61.8315 81.018 62.1659C79.3011 63.8861 77.9105 65.8293 76.8975 67.9636C76.7602 68.2663 76.434 68.4415 76.1078 68.4415L76.0906 68.4255Z" fill="#37474F"/>
<path d="M104.092 109.647C103.68 109.647 103.32 109.376 103.251 108.994C103.165 108.563 103.474 108.149 103.938 108.07C105.878 107.751 107.784 107.257 109.621 106.636C110.067 106.493 110.565 106.7 110.719 107.114C110.891 107.528 110.651 107.99 110.204 108.133C108.264 108.786 106.256 109.296 104.23 109.647C104.178 109.647 104.127 109.647 104.075 109.647H104.092Z" fill="#37474F"/>
<path d="M115.904 105.521C115.612 105.521 115.321 105.378 115.166 105.139C114.926 104.757 115.063 104.279 115.458 104.04C125.828 98.2741 132.283 87.73 132.283 76.5169C132.283 58.8371 116.78 44.4543 97.7229 44.4543C95.1992 44.4543 92.6926 44.7092 90.2546 45.2029C89.7911 45.2985 89.3275 45.0277 89.2245 44.5977C89.1215 44.1676 89.4134 43.7376 89.8769 43.642C92.435 43.1164 95.0618 42.8616 97.7058 42.8616C117.707 42.8616 133.983 57.9611 133.983 76.5169C133.983 88.2875 127.218 99.3413 116.334 105.394C116.196 105.473 116.042 105.505 115.887 105.505L115.904 105.521Z" fill="#37474F"/>
<path d="M73.5668 53.2942C73.3436 53.2942 73.1032 53.2146 72.9316 53.0394C72.6054 52.7208 72.6225 52.2111 72.9659 51.9085C76.0734 49.2167 79.6444 47.0665 83.5417 45.5215C83.9709 45.3463 84.4859 45.5374 84.6748 45.9515C84.8637 46.3497 84.6576 46.8276 84.2112 47.0028C80.4857 48.4681 77.1035 50.5069 74.1334 53.0872C73.9617 53.2305 73.7556 53.2942 73.5496 53.2942H73.5668Z" fill="#37474F"/>
<path d="M76.9491 56.6391C76.9491 57.5629 76.1422 58.2956 75.1636 58.2956H43.9857L38.7664 66.5939L33.3412 58.2956H29.8217C28.8259 58.2956 28.0361 57.547 28.0361 56.6391V29.9123C28.0361 28.9885 28.8431 28.2559 29.8217 28.2559H75.1636C76.1594 28.2559 76.9491 29.0045 76.9491 29.9123V56.6391Z" fill="white"/>
<path d="M38.7665 67.3902C38.4747 67.3902 38.1828 67.2469 38.0283 67.008L32.8434 59.1078H29.8046C28.3453 59.1078 27.1606 58.0088 27.1606 56.6549V29.9282C27.1606 28.5744 28.3453 27.4753 29.8046 27.4753H75.1465C76.6059 27.4753 77.7905 28.5744 77.7905 29.9282V56.6549C77.7905 58.0088 76.6059 59.1078 75.1465 59.1078H44.4665L39.4876 67.008C39.3331 67.2469 39.0584 67.4062 38.7494 67.4062L38.7665 67.3902ZM29.8218 29.0522C29.3067 29.0522 28.8947 29.4345 28.8947 29.9123V56.639C28.8947 57.1169 29.3067 57.4991 29.8218 57.4991H33.3413C33.6332 57.4991 33.925 57.6425 34.0795 57.8814L38.7665 65.0329L43.2647 57.8973C43.4192 57.6584 43.6939 57.4991 44.0029 57.4991H75.1809C75.6959 57.4991 76.108 57.1169 76.108 56.639V29.9123C76.108 29.4345 75.6959 29.0522 75.1809 29.0522H29.8389H29.8218Z" fill="#37474F"/>
<path d="M65.206 39.9468H40.4834C40.0027 39.9468 39.625 39.5964 39.625 39.1504C39.625 38.7044 40.0027 38.354 40.4834 38.354H65.206C65.6868 38.354 66.0645 38.7044 66.0645 39.1504C66.0645 39.5964 65.6868 39.9468 65.206 39.9468Z" fill="#37474F"/>
<path d="M65.206 48.707H40.4834C40.0027 48.707 39.625 48.3566 39.625 47.9106C39.625 47.4647 40.0027 47.1143 40.4834 47.1143H65.206C65.6868 47.1143 66.0645 47.4647 66.0645 47.9106C66.0645 48.3566 65.6868 48.707 65.206 48.707Z" fill="#37474F"/>
</g>
<defs>
<clipPath id="clip0_312_497">
<rect width="134" height="134" fill="white"/>
</clipPath>
</defs>
</svg>
