<svg width="134" height="134" viewBox="0 0 134 134" fill="none" xmlns="http://www.w3.org/2000/svg">
<g clip-path="url(#clip0_312_593)">
<path d="M104.695 56.6482C109.311 29.9811 89.7676 4.88885 61.0437 0.603152C32.3197 -3.68255 5.29212 14.4612 0.67586 41.1283C-3.9404 67.7954 15.6027 92.8876 44.3267 97.1733C73.0507 101.459 100.078 83.3153 104.695 56.6482Z" fill="#FEC107"/>
<path d="M47.509 10.347H9.8877V56.3251H47.509V10.347Z" fill="#EBEFF2"/>
<path d="M47.5089 57.1248H9.88766C9.40534 57.1248 9.02637 56.7729 9.02637 56.3251V10.3471C9.02637 9.89932 9.40534 9.54749 9.88766 9.54749H47.5089C47.9913 9.54749 48.3702 9.89932 48.3702 10.3471V56.3251C48.3702 56.7729 47.9913 57.1248 47.5089 57.1248ZM10.749 55.5255H46.6477V11.1467H10.749V55.5255Z" fill="#37474F"/>
<path d="M53.09 15.1447H15.4688V61.1227H53.09V15.1447Z" fill="white"/>
<path d="M53.09 61.9224H15.4687C14.9864 61.9224 14.6074 61.5705 14.6074 61.1227V15.1447C14.6074 14.6969 14.9864 14.3451 15.4687 14.3451H53.09C53.5723 14.3451 53.9513 14.6969 53.9513 15.1447V61.1227C53.9513 61.5705 53.5723 61.9224 53.09 61.9224ZM16.33 60.3231H52.2287V15.9443H16.33V60.3231Z" fill="#37474F"/>
<path d="M127.592 65.2328H47.6639C44.6005 65.2328 42.1172 67.5383 42.1172 70.3823V117.512C42.1172 120.356 44.6005 122.661 47.6639 122.661H127.592C130.655 122.661 133.139 120.356 133.139 117.512V70.3823C133.139 67.5383 130.655 65.2328 127.592 65.2328Z" fill="white"/>
<path d="M127.592 123.477H47.6468C44.1155 123.477 41.2388 120.806 41.2388 117.528V70.3824C41.2388 67.1039 44.1155 64.4332 47.6468 64.4332H127.592C131.123 64.4332 134 67.1039 134 70.3824V117.528C134 120.806 131.123 123.477 127.592 123.477ZM47.6468 66.0325C45.0629 66.0325 42.9614 67.9835 42.9614 70.3824V117.528C42.9614 119.927 45.0629 121.878 47.6468 121.878H127.592C130.176 121.878 132.277 119.927 132.277 117.528V70.3824C132.277 67.9835 130.176 66.0325 127.592 66.0325H47.6468Z" fill="#37474F"/>
<path d="M133.139 115.481H42.1174C41.6351 115.481 41.2561 115.129 41.2561 114.681C41.2561 114.233 41.6351 113.882 42.1174 113.882H133.139C133.621 113.882 134 114.233 134 114.681C134 115.129 133.621 115.481 133.139 115.481Z" fill="#37474F"/>
<path d="M42.1172 117C42.1172 120.135 44.5977 122.678 47.6639 122.678H127.609C130.675 122.678 133.156 120.135 133.156 117V113.866H42.1172V117Z" fill="#EBEFF2"/>
<path d="M127.592 123.477H47.6468C44.1155 123.477 41.2388 120.566 41.2388 117V113.866C41.2388 113.418 41.6177 113.066 42.1001 113.066H133.122C133.604 113.066 133.983 113.418 133.983 113.866V117C133.983 120.566 131.106 123.477 127.575 123.477H127.592ZM42.9786 114.665V117C42.9786 119.687 45.0801 121.878 47.664 121.878H127.609C130.193 121.878 132.295 119.687 132.295 117V114.665H42.9786Z" fill="#37474F"/>
<path d="M88.3516 119.479H86.8874C86.4051 119.479 86.0261 119.127 86.0261 118.679C86.0261 118.231 86.4051 117.88 86.8874 117.88H88.3516C88.8339 117.88 89.2129 118.231 89.2129 118.679C89.2129 119.127 88.8339 119.479 88.3516 119.479Z" fill="#37474F"/>
<path d="M109.97 52.6468C113.708 63.7295 107.059 75.5159 95.1215 78.9862C83.184 82.4566 70.4885 76.2835 66.7505 65.2008C63.0125 54.1181 69.6616 42.3317 81.5992 38.8614C93.5367 35.391 106.232 41.5641 109.97 52.6468Z" fill="#EBEFF2"/>
<path d="M88.3688 80.7614C78.3606 80.7614 69.0586 74.7802 65.9235 65.4567C64.0459 59.8913 64.6144 53.9902 67.5255 48.8246C70.4367 43.6591 75.3461 39.8529 81.3235 38.1097C87.3181 36.3666 93.6744 36.8943 99.2384 39.597C104.802 42.2997 108.902 46.8576 110.78 52.4069C112.657 57.9723 112.089 63.8734 109.178 69.039C106.267 74.2045 101.357 78.0107 95.3798 79.7539C93.0543 80.4255 90.6943 80.7454 88.3688 80.7454V80.7614ZM88.3516 38.7015C86.1984 38.7015 84.0107 39.0053 81.8575 39.629C76.3107 41.2443 71.7631 44.7626 69.0586 49.5443C66.3542 54.326 65.8374 59.8114 67.5772 64.9609C69.317 70.1105 73.1067 74.3324 78.2573 76.8433C83.4078 79.3381 89.299 79.8338 94.863 78.2186C100.41 76.6034 104.957 73.085 107.662 68.3033C110.366 63.5216 110.883 58.0362 109.143 52.8867C106.232 44.2508 97.6191 38.7015 88.3516 38.7015Z" fill="#37474F"/>
<path d="M110.091 53.0946L88.3516 59.4116L103.321 74.6843C109.694 69.4548 112.588 61.1228 110.091 53.0946Z" fill="white"/>
<path d="M103.321 75.4839C103.08 75.4839 102.856 75.388 102.683 75.228L87.7142 59.9553C87.5247 59.7474 87.4385 59.4756 87.5247 59.2037C87.5936 58.9318 87.8175 58.7399 88.0931 58.6439L109.832 52.327C110.056 52.263 110.297 52.279 110.504 52.3909C110.711 52.4869 110.866 52.6628 110.917 52.8707C113.432 60.9309 110.676 69.7267 103.889 75.292C103.717 75.4199 103.528 75.4839 103.321 75.4839ZM89.9018 59.7954L103.372 73.5488C108.988 68.5752 111.331 61.0908 109.488 54.1021L89.9018 59.7954Z" fill="#37474F"/>
<path d="M110.091 53.0786C110.039 52.9347 110.022 52.7908 109.97 52.6468C108.247 47.5133 104.578 43.4512 99.9618 40.8925L88.3171 59.3956L110.091 53.0626V53.0786Z" fill="white"/>
<path d="M88.3 60.2112C88.0416 60.2112 87.8004 60.0993 87.6282 59.9074C87.4042 59.6515 87.3698 59.2837 87.5593 59.0118L99.204 40.5086C99.3245 40.3167 99.514 40.1888 99.738 40.1408C99.9619 40.0928 100.203 40.1248 100.393 40.2208C105.371 42.9715 109.057 47.3054 110.78 52.423C110.814 52.5189 110.831 52.6149 110.866 52.7108L110.918 52.8707C111.055 53.2865 110.797 53.7343 110.349 53.8623L88.5756 60.1952C88.5756 60.1952 88.4033 60.2272 88.3172 60.2272L88.3 60.2112ZM100.255 42.0119L90.1776 58.0203L109.04 52.5349C107.49 48.201 104.406 44.5067 100.272 41.9959L100.255 42.0119Z" fill="#37474F"/>
<path d="M122.08 107.469H53.2451C52.7628 107.469 52.3838 107.117 52.3838 106.669C52.3838 106.221 52.7628 105.869 53.2451 105.869H122.08C122.562 105.869 122.941 106.221 122.941 106.669C122.941 107.117 122.562 107.469 122.08 107.469Z" fill="#37474F"/>
<path d="M122.062 79.9617H112.743V102.943H122.062V79.9617Z" fill="#EBEFF2"/>
<path d="M122.08 103.742H112.76C112.278 103.742 111.899 103.391 111.899 102.943V79.9617C111.899 79.5139 112.278 79.1621 112.76 79.1621H122.08C122.562 79.1621 122.941 79.5139 122.941 79.9617V102.943C122.941 103.391 122.562 103.742 122.08 103.742ZM113.605 102.143H121.201V80.7613H113.605V102.143Z" fill="#37474F"/>
<path d="M107.197 103.742H97.8774C97.3951 103.742 97.0161 103.391 97.0161 102.943V84.2797C97.0161 83.8319 97.3951 83.4801 97.8774 83.4801H107.197C107.679 83.4801 108.058 83.8319 108.058 84.2797V102.943C108.058 103.391 107.679 103.742 107.197 103.742ZM98.7387 102.143H106.335V85.0793H98.7387V102.143Z" fill="#37474F"/>
<path d="M62.5643 103.742H53.2451C52.7628 103.742 52.3838 103.391 52.3838 102.943V93.955C52.3838 93.5072 52.7628 93.1554 53.2451 93.1554H62.5643C63.0466 93.1554 63.4256 93.5072 63.4256 93.955V102.943C63.4256 103.391 63.0466 103.742 62.5643 103.742ZM54.1064 102.143H61.703V94.7546H54.1064V102.143Z" fill="#37474F"/>
<path d="M92.3306 103.742H83.0114C82.5291 103.742 82.1501 103.391 82.1501 102.943V94.8986C82.1501 94.4508 82.5291 94.099 83.0114 94.099H92.3306C92.813 94.099 93.1919 94.4508 93.1919 94.8986V102.943C93.1919 103.391 92.813 103.742 92.3306 103.742ZM83.8555 102.143H91.4521V95.6982H83.8555V102.143Z" fill="#37474F"/>
<path d="M77.4476 103.742H68.1284C67.6461 103.742 67.2671 103.391 67.2671 102.943V89.877C67.2671 89.4292 67.6461 89.0774 68.1284 89.0774H77.4476C77.9299 89.0774 78.3089 89.4292 78.3089 89.877V102.943C78.3089 103.391 77.9299 103.742 77.4476 103.742ZM68.9897 102.143H76.5863V90.6766H68.9897V102.143Z" fill="#37474F"/>
<path d="M98.3425 134H75.4321C74.9498 134 74.5708 133.648 74.5708 133.2C74.5708 132.753 74.9498 132.401 75.4321 132.401H98.3425C98.8248 132.401 99.2038 132.753 99.2038 133.2C99.2038 133.648 98.8248 134 98.3425 134Z" fill="#37474F"/>
<path d="M93.9499 133.2H79.8247L81.4095 122.677H92.3651L93.9499 133.2Z" fill="#EBEFF2"/>
<path d="M93.95 134H79.842C79.6008 134 79.3597 133.904 79.1874 133.728C79.0324 133.552 78.9462 133.328 78.9807 133.088L80.5655 122.565C80.6171 122.166 80.9961 121.878 81.4268 121.878H92.3652C92.7958 121.878 93.1576 122.166 93.2265 122.565L94.8113 133.088C94.8457 133.312 94.7768 133.552 94.6045 133.728C94.4323 133.904 94.2084 134 93.95 134ZM80.8239 132.401H92.9509L91.6072 123.477H82.1675L80.8239 132.401Z" fill="#37474F"/>
<path d="M44.8045 29.5059H23.7717C23.2894 29.5059 22.9104 29.154 22.9104 28.7062C22.9104 28.2584 23.2894 27.9066 23.7717 27.9066H44.8045C45.2868 27.9066 45.6658 28.2584 45.6658 28.7062C45.6658 29.154 45.2868 29.5059 44.8045 29.5059Z" fill="#37474F"/>
<path d="M44.8045 37.5021H23.7717C23.2894 37.5021 22.9104 37.1502 22.9104 36.7025C22.9104 36.2547 23.2894 35.9028 23.7717 35.9028H44.8045C45.2868 35.9028 45.6658 36.2547 45.6658 36.7025C45.6658 37.1502 45.2868 37.5021 44.8045 37.5021Z" fill="#37474F"/>
<path d="M44.8045 45.4983H23.7717C23.2894 45.4983 22.9104 45.1465 22.9104 44.6987C22.9104 44.2509 23.2894 43.899 23.7717 43.899H44.8045C45.2868 43.899 45.6658 44.2509 45.6658 44.6987C45.6658 45.1465 45.2868 45.4983 44.8045 45.4983Z" fill="#37474F"/>
<path d="M82.0295 27.299C81.5472 27.299 81.1682 26.9471 81.1682 26.4993V19.5267C81.1682 19.0789 81.5472 18.7271 82.0295 18.7271C82.5118 18.7271 82.8908 19.0789 82.8908 19.5267V26.4993C82.8908 26.9471 82.5118 27.299 82.0295 27.299Z" fill="#37474F"/>
<path d="M85.7849 23.8126H78.2744C77.7921 23.8126 77.4131 23.4608 77.4131 23.013C77.4131 22.5652 77.7921 22.2134 78.2744 22.2134H85.7849C86.2672 22.2134 86.6462 22.5652 86.6462 23.013C86.6462 23.4608 86.2672 23.8126 85.7849 23.8126Z" fill="#37474F"/>
<path d="M23.7544 78.9862C23.272 78.9862 22.8931 78.6344 22.8931 78.1866V71.2139C22.8931 70.7661 23.272 70.4143 23.7544 70.4143C24.2367 70.4143 24.6157 70.7661 24.6157 71.2139V78.1866C24.6157 78.6344 24.2367 78.9862 23.7544 78.9862Z" fill="#37474F"/>
<path d="M27.5097 75.4839H19.9992C19.5169 75.4839 19.1379 75.132 19.1379 74.6843C19.1379 74.2365 19.5169 73.8846 19.9992 73.8846H27.5097C27.992 73.8846 28.371 74.2365 28.371 74.6843C28.371 75.132 27.992 75.4839 27.5097 75.4839Z" fill="#37474F"/>
<path d="M15.4687 103.215C14.9864 103.215 14.6074 102.863 14.6074 102.415V95.4424C14.6074 94.9947 14.9864 94.6428 15.4687 94.6428C15.951 94.6428 16.33 94.9947 16.33 95.4424V102.415C16.33 102.863 15.951 103.215 15.4687 103.215Z" fill="#37474F"/>
<path d="M19.2241 99.7284H11.7136C11.2313 99.7284 10.8523 99.3766 10.8523 98.9288C10.8523 98.481 11.2313 98.1292 11.7136 98.1292H19.2241C19.7064 98.1292 20.0854 98.481 20.0854 98.9288C20.0854 99.3766 19.7064 99.7284 19.2241 99.7284Z" fill="#37474F"/>
</g>
<defs>
<clipPath id="clip0_312_593">
<rect width="134" height="134" fill="white"/>
</clipPath>
</defs>
</svg>
