<svg width="134" height="134" viewBox="0 0 134 134" fill="none" xmlns="http://www.w3.org/2000/svg">
<g clip-path="url(#clip0_312_680)">
<path d="M115.866 58.7717C121.851 32.3661 103.377 6.50783 74.6014 1.01548C45.8263 -4.47687 17.6474 12.4766 11.6622 38.8821C5.67695 65.2876 24.1518 91.1459 52.9269 96.6383C81.7021 102.131 109.881 85.1772 115.866 58.7717Z" fill="#FEC107"/>
<path d="M73.5085 90.2276L90.8415 68.8445L117.572 102.476C112.577 110.397 105.094 116.833 96.1319 120.905C95.8535 121.033 95.5576 121.161 95.2792 121.288L73.5259 90.2276H73.5085Z" fill="white"/>
<path d="M95.2792 122.103C94.9833 122.103 94.7049 121.975 94.5483 121.735L72.795 90.6747C72.6036 90.3872 72.6036 90.0359 72.8298 89.7644L90.1628 68.3813C90.3368 68.1737 90.6153 68.014 90.8589 68.0619C91.1373 68.0619 91.3984 68.1897 91.555 68.3973L118.285 102.029C118.494 102.285 118.512 102.62 118.338 102.907C113.221 111.02 105.669 117.503 96.5322 121.656L95.662 122.039C95.5402 122.087 95.4184 122.119 95.2966 122.119L95.2792 122.103ZM74.5701 90.2595L95.5924 120.266L95.749 120.202C104.416 116.258 111.603 110.157 116.545 102.524L90.8415 70.1858L74.5701 90.2595Z" fill="#37474F"/>
<path d="M132.956 72.6292C132.521 72.6292 132.138 72.3258 132.086 71.9265C130.52 59.7418 124.69 48.7069 115.223 40.0195C114.875 39.7001 114.875 39.2051 115.223 38.8857C115.571 38.5663 116.11 38.5663 116.458 38.8857C126.204 47.8286 132.208 59.1988 133.826 71.7349C133.878 72.1661 133.548 72.5653 133.06 72.6132C133.026 72.6132 132.991 72.6132 132.956 72.6132V72.6292Z" fill="#37474F"/>
<path d="M132.956 72.6292C132.521 72.6292 132.138 72.3258 132.086 71.9265C130.52 59.7418 124.69 48.7069 115.223 40.0195C114.875 39.7001 114.875 39.2051 115.223 38.8857C115.571 38.5663 116.11 38.5663 116.458 38.8857C126.204 47.8286 132.208 59.1988 133.826 71.7349C133.878 72.1661 133.548 72.5653 133.06 72.6132C133.026 72.6132 132.991 72.6132 132.956 72.6132V72.6292Z" fill="#37474F"/>
<path d="M132.956 72.6292C132.521 72.6292 132.138 72.3258 132.086 71.9265C130.52 59.7418 124.69 48.7069 115.223 40.0195C114.875 39.7001 114.875 39.2051 115.223 38.8857C115.571 38.5663 116.11 38.5663 116.458 38.8857C126.204 47.8286 132.208 59.1988 133.826 71.7349C133.878 72.1661 133.548 72.5653 133.06 72.6132C133.026 72.6132 132.991 72.6132 132.956 72.6132V72.6292Z" fill="#37474F"/>
<path d="M110.837 121.688C110.576 121.688 110.332 121.592 110.158 121.384C109.863 121.033 109.915 120.538 110.298 120.266C111.185 119.612 112.073 118.941 112.908 118.238C113.256 117.951 113.813 117.967 114.144 118.302C114.457 118.621 114.44 119.132 114.074 119.436C113.204 120.154 112.299 120.857 111.377 121.528C111.22 121.64 111.029 121.704 110.837 121.704V121.688ZM117.224 116.274C117.015 116.274 116.789 116.21 116.632 116.066C116.284 115.763 116.267 115.252 116.597 114.932C121.314 110.301 125.09 105.015 127.787 99.2025C127.979 98.8033 128.483 98.6116 128.936 98.7873C129.371 98.963 129.58 99.4261 129.388 99.8413C126.604 105.83 122.723 111.275 117.868 116.034C117.694 116.21 117.468 116.29 117.224 116.29V116.274ZM129.858 97.3341C129.754 97.3341 129.667 97.3341 129.562 97.2862C129.11 97.1424 128.884 96.6793 129.04 96.2641C129.615 94.7949 130.137 93.2778 130.572 91.7607C130.694 91.3295 131.163 91.074 131.633 91.1858C132.103 91.2976 132.382 91.7288 132.26 92.16C131.807 93.725 131.285 95.29 130.694 96.8071C130.572 97.1265 130.224 97.3341 129.876 97.3341H129.858ZM133.13 73.7631C132.677 73.7631 132.312 73.4437 132.26 73.0285C132.155 71.9745 132.016 70.9365 131.859 69.8985C131.79 69.4673 132.121 69.0521 132.59 68.9882C133.06 68.9243 133.513 69.2278 133.582 69.6589C133.756 70.7129 133.896 71.7829 134 72.8688C134.035 73.316 133.687 73.6992 133.217 73.7312C133.182 73.7312 133.165 73.7312 133.13 73.7312V73.7631ZM131.72 65.8901C131.32 65.8901 130.972 65.6506 130.868 65.2833C129.267 59.1351 126.517 53.3541 122.688 48.0682C122.427 47.7009 122.532 47.2058 122.932 46.9663C123.332 46.7268 123.872 46.8226 124.133 47.1899C128.066 52.6355 130.902 58.5921 132.556 64.916C132.66 65.3472 132.382 65.7784 131.912 65.8742C131.842 65.8742 131.772 65.8901 131.703 65.8901H131.72ZM121.418 45.8165C121.157 45.8165 120.896 45.7047 120.722 45.4971C119.695 44.2515 118.599 43.0218 117.45 41.8561C117.137 41.5207 117.154 41.0256 117.52 40.7222C117.885 40.4348 118.425 40.4507 118.755 40.7861C119.939 41.9838 121.052 43.2454 122.114 44.5389C122.41 44.8903 122.323 45.3853 121.94 45.6568C121.783 45.7686 121.592 45.8165 121.418 45.8165Z" fill="#37474F"/>
<path d="M99.7691 127.66C91.8509 131.221 82.9408 133.202 73.526 133.202C53.1823 133.202 35.2055 123.891 24.3984 109.647L57.1153 66.1616L99.7691 127.644V127.66Z" fill="#EBEFF2"/>
<path d="M73.526 134C53.687 134 35.0488 125.073 23.6849 110.11C23.4761 109.838 23.4761 109.471 23.6849 109.199L56.4018 65.7145C56.5759 65.4909 56.8369 65.3791 57.1327 65.3632C57.4286 65.3632 57.6896 65.5069 57.8462 65.7305L100.5 127.213C100.639 127.405 100.674 127.644 100.604 127.852C100.535 128.075 100.378 128.251 100.152 128.347C91.8161 132.084 82.8712 133.984 73.526 133.984V134ZM25.46 109.647C36.5281 123.907 54.4527 132.403 73.526 132.403C82.2795 132.403 90.6675 130.694 98.5161 127.325L57.0979 67.6149L25.4774 109.647H25.46Z" fill="#37474F"/>
<path d="M24.1372 48.5792C23.9632 48.5792 23.7891 48.5313 23.6499 48.4355C23.2497 48.18 23.1452 47.6849 23.4237 47.3176C24.6941 45.6249 26.0689 43.98 27.5307 42.415C27.8439 42.0796 28.3834 42.0477 28.7663 42.3352C29.1317 42.6226 29.1665 43.1336 28.8533 43.469C27.4263 44.9861 26.0863 46.583 24.8507 48.2279C24.6767 48.4515 24.4156 48.5792 24.1372 48.5792Z" fill="#37474F"/>
<path d="M14.5485 78.8095C14.5485 70.2339 16.6716 62.0255 20.8656 54.4241C21.0744 54.0248 20.9178 53.5457 20.4827 53.3541C20.0477 53.1625 19.5256 53.3062 19.3168 53.7054C15.4534 60.716 13.3129 68.2217 12.8952 76.0627C12.8778 76.1266 12.843 76.1745 12.843 76.2544C12.5472 83.6802 13.835 90.9463 16.6542 97.8611C16.7934 98.1805 17.124 98.3881 17.4721 98.3881C17.5765 98.3881 17.6809 98.3881 17.7853 98.3402C18.2378 98.1805 18.464 97.7173 18.29 97.3181C15.8711 91.3775 14.6181 85.1653 14.5485 78.8414V78.8095Z" fill="#37474F"/>
<path d="M74.1002 30.4697H92.6688L85.7252 41.4088L92.6688 52.3639H68.1833V46.4552L74.1002 30.4697Z" fill="white"/>
<path d="M92.6688 53.1624H68.1834C67.6961 53.1624 67.3132 52.8111 67.3132 52.3639V46.4712C67.3132 46.024 67.6961 45.6727 68.1834 45.6727C68.6706 45.6727 69.0535 46.024 69.0535 46.4712V51.5655H91.1548L84.9769 41.8241C84.8203 41.5686 84.8203 41.2651 84.9769 41.0256L91.1548 31.2842H74.1002C73.613 31.2842 73.2301 30.9329 73.2301 30.4857C73.2301 30.0386 73.613 29.6873 74.1002 29.6873H92.6688C92.9821 29.6873 93.2605 29.847 93.4171 30.0865C93.5738 30.326 93.5738 30.6454 93.4171 30.885L86.7345 41.4248L93.4171 51.9647C93.5738 52.2042 93.5738 52.5236 93.4171 52.7632C93.2605 53.0187 92.9821 53.1624 92.6688 53.1624Z" fill="#37474F"/>
<path d="M57.272 66.7365C56.7847 66.7365 56.4019 66.3852 56.4019 65.9381V22.6288C56.4019 22.1817 56.7847 21.8303 57.272 21.8303C57.7593 21.8303 58.1421 22.1817 58.1421 22.6288V65.954C58.1421 66.4012 57.7593 66.7525 57.272 66.7525V66.7365Z" fill="#37474F"/>
<path d="M73.526 126.702C44.951 126.702 21.7185 105.367 21.7185 79.1608C21.7185 78.7136 22.1014 78.3623 22.5886 78.3623C23.0759 78.3623 23.4588 78.7136 23.4588 79.1608C23.4588 104.488 45.9255 125.105 73.526 125.105C74.0133 125.105 74.3962 125.456 74.3962 125.903C74.3962 126.351 74.0133 126.702 73.526 126.702Z" fill="#37474F"/>
<path d="M73.6652 24.9283H57.272V45.5929H73.6652V24.9283Z" fill="white"/>
<path d="M73.6652 46.4073H57.272C56.7847 46.4073 56.4019 46.056 56.4019 45.6089V24.9443C56.4019 24.4972 56.7847 24.1459 57.272 24.1459H73.6652C74.1525 24.1459 74.5354 24.4972 74.5354 24.9443V45.6089C74.5354 46.056 74.1525 46.4073 73.6652 46.4073ZM58.1421 44.8104H72.7951V25.7428H58.1421V44.8104Z" fill="#37474F"/>
<path d="M95.2792 122.103C94.9486 122.103 94.6353 121.927 94.4961 121.64C94.2873 121.24 94.4787 120.761 94.9138 120.57L95.7491 120.202C112.873 112.425 123.524 96.6953 123.524 79.1608C123.524 78.7136 123.907 78.3623 124.394 78.3623C124.881 78.3623 125.264 78.7136 125.264 79.1608C125.264 97.3021 114.248 113.575 96.5148 121.624L95.6447 122.007C95.5229 122.055 95.401 122.087 95.2792 122.087V122.103Z" fill="#37474F"/>
<path d="M70.9157 86.0756L57.1154 66.1776L39.5388 89.525L51.39 84.7661L57.2721 92.6071L62.0926 84.2231L70.9157 86.0756Z" fill="white"/>
<path d="M57.2721 93.4056C56.9936 93.4056 56.7152 93.2778 56.5586 93.0542L51.0767 85.7402L39.8869 90.2436C39.5388 90.3873 39.1212 90.2915 38.8601 90.02C38.6165 89.7485 38.5991 89.3493 38.8079 89.0619L56.3845 65.6985C56.5586 65.4749 56.8196 65.3631 57.1154 65.3472C57.4113 65.3472 57.6723 65.4909 57.8289 65.7145L71.6292 85.6125C71.8206 85.8839 71.8032 86.2353 71.6118 86.5067C71.403 86.7782 71.0549 86.906 70.7069 86.8261L62.5277 85.1174L58.0204 92.9584C57.8812 93.198 57.6027 93.3736 57.3069 93.3896C57.3069 93.3896 57.2721 93.3896 57.2547 93.3896L57.2721 93.4056ZM51.39 83.9676C51.6684 83.9676 51.9469 84.0954 52.1035 84.3189L57.1851 91.09L61.3269 83.8718C61.5183 83.5524 61.9012 83.3767 62.284 83.4725L69.0536 84.8779L57.0806 67.6308L41.9926 87.6885L51.0245 84.0474C51.1464 83.9995 51.2508 83.9836 51.3726 83.9836L51.39 83.9676Z" fill="#37474F"/>
<path d="M68.1835 53.1625C68.0095 53.1625 67.818 53.1146 67.6614 53.0028C67.2786 52.7313 67.1915 52.2363 67.4874 51.8849L72.9692 45.1298C73.2476 44.7785 73.8045 44.6987 74.1874 44.9701C74.5702 45.2256 74.6573 45.7367 74.3614 46.088L68.8796 52.8431C68.7056 53.0507 68.4445 53.1625 68.1835 53.1625Z" fill="#37474F"/>
<path d="M32.2295 33.999C36.9804 33.999 40.809 30.4697 40.809 26.126C40.809 21.7823 36.963 18.253 32.2295 18.253C31.1506 18.253 30.1238 18.4447 29.1841 18.7641C28.1747 14.4683 24.0329 11.2424 19.0558 11.2424C14.0786 11.2424 10.25 14.2128 9.06667 18.253C4.50719 18.4447 0.887451 21.8941 0.887451 26.11C0.887451 30.326 4.52459 33.7754 9.08407 33.967H32.2469L32.2295 33.999Z" fill="white"/>
<path d="M32.2296 34.7975H9.04935C3.95039 34.5579 0 30.7572 0 26.126C0 21.4949 3.63714 17.9976 8.38805 17.5185C9.90208 13.3345 14.2005 10.46 19.0384 10.46C23.8764 10.46 28.3488 13.4782 29.7758 17.758C30.5764 17.5664 31.3943 17.4546 32.2122 17.4546C37.433 17.4546 41.6792 21.3512 41.6792 26.126C41.6792 30.9009 37.433 34.7975 32.2122 34.7975H32.2296ZM19.0558 12.0409C14.7922 12.0409 11.0158 14.6919 9.90208 18.4766C9.79766 18.812 9.48442 19.0515 9.10156 19.0675C4.97714 19.2432 1.74026 22.3413 1.74026 26.126C1.74026 29.9108 4.97714 33.0089 9.10156 33.1845H32.2296C36.4932 33.2005 39.939 30.0226 39.939 26.126C39.939 22.2295 36.4758 19.0515 32.2122 19.0515C31.2899 19.0515 30.3675 19.2112 29.48 19.5147C29.2364 19.5945 28.9753 19.5785 28.7491 19.4668C28.5229 19.355 28.3662 19.1633 28.314 18.9238C27.3743 14.9314 23.4761 12.0409 19.021 12.0409H19.0558Z" fill="#37474F"/>
</g>
<defs>
<clipPath id="clip0_312_680">
<rect width="134" height="134" fill="white"/>
</clipPath>
</defs>
</svg>
