<svg width="122" height="134" viewBox="0 0 122 134" fill="none" xmlns="http://www.w3.org/2000/svg">
<g clip-path="url(#clip0_312_647)">
<path d="M107.613 56.5251C112.043 29.9157 93.3042 4.88018 65.7586 0.606753C38.2129 -3.66667 12.2916 14.4402 7.86156 41.0496C3.43156 67.659 22.1705 92.6945 49.7161 96.9679C77.2618 101.241 103.183 83.1345 107.613 56.5251Z" fill="#FEC107"/>
<path d="M93.3487 58.215C93.6625 56.7788 93.8938 55.3107 94.0094 53.8425L88.9381 51.8637C89.0042 49.8211 88.872 47.7306 88.4921 45.656L93.3321 43.4698C93.0018 41.9697 92.5723 40.4856 92.0271 39.0175C92.0271 39.0175 92.0271 39.0175 92.0271 39.0015L86.5429 39.193C85.7665 37.3897 84.8249 35.6982 83.7512 34.1343L87.2532 30.2246C86.262 28.9 85.1883 27.6394 84.0155 26.4744L79.0928 28.8043C77.7548 27.5915 76.3011 26.4904 74.7814 25.5329L76.3507 20.554C74.8474 19.6922 73.2781 18.9262 71.6593 18.272L68.1408 22.3413C66.5384 21.7827 64.8865 21.3678 63.2016 21.0646L62.5408 15.8942C60.7568 15.6548 58.9562 15.5431 57.1557 15.575L55.669 20.6497C54.0501 20.7455 52.4147 20.9689 50.7959 21.32L48.0042 16.8357C47.1287 17.0751 46.2532 17.3304 45.3942 17.6177C44.5187 17.9209 43.6762 18.256 42.8668 18.6071L43.6266 23.8094C42.1565 24.5275 40.7358 25.3414 39.4143 26.251L34.9377 23.2349C33.5171 24.3201 32.179 25.501 30.9731 26.7776L33.8309 31.198C32.7241 32.4587 31.7165 33.7992 30.841 35.2035L25.4558 34.1981C24.6299 35.6982 23.903 37.2461 23.3083 38.8419L27.7685 41.7463C27.2233 43.4219 26.8269 45.1454 26.5791 46.9167L36.8374 70.1996L51.1262 80.5244C53.4554 81.0032 55.8341 81.2266 58.2624 81.1787L60.0465 86.1257C61.4506 86.03 62.8712 85.8704 64.2918 85.6151L64.6553 80.4127C65.8281 80.1574 66.9844 79.8382 68.1408 79.4393C69.2971 79.0403 70.4204 78.5775 71.4941 78.0669L75.1778 81.8809C76.4498 81.2106 77.6557 80.4766 78.812 79.6786L76.9619 74.7636C78.8615 73.3273 80.5795 71.6996 82.0662 69.8963L87.0054 71.9071C87.8809 70.774 88.6738 69.5772 89.4006 68.3484L85.6178 64.5663C86.642 62.5875 87.4679 60.513 88.0296 58.3587L93.3817 58.2629L93.3487 58.215ZM63.2016 65.7153C60.8724 66.5132 58.4937 66.7845 56.181 66.5771L40.3394 63.7844L41.2975 48.0178C42.2556 42.4644 46.2201 37.5493 52.1009 35.5386C60.7238 32.5704 70.2056 36.927 73.2781 45.2571C76.3507 53.5872 71.841 62.7471 63.2181 65.7153H63.2016Z" fill="#EBEFF2"/>
<path d="M60.0299 86.8598C59.683 86.8598 59.3691 86.6524 59.2535 86.3173L57.6677 81.9288H57.6512C55.4046 81.9288 53.158 81.7054 50.961 81.2426C50.8453 81.2107 50.7297 81.1628 50.6306 81.099L36.3417 70.7741C36.2261 70.6943 36.127 70.5826 36.0774 70.4549L25.8192 47.1721C25.7531 47.0444 25.7366 46.9008 25.7531 46.7572C25.9678 45.1614 26.3312 43.5815 26.7938 42.0336L22.8457 39.4643C22.5319 39.2569 22.3997 38.8739 22.5319 38.5228C23.1431 36.911 23.8699 35.3152 24.7289 33.7833C24.8941 33.4801 25.2575 33.3045 25.6209 33.3843L30.4445 34.278C31.1548 33.1928 31.9477 32.1236 32.8232 31.1023L30.2793 27.1766C30.081 26.8734 30.1141 26.4745 30.3784 26.2032C31.6008 24.9425 32.9553 23.7137 34.442 22.5807C34.7229 22.3573 35.1358 22.3573 35.4332 22.5488L39.4308 25.2457C40.488 24.5435 41.5947 23.9052 42.7511 23.3307L42.0738 18.7029C42.0242 18.3518 42.2225 18.0007 42.5528 17.8571C43.3953 17.506 44.2543 17.1549 45.1463 16.8517C46.0218 16.5485 46.9138 16.2932 47.8059 16.0538C48.1528 15.9581 48.5492 16.1017 48.7309 16.4049L51.2253 20.4104C52.4807 20.1551 53.7692 19.9795 55.0577 19.8838L56.3957 15.3517C56.4948 15.0166 56.8087 14.7772 57.1721 14.7772C58.9727 14.7453 60.8228 14.857 62.6894 15.0964C63.0528 15.1442 63.3502 15.4315 63.3997 15.7826L63.9944 20.3785C65.3325 20.6338 66.654 20.9849 67.9259 21.3838L71.081 17.7454C71.3123 17.4741 71.6922 17.3943 72.0391 17.522C73.6745 18.1763 75.2934 18.9582 76.8296 19.8519C77.16 20.0434 77.3087 20.4104 77.1931 20.7774L75.8055 25.1819C77.0113 25.9798 78.1842 26.8734 79.291 27.8309L83.7015 25.7404C84.0154 25.5968 84.4118 25.6606 84.6596 25.9C85.849 27.0968 86.9557 28.3894 87.9634 29.7299C88.1781 30.0331 88.1616 30.4321 87.9138 30.7193L84.8248 34.1822C85.7003 35.5227 86.4767 36.927 87.1209 38.3632L92.0436 38.1877C92.4566 38.1877 92.82 38.459 92.886 38.8579C93.3816 40.1825 93.8441 41.7304 94.191 43.2943C94.2736 43.6613 94.0754 44.0283 93.7285 44.1879L89.4501 46.1189C89.7144 47.8264 89.8466 49.5818 89.8135 51.3212L94.3562 53.0925C94.6866 53.2202 94.9014 53.5553 94.8683 53.8904C94.7527 55.3267 94.5214 56.8427 94.191 58.3587C94.1084 58.7257 93.7781 58.9811 93.3981 58.997L88.6572 59.0768C88.1451 60.8641 87.4513 62.6355 86.5923 64.343L89.9787 67.7101C90.2265 67.9655 90.2761 68.3485 90.1109 68.6517C89.3675 69.9283 88.5416 71.1571 87.6661 72.2901C87.4348 72.5933 87.0218 72.6891 86.6749 72.5454L82.2974 70.7581C80.9924 72.2741 79.5222 73.6625 77.9199 74.9232L79.5718 79.2957C79.7039 79.6308 79.5718 80.0138 79.2744 80.2213C78.0686 81.0511 76.8296 81.8011 75.5577 82.4714C75.2273 82.6469 74.8143 82.5831 74.55 82.3118L71.2793 78.9287C70.3047 79.3755 69.3466 79.7585 68.3885 80.0776C67.4304 80.4128 66.4557 80.6841 65.3985 80.9394L65.0682 85.5513C65.0351 85.9183 64.7708 86.2215 64.3909 86.2853C62.9702 86.5407 61.5001 86.7162 60.0464 86.812C60.0299 86.812 60.0134 86.812 59.9968 86.812L60.0299 86.8598ZM58.2458 80.333C58.5927 80.333 58.9066 80.5404 59.0222 80.8755L60.5915 85.2321C61.5661 85.1523 62.5242 85.0406 63.4823 84.881L63.8127 80.3011C63.8292 79.95 64.0935 79.6627 64.457 79.5829C65.6794 79.3117 66.7861 78.9925 67.8599 78.6255C68.9171 78.2584 70.0238 77.8116 71.1141 77.285C71.4445 77.1254 71.8409 77.2052 72.0887 77.4605L75.3264 80.8117C76.1689 80.3489 76.9948 79.8542 77.8043 79.3117L76.1689 74.987C76.0532 74.6679 76.1689 74.3008 76.4332 74.0774C78.2833 72.6891 79.9517 71.0933 81.4054 69.3379C81.6366 69.0666 82.0331 68.9708 82.3635 69.0985L86.6914 70.8698C87.2696 70.0879 87.8147 69.274 88.3433 68.4123L84.99 65.0611C84.7422 64.8217 84.6927 64.4547 84.8413 64.1515C85.8655 62.1886 86.6584 60.162 87.187 58.1034C87.2861 57.7523 87.6 57.5129 87.9634 57.497L92.6548 57.4172C92.853 56.3799 93.0182 55.3426 93.1173 54.3532L88.6076 52.5978C88.2938 52.4702 88.079 52.167 88.0956 51.8318C88.1616 49.8052 88.013 47.7625 87.6661 45.7837C87.6 45.4327 87.7982 45.0816 88.1286 44.922L92.374 43.007C92.1096 41.9059 91.7958 40.8367 91.4324 39.7995L86.5593 39.975C86.2289 39.975 85.8985 39.7835 85.7664 39.4803C85.023 37.7728 84.1145 36.1131 83.0408 34.5492C82.8425 34.246 82.8591 33.8631 83.1068 33.5918L86.1794 30.1608C85.436 29.2193 84.6596 28.2937 83.8172 27.4319L79.4396 29.5065C79.1423 29.6501 78.7624 29.6022 78.5146 29.3788C77.2096 28.1979 75.7889 27.1287 74.3188 26.1872C74.0049 25.9957 73.8727 25.6287 73.9884 25.2936L75.3595 20.9211C74.2362 20.2987 73.0633 19.7242 71.8905 19.2295L68.7684 22.836C68.5536 23.0914 68.1737 23.1871 67.8599 23.0754C66.3236 22.5488 64.7047 22.1339 63.0528 21.8307C62.7059 21.7668 62.4251 21.4955 62.3756 21.1445L61.7809 16.5805C60.4263 16.4209 59.0883 16.3411 57.7503 16.3411L56.4287 20.8413C56.3296 21.1604 56.0323 21.3998 55.6854 21.4158C54.0831 21.5115 52.4972 21.7349 50.9445 22.07C50.5976 22.1498 50.2341 21.9902 50.0524 21.703L47.5746 17.7294C46.9304 17.905 46.2696 18.1124 45.6419 18.3358C44.9976 18.5593 44.3534 18.7986 43.7422 19.054L44.4195 23.6499C44.469 23.985 44.2873 24.3201 43.9735 24.4797C42.5363 25.1819 41.1487 25.9798 39.8768 26.8575C39.5959 27.049 39.216 27.049 38.9187 26.8575L34.9541 24.1765C33.8969 25.0223 32.9058 25.9 31.9972 26.8096L34.5246 30.7034C34.7229 30.9906 34.6898 31.3736 34.4586 31.6449C33.3518 32.9056 32.3772 34.2141 31.5347 35.5387C31.353 35.8259 31.0226 35.9695 30.6757 35.9057L25.9018 35.012C25.3071 36.1291 24.7785 37.2781 24.3159 38.443L28.2309 40.9804C28.5283 41.1719 28.6604 41.5389 28.5613 41.89C28.0492 43.4539 27.6693 45.0816 27.438 46.7093L37.5146 69.5772L51.4896 79.6627C53.7031 80.1096 55.9993 80.3011 58.2458 80.2691V80.333ZM57.6512 67.4548C57.1391 67.4548 56.6105 67.4388 56.0984 67.391L40.1741 64.5824C39.7611 64.5026 39.4803 64.1515 39.4968 63.7525L40.4549 47.986C41.4956 41.874 45.8401 36.8472 51.8034 34.8046C60.8558 31.6928 70.8167 36.2727 74.0379 45.0018C77.2591 53.7309 72.5182 63.3695 63.4658 66.4814C61.5661 67.1356 59.6169 67.4548 57.6512 67.4548ZM41.1983 63.1302L56.3296 65.7952C58.5266 65.9867 60.7732 65.6994 62.9207 64.9653C71.0976 62.1567 75.3925 53.4277 72.4852 45.5284C69.5613 37.6292 60.542 33.4801 52.3651 36.2887C46.9799 38.1398 43.0484 42.6879 42.1068 48.1455L41.2148 63.1142L41.1983 63.1302Z" fill="#37474F"/>
<path d="M57.4034 73.3912C55.8837 73.3912 54.364 73.2476 52.8607 72.9604C52.679 72.9285 52.5138 72.8327 52.3982 72.7051L34.2108 52.3266C34.0952 52.1989 34.0126 52.0234 34.0126 51.8478C33.4345 40.6293 41.281 30.831 52.6955 28.565C65.3656 26.0277 77.7878 33.9429 80.3978 46.1668C83.0078 58.4066 74.8309 70.4071 62.1774 72.9285C60.5916 73.2476 59.0058 73.4072 57.42 73.4072L57.4034 73.3912ZM53.4719 71.4444C56.2471 71.9391 59.0553 71.9071 61.847 71.3486C73.6085 69.0028 81.2072 57.8481 78.7789 46.47C76.3507 35.1078 64.7874 27.7671 53.0259 30.1129C42.6851 32.1715 35.2681 41.3315 35.648 51.4808L53.4719 71.4284V71.4444Z" fill="#37474F"/>
<path d="M27.7684 115.584H41.2478C40.6201 94.8708 56.6435 92.0621 56.5279 73.0561C56.5279 58.247 44.1056 46.2625 28.7926 46.2625H28.5778C13.2482 46.2625 0.826008 58.2629 0.826008 73.072C0.693857 92.0781 16.7172 94.8867 16.0895 115.6H29.569H27.7684V115.584Z" fill="white"/>
<path d="M41.2479 116.382H16.0895C15.8748 116.382 15.6601 116.303 15.4949 116.143C15.3462 115.983 15.2471 115.776 15.2636 115.568C15.5775 105.164 11.5303 99.2912 7.59881 93.6261C3.83249 88.1684 -0.0659798 82.5193 9.59112e-05 73.0561C9.59112e-05 57.8481 12.8188 45.4646 28.5613 45.4646H28.7761C44.5352 45.4646 57.3373 57.8481 57.3373 73.0561C57.4034 82.5193 53.4884 88.1525 49.7221 93.6101C45.8071 99.2753 41.7435 105.148 42.0573 115.553C42.0573 115.76 41.9747 115.983 41.826 116.127C41.6774 116.287 41.4626 116.366 41.2314 116.366L41.2479 116.382ZM27.7684 114.787H40.4054C40.3063 104.382 44.403 98.4614 48.3675 92.7324C52.1669 87.2269 55.768 82.0405 55.702 73.0561C55.702 58.7098 43.6266 47.0444 28.7926 47.0444H28.5779C13.7439 47.0444 1.66851 58.7098 1.66851 73.0402C1.60243 82.0246 5.20356 87.2109 9.00292 92.7165C12.9675 98.4454 17.0476 104.366 16.9485 114.771H27.785L27.7684 114.787Z" fill="#37474F"/>
<path d="M25.1915 111.675C24.762 111.675 24.4151 111.356 24.3656 110.941C24.3491 110.733 22.4989 90.626 16.7834 82.3437C16.5356 81.9767 16.6347 81.482 17.0146 81.2426C17.3946 81.0033 17.9067 81.099 18.1544 81.466C24.1013 90.0994 25.9349 109.967 26.0175 110.813C26.0505 111.26 25.7201 111.643 25.2741 111.675C25.2576 111.675 25.2246 111.675 25.208 111.675H25.1915Z" fill="#37474F"/>
<path d="M32.1625 111.675C32.1625 111.675 32.1129 111.675 32.0964 111.675C31.6338 111.643 31.3035 111.244 31.3365 110.813C31.4026 109.967 33.2362 90.0834 39.1995 81.466C39.4473 81.099 39.9594 81.0033 40.3393 81.2426C40.7193 81.482 40.8184 81.9767 40.5706 82.3437C34.855 90.626 33.0049 110.749 32.9884 110.941C32.9554 111.356 32.5919 111.675 32.1625 111.675Z" fill="#37474F"/>
<path d="M20.8801 84.4661C18.1214 84.4661 15.6436 81.083 15.3628 80.6841C15.0985 80.317 15.1976 79.8223 15.5775 79.583C15.9574 79.3276 16.4695 79.4234 16.7173 79.7904C17.3285 80.6362 19.4429 83.0618 21.0288 82.8703C21.4748 82.8224 21.9043 82.5671 22.2842 82.1043C21.3591 81.3383 20.6984 80.5085 20.2524 79.8542C18.6831 77.5244 18.0719 74.6998 18.7987 73.1199C19.3438 71.9231 20.6653 71.5082 22.086 72.0827C24.3656 73.0242 26.6617 76.519 24.6299 81.3064C24.5803 81.4341 24.5308 81.5458 24.4647 81.6575C25.5549 82.2958 26.9425 82.7586 28.6605 82.7586C29.123 82.7586 29.4865 83.1097 29.4865 83.5565C29.4865 84.0033 29.123 84.3544 28.6605 84.3544C26.5956 84.3544 24.9272 83.7959 23.6222 83.0459C22.945 83.8916 22.1355 84.3704 21.1939 84.4661C21.0783 84.4661 20.9627 84.4661 20.8636 84.4661H20.8801ZM20.8801 73.4072C20.6488 73.4072 20.4506 73.487 20.3184 73.7583C19.889 74.6838 20.2854 76.9499 21.64 78.9765C21.9703 79.4713 22.4494 80.0777 23.1101 80.6681C24.6794 76.9339 23.0441 74.2051 21.4417 73.5508C21.26 73.471 21.0618 73.4231 20.8636 73.4231L20.8801 73.4072Z" fill="#37474F"/>
<path d="M36.4574 84.4662C36.3417 84.4662 36.2426 84.4662 36.127 84.4662C35.2019 84.3704 34.3925 83.8917 33.6987 83.0459C32.3937 83.8119 30.7253 84.3544 28.6604 84.3544C28.1979 84.3544 27.8345 84.0034 27.8345 83.5565C27.8345 83.1097 28.1979 82.7586 28.6604 82.7586C30.3784 82.7586 31.766 82.2959 32.8562 81.6575C32.8067 81.5458 32.7571 81.4182 32.691 81.3065C30.6427 76.519 32.9553 73.0242 35.235 72.0827C36.6556 71.4922 37.9606 71.9071 38.5222 73.104C39.2491 74.6839 38.6379 77.5084 37.0686 79.8383C36.6225 80.4926 35.9618 81.3224 35.0367 82.1044C35.4167 82.5671 35.8462 82.8225 36.2922 82.8703C37.8945 83.0618 40.0089 80.6522 40.6036 79.7904C40.8679 79.4234 41.38 79.3277 41.7434 79.583C42.1234 79.8383 42.2225 80.333 41.9582 80.6841C41.6773 81.083 39.1995 84.4662 36.4408 84.4662H36.4574ZM36.4739 73.4072C36.2756 73.4072 36.0774 73.471 35.8957 73.5349C34.2934 74.2051 32.6415 76.918 34.2273 80.6522C34.8881 80.0617 35.3671 79.4553 35.6975 78.9606C37.0686 76.9339 37.4485 74.6679 37.019 73.7423C36.9034 73.487 36.6886 73.4072 36.4574 73.4072H36.4739Z" fill="#37474F"/>
<path d="M14.2395 112.137V121.026C14.2395 124.521 16.9156 127.585 20.9462 129.34V131.319C20.9462 132.356 21.8217 133.202 22.8954 133.202H34.4752C35.5489 133.202 36.4244 132.356 36.4244 131.319V129.34C40.4551 127.585 43.1311 124.521 43.1311 121.026V112.137H14.2395Z" fill="#EBEFF2"/>
<path d="M34.4586 134H22.8788C21.3426 134 20.1037 132.803 20.1037 131.319V129.851C15.8913 127.872 13.397 124.601 13.397 121.026V112.138C13.397 111.691 13.7604 111.34 14.2229 111.34H43.1145C43.5771 111.34 43.9405 111.691 43.9405 112.138V121.026C43.9405 124.601 41.4461 127.872 37.2338 129.851V131.319C37.2338 132.803 35.9949 134 34.4586 134ZM15.0654 112.935V121.026C15.0654 124.09 17.3946 126.931 21.2765 128.622C21.5738 128.75 21.7556 129.037 21.7556 129.356V131.335C21.7556 131.926 22.2511 132.42 22.8788 132.42H34.4586C35.0863 132.42 35.5819 131.941 35.5819 131.335V129.356C35.5819 129.037 35.7801 128.75 36.061 128.622C39.9594 126.931 42.2721 124.09 42.2721 121.026V112.935H15.0654Z" fill="#37474F"/>
<path d="M37.911 118.17H19.4263C18.9638 118.17 18.6003 117.819 18.6003 117.372C18.6003 116.925 18.9638 116.574 19.4263 116.574H37.911C38.3735 116.574 38.7369 116.925 38.7369 117.372C38.7369 117.819 38.3735 118.17 37.911 118.17Z" fill="#37474F"/>
<path d="M37.9112 122.925H23.8535C23.391 122.925 23.0276 122.574 23.0276 122.127C23.0276 121.68 23.391 121.329 23.8535 121.329H37.9112C38.3737 121.329 38.7371 121.68 38.7371 122.127C38.7371 122.574 38.3737 122.925 37.9112 122.925Z" fill="#37474F"/>
<path d="M14.2393 45.5604C13.7767 45.5604 13.4133 45.2093 13.4133 44.7625V37.8047C13.4133 37.3579 13.7767 37.0068 14.2393 37.0068C14.7018 37.0068 15.0652 37.3579 15.0652 37.8047V44.7625C15.0652 45.2093 14.7018 45.5604 14.2393 45.5604Z" fill="#37474F"/>
<path d="M17.8405 42.0815H10.6382C10.1757 42.0815 9.81226 41.7304 9.81226 41.2836C9.81226 40.8368 10.1757 40.4857 10.6382 40.4857H17.8405C18.303 40.4857 18.6664 40.8368 18.6664 41.2836C18.6664 41.7304 18.303 42.0815 17.8405 42.0815Z" fill="#37474F"/>
<path d="M117.483 70.9337C117.02 70.9337 116.657 70.5826 116.657 70.1358V63.178C116.657 62.7312 117.02 62.3801 117.483 62.3801C117.945 62.3801 118.309 62.7312 118.309 63.178V70.1358C118.309 70.5826 117.945 70.9337 117.483 70.9337Z" fill="#37474F"/>
<path d="M121.084 67.4548H113.882C113.419 67.4548 113.056 67.1037 113.056 66.6569C113.056 66.2101 113.419 65.859 113.882 65.859H121.084C121.546 65.859 121.91 66.2101 121.91 66.6569C121.91 67.1037 121.546 67.4548 121.084 67.4548Z" fill="#37474F"/>
<path d="M58.5928 108.802C58.1303 108.802 57.7668 108.451 57.7668 108.004C57.7668 107.557 58.1303 107.206 58.5928 107.206C72.766 107.206 86.4933 102.291 97.2306 93.3867C97.5775 93.0994 98.1061 93.1313 98.4034 93.4664C98.7008 93.8016 98.6677 94.3122 98.3208 94.5995C87.2862 103.759 73.179 108.802 58.6093 108.802H58.5928Z" fill="#37474F"/>
<path d="M58.5928 118.904C58.1303 118.904 57.7668 118.553 57.7668 118.106C57.7668 117.659 58.1303 117.308 58.5928 117.308C70.949 117.308 83.0739 114.148 93.6955 108.18C94.092 107.956 94.5876 108.084 94.8188 108.467C95.0501 108.85 94.9179 109.329 94.5215 109.552C83.652 115.664 71.2298 118.904 58.5928 118.904Z" fill="#37474F"/>
<path d="M104.598 102.451C104.367 102.451 104.135 102.355 103.97 102.18C103.673 101.844 103.706 101.334 104.053 101.047C107.951 97.8071 111.503 94.1367 114.575 90.1632C114.84 89.8121 115.368 89.7323 115.732 90.0036C116.095 90.2749 116.178 90.7696 115.897 91.1207C112.742 95.2059 109.124 98.9561 105.127 102.259C104.978 102.387 104.78 102.451 104.582 102.451H104.598Z" fill="#37474F"/>
</g>
<defs>
<clipPath id="clip0_312_647">
<rect width="121.91" height="134" fill="white"/>
</clipPath>
</defs>
</svg>
