<svg width="134" height="134" viewBox="0 0 134 134" fill="none" xmlns="http://www.w3.org/2000/svg">
<g clip-path="url(#clip0_312_533)">
<path d="M118.975 58.5626C124.612 32.0493 106.334 6.25737 78.1509 0.954689C49.9675 -4.348 22.5509 12.8466 16.9142 39.3598C11.2775 65.8731 29.5552 91.665 57.7385 96.9677C85.9219 102.27 113.339 85.0758 118.975 58.5626Z" fill="#FEC107"/>
<path d="M15.9118 82.177C15.6395 82.177 15.3672 82.049 15.1971 81.8248C10.7043 75.469 7.60702 68.4569 5.97329 60.9964C5.87118 60.5641 6.17751 60.1479 6.63699 60.0518C7.09648 59.9558 7.55597 60.244 7.64106 60.6762C9.22373 67.9285 12.2359 74.7486 16.6096 80.9443C16.8648 81.3125 16.7627 81.8088 16.3713 82.049C16.2181 82.145 16.065 82.177 15.8948 82.177H15.9118Z" fill="#282828"/>
<path d="M119.756 82.4813C119.586 82.4813 119.433 82.4332 119.279 82.3532C118.888 82.113 118.786 81.6168 119.041 81.2485C125.882 71.6908 129.49 60.5322 129.49 48.9733C129.49 45.3551 129.133 41.753 128.435 38.2308C128.35 37.7986 128.656 37.3823 129.116 37.3023C129.592 37.2222 130.018 37.5104 130.103 37.9427C130.818 41.5608 131.192 45.2751 131.192 48.9733C131.192 60.8524 127.482 72.3312 120.454 82.1451C120.283 82.3692 120.028 82.4973 119.739 82.4973L119.756 82.4813Z" fill="#282828"/>
<path d="M126.75 30.066C126.393 30.066 126.07 29.8579 125.95 29.5377C122.853 21.3408 117.697 13.7682 111.06 7.63659C110.719 7.33241 110.719 6.8201 111.06 6.49991C111.383 6.17972 111.928 6.17972 112.268 6.49991C119.092 12.8077 124.385 20.5883 127.567 29.0093C127.72 29.4256 127.499 29.8899 127.057 30.034C126.955 30.066 126.869 30.082 126.767 30.082L126.75 30.066Z" fill="#282828"/>
<path d="M30.4621 101.389C30.4621 106.96 25.663 111.491 19.7237 111.491C13.7844 111.491 8.98535 106.976 8.98535 101.389C8.98535 95.8013 13.7844 91.2866 19.7237 91.2866C25.663 91.2866 30.4621 95.8013 30.4621 101.389Z" fill="white"/>
<path d="M19.7238 112.275C13.342 112.275 8.13452 107.392 8.13452 101.373C8.13452 95.353 13.325 90.4701 19.7238 90.4701C26.1226 90.4701 31.3131 95.353 31.3131 101.373C31.3131 107.392 26.1226 112.275 19.7238 112.275ZM19.7238 92.0871C14.278 92.0871 9.83633 96.2495 9.83633 101.389C9.83633 106.528 14.261 110.69 19.7238 110.69C25.1866 110.69 29.6113 106.528 29.6113 101.389C29.6113 96.2495 25.1866 92.0871 19.7238 92.0871Z" fill="#282828"/>
<path d="M38.6138 133.2H0.85083V122.537C0.85083 118.215 4.57778 114.693 9.18967 114.693H30.292C34.8869 114.693 38.6309 118.199 38.6309 122.537V133.2H38.6138Z" fill="white"/>
<path d="M38.6139 134H0.850902C0.374397 134 0 133.648 0 133.2V122.537C0 117.766 4.11836 113.892 9.18974 113.892H30.2921C35.3635 113.892 39.4818 117.766 39.4818 122.537V133.2C39.4818 133.648 39.1074 134 38.6309 134H38.6139ZM1.7018 132.399H37.763V122.537C37.763 118.663 34.4105 115.493 30.2751 115.493H9.18974C5.07137 115.493 1.7018 118.647 1.7018 122.537V132.399Z" fill="#282828"/>
<path d="M30.7686 134C30.2921 134 29.9177 133.648 29.9177 133.2V126.38C29.9177 125.931 30.2921 125.579 30.7686 125.579C31.2451 125.579 31.6195 125.931 31.6195 126.38V133.2C31.6195 133.648 31.2451 134 30.7686 134Z" fill="#282828"/>
<path d="M8.67927 134C8.20277 134 7.82837 133.648 7.82837 133.2V126.38C7.82837 125.931 8.20277 125.579 8.67927 125.579C9.15578 125.579 9.53017 125.931 9.53017 126.38V133.2C9.53017 133.648 9.15578 134 8.67927 134Z" fill="#282828"/>
<path d="M114.276 111.491C120.207 111.491 125.014 106.968 125.014 101.389C125.014 95.8095 120.207 91.2866 114.276 91.2866C108.345 91.2866 103.538 95.8095 103.538 101.389C103.538 106.968 108.345 111.491 114.276 111.491Z" fill="white"/>
<path d="M114.276 112.275C107.894 112.275 102.687 107.392 102.687 101.373C102.687 95.353 107.877 90.4701 114.276 90.4701C120.675 90.4701 125.865 95.353 125.865 101.373C125.865 107.392 120.675 112.275 114.276 112.275ZM114.276 92.0871C108.83 92.0871 104.389 96.2495 104.389 101.389C104.389 106.528 108.813 110.69 114.276 110.69C119.739 110.69 124.164 106.528 124.164 101.389C124.164 96.2495 119.739 92.0871 114.276 92.0871Z" fill="#282828"/>
<path d="M133.149 133.2H95.386V122.537C95.386 118.215 99.1129 114.693 103.725 114.693H124.827C129.422 114.693 133.166 118.199 133.166 122.537V133.2H133.149Z" fill="white"/>
<path d="M133.149 134H95.3861C94.9096 134 94.5352 133.648 94.5352 133.2V122.537C94.5352 117.766 98.6535 113.892 103.725 113.892H124.827C129.899 113.892 134.017 117.766 134.017 122.537V133.2C134.017 133.648 133.643 134 133.166 134H133.149ZM96.237 132.399H132.298V122.537C132.298 118.663 128.946 115.493 124.81 115.493H103.708C99.5895 115.493 96.2199 118.647 96.2199 122.537V132.399H96.237Z" fill="#282828"/>
<path d="M125.321 134C124.844 134 124.47 133.648 124.47 133.2V126.38C124.47 125.931 124.844 125.579 125.321 125.579C125.797 125.579 126.172 125.931 126.172 126.38V133.2C126.172 133.648 125.797 134 125.321 134Z" fill="#282828"/>
<path d="M103.231 134C102.755 134 102.38 133.648 102.38 133.2V126.38C102.38 125.931 102.755 125.579 103.231 125.579C103.708 125.579 104.082 125.931 104.082 126.38V133.2C104.082 133.648 103.708 134 103.231 134Z" fill="#282828"/>
<path d="M97.9558 34.7568H35.3804C32.1981 34.7568 29.6113 37.1903 29.6113 40.1841V68.8252C29.6113 71.819 32.1981 74.2524 35.3804 74.2524H36.0101V81.2326L42.8343 74.2524H63.3411L66.6596 81.0245L69.9781 74.2524H90.4848L97.3091 81.2326V74.2524H97.9387C101.121 74.2524 103.708 71.819 103.708 68.8252V40.1841C103.708 37.1903 101.121 34.7568 97.9387 34.7568H97.9558Z" fill="white"/>
<path d="M97.3262 82.017C97.0879 82.017 96.8667 81.921 96.6965 81.7609L90.1275 75.0368H70.5398L67.4425 81.3446C67.1702 81.9049 66.1661 81.9049 65.8938 81.3446L62.7966 75.0368H43.2088L36.6398 81.7609C36.4016 82.001 36.0272 82.0811 35.7039 81.969C35.3805 81.8569 35.1593 81.5527 35.1593 81.2165V75.0368C31.6025 74.9248 28.7605 72.1871 28.7605 68.8091V40.168C28.7605 36.742 31.7216 33.9403 35.3805 33.9403H97.9558C101.598 33.9403 104.576 36.726 104.576 40.168V68.8091C104.576 72.1711 101.717 74.9248 98.1771 75.0368V81.2165C98.1771 81.5527 97.9558 81.8409 97.6325 81.969C97.5304 82.001 97.4283 82.017 97.3262 82.017ZM69.9952 73.4359H90.5019C90.7402 73.4359 90.9614 73.5319 91.1316 73.692L96.4753 79.1673V74.2364C96.4753 73.7881 96.8496 73.4359 97.3262 73.4359H97.9558C100.662 73.4359 102.874 71.3546 102.874 68.8091V40.168C102.874 37.6225 100.662 35.5413 97.9558 35.5413H35.3805C32.6746 35.5413 30.4623 37.6225 30.4623 40.168V68.8091C30.4623 71.3546 32.6746 73.4359 35.3805 73.4359H36.0102C36.4867 73.4359 36.8611 73.7881 36.8611 74.2364V79.1673L42.2047 73.692C42.3579 73.5319 42.5962 73.4359 42.8344 73.4359H63.3411C63.6645 73.4359 63.9708 73.612 64.1069 73.9002L66.6597 79.1033L69.2124 73.9002C69.3485 73.612 69.6548 73.4359 69.9782 73.4359H69.9952Z" fill="#282828"/>
<path d="M53.5217 60.9645C53.5217 63.542 51.3093 65.6232 48.5694 65.6232C45.8295 65.6232 43.6172 63.542 43.6172 60.9645C43.6172 58.3869 45.8295 56.3057 48.5694 56.3057C51.3093 56.3057 53.5217 58.3869 53.5217 60.9645Z" fill="#E0E1E2"/>
<path d="M48.5695 66.4237C45.3701 66.4237 42.7664 63.9742 42.7664 60.9644C42.7664 57.9546 45.3701 55.5051 48.5695 55.5051C51.7689 55.5051 54.3727 57.9546 54.3727 60.9644C54.3727 63.9742 51.7689 66.4237 48.5695 66.4237ZM48.5695 57.1061C46.3061 57.1061 44.4682 58.8351 44.4682 60.9644C44.4682 63.0937 46.3061 64.8227 48.5695 64.8227C50.8329 64.8227 52.6709 63.0937 52.6709 60.9644C52.6709 58.8351 50.8329 57.1061 48.5695 57.1061Z" fill="#282828"/>
<path d="M93.3779 58.4189C93.3779 60.9965 91.1655 63.0777 88.4256 63.0777C85.6857 63.0777 83.4734 60.9965 83.4734 58.4189C83.4734 55.8414 85.6857 53.7601 88.4256 53.7601C91.1655 53.7601 93.3779 55.8414 93.3779 58.4189Z" fill="#E0E1E2"/>
<path d="M88.4257 63.8621C85.2263 63.8621 82.6226 61.4127 82.6226 58.4029C82.6226 55.3931 85.2263 52.9436 88.4257 52.9436C91.6251 52.9436 94.2289 55.3931 94.2289 58.4029C94.2289 61.4127 91.6251 63.8621 88.4257 63.8621ZM88.4257 54.5606C86.1623 54.5606 84.3244 56.2896 84.3244 58.4189C84.3244 60.5481 86.1623 62.2772 88.4257 62.2772C90.6891 62.2772 92.5271 60.5481 92.5271 58.4189C92.5271 56.2896 90.6891 54.5606 88.4257 54.5606Z" fill="#282828"/>
<path d="M72.8881 46.0435C72.8881 48.6211 70.6758 50.7023 67.9359 50.7023C65.196 50.7023 62.9836 48.6211 62.9836 46.0435C62.9836 43.466 65.196 41.3848 67.9359 41.3848C70.6758 41.3848 72.8881 43.466 72.8881 46.0435Z" fill="#E0E1E2"/>
<path d="M67.936 51.5027C64.7366 51.5027 62.1328 49.0533 62.1328 46.0435C62.1328 43.0337 64.7366 40.5842 67.936 40.5842C71.1354 40.5842 73.7391 43.0337 73.7391 46.0435C73.7391 49.0533 71.1354 51.5027 67.936 51.5027ZM67.936 42.1852C65.6726 42.1852 63.8346 43.9142 63.8346 46.0435C63.8346 48.1728 65.6726 49.9018 67.936 49.9018C70.1994 49.9018 72.0373 48.1728 72.0373 46.0435C72.0373 43.9142 70.1994 42.1852 67.936 42.1852Z" fill="#282828"/>
<path d="M51.8028 58.3069C51.5475 58.3069 51.2922 58.1948 51.1221 57.9867C50.8328 57.6345 50.9008 57.1382 51.2752 56.866L63.4261 48.1568C63.8005 47.8846 64.3281 47.9647 64.6174 48.3009C64.9067 48.6531 64.8386 49.1494 64.4642 49.4216L52.3133 58.1308C52.1602 58.2428 51.973 58.2909 51.8028 58.2909V58.3069Z" fill="#282828"/>
<path d="M84.6477 56.2256C84.4945 56.2256 84.3413 56.1936 84.2052 56.1136L71.748 49.1174C71.3396 48.8933 71.2204 48.397 71.4587 48.0127C71.6969 47.6285 72.2245 47.5004 72.6329 47.7406L85.0901 54.7367C85.4986 54.9609 85.6177 55.4572 85.3794 55.8414C85.2263 56.0976 84.937 56.2256 84.6477 56.2256Z" fill="#282828"/>
<path d="M77.7382 101.389C77.7382 106.96 72.9391 111.491 66.9999 111.491C61.0606 111.491 56.2615 106.976 56.2615 101.389C56.2615 95.8013 61.0606 91.2866 66.9999 91.2866C72.9391 91.2866 77.7382 95.8013 77.7382 101.389Z" fill="#E0E1E2"/>
<path d="M66.9999 112.275C60.6182 112.275 55.4106 107.392 55.4106 101.373C55.4106 95.353 60.6011 90.4701 66.9999 90.4701C73.3987 90.4701 78.5892 95.353 78.5892 101.373C78.5892 107.392 73.3987 112.275 66.9999 112.275ZM66.9999 92.0871C61.5542 92.0871 57.1124 96.2495 57.1124 101.389C57.1124 106.528 61.5542 110.69 66.9999 110.69C72.4457 110.69 76.8874 106.528 76.8874 101.389C76.8874 96.2495 72.4627 92.0871 66.9999 92.0871Z" fill="#282828"/>
<path d="M85.8729 133.2H48.1099V122.537C48.1099 118.215 51.8368 114.693 56.4487 114.693H77.5511C82.1459 114.693 85.8899 118.199 85.8899 122.537V133.2H85.8729Z" fill="#E0E1E2"/>
<path d="M85.873 134H48.1099C47.6334 134 47.259 133.648 47.259 133.2V122.537C47.259 117.766 51.3774 113.892 56.4488 113.892H77.5511C82.6225 113.892 86.7409 117.766 86.7409 122.537V133.2C86.7409 133.648 86.3665 134 85.89 134H85.873ZM48.9779 132.399H85.0391V122.537C85.0391 118.663 81.6865 115.493 77.5511 115.493H56.4488C52.3304 115.493 48.9608 118.647 48.9608 122.537V132.399H48.9779Z" fill="#282828"/>
<path d="M78.0445 134C77.568 134 77.1936 133.648 77.1936 133.2V126.38C77.1936 125.931 77.568 125.579 78.0445 125.579C78.521 125.579 78.8954 125.931 78.8954 126.38V133.2C78.8954 133.648 78.521 134 78.0445 134Z" fill="#282828"/>
<path d="M55.9551 134C55.4786 134 55.1042 133.648 55.1042 133.2V126.38C55.1042 125.931 55.4786 125.579 55.9551 125.579C56.4317 125.579 56.8061 125.931 56.8061 126.38V133.2C56.8061 133.648 56.4317 134 55.9551 134Z" fill="#282828"/>
<path d="M67.102 25.8395H46.7144C46.2379 25.8395 45.8635 25.4873 45.8635 25.039C45.8635 24.5907 46.2379 24.2385 46.7144 24.2385H67.102C67.5785 24.2385 67.9529 24.5907 67.9529 25.039C67.9529 25.4873 67.5785 25.8395 67.102 25.8395Z" fill="#282828"/>
<path d="M75.9004 25.8395H72.2926C71.816 25.8395 71.4417 25.4873 71.4417 25.039C71.4417 24.5907 71.816 24.2385 72.2926 24.2385H75.9004C76.3769 24.2385 76.7513 24.5907 76.7513 25.039C76.7513 25.4873 76.3769 25.8395 75.9004 25.8395Z" fill="#282828"/>
<path d="M84.2732 25.8395H82.4693C81.9928 25.8395 81.6184 25.4873 81.6184 25.039C81.6184 24.5907 81.9928 24.2385 82.4693 24.2385H84.2732C84.7497 24.2385 85.1241 24.5907 85.1241 25.039C85.1241 25.4873 84.7497 25.8395 84.2732 25.8395Z" fill="#282828"/>
<path d="M91.9314 25.8395H90.1275C89.651 25.8395 89.2766 25.4873 89.2766 25.039C89.2766 24.5907 89.651 24.2385 90.1275 24.2385H91.9314C92.4079 24.2385 92.7823 24.5907 92.7823 25.039C92.7823 25.4873 92.4079 25.8395 91.9314 25.8395Z" fill="#282828"/>
<path d="M99.5894 25.8395H97.7855C97.309 25.8395 96.9346 25.4873 96.9346 25.039C96.9346 24.5907 97.309 24.2385 97.7855 24.2385H99.5894C100.066 24.2385 100.44 24.5907 100.44 25.039C100.44 25.4873 100.066 25.8395 99.5894 25.8395Z" fill="#282828"/>
</g>
<defs>
<clipPath id="clip0_312_533">
<rect width="134" height="134" fill="white"/>
</clipPath>
</defs>
</svg>
