<svg width="442" height="660" viewBox="0 0 442 660" fill="none" xmlns="http://www.w3.org/2000/svg">
<g filter="url(#filter0_i_1_495)">
<path d="M318.611 336.018L236.983 357.615C232.569 352.472 225.722 349.466 218.214 350.425C209.088 351.604 201.529 358.988 200.17 368.109C198.875 376.867 202.966 384.77 209.606 389.059L195.315 469.086L213.062 472.26L227.495 391.391C234.822 389.02 240.375 382.736 241.734 375.002L323.219 353.443L318.611 336.005V336.018Z" fill="white" fill-opacity="0.25"/>
<path d="M221 198.027C125.354 198.027 47.8301 275.632 47.8301 371.348C47.8301 467.065 125.367 544.669 221 544.669C316.647 544.669 394.171 467.065 394.171 371.348C394.171 275.632 316.634 198.027 221 198.027ZM221 497.316C151.605 497.316 95.1419 440.803 95.1419 371.348C95.1419 301.893 151.605 245.38 221 245.38C290.395 245.38 346.859 301.893 346.859 371.348C346.859 440.803 290.395 497.316 221 497.316Z" fill="white" fill-opacity="0.25"/>
<path d="M221.001 36.0812C203.798 36.0812 189.805 50.0862 189.805 67.3043H252.21C252.21 50.0862 238.217 36.0812 221.014 36.0812H221.001Z" fill="white" fill-opacity="0.25"/>
<path d="M442 371.348C442 323.283 426.674 278.806 400.656 242.53C398.196 239.11 401.16 228.071 401.549 226.543C402.83 221.632 406.468 215.751 408.383 215.504C415.205 214.649 421.108 212.24 425.936 208.314C437.094 199.258 442.117 186.289 439.722 172.712C438.22 164.213 430.92 157.968 422.299 157.813C422.001 157.813 388.358 157.878 375.789 135.322C360.502 107.882 333.578 105.874 333.008 105.835C332.05 105.692 302.692 102.764 299.754 65.9314C299.12 57.9507 293.411 51.5117 285.916 49.7368C278.188 21.1177 252.015 0 221 0C189.985 0 163.812 21.1177 156.071 49.7497C148.589 51.5117 142.88 57.9636 142.246 65.9443C139.308 102.777 109.95 105.705 108.992 105.848C108.422 105.887 81.498 107.895 66.2107 135.335C53.6417 157.891 20.0121 157.813 19.7014 157.826C11.0804 157.981 3.77977 164.226 2.27822 172.725C-0.1165 186.302 4.90593 199.284 16.064 208.327C20.8923 212.24 26.7949 214.662 33.6166 215.517C35.5324 215.751 39.1698 221.645 40.4513 226.556C40.8396 228.084 43.8039 239.123 41.3445 242.543C15.3262 278.806 0 323.283 0 371.348C0 419.414 15.6757 464.914 42.2376 501.423C44.8783 505.063 44.9818 509.948 42.5095 513.705C37.7589 520.934 30.8336 532.309 29.8887 535.483C28.2706 540.964 29.4227 549.592 34.7558 556.86C38.5485 562.029 46.1727 568.339 60.9941 569.064C62.7416 569.155 65.2269 569.596 67.2851 570.93C80.579 579.533 86.8182 597.606 88.3845 602.231C92.7726 615.225 104.28 623.996 118.674 623.271C124.085 626.38 130.557 629.71 141.366 629.36C135.58 635.656 134.894 645.347 140.292 652.525C143.761 657.137 149.379 659.612 155.152 659.612H286.796C292.57 659.612 298.188 657.124 301.657 652.525C307.067 645.347 306.368 635.656 300.582 629.36C311.378 629.71 317.863 626.38 323.274 623.271C337.668 623.996 349.176 615.238 353.564 602.231C355.13 597.593 361.382 579.533 374.663 570.93C376.721 569.596 379.207 569.155 380.954 569.064C395.775 568.339 403.4 562.029 407.193 556.86C412.526 549.592 413.678 540.964 412.06 535.483C411.128 532.322 404.202 520.934 399.439 513.705C396.966 509.948 397.07 505.063 399.711 501.423C426.273 464.914 441.948 419.958 441.948 371.348H442ZM35.0923 197.522C32.0245 197.263 29.1508 195.812 26.8208 193.804C23.4294 190.876 19.7273 186.134 19.7143 179.371C19.7143 177.454 21.1641 175.834 23.0669 175.692C33.8496 174.863 70.2882 170.082 82.6242 142.771C82.6242 142.771 89.2388 127.769 110.843 123.804C110.843 123.804 156.252 119.386 160.213 67.3306H171.772C171.772 40.1237 193.817 18.0602 221 18.0602C248.183 18.0602 270.228 40.1237 270.228 67.3306H281.787C285.761 119.399 331.157 123.804 331.157 123.804C352.761 127.769 359.376 142.771 359.376 142.771C371.712 170.082 408.15 174.875 418.933 175.692C420.823 175.834 422.286 177.441 422.286 179.345C422.286 186.134 418.584 190.876 415.179 193.804C412.849 195.825 409.976 197.263 406.908 197.522C390.261 198.947 384.475 220.57 384.087 222.086C343.674 177.881 285.58 150.156 221 150.156C156.42 150.156 98.3258 177.881 57.9133 222.086C57.525 220.57 51.7388 198.947 35.0923 197.522ZM379.906 551.056C374.158 551.302 368.463 552.973 363.919 556.497C343.817 572.096 338.574 590.351 336.516 596.453C335.299 600.067 332.244 605.263 324.827 605.263C324.193 605.263 323.52 605.224 322.821 605.146C320.012 604.822 317.19 605.638 314.86 607.232C312.012 609.188 307.663 611.365 302.472 611.365C297.605 611.365 291.987 609.447 286.175 603.63L278.331 617.013C275.638 623.077 276.816 630.163 281.321 635.035L287.353 641.564H154.673L160.705 635.035C165.21 630.163 166.375 623.077 163.695 617.013L155.851 603.63C150.039 609.447 144.421 611.365 139.554 611.365C134.363 611.365 130.027 609.188 127.166 607.232C124.823 605.625 122.014 604.809 119.205 605.146C118.506 605.224 117.833 605.263 117.199 605.263C109.769 605.263 106.727 600.067 105.51 596.453C103.452 590.351 98.2093 572.096 78.1066 556.497C73.5631 552.973 67.8676 551.302 62.1203 551.056C45.3313 550.318 48.0108 540.096 48.0108 540.096L58.5735 521.297C98.9601 565.1 156.783 592.553 221.026 592.553C285.269 592.553 343.105 565.113 383.478 521.297L394.041 540.096C394.041 540.096 396.72 550.331 379.932 551.056H379.906ZM221 574.506C109.083 574.506 18.0186 483.376 18.0186 371.348C18.0186 259.32 109.07 168.19 221 168.19C332.93 168.19 423.981 259.32 423.981 371.348C423.981 483.376 332.93 574.506 221 574.506Z" fill="white" fill-opacity="0.25"/>
</g>
<defs>
<filter id="filter0_i_1_495" x="0" y="0" width="442" height="663.612" filterUnits="userSpaceOnUse" color-interpolation-filters="sRGB">
<feFlood flood-opacity="0" result="BackgroundImageFix"/>
<feBlend mode="normal" in="SourceGraphic" in2="BackgroundImageFix" result="shape"/>
<feColorMatrix in="SourceAlpha" type="matrix" values="0 0 0 0 0 0 0 0 0 0 0 0 0 0 0 0 0 0 127 0" result="hardAlpha"/>
<feOffset dy="4"/>
<feGaussianBlur stdDeviation="2"/>
<feComposite in2="hardAlpha" operator="arithmetic" k2="-1" k3="1"/>
<feColorMatrix type="matrix" values="0 0 0 0 0 0 0 0 0 0 0 0 0 0 0 0 0 0 0.1 0"/>
<feBlend mode="normal" in2="shape" result="effect1_innerShadow_1_495"/>
</filter>
</defs>
</svg>
