<svg xmlns="http://www.w3.org/2000/svg" width="66.451" height="66.31" viewBox="0 0 66.451 66.31">
  <path id="Path_2872" data-name="Path 2872" d="M125.452,61.152h-64.3a1.073,1.073,0,0,0-1.072,1.071V83.388a1.072,1.072,0,0,0,1.071,1.071H72.122V126.39a1.072,1.072,0,0,0,1.071,1.071h40.235a1.072,1.072,0,0,0,1.071-1.071V84.46h10.955a1.072,1.072,0,0,0,1.071-1.071V62.224a1.071,1.071,0,0,0-1.071-1.071ZM102.777,72.6v52.722H98.49V72.6Zm-6.432,52.722H74.263V72.6H96.346Zm16.008,0h-7.432V72.6h7.432Zm12.027-43H114.5V71.526a1.072,1.072,0,0,0-1.071-1.071H73.191a1.072,1.072,0,0,0-1.071,1.071v10.79h-9.9V63.3h62.164Z" transform="translate(-60.075 -61.152)" fill="#004986"/>
</svg>
