<svg xmlns="http://www.w3.org/2000/svg" width="62.164" height="62.163" viewBox="0 0 62.164 62.163">
  <path id="noun-safety-box-5751990" d="M71.335,12.5H15.971a3.4,3.4,0,0,0-3.4,3.4V66.271a3.4,3.4,0,0,0,3.4,3.4H18v4.113a.88.88,0,0,0,.881.881h5.885a.88.88,0,0,0,.881-.881V69.669H61.663v4.113a.88.88,0,0,0,.881.881h5.885a.88.88,0,0,0,.881-.881V69.669h2.03a3.4,3.4,0,0,0,3.4-3.4V15.9a3.4,3.4,0,0,0-3.4-3.4ZM23.882,72.9H19.76V69.668h4.123Zm43.662,0H63.421V69.668h4.123Zm5.427-6.63a1.638,1.638,0,0,1-1.636,1.636H15.971a1.638,1.638,0,0,1-1.636-1.636V15.9a1.638,1.638,0,0,1,1.636-1.636h55.37A1.638,1.638,0,0,1,72.977,15.9V66.271ZM68.316,18.036H18.988a.88.88,0,0,0-.881.881V26.3H16.949a.88.88,0,0,0-.881.881v8.8a.88.88,0,0,0,.881.881h1.159v8.444H16.949a.88.88,0,0,0-.881.881v8.8a.88.88,0,0,0,.881.881h1.159v7.385a.88.88,0,0,0,.881.881H68.316a.88.88,0,0,0,.881-.881V18.917a.883.883,0,0,0-.882-.881ZM17.83,28.064h2.317V35.1H17.83Zm0,19h2.317V54.1H17.83Zm49.605,15.3H19.869v-6.5h1.158a.88.88,0,0,0,.881-.881v-8.8a.88.88,0,0,0-.881-.881H19.869V36.863h1.158a.88.88,0,0,0,.881-.881v-8.8a.88.88,0,0,0-.881-.881H19.869V19.8H67.435ZM29.273,41.965h2.009a12.347,12.347,0,0,0,3,7.24l-1.423,1.423a.881.881,0,0,0,1.246,1.246l1.423-1.423a12.341,12.341,0,0,0,7.24,3v2.009a.881.881,0,0,0,1.762,0V53.454a12.347,12.347,0,0,0,7.24-3L53.2,51.874a.881.881,0,0,0,1.246-1.246l-1.423-1.423a12.348,12.348,0,0,0,3-7.24H58.03a.881.881,0,0,0,0-1.762H56.021a12.347,12.347,0,0,0-3-7.24l1.423-1.423A.881.881,0,0,0,53.2,30.294l-1.423,1.423a12.347,12.347,0,0,0-7.24-3V26.706a.881.881,0,1,0-1.762,0v2.009a12.346,12.346,0,0,0-7.24,3l-1.423-1.423a.881.881,0,1,0-1.246,1.246l1.423,1.423a12.347,12.347,0,0,0-3,7.24H29.273a.881.881,0,1,0,0,1.762ZM43.652,30.432A10.652,10.652,0,1,1,33,41.084,10.664,10.664,0,0,1,43.652,30.432Zm0,19.63a8.977,8.977,0,1,0-8.977-8.977A8.988,8.988,0,0,0,43.652,50.061Zm0-16.192a7.216,7.216,0,1,1-7.216,7.216A7.224,7.224,0,0,1,43.652,33.869Zm1.195,8.815a.72.72,0,0,0-.719-.719h-.952a2.481,2.481,0,0,1-.4-4.928v-.76a.881.881,0,0,1,1.762,0V37h1.195a.881.881,0,1,1,0,1.761H43.176a.719.719,0,1,0,0,1.438h.952a2.481,2.481,0,0,1,.4,4.928v.76a.881.881,0,1,1-1.761,0v-.727H41.576a.881.881,0,0,1,0-1.761h2.552a.72.72,0,0,0,.719-.719Z" transform="translate(-12.573 -12.5)" fill="#004986"/>
</svg>
