<svg xmlns="http://www.w3.org/2000/svg" width="66.397" height="58.404" viewBox="0 0 66.397 58.404">
  <path id="noun-car-6397317" d="M157.137,178.738,149.4,155.531a1.228,1.228,0,0,0-1.166-.84H105.612a1.229,1.229,0,0,0-1.166.84L96.71,178.737a3.692,3.692,0,0,0-2.985,3.617v18.854a1.229,1.229,0,0,0,1.23,1.23h1.435v9.426a1.229,1.229,0,0,0,1.23,1.23h10.656a1.229,1.229,0,0,0,1.23-1.23v-9.426h34.838v9.426a1.229,1.229,0,0,0,1.23,1.23h10.656a1.229,1.229,0,0,0,1.23-1.23v-9.426h1.435a1.229,1.229,0,0,0,1.23-1.23V182.355a3.692,3.692,0,0,0-2.985-3.617ZM106.5,157.149h40.852l7.172,21.517h-55.2Zm.547,53.486h-8.2v-8.2h8.2Zm47.953,0h-8.2v-8.2H155Zm2.665-10.656H96.184V182.355a1.231,1.231,0,0,1,1.23-1.23h59.019a1.231,1.231,0,0,1,1.23,1.23Zm-53.384-14.654a5.226,5.226,0,1,0,5.226,5.226A5.231,5.231,0,0,0,104.278,185.326Zm0,7.992a2.767,2.767,0,1,1,2.767-2.767A2.77,2.77,0,0,1,104.278,193.318Zm45.29-7.992a5.226,5.226,0,1,0,5.226,5.226,5.231,5.231,0,0,0-5.226-5.226Zm0,7.992a2.767,2.767,0,1,1,2.767-2.767A2.77,2.77,0,0,1,149.568,193.318ZM124.6,186.556v7.992a1.23,1.23,0,0,1-2.459,0v-7.992a1.23,1.23,0,1,1,2.459,0Zm-7.1,0v7.992a1.23,1.23,0,0,1-2.459,0v-7.992a1.23,1.23,0,1,1,2.459,0Zm21.313,0v7.992a1.23,1.23,0,0,1-2.459,0v-7.992a1.23,1.23,0,1,1,2.459,0Zm-7.1,0v7.992a1.23,1.23,0,0,1-2.459,0v-7.992a1.23,1.23,0,1,1,2.459,0Z" transform="translate(-93.726 -154.69)" fill="#004986"/>
</svg>
