<svg xmlns="http://www.w3.org/2000/svg" width="63.336" height="63.336" viewBox="0 0 63.336 63.336">
  <path id="noun-growing-3971185" d="M97.612,86.056h-1.25A3.134,3.134,0,0,0,96.556,85V76.555a3.151,3.151,0,0,0-.232-1.178,3.162,3.162,0,0,0,2.343-3.044V63.888A3.171,3.171,0,0,0,95.5,60.721H70.166V50.6l2.548-2.548H76.5a9.511,9.511,0,0,0,9.5-9.5A1.055,1.055,0,0,0,84.945,37.5H80.722a9.5,9.5,0,0,0-9.477,9.04l-2.881,2.881a1.051,1.051,0,0,0-.309.746v5.9L65.92,53.927a9.5,9.5,0,0,0-9.477-9.04H52.221a1.055,1.055,0,0,0-1.056,1.056,9.511,9.511,0,0,0,9.5,9.5h3.785l3.6,3.6v1.674H42.72a3.171,3.171,0,0,0-3.167,3.167v8.445a3.151,3.151,0,0,0,.232,1.178,3.161,3.161,0,0,0-2.343,3.044V85a3.171,3.171,0,0,0,3.167,3.167h1.25a3.134,3.134,0,0,0-.194,1.056v8.445a3.171,3.171,0,0,0,3.167,3.167h52.78a3.171,3.171,0,0,0,3.167-3.167V89.223a3.171,3.171,0,0,0-3.167-3.167ZM80.722,39.609h3.092A7.4,7.4,0,0,1,76.5,45.943H73.408A7.4,7.4,0,0,1,80.722,39.609ZM60.666,53.332A7.4,7.4,0,0,1,53.352,47h3.092a7.4,7.4,0,0,1,7.314,6.334ZM53.277,88.167V98.723H50.11V88.167ZM46.943,73.389V62.833H50.11V73.389Zm5.278-10.556H65.944V73.389H52.221ZM92.334,73.389H86V62.833h6.334ZM81.778,86.056V75.5h5.278V86.056Zm-10.556,0V75.5h8.445V86.056ZM62.777,75.5V86.056H60.666V75.5Zm2.111,10.556V75.5h4.222V86.056Zm19-12.667H77.556V62.833h6.334Zm-8.445,0H73.333V62.833h2.111Zm-4.222,0H68.055V62.833h3.167ZM58.555,75.5V86.056H55.388V75.5ZM55.388,88.167H57.5V98.723H55.388Zm4.222,0h4.222V98.723H59.61Zm6.334,0h8.445V98.723H65.944Zm10.556,0h4.222V98.723H76.5Zm6.334,0h2.111V98.723H82.834Zm4.222,0h4.222V98.723H87.056Zm2.111-2.111V75.5H93.39a1.056,1.056,0,0,1,1.056,1.056V85a1.056,1.056,0,0,1-1.056,1.056Zm7.389-22.168v8.445A1.056,1.056,0,0,1,95.5,73.389H94.445V62.833H95.5A1.056,1.056,0,0,1,96.556,63.888Zm-54.891,0a1.056,1.056,0,0,1,1.056-1.056h2.111V73.389H42.721a1.056,1.056,0,0,1-1.056-1.056ZM39.554,85V76.555A1.056,1.056,0,0,1,40.609,75.5H53.277V86.056H40.609A1.056,1.056,0,0,1,39.554,85Zm4.222,12.667V89.223a1.056,1.056,0,0,1,1.056-1.056H48V98.723H44.832A1.056,1.056,0,0,1,43.776,97.667Zm54.891,0a1.056,1.056,0,0,1-1.056,1.056H93.39V88.167h4.222a1.056,1.056,0,0,1,1.056,1.056Z" transform="translate(-37.442 -37.498)" fill="#004986"/>
</svg>
