<svg xmlns="http://www.w3.org/2000/svg" width="75.492" height="65.196" viewBox="0 0 75.492 65.196">
  <g id="noun-meter-1306230" transform="translate(-4.8 -86)">
    <path id="Path_2670" data-name="Path 2670" d="M42.546,86A37.79,37.79,0,0,0,4.8,123.746,39.805,39.805,0,0,0,15.324,150.8c.025.028.06.038.089.063a1.532,1.532,0,0,0,.206.146,1.177,1.177,0,0,0,.222.1,1.4,1.4,0,0,0,.228.051,1.082,1.082,0,0,0,.479-.028,1.06,1.06,0,0,0,.231-.082c.035-.016.076-.019.111-.038,5.98-3.583,15.284-7.857,25.656-7.857,10.343,0,19.659,4.274,25.659,7.857a1.245,1.245,0,0,0,.65.181,1.091,1.091,0,0,0,.71-.247,1.44,1.44,0,0,0,.2-.139,39.805,39.805,0,0,0,10.524-27.054A37.794,37.794,0,0,0,42.546,86Zm26.03,62.308c-6.285-3.627-15.613-7.689-26.03-7.689-10.442,0-19.761,4.059-26.033,7.686a37.377,37.377,0,0,1-9.177-24.558,35.209,35.209,0,1,1,70.419,0A37.365,37.365,0,0,1,68.576,148.308Z" transform="translate(0 0)" fill="#004986"/>
    <path id="Path_2671" data-name="Path 2671" d="M173.332,886.549l-6.6,4.794a1.269,1.269,0,0,0,1.49,2.055l6.6-4.794a1.269,1.269,0,0,0-1.49-2.055Z" transform="translate(-151.178 -749.555)" fill="#004986"/>
    <path id="Path_2672" data-name="Path 2672" d="M115.742,805.5a1.271,1.271,0,0,0-1.652-.7l-7.556,3.051a1.268,1.268,0,0,0,.472,2.445,1.228,1.228,0,0,0,.472-.092l7.556-3.05a1.268,1.268,0,0,0,.707-1.652Z" transform="translate(-94.536 -673.125)" fill="#004986"/>
    <path id="Path_2673" data-name="Path 2673" d="M84.108,715.65a1.273,1.273,0,0,0-1.433-1.078L74.6,715.707a1.268,1.268,0,0,0,.174,2.524,1.172,1.172,0,0,0,.181-.013l8.073-1.135a1.274,1.274,0,0,0,1.078-1.433Z" transform="translate(-64.351 -588.698)" fill="#004986"/>
    <path id="Path_2674" data-name="Path 2674" d="M72.466,610.267l8.108.853c.048,0,.089.006.133.006a1.269,1.269,0,0,0,.133-2.53l-8.108-.853a1.241,1.241,0,0,0-1.392,1.129,1.263,1.263,0,0,0,1.125,1.395Z" transform="translate(-62.314 -488.648)" fill="#004986"/>
    <path id="Path_2675" data-name="Path 2675" d="M100.236,488.757l7.651,2.784a1.292,1.292,0,0,0,.435.076,1.268,1.268,0,0,0,.435-2.46l-7.654-2.784a1.268,1.268,0,0,0-.866,2.385Z" transform="translate(-88.603 -374.911)" fill="#004986"/>
    <path id="Path_2676" data-name="Path 2676" d="M163.272,382.107a1.261,1.261,0,0,0,.71.216,1.266,1.266,0,0,0,.707-2.318l-6.754-4.557a1.268,1.268,0,1,0-1.417,2.1Z" transform="translate(-141.571 -270.889)" fill="#004986"/>
    <path id="Path_2677" data-name="Path 2677" d="M239.978,281.526a1.267,1.267,0,1,0-1.884,1.7l5.454,6.06a1.267,1.267,0,0,0,1.884-1.7Z" transform="translate(-218.195 -182.731)" fill="#004986"/>
    <path id="Path_2678" data-name="Path 2678" d="M342.236,210.33a1.27,1.27,0,0,0-2.242,1.192l3.827,7.195a1.271,1.271,0,0,0,2.245-1.192Z" transform="translate(-313.797 -115.816)" fill="#004986"/>
    <path id="Path_2679" data-name="Path 2679" d="M458.3,174.471a1.265,1.265,0,0,0,1.23.961,1.29,1.29,0,0,0,.308-.038,1.267,1.267,0,0,0,.923-1.538l-1.976-7.9a1.267,1.267,0,1,0-2.457.615Z" transform="translate(-422.856 -73.984)" fill="#004986"/>
    <path id="Path_2680" data-name="Path 2680" d="M581.268,160.436a1.268,1.268,0,0,0,1.268-1.268v-8.149a1.268,1.268,0,1,0-2.537,0v8.149A1.268,1.268,0,0,0,581.268,160.436Z" transform="translate(-538.722 -59.707)" fill="#004986"/>
    <path id="Path_2681" data-name="Path 2681" d="M660.619,171.391a1.256,1.256,0,0,0,.263.028,1.27,1.27,0,0,0,1.243-1.005l1.693-7.968a1.271,1.271,0,0,0-2.486-.526l-1.693,7.968a1.269,1.269,0,0,0,.98,1.5Z" transform="translate(-613.285 -70.161)" fill="#004986"/>
    <path id="Path_2682" data-name="Path 2682" d="M753.308,201.641a1.268,1.268,0,0,0-1.7.583l-3.571,7.325a1.265,1.265,0,0,0,.587,1.7,1.23,1.23,0,0,0,.555.13,1.268,1.268,0,0,0,1.138-.713l3.57-7.325A1.272,1.272,0,0,0,753.308,201.641Z" transform="translate(-695.986 -108.186)" fill="#004986"/>
    <path id="Path_2683" data-name="Path 2683" d="M833.492,269.722a1.264,1.264,0,0,0-1.785.159l-5.238,6.247a1.269,1.269,0,0,0,1.947,1.627l5.238-6.247a1.271,1.271,0,0,0-.162-1.785Z" transform="translate(-769.282 -171.793)" fill="#004986"/>
    <path id="Path_2684" data-name="Path 2684" d="M890.005,367.486a1.267,1.267,0,0,0,1.769.282l6.6-4.791a1.269,1.269,0,1,0-1.494-2.051l-6.592,4.788a1.267,1.267,0,0,0-.279,1.772Z" transform="translate(-828.84 -257.264)" fill="#004986"/>
    <path id="Path_2685" data-name="Path 2685" d="M935.132,474.452a1.267,1.267,0,0,0,1.176.793,1.228,1.228,0,0,0,.472-.092l7.559-3.053a1.268,1.268,0,1,0-.948-2.353l-7.559,3.053a1.27,1.27,0,0,0-.7,1.652Z" transform="translate(-871.246 -359.324)" fill="#004986"/>
    <path id="Path_2686" data-name="Path 2686" d="M959.214,592.6a1.269,1.269,0,0,0,1.256,1.091,1.172,1.172,0,0,0,.181-.013l8.073-1.135a1.268,1.268,0,1,0-.352-2.511l-8.073,1.135a1.27,1.27,0,0,0-1.085,1.433Z" transform="translate(-893.875 -472.054)" fill="#004986"/>
    <path id="Path_2687" data-name="Path 2687" d="M970.4,702.164l-8.108-.85a1.267,1.267,0,0,0-.266,2.521l8.108.85c.048,0,.089.006.136.006a1.267,1.267,0,0,0,.13-2.527Z" transform="translate(-895.458 -576.287)" fill="#004986"/>
    <path id="Path_2688" data-name="Path 2688" d="M949.253,795.142l-7.651-2.784a1.269,1.269,0,1,0-.869,2.384l7.651,2.784a1.292,1.292,0,0,0,.435.076,1.268,1.268,0,0,0,.434-2.46Z" transform="translate(-875.797 -661.493)" fill="#004986"/>
    <path id="Path_2689" data-name="Path 2689" d="M899.472,875.6a1.269,1.269,0,1,0-1.421,2.1l6.754,4.557a1.262,1.262,0,0,0,.71.216,1.267,1.267,0,0,0,.711-2.318Z" transform="translate(-836.081 -739.32)" fill="#004986"/>
    <path id="Path_2690" data-name="Path 2690" d="M463.432,450.159l-9.7-11.98a1.266,1.266,0,0,0-2.242.958l1.95,15.246a9.054,9.054,0,1,0,9.988-4.224Zm-2.162,15.306a6.53,6.53,0,0,1-5.447-10.106,1.273,1.273,0,0,0,.2-.856l-1.44-11.257,7.163,8.85a1.265,1.265,0,0,0,.745.45,6.517,6.517,0,0,1-1.218,12.918Z" transform="translate(-418.355 -329.403)" fill="#004986"/>
    <path id="Path_2691" data-name="Path 2691" d="M537.979,700.75a4.626,4.626,0,1,0,4.629,4.626A4.634,4.634,0,0,0,537.979,700.75Zm0,6.719a2.093,2.093,0,1,1,2.09-2.093A2.094,2.094,0,0,1,537.979,707.469Z" transform="translate(-495.031 -575.764)" fill="#004986"/>
  </g>
</svg>
