<svg xmlns="http://www.w3.org/2000/svg" width="66.574" height="66.572" viewBox="0 0 66.574 66.572">
  <g id="noun-expansion-1617511" transform="translate(-75 -75.007)">
    <path id="Path_2692" data-name="Path 2692" d="M757.491,404.719l-12.434-12.43a.783.783,0,0,0-1.076,0l-3.3,3.3a.76.76,0,0,0,0,1.076l5.5,5.5H733.61a.76.76,0,0,0-.761.761v4.668a.761.761,0,0,0,.761.761h12.569l-5.5,5.5a.76.76,0,0,0,0,1.075l3.3,3.3a.759.759,0,0,0,1.074,0L757.49,405.8a.762.762,0,0,0,0-1.077Zm-12.97,11.894-2.226-2.226,6.259-6.258a.76.76,0,0,0-.538-1.3H734.371v-3.146h13.645a.76.76,0,0,0,.538-1.3l-6.259-6.26,2.225-2.225,11.358,11.355Z" transform="translate(-616.14 -296.965)" fill="#004986"/>
    <path id="Path_2693" data-name="Path 2693" d="M86.532,408.182H99.1a.761.761,0,0,0,.761-.761v-4.669a.761.761,0,0,0-.761-.761H86.532l5.5-5.5a.761.761,0,0,0,0-1.076l-3.3-3.3a.759.759,0,0,0-1.076,0l-12.43,12.431a.759.759,0,0,0,0,1.076l12.43,12.431a.761.761,0,0,0,1.076,0l3.3-3.3a.761.761,0,0,0,0-1.076Zm1.659,8.261L76.837,405.087l11.355-11.355,2.225,2.225-6.258,6.259a.76.76,0,0,0,.538,1.3H98.339v3.148H84.7a.76.76,0,0,0-.538,1.3l6.258,6.258Z" transform="translate(0 -296.794)" fill="#004986"/>
    <path id="Path_2694" data-name="Path 2694" d="M414.766,740.69a.76.76,0,0,0-1.076,0l-5.5,5.5V733.62a.76.76,0,0,0-.761-.761h-4.669a.76.76,0,0,0-.761.761v12.567l-5.5-5.5a.783.783,0,0,0-1.076,0l-3.3,3.3a.759.759,0,0,0,0,1.076L404.56,757.5a.76.76,0,0,0,1.075,0l12.432-12.432a.76.76,0,0,0,0-1.076ZM405.1,755.884,393.742,744.53l2.226-2.226,6.258,6.258a.76.76,0,0,0,1.3-.538V734.38h3.148v13.643a.76.76,0,0,0,1.3.538l6.258-6.258,2.225,2.225Z" transform="translate(-296.812 -616.142)" fill="#004986"/>
    <path id="Path_2695" data-name="Path 2695" d="M395.451,92.038a.76.76,0,0,0,1.075,0l5.5-5.5V99.108a.76.76,0,0,0,.761.761h4.668a.761.761,0,0,0,.761-.761V86.54l5.5,5.5a.783.783,0,0,0,1.076,0l3.3-3.3a.76.76,0,0,0,0-1.076l-12.43-12.43a.76.76,0,0,0-1.076,0L392.151,87.661a.76.76,0,0,0,0,1.076Zm9.668-15.194L416.474,88.2l-2.224,2.225-6.259-6.259a.76.76,0,0,0-1.3.538V98.346h-3.145l0-13.643a.76.76,0,0,0-1.3-.538l-6.258,6.259L393.763,88.2Z" transform="translate(-296.834)" fill="#004986"/>
  </g>
</svg>
