<svg xmlns="http://www.w3.org/2000/svg" width="96.774" height="64.844" viewBox="0 0 96.774 64.844">
  <g id="noun-growing-business-5849402" transform="translate(-11.463 -207.207)">
    <path id="Path_2696" data-name="Path 2696" d="M61.425,697.836h-13.4a1.084,1.084,0,0,1-1.095-1.095V673.286a1.084,1.084,0,0,1,1.095-1.095h.066c2.65-.022,5.3-.241,7.774-.482,1.8-.175,3.613-.372,5.409-.613a1.093,1.093,0,0,1,1.226,1.095v24.549a1.066,1.066,0,0,1-1.073,1.095Zm-12.307-2.19H60.331V673.439c-1.423.175-2.847.328-4.249.46-2.212.219-4.555.416-6.964.482Z" transform="translate(-32.553 -425.785)" fill="#004986"/>
    <path id="Path_2697" data-name="Path 2697" d="M313.425,653.46h-13.4a1.084,1.084,0,0,1-1.095-1.095V626.721a1.1,1.1,0,0,1,.9-1.073c2.059-.35,4.161-.766,6.241-1.2,2.387-.5,4.752-1.073,7.074-1.664a1.043,1.043,0,0,1,.942.2,1.112,1.112,0,0,1,.416.854v28.557a1.061,1.061,0,0,1-1.073,1.073Zm-12.307-2.19h11.213V625.231c-1.927.482-3.854.92-5.8,1.336-1.8.394-3.613.745-5.409,1.073Z" transform="translate(-263.858 -381.409)" fill="#004986"/>
    <path id="Path_2698" data-name="Path 2698" d="M565.425,575.853h-13.4a1.084,1.084,0,0,1-1.095-1.095V544.142a1.1,1.1,0,0,1,.766-1.051c4.577-1.423,9.044-3.044,13.315-4.818a1.142,1.142,0,0,1,1.029.088,1.084,1.084,0,0,1,.482.92v35.477a1.1,1.1,0,0,1-1.1,1.1Zm-12.329-2.19h11.213v-32.74c-3.613,1.467-7.38,2.825-11.213,4.029Z" transform="translate(-495.163 -303.802)" fill="#004986"/>
    <path id="Path_2699" data-name="Path 2699" d="M817.165,453.127h-13.4a1.084,1.084,0,0,1-1.095-1.095V413.247a1.121,1.121,0,0,1,.613-.985,120.5,120.5,0,0,0,13.293-7.6,1.078,1.078,0,0,1,1.117-.044,1.114,1.114,0,0,1,.569.964v11.979a1.095,1.095,0,0,1-2.19,0V407.6a125.827,125.827,0,0,1-11.213,6.329v37.032h11.213V440.074a1.095,1.095,0,0,1,2.19,0v11.979a1.08,1.08,0,0,1-1.1,1.073Z" transform="translate(-726.229 -181.076)" fill="#004986"/>
    <path id="Path_2700" data-name="Path 2700" d="M15.47,244.523a4.008,4.008,0,0,1-.044-8.015c2.3-.022,4.708-.219,6.964-.438a155.245,155.245,0,0,0,17.761-2.737c17.542-3.723,32.827-9.964,45.507-18.527l-1.752-1.752a3.336,3.336,0,0,1-.745-3.723,3.377,3.377,0,0,1,3.176-2.124h9.329a3.426,3.426,0,0,1,3.416,3.438v9.329a3.426,3.426,0,0,1-5.847,2.409l-1.8-1.8c-13.775,9.592-30.462,16.534-49.625,20.607a161.559,161.559,0,0,1-18.68,2.869c-2.321.219-5.037.438-7.621.482a.068.068,0,0,0-.044-.022ZM86.316,209.4a1.187,1.187,0,0,0-1.139.766,1.209,1.209,0,0,0,.263,1.358l2.694,2.694a1.186,1.186,0,0,1,.328.876,1.106,1.106,0,0,1-.46.81c-13.14,9.11-29.082,15.723-47.391,19.622a155.222,155.222,0,0,1-18,2.76c-2.3.219-4.774.416-7.161.46a1.818,1.818,0,0,0,.022,3.635h.022c2.519-.022,5.168-.241,7.446-.46a161.737,161.737,0,0,0,18.418-2.825c19.206-4.073,35.871-11.081,49.558-20.783a1.094,1.094,0,0,1,1.4.109l2.453,2.453a1.181,1.181,0,0,0,1.336.263A1.207,1.207,0,0,0,96.87,220v-9.374a1.243,1.243,0,0,0-1.226-1.248H86.315Z" transform="translate(0)" fill="#004986"/>
    <path id="Path_2701" data-name="Path 2701" d="M884.035,567.541a13.1,13.1,0,1,1,13.1-13.1A13.1,13.1,0,0,1,884.035,567.541Zm0-24.023a10.906,10.906,0,1,0,10.906,10.906A10.921,10.921,0,0,0,884.035,543.517Z" transform="translate(-788.894 -306.702)" fill="#004986"/>
    <path id="Path_2702" data-name="Path 2702" d="M961.258,655.732a1.027,1.027,0,0,1-.766-.328l-3.329-3.329a1.1,1.1,0,0,1,1.555-1.555l2.54,2.54,5.8-5.8a1.1,1.1,0,0,1,1.555,1.555l-6.57,6.57a1.135,1.135,0,0,1-.789.351Z" transform="translate(-867.735 -403.61)" fill="#004986"/>
  </g>
</svg>
