<svg xmlns="http://www.w3.org/2000/svg" width="51.528" height="51.528" viewBox="0 0 51.528 51.528">
  <g id="noun_money_settings_2423892" data-name="noun_money settings_2423892" transform="translate(-7 -959.362)">
    <path id="Path_273" data-name="Path 273" d="M27.858,7a.619.619,0,0,0-.487.6v6.759a17.269,17.269,0,0,0-3.5,1.5l-5.093-4.512a.622.622,0,0,0-.824.019l-6.591,6.591a.622.622,0,0,0-.019.824l4.531,5.093a18.5,18.5,0,0,0-1.517,3.5H7.6a.623.623,0,0,0-.6.6v9.587a.623.623,0,0,0,.6.6h6.759A20.6,20.6,0,0,0,15.875,42.2l-4.512,4.512a.622.622,0,0,0,0,.843l6.591,6.591a.623.623,0,0,0,.861,0l4.456-4.456a18.683,18.683,0,0,0,4.1,2.022v6.216a.623.623,0,0,0,.6.6h9.587a.6.6,0,1,0,0-1.2H28.57V51.338a.617.617,0,0,0-.449-.58A17.829,17.829,0,0,1,23.5,48.436a.618.618,0,0,0-.749.075l-4.363,4.363-5.729-5.729,4.363-4.381a.616.616,0,0,0,.094-.693,19.63,19.63,0,0,1-1.741-4.662.617.617,0,0,0-.58-.449H8.2V28.57h6.591a.617.617,0,0,0,.58-.449,17.168,17.168,0,0,1,1.741-4.044.616.616,0,0,0-.075-.712L12.617,18.4,18.4,12.617l4.981,4.419a.615.615,0,0,0,.693.056,15.891,15.891,0,0,1,4.044-1.741.617.617,0,0,0,.449-.562V8.2h8.388v6.591a.617.617,0,0,0,.449.562,15.891,15.891,0,0,1,4.044,1.741.615.615,0,0,0,.693-.056l4.981-4.419L52.911,18.4l-4.419,4.962a.616.616,0,0,0-.075.712,17.168,17.168,0,0,1,1.741,4.044.617.617,0,0,0,.58.449H57.33v8.388H50.739a.617.617,0,0,0-.58.449,19.63,19.63,0,0,1-1.741,4.662.616.616,0,0,0,.094.693l4.363,4.381-5.729,5.729-4.363-4.363a.618.618,0,0,0-.749-.075,17.829,17.829,0,0,1-4.625,2.322.617.617,0,0,0-.449.58v3a.6.6,0,1,0,1.2,0V51.712a18.683,18.683,0,0,0,4.1-2.022l4.456,4.456a.623.623,0,0,0,.861,0l6.591-6.591a.622.622,0,0,0,0-.843L49.653,42.2a20.6,20.6,0,0,0,1.517-4.044h6.759a.623.623,0,0,0,.6-.6V27.971a.623.623,0,0,0-.6-.6H51.169a18.5,18.5,0,0,0-1.517-3.5l4.531-5.093a.622.622,0,0,0-.019-.824l-6.591-6.591a.622.622,0,0,0-.824-.019l-5.093,4.512a17.269,17.269,0,0,0-3.5-1.5V7.6a.623.623,0,0,0-.6-.6Zm4.906,13.8a11.962,11.962,0,0,0-11.347,8.182.6.6,0,1,0,1.123.374A10.8,10.8,0,0,1,43.568,32.2a.6.6,0,1,0,1.161-.075A11.966,11.966,0,0,0,32.764,20.8Zm-.075,4.756a.621.621,0,0,0-.524.618c0,.42,0,.859,0,1.273a5.613,5.613,0,0,0-2.228.73,2.68,2.68,0,0,0-1.348,1.835,2.328,2.328,0,0,0,.955,2.078,6.764,6.764,0,0,0,3.108,1.254,5.823,5.823,0,0,1,2.584,1.011c.465.382.565.695.524.992a1.506,1.506,0,0,1-.786.974,4.831,4.831,0,0,1-2.209.637h-.037a16.066,16.066,0,0,1-3.408-.58.6.6,0,1,0-.281,1.161,19.609,19.609,0,0,0,3.127.58c0,.408,0,.825,0,1.236a.6.6,0,1,0,1.2,0c0-.415,0-.844,0-1.254a5.682,5.682,0,0,0,2.247-.768,2.628,2.628,0,0,0,1.329-1.816,2.364,2.364,0,0,0-.955-2.1,6.76,6.76,0,0,0-3.108-1.254,5.852,5.852,0,0,1-2.584-.992,1.093,1.093,0,0,1-.524-1.011,1.5,1.5,0,0,1,.786-.974A4.922,4.922,0,0,1,32.8,28.57h.019a14.159,14.159,0,0,1,3.389.58.6.6,0,1,0,.3-1.161,17.363,17.363,0,0,0-3.146-.6c0-.4,0-.812,0-1.217A.626.626,0,0,0,32.689,25.555Zm-11.4,7.209a.62.62,0,0,0-.487.637,11.972,11.972,0,0,0,23.311,3.146.6.6,0,1,0-1.123-.374A10.8,10.8,0,0,1,21.96,33.326.624.624,0,0,0,21.286,32.764Z" transform="translate(0 952.362)" fill="#01295b"/>
  </g>
</svg>
