<svg id="calendar" xmlns="http://www.w3.org/2000/svg" width="50" height="42" viewBox="0 0 50 42">
  <g id="Group_5" data-name="Group 5">
    <g id="noun_Financial_plan_763894" data-name="noun_Financial plan_763894">
      <g id="noun_pay_day_2357871" data-name="noun_pay day_2357871" transform="translate(8)">
        <path id="Combined_Shape" data-name="Combined Shape" d="M.525,42A.526.526,0,0,1,0,41.475V4.521A.526.526,0,0,1,.525,4H5.858V.525A.526.526,0,0,1,6.384,0h4.663a.526.526,0,0,1,.525.525V4H30.428V.525A.526.526,0,0,1,30.954,0h4.663a.526.526,0,0,1,.525.525V4h5.333A.526.526,0,0,1,42,4.521V41.475a.526.526,0,0,1-.526.526Zm27.9-1.05H40.95V26.823H28.429Zm-13.809,0H27.38V26.823H14.621Zm-13.57,0H13.57V26.823H1.05ZM28.429,25.772H40.95V11.725H28.429Zm-13.809,0H27.38V11.725H14.621Zm-13.57,0H13.57V11.725H1.05Zm0-15.1h39.9V5.046H36.141V7.915a.526.526,0,0,1-.525.526H30.954a.526.526,0,0,1-.526-.526V5.046H11.571V7.915a.526.526,0,0,1-.525.526H6.384a.526.526,0,0,1-.526-.526V5.046H1.05ZM31.478,7.39h3.613V1.05H31.478Zm-24.57,0h3.614V1.05H6.908ZM20.985,23.46v-.418a2.554,2.554,0,0,1-1.906-2.506.515.515,0,1,1,1.029,0,1.433,1.433,0,1,0,1.432-1.5h-.079A2.524,2.524,0,0,1,19,16.463a2.551,2.551,0,0,1,1.985-2.526v-.4a.515.515,0,1,1,1.03,0v.418a2.556,2.556,0,0,1,1.906,2.506.515.515,0,1,1-1.03,0,1.433,1.433,0,1,0-1.431,1.5h.079A2.524,2.524,0,0,1,24,20.537a2.551,2.551,0,0,1-1.985,2.526v.4a.515.515,0,1,1-1.03,0Z" fill="#01295b"/>
      </g>
    </g>
  </g>
</svg>
