<svg xmlns="http://www.w3.org/2000/svg" width="65.239" height="44.002" viewBox="0 0 65.239 44.002">
  <g id="noun_save_the_money_2256497" data-name="noun_save the money_2256497" transform="translate(-7 -973.358)">
    <path id="Path_272" data-name="Path 272" d="M60.268,21a7.364,7.364,0,0,0-5.429,2.442,31.184,31.184,0,0,0-11.877-2.418c-13.331,0-24.361,7.865-25.792,18.372q-.013.023-.024.047l-.024.427a8.3,8.3,0,0,0-1.4-.735,9.056,9.056,0,0,0-3.248-.687,5.405,5.405,0,1,0,0,10.81.759.759,0,1,0,0-1.517,3.888,3.888,0,1,1,0-7.776,7.982,7.982,0,0,1,2.679.593,4.641,4.641,0,0,1,1.968,1.328.759.759,0,0,0,1.4-.356l.142-1.92v-.047c1.33-9.543,11.584-17.021,24.3-17.021a29.793,29.793,0,0,1,11.853,2.489.759.759,0,0,0,.9-.237,1.711,1.711,0,0,0,.213-.308,5.89,5.89,0,0,1,4.338-1.968,6.074,6.074,0,0,1,.711.024,5.334,5.334,0,0,1,2.3,1L60.149,27.02a.759.759,0,0,0,.095,1.114,18.7,18.7,0,0,1,6.258,8.25.759.759,0,0,0,.711.5h3.509v9.364H67.214a.759.759,0,0,0-.711.5,19.08,19.08,0,0,1-7.064,8.795.759.759,0,0,0-.261.877l2.7,7.064h-7.7l-1.422-3.769a.759.759,0,0,0-.925-.474,30.555,30.555,0,0,1-17.661,0,.759.759,0,0,0-.948.474L31.8,63.48H24.116l2.7-7.064a.759.759,0,0,0-.284-.877,19.653,19.653,0,0,1-6.685-7.918.759.759,0,1,0-1.375.616,20.932,20.932,0,0,0,6.733,8.131L22.29,63.955A.759.759,0,0,0,23,65h9.316a.759.759,0,0,0,.711-.5L34.4,60.849a31.06,31.06,0,0,0,17.163,0L52.942,64.5a.759.759,0,0,0,.711.5H62.97a.759.759,0,0,0,.711-1.043l-2.892-7.562a20.511,20.511,0,0,0,6.9-8.629h3.793A.759.759,0,0,0,72.239,47V36.124a.759.759,0,0,0-.759-.759H67.688a20.113,20.113,0,0,0-5.9-7.894l3.2-3.58a.759.759,0,0,0-.047-1.067,7.2,7.2,0,0,0-3.769-1.8A7.118,7.118,0,0,0,60.268,21Zm-17.5,9.151a.759.759,0,0,0-.664.782v1.659c-2.724.4-4.883,2.411-4.883,4.978a4.258,4.258,0,0,0,1.446,3.177,7.777,7.777,0,0,0,4.077,1.707,6.342,6.342,0,0,1,3.3,1.351,2.613,2.613,0,0,1,.948,2.039c0,1.9-1.868,3.556-4.338,3.556a4.512,4.512,0,0,1-4.006-2.157.759.759,0,1,0-1.328.711,5.873,5.873,0,0,0,4.789,2.94V52.5a.759.759,0,1,0,1.517,0V50.845c2.724-.4,4.883-2.435,4.883-5a4.209,4.209,0,0,0-1.446-3.153,7.786,7.786,0,0,0-4.077-1.731,6.341,6.341,0,0,1-3.3-1.351,2.613,2.613,0,0,1-.948-2.039c0-1.9,1.868-3.556,4.338-3.556a4.471,4.471,0,0,1,3.983,2.157.763.763,0,0,0,1.351-.711,5.85,5.85,0,0,0-4.789-2.916V30.932a.759.759,0,0,0-.853-.782Zm16.855,3.034a1.9,1.9,0,1,0,1.9,1.9A1.9,1.9,0,0,0,59.628,33.184Z" transform="translate(0 952.362)" fill="#01295b"/>
  </g>
</svg>
