<svg xmlns="http://www.w3.org/2000/svg" width="44.865" height="44.865" viewBox="0 0 44.865 44.865">
  <g id="noun_loan_1823282" transform="translate(-10 -10)">
    <path id="Path_274" data-name="Path 274" d="M67.184,54.223h.153a3.2,3.2,0,1,1-3.215,3.2.561.561,0,1,0-1.122,0,4.33,4.33,0,0,0,3.622,4.259v1.139a.561.561,0,0,0,1.122,0v-1.1a4.321,4.321,0,0,0-.407-8.625h-.153A3.2,3.2,0,1,1,70.4,49.9a.561.561,0,0,0,1.122,0,4.331,4.331,0,0,0-3.775-4.282V44.5a.561.561,0,0,0-1.122,0v1.116a4.32,4.32,0,0,0,.561,8.6Z" transform="translate(-23.21 -14.907)" fill="#01295b"/>
    <path id="Path_275" data-name="Path 275" d="M54.3,22.646H41.61V10.561A.561.561,0,0,0,41.05,10H10.561a.561.561,0,0,0-.561.561V51.63a.561.561,0,0,0,.561.561H32.506V54.3a.561.561,0,0,0,.561.561H54.3a.561.561,0,0,0,.561-.561v-31.1A.561.561,0,0,0,54.3,22.646ZM40.083,11.122l-2.656,4.748H14.169l-2.656-4.748ZM11.122,51.069V12.719l2.23,3.985a.561.561,0,0,0,.49.287H37.757a.561.561,0,0,0,.49-.287l2.243-4.009v9.951H33.067a.561.561,0,0,0-.561.561V40.122H27.584a.561.561,0,1,0,0,1.122h4.922v5.014H27.584a.561.561,0,1,0,0,1.122h4.922v3.69Zm42.622,2.675H33.628V23.768H53.744Z" fill="#01295b"/>
    <path id="Path_276" data-name="Path 276" d="M27.129,63.71H17.894a.561.561,0,0,0-.561.561v6.135a.561.561,0,0,0,.561.561h9.235a.561.561,0,0,0,.561-.561V64.271A.561.561,0,0,0,27.129,63.71Zm-.561,6.135H18.455V64.832h8.113Z" transform="translate(-3.221 -23.589)" fill="#01295b"/>
  </g>
</svg>
