<svg xmlns="http://www.w3.org/2000/svg" width="42.001" height="42" viewBox="0 0 42.001 42">
  <g id="noun_Mortgage_3790610" transform="translate(0.001 -4)">
    <g id="house" transform="translate(0 4)">
      <path id="Combined_Shape" data-name="Combined Shape" d="M4.605,42a.526.526,0,0,1-.526-.526V16.653l-3.2,2.929a.525.525,0,1,1-.708-.775L20.58.138a.524.524,0,0,1,.708,0l6.491,5.936V2.144a.526.526,0,0,1,.525-.525h6.543a.526.526,0,0,1,.525.525V13.019l6.458,5.907a.525.525,0,1,1-.708.775l-3.2-2.928v24.7A.526.526,0,0,1,37.4,42ZM5.13,15.692V40.95H36.87V15.813L20.934,1.237Zm23.7-8.657,5.493,5.024V2.668H28.829ZM20.475,34.2V32.675a5.151,5.151,0,0,1-4.539-5.1.525.525,0,1,1,1.049,0,4.109,4.109,0,1,0,4.108-4.09h-.188a5.137,5.137,0,0,1-.431-10.257v-1.5a.525.525,0,0,1,1.05,0v1.523a5.152,5.152,0,0,1,4.539,5.1.525.525,0,0,1-1.05,0,4.108,4.108,0,1,0-4.108,4.09h.188a5.137,5.137,0,0,1,.431,10.257v1.5a.525.525,0,0,1-1.05,0Z" transform="translate(0)" fill="#01295b"/>
    </g>
  </g>
</svg>
