<svg xmlns="http://www.w3.org/2000/svg" width="21.154" height="15.866" viewBox="0 0 21.154 15.866">
  <g id="Group_670" data-name="Group 670" transform="translate(-1643 -2949.134)">
    <g id="Group_489" data-name="Group 489" transform="translate(0 194)">
      <path id="envelope" d="M19.171,64H1.983A1.983,1.983,0,0,0,0,65.983v11.9a1.983,1.983,0,0,0,1.983,1.983H19.171a1.983,1.983,0,0,0,1.983-1.983v-11.9A1.983,1.983,0,0,0,19.171,64Zm0,1.983v1.686c-.926.754-2.4,1.927-5.561,4.4-.7.547-2.074,1.862-3.033,1.847-.959.016-2.338-1.3-3.033-1.847-3.157-2.472-4.634-3.645-5.561-4.4V65.983ZM1.983,77.883V70.214c.947.754,2.289,1.812,4.336,3.415.9.711,2.485,2.28,4.258,2.271,1.765.01,3.326-1.537,4.258-2.27,2.046-1.6,3.389-2.661,4.336-3.415v7.668Z" transform="translate(1643 2691.134)" fill="#00214e"/>
    </g>
  </g>
</svg>
