<svg xmlns="http://www.w3.org/2000/svg" width="20.305" height="15.229" viewBox="0 0 20.305 15.229">
  <path id="envelope" d="M18.4,64H1.9A1.9,1.9,0,0,0,0,65.9V77.325a1.9,1.9,0,0,0,1.9,1.9H18.4a1.9,1.9,0,0,0,1.9-1.9V65.9A1.9,1.9,0,0,0,18.4,64Zm0,1.9v1.618c-.889.724-2.307,1.85-5.338,4.223-.668.525-1.991,1.788-2.911,1.773-.92.015-2.244-1.248-2.911-1.773-3.03-2.373-4.448-3.5-5.338-4.223V65.9ZM1.9,77.325V69.965c.909.724,2.2,1.74,4.162,3.278.867.682,2.385,2.189,4.087,2.179,1.694.009,3.193-1.475,4.087-2.179C16.2,71.7,17.493,70.689,18.4,69.965v7.361Z" transform="translate(0 -64)" fill="#00214e"/>
</svg>
