<svg id="Equal_Housing" data-name="Equal Housing" xmlns="http://www.w3.org/2000/svg" width="66" height="72" viewBox="0 0 66 72">
  <rect id="Equal_Housing_background" data-name="Equal Housing background" width="66" height="72" fill="none"/>
  <path id="equal-housing-lender-1" d="M0,18.414,32.725,0l32,18.6v6.472H59.615V47.95H5.014V25.069H0ZM32.722,6.937,11.665,19.153V42.125H53.323V19.153L32.722,6.937ZM21.523,27.9V22.252H43.309V27.9Zm0,2.818H43.309v5.652H21.523ZM33.361,65.737v-7.2H37.19c2.735,0,4.649.821,4.649,3.738,0,2.826-1.732,3.464-4.74,3.464H33.361Zm2-5.655v4.1h1.641c1.549,0,2.644-.273,2.644-1.914a2.228,2.228,0,0,0-2.461-2.188H35.366Zm17.876,5.655v-7.2h5.287c2.005,0,2.826.639,2.826,2.279,0,1.185-.639,1.732-2.006,1.915l2.1,3.008H59.258l-2.1-3.008H55.247v3.008H53.242Zm5-5.653H55.238v1.094h2.917c1,0,1.276,0,1.276-.547,0-.455-.365-.547-1.185-.547ZM22.427,58.535v7.2h1.914V61.361l3.829,4.375h2.279v-7.2H28.535V63l-3.829-4.467Zm-18.7,0v7.2h7.2v-1.55l-5.2-.091v-5.56Zm9.218,7.2h7.019v-1.55H15.044v-1.55h4.1V61.179h-4.1V60.085h4.922v-1.55H12.947Zm31.086-7.2v7.2l6.927-.091V64.187H46.038v-1.55h4.193V61.179H46.038V60.085H50.96v-1.55ZM17.95,56.708l1.823-6.472h1.55l1.823,6.472h-1.42l-.4-1.458H19.681l-.4,1.458H17.95Zm2.56-5.091-.547,2.552h1.185ZM7.837,54.338V52.606c0-1.641.547-2.552,2.188-2.552,1.823,0,2.188,1.094,2.188,2.644v1.368a3.263,3.263,0,0,1-.365,1.732l1.094.365-.091.456c-3.737,0-5.013-.091-5.013-2.28ZM9.2,52.7v1.55c0,1.185.183,1.55.821,1.55.729,0,.821-.273.821-1.458V52.606c0-1.276-.091-1.458-.729-1.458-.821,0-.912.365-.912,1.55Zm35.645,2.278c0,1,.638,1.824,2.1,1.824a2.141,2.141,0,0,0,2.279-1.824c0-1.55-2.917-2.279-2.917-3.282,0-.365.365-.547.729-.547.547,0,.821.365,1.094.912l.912-.365a1.835,1.835,0,0,0-2.1-1.641c-1.094,0-2.005.547-2.005,1.641,0,1.824,2.917,2.279,2.917,3.464,0,.456-.273.639-.821.639s-.912-.365-1.094-1l-1.094.181Zm-9.834-.365v-2.1c0-1.732.821-2.462,2.188-2.462,1.732,0,2.188.638,2.188,2.279v2.006c0,1.732-.456,2.462-2.188,2.462s-2.188-.639-2.188-2.188Zm1.364-2.188v2.005c0,.912.091,1.368.821,1.368.547,0,.821-.365.821-1.458V52.423c0-.729-.091-1.368-.821-1.368s-.821.547-.821,1.368Zm20.595,1.914c0,1.914.547,2.462,2.37,2.462,1.411,0,1.823-.662,1.823-1.368v-2.1H59.25v1h.638v.729c0,.547-.182.821-.638.821-.912,0-1-.639-1-1.55V52.878c0-1.094.091-1.823,1-1.823a1.109,1.109,0,0,1,1.094,1.094l.911-.365a1.838,1.838,0,0,0-2.1-1.732c-1.823,0-2.188,1-2.188,2.37v1.915Zm-17.038-4.1v3.737c0,2.188.375,2.888,2.289,2.888,1.458,0,1.995-.791,1.995-2.7v-3.92H42.941v3.737c0,1.458-.091,1.824-.821,1.824s-.821-.547-.821-1.914V50.235Zm12.117,0v6.472h1.094V52.332l1.55,4.376h1.641V50.236H55.241v4.011l-1.458-4.011Zm-38.553,0v3.92c0,1.823.183,2.644,2.006,2.644,2.1,0,2.188-1,2.188-2.826V50.235H16.414v3.829c0,1.276-.182,1.641-.821,1.641-.729,0-.821-.365-.821-1.823V50.235Zm16.5,0v6.472h1.276V53.791h1.55v2.917h1.276V50.236H32.819V52.7h-1.55V50.236Zm-26.346,0v6.472H6.929v-1H4.924V53.882H6.747V52.97H4.924V51.238H6.929v-1Zm20.053,0v6.472h3.008v-1H24.794v-5.47Zm26.173,0h1.185v6.472H49.874Z" transform="translate(1.28 3.131)" fill="#fff"/>
</svg>
