<svg id="white_house" data-name="white house" xmlns="http://www.w3.org/2000/svg" width="49" height="49" viewBox="0 0 49 49">
  <g id="noun_Mortgage_3790610">
    <path id="Combined_Shape" data-name="Combined Shape" d="M5.373,49a.613.613,0,0,1-.613-.612V19.428L1.026,22.845a.613.613,0,0,1-.827-.9L24.01.16a.613.613,0,0,1,.826,0l7.573,6.926V2.5a.613.613,0,0,1,.612-.613h7.634a.613.613,0,0,1,.612.613V15.189L48.8,22.081a.611.611,0,0,1,.039.865.615.615,0,0,1-.453.2.608.608,0,0,1-.412-.161L44.24,19.569V48.388a.613.613,0,0,1-.612.612Zm.612-30.692V47.775h37.03V18.448L24.423,1.443Zm27.649-10.1,6.408,5.862V3.114H33.634ZM24.4,39.4V37.65A5.9,5.9,0,0,1,19.215,31.8a.6.6,0,1,1,1.2,0A4.693,4.693,0,1,0,25.107,27.1h-.215A5.9,5.9,0,0,1,24.4,15.329V13.6a.6.6,0,1,1,1.2,0V15.35A5.9,5.9,0,0,1,30.785,21.2a.6.6,0,1,1-1.2,0A4.693,4.693,0,1,0,24.892,25.9h.215A5.9,5.9,0,0,1,25.6,37.671V39.4a.6.6,0,1,1-1.2,0Z" fill="#fff"/>
  </g>
</svg>
