<svg id="noun_Question_727770" xmlns="http://www.w3.org/2000/svg" width="49.176" height="76.496" viewBox="0 0 49.176 76.496">
  <g id="question">
    <path id="Shape" d="M20.858,72.93A3.212,3.212,0,1,1,24.071,76.1,3.193,3.193,0,0,1,20.858,72.93ZM22.464,65c0-8.5,1.45-14.277,3.715-18.43a24.968,24.968,0,0,1,8.181-8.622c2.872-2.025,5.547-3.653,7.43-6.044s3.162-5.6,3.162-11.3A15.948,15.948,0,0,0,38.527,8.126,23.62,23.62,0,0,0,24.071,3.171c-10.52,0-19,7.165-20.881,14.616A1.594,1.594,0,0,1,2.1,19.04,1.619,1.619,0,0,1,.47,18.65a1.57,1.57,0,0,1-.392-1.607C2.383,7.928,12.092,0,24.071,0A26.693,26.693,0,0,1,40.535,5.7a19.151,19.151,0,0,1,7.629,14.913c0,6.192-1.533,10.269-3.864,13.228s-5.284,4.75-8.031,6.689a21.81,21.81,0,0,0-7.278,7.58C27.041,51.684,25.677,56.855,25.677,65a1.606,1.606,0,0,1-3.212,0Z" transform="translate(0)" fill="#00214e"/>
  </g>
</svg>
