<svg xmlns="http://www.w3.org/2000/svg" width="51.031" height="68.104" viewBox="0 0 51.031 68.104">
  <g id="noun_Time_1835240" transform="translate(-97.895 -45)">
    <path id="Path_269" data-name="Path 269" d="M142.439,57.1V48.228h4.874a1.614,1.614,0,0,0,0-3.228h-47.8a1.614,1.614,0,1,0,0,3.228h4.1v8.741a11.871,11.871,0,0,0,3.948,8.834l14.207,12.719L108.141,91.26a11.9,11.9,0,0,0-3.759,8.661v9.955H99.509a1.614,1.614,0,1,0,0,3.228h47.8a1.614,1.614,0,1,0,0-3.228h-4.1v-9.823a11.871,11.871,0,0,0-3.948-8.834L125.058,78.5,138.68,65.762A11.9,11.9,0,0,0,142.439,57.1Zm-2.454,42.952v9.823H107.61V99.921a8.659,8.659,0,0,1,2.736-6.3l13.088-12.239,13.677,12.245A8.64,8.64,0,0,1,139.985,100.053ZM136.475,63.4,123.387,75.643,109.71,63.4a8.64,8.64,0,0,1-2.874-6.43V48.228h32.375V57.1A8.658,8.658,0,0,1,136.475,63.4Z" transform="translate(0)" fill="#00214e"/>
  </g>
</svg>
