<svg id="noun_Bicycle_1221690" xmlns="http://www.w3.org/2000/svg" width="98.352" height="81.96" viewBox="0 0 98.352 81.96">
  <g id="bike" transform="translate(0 0)">
    <path id="Combined_Shape" data-name="Combined Shape" d="M16.477,65.648A15.6,15.6,0,0,1,39.857,52.2l3.474-5.083L38.423,45.2a2.7,2.7,0,0,1-1.742-1.9,3.864,3.864,0,0,1,.936-3.2C38.634,39,39.973,37.381,41.6,35.3c1.329-1.69,3.461-4.485,3.819-5.117,4.021-7.144,6.447-11.456,10.271-14.678a1.246,1.246,0,0,1,.795-.284,1.278,1.278,0,0,1,.138.008,1.213,1.213,0,0,1,.841.483c.3.4.615.808.95,1.236l.022.027c2.169,2.78,4.412,5.654,4.791,8.971a10.467,10.467,0,0,1,.02,1.908L73.27,30.03c2.345.439,3.891,2.369,3.518,4.4a3.609,3.609,0,0,1-2.624,2.668v9.248l2.228,4.708A15.473,15.473,0,1,1,66.211,65.535a15.154,15.154,0,0,1,2.214-7.883A15.914,15.914,0,0,1,74.2,52.094L72.6,48.729,61.174,60.7c-.412,2.736-.754,5.043-.758,5.063a1.207,1.207,0,0,1-1.2,1.03H47.742a15.659,15.659,0,0,1-31.265-1.15Zm2.437,0A13.223,13.223,0,0,0,45.3,66.793H32.165a1.213,1.213,0,0,1-1.218-1.2,1.148,1.148,0,0,1,.228-.662l-.019-.013,7.332-10.719A13.167,13.167,0,0,0,18.914,65.645ZM70.468,58.95a12.82,12.82,0,0,0-1.821,6.583,13.42,13.42,0,1,0,8.786-12.292l5.576,11.78a1.2,1.2,0,0,1-.587,1.6,1.251,1.251,0,0,1-.514.114,1.224,1.224,0,0,1-1.107-.693L75.225,54.27A13.421,13.421,0,0,0,70.468,58.95ZM51.5,46.252,54.312,48a1.2,1.2,0,0,1,.571,1.037l-.168,15.35h3.446c.406-2.745,1.551-10.374,1.967-12.957.139-.861.288-1.594.42-2.242L60.585,49l0-.012c.524-2.525.591-2.848-.936-3.926-.423-.308-1.709-1.245-3.387-2.311l-.634-.405a1.2,1.2,0,0,1-.41-1.584l2.136-3.912a1.216,1.216,0,0,1-.866-.712l-3.741-8.8a1.19,1.19,0,0,1-.006-.919,1.208,1.208,0,0,1,.657-.66,1.233,1.233,0,0,1,.474-.1,1.213,1.213,0,0,1,1.121.74l3.439,8.092.945.025a.1.1,0,0,1,.032,0l13.33.4h.052c.81,0,1.5-.4,1.6-.937.121-.682-.585-1.409-1.542-1.588l-.958-.15L61.646,29.963a1.212,1.212,0,0,1-.936-1.352,9.551,9.551,0,0,0,.1-2.4c-.3-2.64-2.344-5.255-4.144-7.562l-.023-.029-.016-.02c-.11-.138-.214-.268-.308-.394-2.974,2.875-5.269,6.944-8.742,13.1l-.029.05c-.47.837-2.681,3.708-3.958,5.345l-.059.076c-1.689,2.155-3.07,3.82-4.105,4.95a1.549,1.549,0,0,0-.369,1.029c.008.03.027.107.265.2l8.937,3.491a1.39,1.39,0,0,0,.5.084A4.2,4.2,0,0,0,50,46.277l.469-.151a1.264,1.264,0,0,1,.377-.058A1.238,1.238,0,0,1,51.5,46.252Zm-9.623,7.293A15.448,15.448,0,0,1,45.9,58.289a15.229,15.229,0,0,1,1.826,6.094h4.549l.158-14.7-1.752-1.086a6.567,6.567,0,0,1-1.938.345,3.8,3.8,0,0,1-1.39-.252l-1.7-.665ZM34.461,64.383H45.292a12.928,12.928,0,0,0-4.781-8.845ZM57.9,40.928c1.5.966,2.626,1.779,3.052,2.086l.007,0c2.928,2.07,2.566,3.818,2.017,6.464l0,.006v.006c-.138.662-.294,1.411-.441,2.31-.149.924-.408,2.6-.73,4.73l9.924-10.409V37.309L60.07,36.955ZM3.747,67.223a1.27,1.27,0,0,1,0-2.536H7.661a1.27,1.27,0,0,1,0,2.536ZM1.206,63.417a1.27,1.27,0,0,1,0-2.536H12.737a1.27,1.27,0,0,1,0,2.536ZM10.1,57.076a1.269,1.269,0,0,1,0-2.536h3.884a1.269,1.269,0,0,1,0,2.536ZM24.04,38.05a1.269,1.269,0,0,1,0-2.536h3.887a1.269,1.269,0,0,1,0,2.536Zm-6.353-5.073a1.27,1.27,0,0,1,0-2.537h17.86a1.27,1.27,0,0,1,0,2.537ZM35.448,27.9a1.269,1.269,0,0,1,0-2.536h3.886a1.269,1.269,0,0,1,0,2.536ZM62.86,16.634a8.87,8.87,0,1,1,4.3,1.122A8.814,8.814,0,0,1,62.86,16.634ZM61.6,5.761a6.408,6.408,0,0,0,2.471,8.706,6.128,6.128,0,0,0,2.987.761,6.556,6.556,0,0,0,5.7-3.239A6.39,6.39,0,1,0,61.6,5.761Z" transform="translate(0 0)" fill="#00214e"/>
  </g>
</svg>
