<svg xmlns="http://www.w3.org/2000/svg" width="98" height="55" viewBox="0 0 98 55">
  <g id="noun_Mortarboard_957482" transform="translate(0.219 -0.352)">
    <g id="cap" transform="translate(-0.219 0.352)">
      <path id="Shape" d="M49,55a61.253,61.253,0,0,1-21.544-3.7,25.685,25.685,0,0,1-6.671-3.6c-1.865-1.484-2.734-2.86-2.734-4.33V26.572L9.513,23.367V35.2a2.083,2.083,0,0,1,1.067,1.818,2.135,2.135,0,0,1-4.269,0A2.082,2.082,0,0,1,7.379,35.2V22.573L.608,20.028a1.113,1.113,0,0,1,0-1.983L48.633.063A1.28,1.28,0,0,1,49.028,0a.857.857,0,0,1,.338.063L97.392,18.045a1.113,1.113,0,0,1,0,1.983L79.949,26.572V43.365c0,1.47-.869,2.846-2.734,4.33a25.684,25.684,0,0,1-6.671,3.6A61.253,61.253,0,0,1,49,55ZM20.185,27.365v16c0,.551.508,1.543,1.935,2.677a23.893,23.893,0,0,0,6.1,3.273,51.941,51.941,0,0,0,9.306,2.548A64.471,64.471,0,0,0,49,52.884a64.471,64.471,0,0,0,11.472-1.022,51.941,51.941,0,0,0,9.306-2.548,23.892,23.892,0,0,0,6.1-3.273c1.426-1.134,1.935-2.126,1.935-2.677v-16L49.367,38.01a1.092,1.092,0,0,1-.733,0ZM49,2.178,3.976,19.036,49,35.894,94.024,19.036Z" transform="translate(0 0)" fill="#00214e"/>
    </g>
  </g>
</svg>
