<svg xmlns="http://www.w3.org/2000/svg" width="87" height="86" viewBox="0 0 87 86">
  <g id="noun_career_2839726" transform="translate(-0.139 -0.017)">
    <g id="person" transform="translate(0.139 0.017)">
      <path id="Combined_Shape" data-name="Combined Shape" d="M19.4,86a1.011,1.011,0,0,1,0-2.021H37.5A1.011,1.011,0,1,1,37.5,86ZM43.648,75.9a1.01,1.01,0,0,1,0-2.02h18.1a1.01,1.01,0,0,1,0,2.02ZM26.106,71.969a5.127,5.127,0,0,1-2.551-6.778L35.322,39.218l2.77-9.342-5.84.3L28.89,36.795a5.094,5.094,0,0,1-4.568,2.8,5.146,5.146,0,0,1-2.315-.553,5.133,5.133,0,0,1-2.239-6.889l4.085-8.046a7.489,7.489,0,0,1,6.28-4.082l16.912-.87H47.1a.943.943,0,0,1,.216.023l16.148,3.589,5.809-3.288a4.938,4.938,0,0,1,2.429-.625,5.254,5.254,0,0,1,4.547,2.56,5.119,5.119,0,0,1-1.934,6.975L67.577,32.2a7.566,7.566,0,0,1-5.3.792l-10.43-2.315L49.38,38.953l5.358,2.6A7.47,7.47,0,0,1,58.9,49.2L57.086,63.773a5.126,5.126,0,0,1-5.076,4.491,5.235,5.235,0,0,1-.634-.04,5.12,5.12,0,0,1-4.453-5.712L48.485,49.9l-5.544-2.687-10.057,22.2a5.134,5.134,0,0,1-4.668,3.009A5.078,5.078,0,0,1,26.106,71.969ZM39.47,27.785a1,1,0,0,1,.794.386,1.019,1.019,0,0,1,.174.913L37.213,39.922,25.4,66.027a3.1,3.1,0,0,0,1.543,4.1,2.959,2.959,0,0,0,1.226.26,3.185,3.185,0,0,0,2.877-1.806L41.53,45.437a1.034,1.034,0,0,1,.578-.535,1,1,0,0,1,.345-.062.985.985,0,0,1,.439.1L50.021,48.4a1.018,1.018,0,0,1,.56,1.035L48.928,62.761a3.1,3.1,0,0,0,.634,2.287,3.061,3.061,0,0,0,2.061,1.172,3.19,3.19,0,0,0,.389.024,3.1,3.1,0,0,0,3.069-2.717l1.81-14.575a5.457,5.457,0,0,0-3.034-5.583L47.724,40.4a1.008,1.008,0,0,1-.53-1.193l2.976-10a1,1,0,0,1,.96-.724,1.014,1.014,0,0,1,.224.026L62.7,31.03a5.4,5.4,0,0,0,1.168.127,5.512,5.512,0,0,0,2.7-.706l6.737-3.81a3.106,3.106,0,0,0,1.172-4.229,3.191,3.191,0,0,0-2.755-1.549,3.005,3.005,0,0,0-1.472.377l-6.148,3.482a1,1,0,0,1-.5.13,1.087,1.087,0,0,1-.219-.023L47,21.186l-16.772.863a5.475,5.475,0,0,0-4.585,2.978l-4.084,8.048a3.1,3.1,0,0,0,1.359,4.165,2.979,2.979,0,0,0,1.364.323,3.153,3.153,0,0,0,2.8-1.683l3.627-7.141a1.01,1.01,0,0,1,.848-.55l7.852-.4ZM67.9,65.794a1.01,1.01,0,0,1,0-2.02H85.99a1.01,1.01,0,0,1,0,2.02ZM.174,61.543a1.011,1.011,0,0,1,.271-1.4L21.17,46.109A1.011,1.011,0,0,1,22.3,47.784L1.578,61.812a1,1,0,0,1-.565.174A1.006,1.006,0,0,1,.174,61.543Zm.941-8.568a1.01,1.01,0,0,1,.272-1.4l13.3-9a1.01,1.01,0,1,1,1.132,1.673l-13.3,9a1.009,1.009,0,0,1-1.4-.271Zm.936-8.567a1.011,1.011,0,0,1,.271-1.4l9.113-6.168a1.01,1.01,0,0,1,1.132,1.673L3.453,44.678a1.007,1.007,0,0,1-1.4-.27ZM43.081,8.4a8.394,8.394,0,1,1,8.395,8.395A8.405,8.405,0,0,1,43.081,8.4Zm2.023,0A6.373,6.373,0,1,0,51.476,2.02,6.381,6.381,0,0,0,45.1,8.4Z" fill="#00214e"/>
    </g>
  </g>
</svg>
