<svg xmlns="http://www.w3.org/2000/svg" width="82.002" height="88" viewBox="0 0 82.002 88">
  <path id="icon_retirement" data-name="icon/retirement" d="M40,78V41.343a12.9,12.9,0,0,0-3.723-2.9A11.571,11.571,0,0,0,31,37a11.8,11.8,0,0,0-5.556,1.522,11.16,11.16,0,0,0-3.632,3.041,1,1,0,0,1-1.625,0A12.4,12.4,0,0,0,11,37a12.791,12.791,0,0,0-9.187,4.594A1,1,0,0,1,0,40.969,39.6,39.6,0,0,1,3.365,25.291,42.886,42.886,0,0,1,25.311,3.309a38.852,38.852,0,0,1,31.381,0A42.886,42.886,0,0,1,78.638,25.291,39.616,39.616,0,0,1,82,40.969a1,1,0,0,1-1.813.625A12.791,12.791,0,0,0,71,37a12.4,12.4,0,0,0-9.187,4.563,1,1,0,0,1-1.625,0,11.16,11.16,0,0,0-3.632-3.041A11.8,11.8,0,0,0,51,37a11.571,11.571,0,0,0-5.277,1.446A12.9,12.9,0,0,0,42,41.343V78c0,4.86,3.14,8,8,8s8-3.14,8-8a1,1,0,1,1,2,0A9.672,9.672,0,0,1,50,88,9.672,9.672,0,0,1,40,78ZM36.776,36.418A14.873,14.873,0,0,1,41,39.562a14.879,14.879,0,0,1,4.226-3.144A12.854,12.854,0,0,1,51,35a13.072,13.072,0,0,1,5.81,1.382A13.8,13.8,0,0,1,61,39.532,13.921,13.921,0,0,1,65.2,36.384,13.055,13.055,0,0,1,71,35a14.058,14.058,0,0,1,8.688,3.281,38.406,38.406,0,0,0-3.917-13.966,40.886,40.886,0,0,0-8.542-11.55A39.793,39.793,0,0,0,55.246,4.9a36.394,36.394,0,0,0-28.489,0,39.782,39.782,0,0,0-11.984,7.862A40.872,40.872,0,0,0,6.23,24.315,38.409,38.409,0,0,0,2.313,38.282,14.07,14.07,0,0,1,11,35a13.055,13.055,0,0,1,5.805,1.384A13.913,13.913,0,0,1,21,39.532a13.809,13.809,0,0,1,4.19-3.15A13.072,13.072,0,0,1,31,35,12.861,12.861,0,0,1,36.776,36.418ZM53.23,68.706a14.6,14.6,0,0,1-3.1-4.628,14.547,14.547,0,1,1,3.1,4.628ZM54.774,49.8a12.08,12.08,0,0,0-3.625,8.656A12.347,12.347,0,0,0,63.5,70.77a12.269,12.269,0,1,0,0-24.538A12.345,12.345,0,0,0,54.774,49.8ZM10.23,68.706a14.587,14.587,0,0,1-3.1-4.628A14.517,14.517,0,0,1,30.772,48.216,14.507,14.507,0,1,1,10.23,68.706ZM11.774,49.8a12.079,12.079,0,0,0-3.624,8.656A12.347,12.347,0,0,0,20.5,70.77a12.269,12.269,0,1,0,0-24.538A12.347,12.347,0,0,0,11.774,49.8ZM62.381,68v-2.2a8.49,8.49,0,0,1-2.423-.538A6.116,6.116,0,0,1,58,64.058l.717-1.564a6.731,6.731,0,0,0,2.016,1.239,6.336,6.336,0,0,0,2.248.386,3.548,3.548,0,0,0,2.218-.609,2.083,2.083,0,0,0,.785-1.748,1.469,1.469,0,0,0-.417-1.087,2.749,2.749,0,0,0-1.037-.64q-.62-.224-1.724-.528a18.136,18.136,0,0,1-2.364-.772,3.951,3.951,0,0,1-1.561-1.2,3.352,3.352,0,0,1-.649-2.155,3.826,3.826,0,0,1,1.134-2.794,4.87,4.87,0,0,1,2.993-1.372V49h1.628v2.216a7,7,0,0,1,2.122.569,5.678,5.678,0,0,1,1.7,1.138l-.716,1.544a5.676,5.676,0,0,0-3.915-1.585,3.3,3.3,0,0,0-2.132.64,2.135,2.135,0,0,0-.795,1.758,1.726,1.726,0,0,0,.446,1.229,2.917,2.917,0,0,0,1.1.732,15.821,15.821,0,0,0,1.8.538,17.231,17.231,0,0,1,2.286.732,3.767,3.767,0,0,1,1.493,1.139A3.182,3.182,0,0,1,68,61.7a3.72,3.72,0,0,1-1.085,2.723,4.857,4.857,0,0,1-2.907,1.341V68Zm-43,0v-2.2a8.477,8.477,0,0,1-2.422-.538A6.1,6.1,0,0,1,15,64.058l.716-1.564a6.742,6.742,0,0,0,2.016,1.239,6.34,6.34,0,0,0,2.248.386,3.548,3.548,0,0,0,2.219-.609,2.081,2.081,0,0,0,.785-1.748,1.469,1.469,0,0,0-.417-1.087,2.749,2.749,0,0,0-1.037-.64q-.62-.224-1.724-.528a18.182,18.182,0,0,1-2.364-.772,3.951,3.951,0,0,1-1.561-1.2,3.358,3.358,0,0,1-.649-2.155,3.826,3.826,0,0,1,1.134-2.794,4.874,4.874,0,0,1,2.994-1.372V49h1.627v2.216a7,7,0,0,1,2.122.569,5.655,5.655,0,0,1,1.7,1.138l-.716,1.544a5.676,5.676,0,0,0-3.915-1.585,3.3,3.3,0,0,0-2.132.64,2.135,2.135,0,0,0-.794,1.758,1.729,1.729,0,0,0,.445,1.229,2.917,2.917,0,0,0,1.1.732,15.821,15.821,0,0,0,1.8.538,17.25,17.25,0,0,1,2.287.732,3.764,3.764,0,0,1,1.492,1.139A3.182,3.182,0,0,1,25,61.7a3.72,3.72,0,0,1-1.085,2.723,4.857,4.857,0,0,1-2.907,1.341V68Z" transform="translate(0)" fill="#00214e"/>
</svg>
