<svg xmlns="http://www.w3.org/2000/svg" width="29.198" height="29.191" viewBox="0 0 29.198 29.191">
  <path id="instagram" d="M14.527,38.936a7.484,7.484,0,1,0,7.484,7.484A7.472,7.472,0,0,0,14.527,38.936Zm0,12.35a4.866,4.866,0,1,1,4.866-4.866A4.875,4.875,0,0,1,14.527,51.286ZM24.063,38.63a1.746,1.746,0,1,1-1.746-1.746A1.742,1.742,0,0,1,24.063,38.63ZM29.02,40.4a8.639,8.639,0,0,0-2.358-6.116,8.7,8.7,0,0,0-6.116-2.358c-2.41-.137-9.634-.137-12.044,0a8.683,8.683,0,0,0-6.116,2.351A8.667,8.667,0,0,0,.028,40.4c-.137,2.41-.137,9.634,0,12.044a8.639,8.639,0,0,0,2.358,6.116A8.707,8.707,0,0,0,8.5,60.914c2.41.137,9.634.137,12.044,0a8.639,8.639,0,0,0,6.116-2.358,8.7,8.7,0,0,0,2.358-6.116c.137-2.41.137-9.627,0-12.037ZM25.906,55.025A4.926,4.926,0,0,1,23.132,57.8c-1.922.762-6.481.586-8.6.586s-6.69.169-8.6-.586a4.926,4.926,0,0,1-2.775-2.775c-.762-1.922-.586-6.481-.586-8.6s-.169-6.69.586-8.6a4.926,4.926,0,0,1,2.775-2.775c1.922-.762,6.481-.586,8.6-.586s6.69-.169,8.6.586a4.926,4.926,0,0,1,2.775,2.775c.762,1.922.586,6.481.586,8.6S26.669,53.11,25.906,55.025Z" transform="translate(0.075 -31.825)" fill="#fff"/>
</svg>
