<svg xmlns="http://www.w3.org/2000/svg" width="27.899" height="27.899" viewBox="0 0 27.899 27.899">
  <path id="linkedin" d="M25.906,32H1.987A2,2,0,0,0,0,34.011V57.887A2,2,0,0,0,1.987,59.9H25.906A2.007,2.007,0,0,0,27.9,57.887V34.011A2.007,2.007,0,0,0,25.906,32ZM8.432,55.913H4.3V42.6H8.438V55.913ZM6.364,40.781a2.4,2.4,0,1,1,2.4-2.4A2.4,2.4,0,0,1,6.364,40.781ZM23.932,55.913H19.8V49.437c0-1.544-.031-3.531-2.148-3.531-2.155,0-2.485,1.681-2.485,3.419v6.589H11.029V42.6H15v1.818h.056a4.355,4.355,0,0,1,3.917-2.148c4.185,0,4.963,2.759,4.963,6.346Z" transform="translate(0 -32)" fill="#fff"/>
</svg>
