<svg xmlns="http://www.w3.org/2000/svg" width="13.052" height="20.922" viewBox="0 0 13.052 20.922">
  <path id="Pin" d="M24.722,28.66l-.048-.072q-1.778-2.982-3.354-6.057c-.746-1.431-1.442-2.884-2.05-4.373a18.733,18.733,0,0,1-.842-2.43,5.516,5.516,0,0,1-.216-1.342,7.638,7.638,0,0,1,.034-.958,6.255,6.255,0,0,1,.6-2,6.533,6.533,0,0,1,12.3,1.622,6.065,6.065,0,0,1,.115,1.189,5.457,5.457,0,0,1-.194,1.346A19.182,19.182,0,0,1,30.09,18.4c-.392.937-.82,1.864-1.271,2.777-1.234,2.505-2.609,4.947-4.018,7.347A1.41,1.41,0,0,1,24.722,28.66ZM20.8,14.273a3.933,3.933,0,1,0,1.18-2.793A3.933,3.933,0,0,0,20.8,14.273Z" transform="translate(-18.208 -7.739)" fill="#00214e"/>
</svg>
