<svg xmlns="http://www.w3.org/2000/svg" width="18.268" height="29.281" viewBox="0 0 18.268 29.281">
  <path id="Pin" d="M27.325,37.02l-.068-.1q-2.489-4.173-4.695-8.477c-1.044-2-2.018-4.037-2.869-6.12a26.219,26.219,0,0,1-1.179-3.4,7.72,7.72,0,0,1-.3-1.878,10.69,10.69,0,0,1,.047-1.341,8.754,8.754,0,0,1,.84-2.8,9.143,9.143,0,0,1,17.215,2.271,8.488,8.488,0,0,1,.161,1.664,7.637,7.637,0,0,1-.271,1.883,26.846,26.846,0,0,1-1.366,3.936c-.548,1.312-1.147,2.609-1.779,3.886-1.727,3.506-3.651,6.923-5.623,10.283A1.973,1.973,0,0,1,27.325,37.02ZM21.833,16.883a5.5,5.5,0,1,0,1.651-3.91A5.5,5.5,0,0,0,21.833,16.883Z" transform="translate(-18.208 -7.739)" fill="#00214e"/>
</svg>
