<svg id="Member_FDIC" data-name="Member FDIC" xmlns="http://www.w3.org/2000/svg" width="117" height="72" viewBox="0 0 117 72">
  <rect id="Member_FDIC_background" data-name="Member FDIC background" width="117" height="72" fill="none"/>
  <path id="Shape" d="M106.536,71.979c-.82,0-1.645-.038-2.452-.113s-1.6-.186-2.376-.333-1.542-.329-2.289-.545-1.478-.465-2.191-.747-1.408-.6-2.081-.94-1.329-.72-1.96-1.123-1.244-.839-1.828-1.3-1.15-.952-1.684-1.464-1.049-1.058-1.528-1.62-.939-1.159-1.361-1.767a22.247,22.247,0,0,1-2.177-3.941,22.643,22.643,0,0,1-.793-2.155,23.13,23.13,0,0,1-.58-2.266,23.848,23.848,0,0,1-.357-2.368c-.081-.808-.121-1.636-.121-2.46a24.61,24.61,0,0,1,.123-2.464A23.858,23.858,0,0,1,83.243,44a23.338,23.338,0,0,1,.589-2.282,22.863,22.863,0,0,1,1.812-4.236c.366-.662.77-1.312,1.2-1.934s.891-1.223,1.379-1.8,1.006-1.128,1.547-1.651,1.113-1.025,1.7-1.495,1.213-.917,1.848-1.328,1.3-.8,1.981-1.151,1.388-.678,2.1-.965,1.463-.548,2.211-.768,1.532-.411,2.309-.561,1.591-.267,2.394-.344,1.643-.117,2.468-.117a27.972,27.972,0,0,1,2.85.137,23.109,23.109,0,0,1,2.556.4,24.16,24.16,0,0,1,2.4.651c.75.244,1.53.533,2.385.884V39.469c-.966-.6-1.755-1.057-2.484-1.441a20.018,20.018,0,0,0-2.343-1.068,13.937,13.937,0,0,0-2.374-.664c-.409-.075-.83-.133-1.252-.171s-.874-.058-1.324-.058a12.454,12.454,0,0,0-2.415.235,11.93,11.93,0,0,0-2.245.679A11.6,11.6,0,0,0,97.3,41.3a11.933,11.933,0,0,0-1.1,2.076,12.466,12.466,0,0,0-.691,2.331,13.431,13.431,0,0,0-.241,2.548,13.993,13.993,0,0,0,.237,2.592,12.473,12.473,0,0,0,.683,2.344,11.588,11.588,0,0,0,1.085,2.066,11.131,11.131,0,0,0,3.2,3.178A11.539,11.539,0,0,0,102.5,59.49a12.207,12.207,0,0,0,2.256.653,13.209,13.209,0,0,0,2.439.224,15.106,15.106,0,0,0,2.472-.192,13.725,13.725,0,0,0,2.324-.6,25.189,25.189,0,0,0,4.981-2.529V69.076c-.312.239-.638.466-.969.672s-.689.408-1.047.586-.745.349-1.134.5-.807.289-1.23.41-.877.23-1.335.321-.951.169-1.449.23-1.031.108-1.571.139S107.122,71.979,106.536,71.979Zm-25.269-.235H68.756V26.213H81.267V71.745Zm-68.359,0H.4V26.213H26.081V36.746H12.991l.083,7.05h12.1V54.329H12.991l-.083,17.416h0Zm28.093,0H27.828V26.213h15.99a28.6,28.6,0,0,1,9.771,1.6,20.9,20.9,0,0,1,7.441,4.565,19.933,19.933,0,0,1,4.738,7.162,25.7,25.7,0,0,1,1.662,9.394c0,.95-.04,1.887-.118,2.785s-.2,1.764-.351,2.6a23.86,23.86,0,0,1-.578,2.417,21.252,21.252,0,0,1-.8,2.234,19.491,19.491,0,0,1-1.013,2.052,18.5,18.5,0,0,1-1.222,1.87,18.239,18.239,0,0,1-1.424,1.689,18.71,18.71,0,0,1-1.62,1.509,19.854,19.854,0,0,1-1.811,1.329,21.7,21.7,0,0,1-1.995,1.15c-.69.351-1.421.678-2.173.971s-1.538.559-2.345.793-1.65.441-2.511.616-1.758.323-2.671.439-1.863.2-2.825.263S42.012,71.745,41,71.745Zm1.826-35.088c-.251,0-.53.015-.854.033-.423.023-.9.049-1.466.049V61.288h0a26.535,26.535,0,0,0,2.949-.157,19.635,19.635,0,0,0,2.727-.495c.435-.113.86-.242,1.263-.384s.81-.307,1.188-.481a11.961,11.961,0,0,0,1.106-.583A10.785,10.785,0,0,0,50.76,58.5a10.038,10.038,0,0,0,.922-.8,9.719,9.719,0,0,0,.82-.912,9.848,9.848,0,0,0,.712-1.031,10.458,10.458,0,0,0,.6-1.153,11.586,11.586,0,0,0,.476-1.28,13.325,13.325,0,0,0,.348-1.411c.094-.494.166-1.014.214-1.546s.073-1.107.073-1.686c0-.5-.02-.989-.059-1.461s-.1-.925-.175-1.366-.172-.862-.286-1.271a12.055,12.055,0,0,0-.391-1.176,11.009,11.009,0,0,0-.492-1.081,10.284,10.284,0,0,0-.589-.986,9.8,9.8,0,0,0-1.446-1.689A12.434,12.434,0,0,0,42.828,36.657ZM79.6,19.744a6.49,6.49,0,0,1-1.254-.111,4.667,4.667,0,0,1-1.076-.345,6.136,6.136,0,0,1-1.9-1.451l-1.16,1.576H72.481V4.484a9.922,9.922,0,0,0-.06-1.333,2.042,2.042,0,0,0-.107-.438.974.974,0,0,0-.186-.312.888.888,0,0,0-.287-.207,1.668,1.668,0,0,0-.409-.123A7.3,7.3,0,0,0,70.16,2V.005h5.8v7.05c.413-.348.77-.625,1.09-.845a6.353,6.353,0,0,1,.981-.565A4.8,4.8,0,0,1,80.1,5.231a4.876,4.876,0,0,1,3.213,1.163,5.525,5.525,0,0,1,.806.848,6.464,6.464,0,0,1,.65,1.042A7.691,7.691,0,0,1,85.252,9.5a9.879,9.879,0,0,1,.4,2.864,10.662,10.662,0,0,1-.409,3.043,6.763,6.763,0,0,1-1.186,2.327,5.221,5.221,0,0,1-1.9,1.488A6.081,6.081,0,0,1,79.6,19.744ZM78.946,7.628a3.311,3.311,0,0,0-.75.081,2.5,2.5,0,0,0-.637.241,2.346,2.346,0,0,0-.529.4,2.8,2.8,0,0,0-.424.554,3.967,3.967,0,0,0-.323.705,6.047,6.047,0,0,0-.226.854,9.333,9.333,0,0,0-.133,1c-.029.353-.043.737-.043,1.143a6.64,6.64,0,0,0,.777,3.421,2.822,2.822,0,0,0,.936.964,2.418,2.418,0,0,0,1.27.342,2.25,2.25,0,0,0,1.117-.288,2.689,2.689,0,0,0,.923-.894,4.877,4.877,0,0,0,.628-1.547,9.857,9.857,0,0,0,.232-2.247,9.4,9.4,0,0,0-.207-2.068,4.742,4.742,0,0,0-.58-1.477,2.6,2.6,0,0,0-.891-.886A2.251,2.251,0,0,0,78.946,7.628ZM95.179,19.662a8.243,8.243,0,0,1-2.765-.448,6.166,6.166,0,0,1-2.206-1.335,6.026,6.026,0,0,1-1.46-2.205,8.425,8.425,0,0,1-.528-3.061A8.9,8.9,0,0,1,88.7,9.675a7.422,7.422,0,0,1,.572-1.256,6.683,6.683,0,0,1,.774-1.082A6.217,6.217,0,0,1,91,6.451a6.068,6.068,0,0,1,1.132-.662,6.6,6.6,0,0,1,2.714-.558,6.391,6.391,0,0,1,2.64.538A5.629,5.629,0,0,1,99.5,7.294a6.939,6.939,0,0,1,1.28,2.38,10.222,10.222,0,0,1,.449,3.1h-9.2a5.366,5.366,0,0,0,.9,3.234,3.036,3.036,0,0,0,1.091.917,3.334,3.334,0,0,0,1.488.327,4.336,4.336,0,0,0,.7-.053,3.228,3.228,0,0,0,.6-.156,2.675,2.675,0,0,0,.512-.254,2.555,2.555,0,0,0,.428-.345,2.813,2.813,0,0,0,.35-.431,3.493,3.493,0,0,0,.279-.51,5.435,5.435,0,0,0,.365-1.236h2.485a7.165,7.165,0,0,1-.654,2.312,5.246,5.246,0,0,1-3.11,2.726A7.13,7.13,0,0,1,95.179,19.662ZM94.849,7.376a2.787,2.787,0,0,0-1.113.214,2.219,2.219,0,0,0-.834.626,2.846,2.846,0,0,0-.523,1.015,4.863,4.863,0,0,0-.181,1.38h5.22A5.7,5.7,0,0,0,97.26,9.2a3.205,3.205,0,0,0-.2-.556,2.35,2.35,0,0,0-.278-.455,1.982,1.982,0,0,0-.359-.354,2.03,2.03,0,0,0-.442-.253,2.5,2.5,0,0,0-.525-.152A3.5,3.5,0,0,0,94.849,7.376Zm-59.9,12.285a8.35,8.35,0,0,1-2.778-.448,6.306,6.306,0,0,1-2.234-1.335,6.051,6.051,0,0,1-1.489-2.205,8.258,8.258,0,0,1-.541-3.061,9.269,9.269,0,0,1,.125-1.532A8.243,8.243,0,0,1,28.4,9.675a7.4,7.4,0,0,1,.585-1.256,6.757,6.757,0,0,1,.789-1.082,6.334,6.334,0,0,1,.976-.884,6.206,6.206,0,0,1,1.145-.662,6.682,6.682,0,0,1,2.726-.558,5.762,5.762,0,0,1,4.609,2.063,6.938,6.938,0,0,1,1.252,2.38,10.478,10.478,0,0,1,.436,3.1h-9.2a6.492,6.492,0,0,0,.242,1.819,4.231,4.231,0,0,0,.7,1.415,3.147,3.147,0,0,0,1.12.917,3.414,3.414,0,0,0,1.5.327,4.336,4.336,0,0,0,.7-.053,3.226,3.226,0,0,0,.6-.156,2.673,2.673,0,0,0,.512-.254,2.556,2.556,0,0,0,.428-.345,2.82,2.82,0,0,0,.35-.431,3.49,3.49,0,0,0,.279-.51,5.43,5.43,0,0,0,.365-1.236h2.4a7.37,7.37,0,0,1-.641,2.312,5.3,5.3,0,0,1-1.254,1.69,5.227,5.227,0,0,1-1.8,1.037A7.019,7.019,0,0,1,34.952,19.662ZM34.62,7.376a2.787,2.787,0,0,0-1.113.214,2.219,2.219,0,0,0-.834.626A2.846,2.846,0,0,0,32.15,9.23a4.862,4.862,0,0,0-.181,1.38h5.137a7.4,7.4,0,0,0-.039-.782,4.852,4.852,0,0,0-.117-.668,3.214,3.214,0,0,0-.194-.557,2.291,2.291,0,0,0-.272-.45,1.9,1.9,0,0,0-.35-.345,1.933,1.933,0,0,0-.427-.242,2.407,2.407,0,0,0-.5-.143A3.408,3.408,0,0,0,34.62,7.376ZM69.167,19.241H61.048V17.085h0c.977,0,1.486-.039,1.738-.259a.728.728,0,0,0,.217-.476,6.452,6.452,0,0,0,.031-.841V10.532a8.751,8.751,0,0,0-.078-1.306,2.634,2.634,0,0,0-.3-.933,1.347,1.347,0,0,0-.606-.56,2.352,2.352,0,0,0-1.01-.187,2.889,2.889,0,0,0-1.414.347,2.957,2.957,0,0,0-1.01.938,4.4,4.4,0,0,0-.606,1.374,6.525,6.525,0,0,0-.2,1.653v3.4c0,.844.045,1.289.3,1.534a.743.743,0,0,0,.238.15,1.512,1.512,0,0,0,.336.088,6.812,6.812,0,0,0,1.031.052V19.24H52.349V17.084h0a6.187,6.187,0,0,0,1.161-.078,1.094,1.094,0,0,0,.619-.3.811.811,0,0,0,.159-.259,1.557,1.557,0,0,0,.087-.348,7.575,7.575,0,0,0,.044-1.011V10.2a4.6,4.6,0,0,0-.1-1.031,2.641,2.641,0,0,0-.141-.438,1.936,1.936,0,0,0-.211-.376,1.623,1.623,0,0,0-.289-.306,1.67,1.67,0,0,0-.374-.228,2.114,2.114,0,0,0-.467-.143,3.088,3.088,0,0,0-.568-.049,2.831,2.831,0,0,0-1.352.32,2.726,2.726,0,0,0-.957.872,4.052,4.052,0,0,0-.568,1.292,6.331,6.331,0,0,0-.188,1.58v2.322a5.939,5.939,0,0,0,.249,2.53.912.912,0,0,0,.59.41,5.429,5.429,0,0,0,1.149.129V19.24h-8.2V17.084h.031a14.563,14.563,0,0,0,1.563-.047,1.992,1.992,0,0,0,.48-.109.845.845,0,0,0,.322-.211c.338-.364.338-1.089.338-2.535h0V9.621a5.734,5.734,0,0,0-.078-1.164,1.276,1.276,0,0,0-.132-.367.783.783,0,0,0-.225-.252,1.679,1.679,0,0,0-.823-.246c-.355-.037-.793-.044-1.476-.044V5.557H49.2V7.8a7.185,7.185,0,0,1,1.978-1.918,5.005,5.005,0,0,1,.589-.312,4.807,4.807,0,0,1,.637-.231,4.973,4.973,0,0,1,.689-.144,5.555,5.555,0,0,1,.747-.049,5.309,5.309,0,0,1,.708.046,4.377,4.377,0,0,1,.636.133,3.89,3.89,0,0,1,.57.215,3.779,3.779,0,0,1,.51.291,5.078,5.078,0,0,1,1.553,1.8,12.888,12.888,0,0,1,1.134-1.076,6.512,6.512,0,0,1,1.1-.749,5.122,5.122,0,0,1,2.485-.58,6.611,6.611,0,0,1,1.1.085,4.042,4.042,0,0,1,.886.25,2.883,2.883,0,0,1,.694.409,2.694,2.694,0,0,1,.522.563,4.063,4.063,0,0,1,.61,1.563,11.086,11.086,0,0,1,.167,2.107v5.557a3.693,3.693,0,0,0,.049.74.592.592,0,0,0,.243.4,1.258,1.258,0,0,0,.583.161c.259.025.587.03,1.067.03h.709v2.156Zm-60.3,0H0V17.084H0a9.391,9.391,0,0,0,1.675-.109,1.559,1.559,0,0,0,.861-.389,1.282,1.282,0,0,0,.317-.762A9.611,9.611,0,0,0,2.9,14.6V4.395a5.256,5.256,0,0,0-.1-1.247,1.285,1.285,0,0,0-.159-.383.849.849,0,0,0-.256-.257,1.9,1.9,0,0,0-.88-.236c-.388-.034-.88-.034-1.5-.034V0H8.865l4.142,12.192L17.482,0h8.782V2.239h0c-.358,0-.664.009-.938.028a6.008,6.008,0,0,0-.727.09,2.694,2.694,0,0,0-.541.158,1.4,1.4,0,0,0-.381.232,1.27,1.27,0,0,0-.394.717,5.278,5.278,0,0,0-.083,1.1V15.176a4.868,4.868,0,0,0,.059.963,1.092,1.092,0,0,0,.124.333.805.805,0,0,0,.231.249,2.031,2.031,0,0,0,.914.286,14.006,14.006,0,0,0,1.737.076V19.24H15.99V17.084c3.148-.166,3.148-.166,3.148-2.4V4.063L13.421,19.24H11.184L5.882,4.063V14.928a3.94,3.94,0,0,0,.1,1.06,1.131,1.131,0,0,0,.423.64,2.128,2.128,0,0,0,.905.329,11.4,11.4,0,0,0,1.55.127V19.24Zm103.381,0H103.3V17.084h0a14.622,14.622,0,0,0,1.576-.056,1.542,1.542,0,0,0,.812-.266.717.717,0,0,0,.2-.258,1.33,1.33,0,0,0,.1-.366,8.422,8.422,0,0,0,.043-1.129V9.371c0-1.825-.579-1.825-2.734-1.825V5.556h6.132V7.464a12.357,12.357,0,0,1,.958-.98,6.024,6.024,0,0,1,.927-.7,3.888,3.888,0,0,1,.958-.42,3.826,3.826,0,0,1,1.051-.14,3.367,3.367,0,0,1,1.261.236,2.944,2.944,0,0,1,1.652,1.653,3.376,3.376,0,0,1,.236,1.262,3.079,3.079,0,0,1-.163,1.019,2.289,2.289,0,0,1-.458.785,2.019,2.019,0,0,1-.706.505,2.29,2.29,0,0,1-.908.179,2.117,2.117,0,0,1-.752-.133,1.818,1.818,0,0,1-.6-.374,1.706,1.706,0,0,1-.4-.577,1.941,1.941,0,0,1-.043-1.365,1.784,1.784,0,0,1,.29-.516,2.4,2.4,0,0,1,.446-.422,3.844,3.844,0,0,1,.57-.345,2.225,2.225,0,0,0-.829-.166,3.2,3.2,0,0,0-.859.112,2.693,2.693,0,0,0-.72.319,3.159,3.159,0,0,0-1.051,1.155,7.591,7.591,0,0,0-.766,3.639v2.986a5.921,5.921,0,0,0,.064,1.073,1.285,1.285,0,0,0,.108.338.7.7,0,0,0,.182.232,1.241,1.241,0,0,0,.663.225,11.081,11.081,0,0,0,1.183.04h.533V19.24h0Z" transform="translate(0 0)" fill="#fff"/>
</svg>
