<svg xmlns="http://www.w3.org/2000/svg" width="33.759" height="28.641" viewBox="0 0 33.759 28.641">
  <g id="noun_chat_881563" transform="translate(-1.932 -3.458)">
    <path id="Path_4" data-name="Path 4" d="M27.647,6.5H4.167A2.237,2.237,0,0,0,1.932,8.733v15.05a2.237,2.237,0,0,0,2.235,2.235H6.552a.6.6,0,0,1,.518.3L8.713,29.2a1.652,1.652,0,0,0,1.415.842h.037a1.649,1.649,0,0,0,1.412-.783L13.436,26.3a.6.6,0,0,1,.506-.28H27.649a2.237,2.237,0,0,0,2.235-2.235V8.733A2.24,2.24,0,0,0,27.647,6.5Zm1.163,17.284a1.164,1.164,0,0,1-1.163,1.163H13.942a1.658,1.658,0,0,0-1.413.781L10.67,28.691a.6.6,0,0,1-1.024-.022L8,25.787a1.674,1.674,0,0,0-1.45-.843H4.167A1.164,1.164,0,0,1,3,23.781V8.733A1.164,1.164,0,0,1,4.167,7.569h23.48a1.164,1.164,0,0,1,1.163,1.163Z" transform="translate(0 2.056)" fill="#222121"/>
    <path id="Path_5" data-name="Path 5" d="M31.111,3.458H7.631A2.237,2.237,0,0,0,5.4,5.693v.726a.536.536,0,0,0,1.073,0V5.693A1.164,1.164,0,0,1,7.632,4.529h23.48a1.164,1.164,0,0,1,1.163,1.163v15.05a1.164,1.164,0,0,1-1.163,1.163h-.987a.536.536,0,1,0,0,1.073h.987a2.237,2.237,0,0,0,2.235-2.235V5.693A2.24,2.24,0,0,0,31.111,3.458Z" transform="translate(2.343 0)" fill="#222121"/>
    <path id="Path_6" data-name="Path 6" d="M21.95,9.313H5.612a.536.536,0,1,0,0,1.073H21.951a.536.536,0,1,0,0-1.073Z" transform="translate(2.127 3.961)" fill="#222121"/>
    <path id="Path_7" data-name="Path 7" d="M21.95,12H5.612a.536.536,0,1,0,0,1.073H21.951a.536.536,0,1,0,0-1.073Z" transform="translate(2.127 5.778)" fill="#222121"/>
    <path id="Path_8" data-name="Path 8" d="M21.95,14.686H5.612a.536.536,0,1,0,0,1.073H21.951a.536.536,0,1,0,0-1.073Z" transform="translate(2.127 7.595)" fill="#222121"/>
  </g>
</svg>
