<svg xmlns="http://www.w3.org/2000/svg" width="22.001" height="22.001" viewBox="0 0 22.001 22.001">
  <path id="Exclusion_3" data-name="Exclusion 3" d="M7825.4-638.5a1.061,1.061,0,0,1-.77-.33l-4.07-4.064a9.829,9.829,0,0,1-6.158,2.161,9.975,9.975,0,0,1-7-2.893,9.808,9.808,0,0,1-2.9-6.991,9.817,9.817,0,0,1,2.9-6.993,9.848,9.848,0,0,1,7-2.891,9.8,9.8,0,0,1,6.965,2.891,9.851,9.851,0,0,1,2.868,6.448,9.823,9.823,0,0,1-2.135,6.7l4.1,4.062a1.135,1.135,0,0,1-.035,1.575A.994.994,0,0,1,7825.4-638.5Zm-11-19.8a7.67,7.67,0,0,0-5.427,2.275,7.509,7.509,0,0,0-2.272,5.425,7.772,7.772,0,0,0,2.272,5.427,7.511,7.511,0,0,0,5.427,2.273,7.772,7.772,0,0,0,5.427-2.273,7.518,7.518,0,0,0,2.272-5.427,7.66,7.66,0,0,0-2.272-5.425A7.512,7.512,0,0,0,7814.4-658.3Z" transform="translate(-7804.5 660.5)" fill="#1c375e"/>
</svg>
