<svg xmlns="http://www.w3.org/2000/svg" width="40" height="40" viewBox="0 0 40 40">
  <g id="Group_4" data-name="Group 4" transform="translate(-717 -65)">
    <rect id="Rectangle_2" data-name="Rectangle 2" width="40" height="40" rx="6" transform="translate(717 65)" fill="#55acee"/>
  </g>
  <g id="twitter" transform="translate(5 4.333)">
    <path id="Path_1" data-name="Path 1" d="M22.667,10.4a4.315,4.315,0,0,0,1.8-2.267,9.13,9.13,0,0,1-2.667.933A3.871,3.871,0,0,0,18.867,7.8a4.1,4.1,0,0,0-4.133,4.133,3.378,3.378,0,0,0,.133.867A10.8,10.8,0,0,1,6.4,8.533a4.05,4.05,0,0,0,1.267,5.533A5.113,5.113,0,0,1,5.8,13.533,4.326,4.326,0,0,0,6.733,16.2a4.043,4.043,0,0,0,2.333,1.4A5.181,5.181,0,0,1,8,17.733a2.073,2.073,0,0,1-.733-.067,3.926,3.926,0,0,0,1.4,2,4.573,4.573,0,0,0,2.4.867A8.042,8.042,0,0,1,6,22.267,3.838,3.838,0,0,1,5,22.2a11.04,11.04,0,0,0,6.333,1.867,11.135,11.135,0,0,0,6.267-1.8A11.266,11.266,0,0,0,21.667,17.8a11.893,11.893,0,0,0,1.267-5.4v-.533A7.835,7.835,0,0,0,25,9.733a9.359,9.359,0,0,1-2.333.667Z" transform="translate(0 0)" fill="#fff"/>
  </g>
</svg>
