<svg xmlns="http://www.w3.org/2000/svg" width="40" height="40" viewBox="0 0 40 40">
  <g id="Group_5" data-name="Group 5" transform="translate(-776 -65)">
    <rect id="Rectangle_3" data-name="Rectangle 3" width="40" height="40" rx="6" transform="translate(776 65)" fill="#0077b5"/>
  </g>
  <g id="linkedin" transform="translate(2.2 -0.233)">
    <path id="Path_3" data-name="Path 3" d="M12.574,28.3H8.3V14.026h4.274Zm15.726,0H24.026V20.693c0-2.051-.769-2.991-2.137-2.991a2.031,2.031,0,0,0-2.137,1.624V28.3H15.479V14.026h3.333l.256,2.821h.085a4.886,4.886,0,0,1,4.188-2.393,4.586,4.586,0,0,1,3.59,1.453A6.482,6.482,0,0,1,28.3,20.266V28.3ZM12.659,10.437a2.137,2.137,0,0,1-2.222,2.137A2.065,2.065,0,0,1,8.3,10.437,2.116,2.116,0,0,1,10.437,8.3,2.248,2.248,0,0,1,12.659,10.437Z" fill="#fff"/>
  </g>
</svg>
