<svg xmlns="http://www.w3.org/2000/svg" width="40" height="40" viewBox="0 0 40 40">
  <g id="Group_6" data-name="Group 6" transform="translate(-830 -65)">
    <rect id="Rectangle_4" data-name="Rectangle 4" width="40" height="40" rx="6" transform="translate(830 65)" fill="#7d7d7d"/>
  </g>
  <g id="email" transform="translate(7.009 4.332)">
    <path id="Path_4" data-name="Path 4" d="M21.459,10.694V8.647L13.391,13.7,5.323,8.647v2.047l8.068,4.937Zm0-4.094a1.826,1.826,0,0,1,1.385.662,1.8,1.8,0,0,1,.542,1.385V20.689a2.009,2.009,0,0,1-.542,1.385,1.981,1.981,0,0,1-1.385.662H5.323a1.826,1.826,0,0,1-1.385-.662A1.8,1.8,0,0,1,3.4,20.689V8.647a2.009,2.009,0,0,1,.542-1.385A1.981,1.981,0,0,1,5.323,6.6H21.459Z" transform="translate(0)" fill="#fff"/>
  </g>
</svg>
