<svg id="phone" xmlns="http://www.w3.org/2000/svg" width="39" height="58" viewBox="0 0 39 58">
  <path id="Combined_Shape" data-name="Combined Shape" d="M3.586,58A3.758,3.758,0,0,1,0,54.1V3.9A3.758,3.758,0,0,1,3.586,0H35.413A3.758,3.758,0,0,1,39,3.9V54.1A3.758,3.758,0,0,1,35.413,58ZM1.472,3.9V54.1A2.354,2.354,0,0,0,3.708,56.55H35.292A2.354,2.354,0,0,0,37.528,54.1V3.9A2.354,2.354,0,0,0,35.292,1.45H3.708A2.354,2.354,0,0,0,1.472,3.9ZM15.453,48.87a4.014,4.014,0,1,1,4.014,3.919A3.972,3.972,0,0,1,15.453,48.87Zm1.472,0a2.543,2.543,0,1,0,2.542-2.47A2.51,2.51,0,0,0,16.924,48.87ZM18.589,36.1V34.821a5.192,5.192,0,0,1-4.425-5.088.736.736,0,0,1,1.472,0,3.781,3.781,0,1,0,3.782-3.71h-.184a5.153,5.153,0,0,1-.644-10.276V14.5a.736.736,0,0,1,1.472,0v1.274a5.191,5.191,0,0,1,4.425,5.088.736.736,0,0,1-1.472,0,3.781,3.781,0,1,0-3.781,3.71h.184a5.153,5.153,0,0,1,.643,10.276V36.1a.736.736,0,0,1-1.472,0ZM17.66,5.075a.725.725,0,1,1,0-1.449h4.156a.725.725,0,1,1,0,1.449Z" fill="#01295b"/>
</svg>
