<svg id="bank" xmlns="http://www.w3.org/2000/svg" width="55" height="54" viewBox="0 0 55 54">
  <path id="Shape" d="M54.389,54H.611A.637.637,0,0,1,0,53.386V48.477a.636.636,0,0,1,.611-.613h.611v-4.3a.637.637,0,0,1,.611-.614H6.112V18.409H1.82a.618.618,0,0,1-.33-1.132L27.156.1A.7.7,0,0,1,27.5,0h.02a.5.5,0,0,1,.323.1L53.511,17.277a.619.619,0,0,1-.33,1.132H48.889V42.954h4.278a.637.637,0,0,1,.611.614v4.3h.611a.636.636,0,0,1,.611.613v4.909A.637.637,0,0,1,54.389,54ZM1.223,49.091v3.682H53.778V49.091Zm1.221-4.909v3.682H52.555V44.182ZM44,18.409V42.954h3.666V18.409Zm-7.333,0V42.954h6.11V18.409Zm-4.889,0V42.954h3.666V18.409Zm-7.333,0V42.954h6.11V18.409Zm-4.889,0V42.954h3.666V18.409Zm-7.334,0V42.954h6.112V18.409Zm-4.889,0V42.954H11V18.409ZM27.5,1.342,3.838,17.181H51.161L27.5,1.342Z" fill="#01295b"/>
</svg>
