<svg id="calendar" xmlns="http://www.w3.org/2000/svg" width="56" height="47" viewBox="0 0 56 47">
  <g id="Group_5" data-name="Group 5" transform="translate(8.96)">
    <g id="noun_Financial_plan_763894" data-name="noun_Financial plan_763894">
      <g id="noun_pay_day_2357871" data-name="noun_pay day_2357871">
        <path id="Combined_Shape" data-name="Combined Shape" d="M.588,47A.589.589,0,0,1,0,46.412V5.059a.589.589,0,0,1,.588-.587H6.561V.587A.589.589,0,0,1,7.15,0h5.222a.589.589,0,0,1,.588.587V4.472h21.12V.587A.589.589,0,0,1,34.668,0h5.222a.589.589,0,0,1,.588.587V4.472h5.973a.589.589,0,0,1,.589.587V46.412a.589.589,0,0,1-.589.588Zm31.253-1.175H45.864V30.016H31.841Zm-15.466,0h14.29V30.016H16.375Zm-15.2,0H15.2V30.016H1.176ZM31.841,28.841H45.864V13.121H31.841Zm-15.466,0h14.29V13.121H16.375Zm-15.2,0H15.2V13.121H1.176Zm0-16.895H45.864v-6.3H40.478v3.21a.589.589,0,0,1-.588.588H34.668a.589.589,0,0,1-.589-.588V5.647H12.96v3.21a.589.589,0,0,1-.588.588H7.15a.589.589,0,0,1-.589-.588V5.647H1.176ZM35.256,8.27H39.3V1.175H35.256Zm-27.518,0h4.047V1.175H7.737ZM23.5,26.253v-.467a2.858,2.858,0,0,1-2.135-2.8.577.577,0,1,1,1.152,0,1.6,1.6,0,1,0,1.6-1.676h-.089a2.825,2.825,0,0,1-2.756-2.883A2.855,2.855,0,0,1,23.5,15.6v-.444a.577.577,0,1,1,1.153,0v.467a2.86,2.86,0,0,1,2.135,2.8.577.577,0,1,1-1.153,0,1.6,1.6,0,1,0-1.6,1.676h.089a2.825,2.825,0,0,1,2.756,2.883,2.855,2.855,0,0,1-2.224,2.827v.444a.577.577,0,1,1-1.153,0Z" fill="#01295b"/>
      </g>
    </g>
  </g>
</svg>
