<svg xmlns="http://www.w3.org/2000/svg" width="18.475" height="18.475" viewBox="0 0 18.475 18.475">
  <g id="noun_X_2663763" transform="translate(-9 -9)">
    <g id="Group_596" data-name="Group 596" transform="translate(9 9)">
      <path id="Path_340" data-name="Path 340" d="M10.32,27.475a1.32,1.32,0,0,1-.933-2.253L25.223,9.387a1.32,1.32,0,1,1,1.866,1.866L11.253,27.089A1.315,1.315,0,0,1,10.32,27.475Z" transform="translate(-9 -9)" fill="#1c375e"/>
    </g>
    <g id="Group_597" data-name="Group 597" transform="translate(9 9)">
      <path id="Path_341" data-name="Path 341" d="M26.156,27.475a1.315,1.315,0,0,1-.933-.387L9.387,11.253a1.32,1.32,0,0,1,1.866-1.866L27.089,25.223a1.32,1.32,0,0,1-.933,2.253Z" transform="translate(-9 -9)" fill="#1c375e"/>
    </g>
  </g>
</svg>
