<svg id="Shape" xmlns="http://www.w3.org/2000/svg" width="25" height="24" viewBox="0 0 25 24">
  <path id="Shape-2" data-name="Shape" d="M22.979,24a2.051,2.051,0,0,1-1.429-.568L16.721,18.8a10.979,10.979,0,0,1-6,1.771,10.865,10.865,0,0,1-8.264-3.734A9.983,9.983,0,0,1,3.137,3.012,10.873,10.873,0,0,1,10.715,0a11.009,11.009,0,0,1,6.82,2.355,10.171,10.171,0,0,1,3.781,6.47,9.939,9.939,0,0,1-1.736,7.228l4.829,4.635a1.886,1.886,0,0,1,0,2.744A2.051,2.051,0,0,1,22.979,24ZM10.708,3.413A7.26,7.26,0,0,0,5.649,5.423,6.648,6.648,0,0,0,4.1,12.907a7.141,7.141,0,0,0,6.607,4.237,7.02,7.02,0,0,0,7.151-6.863,6.848,6.848,0,0,0-4.413-6.345A7.374,7.374,0,0,0,10.708,3.413Z" transform="translate(0 0)" fill="#e5e4e8"/>
</svg>
