<svg xmlns="http://www.w3.org/2000/svg" width="31.55" height="25.625" viewBox="0 0 31.55 25.625">
  <path id="twitter" d="M28.307,54.468c.02.28.02.561.02.841,0,8.548-6.506,18.4-18.4,18.4A18.273,18.273,0,0,1,0,70.8a13.377,13.377,0,0,0,1.562.08,12.95,12.95,0,0,0,8.028-2.763,6.478,6.478,0,0,1-6.046-4.484,8.155,8.155,0,0,0,1.221.1,6.839,6.839,0,0,0,1.7-.22,6.467,6.467,0,0,1-5.185-6.346v-.08a6.512,6.512,0,0,0,2.923.821,6.476,6.476,0,0,1-2-8.648A18.38,18.38,0,0,0,15.535,56.03a7.3,7.3,0,0,1-.16-1.481,6.472,6.472,0,0,1,11.191-4.424,12.731,12.731,0,0,0,4.1-1.562,6.449,6.449,0,0,1-2.843,3.563,12.963,12.963,0,0,0,3.724-1A13.9,13.9,0,0,1,28.307,54.468Z" transform="translate(0 -48.082)" fill="#fff"/>
</svg>
