<svg xmlns="http://www.w3.org/2000/svg" width="22" height="18" viewBox="0 0 22 18">
  <g id="icon_arrow_copy_4" data-name="icon/arrow copy 4" transform="translate(0 0)">
    <rect id="icon_arrow_background" data-name="icon/arrow background" width="22" height="18" fill="none"/>
    <path id="Combined_Shape" data-name="Combined Shape" d="M12.986,17.756a.76.76,0,0,1-.54-1.3l6.845-6.811H.764a.76.76,0,1,1,0-1.52H19.291L12.446,1.316A.759.759,0,0,1,12.778.024a.766.766,0,0,1,.748.218L21.674,8.35a.757.757,0,0,1,.163.831.749.749,0,0,1-.194.274l-8.117,8.077a.756.756,0,0,1-.537.223Z" transform="translate(0 0)" fill="#ffffff"/>
  </g>
</svg>
