<svg xmlns="http://www.w3.org/2000/svg" width="35.979" height="35.979" viewBox="0 0 35.979 35.979">
  <g id="noun_Full_Screen_2718555" data-name="noun_Full Screen_2718555" transform="translate(0 6.748) rotate(-13)">
    <path id="Shape" d="M1.5,30A1.522,1.522,0,0,1,0,28.5V21a1.5,1.5,0,0,1,3,0v3.885l7.935-7.95a1.506,1.506,0,1,1,2.13,2.129L5.115,27H9a1.5,1.5,0,1,1,0,3ZM16.935,13.065a1.5,1.5,0,0,1,0-2.13L24.885,3H21a1.5,1.5,0,0,1,0-3h7.5A1.522,1.522,0,0,1,30,1.5V9a1.5,1.5,0,1,1-3,0V5.115l-7.935,7.951a1.5,1.5,0,0,1-2.129,0Z" fill="#fff"/>
  </g>
</svg>
