<svg xmlns="http://www.w3.org/2000/svg" width="36.751" height="25.641" viewBox="0 0 36.751 25.641">
  <g id="noun_TV_973499" transform="translate(-7 -972.362)">
    <path id="Path_15" data-name="Path 15" d="M8.533,972.362A1.533,1.533,0,0,0,7,973.88v19.657a1.533,1.533,0,0,0,1.534,1.518H42.218a1.533,1.533,0,0,0,1.533-1.518V973.88a1.533,1.533,0,0,0-1.533-1.518H8.533Zm0,.855H42.218a.67.67,0,0,1,.679.663v19.657a.671.671,0,0,1-.679.663H8.533a.671.671,0,0,1-.679-.663V973.88a.671.671,0,0,1,.679-.663Z" fill="#222121" fill-rule="evenodd"/>
    <path id="Path_16" data-name="Path 16" d="M27.359,1030.362a.427.427,0,1,0,0,.855H46.195a.427.427,0,0,0,0-.855H27.359Z" transform="translate(-11.414 -33.214)" fill="#222121" fill-rule="evenodd"/>
    <path id="Path_17" data-name="Path 17" d="M40.135,982.427a.433.433,0,0,0-.308.122.421.421,0,0,0-.128.3v13.242a.423.423,0,0,0,.213.366.436.436,0,0,0,.429,0L46.3,993.15h0l5.956-3.309a.421.421,0,0,0,0-.739L46.3,985.794h0l-5.956-3.313A.435.435,0,0,0,40.135,982.427Zm.425,1.151,5.314,2.956h0l5.291,2.939-5.291,2.939h0l-5.314,2.956V983.578Z" transform="translate(-18.725 -5.764)" fill="#222121" fill-rule="evenodd"/>
  </g>
</svg>
