<svg xmlns="http://www.w3.org/2000/svg" width="626" height="412" viewBox="0 0 626 412">
  <g id="Group_670" data-name="Group 670" transform="translate(-285 -1612)">
    <circle id="Ellipse_86" data-name="Ellipse 86" cx="185.5" cy="185.5" r="185.5" transform="translate(285 1653)" fill="#fff" opacity="0.069"/>
    <circle id="Ellipse_87" data-name="Ellipse 87" cx="188.5" cy="188.5" r="188.5" transform="translate(534 1640)" fill="#fff" opacity="0.069"/>
    <g id="Group_509" data-name="Group 509" transform="translate(0 86)">
      <g id="Group_508" data-name="Group 508" transform="translate(-16 -17.103)">
        <circle id="Ellipse_83" data-name="Ellipse 83" cx="181.5" cy="181.5" r="181.5" transform="translate(547 1580.103)" fill="#6eb6ff" opacity="0.629"/>
        <path id="Path_276" data-name="Path 276" d="M181.5,0A181.5,181.5,0,1,1,0,181.5,181.5,181.5,0,0,1,181.5,0Z" transform="translate(301 1580.103)" fill="#4f87c3" opacity="0.578"/>
        <path id="Intersection_1" data-name="Intersection 1" d="M0,133.7A181.121,181.121,0,0,1,58.705,0a181.121,181.121,0,0,1,58.705,133.7A181.121,181.121,0,0,1,58.705,267.4,181.121,181.121,0,0,1,0,133.7Z" transform="translate(546.795 1627.901)" fill="#355d8a" opacity="0.853" style="mix-blend-mode: multiply;isolation: isolate"/>
      </g>
      <text id="YOU" transform="translate(397 1768)" fill="#fff" font-size="56" font-family="SegoeUI, Segoe UI"><tspan x="0" y="0">YOU</tspan></text>
      <text id="BANKING" transform="translate(661 1768)" fill="#fff" font-size="57" font-family="SegoeUI, Segoe UI"><tspan x="0" y="0">BANKING</tspan></text>
      <text id="_" data-name="+" transform="translate(584 1770)" fill="#fff" font-size="90" font-family="SegoeUI-Bold, Segoe UI" font-weight="700"><tspan x="-31.816" y="0">+</tspan></text>
      <text id="_2" data-name="+" transform="translate(537 1687)" fill="#fff" font-size="20" font-family="SegoeUI-Bold, Segoe UI" font-weight="700"><tspan x="-7.07" y="0">+</tspan></text>
      <text id="_3" data-name="+" transform="translate(557 1710)" fill="#fff" font-size="20" font-family="SegoeUI-Bold, Segoe UI" font-weight="700"><tspan x="-7.07" y="0">+</tspan></text>
      <text id="_4" data-name="+" transform="translate(611 1682)" fill="#fff" font-size="20" font-family="SegoeUI-Bold, Segoe UI" font-weight="700"><tspan x="-7.07" y="0">+</tspan></text>
      <text id="_5" data-name="+" transform="translate(629 1635)" fill="#fff" font-size="20" font-family="SegoeUI-Bold, Segoe UI" font-weight="700"><tspan x="-7.07" y="0">+</tspan></text>
      <text id="_6" data-name="+" transform="translate(542 1559)" fill="#fff" font-size="20" font-family="SegoeUI-Bold, Segoe UI" font-weight="700"><tspan x="-7.07" y="0">+</tspan></text>
      <text id="_7" data-name="+" transform="translate(606 1553)" fill="#fff" font-size="20" font-family="SegoeUI-Bold, Segoe UI" font-weight="700"><tspan x="-7.07" y="0">+</tspan></text>
      <text id="_8" data-name="+" transform="translate(596 1583)" fill="#fff" font-size="20" font-family="SegoeUI-Bold, Segoe UI" font-weight="700"><tspan x="-7.07" y="0">+</tspan></text>
      <text id="_9" data-name="+" transform="translate(657 1548)" fill="#fff" font-size="20" font-family="SegoeUI-Bold, Segoe UI" font-weight="700"><tspan x="-7.07" y="0">+</tspan></text>
      <text id="_10" data-name="+" transform="translate(657 1705)" fill="#fff" font-size="20" font-family="SegoeUI-Bold, Segoe UI" font-weight="700"><tspan x="-7.07" y="0">+</tspan></text>
      <text id="_11" data-name="+" transform="translate(619 1878)" fill="#fff" font-size="20" font-family="SegoeUI-Bold, Segoe UI" font-weight="700"><tspan x="-7.07" y="0">+</tspan></text>
      <text id="_12" data-name="+" transform="translate(647 1842)" fill="#fff" font-size="20" font-family="SegoeUI-Bold, Segoe UI" font-weight="700"><tspan x="-7.07" y="0">+</tspan></text>
      <text id="_13" data-name="+" transform="translate(537 1889)" fill="#fff" font-size="20" font-family="SegoeUI-Bold, Segoe UI" font-weight="700"><tspan x="-7.07" y="0">+</tspan></text>
      <text id="_14" data-name="+" transform="translate(601 1930)" fill="#fff" font-size="20" font-family="SegoeUI-Bold, Segoe UI" font-weight="700"><tspan x="-7.07" y="0">+</tspan></text>
      <text id="_15" data-name="+" transform="translate(527 1808)" fill="#fff" font-size="20" font-family="SegoeUI-Bold, Segoe UI" font-weight="700"><tspan x="-7.07" y="0">+</tspan></text>
      <text id="_16" data-name="+" transform="translate(595 1808)" fill="#fff" font-size="20" font-family="SegoeUI-Bold, Segoe UI" font-weight="700"><tspan x="-7.07" y="0">+</tspan></text>
      <text id="_17" data-name="+" transform="translate(567 1922)" fill="#fff" font-size="20" font-family="SegoeUI-Bold, Segoe UI" font-weight="700"><tspan x="-7.07" y="0">+</tspan></text>
    </g>
  </g>
</svg>
