<svg xmlns="http://www.w3.org/2000/svg" width="35.454" height="24.928" viewBox="0 0 35.454 24.928">
  <path id="youtube" d="M49.646,67.9a4.455,4.455,0,0,0-3.134-3.155C43.746,64,32.66,64,32.66,64s-11.087,0-13.851.746A4.455,4.455,0,0,0,15.674,67.9c-.741,2.783-.741,8.589-.741,8.589s0,5.806.741,8.589a4.388,4.388,0,0,0,3.134,3.1c2.765.746,13.851.746,13.851.746s11.087,0,13.851-.746a4.388,4.388,0,0,0,3.134-3.1c.741-2.783.741-8.589.741-8.589S50.387,70.683,49.646,67.9ZM29.034,81.761V71.218L38.3,76.489Z" transform="translate(-14.933 -64)" fill="#fff"/>
</svg>
