<svg xmlns="http://www.w3.org/2000/svg" width="72.276" height="49.846" viewBox="0 0 72.276 49.846">
  <g id="noun-3866769" transform="translate(-257.568 -363.84)">
    <path id="Path_6119" data-name="Path 6119" d="M326.106,363.84h-64.8a3.738,3.738,0,0,0-3.738,3.739v42.368a3.739,3.739,0,0,0,3.738,3.739h64.8a3.739,3.739,0,0,0,3.738-3.739V367.579a3.738,3.738,0,0,0-3.738-3.739ZM260.06,376.3h67.292v2.492H260.06Zm1.246-9.969h64.8a1.246,1.246,0,0,1,1.246,1.246v6.231H260.06v-6.231a1.246,1.246,0,0,1,1.246-1.246Zm64.8,44.861h-64.8a1.247,1.247,0,0,1-1.246-1.246V381.285h67.292v28.662a1.247,1.247,0,0,1-1.246,1.246Z" fill="#012169"/>
    <path id="Path_6120" data-name="Path 6120" d="M344.611,682.66H329.657a1.246,1.246,0,0,0,0,2.492h14.954a1.246,1.246,0,1,0,0-2.492Z" transform="translate(-63.367 -285.174)" fill="#012169"/>
    <path id="Path_6121" data-name="Path 6121" d="M344.611,741.7H329.657a1.246,1.246,0,1,0,0,2.492h14.954a1.246,1.246,0,1,0,0-2.492Z" transform="translate(-63.367 -337.983)" fill="#012169"/>
    <path id="Path_6122" data-name="Path 6122" d="M707.967,670.849a4.984,4.984,0,0,0-4.361,2.617,4.984,4.984,0,1,0,0,4.735,4.985,4.985,0,1,0,4.362-7.352Zm-8.723,7.477a2.492,2.492,0,1,1,1.762-.73A2.491,2.491,0,0,1,699.244,678.326Zm8.723,0a2.492,2.492,0,1,1,1.762-.73A2.492,2.492,0,0,1,707.967,678.326Z" transform="translate(-390.583 -274.609)" fill="#012169"/>
  </g>
</svg>
