<svg xmlns="http://www.w3.org/2000/svg" width="80.342" height="70.51" viewBox="0 0 80.342 70.51">
  <g id="noun-5690644" transform="translate(-17.25 -58.172)">
    <path id="Path_6092" data-name="Path 6092" d="M43.259,76.971C30.772,76.971,17.5,73.72,17.5,67.7s13.272-9.274,25.759-9.274S69.019,61.673,69.019,67.7,55.747,76.971,43.259,76.971Zm0-16.8c-14.152,0-24.015,3.968-24.015,7.529s9.863,7.53,24.015,7.53,24.015-3.968,24.015-7.53S57.412,60.167,43.259,60.167Z" transform="translate(0 0)" fill="#012169" stroke="#012169" stroke-width="0.5"/>
    <path id="Path_6093" data-name="Path 6093" d="M43.259,154.594c-12.488,0-25.759-3.251-25.759-9.274v-9.637h1.745v9.637c0,3.561,9.863,7.529,24.015,7.529s24.015-3.968,24.015-7.529v-9.637H69.02v9.637c0,6.024-13.272,9.274-25.759,9.274Z" transform="translate(0 -67.986)" fill="#012169" stroke="#012169" stroke-width="0.5"/>
    <path id="Path_6094" data-name="Path 6094" d="M38.324,234.7c-10.366-.695-20.824-3.782-20.824-9.111v-9.637h1.745v9.637c0,2.99,7.181,6.564,19.2,7.371Z" transform="translate(0 -138.618)" fill="#012169" stroke="#012169" stroke-width="0.5"/>
    <path id="Path_6095" data-name="Path 6095" d="M432.11,215.96h1.745v4.771H432.11Z" transform="translate(-364.836 -138.625)" fill="#012169" stroke="#012169" stroke-width="0.5"/>
    <path id="Path_6096" data-name="Path 6096" d="M194.977,102.4h-1.748a7.312,7.312,0,0,1-3.616-.9l.875-1.51a5.548,5.548,0,0,0,2.741.668h1.748c1.455,0,2.541-.7,2.541-1.32a1.089,1.089,0,0,0-.6-.815,3.683,3.683,0,0,0-1.944-.505h-1.7c-2.314,0-4.19-1.21-4.364-2.815a2.683,2.683,0,0,1,1.389-2.534,5.376,5.376,0,0,1,2.884-.78h1.748a7.318,7.318,0,0,1,3.616.9l-.875,1.51a5.552,5.552,0,0,0-2.741-.668h-1.747a3.67,3.67,0,0,0-1.94.5c-.2.126-.643.46-.6.879.064.593,1.2,1.257,2.629,1.257h1.7a5.379,5.379,0,0,1,2.886.782,2.76,2.76,0,0,1,1.4,2.283c0,1.719-1.881,3.065-4.285,3.065Z" transform="translate(-150.821 -29.444)" fill="#012169" stroke="#012169" stroke-width="0.5"/>
    <path id="Path_6097" data-name="Path 6097" d="M224.8,86.082h1.745v1.57H224.8Z" transform="translate(-182.413 -24.339)" fill="#012169" stroke="#012169" stroke-width="0.5"/>
    <path id="Path_6098" data-name="Path 6098" d="M224.8,172.2h1.745v1.57H224.8Z" transform="translate(-182.413 -100.119)" fill="#012169" stroke="#012169" stroke-width="0.5"/>
    <path id="Path_6099" data-name="Path 6099" d="M172.958,320.874,141.8,306.424l-.389-.356a10.9,10.9,0,0,1,0-11.553l.346-.334,32.024-17.034.767-.026L204.837,290.7l.077,1.553-2.577,1.48v6.525l2.5,1.123.077,1.553-31.154,17.9ZM142.792,304.96,173.282,319.1l29.281-16.823-1.455-.654-.515-.8v-6.086l-26.833,15.417-.8.035-24.918-11.557a9.39,9.39,0,0,0-1.045,4.406l-1.744.043a11.432,11.432,0,0,1,1.653-6.022l1.123-.356,25.255,11.714L202.561,291.6l-28.335-12.709L142.806,295.6a9.073,9.073,0,0,0-.013,9.357Z" transform="translate(-107.58 -192.444)" fill="#012169" stroke="#012169" stroke-width="0.5"/>
    <path id="Path_6100" data-name="Path 6100" d="M539.77,453.238l13.25-7.617.87,1.513-13.25,7.617Z" transform="translate(-459.571 -340.715)" fill="#012169" stroke="#012169" stroke-width="0.5"/>
    <path id="Path_6101" data-name="Path 6101" d="M371.3,557.279l-6.14-2.848.734-1.583,5.73,2.658,8.564-4.92.869,1.513-8.955,5.145Z" transform="translate(-305.925 -433.079)" fill="#012169" stroke="#012169" stroke-width="0.5"/>
    <path id="Path_6102" data-name="Path 6102" d="M385.417,338.625l-16.074-7.209-.077-1.553,6.232-3.58.792-.039,16.074,7.209L392.44,335l-6.232,3.581Zm-13.8-8.1,14.106,6.327,4.363-2.507-14.106-6.327Z" transform="translate(-309.536 -235.669)" fill="#012169" stroke="#012169" stroke-width="0.5"/>
  </g>
</svg>
