<svg xmlns="http://www.w3.org/2000/svg" width="66.711" height="72.293" viewBox="0 0 66.711 72.293">
  <g id="noun-6441320" transform="translate(-275.728 -248.934)">
    <path id="Path_6103" data-name="Path 6103" d="M317.563,429.083h-40.7a1.131,1.131,0,0,1-1.131-1.131V370.287a1.131,1.131,0,0,1,1.131-1.131H285.9a1.131,1.131,0,1,1,0,2.261h-7.915v55.4h38.443v-3.392a1.131,1.131,0,1,1,2.261,0v4.523a1.131,1.131,0,0,1-1.131,1.131Z" transform="translate(0 -107.856)" fill="#012169"/>
    <path id="Path_6104" data-name="Path 6104" d="M593.687,401.68a1.126,1.126,0,0,1-1.131-1.121V371.406h-7.915a1.121,1.121,0,1,1,0-2.242h9.046a1.126,1.126,0,0,1,1.131,1.121v30.273a1.126,1.126,0,0,1-1.131,1.121Z" transform="translate(-276.124 -107.863)" fill="#012169"/>
    <path id="Path_6105" data-name="Path 6105" d="M352.488,433.617H320.829a1.131,1.131,0,0,1-1.131-1.131v-7.915a1.131,1.131,0,0,1,1.131-1.131h31.659a1.131,1.131,0,0,1,1.131,1.131v7.915A1.131,1.131,0,0,1,352.488,433.617Zm-30.528-2.261h29.4V425.7h-29.4Z" transform="translate(-39.447 -156.557)" fill="#012169"/>
    <path id="Path_6106" data-name="Path 6106" d="M338.61,608.358h-6.784a1.131,1.131,0,0,1-1.131-1.131v-6.784a1.131,1.131,0,0,1,1.131-1.131h6.784a1.131,1.131,0,0,1,1.131,1.131v6.784A1.131,1.131,0,0,1,338.61,608.358Zm-5.653-2.261h4.523v-4.523h-4.523Z" transform="translate(-49.313 -314.339)" fill="#012169"/>
    <path id="Path_6107" data-name="Path 6107" d="M448.53,608.358h-6.784a1.131,1.131,0,0,1-1.131-1.131v-6.784a1.131,1.131,0,0,1,1.131-1.131h6.784a1.131,1.131,0,0,1,1.131,1.131v6.784A1.131,1.131,0,0,1,448.53,608.358Zm-5.653-2.261H447.4v-4.523h-4.523Z" transform="translate(-147.926 -314.339)" fill="#012169"/>
    <path id="Path_6108" data-name="Path 6108" d="M558.45,608.358h-6.784a1.131,1.131,0,0,1-1.131-1.131v-6.784a1.131,1.131,0,0,1,1.131-1.131h6.784a1.131,1.131,0,0,1,1.131,1.131v6.784A1.131,1.131,0,0,1,558.45,608.358ZM552.8,606.1h4.523v-4.523H552.8Z" transform="translate(-246.54 -314.339)" fill="#012169"/>
    <path id="Path_6109" data-name="Path 6109" d="M338.61,718.288h-6.784a1.131,1.131,0,0,1-1.131-1.131v-6.784a1.131,1.131,0,0,1,1.131-1.131h6.784a1.131,1.131,0,0,1,1.131,1.131v6.784A1.131,1.131,0,0,1,338.61,718.288Zm-5.653-2.261h4.523V711.5h-4.523Z" transform="translate(-49.313 -412.961)" fill="#012169"/>
    <path id="Path_6110" data-name="Path 6110" d="M448.53,718.288h-6.784a1.131,1.131,0,0,1-1.131-1.131v-6.784a1.131,1.131,0,0,1,1.131-1.131h6.784a1.131,1.131,0,0,1,1.131,1.131v6.784A1.131,1.131,0,0,1,448.53,718.288Zm-5.653-2.261H447.4V711.5h-4.523Z" transform="translate(-147.926 -412.961)" fill="#012169"/>
    <path id="Path_6111" data-name="Path 6111" d="M338.61,828.208h-6.784a1.131,1.131,0,0,1-1.131-1.131v-6.784a1.131,1.131,0,0,1,1.131-1.131h6.784a1.131,1.131,0,0,1,1.131,1.131v6.784A1.131,1.131,0,0,1,338.61,828.208Zm-5.653-2.261h4.523v-4.523h-4.523Z" transform="translate(-49.313 -511.574)" fill="#012169"/>
    <path id="Path_6112" data-name="Path 6112" d="M448.53,828.208h-6.784a1.131,1.131,0,0,1-1.131-1.131v-6.784a1.131,1.131,0,0,1,1.131-1.131h6.784a1.131,1.131,0,0,1,1.131,1.131v6.784A1.131,1.131,0,0,1,448.53,828.208Zm-5.653-2.261H447.4v-4.523h-4.523Z" transform="translate(-147.926 -511.574)" fill="#012169"/>
    <path id="Path_6113" data-name="Path 6113" d="M380.631,253.175a1.128,1.128,0,0,1-.745-.28l-1.517-1.327-1.516,1.327a1.13,1.13,0,0,1-1.489,0l-1.517-1.327-1.516,1.327a1.13,1.13,0,0,1-1.489,0l-1.516-1.327-1.516,1.327a1.13,1.13,0,0,1-1.489,0l-2.261-1.979a1.131,1.131,0,0,1,1.489-1.7l1.516,1.327,1.516-1.327a1.13,1.13,0,0,1,1.489,0l1.516,1.327,1.516-1.327a1.131,1.131,0,0,1,1.489,0l1.517,1.327,1.516-1.327a1.13,1.13,0,0,1,1.489,0l1.517,1.327,1.517-1.327a1.131,1.131,0,0,1,1.489,0l1.518,1.328,1.518-1.328a1.131,1.131,0,0,1,1.489,1.7L385.9,252.9a1.13,1.13,0,0,1-1.489,0l-1.518-1.328-1.517,1.328a1.13,1.13,0,0,1-.745.28Z" transform="translate(-78.898 -0.001)" fill="#012169"/>
    <path id="Path_6114" data-name="Path 6114" d="M387.412,278.767H364.8a1.161,1.161,0,0,1-1.131-1.189V259.745a1.132,1.132,0,1,1,2.261,0v16.645h20.352V259.745a1.132,1.132,0,1,1,2.261,0v17.833a1.161,1.161,0,0,1-1.131,1.189Z" transform="translate(-78.894 -9.622)" fill="#012169"/>
    <path id="Path_6115" data-name="Path 6115" d="M587.851,690.151H551.669a1.131,1.131,0,0,1-1.131-1.131V666.407a1.131,1.131,0,0,1,1.131-1.131h36.182a1.131,1.131,0,0,1,1.131,1.131V689.02a1.13,1.13,0,0,1-1.13,1.131ZM552.8,687.889H586.72V667.537H552.8Z" transform="translate(-246.542 -373.516)" fill="#012169"/>
    <path id="Path_6116" data-name="Path 6116" d="M587.851,712.187H551.669a1.131,1.131,0,1,1,0-2.261h36.182a1.131,1.131,0,0,1,0,2.261Z" transform="translate(-246.542 -413.574)" fill="#012169"/>
    <path id="Path_6117" data-name="Path 6117" d="M587.851,756.157H551.669a1.131,1.131,0,0,1,0-2.261h36.182a1.131,1.131,0,0,1,0,2.261Z" transform="translate(-246.542 -453.021)" fill="#012169"/>
    <path id="Path_6118" data-name="Path 6118" d="M615.676,803.961h-9.045a1.131,1.131,0,0,1-1.131-1.131v-4.523a1.131,1.131,0,0,1,1.131-1.131h9.045a1.131,1.131,0,0,1,1.131,1.131v4.523A1.131,1.131,0,0,1,615.676,803.961Zm-7.915-2.261h6.784v-2.261h-6.784Z" transform="translate(-295.851 -491.85)" fill="#012169"/>
  </g>
</svg>
