<svg id="noun-online-banking-273807-004986" xmlns="http://www.w3.org/2000/svg" width="74.049" height="68.806" viewBox="0 0 74.049 68.806">
  <path id="Path_2852" data-name="Path 2852" d="M292.273,1041.514a1.349,1.349,0,0,1,0,2.7H256.79a1.349,1.349,0,0,1,0-2.7h35.483m0-2.314H256.79a3.663,3.663,0,1,0,0,7.326h35.481a3.663,3.663,0,0,0,0-7.326Z" transform="translate(-237.507 -977.72)" fill="#012169"/>
  <path id="Path_2853" data-name="Path 2853" d="M358.564,916.312H356.25V907.25h30.082v8.139h-2.314v-5.825H358.564Z" transform="translate(-334.267 -853.913)" fill="#012169"/>
  <path id="Path_2854" data-name="Path 2854" d="M69.421,45.212a2.318,2.318,0,0,1,2.314,2.314V86.865a2.318,2.318,0,0,1-2.314,2.314H4.628a2.318,2.318,0,0,1-2.314-2.314V47.526a2.318,2.318,0,0,1,2.314-2.314H69.421m0-2.314H4.628A4.642,4.642,0,0,0,0,47.526V86.865a4.642,4.642,0,0,0,4.628,4.628H69.421a4.642,4.642,0,0,0,4.628-4.628V47.526A4.642,4.642,0,0,0,69.421,42.9Z" transform="translate(0 -42.898)" fill="#012169"/>
  <path id="Path_2855" data-name="Path 2855" d="M347.825,170.314a14.271,14.271,0,1,1-14.271,14.271,14.287,14.287,0,0,1,14.271-14.271m0-2.314a16.585,16.585,0,1,0,16.585,16.585A16.585,16.585,0,0,0,347.825,168Z" transform="translate(-310.8 -160.28)" fill="#012169"/>
  <path id="Path_2856" data-name="Path 2856" d="M528.991,287.12v-2.61a7.526,7.526,0,0,1-3.952-1.136l.62-1.731a6.884,6.884,0,0,0,3.721,1.113c1.833,0,3.073-1.06,3.073-2.531,0-1.421-1.007-2.3-2.918-3.073-2.636-1.032-4.263-2.221-4.263-4.471a4.237,4.237,0,0,1,3.9-4.158v-2.61h1.6v2.506a6.886,6.886,0,0,1,3.36.9l-.646,1.7a6.261,6.261,0,0,0-3.256-.879c-1.99,0-2.737,1.189-2.737,2.224,0,1.342.956,2.016,3.2,2.943,2.661,1.085,4,2.427,4,4.728a4.494,4.494,0,0,1-4.082,4.392v2.687Z" transform="translate(-492.64 -252.15)" fill="#012169"/>
</svg>
