<svg xmlns="http://www.w3.org/2000/svg" xmlns:xlink="http://www.w3.org/1999/xlink" width="803.004" height="556.238" viewBox="0 0 803.004 556.238">
  <defs>
    <linearGradient id="linear-gradient" x1="0.321" y1="0.218" x2="0.377" y2="0.937" gradientUnits="objectBoundingBox">
      <stop offset="0" stop-color="#a7d7ee"/>
      <stop offset="1" stop-color="#fff"/>
    </linearGradient>
  </defs>
  <path id="Subtraction_119" data-name="Subtraction 119" d="M0,0V556.238l803,0a280.5,280.5,0,0,0-5.633-29.354A462.526,462.526,0,0,0,778.686,467.8,553.024,553.024,0,0,0,739.939,388.1c-8.913-15.162-18.7-30.209-29.086-44.723-11.346-15.854-23.7-31.48-36.729-46.449-14.075-16.176-29.3-32-45.248-47.037a715.082,715.082,0,0,0-54.645-46.486,786.64,786.64,0,0,0-64.916-44.791c-24.006-14.867-49.6-28.982-76.064-41.955-13.767-6.748-28.061-13.33-42.485-19.559-14.812-6.4-30.155-12.6-45.6-18.422-15.85-5.98-32.277-11.748-48.826-17.143-16.925-5.52-34.474-10.811-52.16-15.725-18.094-5.023-36.8-9.787-55.6-14.156-19.216-4.463-39.119-8.652-59.158-12.449-20.451-3.873-41.587-7.439-62.821-10.6C44.913,5.383,22.508,2.486,0,0H0Z" transform="translate(803.004 556.238) rotate(180)" opacity="0.534" fill="url(#linear-gradient)"/>
</svg>
