<svg id="App_Store__iOS_-Badge-Alternative-Logo.wine" data-name="App_Store_(iOS)-Badge-Alternative-Logo.wine" xmlns="http://www.w3.org/2000/svg" width="158.702" height="53.049" viewBox="0 0 158.702 53.049">
  <path id="Path_2623" data-name="Path 2623" d="M146.064,0H12.645c-.486,0-.967,0-1.452,0-.406,0-.809.01-1.219.017A17.526,17.526,0,0,0,7.317.254,8.839,8.839,0,0,0,4.8,1.086,8.538,8.538,0,0,0,2.649,2.649,8.3,8.3,0,0,0,1.087,4.8,8.755,8.755,0,0,0,.258,7.323,17.232,17.232,0,0,0,.02,9.978c-.012.407-.014.815-.02,1.221V41.854c.006.412.008.811.02,1.223a17.231,17.231,0,0,0,.238,2.655,8.737,8.737,0,0,0,.829,2.526A8.233,8.233,0,0,0,2.649,50.4,8.321,8.321,0,0,0,4.8,51.961a8.887,8.887,0,0,0,2.521.837,17.844,17.844,0,0,0,2.658.234c.41.009.813.014,1.219.014.485,0,.965,0,1.452,0H146.063c.477,0,.961,0,1.438,0,.4,0,.819-.005,1.223-.014a17.611,17.611,0,0,0,2.652-.234,9.024,9.024,0,0,0,2.531-.837,8.325,8.325,0,0,0,2.145-1.563,8.481,8.481,0,0,0,1.567-2.141,8.758,8.758,0,0,0,.821-2.526,17.915,17.915,0,0,0,.246-2.655c.005-.412.005-.811.005-1.223.011-.482.011-.961.011-1.451V12.647c0-.486,0-.967-.011-1.448,0-.407,0-.815-.005-1.221a17.913,17.913,0,0,0-.246-2.655,8.777,8.777,0,0,0-.821-2.524,8.575,8.575,0,0,0-3.712-3.713,8.976,8.976,0,0,0-2.531-.832,17.3,17.3,0,0,0-2.652-.234c-.4-.006-.819-.014-1.223-.017-.477,0-.961,0-1.438,0Z" transform="translate(0 0)"/>
  <path id="Path_2624" data-name="Path 2624" d="M10.915,51.6c-.4,0-.8-.005-1.2-.014a16.826,16.826,0,0,1-2.479-.216,7.8,7.8,0,0,1-2.2-.727A7.169,7.169,0,0,1,3.187,49.3a7.057,7.057,0,0,1-1.354-1.852,7.589,7.589,0,0,1-.72-2.2,16.463,16.463,0,0,1-.221-2.487C.884,42.482.873,41.55.873,41.55V10.914S.885,10,.892,9.727a16.406,16.406,0,0,1,.219-2.483,7.633,7.633,0,0,1,.721-2.2A7.127,7.127,0,0,1,3.179,3.186,7.381,7.381,0,0,1,5.039,1.83a7.723,7.723,0,0,1,2.193-.721A16.692,16.692,0,0,1,9.719.891l1.2-.016H147.21l1.211.017a16.426,16.426,0,0,1,2.465.216,7.876,7.876,0,0,1,2.216.727,7.418,7.418,0,0,1,3.2,3.209,7.642,7.642,0,0,1,.71,2.187,17.231,17.231,0,0,1,.23,2.5c0,.376,0,.779,0,1.181.011.5.011.971.011,1.448V40.118c0,.482,0,.952-.011,1.426,0,.431,0,.826-.005,1.233a16.886,16.886,0,0,1-.227,2.458,7.611,7.611,0,0,1-.716,2.215,7.268,7.268,0,0,1-1.347,1.838,7.179,7.179,0,0,1-1.856,1.356,7.774,7.774,0,0,1-2.212.729,16.635,16.635,0,0,1-2.479.216q-.595.014-1.19.014l-1.438,0Z" transform="translate(0.285 0.285)" fill="#fff"/>
  <path id="Path_2625" data-name="Path 2625" d="M30.017,23.818a6.825,6.825,0,0,1,3.25-5.726,6.986,6.986,0,0,0-5.5-2.976C25.446,14.873,23.2,16.5,22.021,16.5c-1.2,0-3.02-1.362-4.977-1.321a7.331,7.331,0,0,0-6.169,3.762c-2.667,4.618-.678,11.4,1.877,15.138,1.278,1.828,2.772,3.87,4.727,3.8,1.913-.079,2.628-1.22,4.936-1.22,2.288,0,2.958,1.22,4.953,1.174C29.422,37.8,30.715,36,31.948,34.15a15.118,15.118,0,0,0,2.094-4.265,6.6,6.6,0,0,1-4.026-6.067ZM26.249,12.661a6.72,6.72,0,0,0,1.537-4.814,6.837,6.837,0,0,0-4.424,2.289,6.394,6.394,0,0,0-1.577,4.636,5.653,5.653,0,0,0,4.464-2.111ZM52.967,33.434H46.689l-1.508,4.451H42.523l5.946-16.469h2.763l5.946,16.469h-2.7ZM47.34,31.379h4.976l-2.453-7.224h-.069Zm22.679.5c0,3.731-2,6.128-5.011,6.128a4.071,4.071,0,0,1-3.778-2.1h-.057v5.947H58.708V25.878h2.386v2h.045a4.259,4.259,0,0,1,3.823-2.123c3.047,0,5.056,2.409,5.056,6.13Zm-2.533,0c0-2.431-1.256-4.029-3.173-4.029-1.883,0-3.15,1.632-3.15,4.029,0,2.419,1.267,4.04,3.15,4.04,1.917,0,3.173-1.587,3.173-4.04Zm15.75,0c0,3.731-2,6.128-5.012,6.128a4.071,4.071,0,0,1-3.778-2.1h-.057v5.947H71.924V25.878H74.31v2h.045a4.259,4.259,0,0,1,3.823-2.123c3.048,0,5.057,2.409,5.057,6.13Zm-2.534,0c0-2.431-1.256-4.029-3.173-4.029-1.883,0-3.15,1.632-3.15,4.029,0,2.419,1.267,4.04,3.15,4.04,1.917,0,3.173-1.587,3.173-4.04ZM91.968,33.3C92.151,34.929,93.737,36,95.905,36c2.077,0,3.572-1.072,3.572-2.545,0-1.278-.9-2.044-3.036-2.568l-2.134-.514c-3.024-.73-4.428-2.145-4.428-4.44,0-2.842,2.476-4.793,5.991-4.793,3.481,0,5.867,1.952,5.947,4.793H99.33c-.149-1.643-1.508-2.636-3.493-2.636s-3.344,1-3.344,2.465c0,1.164.868,1.85,2.991,2.374l1.814.446c3.379.8,4.782,2.156,4.782,4.565,0,3.081-2.453,5.011-6.357,5.011-3.652,0-6.118-1.885-6.278-4.863ZM107.4,23.036v2.841h2.283v1.952H107.4v6.619c0,1.028.457,1.508,1.461,1.508a7.7,7.7,0,0,0,.811-.057v1.94a6.769,6.769,0,0,1-1.369.114c-2.431,0-3.379-.913-3.379-3.242V27.829h-1.746V25.878h1.746V23.036Zm3.6,8.846c0-3.778,2.225-6.152,5.695-6.152s5.7,2.374,5.7,6.152-2.2,6.152-5.7,6.152S111.006,35.67,111.006,31.882Zm8.879,0c0-2.592-1.188-4.121-3.185-4.121s-3.185,1.541-3.185,4.121c0,2.6,1.188,4.12,3.185,4.12S119.885,34.484,119.885,31.882Zm4.543-6h2.351v2.044h.057a2.864,2.864,0,0,1,2.888-2.169,3.8,3.8,0,0,1,.844.092v2.305A3.445,3.445,0,0,0,129.461,28a2.483,2.483,0,0,0-2.568,2.763v7.122h-2.465Zm17.5,8.481c-.332,2.18-2.454,3.676-5.17,3.676-3.493,0-5.661-2.34-5.661-6.095s2.18-6.209,5.558-6.209c3.322,0,5.411,2.282,5.411,5.923V32.5h-8.481v.149a3.127,3.127,0,0,0,3.23,3.4,2.717,2.717,0,0,0,2.773-1.689ZM133.6,30.775h6a2.888,2.888,0,0,0-2.945-3.048,3.04,3.04,0,0,0-3.058,3.048ZM47.031,9.02a3.5,3.5,0,0,1,3.724,3.932c0,2.528-1.366,3.981-3.724,3.981H44.173V9.019ZM45.4,15.814h1.492a2.488,2.488,0,0,0,2.61-2.846,2.495,2.495,0,0,0-2.61-2.83H45.4Zm6.741-1.869a2.829,2.829,0,1,1,5.632,0,2.83,2.83,0,1,1-5.632,0Zm4.42,0c0-1.295-.582-2.052-1.6-2.052s-1.6.757-1.6,2.052S53.937,16,54.962,16,56.564,15.244,56.564,13.944Zm8.7,2.989H64.04l-1.234-4.4h-.093l-1.229,4.4H60.273l-1.646-5.972h1.2l1.07,4.557h.088l1.228-4.557h1.131l1.228,4.557h.093l1.065-4.557H66.9Zm3.024-5.972h1.135v.949h.088a1.788,1.788,0,0,1,1.782-1.064,1.942,1.942,0,0,1,2.067,2.221v3.866H72.18v-3.57c0-.96-.417-1.437-1.289-1.437a1.37,1.37,0,0,0-1.426,1.513v3.494H68.287Zm6.95-2.331h1.178v8.3H75.237Zm2.817,5.315a2.83,2.83,0,1,1,5.633,0,2.83,2.83,0,1,1-5.633,0Zm4.42,0c0-1.295-.582-2.052-1.6-2.052s-1.6.757-1.6,2.052S79.848,16,80.872,16,82.474,15.244,82.474,13.944Zm2.454,1.3c0-1.075.8-1.695,2.221-1.783l1.618-.093v-.516c0-.631-.417-.987-1.223-.987-.658,0-1.114.242-1.245.664H85.158c.12-1.026,1.085-1.684,2.44-1.684,1.5,0,2.342.745,2.342,2.007v4.08H88.805v-.839h-.093a2.009,2.009,0,0,1-1.794.938,1.8,1.8,0,0,1-1.991-1.787Zm3.839-.51v-.5l-1.458.093c-.822.055-1.2.335-1.2.861s.466.85,1.107.85a1.408,1.408,0,0,0,1.546-1.306Zm2.722-.789c0-1.887.97-3.082,2.479-3.082A1.968,1.968,0,0,1,95.8,11.91h.088V8.629h1.178v8.3H95.937v-.944h-.093a2.073,2.073,0,0,1-1.875,1.042c-1.519,0-2.479-1.2-2.479-3.087Zm1.217,0c0,1.267.6,2.029,1.6,2.029s1.607-.773,1.607-2.024-.62-2.029-1.607-2.029S92.707,12.688,92.707,13.944Zm9.236,0a2.829,2.829,0,1,1,5.632,0,2.83,2.83,0,1,1-5.632,0Zm4.42,0c0-1.295-.582-2.052-1.6-2.052s-1.6.757-1.6,2.052S103.736,16,104.76,16,106.362,15.244,106.362,13.944Zm2.794-2.983h1.135v.949h.088a1.788,1.788,0,0,1,1.782-1.064,1.942,1.942,0,0,1,2.067,2.221v3.866h-1.179v-3.57c0-.96-.417-1.437-1.289-1.437a1.37,1.37,0,0,0-1.426,1.513v3.494h-1.178Zm11.732-1.487v1.514h1.294v.993h-1.294v3.071c0,.626.258.9.844.9a3.936,3.936,0,0,0,.449-.027v.982a3.866,3.866,0,0,1-.641.06c-1.311,0-1.833-.461-1.833-1.612V11.981h-.948v-.993h.948V9.474Zm2.9-.845h1.168v3.291h.093a1.838,1.838,0,0,1,1.821-1.07,1.967,1.967,0,0,1,2.057,2.226v3.856h-1.18V13.368c0-.954-.444-1.437-1.277-1.437a1.4,1.4,0,0,0-1.5,1.514v3.488h-1.179ZM135.8,15.32a2.424,2.424,0,0,1-2.588,1.728,2.713,2.713,0,0,1-2.759-3.082,2.754,2.754,0,0,1,2.754-3.12c1.662,0,2.664,1.135,2.664,3.011v.411h-4.217v.066a1.578,1.578,0,0,0,1.59,1.711,1.431,1.431,0,0,0,1.421-.724ZM131.657,13.4h3.016a1.441,1.441,0,0,0-1.47-1.547,1.527,1.527,0,0,0-1.546,1.547Z" transform="translate(3.135 2.56)"/>
</svg>
