<svg id="Google_Play-Badge-Logo.wine" xmlns="http://www.w3.org/2000/svg" xmlns:xlink="http://www.w3.org/1999/xlink" width="178.752" height="53.049" viewBox="0 0 178.752 53.049">
  <defs>
    <linearGradient id="linear-gradient" x1="0.849" y1="0.31" x2="0.361" y2="0.799" gradientUnits="objectBoundingBox">
      <stop offset="0" stop-color="#00a0ff"/>
      <stop offset="0.007" stop-color="#00a1ff"/>
      <stop offset="0.26" stop-color="#00beff"/>
      <stop offset="0.512" stop-color="#00d2ff"/>
      <stop offset="0.76" stop-color="#00dfff"/>
      <stop offset="1" stop-color="#00e3ff"/>
    </linearGradient>
    <linearGradient id="linear-gradient-2" x1="0.97" y1="0.436" x2="-1.177" y2="0.436" gradientUnits="objectBoundingBox">
      <stop offset="0" stop-color="#ffe000"/>
      <stop offset="0.409" stop-color="#ffbd00"/>
      <stop offset="0.775" stop-color="orange"/>
      <stop offset="1" stop-color="#ff9c00"/>
    </linearGradient>
    <linearGradient id="linear-gradient-3" x1="0.761" y1="0.213" x2="-0.443" y2="1.411" gradientUnits="objectBoundingBox">
      <stop offset="0" stop-color="#ff3a44"/>
      <stop offset="1" stop-color="#c31162"/>
    </linearGradient>
    <linearGradient id="linear-gradient-4" x1="-0.17" y1="-0.275" x2="0.367" y2="0.26" gradientUnits="objectBoundingBox">
      <stop offset="0" stop-color="#32a071"/>
      <stop offset="0.068" stop-color="#2da771"/>
      <stop offset="0.476" stop-color="#15cf74"/>
      <stop offset="0.801" stop-color="#06e775"/>
      <stop offset="1" stop-color="#00f076"/>
    </linearGradient>
    <linearGradient id="linear-gradient-5" x1="0.624" y1="0.038" x2="-0.364" y2="1.027" gradientUnits="objectBoundingBox">
      <stop offset="0" stop-color="#cc2e36"/>
      <stop offset="1" stop-color="#9c0e4e"/>
    </linearGradient>
    <linearGradient id="linear-gradient-6" x1="5.233" y1="-7.998" x2="-1.121" y2="-1.634" gradientUnits="objectBoundingBox">
      <stop offset="0" stop-color="#008de0"/>
      <stop offset="0.007" stop-color="#008de0"/>
      <stop offset="0.26" stop-color="#00a7e0"/>
      <stop offset="0.512" stop-color="#00b8e0"/>
      <stop offset="0.76" stop-color="#00c4e0"/>
      <stop offset="1" stop-color="#00c7e0"/>
    </linearGradient>
    <linearGradient id="linear-gradient-7" x1="0.943" y1="-0.195" x2="-2.414" y2="-0.195" gradientUnits="objectBoundingBox">
      <stop offset="0" stop-color="#e0c500"/>
      <stop offset="0.409" stop-color="#e0a600"/>
      <stop offset="0.775" stop-color="#e09100"/>
      <stop offset="1" stop-color="#e08900"/>
    </linearGradient>
    <linearGradient id="linear-gradient-8" x1="0.944" y1="0.999" x2="-2.414" y2="0.999" gradientUnits="objectBoundingBox">
      <stop offset="0" stop-color="#ffe840"/>
      <stop offset="0.409" stop-color="#ffce40"/>
      <stop offset="0.775" stop-color="#ffbc40"/>
      <stop offset="1" stop-color="#ffb540"/>
    </linearGradient>
    <linearGradient id="linear-gradient-9" x1="5.219" y1="0.865" x2="-1.113" y2="6.933" gradientUnits="objectBoundingBox">
      <stop offset="0" stop-color="#40b8ff"/>
      <stop offset="0.007" stop-color="#40b9ff"/>
      <stop offset="0.26" stop-color="#40ceff"/>
      <stop offset="0.512" stop-color="#40ddff"/>
      <stop offset="0.76" stop-color="#40e7ff"/>
      <stop offset="1" stop-color="#40eaff"/>
    </linearGradient>
    <linearGradient id="linear-gradient-10" x1="-0.137" y1="-0.184" x2="0.304" y2="0.257" gradientUnits="objectBoundingBox">
      <stop offset="0" stop-color="#65b895"/>
      <stop offset="0.068" stop-color="#62bd95"/>
      <stop offset="0.476" stop-color="#50db97"/>
      <stop offset="0.801" stop-color="#44ed98"/>
      <stop offset="1" stop-color="#40f498"/>
    </linearGradient>
  </defs>
  <path id="Path_2626" data-name="Path 2626" d="M172.131,53.049H6.62A6.645,6.645,0,0,1,0,46.418V6.631A6.645,6.645,0,0,1,6.62,0H172.131a6.645,6.645,0,0,1,6.62,6.631V46.418a6.645,6.645,0,0,1-6.62,6.631"/>
  <path id="Path_2627" data-name="Path 2627" d="M172.131,0H6.62A6.645,6.645,0,0,0,0,6.631V46.418a6.645,6.645,0,0,0,6.62,6.631H172.131a6.645,6.645,0,0,0,6.62-6.631V6.631A6.645,6.645,0,0,0,172.131,0m0,1.061a5.572,5.572,0,0,1,5.561,5.57V46.418a5.572,5.572,0,0,1-5.561,5.571H6.62a5.573,5.573,0,0,1-5.561-5.571V6.631A5.572,5.572,0,0,1,6.62,1.061H172.131" fill="#a6a6a6"/>
  <path id="Path_2628" data-name="Path 2628" d="M926.657,157.244a3.6,3.6,0,0,1-.986,2.656,3.849,3.849,0,0,1-2.919,1.178,4.157,4.157,0,1,1,0-8.313,4.092,4.092,0,0,1,1.631.334,3.276,3.276,0,0,1,1.242.889l-.7.7a2.68,2.68,0,0,0-2.175-.944,3.178,3.178,0,1,0,2.219,5.468,2.507,2.507,0,0,0,.666-1.612h-2.885v-.956h3.85a3.386,3.386,0,0,1,.055.6" transform="translate(-863.871 -143.659)" fill="#fff"/>
  <path id="Path_2629" data-name="Path 2629" d="M924.57,155.151h-.132a3.461,3.461,0,0,1-.948,2.562h0a3.717,3.717,0,0,1-2.823,1.137,4.024,4.024,0,1,1,0-8.048,3.961,3.961,0,0,1,1.579.323,3.151,3.151,0,0,1,1.193.853l.1-.086-.094-.094-.7.7.093.093.1-.085a2.817,2.817,0,0,0-2.277-.992,3.311,3.311,0,1,0,2.312,5.695,2.639,2.639,0,0,0,.7-1.694l.013-.144h-2.9v-.691h3.717v-.133l-.13.023a3.251,3.251,0,0,1,.053.577h.265a3.511,3.511,0,0,0-.058-.624l-.02-.109h-4.093v1.221h3.017v-.133l-.132-.011a2.376,2.376,0,0,1-.628,1.529,3.028,3.028,0,0,1-4.2,0,3.2,3.2,0,0,1,0-4.4,2.882,2.882,0,0,1,2.078-.846,2.548,2.548,0,0,1,2.074.9l.093.111.8-.8.086-.086-.078-.093a3.4,3.4,0,0,0-1.291-.926,4.225,4.225,0,0,0-1.683-.345,4.289,4.289,0,1,0,0,8.579,3.985,3.985,0,0,0,3.014-1.219l-.1-.092.094.094a3.73,3.73,0,0,0,1.025-2.75h-.133m6.1-3.324h-3.618v2.523h3.263v.956h-3.263v2.523h3.618v.978h-4.638V150.85h4.638v.978" transform="translate(-861.784 -141.566)" fill="#fff"/>
  <path id="Path_2630" data-name="Path 2630" d="M1080.517,154.64v-.133h-3.75V157.3h3.263v.691h-3.263v2.788h3.618v.712h-4.373V153.8h4.373v.845h.132v0h.132v-1.11h-4.9v8.223h4.9V160.51h-3.618v-2.258h3.262v-1.221h-3.262v-2.258h3.618v-.133h-.132m4.3,6.98H1083.8v-6.98h-2.219v-.978h5.459v.978h-2.219v6.98" transform="translate(-1011.628 -144.379)" fill="#fff"/>
  <path id="Path_2631" data-name="Path 2631" d="M1174.8,161.62v-.133h-.889v-6.98h-2.219V153.8h5.194v.712h-2.219v7.112h.132v0h.132v-6.847h2.219V153.53h-5.724v1.243h2.219v6.98h1.286v-.133h-.132m6.169,0v-7.958h1.021v7.957h-1.021" transform="translate(-1101.602 -144.379)" fill="#fff"/>
  <path id="Path_2632" data-name="Path 2632" d="M1329.422,161.62h.132V153.8h.756v7.692h-.888v.133h0v.133h1.153V153.53h-1.285v8.223h.132v-.133m5.549,0h-1.022v-6.98h-2.219v-.978h5.459v.978h-2.219v6.98" transform="translate(-1250.058 -144.379)" fill="#fff"/>
  <path id="Path_2633" data-name="Path 2633" d="M1371.387,160.9v-.133h-.889v-6.98h-2.219v-.712h5.194v.712h-2.219V160.9h.132v0h.133v-6.847h2.219V152.81h-5.724v1.243h2.219v6.98h1.286V160.9h-.133m7.482-1.694a3.052,3.052,0,0,0,4.316,0,3.394,3.394,0,0,0,0-4.568,3.051,3.051,0,0,0-4.316,0,3.4,3.4,0,0,0,0,4.568Zm5.071.666a4.12,4.12,0,0,1-5.825,0,4.3,4.3,0,0,1,0-5.9,4.106,4.106,0,0,1,5.82.005,4.29,4.29,0,0,1,.005,5.9Z" transform="translate(-1286.476 -143.659)" fill="#fff"/>
  <path id="Path_2634" data-name="Path 2634" d="M1517.685,157.113l-.094.093a3.184,3.184,0,0,0,4.5,0,3.527,3.527,0,0,0,0-4.755,3.184,3.184,0,0,0-4.5,0,3.531,3.531,0,0,0,0,4.755l.094-.093.094-.093a3.266,3.266,0,0,1,0-4.382,2.919,2.919,0,0,1,4.128,0,3.265,3.265,0,0,1,0,4.382,2.919,2.919,0,0,1-4.128,0Zm5.071.666-.095-.092a3.989,3.989,0,0,1-5.636,0l0,0,0,0a4.173,4.173,0,0,1,0-5.716,3.975,3.975,0,0,1,5.631.006,4.157,4.157,0,0,1,.005,5.711l.095.092.1.092a4.422,4.422,0,0,0-.005-6.08,4.238,4.238,0,0,0-6.01-.005h0a4.437,4.437,0,0,0,0,6.086l0,0,0,0a4.252,4.252,0,0,0,6.015,0Zm2.6,1.028V150.85h1.243l3.861,6.19h.044l-.044-1.533V150.85h1.021v7.957h-1.065l-4.04-6.49h-.044l.044,1.534v4.956h-1.02" transform="translate(-1425.291 -141.566)" fill="#fff"/>
  <path id="Path_2635" data-name="Path 2635" d="M957.462,161.62h.132V153.8h1.036l3.861,6.19h.253l-.047-1.668V153.8h.757v7.692h-.86l-4.04-6.49H958.3l.048,1.669v4.821h-.888v.133h0v.133h1.152v-5.091l-.044-1.536-.133,0v.133h.044v-.133l-.112.07,4.078,6.552h1.271V153.53h-1.286v4.791l.044,1.535.132,0v-.133h-.044v.133l.112-.07-3.9-6.253H957.33v8.223h.132v-.133m41.524,22.546h2.471V167.586h-2.471Zm22.254-10.607-2.832,7.188h-.085l-2.939-7.188h-2.661l4.408,10.047-2.513,5.588h2.578l6.792-15.635Zm-14.012,8.724c-.81,0-1.938-.405-1.938-1.408,0-1.28,1.406-1.77,2.619-1.77a4.391,4.391,0,0,1,2.258.555A3,3,0,0,1,1007.229,182.283Zm.3-9.087a4.637,4.637,0,0,0-4.408,2.539l2.193.917a2.341,2.341,0,0,1,2.258-1.216,2.38,2.38,0,0,1,2.6,2.133v.171a5.457,5.457,0,0,0-2.577-.64c-2.363,0-4.771,1.3-4.771,3.733a3.827,3.827,0,0,0,4.11,3.648,3.486,3.486,0,0,0,3.152-1.621h.085v1.28h2.385v-6.357C1012.552,174.839,1010.359,173.2,1007.527,173.2Zm-15.269,2.381h-3.514v-5.683h3.514a2.842,2.842,0,1,1,0,5.683Zm-.064-7.99h-5.92v16.579h2.469v-6.281h3.45a5.156,5.156,0,1,0,0-10.3Zm-32.282,14.7a3.431,3.431,0,0,1,0-6.837,3.447,3.447,0,0,1,0,6.837Zm2.837-7.8h-.085a3.9,3.9,0,0,0-2.965-1.26,5.646,5.646,0,0,0,0,11.281,3.838,3.838,0,0,0,2.965-1.282h.085v.812c0,2.158-1.152,3.312-3.008,3.312a3.118,3.118,0,0,1-2.838-2.009l-2.154.9a5.368,5.368,0,0,0,4.992,3.333c2.9,0,5.354-1.71,5.354-5.876V173.569h-2.347Zm4.053,9.679h2.474v-16.58H966.8Zm6.122-5.47a3.092,3.092,0,0,1,2.944-3.29,2.178,2.178,0,0,1,2.09,1.2Zm7.679-1.88a5.235,5.235,0,0,0-4.821-3.59,5.356,5.356,0,0,0-5.311,5.641,5.515,5.515,0,0,0,5.589,5.641,5.6,5.6,0,0,0,4.693-2.5l-1.92-1.282a3.214,3.214,0,0,1-2.773,1.56,2.865,2.865,0,0,1-2.73-1.709l7.53-3.12Zm-59.992-1.859v2.393h5.717a5,5,0,0,1-1.3,3.012,5.846,5.846,0,0,1-4.415,1.752,6.368,6.368,0,0,1,0-12.734,6.087,6.087,0,0,1,4.309,1.709L926.6,169.4a8.326,8.326,0,0,0-5.994-2.415,8.761,8.761,0,1,0,0,17.52,7.747,7.747,0,0,0,8.17-8.055,7.765,7.765,0,0,0-.128-1.5Zm14.669,7.328a3.428,3.428,0,1,1,3.178-3.419A3.261,3.261,0,0,1,935.28,182.286Zm0-9.059a5.641,5.641,0,1,0,5.653,5.641A5.555,5.555,0,0,0,935.28,173.227Zm12.331,9.059a3.428,3.428,0,1,1,3.178-3.419A3.261,3.261,0,0,1,947.612,182.286Zm0-9.059a5.641,5.641,0,1,0,5.653,5.641A5.555,5.555,0,0,0,947.612,173.227Z" transform="translate(-857.393 -144.379)" fill="#fff"/>
  <path id="Path_2636" data-name="Path 2636" d="M222.251,162.565a2.564,2.564,0,0,0-.71,1.96v28.943a2.658,2.658,0,0,0,.613,1.863l.1.094h0a1.7,1.7,0,0,0,1.17.431,3.046,3.046,0,0,0,1.483-.445l19.219-10.938,6.6-3.758A2.471,2.471,0,0,0,252.114,179v0a2.47,2.47,0,0,0-1.388-1.72l-6.6-3.757L224.906,162.58a3.051,3.051,0,0,0-1.486-.446,1.7,1.7,0,0,0-1.169.43Z" transform="translate(-208.336 -152.47)" fill="#00c1ff"/>
  <path id="Path_2637" data-name="Path 2637" d="M.826-518.7l-.1-.094a2.658,2.658,0,0,1-.613-1.863v-28.943a2.563,2.563,0,0,1,.71-1.96L17.23-535.135.826-518.7" transform="translate(13.09 561.66)" fill="url(#linear-gradient)"/>
  <path id="Path_2638" data-name="Path 2638" d="M6.155-173.61.686-179.089l5.469-5.478,6.6,3.757a2.47,2.47,0,0,1,1.388,1.721v0a2.471,2.471,0,0,1-1.388,1.719l-6.6,3.757" transform="translate(29.634 205.615)" fill="url(#linear-gradient-2)"/>
  <path id="Path_2639" data-name="Path 2639" d="M1.61-266.155a1.7,1.7,0,0,1-1.17-.431h0l16.4-16.43,5.469,5.479L3.093-266.6a3.046,3.046,0,0,1-1.483.445" transform="translate(13.476 309.543)" fill="url(#linear-gradient-3)"/>
  <path id="Path_2640" data-name="Path 2640" d="M16.6-266.743.19-283.174a1.7,1.7,0,0,1,1.169-.431,3.052,3.052,0,0,1,1.486.446l19.219,10.938L16.6-266.743" transform="translate(13.724 293.269)" fill="url(#linear-gradient-4)"/>
  <path id="Path_2641" data-name="Path 2641" d="M2.059-183.517a1.7,1.7,0,0,1-1.171-.432h0l0,0L.8-184.035l-.008-.009.1-.1a1.7,1.7,0,0,0,1.17.431,3.045,3.045,0,0,0,1.483-.445l19.219-10.938.123.123-.125.071L3.542-183.963a3.161,3.161,0,0,1-1.362.443l-.121,0" transform="translate(13.028 227.099)" fill="url(#linear-gradient-5)"/>
  <path id="Path_2642" data-name="Path 2642" d="M.728-33.248a2.657,2.657,0,0,1-.613-1.863v-.193a2.658,2.658,0,0,0,.613,1.863l.1.094-.1.1" transform="translate(13.09 76.303)" fill="url(#linear-gradient-6)"/>
  <path id="Path_2643" data-name="Path 2643" d="M.765-88.527.642-88.65l6.6-3.757a2.471,2.471,0,0,0,1.388-1.719,1.644,1.644,0,0,1-.153.684,2.843,2.843,0,0,1-1.235,1.229L.765-88.527" transform="translate(35.147 120.655)" fill="url(#linear-gradient-7)"/>
  <path id="Path_2644" data-name="Path 2644" d="M8.623-89.083A2.47,2.47,0,0,0,7.235-90.8l-6.6-3.757.123-.123h0L7.235-91a2.328,2.328,0,0,1,1.388,1.914" transform="translate(35.155 115.608)" fill="url(#linear-gradient-8)"/>
  <path id="Path_2645" data-name="Path 2645" d="M.115-32.7v-.2c0-.073,0-.145.006-.214v0a.009.009,0,0,1,0,0v-.008a2.529,2.529,0,0,1,.607-1.627l.1.1a2.564,2.564,0,0,0-.71,1.96" transform="translate(13.09 44.755)" fill="url(#linear-gradient-9)"/>
  <path id="Path_2646" data-name="Path 2646" d="M22.76-183.325,3.541-194.263a3.051,3.051,0,0,0-1.486-.446,1.7,1.7,0,0,0-1.169.431l-.1-.1q.045-.048.094-.093l0,0a1.7,1.7,0,0,1,1.158-.431h.01a3.05,3.05,0,0,1,1.486.446l19.343,11.008h0l-.123.123" transform="translate(13.029 204.373)" fill="url(#linear-gradient-10)"/>
</svg>
