<svg xmlns="http://www.w3.org/2000/svg" xmlns:xlink="http://www.w3.org/1999/xlink" width="1069.574" height="618.955" viewBox="0 0 1069.574 618.955">
  <defs>
    <linearGradient id="linear-gradient" x1="0.321" y1="0.782" x2="0.377" y2="0.063" gradientUnits="objectBoundingBox">
      <stop offset="0" stop-color="#a7d7ee"/>
      <stop offset="1" stop-color="#fff"/>
    </linearGradient>
  </defs>
  <path id="Subtraction_116" data-name="Subtraction 116" d="M11790.5,23365.221v-618.955l1069.574,0a266.377,266.377,0,0,1-7.5,32.662,455.584,455.584,0,0,1-24.887,65.75,579.067,579.067,0,0,1-51.609,88.678c-11.871,16.871-24.9,33.615-38.74,49.766-15.111,17.639-31.572,35.031-48.924,51.688-18.746,18-39.025,35.609-60.27,52.34-22.766,17.934-47.254,35.34-72.785,51.725-27.191,17.459-56.279,34.225-86.467,49.844-31.975,16.543-66.062,32.25-101.312,46.686-18.338,7.51-37.377,14.834-56.59,21.764-19.729,7.123-40.166,14.018-60.74,20.5-21.109,6.656-42.992,13.074-65.035,19.08-22.543,6.139-45.918,12.027-69.477,17.492-24.1,5.59-49.018,10.895-74.061,15.756-25.6,4.965-52.109,9.625-78.8,13.852-27.24,4.311-55.393,8.279-83.676,11.793-28.879,3.592-58.721,6.818-88.7,9.582Z" transform="translate(-11790.502 -22746.266)" opacity="0.534" fill="url(#linear-gradient)"/>
</svg>
