<svg width="16" height="13" viewBox="0 0 16 13" fill="none" xmlns="http://www.w3.org/2000/svg">
<path d="M0 2.37944V11.9994C0 12.3139 0.3175 12.5289 0.609444 12.4122L4.44444 10.6667V0L0.558889 1.55417C0.393938 1.62014 0.252536 1.73402 0.152919 1.88112C0.0533024 2.02822 3.95058e-05 2.20179 0 2.37944H0ZM5.33333 10.6667L10.6667 12.4444V1.77778L5.33333 0V10.6667ZM15.3906 0.0322222L11.5556 1.77778V12.4444L15.4411 10.8903C15.6061 10.8243 15.7475 10.7105 15.8471 10.5634C15.9468 10.4162 16 10.2427 16 10.065V0.445C16 0.130556 15.6825 -0.0844444 15.3906 0.0322222Z" fill="#ffffff"/>
</svg>
