<svg xmlns="http://www.w3.org/2000/svg" width="40.442" height="52.053" viewBox="0 0 40.442 52.053">
  <path id="noun-6537143" d="M220.189,76.121a.792.792,0,0,1-.256.575.9.9,0,0,1-.615.238H191.552a.879.879,0,0,1-.733-.413.769.769,0,0,1,0-.8.879.879,0,0,1,.733-.413h27.767a.9.9,0,0,1,.615.238A.791.791,0,0,1,220.189,76.121ZM219.2,70.7a.881.881,0,0,1,.752.407.768.768,0,0,1,0,.813.88.88,0,0,1-.752.407H191.552a.88.88,0,0,1-.752-.407.769.769,0,0,1,0-.813.881.881,0,0,1,.752-.407Zm.856-3.791a.785.785,0,0,1-.252.575.9.9,0,0,1-.613.238H191.551a.881.881,0,0,1-.752-.407.769.769,0,0,1,0-.813.88.88,0,0,1,.752-.407h27.635a.9.9,0,0,1,.613.238.784.784,0,0,1,.252.575Zm-.153-4.6a.79.79,0,0,1-.255.577.9.9,0,0,1-.616.239H191.551a.878.878,0,0,1-.733-.413.769.769,0,0,1,0-.8.879.879,0,0,1,.733-.413h27.477a.9.9,0,0,1,.615.239.791.791,0,0,1,.256.575Zm-29.212-4.6a.784.784,0,0,1,.252-.575.9.9,0,0,1,.613-.239H205.13a.879.879,0,0,1,.733.413.769.769,0,0,1,0,.8.879.879,0,0,1-.733.413H191.552a.9.9,0,0,1-.613-.238.785.785,0,0,1-.252-.575Zm19.32-7.2h8.909v4.1h-8.909Zm-1.736-.813v5.726a.784.784,0,0,0,.252.575.9.9,0,0,0,.613.238h10.651a.9.9,0,0,0,.614-.238.79.79,0,0,0,.256-.575V49.691a.79.79,0,0,0-.256-.575.9.9,0,0,0-.615-.238h-10.65a.9.9,0,0,0-.613.238.783.783,0,0,0-.252.575Zm-9.262-11.22a7,7,0,0,1,4.782,1.856,6.056,6.056,0,0,1,0,8.959,7.091,7.091,0,0,1-9.565,0,6.052,6.052,0,0,1,0-8.959,7.006,7.006,0,0,1,4.783-1.855Zm0,14.3a8.914,8.914,0,0,0,4.723-1.342,8.1,8.1,0,0,0,3.131-3.574,7.5,7.5,0,0,0,.484-4.6,7.819,7.819,0,0,0-2.327-4.077A8.692,8.692,0,0,0,200.668,37a9.033,9.033,0,0,0-4.911.453,8.406,8.406,0,0,0-3.815,2.933,7.609,7.609,0,0,0-1.432,4.424A7.725,7.725,0,0,0,193,50.435a8.811,8.811,0,0,0,6.009,2.335Zm.942-6.275h0a.83.83,0,0,1-.276.617.949.949,0,0,1-.666.242.96.96,0,0,1-.7-.261.836.836,0,0,1-.262-.658.809.809,0,0,0-.456-.692.919.919,0,0,0-.868.024.8.8,0,0,0-.412.716,2.412,2.412,0,0,0,.526,1.481,2.689,2.689,0,0,0,1.357.905.8.8,0,0,0,.445.694.916.916,0,0,0,.865-.014.8.8,0,0,0,.419-.708,2.687,2.687,0,0,0,1.249-.885,2.43,2.43,0,0,0-.2-3.214,2.752,2.752,0,0,0-1.893-.8c-.957-.08-1.034-.671-1.018-.921a.885.885,0,0,1,.5-.758,1,1,0,0,1,.949.023.878.878,0,0,1,.453.782.786.786,0,0,0,.261.559.9.9,0,0,0,.6.23h.025a.9.9,0,0,0,.606-.256.792.792,0,0,0,.239-.581,2.421,2.421,0,0,0-.494-1.435,2.685,2.685,0,0,0-1.278-.916v-.149a.787.787,0,0,0-.246-.589.91.91,0,0,0-1.244,0,.786.786,0,0,0-.246.589v.116a2.7,2.7,0,0,0-1.321.881,2.429,2.429,0,0,0-.542,1.432,2.4,2.4,0,0,0,.711,1.822,2.744,2.744,0,0,0,1.891.793c.983.083,1.029.736,1.018.934Zm15.666-12.2,8.212,7.792h-8.4Zm9.419,47.674V43.714H214.544a.9.9,0,0,1-.622-.245.788.788,0,0,1-.249-.587l.234-9.712H188.07v48.8ZM214.794,31.544H187.206a.9.9,0,0,0-.615.239.791.791,0,0,0-.256.575V82.784a.79.79,0,0,0,.256.575.9.9,0,0,0,.615.238h38.7a.9.9,0,0,0,.614-.238.791.791,0,0,0,.255-.575V42.908a.789.789,0,0,0-.254-.578L215.415,31.786a.909.909,0,0,0-.621-.242Z" transform="translate(-186.335 -31.544)" fill="#fff" fill-rule="evenodd"/>
</svg>
