<svg xmlns="http://www.w3.org/2000/svg" xmlns:xlink="http://www.w3.org/1999/xlink" width="68.014" height="80.518" viewBox="0 0 68.014 80.518">
  <defs>
    <clipPath id="clip-path">
      <rect id="Rectangle_5" data-name="Rectangle 5" width="68.014" height="80.518" transform="translate(730.5 1459)" fill="#00577d"/>
    </clipPath>
  </defs>
  <g id="Mask_Group_12" data-name="Mask Group 12" transform="translate(-730.5 -1459)" clip-path="url(#clip-path)">
    <g id="noun_build_1790725" transform="translate(730.5 1468.971)">
      <g id="Group_156" data-name="Group 156" transform="translate(0 45.766)">
        <path id="Path_84" data-name="Path 84" d="M8.1,320.136a1.367,1.367,0,0,0-1.122.829L.266,332.944c-.62,1.106-.117,2,1.122,2H14.819c1.24,0,1.743-.9,1.122-2L9.226,320.965a1.367,1.367,0,0,0-1.123-.829Z" transform="translate(0 -320.136)" fill="#00577d"/>
        <path id="Path_85" data-name="Path 85" d="M343.266,320.136a1.365,1.365,0,0,0-1.122.829l-6.716,11.978c-.62,1.105-.117,2,1.122,2h13.43c1.24,0,1.742-.9,1.122-2l-6.715-11.979a1.362,1.362,0,0,0-1.121-.829Z" transform="translate(-283.355 -320.136)" fill="#00577d"/>
        <g id="Group_155" data-name="Group 155" transform="translate(17.004)">
          <path id="Path_86" data-name="Path 86" d="M118.105,320.136a1.368,1.368,0,0,0-1.122.829l-6.715,11.978c-.62,1.105-.117,2,1.122,2h13.431c1.24,0,1.742-.9,1.122-2l-6.715-11.979a1.366,1.366,0,0,0-1.122-.829Z" transform="translate(-110.002 -320.136)" fill="#00577d"/>
          <path id="Path_87" data-name="Path 87" d="M233.265,320.136a1.365,1.365,0,0,0-1.122.829l-6.716,11.978c-.62,1.105-.117,2,1.122,2h13.43c1.24,0,1.742-.9,1.122-2l-6.714-11.979a1.366,1.366,0,0,0-1.123-.829Z" transform="translate(-207.361 -320.136)" fill="#00577d"/>
        </g>
      </g>
      <g id="Group_158" data-name="Group 158" transform="translate(8.635 30.422)">
        <path id="Path_88" data-name="Path 88" d="M287.406,220.873a1.365,1.365,0,0,0-1.122.83l-6.716,11.978c-.62,1.105-.117,2,1.122,2h13.43c1.24,0,1.742-.9,1.122-2L288.529,221.7a1.367,1.367,0,0,0-1.123-.829Z" transform="translate(-244.764 -220.873)" fill="#00577d"/>
        <g id="Group_157" data-name="Group 157">
          <path id="Path_89" data-name="Path 89" d="M63.964,220.873a1.368,1.368,0,0,0-1.122.83l-6.715,11.978c-.62,1.105-.117,2,1.122,2H70.679c1.24,0,1.742-.9,1.122-2L65.087,221.7a1.368,1.368,0,0,0-1.123-.829Z" transform="translate(-55.861 -220.873)" fill="#00577d"/>
          <path id="Path_90" data-name="Path 90" d="M175.684,220.873a1.367,1.367,0,0,0-1.122.83l-6.715,11.978c-.62,1.105-.117,2,1.122,2H182.4c1.239,0,1.742-.9,1.122-2L176.807,221.7a1.367,1.367,0,0,0-1.123-.829Z" transform="translate(-150.312 -220.873)" fill="#00577d"/>
        </g>
      </g>
      <path id="Path_91" data-name="Path 91" d="M119.824,123.322a1.367,1.367,0,0,0-1.122.829l-6.715,11.979c-.62,1.106-.117,2,1.122,2H126.54c1.24,0,1.742-.9,1.122-2l-6.715-11.978a1.368,1.368,0,0,0-1.123-.83Z" transform="translate(-94.452 -107.979)" fill="#00577d"/>
      <path id="Path_92" data-name="Path 92" d="M231.545,123.322a1.364,1.364,0,0,0-1.122.829l-6.716,11.979c-.62,1.106-.117,2,1.122,2h13.43c1.24,0,1.742-.9,1.122-2l-6.714-11.978a1.368,1.368,0,0,0-1.123-.83Z" transform="translate(-188.903 -107.979)" fill="#00577d"/>
      <path id="Path_93" data-name="Path 93" d="M175.684,24.063a1.367,1.367,0,0,0-1.122.829l-6.715,11.979c-.62,1.106-.117,2,1.122,2H182.4c1.239,0,1.742-.9,1.122-2l-6.715-11.979a1.368,1.368,0,0,0-1.123-.829Z" transform="translate(-141.677 -24.063)" fill="#00577d"/>
    </g>
  </g>
</svg>
