<svg xmlns="http://www.w3.org/2000/svg" xmlns:xlink="http://www.w3.org/1999/xlink" width="59" height="59" viewBox="0 0 59 59">
  <defs>
    <clipPath id="clip-path">
      <circle id="Ellipse_26" data-name="Ellipse 26" cx="29.5" cy="29.5" r="29.5" transform="translate(277 1187.043)" fill="#fcfeff"/>
    </clipPath>
  </defs>
  <g id="Mask_Group_21" data-name="Mask Group 21" transform="translate(-277 -1187.043)" clip-path="url(#clip-path)">
    <g id="noun_Mortarboard_967646" transform="translate(277 1199.851)">
      <path id="Path_115" data-name="Path 115" d="M36.433,38.172,7.778,48.9l1.6.6L36.434,59.627l25.15-9.415L65.089,48.9Z" transform="translate(-7.778 -38.172)" fill="#fff"/>
      <path id="Path_116" data-name="Path 116" d="M34.992,81.23v9.017c0,3.435,7.694,6.219,17.186,6.219,6.435,0,12.04-1.28,14.985-3.174,1.4-.9,2.2-1.939,2.2-3.045V81.23L52.179,87.663Z" transform="translate(-23.523 -63.083)" fill="#fff"/>
      <path id="Path_117" data-name="Path 117" d="M139.638,67.354l-1.251.465-.429,3.139-1.245,9.129h4.663Z" transform="translate(-82.375 -55.055)" fill="#fff"/>
    </g>
  </g>
</svg>
