<svg id="noun_loan_1858684" xmlns="http://www.w3.org/2000/svg" width="74.744" height="75.707" viewBox="0 0 74.744 75.707">
  <path id="Path_191" data-name="Path 191" d="M38.713,28.1a2.2,2.2,0,0,0-1.33.484,1.468,1.468,0,0,0-.121,2.055,3.936,3.936,0,0,0,1.451.725Z" transform="translate(5.169 3.754)" fill="#00577d"/>
  <path id="Path_192" data-name="Path 192" d="M41.334,34.813a1.478,1.478,0,0,0-.363-1.088A4.791,4.791,0,0,0,39.4,33v3.385a2.592,2.592,0,0,0,1.451-.484A2.172,2.172,0,0,0,41.334,34.813Z" transform="translate(5.691 4.777)" fill="#00577d"/>
  <path id="Path_193" data-name="Path 193" d="M33.344,46.438H45.916a6.205,6.205,0,0,1,5.923,6.407,8.224,8.224,0,0,1-.242,1.813L66.1,45.35h.121V33.382A17.132,17.132,0,0,0,53.169,16.7a5.206,5.206,0,0,1-4.715,3.022H36.97A5.206,5.206,0,0,1,32.256,16.7,17.342,17.342,0,0,0,19.2,33.382v9.066C24.519,41.724,30.08,42.328,33.344,46.438Zm5.8-11.726a3.463,3.463,0,0,1-.967-2.539,3.375,3.375,0,0,1,1.088-2.66,4.214,4.214,0,0,1,3.022-1.088v-.967H43.5v.967a8.439,8.439,0,0,1,3.989,1.451l-1.209,1.692a5.67,5.67,0,0,0-2.66-1.088v3.627h0a10.622,10.622,0,0,1,3.264,1.33,3.046,3.046,0,0,1,.967,2.539,3.112,3.112,0,0,1-1.209,2.66A4.519,4.519,0,0,1,43.5,41.724v1.33H42.289v-1.33a8.257,8.257,0,0,1-4.715-2.055l1.33-1.692a7.087,7.087,0,0,0,3.264,1.692V36.042A8.76,8.76,0,0,1,39.146,34.712Z" transform="translate(1.472 1.373)" fill="#00577d"/>
  <path id="Path_194" data-name="Path 194" d="M73.041,44.02a4.059,4.059,0,0,0-5.682-2.055L48.138,54.417a4.075,4.075,0,0,1-2.055.6H33.39a.553.553,0,0,1-.6-.484c-.242-1.33.242-1.813,1.209-1.813H45.962a4.609,4.609,0,0,0,0-9.187H33.511a1.847,1.847,0,0,1-1.209-.484c-3.143-3.989-8.946-4.231-13.9-3.385V64.088h.363a14.482,14.482,0,0,1,5.561.846l11.726,4.231a8.265,8.265,0,0,0,7.132-.846l11-6.891L71.107,50.307A5.139,5.139,0,0,0,73.041,44.02Z" transform="translate(1.305 6.087)" fill="#00577d"/>
  <path id="Path_195" data-name="Path 195" d="M19.145,37H2.946a.826.826,0,0,0-.846.846V66.255a.826.826,0,0,0,.846.846h16.2a.826.826,0,0,0,.846-.846V37.846A.826.826,0,0,0,19.145,37Z" transform="translate(-2.1 5.613)" fill="#00577d"/>
  <path id="Path_196" data-name="Path 196" d="M34.485,12A3.379,3.379,0,0,0,31.1,15.385a3.459,3.459,0,0,0,3.385,3.385H45.969a3.385,3.385,0,1,0,0-6.77Z" transform="translate(3.957 0.391)" fill="#00577d"/>
  <path id="Path_197" data-name="Path 197" d="M32.73,12.811a5.774,5.774,0,0,1,2.176-.484H46.39a4.741,4.741,0,0,1,2.176.484L51.588,6.4a1.16,1.16,0,0,0-.242-1.088L46.632,1.931a.735.735,0,0,0-.967,0L40.709,4.953,36.115,1.931a.731.731,0,0,0-.967,0L30.07,5.316A.975.975,0,0,0,29.708,6.4Z" transform="translate(3.657 -1.75)" fill="#00577d"/>
</svg>
