<svg xmlns="http://www.w3.org/2000/svg" xmlns:xlink="http://www.w3.org/1999/xlink" width="68.101" height="86.072" viewBox="0 0 68.101 86.072">
  <defs>
    <clipPath id="clip-path">
      <rect id="Rectangle_6" data-name="Rectangle 6" width="68.101" height="86.072" transform="translate(1193.75 1610.758)" fill="#00577d"/>
    </clipPath>
  </defs>
  <g id="Mask_Group_39" data-name="Mask Group 39" transform="translate(-1193.75 -1610.758)" clip-path="url(#clip-path)">
    <g id="noun_property_282069" transform="translate(1193.75 1619.572)">
      <path id="Path_221" data-name="Path 221" d="M237.476,313.505v3.5a1.708,1.708,0,0,0,1.46-1.752,2.11,2.11,0,0,0-.292-1.022A3.179,3.179,0,0,0,237.476,313.505Z" transform="translate(-201.213 -265.435)" fill="#00577d"/>
      <path id="Path_222" data-name="Path 222" d="M209.316,258.793a2.06,2.06,0,0,0,1.168,1.752v-3.358A1.708,1.708,0,0,0,209.316,258.793Z" transform="translate(-177.433 -217.877)" fill="#00577d"/>
      <path id="Path_223" data-name="Path 223" d="M72.137,34.279,40.6,5.225a2.916,2.916,0,0,0-3.942,0L5.269,34.279a2.88,2.88,0,0,0-.73,3.212,2.673,2.673,0,0,0,2.628,1.752h9.052v28.47a5.389,5.389,0,0,0,5.4,5.4H55.347a5.389,5.389,0,0,0,5.4-5.4V39.243H69.8a2.884,2.884,0,0,0,2.628-1.752C72.867,36.469,73.013,35.009,72.137,34.279Zm-27.156,23.8a7.52,7.52,0,0,1-4.38,1.9v2.044H37.535V59.975a12.788,12.788,0,0,1-6.716-3.358L33.447,53.4a9.608,9.608,0,0,0,4.088,2.482V51.653a10.2,10.2,0,0,1-4.38-2.044,5.044,5.044,0,0,1-1.46-3.8A5.994,5.994,0,0,1,33.3,41.725a6.727,6.727,0,0,1,4.234-1.9v-1.46H40.6v1.46A13.5,13.5,0,0,1,46.3,42.163l-2.336,3.358A10.64,10.64,0,0,0,40.6,43.769v4.088a10.864,10.864,0,0,1,4.526,2.19,4.749,4.749,0,0,1,1.46,3.8A5.841,5.841,0,0,1,44.981,58.077Z" transform="translate(-4.338 -4.459)" fill="#00577d"/>
    </g>
  </g>
</svg>
