<svg xmlns="http://www.w3.org/2000/svg" xmlns:xlink="http://www.w3.org/1999/xlink" width="65.636" height="77.703" viewBox="0 0 65.636 77.703">
  <defs>
    <clipPath id="clip-path">
      <rect id="Rectangle_8" data-name="Rectangle 8" width="65.636" height="77.703" transform="translate(730.5 2181)" fill="#00577d"/>
    </clipPath>
  </defs>
  <g id="Mask_Group_14" data-name="Mask Group 14" transform="translate(-730.5 -2181)" clip-path="url(#clip-path)">
    <path id="noun_services_690078" d="M7.168,55.558l2.752.484a14.276,14.276,0,0,0,1.413,3.431L9.738,61.761a2.119,2.119,0,0,0,.235,2.691l1.655,1.655a2.119,2.119,0,0,0,2.691.235l2.294-1.608a14.3,14.3,0,0,0,3.465,1.453l.484,2.752A2.119,2.119,0,0,0,22.648,70.7h2.341a2.119,2.119,0,0,0,2.086-1.756l.484-2.752a14.3,14.3,0,0,0,3.431-1.426l2.294,1.608a2.119,2.119,0,0,0,2.691-.235l1.655-1.655a2.119,2.119,0,0,0,.235-2.691l-1.608-2.294a14.256,14.256,0,0,0,1.426-3.431l2.752-.484a2.119,2.119,0,0,0,1.756-2.086V51.131a2.119,2.119,0,0,0-1.756-2.086l-2.745-.5a14.249,14.249,0,0,0-1.426-3.431l1.608-2.294a2.119,2.119,0,0,0-.235-2.691l-1.648-1.675A2.119,2.119,0,0,0,33.3,38.22l-2.321,1.621a14.3,14.3,0,0,0-3.431-1.426l-.484-2.752a2.119,2.119,0,0,0-2.086-1.756H22.641a2.119,2.119,0,0,0-2.086,1.756l-.478,2.752a14.3,14.3,0,0,0-3.431,1.426l-2.294-1.608a2.119,2.119,0,0,0-2.691.235L9.986,40.118a2.119,2.119,0,0,0-.235,2.691l1.581,2.321a14.256,14.256,0,0,0-1.406,3.418l-2.758.484a2.119,2.119,0,0,0-1.756,2.086v2.335a2.119,2.119,0,0,0,1.756,2.106ZM23.805,45.54a6.728,6.728,0,1,1-6.728,6.728,6.728,6.728,0,0,1,6.728-6.728ZM57.182,61.2V52.322H54.39a.834.834,0,0,1-.673-1.3l5.476-8.134a.834.834,0,0,1,.673-.37h0a.834.834,0,0,1,.673.37l5.49,8.134a.834.834,0,0,1-.673,1.3H62.537V63.88a2.691,2.691,0,0,1-2.691,2.691H43.679a1.2,1.2,0,0,1-1.2-1.2v-2.96a1.2,1.2,0,0,1,1.2-1.2Zm12.11-34.682a2.119,2.119,0,0,0,1.756-2.086V22.1a2.119,2.119,0,0,0-1.756-2.086l-2.752-.484a14.277,14.277,0,0,0-1.386-3.438L66.762,13.8a2.119,2.119,0,0,0-.235-2.691L64.858,9.432A2.119,2.119,0,0,0,62.167,9.2L59.853,10.8a14.283,14.283,0,0,0-3.445-1.426l-.471-2.752a2.119,2.119,0,0,0-2.086-1.756H51.51a2.119,2.119,0,0,0-2.086,1.756L48.94,9.378A14.283,14.283,0,0,0,45.509,10.8L43.215,9.2a2.119,2.119,0,0,0-2.691.235l-1.675,1.655a2.119,2.119,0,0,0-.235,2.691l1.608,2.294A14.263,14.263,0,0,0,38.795,19.5l-2.752.484a2.119,2.119,0,0,0-1.756,2.086v2.335a2.119,2.119,0,0,0,1.756,2.086l2.758.484a14.243,14.243,0,0,0,1.426,3.431L38.62,32.7a2.119,2.119,0,0,0,.235,2.691L40.5,37.11a2.119,2.119,0,0,0,2.691.235l2.294-1.608a14.27,14.27,0,0,0,3.431,1.426l.484,2.752a2.119,2.119,0,0,0,2.086,1.756h2.341a2.119,2.119,0,0,0,2.086-1.756l.5-2.765a14.269,14.269,0,0,0,3.431-1.426l2.294,1.608a2.119,2.119,0,0,0,2.691-.235L66.5,35.449a2.119,2.119,0,0,0,.235-2.691l-1.581-2.321a14.243,14.243,0,0,0,1.406-3.418ZM52.681,30.026A6.728,6.728,0,1,1,59.409,23.3,6.728,6.728,0,0,1,52.681,30.026ZM19.3,14.364v8.881H22.1a.834.834,0,0,1,.673,1.3l-5.456,8.134a.834.834,0,0,1-.673.37h0a.834.834,0,0,1-.673-.37l-5.51-8.134a.834.834,0,0,1,.673-1.3h2.8V11.686A2.691,2.691,0,0,1,16.62,8.995H32.807a1.2,1.2,0,0,1,1.2,1.2v2.96a1.2,1.2,0,0,1-1.2,1.2Z" transform="translate(725.089 2182.068)" fill="#00577d"/>
  </g>
</svg>
