<svg xmlns="http://www.w3.org/2000/svg" width="73.322" height="54.726" viewBox="0 0 73.322 54.726">
  <g id="noun_graphic_2142840" transform="translate(-3.555 -14.827)">
    <path id="Path_203" data-name="Path 203" d="M15.72,67.393h8.424a1.65,1.65,0,0,0,1.65-1.65V46.6a1.65,1.65,0,0,0-1.65-1.65H15.72a1.65,1.65,0,0,0-1.65,1.65V65.743A1.65,1.65,0,0,0,15.72,67.393Z" transform="translate(-1.842 -5.277)" fill="#00577d"/>
    <path id="Path_204" data-name="Path 204" d="M33.363,66.034h8.424a1.65,1.65,0,0,0,1.65-1.65V38.849a1.65,1.65,0,0,0-1.65-1.65H33.363a1.65,1.65,0,0,0-1.65,1.65V64.385A1.649,1.649,0,0,0,33.363,66.034Z" transform="translate(-4.932 -3.918)" fill="#00577d"/>
    <path id="Path_205" data-name="Path 205" d="M51,64.677h8.424a1.65,1.65,0,0,0,1.65-1.65V31.095a1.65,1.65,0,0,0-1.65-1.65H51a1.65,1.65,0,0,0-1.65,1.65V63.027A1.649,1.649,0,0,0,51,64.677Z" transform="translate(-8.021 -2.56)" fill="#00577d"/>
    <path id="Path_206" data-name="Path 206" d="M68.646,63.319h8.426a1.65,1.65,0,0,0,1.65-1.65V23.341a1.65,1.65,0,0,0-1.65-1.65H68.646A1.65,1.65,0,0,0,67,23.341V61.669A1.65,1.65,0,0,0,68.646,63.319Z" transform="translate(-11.111 -1.202)" fill="#00577d"/>
    <path id="Path_207" data-name="Path 207" d="M75.227,62.954H10.154V16.477a1.65,1.65,0,0,0-1.65-1.65H5.2a1.65,1.65,0,0,0-1.65,1.65V67.9a1.65,1.65,0,0,0,1.65,1.65H75.228a1.65,1.65,0,0,0,1.65-1.65V64.6A1.65,1.65,0,0,0,75.227,62.954Z" transform="translate(0 0)" fill="#00577d"/>
  </g>
</svg>
