<svg xmlns="http://www.w3.org/2000/svg" xmlns:xlink="http://www.w3.org/1999/xlink" width="77" height="77" viewBox="0 0 77 77">
  <defs>
    <clipPath id="clip-path">
      <circle id="Ellipse_22" data-name="Ellipse 22" cx="38.5" cy="38.5" r="38.5" transform="translate(1159 1182)" fill="#fff"/>
    </clipPath>
  </defs>
  <g id="Mask_Group_11" data-name="Mask Group 11" transform="translate(-1159 -1182)" clip-path="url(#clip-path)">
    <g id="noun_Family_2387304" transform="translate(1159 1198.875)">
      <path id="Path_78" data-name="Path 78" d="M112.766,42.134a4.811,4.811,0,1,0,4.811-4.811A4.819,4.819,0,0,0,112.766,42.134Z" transform="translate(-54.38 -37.323)" fill="#fff"/>
      <path id="Path_79" data-name="Path 79" d="M73.049,72.645a2.748,2.748,0,1,0,2.739-2.757A2.758,2.758,0,0,0,73.049,72.645Z" transform="translate(-36.507 -51.977)" fill="#fff"/>
      <path id="Path_80" data-name="Path 80" d="M67.58,86.782h0a.236.236,0,0,1,.246-.123A.209.209,0,0,1,68,86.87v2.774a.158.158,0,0,1-.018.088l-2.652,6.181h2.441a.221.221,0,0,1,.228.228v5.145h2.371l.9-5.145.035-.07c.018-.035.018-.053.035-.07s.035-.018.07-.035l.035-.018h.07l.053.018c.035.018.053.035.07.035.018.018.018.018.035.07l.035.07.9,5.145h2.371V96.142a.232.232,0,0,1,.228-.228h2.441L74.99,89.732a.158.158,0,0,1-.018-.088V86.87a.209.209,0,0,1,.176-.211.2.2,0,0,1,.246.123L78.046,92.1l.053.123h1.387l-3.512-8.833H67l-3.53,8.815h1.387Z" transform="translate(-32.197 -58.054)" fill="#fff"/>
      <path id="Path_81" data-name="Path 81" d="M24.967,42.134a4.811,4.811,0,1,0,4.811-4.811A4.819,4.819,0,0,0,24.967,42.134Z" transform="translate(-14.87 -37.323)" fill="#fff"/>
      <path id="Path_82" data-name="Path 82" d="M14.722,64.983h0a.209.209,0,0,1,.176.211V90.146h4.618l1.651-14.873a.384.384,0,0,0,.053-.088l.035-.07h0l.07-.035c.018,0,.035-.018.053-.035h.035c.018.018.035.018.053.035l.07.035.035.07.053.07,1.633,14.68.018.193h4.618V65.193a.209.209,0,0,1,.176-.211.2.2,0,0,1,.246.123l4.917,9.834.053.123h2.9L29.7,58.854l-.053-.14H13.141L6.609,75.062h2.9l4.969-9.956A.2.2,0,0,1,14.722,64.983Z" transform="translate(-6.609 -46.949)" fill="#fff"/>
      <path id="Path_83" data-name="Path 83" d="M117.93,60.214h-15.4L96.42,75.474h2.687l4.653-9.307a.236.236,0,0,1,.246-.123.211.211,0,0,1,.158.211v4.706a.158.158,0,0,1-.018.088L99.58,81.76h4.372a.232.232,0,0,1,.228.228v8.885h4.3l1.528-8.885.035-.07c.018-.035.018-.053.035-.07,0-.018.018-.018.07-.035l.035-.018h.07l.035.018c.035.018.053.018.07.035s.018.018.035.07l.053.07,1.493,8.692.035.176h4.3V81.971a.232.232,0,0,1,.228-.228h4.372L116.3,71.049a.158.158,0,0,1-.018-.088V66.255a.209.209,0,0,1,.176-.211.223.223,0,0,1,.246.123l4.583,9.184.053.123h2.687l-6.058-15.119Z" transform="translate(-47.024 -47.624)" fill="#fff"/>
    </g>
  </g>
</svg>
