<svg xmlns="http://www.w3.org/2000/svg" xmlns:xlink="http://www.w3.org/1999/xlink" width="69.348" height="87.21" viewBox="0 0 69.348 87.21">
  <defs>
    <clipPath id="clip-path">
      <rect id="Rectangle_5" data-name="Rectangle 5" width="69.348" height="87.21" transform="translate(729.75 1610.84)" fill="#00577d"/>
    </clipPath>
  </defs>
  <g id="Mask_Group_40" data-name="Mask Group 40" transform="translate(-729.75 -1610.84)" clip-path="url(#clip-path)">
    <g id="noun_home_loan_144737" data-name="noun_home loan_144737" transform="translate(729.75 1619.851)">
      <path id="Path_224" data-name="Path 224" d="M65.372,24.572V14.979H57.106V29.886Z" transform="translate(-48.841 -13.355)" fill="#00577d"/>
      <ellipse id="Ellipse_39" data-name="Ellipse 39" cx="3.69" cy="3.837" rx="3.69" ry="3.837" transform="translate(24.353 26.567)" fill="#00577d"/>
      <ellipse id="Ellipse_40" data-name="Ellipse 40" cx="3.69" cy="3.837" rx="3.69" ry="3.837" transform="translate(37.637 49.592)" fill="#00577d"/>
      <path id="Path_225" data-name="Path 225" d="M39.366,4.681,4.681,31.4H14.717V74.05h49.3V31.4H74.05ZM32.724,28a6.8,6.8,0,0,1,6.789,6.937,6.9,6.9,0,0,1-6.789,6.937,6.939,6.939,0,0,1,0-13.874Zm-6.2,34.242L49.7,29.034l2.509,1.771L29.034,64.014Zm19.482,2.8a6.8,6.8,0,0,1-6.789-6.937,6.9,6.9,0,0,1,6.789-6.937A6.8,6.8,0,0,1,52.8,58.11,6.714,6.714,0,0,1,46.007,65.047Z" transform="translate(-4.681 -4.681)" fill="#00577d"/>
    </g>
  </g>
</svg>
