<svg id="noun_Car_2664292" xmlns="http://www.w3.org/2000/svg" width="72.473" height="53.094" viewBox="0 0 72.473 53.094">
  <g id="noun_Car_2664292-2" data-name="noun_Car_2664292" transform="translate(0 0)">
    <path id="Shape" d="M67.242,53.094H63.41a3.078,3.078,0,0,1-2.167-.928,2.973,2.973,0,0,1-.852-2.156,3.013,3.013,0,0,0-.834-2.2,3.158,3.158,0,0,0-2.188-.964H15.1a3.111,3.111,0,0,0-2.185.964,3.009,3.009,0,0,0-.834,2.2,2.986,2.986,0,0,1-.855,2.152,3.123,3.123,0,0,1-2.167.928H5.235a4.411,4.411,0,0,1-4.026-2.57,15.3,15.3,0,0,1-1.2-6.385V28.871a9.522,9.522,0,0,1,2.654-6.627l1.909-1.971a16.887,16.887,0,0,0,1.577-1.914l-4.585-.634a1.818,1.818,0,0,1-1.48-.931.926.926,0,0,1,.151-.965A12.547,12.547,0,0,1,7.839,12.8a3.806,3.806,0,0,0,2.739-1.861l1.838-3.168A13.272,13.272,0,0,1,21.2,1.313,76.794,76.794,0,0,1,35.307,0c.31,0,.623,0,.931.006S36.86,0,37.168,0A76.813,76.813,0,0,1,51.28,1.313a13.273,13.273,0,0,1,8.779,6.455L61.9,10.936A3.781,3.781,0,0,0,64.634,12.8a12.541,12.541,0,0,1,7.608,3.032.932.932,0,0,1,.153.966,1.815,1.815,0,0,1-1.478.931l-4.59.634a17.269,17.269,0,0,0,1.581,1.914l1.906,1.971a9.508,9.508,0,0,1,2.652,6.627V44.139a15.275,15.275,0,0,1-1.2,6.385A4.4,4.4,0,0,1,67.242,53.094ZM54.351,29.5a2.986,2.986,0,0,0-3.017,2.948V35.4a2.986,2.986,0,0,0,3.017,2.948h3.023A2.986,2.986,0,0,0,60.391,35.4V32.448A2.986,2.986,0,0,0,57.374,29.5Zm-39.25,0a2.988,2.988,0,0,0-3.019,2.948V35.4A2.988,2.988,0,0,0,15.1,38.349h3.022A2.988,2.988,0,0,0,21.141,35.4V32.448A2.988,2.988,0,0,0,18.122,29.5ZM25.007,6.236a9.572,9.572,0,0,0-5.214,1.535,9.228,9.228,0,0,0-3.486,4.116l-.735,2.275a.94.94,0,0,0,.159.873,1.627,1.627,0,0,0,1.315.588H55.428a1.627,1.627,0,0,0,1.313-.587.949.949,0,0,0,.16-.874l-.735-2.275A9.219,9.219,0,0,0,52.68,7.77a9.571,9.571,0,0,0-5.214-1.535c-.2,0-.4.006-.6.018H25.6C25.406,6.242,25.205,6.236,25.007,6.236Z" transform="translate(0 0)" fill="#00577d"/>
  </g>
</svg>
