<svg xmlns="http://www.w3.org/2000/svg" xmlns:xlink="http://www.w3.org/1999/xlink" width="63" height="79" viewBox="0 0 63 79">
  <defs>
    <clipPath id="clip-path">
      <rect id="Rectangle_20" data-name="Rectangle 20" width="63" height="79" transform="translate(1193.75 2259.01)" fill="#00577d"/>
    </clipPath>
  </defs>
  <g id="Mask_Group_43" data-name="Mask Group 43" transform="translate(-1193.75 -2259.01)" clip-path="url(#clip-path)">
    <g id="noun_Travel_1748450" transform="translate(1193.75 2260.433)">
      <g id="Group_191" data-name="Group 191" transform="translate(0 0)">
        <g id="Group_190" data-name="Group 190">
          <path id="Path_229" data-name="Path 229" d="M232.781,340.845a21.515,21.515,0,0,1-2.364-1.655v.079c-.315,2.68-.788,5.99-1.34,7.172-1.813,3.547-7.645,15.684-7.724,15.842a3.655,3.655,0,0,0,1.655,4.887,3.877,3.877,0,0,0,1.576.394,3.766,3.766,0,0,0,3.31-2.049c.079-.079,5.911-12.216,7.724-15.763a21.789,21.789,0,0,0,1.5-5.359,32.525,32.525,0,0,0-3.468-2.837A2.463,2.463,0,0,0,232.781,340.845Z" transform="translate(-197.272 -292.479)" fill="#00577d"/>
          <path id="Path_230" data-name="Path 230" d="M117.225,158.05c-2.286-1.813-5.832-5.044-6.778-6.463-.236-.394-.552-1.1-.867-1.813-1.576-3.468-4.571-9.852-11.192-9.852,0,0-3.547-.079-4.65-.079-7.487-.158-12.374,6.463-13.556,8.827-1.1,2.364-3.625,9.852-4.1,11.507a2.713,2.713,0,0,0,.788,2.758L73.089,172l-6.542-2.758a2.549,2.549,0,0,0-3.31,1.34L55.513,189.1a2.549,2.549,0,0,0,1.34,3.31l6.069,2.522a5.22,5.22,0,0,1,0-3.783A5.162,5.162,0,0,1,67.651,188a5.488,5.488,0,0,1,1.97.394,4.879,4.879,0,0,1,1.34.867l5.517-13.083a2.549,2.549,0,0,0-1.34-3.31L79,163.725a2.952,2.952,0,0,0,2.6-2.049c.473-1.576,2.916-8.748,3.783-10.561a11.244,11.244,0,0,1,2.364-2.995c-1.261,5.281-.788,12.532-.552,15.605.158,1.97,3.625,4.02,5.6,5.359,3.231,2.207,8.2,7.251,9.221,9.537.788,1.813,4.177,11.428,5.911,15.763a3.74,3.74,0,0,0,3.389,2.364,4,4,0,0,0,1.34-.236,3.572,3.572,0,0,0,2.049-4.729c-.236-.552-4.965-13.714-5.99-16.078-.867-2.049-4.571-6.542-7.014-9.142l-.158-.158a86.3,86.3,0,0,1,1.419-16.945c.473.867.946,1.813,1.419,2.758a23.182,23.182,0,0,0,1.261,2.443c1.734,2.759,7.015,7.093,8.039,7.881a3.124,3.124,0,0,0,1.734.631,2.932,2.932,0,0,0,2.207-1.025A2.883,2.883,0,0,0,117.225,158.05Z" transform="translate(-55.313 -121.664)" fill="#00577d"/>
          <circle id="Ellipse_43" data-name="Ellipse 43" cx="7.803" cy="7.803" r="7.803" transform="translate(32.733 15.604) rotate(-89.037)" fill="#00577d"/>
          <circle id="Ellipse_44" data-name="Ellipse 44" cx="3.547" cy="3.547" r="3.547" transform="translate(7.698 73.41) rotate(-67.333)" fill="#00577d"/>
        </g>
      </g>
    </g>
  </g>
</svg>
