<svg xmlns="http://www.w3.org/2000/svg" xmlns:xlink="http://www.w3.org/1999/xlink" width="83.489" height="105.388" viewBox="0 0 83.489 105.388">
  <defs>
    <clipPath id="clip-path">
      <rect id="Rectangle_18" data-name="Rectangle 18" width="83.489" height="105.388" transform="translate(729.75 2259)" fill="#00577d"/>
    </clipPath>
  </defs>
  <g id="Mask_Group_41" data-name="Mask Group 41" transform="translate(-729.75 -2259)" clip-path="url(#clip-path)">
    <g id="noun_Construction_2354059" transform="translate(729.75 2273.876)">
      <path id="Path_226" data-name="Path 226" d="M11.25,49.527v-28.5H0Q18.209,10.515,36.42,0L72.869,21.043h-2.66L36.423,1.538,4.98,19.692h7.605V49.527H11.25ZM84.005,63.915V75.636H64.494V63.915H84.005Zm-22.429,0V75.636H42.065V63.915Zm-22.429,0V75.636H20.466V63.915ZM74.723,51.174V62.9H55.213V51.174Zm-21.986,0V62.9H33.227V51.174Zm-21.654,0V62.9H20.466V51.174ZM62.128,38.433V50.154H42.618V38.433Zm-21.764,0V50.154h-19.9V38.433ZM53.069,25.691V37.412H33.558V25.691Zm-21.655,0V37.412H20.466V25.691Z" fill="#00577d"/>
    </g>
  </g>
</svg>
