<svg xmlns="http://www.w3.org/2000/svg" xmlns:xlink="http://www.w3.org/1999/xlink" width="58" height="58" viewBox="0 0 58 58">
  <defs>
    <clipPath id="clip-path">
      <circle id="Ellipse_19" data-name="Ellipse 19" cx="29" cy="29" r="29" transform="translate(1461 1180.968)" fill="#fffcfc"/>
    </clipPath>
  </defs>
  <g id="Mask_Group_10" data-name="Mask Group 10" transform="translate(-1461 -1180.968)" clip-path="url(#clip-path)">
    <g id="noun_insurance_3154232" transform="translate(1461.882 1181.019)">
      <path id="Path_71" data-name="Path 71" d="M59.146,20.1V36.8A13.878,13.878,0,0,0,53,38.86c-.088.05-.17.107-.258.164h0a14.435,14.435,0,0,0-1.524,1.153h0a14.065,14.065,0,0,0-1.373,1.367,10.466,10.466,0,0,0-1.8.857c.019-.378.05-.75.076-1.121s.063-.737.1-1.1a37.338,37.338,0,0,1,3.616-13.089C53.88,23.107,56.438,20.682,59.146,20.1Z" transform="translate(-32.313 -15.057)" fill="#fffcfc"/>
      <path id="Path_72" data-name="Path 72" d="M35.472,14.715a10.171,10.171,0,0,0-2.57,1.272,12.718,12.718,0,0,0-1.581,1.272,20.244,20.244,0,0,0-4,5.511,40.274,40.274,0,0,0-3.93,14.506c-.031.34-.063.68-.088,1.02s-.05.7-.063,1.052a10.785,10.785,0,0,0-11.709.409l-1.487,1.027v-1.8a21.493,21.493,0,0,1,2.23-9.536A24.463,24.463,0,0,1,18.32,21.7a28.7,28.7,0,0,1,8.925-5.2A31.611,31.611,0,0,1,35.472,14.715Z" transform="translate(-10.043 -11.9)" fill="#fffcfc"/>
      <path id="Path_73" data-name="Path 73" d="M92.061,42.4a11.2,11.2,0,0,0-1.8-.857h0a13.4,13.4,0,0,0-1.373-1.367h0a12.9,12.9,0,0,0-1.524-1.153h0c-.082-.057-.17-.113-.258-.164a14.011,14.011,0,0,0-6.148-2.06V20.1c2.708.579,5.266,3,7.313,6.979A37.338,37.338,0,0,1,91.885,40.17c.038.365.069.731.1,1.1S92.042,42.022,92.061,42.4Z" transform="translate(-51.604 -15.057)" fill="#fffcfc"/>
      <path id="Path_74" data-name="Path 74" d="M109.778,38.984v1.8l-1.48-1.02a10.8,10.8,0,0,0-11.716-.416c-.019-.353-.038-.7-.063-1.052s-.057-.68-.088-1.02A40.147,40.147,0,0,0,92.5,22.771a20.146,20.146,0,0,0-3.987-5.5,12.946,12.946,0,0,0-1.594-1.285,10.172,10.172,0,0,0-2.57-1.272A31.611,31.611,0,0,1,92.576,16.5a28.647,28.647,0,0,1,8.925,5.2,24.462,24.462,0,0,1,6.047,7.748A21.493,21.493,0,0,1,109.778,38.984Z" transform="translate(-53.593 -11.9)" fill="#fffcfc"/>
      <path id="Path_75" data-name="Path 75" d="M67.775,67.127c-.208-.145-.422-.29-.636-.428a12.168,12.168,0,0,0-12.824,0c-.22.139-.428.277-.636.428a12.138,12.138,0,1,0,14.1,0ZM61.8,83.894h-.132v1.619h-1.89V83.894H59.65a3.754,3.754,0,0,1-3.8-3.7h1.89A1.864,1.864,0,0,0,59.65,82H61.8a2.1,2.1,0,0,0,2.148-2.041,1.985,1.985,0,0,0-.617-1.43,2.206,2.206,0,0,0-1.531-.611H59.65a3.992,3.992,0,0,1-4.038-3.93,3.832,3.832,0,0,1,1.2-2.79,4.059,4.059,0,0,1,2.841-1.14h.132V68.494h1.89v1.568H61.8a3.754,3.754,0,0,1,3.8,3.7h-1.89A1.864,1.864,0,0,0,61.8,71.952H59.65a2.179,2.179,0,0,0-1.531.611,1.985,1.985,0,0,0-.617,1.43,2.1,2.1,0,0,0,2.148,2.041H61.8a4.059,4.059,0,0,1,2.841,1.14,3.856,3.856,0,0,1,1.2,2.79A3.992,3.992,0,0,1,61.8,83.894Z" transform="translate(-32.634 -41.295)" fill="#fffcfc"/>
      <path id="Path_76" data-name="Path 76" d="M67.686,127.933v3.584A4.694,4.694,0,0,1,63,136.2a4.688,4.688,0,0,1-4.686-4.686h2.52a2.167,2.167,0,1,0,4.334,0v-3.584c.416.038.838.057,1.26.057S67.27,127.97,67.686,127.933Z" transform="translate(-38.333 -78.254)" fill="#fffcfc"/>
      <path id="Path_77" data-name="Path 77" d="M77.389,7.913V10.4a8.446,8.446,0,0,0-2.52,0V7.913Z" transform="translate(-48.037 -7.913)" fill="#fffcfc"/>
    </g>
    <g id="noun_insurance_3154232-2" data-name="noun_insurance_3154232" transform="translate(1462.814 998.019)">
      <path id="Path_71-2" data-name="Path 71" d="M59.146,20.1V36.8A13.878,13.878,0,0,0,53,38.86c-.088.05-.17.107-.258.164h0a14.435,14.435,0,0,0-1.524,1.153h0a14.065,14.065,0,0,0-1.373,1.367,10.466,10.466,0,0,0-1.8.857c.019-.378.05-.75.076-1.121s.063-.737.1-1.1a37.338,37.338,0,0,1,3.616-13.089C53.88,23.107,56.438,20.682,59.146,20.1Z" transform="translate(-32.313 -15.057)" fill="#004d6e"/>
      <path id="Path_72-2" data-name="Path 72" d="M35.472,14.715a10.171,10.171,0,0,0-2.57,1.272,12.718,12.718,0,0,0-1.581,1.272,20.244,20.244,0,0,0-4,5.511,40.274,40.274,0,0,0-3.93,14.506c-.031.34-.063.68-.088,1.02s-.05.7-.063,1.052a10.785,10.785,0,0,0-11.709.409l-1.487,1.027v-1.8a21.493,21.493,0,0,1,2.23-9.536A24.463,24.463,0,0,1,18.32,21.7a28.7,28.7,0,0,1,8.925-5.2A31.611,31.611,0,0,1,35.472,14.715Z" transform="translate(-10.043 -11.9)" fill="#004d6e"/>
      <path id="Path_73-2" data-name="Path 73" d="M92.061,42.4a11.2,11.2,0,0,0-1.8-.857h0a13.4,13.4,0,0,0-1.373-1.367h0a12.9,12.9,0,0,0-1.524-1.153h0c-.082-.057-.17-.113-.258-.164a14.011,14.011,0,0,0-6.148-2.06V20.1c2.708.579,5.266,3,7.313,6.979A37.338,37.338,0,0,1,91.885,40.17c.038.365.069.731.1,1.1S92.042,42.022,92.061,42.4Z" transform="translate(-51.604 -15.057)" fill="#004d6e"/>
      <path id="Path_74-2" data-name="Path 74" d="M109.778,38.984v1.8l-1.48-1.02a10.8,10.8,0,0,0-11.716-.416c-.019-.353-.038-.7-.063-1.052s-.057-.68-.088-1.02A40.147,40.147,0,0,0,92.5,22.771a20.146,20.146,0,0,0-3.987-5.5,12.946,12.946,0,0,0-1.594-1.285,10.172,10.172,0,0,0-2.57-1.272A31.611,31.611,0,0,1,92.576,16.5a28.647,28.647,0,0,1,8.925,5.2,24.462,24.462,0,0,1,6.047,7.748A21.493,21.493,0,0,1,109.778,38.984Z" transform="translate(-53.593 -11.9)" fill="#004d6e"/>
      <path id="Path_75-2" data-name="Path 75" d="M67.775,67.127c-.208-.145-.422-.29-.636-.428a12.168,12.168,0,0,0-12.824,0c-.22.139-.428.277-.636.428a12.138,12.138,0,1,0,14.1,0ZM61.8,83.894h-.132v1.619h-1.89V83.894H59.65a3.754,3.754,0,0,1-3.8-3.7h1.89A1.864,1.864,0,0,0,59.65,82H61.8a2.1,2.1,0,0,0,2.148-2.041,1.985,1.985,0,0,0-.617-1.43,2.206,2.206,0,0,0-1.531-.611H59.65a3.992,3.992,0,0,1-4.038-3.93,3.832,3.832,0,0,1,1.2-2.79,4.059,4.059,0,0,1,2.841-1.14h.132V68.494h1.89v1.568H61.8a3.754,3.754,0,0,1,3.8,3.7h-1.89A1.864,1.864,0,0,0,61.8,71.952H59.65a2.179,2.179,0,0,0-1.531.611,1.985,1.985,0,0,0-.617,1.43,2.1,2.1,0,0,0,2.148,2.041H61.8a4.059,4.059,0,0,1,2.841,1.14,3.856,3.856,0,0,1,1.2,2.79A3.992,3.992,0,0,1,61.8,83.894Z" transform="translate(-32.634 -41.295)" fill="#004d6e"/>
      <path id="Path_76-2" data-name="Path 76" d="M67.686,127.933v3.584A4.694,4.694,0,0,1,63,136.2a4.688,4.688,0,0,1-4.686-4.686h2.52a2.167,2.167,0,1,0,4.334,0v-3.584c.416.038.838.057,1.26.057S67.27,127.97,67.686,127.933Z" transform="translate(-38.333 -78.254)" fill="#004d6e"/>
      <path id="Path_77-2" data-name="Path 77" d="M77.389,7.913V10.4a8.446,8.446,0,0,0-2.52,0V7.913Z" transform="translate(-48.037 -7.913)" fill="#004d6e"/>
    </g>
  </g>
</svg>
