<svg id="noun_paycheck_1726532" xmlns="http://www.w3.org/2000/svg" width="88.159" height="56.331" viewBox="0 0 88.159 56.331">
  <g id="noun_paycheck_1726532-2" data-name="noun_paycheck_1726532">
    <path id="Path" d="M0,5.633A2.888,2.888,0,0,0,2.939,2.817,2.888,2.888,0,0,0,0,0Z" transform="translate(23.51 36.615)" fill="#00577d"/>
    <path id="Path-2" data-name="Path" d="M0,2.817A2.888,2.888,0,0,0,2.939,5.633V0A2.888,2.888,0,0,0,0,2.817Z" transform="translate(17.632 28.165)" fill="#00577d"/>
    <path id="Shape" d="M79.346,42.249H0V0H79.346V42.247h0ZM23.517,30.979h0V33.8H73.472V30.979H23.517ZM5.879,25.35h0a5.765,5.765,0,0,0,5.879,5.629V33.8H14.7V30.979a5.762,5.762,0,0,0,5.874-5.629A5.764,5.764,0,0,0,14.7,19.716V14.081A2.882,2.882,0,0,1,17.632,16.9h2.939a5.457,5.457,0,0,0-1.725-3.975A5.946,5.946,0,0,0,14.7,11.264V8.452H11.759v2.812A5.767,5.767,0,0,0,5.879,16.9a5.767,5.767,0,0,0,5.879,5.635v5.635A2.884,2.884,0,0,1,8.818,25.35H5.879Z" transform="translate(8.813 14.082)" fill="#00577d"/>
    <path id="Path-3" data-name="Path" d="M0,0V42.248H5.877V11.266H79.346V0Z" fill="#00577d"/>
  </g>
</svg>
