<svg xmlns="http://www.w3.org/2000/svg" width="46.558" height="57.349" viewBox="0 0 46.558 57.349">
  <g id="noun_career_2839697" transform="translate(-6.521 -2.47)">
    <path id="Path_66" data-name="Path 66" d="M19.782,43.53H7.853a1.332,1.332,0,1,0,0,2.664H19.781a1.332,1.332,0,0,0,0-2.664Z" transform="translate(0 13.625)" fill="#fff"/>
    <path id="Path_67" data-name="Path 67" d="M31.783,38.53H19.854a1.332,1.332,0,1,0,0,2.664H31.783a1.332,1.332,0,0,0,0-2.664Z" transform="translate(3.982 11.966)" fill="#fff"/>
    <path id="Path_68" data-name="Path 68" d="M43.783,33.53H31.854a1.332,1.332,0,0,0,0,2.664H43.783a1.332,1.332,0,0,0,0-2.664Z" transform="translate(7.964 10.307)" fill="#fff"/>
    <path id="Path_69" data-name="Path 69" d="M19.242,8A5.534,5.534,0,1,0,24.774,2.47,5.54,5.54,0,0,0,19.242,8Z" transform="translate(4.221 0)" fill="#fff"/>
    <path id="Path_70" data-name="Path 70" d="M35.811,21.123a4.959,4.959,0,0,0,3.5-.521l4.439-2.514a3.372,3.372,0,0,0,1.276-4.6,3.465,3.465,0,0,0-4.6-1.279l-3.829,2.171L25.95,12.018A.5.5,0,0,0,25.771,12l-11.146.575a4.931,4.931,0,0,0-4.141,2.688L7.792,20.571A3.375,3.375,0,0,0,9.273,25.11a3.377,3.377,0,0,0,4.538-1.482l2.216-4.363,3.849-.2L18.05,25.225,10.293,42.344a3.377,3.377,0,0,0,6.15,2.789L23.073,30.5l3.655,1.771L25.7,40.581a3.375,3.375,0,0,0,6.7.83l1.193-9.6a4.925,4.925,0,0,0-2.742-5.041l-3.532-1.714L28.939,19.6Z" transform="translate(0.299 3.096)" fill="#fff"/>
  </g>
</svg>
