<svg width="58" height="58" viewBox="0 0 58 58" fill="none" xmlns="http://www.w3.org/2000/svg">
<circle cx="28.998" cy="28.998" r="27.998" transform="matrix(-1 0 0 1 57.9961 0)" stroke="#90182C" stroke-width="2"/>
<path d="M43.4258 29.998C43.9781 29.998 44.4258 29.5503 44.4258 28.998C44.4258 28.4458 43.9781 27.998 43.4258 27.998V29.998ZM17.8632 28.2909C17.4727 28.6815 17.4727 29.3146 17.8632 29.7052L24.2272 36.0691C24.6177 36.4596 25.2509 36.4596 25.6414 36.0691C26.0319 35.6786 26.0319 35.0454 25.6414 34.6549L19.9845 28.998L25.6414 23.3412C26.0319 22.9507 26.0319 22.3175 25.6414 21.927C25.2509 21.5365 24.6177 21.5365 24.2272 21.927L17.8632 28.2909ZM43.4258 27.998L18.5703 27.998V29.998L43.4258 29.998V27.998Z" fill="#90182C"/>
</svg>
