<svg width="58" height="58" viewBox="0 0 58 58" fill="none" xmlns="http://www.w3.org/2000/svg">
<circle cx="28.998" cy="28.998" r="27.998" stroke="#90182C" stroke-width="2"/>
<path d="M14.5703 29.998C14.018 29.998 13.5703 29.5503 13.5703 28.998C13.5703 28.4458 14.018 27.998 14.5703 27.998V29.998ZM40.1329 28.2909C40.5234 28.6815 40.5234 29.3146 40.1329 29.7052L33.7689 36.0691C33.3784 36.4596 32.7452 36.4596 32.3547 36.0691C31.9642 35.6786 31.9642 35.0454 32.3547 34.6549L38.0116 28.998L32.3547 23.3412C31.9642 22.9507 31.9642 22.3175 32.3547 21.927C32.7452 21.5365 33.3784 21.5365 33.7689 21.927L40.1329 28.2909ZM14.5703 27.998L39.4258 27.998V29.998L14.5703 29.998V27.998Z" fill="#90182C"/>
</svg>
