<svg width="32" height="32" viewBox="0 0 32 32" fill="none" xmlns="http://www.w3.org/2000/svg">
<circle cx="16" cy="16" r="15" transform="matrix(-1 0 0 1 32 0)" stroke="#90182C" stroke-width="2"/>
<path d="M23.959 17C24.5113 17 24.959 16.5523 24.959 16C24.959 15.4477 24.5113 15 23.959 15V17ZM9.53759 15.2929C9.14707 15.6834 9.14707 16.3166 9.53759 16.7071L15.9016 23.0711C16.2921 23.4616 16.9252 23.4616 17.3158 23.0711C17.7063 22.6805 17.7063 22.0474 17.3158 21.6569L11.6589 16L17.3158 10.3431C17.7063 9.95262 17.7063 9.31946 17.3158 8.92893C16.9252 8.53841 16.2921 8.53841 15.9016 8.92893L9.53759 15.2929ZM23.959 15L10.2447 15V17H23.959V15Z" fill="#90182C"/>
</svg>
