<svg xmlns="http://www.w3.org/2000/svg" width="15.662" height="17.086" viewBox="0 0 15.662 17.086">
  <path id="Icon_awesome-asterisk" data-name="Icon awesome-asterisk" d="M16.747,11.149,12,8.543l4.746-2.606a.8.8,0,0,0,.308-1.1L16.4,3.708A.8.8,0,0,0,15.3,3.424l-4.63,2.807L10.782.818A.8.8,0,0,0,9.981,0h-1.3a.8.8,0,0,0-.8.818L8,6.231,3.367,3.424a.8.8,0,0,0-1.109.284l-.65,1.126a.8.8,0,0,0,.308,1.1L6.662,8.543,1.916,11.149a.8.8,0,0,0-.308,1.1l.65,1.126a.8.8,0,0,0,1.109.284L8,10.855,7.88,16.268a.8.8,0,0,0,.8.818h1.3a.8.8,0,0,0,.8-.818l-.116-5.413,4.63,2.807a.8.8,0,0,0,1.109-.284l.65-1.126a.8.8,0,0,0-.308-1.1Z" transform="translate(-1.5)" fill="#fff"/>
</svg>
