<svg xmlns="http://www.w3.org/2000/svg" width="37.36" height="15.74" viewBox="0 0 37.36 15.74">
  <g id="Group_5" data-name="Group 5" transform="translate(-605 -56.5)">
    <path id="Path_92" data-name="Path 92" d="M94.737,316.191v2.5h4.1v3.3h-4.1v5.88H91V312.894h8.256v3.3Z" transform="translate(514 -256.012)" fill="#003256"/>
    <path id="Path_93" data-name="Path 93" d="M194.192,312.894v14.977h3.719l.018-3.3v-8.383h.877a4.192,4.192,0,0,1-.038,8.383h-.839l-.018,3.3h1.582a7.491,7.491,0,0,0,0-14.977Z" transform="translate(419.773 -256.013)" fill="#003256"/>
    <rect id="Rectangle_8" data-name="Rectangle 8" width="3.737" height="14.977" transform="translate(627.106 56.881)" fill="#003256"/>
    <path id="Path_94" data-name="Path 94" d="M405.421,313.912a4,4,0,0,0-3.28-1.645,3.872,3.872,0,0,0-3.833,4.143,3.806,3.806,0,0,0,3.89,4.064,4.236,4.236,0,0,0,3.222-1.586v4.659a10.234,10.234,0,0,1-3.3.694,7.84,7.84,0,0,1-5.4-2.2,7.451,7.451,0,0,1-2.307-5.65,7.989,7.989,0,0,1,2.117-5.471,7.649,7.649,0,0,1,5.472-2.419,8.485,8.485,0,0,1,3.413.753Z" transform="translate(236.939 -252)" fill="#003256"/>
  </g>
</svg>
