<svg width="42" height="19" viewBox="0 0 42 19" fill="none" xmlns="http://www.w3.org/2000/svg">
<path d="M16.4057 14.8811C12.6738 14.6446 8.99609 13.8624 5.48949 12.5611C2.15942 11.2149 0.321411 9.48562 0.321411 7.68971C0.321411 5.71989 2.47378 3.87243 6.37343 2.48363C15.912 -0.394934 26.0854 -0.394934 35.624 2.48363C39.5263 3.87243 41.6786 5.71989 41.6786 7.68971C41.6786 9.48691 39.8431 11.22 36.5105 12.5611C32.4192 14.0545 28.1138 14.8751 23.7611 14.9918L23.751 13.1525C27.5783 13.0278 31.3682 12.3568 35.0063 11.1596C38.3492 9.97693 39.8429 8.5619 39.8429 7.68971C39.8429 6.81753 38.3492 5.40912 35.0063 4.21228C25.8668 1.48137 16.1307 1.48137 6.99119 4.21228C3.64827 5.40526 2.15962 6.81366 2.15962 7.68971C2.15962 8.56576 3.65341 9.97693 6.99119 11.1596C10.0371 12.1818 13.201 12.811 16.4057 13.0317V9.99206L21.0038 14.1388L16.4057 18.2805V14.8811Z" fill="#90182C" stroke="#90182C" stroke-width="0.5"/>
</svg>
