<svg width="42" height="19" viewBox="0 0 42 19" fill="none" xmlns="http://www.w3.org/2000/svg">
<path d="M16.4058 14.8811C12.674 14.6446 8.99621 13.8624 5.48961 12.5611C2.15954 11.2149 0.321533 9.48562 0.321533 7.68971C0.321533 5.71989 2.4739 3.87243 6.37355 2.48363C15.9121 -0.394934 26.0856 -0.394934 35.6242 2.48363C39.5264 3.87243 41.6787 5.71989 41.6787 7.68971C41.6787 9.48691 39.8433 11.22 36.5106 12.5611C32.4193 14.0545 28.114 14.8751 23.7612 14.9918L23.7511 13.1525C27.5784 13.0278 31.3683 12.3568 35.0064 11.1596C38.3493 9.97693 39.843 8.5619 39.843 7.68971C39.843 6.81753 38.3493 5.40912 35.0064 4.21228C25.8669 1.48137 16.1308 1.48137 6.99131 4.21228C3.64839 5.40526 2.15974 6.81366 2.15974 7.68971C2.15974 8.56576 3.65353 9.97693 6.99131 11.1596C10.0373 12.1818 13.2012 12.811 16.4058 13.0317V9.99206L21.0039 14.1388L16.4058 18.2805V14.8811Z" fill="white" stroke="white" stroke-width="0.5"/>
</svg>
