<svg width="50" height="50" viewBox="0 0 50 50" fill="none" xmlns="http://www.w3.org/2000/svg">
<path fill-rule="evenodd" clip-rule="evenodd" d="M10.7152 0C7.87404 -2.09497e-07 5.14922 1.12835 3.13985 3.13695C1.13049 5.14554 0.00109106 7.86993 0 10.7111V39.2848C0 42.1267 1.12892 44.8521 3.1384 46.8616C5.14788 48.8711 7.87333 50 10.7152 50H39.2889C42.1301 49.9989 44.8545 48.8695 46.8631 46.8601C48.8717 44.8508 50 42.126 50 39.2848V10.7111C49.9989 7.87064 48.8701 5.14687 46.8616 3.1384C44.8531 1.12992 42.1294 0.00109058 39.2889 0H10.7152ZM42.371 10.7275C42.371 11.546 42.0458 12.331 41.4671 12.9098C40.8883 13.4885 40.1033 13.8137 39.2848 13.8137C38.4663 13.8137 37.6814 13.4885 37.1026 12.9098C36.5238 12.331 36.1987 11.546 36.1987 10.7275C36.1987 9.90901 36.5238 9.12403 37.1026 8.54526C37.6814 7.9665 38.4663 7.64135 39.2848 7.64135C40.1033 7.64135 40.8883 7.9665 41.4671 8.54526C42.0458 9.12403 42.371 9.90901 42.371 10.7275ZM25.0062 16.439C22.7362 16.439 20.5592 17.3407 18.9541 18.9458C17.349 20.551 16.4472 22.728 16.4472 24.9979C16.4472 27.2679 17.349 29.4449 18.9541 31.05C20.5592 32.6552 22.7362 33.5569 25.0062 33.5569C27.2761 33.5569 29.4532 32.6552 31.0583 31.05C32.6634 29.4449 33.5651 27.2679 33.5651 24.9979C33.5651 22.728 32.6634 20.551 31.0583 18.9458C29.4532 17.3407 27.2761 16.439 25.0062 16.439ZM12.3282 24.9979C12.3282 21.6366 13.6635 18.413 16.0403 16.0362C18.4171 13.6594 21.6407 12.3241 25.0021 12.3241C28.3634 12.3241 31.587 13.6594 33.9638 16.0362C36.3406 18.413 37.6759 21.6366 37.6759 24.9979C37.6759 28.3593 36.3406 31.5829 33.9638 33.9597C31.587 36.3365 28.3634 37.6718 25.0021 37.6718C21.6407 37.6718 18.4171 36.3365 16.0403 33.9597C13.6635 31.5829 12.3282 28.3593 12.3282 24.9979Z" fill="#90182C"/>
</svg>
