<svg width="46" height="46" viewBox="0 0 46 46" fill="none" xmlns="http://www.w3.org/2000/svg">
<path d="M0 12.8836L23.2591 0L46 13.0113V17.5396H42.3716V33.5487H3.56352V17.5401H0V12.8836ZM23.2574 4.85369L8.29123 13.4006V29.4735H37.8996V13.4006L23.2574 4.85369ZM15.2976 19.5238V15.5691H30.782V19.5238H15.2976ZM15.2976 21.4956H30.782V25.4503H15.2976V21.4956ZM23.7117 45.9936V40.9551H26.4329C28.3766 40.9551 29.7372 41.5292 29.7372 43.5704C29.7372 45.5477 28.5064 45.994 26.368 45.994L23.7117 45.9936ZM25.1363 42.0372V44.9072H26.3026C27.4037 44.9072 28.1815 44.716 28.1815 43.5678C28.1815 42.5474 27.3392 42.0372 26.4324 42.0372H25.1363ZM37.8416 45.9936V40.9551H41.5993C43.0244 40.9551 43.608 41.4018 43.608 42.5496C43.608 43.3787 43.1542 43.7616 42.1825 43.8894L43.6725 45.994H42.1176L40.6277 43.8894H39.2671V45.994L37.8416 45.9936ZM41.3986 42.0381H39.2606V42.8034H41.3337C42.0463 42.8034 42.2409 42.8034 42.2409 42.4205C42.2409 42.102 41.9818 42.0381 41.3986 42.0381ZM15.94 40.9551V45.9936H17.3006V42.9324L20.0218 45.9936H21.6416V40.9551H20.281V44.0802L17.5598 40.9551H15.94ZM2.65068 40.9551V45.9936H7.76905V44.9093L4.07618 44.8455V40.9551H2.65068ZM9.20234 45.9936H14.1909V44.9093H10.6923V43.8251H13.6077V42.8047H10.6923V42.0394H14.1909V40.9551H9.20234V45.9936ZM31.2964 40.9551V45.9936L36.2201 45.9302V44.9093H32.7215V43.8251H35.7018V42.8047H32.7215V42.0394H36.2201V40.9551H31.2964ZM12.7581 39.6766L14.0538 35.1483H15.1552L16.4509 39.6766H15.4416L15.1548 38.6562H13.9885L13.7016 39.6766H12.7581ZM14.5773 36.1146L14.1888 37.9003H15.0311L14.5773 36.1146ZM5.57003 38.0187V36.8066C5.57003 35.6585 5.95852 35.0209 7.12488 35.0209C8.42058 35.0209 8.67973 35.7862 8.67973 36.8705V37.8275C8.67973 38.4015 8.61483 38.6566 8.42059 39.0395L9.19801 39.2946L9.13312 39.6136C6.47724 39.6136 5.57003 39.5497 5.57003 38.0187ZM6.53954 36.8701V37.9544C6.53954 38.7836 6.66933 39.0387 7.12271 39.0387C7.641 39.0387 7.70589 38.8474 7.70589 38.0183V36.8062C7.70589 35.9132 7.64143 35.7858 7.18761 35.7858C6.60443 35.7854 6.53954 36.0409 6.53954 36.8701ZM31.8744 38.4641C31.8744 39.1656 32.3278 39.7401 33.3644 39.7401C34.2067 39.7401 34.9841 39.166 34.9841 38.4641C34.9841 37.3799 32.911 36.8697 32.911 36.1678C32.911 35.9127 33.1701 35.7854 33.4293 35.7854C33.8178 35.7854 34.0124 36.0405 34.2067 36.4234L34.8548 36.1683C34.7903 35.5303 34.3365 35.0201 33.3648 35.0201C32.5874 35.0201 31.9397 35.4025 31.9397 36.1683C31.9397 37.4442 34.0129 37.7627 34.0129 38.5919C34.0129 38.9109 33.8186 39.0387 33.4297 39.0387C33.0408 39.0387 32.7816 38.7836 32.6523 38.3372L31.8744 38.4641ZM24.8849 38.209V36.7423C24.8849 35.5303 25.4681 35.0201 26.4398 35.0201C27.671 35.0201 27.9946 35.4664 27.9946 36.6146V38.0178C27.9946 39.2299 27.6706 39.7401 26.4398 39.7401C25.2094 39.7396 24.8849 39.2933 24.8849 38.209ZM25.8545 36.6785V38.0813C25.8545 38.7192 25.9189 39.0382 26.4376 39.0382C26.8261 39.0382 27.0208 38.7831 27.0208 38.0178V36.6785C27.0208 36.1683 26.9563 35.7215 26.4376 35.7215C25.9189 35.7215 25.8545 36.1044 25.8545 36.6785ZM40.4923 38.0178C40.4923 39.3572 40.8812 39.7401 42.1769 39.7401C43.1797 39.7401 43.4726 39.2771 43.4726 38.7831V37.316H42.112V38.0174H42.5654V38.5276C42.5654 38.91 42.436 39.1017 42.112 39.1017C41.4639 39.1017 41.3995 38.6549 41.3995 38.0174V36.997C41.3995 36.2317 41.4639 35.7215 42.112 35.7215C42.5654 35.7215 42.8245 36.0405 42.8894 36.4868L43.5371 36.2317C43.4726 35.4664 42.9539 35.0197 42.0471 35.0197C40.7514 35.0197 40.4923 35.7211 40.4923 36.678V38.0178ZM28.3827 35.1474V37.7623C28.3827 39.2933 28.6492 39.7827 30.0098 39.7827C31.0464 39.7827 31.4275 39.2294 31.4275 37.8901V35.1474H30.5203V37.7623C30.5203 38.7827 30.4554 39.0382 29.9371 39.0382C29.4188 39.0382 29.3539 38.6554 29.3539 37.6988V35.1474H28.3827ZM36.9949 35.1483V39.6766H37.7724V36.615L38.8738 39.6766H40.0402V35.1483H39.2623V37.9544L38.2258 35.1483H36.9949ZM9.59299 35.1474V37.8901C9.59299 39.1656 9.72278 39.7396 11.0185 39.7396C12.5084 39.7396 12.5733 39.0382 12.5733 37.7623V35.1474H11.6661V37.8262C11.6661 38.7192 11.5368 38.9743 11.083 38.9743C10.5647 38.9743 10.4998 38.7192 10.4998 37.6988V35.1474H9.59299ZM21.3175 35.1483V39.6766H22.2247V37.6358H23.3262V39.6766H24.233V35.1483H23.3262V36.8701H22.2247V35.1483H21.3175ZM2.59228 35.1483V39.6766H4.92499V38.9752H3.49949V37.6993H4.7952V37.0613H3.49949V35.8497H4.92499V35.1483H2.59228ZM16.8451 35.1483V39.6766H18.9831V38.9752H17.6225V35.1483H16.8451ZM35.4479 35.1483H36.2902V39.6766H35.4479V35.1483Z" fill="#90182C"/>
</svg>
