<svg width="75" height="46" viewBox="0 0 75 46" fill="none" xmlns="http://www.w3.org/2000/svg">
<g clip-path="url(#clip0_1_320)">
<path fill-rule="evenodd" clip-rule="evenodd" d="M17.657 16.616H27.803C36.95 16.616 42.785 22.241 42.785 31.016C42.785 40.741 36.32 45.472 26.016 45.472H17.657V16.616ZM27.174 23.236C26.806 23.236 26.333 23.288 25.702 23.288V38.848C30.853 38.848 34.849 36.798 34.849 30.858C34.85 25.758 31.59 23.235 27.175 23.235L27.174 23.236ZM74.221 25.018V17.395C72.1824 16.5061 69.9789 16.0583 67.755 16.081C65.7709 16.0326 63.7971 16.3816 61.9499 17.1074C60.1027 17.8332 58.4193 18.9212 56.9989 20.3074C55.5784 21.6935 54.4496 23.3498 53.6789 25.1787C52.9082 27.0077 52.5111 28.9723 52.511 30.957C52.511 39.421 59.187 45.624 67.599 45.624C70.599 45.624 72.645 44.992 74.222 43.784V36.162C71.856 37.633 70.227 38.262 68.022 38.262C67.0115 38.2897 66.006 38.1094 65.0681 37.7321C64.1302 37.3548 63.2799 36.7887 62.5701 36.0689C61.8602 35.3491 61.306 34.491 60.9418 33.548C60.5776 32.6049 60.4112 31.5971 60.453 30.587C60.4237 29.5776 60.5982 28.5726 60.9661 27.6322C61.3341 26.6918 61.888 25.8353 62.5946 25.1139C63.3011 24.3924 64.146 23.8209 65.0785 23.4335C66.0111 23.046 67.0122 22.8506 68.022 22.859C70.335 22.859 72.022 23.648 74.222 25.015L74.221 25.018ZM0 10.829V12.196H5.625V10.829C3.995 10.777 3.732 10.566 3.732 9.462V2.576L7.096 12.196H8.516L12.143 2.576V9.305C12.143 10.724 12.143 10.724 10.143 10.829V12.196H16.666V10.829C14.773 10.829 14.721 10.619 14.721 9.62V2.891C14.721 1.791 14.878 1.419 16.666 1.419V0H11.092L8.253 7.723L5.625 0H0V1.423C1.577 1.423 1.84 1.423 1.84 2.79V9.256C1.84 10.514 1.84 10.829 0 10.829ZM27.276 10.829V12.196H32.476V10.829C31.214 10.777 31.214 10.619 31.214 8.884V7.412C31.214 5.993 31.845 4.836 33.159 4.836C34.21 4.836 34.526 5.52 34.526 6.466V9.566C34.526 10.617 34.474 10.828 33.212 10.828V12.195H37.89V10.829C36.79 10.829 36.681 10.724 36.681 9.673V7.517C36.681 6.045 37.365 4.784 38.731 4.784C39.782 4.784 39.993 5.415 39.993 6.676V9.83C39.993 10.723 39.993 10.83 38.731 10.83V12.197H43.883V10.829C42.305 10.829 42.201 10.881 42.201 9.988V6.466C42.201 4.466 41.728 3.312 39.677 3.312C39.0938 3.32092 38.5204 3.46295 38.0005 3.72725C37.4806 3.99154 37.0279 4.37111 36.677 4.837C36.4581 4.35763 36.1037 3.95278 35.6576 3.67238C35.2114 3.39198 34.6929 3.24829 34.166 3.259C33.5736 3.2702 32.9936 3.4301 32.4792 3.724C31.9648 4.01791 31.5325 4.43639 31.222 4.941V3.523H27.276V4.785C28.853 4.785 29.011 4.837 29.011 6.099V8.99C29.011 10.83 29.011 10.829 27.276 10.829ZM0.253 16.616V45.476H8.191L8.244 34.437H15.966V27.761H8.296L8.243 23.292H16.549V16.616H0.253ZM44.517 0.00300217H48.197V4.472C48.5355 4.11345 48.9425 3.82641 49.3939 3.62785C49.8453 3.4293 50.3319 3.32326 50.825 3.316C52.925 3.316 54.347 5.208 54.347 7.837C54.347 10.676 52.928 12.516 50.509 12.516C49.9992 12.5344 49.4921 12.4349 49.027 12.2252C48.562 12.0155 48.1517 11.7013 47.828 11.307L47.092 12.307H45.992V2.842C45.992 1.423 45.886 1.265 44.52 1.265V0.00300217H44.517ZM51.879 7.832C51.879 5.832 51.143 4.832 50.091 4.832C48.724 4.832 48.146 5.932 48.146 7.986C48.146 9.773 48.83 10.986 50.038 10.986C51.038 10.986 51.879 10.04 51.879 7.832ZM65.543 10.832V12.199H71.221V10.829C69.644 10.829 69.487 10.881 69.487 9.62V7.723C69.487 5.988 70.065 4.411 71.642 4.411C71.8222 4.41442 72.0001 4.45245 72.166 4.523C71.9138 4.61304 71.6941 4.77609 71.5349 4.99139C71.3757 5.2067 71.2842 5.46451 71.272 5.732C71.2705 5.88883 71.3012 6.0443 71.3622 6.1888C71.4232 6.33329 71.5132 6.46374 71.6266 6.57208C71.74 6.68043 71.8744 6.76436 72.0216 6.8187C72.1687 6.87304 72.3254 6.89662 72.482 6.888C72.6821 6.88814 72.88 6.84618 73.0628 6.76483C73.2456 6.68348 73.4092 6.56457 73.5431 6.41583C73.6769 6.26709 73.7779 6.09186 73.8396 5.90151C73.9013 5.71116 73.9222 5.50996 73.901 5.311C73.9104 5.04584 73.865 4.78158 73.7678 4.53469C73.6706 4.28781 73.5237 4.06358 73.336 3.87596C73.1484 3.68834 72.9242 3.54136 72.6773 3.44416C72.4304 3.34697 72.1662 3.30164 71.901 3.311C71.4083 3.34334 70.9295 3.48804 70.5014 3.734C70.0733 3.97996 69.7071 4.32066 69.431 4.73V3.523H65.544V4.785C66.911 4.785 67.279 4.785 67.279 5.941V9.515C67.279 10.723 67.279 10.829 65.544 10.829L65.543 10.832ZM58.394 8.103C58.394 9.785 59.183 10.942 60.602 10.942C61.864 10.942 62.442 10.206 62.652 9.05H64.229C64.2058 9.52788 64.0875 9.99633 63.8811 10.428C63.6748 10.8596 63.3844 11.2458 63.0271 11.5639C62.6698 11.8821 62.2526 12.1258 61.8 12.2809C61.3473 12.4359 60.8684 12.4992 60.391 12.467C59.7953 12.5112 59.1971 12.4255 58.6377 12.2158C58.0784 12.0062 57.5712 11.6776 57.1513 11.2527C56.7314 10.8278 56.4087 10.3169 56.2056 9.7551C56.0025 9.19333 55.9238 8.59416 55.975 7.999C55.975 5.318 57.657 3.32 60.181 3.32C62.652 3.32 64.229 5.212 64.229 8.104H58.395L58.394 8.103ZM60.182 4.679C59.131 4.679 58.5 5.415 58.5 6.729H61.812C61.812 5.359 61.286 4.675 60.182 4.675V4.679ZM20.127 8.099C20.127 9.781 20.968 10.938 22.388 10.938C23.65 10.938 24.228 10.202 24.438 9.046H25.966C25.9484 9.52108 25.8358 9.98782 25.6347 10.4186C25.4336 10.8494 25.1482 11.2355 24.7953 11.5541C24.4424 11.8726 24.0293 12.1172 23.5802 12.2733C23.1312 12.4294 22.6554 12.4939 22.181 12.463C21.5827 12.5084 20.9816 12.4239 20.4189 12.2154C19.8563 12.0069 19.3453 11.6793 18.921 11.255C18.4967 10.8307 18.1691 10.3197 17.9606 9.75708C17.7521 9.19441 17.6676 8.59334 17.713 7.995C17.713 5.314 19.448 3.316 21.971 3.316C24.442 3.316 25.971 5.208 25.971 8.1L20.127 8.099ZM21.967 4.675C20.916 4.675 20.285 5.411 20.285 6.725H23.544C23.544 5.306 23.018 4.675 21.966 4.675H21.967ZM43.626 45.475H51.566V16.616H43.626V45.475Z" fill="#90182C"/>
</g>
<defs>
<clipPath id="clip0_1_320">
<rect width="74.222" height="45.625" fill="white"/>
</clipPath>
</defs>
</svg>
