<svg width="22" height="22" viewBox="0 0 22 22" fill="none" xmlns="http://www.w3.org/2000/svg">
<path d="M16.1976 17.1187L15.8835 16.8046L15.5346 17.0795C14.3715 17.9961 13.0061 18.6212 11.5523 18.9028C10.0985 19.1844 8.59847 19.1142 7.17729 18.6982C5.75612 18.2821 4.45506 17.5323 3.38264 16.5111C2.31023 15.49 1.49757 14.2273 1.01245 12.8282C0.527342 11.4292 0.383847 9.93441 0.593941 8.46863C0.804035 7.00285 1.36163 5.60856 2.22019 4.40209C3.07876 3.19562 4.21341 2.21195 5.52948 1.53316C6.84555 0.854364 8.30487 0.500126 9.78569 0.5C11.5293 0.499883 13.2378 0.990644 14.7155 1.91612C16.1932 2.84159 17.3806 4.16438 18.1416 5.73311C18.9026 7.30183 19.2066 9.05311 19.0187 10.7865C18.8309 12.5199 18.1588 14.1655 17.0794 15.5348L16.8043 15.8837L17.1185 16.1979L21.3197 20.3989C21.4368 20.5214 21.5014 20.6848 21.5 20.8544C21.4985 21.0251 21.43 21.1885 21.3092 21.3092C21.1885 21.43 21.0251 21.4985 20.8543 21.5C20.6847 21.5014 20.5213 21.4367 20.3988 21.3197L16.1976 17.1187ZM4.14027 4.14092C2.64302 5.63811 1.80187 7.66875 1.80187 9.78611C1.80187 11.9035 2.64302 13.9341 4.14027 15.4313C5.63752 16.9285 7.66823 17.7696 9.78565 17.7696C11.9031 17.7696 13.9338 16.9285 15.431 15.4313C16.9283 13.9341 17.7694 11.9035 17.7694 9.78611C17.7694 7.66875 16.9283 5.63811 15.431 4.14092C13.9338 2.64373 11.9031 1.80261 9.78565 1.80261C7.66823 1.80261 5.63752 2.64373 4.14027 4.14092Z" fill="#111C3B" stroke="#90182C"/>
</svg>
