<svg width="25" height="25" viewBox="0 0 25 25" fill="none" xmlns="http://www.w3.org/2000/svg">
<path d="M6.25 11.75C5.83579 11.75 5.5 12.0858 5.5 12.5C5.5 12.9142 5.83579 13.25 6.25 13.25V11.75ZM19.2803 13.0303C19.5732 12.7374 19.5732 12.2626 19.2803 11.9697L14.5074 7.1967C14.2145 6.90381 13.7396 6.90381 13.4467 7.1967C13.1538 7.48959 13.1538 7.96447 13.4467 8.25736L17.6893 12.5L13.4467 16.7426C13.1538 17.0355 13.1538 17.5104 13.4467 17.8033C13.7396 18.0962 14.2145 18.0962 14.5074 17.8033L19.2803 13.0303ZM6.25 13.25L18.75 13.25V11.75L6.25 11.75V13.25Z" fill="#90182C"/>
<circle cx="12.5" cy="12.5" r="11.75" stroke="#90182C" stroke-width="1.5"/>
</svg>
