<svg width="25" height="25" viewBox="0 0 25 25" fill="none" xmlns="http://www.w3.org/2000/svg">
<circle cx="12.5" cy="12.5" r="11.75" stroke="white" stroke-width="1.5"/>
<path d="M7.14282 13.25C6.72861 13.25 6.39282 12.9142 6.39282 12.5C6.39282 12.0858 6.72861 11.75 7.14282 11.75V13.25ZM18.3874 11.9697C18.6803 12.2626 18.6803 12.7374 18.3874 13.0303L13.6145 17.8033C13.3216 18.0962 12.8467 18.0962 12.5538 17.8033C12.2609 17.5104 12.2609 17.0355 12.5538 16.7426L16.7964 12.5L12.5538 8.25736C12.2609 7.96447 12.2609 7.48959 12.5538 7.1967C12.8467 6.90381 13.3216 6.90381 13.6145 7.1967L18.3874 11.9697ZM7.14282 11.75L17.8571 11.75V13.25L7.14282 13.25V11.75Z" fill="white"/>
</svg>
