<svg xmlns="http://www.w3.org/2000/svg" width="79.684" height="69.458" viewBox="0 0 79.684 69.458">
  <g id="noun-broker-898901" transform="translate(-133.189 -188.388)">
    <path id="Path_2704" data-name="Path 2704" d="M184.119,200.539a27.564,27.564,0,0,0-8.1,1.215,22.363,22.363,0,1,0-20.554,31.286h.2a26.291,26.291,0,0,0,2.632,8.707l.3.3v.405a2.55,2.55,0,0,1-.2,2.126c-1.418,2.43-6.581,3.949-8.4,4.354a.86.86,0,0,0-.709.709,1.248,1.248,0,0,0,.2,1.012,12.473,12.473,0,0,0,9.517,3.949,22.1,22.1,0,0,0,8.707-1.924,28.676,28.676,0,1,0,16.4-52.143Zm-43.031,24.4a20.334,20.334,0,1,1,29.059-28.451,20.019,20.019,0,0,1,4.354,6.682v.2a20.172,20.172,0,0,1-4.252,21.465l-.405.405a3.835,3.835,0,0,0-.81,3.139c.3,2.329,2.531,4.455,4.151,5.771-5.366,1.316-9.619-3.746-9.821-3.949a1.052,1.052,0,0,0-1.316-.2h-.2a19.987,19.987,0,0,1-20.756-5.062Zm43.031,30.881a26.5,26.5,0,0,1-15.694-5.164.1.1,0,0,1-.1-.1c-.1,0-.1-.1-.2-.1h-.4c-.1,0-.1,0-.2.1h-.1c-.1,0-9.011,4.455-15.086-.1,2.329-.709,6.379-2.227,7.9-4.86a4.631,4.631,0,0,0,.405-3.848c-.1-.2-.2-.3-.3-.506a.759.759,0,0,0-.1-.506,27.459,27.459,0,0,1-2.43-7.9,17.437,17.437,0,0,0,4.455-.911c1.215,1.215,4.657,4.354,9.112,4.354a9.669,9.669,0,0,0,4.252-1.012,1.573,1.573,0,0,0,.607-.81.987.987,0,0,0-.405-.911c-1.215-.81-4.455-3.443-4.86-5.569a1.7,1.7,0,0,1,.405-1.519l.405-.405a22.17,22.17,0,0,0,5.063-22.579,26.053,26.053,0,0,1,7.391-1.012,26.679,26.679,0,1,1-.1,53.359Z" fill="#004986"/>
    <path id="Path_2705" data-name="Path 2705" d="M677.092,528.164v-8.91a4.446,4.446,0,0,1,3.443,4.354,1.012,1.012,0,1,0,2.025,0,6.445,6.445,0,0,0-5.468-6.379v-1.418a1.012,1.012,0,0,0-2.025,0v1.418a6.455,6.455,0,0,0,0,12.758V538.8a4.463,4.463,0,0,1-3.24-4.252,1.012,1.012,0,1,0-2.025,0,6.509,6.509,0,0,0,5.265,6.379v1.519a1.012,1.012,0,1,0,2.025,0v-1.418a6.48,6.48,0,0,0,0-12.859Zm-5.467-4.455a4.556,4.556,0,0,1,3.443-4.354v8.707a4.532,4.532,0,0,1-3.442-4.354ZM677.092,539v-8.809a4.483,4.483,0,0,1,0,8.809Z" transform="translate(-491.15 -298.87)" fill="#004986"/>
    <path id="Path_2706" data-name="Path 2706" d="M338.981,330.385v-1.013a5.642,5.642,0,0,0,4.759-5.468,5.474,5.474,0,0,0-4.759-5.468v-6.986a3.588,3.588,0,0,1,2.531,3.341,1.012,1.012,0,0,0,2.025,0,5.543,5.543,0,0,0-4.556-5.468v-1.114a1.012,1.012,0,1,0-2.025,0v1.114a5.559,5.559,0,0,0,0,10.935v6.986a3.644,3.644,0,0,1-2.329-3.341,1.012,1.012,0,1,0-2.025,0,5.742,5.742,0,0,0,4.354,5.468v1.114a.957.957,0,0,0,1.013,1.012A1.1,1.1,0,0,0,338.981,330.385Zm2.734-6.581a3.562,3.562,0,0,1-2.734,3.443v-6.885A3.562,3.562,0,0,1,341.715,323.8Zm-7.29-9.112a3.492,3.492,0,0,1,2.531-3.341v6.784a3.715,3.715,0,0,1-2.531-3.442Z" transform="translate(-182.402 -108.786)" fill="#004986"/>
  </g>
</svg>
