<svg xmlns="http://www.w3.org/2000/svg" width="74.914" height="57.164" viewBox="0 0 74.914 57.164">
  <g id="noun-online-account-4246365" transform="translate(-35.312 -169.068)">
    <path id="Path_2651" data-name="Path 2651" d="M161.982,643.84H134.943a1.17,1.17,0,0,1-1.171-1.171v-7.022a9.259,9.259,0,0,1,9.241-9.256h10.882a9.268,9.268,0,0,1,9.258,9.256v7.022a1.17,1.17,0,0,1-1.171,1.171ZM136.113,641.5h24.7v-5.851a6.923,6.923,0,0,0-6.916-6.915H143.013a6.915,6.915,0,0,0-6.9,6.915Z" transform="translate(-91.929 -426.99)" fill="#004986"/>
    <path id="Path_2652" data-name="Path 2652" d="M233.288,417.916a8.658,8.658,0,1,1,8.659-8.659A8.668,8.668,0,0,1,233.288,417.916Zm0-14.975a6.317,6.317,0,1,0,6.317,6.316A6.324,6.324,0,0,0,233.288,402.941Z" transform="translate(-176.761 -216.175)" fill="#004986"/>
    <path id="Path_2653" data-name="Path 2653" d="M105.248,226.232H40.277a4.97,4.97,0,0,1-4.965-4.963V174.032a4.97,4.97,0,0,1,4.965-4.964h64.972a4.97,4.97,0,0,1,4.964,4.964v47.237A4.97,4.97,0,0,1,105.248,226.232ZM40.277,171.409a2.627,2.627,0,0,0-2.623,2.623v47.237a2.626,2.626,0,0,0,2.623,2.622h64.972a2.626,2.626,0,0,0,2.623-2.622V174.032a2.627,2.627,0,0,0-2.623-2.623Z" fill="#004986"/>
    <path id="Path_2654" data-name="Path 2654" d="M109.186,856.5H36.623a1.171,1.171,0,0,1,0-2.341h72.564a1.17,1.17,0,1,1,0,2.341Z" transform="translate(-0.131 -639.645)" fill="#004986"/>
    <path id="Path_2655" data-name="Path 2655" d="M705.706,300.845H685.863a1.171,1.171,0,1,1,0-2.341h19.843a1.171,1.171,0,0,1,0,2.341Z" transform="translate(-606.307 -120.851)" fill="#004986"/>
    <path id="Path_2656" data-name="Path 2656" d="M705.706,409.045H685.863a1.171,1.171,0,1,1,0-2.341h19.843a1.171,1.171,0,0,1,0,2.341Z" transform="translate(-606.307 -221.874)" fill="#004986"/>
    <path id="Path_2657" data-name="Path 2657" d="M705.706,517.245H685.863a1.171,1.171,0,1,1,0-2.341h19.843a1.171,1.171,0,0,1,0,2.341Z" transform="translate(-606.307 -322.897)" fill="#004986"/>
    <path id="Path_2658" data-name="Path 2658" d="M705.706,625.435H685.863a1.171,1.171,0,1,1,0-2.341h19.843a1.171,1.171,0,0,1,0,2.341Z" transform="translate(-606.307 -423.911)" fill="#004986"/>
    <path id="Path_2659" data-name="Path 2659" d="M705.706,733.655H685.863a1.171,1.171,0,0,1,0-2.341h19.843a1.171,1.171,0,0,1,0,2.341Z" transform="translate(-606.307 -524.953)" fill="#004986"/>
  </g>
</svg>
