<svg xmlns="http://www.w3.org/2000/svg" width="70.631" height="70.674" viewBox="0 0 70.631 70.674">
  <g id="noun-profit-1663679" transform="translate(-37.505 -36.824)">
    <path id="Path_2648" data-name="Path 2648" d="M420.961,36.866v3.178l-18.6-3.178a6.449,6.449,0,0,0-3.3.471l-15.774,6.945a3.323,3.323,0,0,0-1.766,4.12,3.277,3.277,0,0,0,3.649,2.237l16.716-3.3,2.237.942-4.238,1.059a3.265,3.265,0,0,0-2.59,3.178,3.2,3.2,0,0,0,2.943,3.178h.118l6.945-.118a6.983,6.983,0,0,1,2.708.589,12.839,12.839,0,0,0,5.533,1.413,8.228,8.228,0,0,0,3.649-.824c.471-.235,1.177-.706,1.766-1.059v2.354h9.418V36.866Zm-2.825,17.775c-2,.942-4.356.706-7.063-.589a7.887,7.887,0,0,0-3.649-.824.115.115,0,0,1-.118-.118l-6.828.118a.787.787,0,0,1-.706-.824.86.86,0,0,1,.706-.824l11.3-2.943-9.536-3.767-17.3,3.414a1.03,1.03,0,0,1-1.059-.706.86.86,0,0,1,.471-1.177l15.774-6.945a3.779,3.779,0,0,1,2-.235L420.961,42.4V52.64A21.891,21.891,0,0,1,418.136,54.641Zm9.888,1.059h-4.709V39.22h4.709Z" transform="translate(-322.243)" fill="#004986"/>
    <path id="Path_2649" data-name="Path 2649" d="M82.709,832.534l-16.716,3.3-2.237-.942,4.238-1.059a3.265,3.265,0,0,0,2.59-3.178,3.2,3.2,0,0,0-2.943-3.178h-.118l-6.945.118A6.983,6.983,0,0,1,57.87,827c-3.414-1.766-6.474-1.883-9.182-.706-.471.235-1.177.706-1.766,1.059V825H37.505v21.189h9.418v-3.178L65.4,846.072a2.3,2.3,0,0,0,.942.118,8.96,8.96,0,0,0,2.472-.353l15.774-6.945a3.323,3.323,0,0,0,1.766-4.12,3.277,3.277,0,0,0-3.649-2.237Zm-38.141,11.3H39.859V827.354h4.709Zm38.965-7.181L67.758,843.6a3.779,3.779,0,0,1-2,.235l-18.835-3.178V830.532a21.885,21.885,0,0,1,2.825-2c2-.942,4.356-.706,7.063.589a8.372,8.372,0,0,0,3.767.824l6.828-.118a.787.787,0,0,1,.706.824.86.86,0,0,1-.706.824l-11.3,2.943,9.536,3.767,17.3-3.414a1.03,1.03,0,0,1,1.059.706.86.86,0,0,1-.471,1.177Z" transform="translate(0 -738.692)" fill="#004986"/>
    <path id="Path_2650" data-name="Path 2650" d="M471.1,377.439H468.75a7.084,7.084,0,0,0,7.063,7.063v2.354h2.354V384.5a7.063,7.063,0,1,0,0-14.126v-9.418a4.723,4.723,0,0,1,4.709,4.709h2.354a7.084,7.084,0,0,0-7.063-7.063V356.25h-2.354V358.6a7.063,7.063,0,1,0,0,14.126v9.418A4.723,4.723,0,0,1,471.1,377.439Zm0-11.772a4.723,4.723,0,0,1,4.709-4.709v9.418A4.723,4.723,0,0,1,471.1,365.668Zm7.063,7.063a4.709,4.709,0,1,1,0,9.418Z" transform="translate(-404.17 -299.372)" fill="#004986"/>
  </g>
</svg>
