<svg xmlns="http://www.w3.org/2000/svg" width="74.43" height="71.64" viewBox="0 0 74.43 71.64">
  <g id="noun-save-money-945027" transform="translate(0.05 -22.47)">
    <path id="Path_2666" data-name="Path 2666" d="M70,279.944H66.5a24.505,24.505,0,0,0-9.208-12.259l.846-7.793a1.459,1.459,0,0,0-1.795-1.576l-14.2,3.444h0a36.706,36.706,0,0,0-4.962-.336,33.93,33.93,0,0,0-21.175,7.034,24.972,24.972,0,0,0-7.3,9.179,6.363,6.363,0,0,1-3.678-11.12,1.459,1.459,0,0,0-1.926-2.189,9.3,9.3,0,0,0,4.568,16.141,20.436,20.436,0,0,0-.8,5.662c0,7.034,3.619,13.645,9.982,18.329l-1.284,2.233a4.378,4.378,0,0,0-.321,3.532,4.859,4.859,0,0,0,2.145,2.743l2.992,1.722a4.382,4.382,0,0,0,2.218.6,4.513,4.513,0,0,0,1.168-.161A4.378,4.378,0,0,0,26.5,313l1.664-3.284a36.573,36.573,0,0,0,16.505.336l.438,1.62a4.48,4.48,0,0,0,4.378,3.5,4.39,4.39,0,0,0,.934-.1l3.4-.744h0a4.495,4.495,0,0,0,3.211-5.473l-.759-3.561h0a26.052,26.052,0,0,0,8.756-9.383H70a4.451,4.451,0,0,0,4.378-4.378v-7.136A4.451,4.451,0,0,0,70,279.944Zm-15-18.3-.467,4.247a32.783,32.783,0,0,0-6.027-2.671Zm16.461,29.844A1.459,1.459,0,0,1,70,292.947H64.164a1.51,1.51,0,0,0-.2,0,1.478,1.478,0,0,0-.321,0,4.532,4.532,0,0,0-.467.292,1.468,1.468,0,0,0-.19.263,1.38,1.38,0,0,0-.131.175,23.146,23.146,0,0,1-8.931,9.559,8.656,8.656,0,0,0-.408.394q-.121.25-.219.511a1.462,1.462,0,0,0,0,.248,1.451,1.451,0,0,0,0,.321l.978,4.539a1.649,1.649,0,0,1-.978,2l-3.5.992a1.576,1.576,0,0,1-1.839-1.255l-.8-3.021a10.62,10.62,0,0,1-.263-.511,9.655,9.655,0,0,1-.423-.365h-.19a1.472,1.472,0,0,0-.336-.117h-.219a1.459,1.459,0,0,0-.35,0,34.365,34.365,0,0,1-17.512-.306h-.73l-.263.087-.234.131-.219.175h0a1.448,1.448,0,0,0-.175.219,1.372,1.372,0,0,0-.1.117l-2.16,4.261a1.521,1.521,0,0,1-2.087.54l-3.006-1.737h0a1.941,1.941,0,0,1-.817-1.08,1.459,1.459,0,0,1,0-1.2l1.956-3.371a1.41,1.41,0,0,0,.073-.234.934.934,0,0,0,.087-.555.862.862,0,0,0-.087-.54,2.391,2.391,0,0,0-.5-.628c-6.231-4.159-9.807-10.216-9.807-16.7a17.627,17.627,0,0,1,1.226-6.465v-.1a21.792,21.792,0,0,1,6.757-8.756,31.012,31.012,0,0,1,19.366-6.392,33.64,33.64,0,0,1,4.845.35h.073a30.517,30.517,0,0,1,12.827,4.86,21.5,21.5,0,0,1,9.092,12.2v.1a1.471,1.471,0,0,0,.131.263,1.579,1.579,0,0,0,.584.569l.248.087H70a1.459,1.459,0,0,1,1.459,1.459Z" transform="translate(0 -221.18)" fill="#004986"/>
    <path id="Path_2667" data-name="Path 2667" d="M442.842,431.179a16.416,16.416,0,0,0-10.317,3.6,1.468,1.468,0,1,0,1.853,2.277,13.674,13.674,0,0,1,17.877.876,1.461,1.461,0,1,0,2.014-2.116,16.505,16.505,0,0,0-11.426-4.641Z" transform="translate(-405.237 -383.36)" fill="#004986"/>
    <path id="Path_2668" data-name="Path 2668" d="M902.413,616.032A2.029,2.029,0,1,1,900.384,614a2.028,2.028,0,0,1,2.029,2.029" transform="translate(-842.684 -554.845)" fill="#004986"/>
    <path id="Path_2669" data-name="Path 2669" d="M494.652,35.779a6.655,6.655,0,1,0-4.705-1.949A6.655,6.655,0,0,0,494.652,35.779Zm0-10.391a3.736,3.736,0,1,1-2.642,1.094A3.736,3.736,0,0,1,494.652,25.389Z" transform="translate(-457.777)" fill="#004986"/>
  </g>
</svg>
