
<svg id="Group_500" data-name="Group 500" xmlns="http://www.w3.org/2000/svg" xmlns:xlink="http://www.w3.org/1999/xlink" width="158" height="130" viewBox="0 0 158 138">
  <defs>
    <clipPath id="clip-path">
      <rect id="Rectangle_428" data-name="Rectangle 428" width="158" height="130" fill="none" stroke="#707070" stroke-width="3"/>
    </clipPath>
  </defs>
  <g id="Group_499" data-name="Group 499" clip-path="url(#clip-path)">
    <path id="Path_1285" data-name="Path 1285" d="M183.862,131.72c0-6.544-4.851-11.849-10.834-11.849s-10.834,5.3-10.834,11.849S167.044,147,173.028,147,183.862,138.263,183.862,131.72Z" transform="translate(-79.669 -58.88)" fill="none" stroke="#1a1a1a" stroke-linecap="round" stroke-linejoin="round" stroke-width="3"/>
    <path id="Path_1286" data-name="Path 1286" d="M3.572,204.665c-.658-8.844,1.287-16.92,9.835-19.283l1.271-.352" transform="translate(-1.697 -90.886)" fill="none" stroke="#1a1a1a" stroke-linecap="round" stroke-linejoin="round" stroke-width="3"/>
    <path id="Path_1287" data-name="Path 1287" d="M201.078,185.031l1.27.351c8.548,2.363,10.493,10.439,9.835,19.284" transform="translate(-98.769 -90.887)" fill="none" stroke="#1a1a1a" stroke-linecap="round" stroke-linejoin="round" stroke-width="3"/>
    <path id="Path_1288" data-name="Path 1288" d="M21.809,131.72c0-6.544,4.851-11.849,10.834-11.849s10.834,5.3,10.834,11.849S38.627,147,32.643,147,21.809,138.263,21.809,131.72Z" transform="translate(-10.713 -58.88)" fill="none" stroke="#1a1a1a" stroke-linecap="round" stroke-linejoin="round" stroke-width="3"/>
    <path id="Path_1289" data-name="Path 1289" d="M113.676,141.688c0-6.646-4.926-12.033-11-12.033s-11,5.387-11,12.033,4.927,15.516,11,15.516S113.676,148.334,113.676,141.688Z" transform="translate(-45.028 -63.686)" fill="none" stroke="#1a1a1a" stroke-linecap="round" stroke-linejoin="round" stroke-width="3"/>
    <path id="Path_1290" data-name="Path 1290" d="M135.567,193.459l1.29.357A17.772,17.772,0,0,1,149.695,208.8H180" transform="translate(-66.59 -95.026)" fill="none" stroke="#1a1a1a" stroke-linecap="round" stroke-linejoin="round" stroke-width="3"/>
    <path id="Path_1291" data-name="Path 1291" d="M48.124,193.459l-1.29.357A17.772,17.772,0,0,0,34,208.8H3.686" transform="translate(-1.811 -95.026)" fill="none" stroke="#1a1a1a" stroke-linecap="round" stroke-linejoin="round" stroke-width="3"/>
    <line id="Line_151" data-name="Line 151" y2="5.192" transform="translate(57.697 10.757)" fill="none" stroke="#1a1a1a" stroke-linecap="round" stroke-linejoin="round" stroke-width="3"/>
    <path id="Path_1292" data-name="Path 1292" d="M90.491,61.507a12.619,12.619,0,0,0,10.875,6.229c3.484,0,11.4-1.373,11.4-9.4s-10.215-8.763-10.215-8.763l-.923-.108s-10.465-.739-10.465-8.763,7.918-9.4,11.4-9.4a9.951,9.951,0,0,1,9.075,5.509" transform="translate(-44.449 -15.379)" fill="none" stroke="#1a1a1a" stroke-linecap="round" stroke-linejoin="round" stroke-width="3"/>
    <line id="Line_152" data-name="Line 152" y1="5.192" transform="translate(57.969 52.338)" fill="none" stroke="#1a1a1a" stroke-linecap="round" stroke-linejoin="round" stroke-width="3"/>
    <path id="Path_1293" data-name="Path 1293" d="M111.5,54.061a36.089,36.089,0,1,0-66.083,0" transform="translate(-20.81 -1.697)" fill="none" stroke="#1a1a1a" stroke-linecap="round" stroke-linejoin="round" stroke-width="3"/>
    <line id="Line_153" data-name="Line 153" x2="110.929" transform="translate(2.603 123.101)" fill="none" stroke="#1a1a1a" stroke-linecap="round" stroke-linejoin="round" stroke-width="3"/>
  </g>
</svg>