<svg xmlns="http://www.w3.org/2000/svg" width="104.066" height="84.792" viewBox="0 0 104.066 84.792">
  <g id="noun-atm-withdrawal-5197959" transform="translate(0.012 -111.19)">
    <path id="Path_1250" data-name="Path 1250" d="M99.664,159.913H92.59a.8.8,0,0,1,0-1.594h7.074a2.828,2.828,0,0,0,2.813-2.83V115.6a2.825,2.825,0,0,0-2.813-2.813H4.4A2.825,2.825,0,0,0,1.582,115.6v39.876A2.828,2.828,0,0,0,4.4,158.3h24.15a.8.8,0,0,1,0,1.594H4.4a4.418,4.418,0,0,1-4.407-4.44V115.6A4.411,4.411,0,0,1,4.4,111.19H99.647a4.411,4.411,0,0,1,4.407,4.407v39.876a4.414,4.414,0,0,1-4.391,4.44Z" transform="translate(0 0)" fill="#7c7c7c"/>
    <path id="Path_1251" data-name="Path 1251" d="M150.994,256.079h-6.847a.8.8,0,1,1,0-1.594h6.847a1.2,1.2,0,0,0,1.2-1.2V230.627a1.2,1.2,0,0,0-1.2-1.2H62.447a1.2,1.2,0,0,0-1.2,1.2v22.654a1.2,1.2,0,0,0,1.2,1.2H79.929a.8.8,0,0,1,0,1.594H62.447a2.8,2.8,0,0,1-2.8-2.814V230.628a2.811,2.811,0,0,1,2.8-2.814h88.547a2.814,2.814,0,0,1,2.813,2.814v22.654a2.821,2.821,0,0,1-2.813,2.8Z" transform="translate(-54.487 -106.509)" fill="#7c7c7c"/>
    <path id="Path_1252" data-name="Path 1252" d="M152.872,403.409H60.309a.8.8,0,1,1,0-1.594h92.563a.8.8,0,1,1,0,1.594Z" transform="translate(-54.362 -265.418)" fill="#7c7c7c"/>
    <path id="Path_1253" data-name="Path 1253" d="M268.2,461.364H205.244a.762.762,0,0,1-.569-.244.813.813,0,0,1-.228-.569c.667-30.477-3.887-49.78-13.531-57.342a.8.8,0,0,1-.13-1.122.787.787,0,0,1,1.122-.13c10.131,7.936,14.767,26.85,14.165,57.814h61.375c1.675-28.557-2.244-47.6-11.644-56.611a.805.805,0,1,1,1.122-1.155c9.969,9.562,13.937,28.736,12.083,58.611a.815.815,0,0,1-.813.748Z" transform="translate(-174.093 -265.382)" fill="#7c7c7c"/>
    <path id="Path_1254" data-name="Path 1254" d="M364.392,452.442H334.907a.818.818,0,0,1-.8-.683c-.732-4.944-3.415-7.79-8.18-8.733a.8.8,0,0,1-.65-.813c.65-18.832-2.651-31.615-10.1-39.079a.8.8,0,1,1,1.138-1.138c7.676,7.708,11.14,20.67,10.587,39.6,4.814,1.155,7.725,4.261,8.668,9.237h28.1c.813-4.716,3.61-7.335,8.489-7.985,1.317-14.555-3.106-27.565-13.514-39.763a.8.8,0,1,1,1.22-1.025c10.847,12.733,15.368,26.329,13.824,41.616a.8.8,0,0,1-.716.715c-4.814.439-7.221,2.716-7.822,7.367a.762.762,0,0,1-.764.683Z" transform="translate(-287.643 -265.37)" fill="#7c7c7c"/>
    <path id="Path_1255" data-name="Path 1255" d="M455.671,414.89c-7.676,0-13.921-4.814-13.921-10.717a7.819,7.819,0,0,1,.228-1.854.8.8,0,0,1,1.561.39,6.112,6.112,0,0,0-.179,1.464c0,5.025,5.529,9.124,12.311,9.124,6.8,0,12.311-4.1,12.311-9.124a6.22,6.22,0,0,0-.179-1.464.8.8,0,0,1,1.561-.39,7.792,7.792,0,0,1,.228,1.838c0,5.936-6.245,10.733-13.921,10.733Z" transform="translate(-403.446 -265.32)" fill="#7c7c7c"/>
  </g>
</svg>
