<svg xmlns="http://www.w3.org/2000/svg" width="108.891" height="106.58" viewBox="0 0 108.891 106.58">
  <g id="noun-banker-1057783" transform="translate(-149.754 -165.93)">
    <path id="Path_1278" data-name="Path 1278" d="M158.538,632.77a59.636,59.636,0,0,0-4.913,13.016c-.085.787-.447,4.339-.447,5.466a3.447,3.447,0,0,0,.51,1.489c11.527,4.934,31.009,7.4,50.533,7.4s38.984-2.467,50.533-7.4a3.447,3.447,0,0,0,.511-1.489c0-1.127-.362-4.679-.447-5.466a58.912,58.912,0,0,0-4.913-13.016l-.064-.106c-1.765-3.871-5.168-7.146-9.634-9.8a58.363,58.363,0,0,0-17.652-6.444,34.66,34.66,0,0,1-35.73-.383,56.808,56.808,0,0,0-18.163,6.338c-4.615,2.723-8.146,6.125-10.038,10.273l-.064.106Zm-8.231,12.271a62.375,62.375,0,0,1,5.253-13.888c2.212-4.764,6.189-8.656,11.357-11.7a60.724,60.724,0,0,1,19.928-6.89l1.212.255a31.455,31.455,0,0,0,8.1,3.7,31.248,31.248,0,0,0,25.181-3.361l1.212-.213a62.066,62.066,0,0,1,19.353,6.976c5.019,2.978,8.869,6.721,10.953,11.208a63.409,63.409,0,0,1,5.253,13.888l.043.255c0,.021.489,4.594.489,5.955a8.029,8.029,0,0,1-1.383,3.829l-.7.574c-11.91,5.274-32.157,7.911-52.361,7.911s-40.452-2.637-52.361-7.911l-.7-.574a7.92,7.92,0,0,1-1.383-3.829c0-1.382.489-5.955.489-5.955l.043-.255Z" transform="translate(0 -391.034)" fill="#7c7c7c"/>
    <path id="Path_1279" data-name="Path 1279" d="M403.394,165.93a27.956,27.956,0,1,1-19.758,8.188A27.837,27.837,0,0,1,403.394,165.93Zm17.355,10.592a24.543,24.543,0,1,0,7.188,17.355A24.445,24.445,0,0,0,420.748,176.522Z" transform="translate(-198.386 0)" fill="#7c7c7c"/>
    <path id="Path_1280" data-name="Path 1280" d="M547.8,262.509a8,8,0,0,1-.66,3.339,7.426,7.426,0,0,1-1.872,2.574,9.193,9.193,0,0,1-2.914,1.723,13.743,13.743,0,0,1-3.765.808l-.447,4.615a.62.62,0,0,1-.106.3.486.486,0,0,1-.277.213,2.543,2.543,0,0,1-.553.149,5.145,5.145,0,0,1-.893.064,7.733,7.733,0,0,1-1.106-.064,2.044,2.044,0,0,1-.659-.191.768.768,0,0,1-.319-.319.943.943,0,0,1-.042-.425l.447-4.381a14.06,14.06,0,0,1-1.744-.34c-.553-.149-1.042-.3-1.489-.447a10.134,10.134,0,0,1-1.149-.51,2.644,2.644,0,0,1-.723-.511,1.362,1.362,0,0,1-.362-.744,7.848,7.848,0,0,1-.106-1.446c0-.489.021-.893.042-1.212a2.185,2.185,0,0,1,.149-.744.714.714,0,0,1,.277-.362.734.734,0,0,1,.383-.106,1.726,1.726,0,0,1,.808.319c.362.213.829.447,1.383.723a12.549,12.549,0,0,0,2.042.7,10.971,10.971,0,0,0,2.807.319,6.288,6.288,0,0,0,3.764-.936,3.015,3.015,0,0,0,1.234-2.488,2.625,2.625,0,0,0-.532-1.7,4.626,4.626,0,0,0-1.425-1.17,13.454,13.454,0,0,0-2-.915c-.744-.255-1.489-.553-2.276-.851a16.908,16.908,0,0,1-2.276-1.063,8.581,8.581,0,0,1-2-1.489,6.653,6.653,0,0,1-1.425-2.148,7.7,7.7,0,0,1-.532-3.041,7.789,7.789,0,0,1,.553-2.956,6.641,6.641,0,0,1,1.553-2.318,8.249,8.249,0,0,1,2.488-1.616,11.973,11.973,0,0,1,3.361-.83l.425-4.339a.619.619,0,0,1,.106-.3.778.778,0,0,1,.276-.213,2.538,2.538,0,0,1,.553-.149c.234-.021.532-.043.914-.043a7.938,7.938,0,0,1,1.106.064,2.026,2.026,0,0,1,.681.191.538.538,0,0,1,.3.319,1.373,1.373,0,0,1,.064.425l-.425,4.084c.4.064.829.128,1.276.234a9.709,9.709,0,0,1,1.255.362c.383.149.745.276,1.063.425a3.039,3.039,0,0,1,.659.4,1.406,1.406,0,0,1,.425.808,2.805,2.805,0,0,1,.064.638c.021.255.021.532.021.872,0,.447,0,.808-.021,1.106a2.107,2.107,0,0,1-.127.659.554.554,0,0,1-.192.3.453.453,0,0,1-.255.064,1.8,1.8,0,0,1-.808-.276,14.32,14.32,0,0,0-1.34-.6,18.047,18.047,0,0,0-1.808-.6,8.29,8.29,0,0,0-2.254-.276,7.2,7.2,0,0,0-1.914.213,3.511,3.511,0,0,0-1.3.617,2.426,2.426,0,0,0-.744.936,3.045,3.045,0,0,0-.234,1.191,2.624,2.624,0,0,0,.532,1.7,4.771,4.771,0,0,0,1.446,1.191,13.708,13.708,0,0,0,2.021.915c.766.276,1.531.553,2.318.872a18.7,18.7,0,0,1,2.3,1.063,8.2,8.2,0,0,1,2.02,1.468,6.69,6.69,0,0,1,1.425,2.106,7.492,7.492,0,0,1,.532,3Z" transform="translate(-333.417 -63.337)" fill="#7c7c7c"/>
  </g>
</svg>
