<svg id="Group_589" data-name="Group 589" xmlns="http://www.w3.org/2000/svg" width="115.025" height="92.811" viewBox="0 0 115.025 92.811">
  <g id="noun-parking-ticket-2619882" transform="translate(0 0)">
    <path id="Path_1256" data-name="Path 1256" d="M256.344,170.4H144.618a1.721,1.721,0,0,0-1.816,1.557v21.158a1.729,1.729,0,0,0,1.816,1.557h9.235v58.8c0,4.8,4.542,8.827,10.295,8.827h12.566a1.072,1.072,0,0,0,2.119,0h43.6a1.072,1.072,0,0,0,2.119,0h11.657c5.753,0,10.446-4.024,10.446-8.957V194.8h9.235a1.721,1.721,0,0,0,1.816-1.557V172.085c.454-.908-.454-1.688-1.363-1.688Zm-1.968,21.158h-7.418v-4.543h2.12v-8.827H151.885v8.827H154v4.543h-7.418V173.642h107.79ZM164.3,259.184c-3.633,0-6.51-2.466-6.51-5.582V183.378h85.535v70.1c0,3.115-3.028,5.712-6.661,5.712Z" transform="translate(-142.802 -170.397)" fill="#7c7c7c"/>
    <path id="Path_1260" data-name="Path 1260" d="M322.4,777.6a.788.788,0,0,0-.8.8v12.188a.788.788,0,0,0,.8.8.735.735,0,0,0,.8-.8V778.3a.772.772,0,0,0-.8-.7Z" transform="translate(-298.877 -705.667)" fill="#7c7c7c"/>
    <path id="Path_1261" data-name="Path 1261" d="M413.6,777.6a.788.788,0,0,0-.8.8v12.188a.788.788,0,0,0,.8.8.735.735,0,0,0,.8-.8V778.3a.847.847,0,0,0-.8-.7Z" transform="translate(-378.487 -705.667)" fill="#7c7c7c"/>
    <path id="Path_1262" data-name="Path 1262" d="M503.6,777.6a.788.788,0,0,0-.8.8v12.188a.788.788,0,0,0,.8.8.735.735,0,0,0,.8-.8V778.3a.772.772,0,0,0-.8-.7Z" transform="translate(-457.049 -705.667)" fill="#7c7c7c"/>
    <path id="Path_1263" data-name="Path 1263" d="M594.8,777.6a.788.788,0,0,0-.8.8v12.188a.788.788,0,0,0,.8.8.736.736,0,0,0,.8-.8V778.3a.847.847,0,0,0-.8-.7Z" transform="translate(-536.659 -705.667)" fill="#7c7c7c"/>
    <path id="Path_1264" data-name="Path 1264" d="M684.8,777.6a.788.788,0,0,0-.8.8v12.188a.788.788,0,0,0,.8.8.735.735,0,0,0,.8-.8V778.3a.712.712,0,0,0-.8-.7Z" transform="translate(-615.222 -705.667)" fill="#7c7c7c"/>
    <path id="Path_1265" data-name="Path 1265" d="M776,777.6a.788.788,0,0,0-.8.8v12.188a.788.788,0,0,0,.8.8.736.736,0,0,0,.8-.8V778.3a.772.772,0,0,0-.8-.7Z" transform="translate(-694.832 -705.667)" fill="#7c7c7c"/>
    <path id="Path_1266" data-name="Path 1266" d="M867.2,777.6a.788.788,0,0,0-.8.8v12.188a.788.788,0,0,0,.8.8.735.735,0,0,0,.8-.8V778.3a.848.848,0,0,0-.8-.7Z" transform="translate(-774.442 -705.667)" fill="#7c7c7c"/>
  </g>
  <path id="noun-car-1777770" d="M19.18,258.22H50.994l7.738,10.127q-23.646.287-47.292,0Zm.382.764-6.5,8.6c14.713.1,29.33.1,44.043,0l-6.5-8.6Zm32.2-1.815,8.981,11.656,1.72-1.051a4.3,4.3,0,0,1,.1-2.2,14.475,14.475,0,0,1,5.732,0,2.038,2.038,0,0,1,.191,2.2,6.656,6.656,0,0,1-5.637,1.146l-1.051.86c.86.764,1.624,1.529,2.484,2.388v20.254a2.569,2.569,0,0,1-2.58,2.58H55.771a2.55,2.55,0,0,1-2.484-2.58v-2.675h-36.4v2.675A2.55,2.55,0,0,1,14.4,295H8.48a2.569,2.569,0,0,1-2.58-2.58V272.169c.86-.86,1.624-1.624,2.484-2.388l-1.051-.86A6.656,6.656,0,0,1,1.7,267.774a2.037,2.037,0,0,1,.191-2.2,14.475,14.475,0,0,1,5.732,0,5.734,5.734,0,0,1,.191,2.2l1.624,1.051,8.981-11.656c11.083-.1,22.26-.1,33.343,0Zm.669,33.438v1.815a3.323,3.323,0,0,0,3.344,3.344h5.923a3.323,3.323,0,0,0,3.344-3.344V271.787l-2.1-2.1c2.006.764,4.873-.478,6.21-1.433.573-1.242.669-2.293-.382-3.344-2.388-.764-4.586-.382-6.879,0a7.125,7.125,0,0,0-.382,2.484l-.573.382-8.789-11.465H18.034L9.245,267.774l-.573-.382a7.125,7.125,0,0,0-.382-2.484c-2.293-.382-4.49-.764-6.783,0a2.758,2.758,0,0,0-.478,3.344c1.433.955,4.2,2.2,6.21,1.433l-2.1,2.1v20.636a3.323,3.323,0,0,0,3.344,3.344H14.4a3.323,3.323,0,0,0,3.344-3.344v-1.815h34.68Zm7.738-6.592c3.822-2.1,3.248-4.2-.86-4.873-4.49.573-11.656,1.815-14.809,5.35,3.917,1.433,11.369.1,15.668-.478Zm-14.235.1c2.866-2.389,9.745-3.726,13.375-4.108,3.153.478,3.535,1.624.573,3.248-3.535.478-10.6,1.624-13.949.86Zm-35.922-.1c-3.822-2.1-3.248-4.2.86-4.873,4.586.573,11.656,1.815,14.809,5.35-3.917,1.433-11.369.1-15.668-.478Zm14.235.1c-2.771-2.389-9.745-3.726-13.375-4.108-3.153.478-3.535,1.624-.573,3.248,3.535.478,10.6,1.624,13.949.86Z" transform="translate(21.779 -231.506)" fill="#7c7c7c"/>
</svg>
