<svg xmlns="http://www.w3.org/2000/svg" width="105.635" height="106.494" viewBox="0 0 105.635 106.494">
  <g id="noun-night-time-3150854" transform="translate(0 0)">
    <path id="Path_1274" data-name="Path 1274" d="M203.652,168.618c5.77-2.575,9.867-6.763,13.651-11.709.238-.311-.22-.772-.511-.483-3.584,3.553-7.159,7.346-11.626,9.794-14.476,7.935-45.248,3.375-49.288-24.137-1.342-9.139.013-19.21,5.488-26.841,6.343-8.842,19.159-16.451,30.357-13.981-4.119,1.491-7.251,6.21-8.992,9.822-5.957,12.357-7.267,37.973,12.955,44.643a41.7,41.7,0,0,0,20.5,1.218.251.251,0,0,0-.05-.493c-8.457-.337-23.2,1.411-31.122-9.881-6.369-9.073-5.855-22.517-2.123-32.512,2.938-7.871,6.541-9.907,9.785-12.25-.1.391-.255.567-.169.528a2.771,2.771,0,0,0,1.3-.876.612.612,0,0,0-.185-.947c-10.091-3.709-21.933,1.977-29.272,8.889-7.667,7.221-10.782,17.174-10.522,27.536.807,32.183,33.612,38.918,49.824,31.683Z" transform="translate(-143.971 -94.315)" fill="#7c7c7c"/>
    <path id="Path_1275" data-name="Path 1275" d="M590.425,63.718a68.492,68.492,0,0,0,6.929,4.828c.469.293,2.187.968,2.45,1.46.4.739-.449,2.642-.61,3.453-.222,1.119-.422,2.242-.606,3.368-.435,2.657-.762,5.329-1.045,8.006a.408.408,0,0,0,.6.367c3.53-2.143,5.143-6.275,8.582-8.5a25.36,25.36,0,0,0,9.558,7.371.5.5,0,0,0,.646-.64c-1.035-3.183-2.516-12.034-2.516-12.077a.875.875,0,0,0,.1-.064c3.451-2.463,7.669-4.084,10.522-7.333.259-.295.189-.916-.281-.971-3.909-.451-7.665-1.435-11.61-1.148-.145-4.824-2.8-9.261-2.293-14.131.049-.467-.654-.814-.85-.293-1.751,4.648-4.406,9.054-6.807,13.39-.952,1.721-2.261.816-12.885,1.736a.588.588,0,1,0,.115,1.17Zm13.356-1.881A61.742,61.742,0,0,0,607.1,55.6c.97-1.867,1.989-3.746,2.855-5.679.318,4.208,2.286,8.132,2.177,12.432a.526.526,0,0,0,.6.559c3.618-.351,7.122.568,10.678,1.072-3.3,3.22-10.1,6.235-9.941,7.2a108.581,108.581,0,0,0,2.227,11.5,26.242,26.242,0,0,1-8.48-6.839.463.463,0,0,0-.626-.13c-3.365,2.11-4.961,6.017-8.128,8.3a115.066,115.066,0,0,1,2.584-14.053c.211-.852.008-.019-9.327-6.365,9.552-.783,11.106-.352,12.071-1.772Z" transform="translate(-537.926 -47.16)" fill="#7c7c7c"/>
    <path id="Path_1276" data-name="Path 1276" d="M770.4,436.512l.106.148a41.973,41.973,0,0,1-.364,4.438,44.356,44.356,0,0,1-.749,5.96c-.728,2.652-4.735,2.949-7.013,3.663a69.5,69.5,0,0,0-6.761,2.5.406.406,0,0,0-.017.7c3.549,2.018,7.643,2.45,11.56,3.37a25.387,25.387,0,0,0-1.605,11.829.494.494,0,0,0,.87.245,91.491,91.491,0,0,1,9.193-8.157c.776-.2,7.4,2.721,12.392,4.185.537.158.822-.448.638-.868-1.559-3.574-3.047-7.134-5.515-10.175,3.611-2.082,6.4-5.194,9.932-7.42.362-.228.18-.908-.277-.833-1.892.309-12.512,1.421-13.4.925-.555-.31-1.072-1.332-1.441-1.828-1.969-2.652-4.874-6.892-6.543-9.287-.432-.622-1.447-.005-1.007.609Zm8.548,11.446c1.249.68,3.779.078,5.1-.015,2.3-.162,4.614-.348,6.9-.657-2.932,2.167-5.529,4.758-8.792,6.451a.513.513,0,0,0-.2.781c2.355,2.79,3.728,6.068,5.149,9.373-13.9-4.311-9.939-5.424-16.13-.053-1.531,1.328-3.087,2.659-4.52,4.1a26.122,26.122,0,0,1,1.765-10.779.473.473,0,0,0-.338-.656c-3.759-.811-7.676-1.138-11.137-2.883,9.2-3.716,12.525-2.668,13.509-5.027a11.252,11.252,0,0,0,.348-2.945c.276-2.614.754-5.7.765-7.775,1.3,1.827,2.6,3.656,3.925,5.471.951,1.307,2.175,3.809,3.65,4.612Z" transform="translate(-687.622 -398.227)" fill="#7c7c7c"/>
    <path id="Path_1277" data-name="Path 1277" d="M52.125,809.878c3.482,1.935,7.659,1.425,11.218,3.007a26.934,26.934,0,0,0-1.5,11.591,1.046,1.046,0,0,0,1.762.73c3.225-3.508,7.954-6.616,9.163-8.012.257.073.575.1.806.162,2.542.669,8.683,2.965,11.133,3.874.936.347,1.5-.784,1.166-1.516a37.945,37.945,0,0,0-5.656-8.791c4.092-2.428,7.433-5.907,11.371-8.574,1.2-.379.376-2.457-.782-1.936-6.814,1.116-14.051,2.33-14.681,1.828-1.555-1.24-2.676-3.71-3.737-5.354-1.246-1.932-2.443-3.9-3.76-5.786-.535-.766-2-.587-1.923.521.256,3.809-.613,7.594-.729,11.4A121.558,121.558,0,0,0,52.126,808.1a1.039,1.039,0,0,0,0,1.782Zm20.662,7.3c.039-.046.084-.089.121-.135C73.265,816.6,73.151,817.159,72.787,817.174ZM68.029,803.79c0-2.935.53-5.856.72-8.785.8,1.248,1.585,2.5,2.393,3.745C72.2,800.379,73.42,803,75.109,804.1c1.442.935,4.029.161,5.585-.046,2.173-.29,4.34-.624,6.5-.972-2.936,2.367-5.748,4.9-9.1,6.667a1.045,1.045,0,0,0-.209,1.621,39.772,39.772,0,0,1,5,7c-2.01-.743-4.024-1.474-6.056-2.153-1.4-.469-3.723-1.67-5.138-.831a32.511,32.511,0,0,0-4.021,3.346c-1.3,1.1-2.626,2.2-3.876,3.369-.014-8.049,3.013-9.7,1.364-10.608-3.054-1.69-6.64-1.508-9.873-2.5,11.3-4.657,12.737-3.675,12.739-5.192Z" transform="translate(-51.62 -719.024)" fill="#7c7c7c"/>
  </g>
</svg>
