<svg xmlns="http://www.w3.org/2000/svg" width="108.803" height="85.797" viewBox="0 0 108.803 85.797">
  <path id="noun-coins-5808058" d="M113.188,205.687v49.844c0,1.917,1.114,3.843,3.389,5.436,4.025,2.811,12.1,4.826,21.419,4.826s17.4-2.015,21.419-4.826c2.275-1.592,3.389-3.518,3.389-5.436V205.687c0-1.917-1.114-3.843-3.389-5.436-4.017-2.811-12.1-4.826-21.419-4.826s-17.393,2.015-21.419,4.826C114.3,201.843,113.188,203.769,113.188,205.687ZM54,238.924v16.607c0,1.917,1.114,3.843,3.389,5.436,4.017,2.811,12.09,4.826,21.419,4.826s17.393-2.015,21.411-4.826c2.283-1.592,3.389-3.518,3.389-5.436V238.915c0-1.909-1.106-3.843-3.389-5.436-4.017-2.8-12.09-4.818-21.411-4.818s-17.4,2.015-21.419,4.818C55.114,235.072,54,237.006,54,238.915Zm62.954,5.679v10.928a1.99,1.99,0,0,0,.651,1.284,9.2,9.2,0,0,0,2.707,1.869c3.986,1.966,10.427,3.209,17.684,3.209s13.7-1.243,17.684-3.209a9.2,9.2,0,0,0,2.707-1.869,1.988,1.988,0,0,0,.651-1.284V244.6c-4.135,2.673-12,4.574-21.042,4.574s-16.907-1.9-21.042-4.574Zm-17.111,0c-4.127,2.673-12,4.574-21.034,4.574s-16.907-1.9-21.042-4.574v10.936a1.988,1.988,0,0,0,.651,1.275,9.262,9.262,0,0,0,2.7,1.869c3.994,1.966,10.435,3.209,17.691,3.209s13.7-1.243,17.684-3.209a9.2,9.2,0,0,0,2.707-1.869,1.975,1.975,0,0,0,.643-1.284V244.6Zm17.111-16.615v10.928a1.99,1.99,0,0,0,.651,1.284,9.2,9.2,0,0,0,2.707,1.861c3.986,1.975,10.427,3.217,17.684,3.217s13.7-1.243,17.684-3.217a9.2,9.2,0,0,0,2.707-1.861,1.988,1.988,0,0,0,.651-1.275V227.989c-4.135,2.673-12,4.574-21.042,4.574s-16.907-1.9-21.042-4.574ZM57.766,238.924v-.008a1.952,1.952,0,0,1,.651-1.275,9.262,9.262,0,0,1,2.7-1.869c3.994-1.975,10.435-3.209,17.691-3.209s13.7,1.235,17.684,3.209A9.2,9.2,0,0,1,99.2,237.64a1.958,1.958,0,0,1,.643,1.275A1.979,1.979,0,0,1,99.2,240.2a9.2,9.2,0,0,1-2.707,1.861c-3.986,1.974-10.435,3.217-17.684,3.217s-13.7-1.243-17.691-3.217a9.252,9.252,0,0,1-2.7-1.861,1.988,1.988,0,0,1-.651-1.275Zm59.188-27.55V222.3a2.008,2.008,0,0,0,.651,1.284,9.351,9.351,0,0,0,2.707,1.861c3.986,1.974,10.427,3.217,17.684,3.217s13.7-1.243,17.684-3.217a9.349,9.349,0,0,0,2.707-1.861,1.989,1.989,0,0,0,.651-1.275V211.374c-4.135,2.673-12,4.566-21.042,4.566s-16.907-1.893-21.042-4.566ZM79.954,180c-12.428,0-22.517,10.448-22.517,23.318s10.089,23.31,22.517,23.31,22.51-10.448,22.51-23.31S92.382,180,79.954,180Zm0,3.9c10.349,0,18.744,8.7,18.744,19.418s-8.395,19.41-18.744,19.41-18.751-8.7-18.751-19.41S69.6,183.9,79.954,183.9ZM138,199.325c7.257,0,13.7,1.243,17.684,3.217a9.047,9.047,0,0,1,2.707,1.861,1.583,1.583,0,0,1,0,2.559,9.206,9.206,0,0,1-2.707,1.869c-3.986,1.975-10.427,3.209-17.684,3.209s-13.7-1.235-17.684-3.209a9.206,9.206,0,0,1-2.707-1.869,1.583,1.583,0,0,1,0-2.559,9.047,9.047,0,0,1,2.707-1.861c3.986-1.975,10.427-3.217,17.684-3.217Z" transform="translate(-54 -179.996)" fill="#7c7c7c" fill-rule="evenodd"/>
</svg>
