<svg xmlns="http://www.w3.org/2000/svg" width="104.492" height="108.152" viewBox="0 0 104.492 108.152">
  <g id="noun-more-money-gives-3464415" transform="translate(-0.001 0.038)">
    <path id="Path_1267" data-name="Path 1267" d="M152.1,756.235c-2.176,6.7-10.891,21.847-10.97,21.992a1.319,1.319,0,0,0,1.134,1.977h26.29a1.319,1.319,0,0,0,1.226-.83l1.661-4.114a4.338,4.338,0,0,1,4.773-2.637c6.329,1.121,14.437,2.466,17.14,2.466,4.733,0,22.994-8.372,23.165-8.465,1.622-.751,12.328-12.169,12.1-15.122a4.364,4.364,0,0,0-2.531-3.481c-1.74-.778-4.825-1.134-9.651,2.2l-14.015,8.069-.118.079c-1.688.4-10.93.409-14.292-1.081l-2.321-2.136c8.148.936,13.053.264,15.294-2.057a5.537,5.537,0,0,0,1.318-5.181c-.989-5.168-8.9-4.931-14.134-4.76a43.228,43.228,0,0,1-7.146-.567,80.4,80.4,0,0,0-11.537-.87c-8.188-.013-14.345,5.142-17.391,14.516Zm17.338-11.866a76.3,76.3,0,0,1,11.194.857,45.937,45.937,0,0,0,7.568.567c4.074-.118,10.9-.33,11.457,2.637h0a2.886,2.886,0,0,1-.554,2.768c-1.318,1.319-5.353,2.637-17.14.725a1.391,1.391,0,0,0-1.121,2.32l5.551,5.116h0a1.336,1.336,0,0,0,.316.224c3.955,1.925,15.189,1.991,16.89,1.121h0a1.13,1.13,0,0,0,.342-.237l13.884-7.95c4.246-2.914,6.408-2.413,7.146-2.07a1.833,1.833,0,0,1,1.042,1.187c-.343,1.819-8.873,11.721-10.548,12.657-3.955,1.819-18.683,8.214-22.058,8.214a149.421,149.421,0,0,1-16.679-2.426,7,7,0,0,0-7.752,4.206l-1.318,3.283H144.531c2.479-4.4,8.267-14.978,10.073-20.515,1.885-5.854,6-12.71,14.833-12.71Z" transform="translate(-140.953 -672.091)" fill="#7c7c7c"/>
    <path id="Path_1268" data-name="Path 1268" d="M546.956,424.521a16.532,16.532,0,1,0,4.842-11.678,16.532,16.532,0,0,0-4.842,11.678Zm16.52-13.883a13.9,13.9,0,1,1-9.813,4.07,13.9,13.9,0,0,1,9.813-4.07Z" transform="translate(-502.347 -375.039)" fill="#7c7c7c"/>
    <path id="Path_1268-2" data-name="Path 1268" d="M546.956,424.521a16.532,16.532,0,1,0,4.842-11.678,16.532,16.532,0,0,0-4.842,11.678Zm16.52-13.883a13.9,13.9,0,1,1-9.813,4.07,13.9,13.9,0,0,1,9.813-4.07Z" transform="translate(-524.347 -408.039)" fill="#7c7c7c"/>
    <path id="Path_1269" data-name="Path 1269" d="M646.8,461.139a1.319,1.319,0,1,0-2.637,0,5.841,5.841,0,0,0,4.523,5.67v1.107a1.319,1.319,0,0,0,2.637,0v-1.107a5.828,5.828,0,0,0,0-11.352v-6.329a3.192,3.192,0,0,1,1.885,2.914,1.318,1.318,0,0,0,2.637,0,5.855,5.855,0,0,0-4.522-5.682v-1.042a1.319,1.319,0,1,0-2.637,0v1.107a5.827,5.827,0,0,0,0,11.352v6.289a3.216,3.216,0,0,1-1.885-2.927Zm4.522-2.914a3.19,3.19,0,0,1,0,5.827Zm-4.522-6.184a3.191,3.191,0,0,1,1.885-2.914v5.827a3.216,3.216,0,0,1-1.886-2.914Z" transform="translate(-588.871 -407.083)" fill="#7c7c7c"/>
    <path id="Path_1271" data-name="Path 1271" d="M456.633,150.11a1.318,1.318,0,1,0,2.637,0,5.722,5.722,0,0,0-4.391-5.551v-1.042a1.319,1.319,0,0,0-2.637,0v1.042a5.7,5.7,0,0,0,0,11.1v6.012a3.072,3.072,0,0,1-1.766-2.769,1.318,1.318,0,0,0-2.637,0,5.735,5.735,0,0,0,4.4,5.551V165.5h0a1.319,1.319,0,1,0,2.637,0v-1.042h0a5.709,5.709,0,0,0,0-11.1v-6.012a3.072,3.072,0,0,1,1.754,2.769Zm-4.443,2.835a3.059,3.059,0,0,1,0-5.537Zm4.443,5.959a3.085,3.085,0,0,1-1.754,2.769v-5.538A3.072,3.072,0,0,1,456.633,158.9Z" transform="translate(-414.107 -138.442)" fill="#7c7c7c"/>
    <path id="Path_1272" data-name="Path 1272" d="M815.055,153.48a16.124,16.124,0,1,0,11.376,4.723A16.124,16.124,0,0,0,815.055,153.48Zm0,29.56a13.475,13.475,0,1,1,9.515-3.946,13.475,13.475,0,0,1-9.515,3.946Z" transform="translate(-726.66 -148.483)" fill="#7c7c7c"/>
    <path id="Path_1273" data-name="Path 1273" d="M902.315,195.831a1.319,1.319,0,0,0,2.637,0,5.709,5.709,0,0,0-4.4-5.538v-1.055h0a1.319,1.319,0,0,0-2.637,0v1.055h0a5.7,5.7,0,0,0,0,11.088v6.025a3.072,3.072,0,0,1-1.754-2.769,1.319,1.319,0,0,0-2.637,0,5.7,5.7,0,0,0,4.391,5.538v1.055h0a1.319,1.319,0,0,0,2.637,0v-1.055h0a5.7,5.7,0,0,0,0-11.088v-6.025a3.086,3.086,0,0,1,1.766,2.769Zm-4.4,2.782h0a3.072,3.072,0,0,1,0-5.551Zm4.4,6.025h0a3.085,3.085,0,0,1-1.766,2.769v-5.551a3.1,3.1,0,0,1,1.766,2.782Z" transform="translate(-810.835 -179.139)" fill="#7c7c7c"/>
  </g>
</svg>
