<svg version="1.2" xmlns="http://www.w3.org/2000/svg" viewBox="0 0 1000 1000" width="1000" height="1000">
	<title>Company_Mission-ai</title>
	<style>
		.s0 { fill: none;stroke: #36464c;stroke-linejoin: round;stroke-width: 12 } 
		.s1 { fill: none;stroke: #36464c;stroke-linecap: round;stroke-linejoin: round;stroke-width: 12 } 
	</style>
	<g id="Layer 1">
		<g id="&lt;Group&gt;">
			<path id="&lt;Path&gt;" class="s0" d="m562 904.6h-184.6c-13.3 0-24-10.7-24-24v-108.9h232.6v108.9c0 13.3-10.7 24-24 24z"/>
			<path id="&lt;Path&gt;" class="s0" d="m502.9 904.6c0 18.4-14.8 33.3-33.2 33.3-18.4 0-33.2-14.9-33.2-33.3"/>
			<path id="&lt;Path&gt;" class="s1" d="m644.2 153.6l33.3-57.5"/>
			<path id="&lt;Path&gt;" class="s1" d="m109.9 663.6l57.5-33.2"/>
			<path id="&lt;Path&gt;" class="s1" d="m772 281.4l57.5-33.3"/>
			<path id="&lt;Path&gt;" class="s1" d="m54.2 455.9h66.5"/>
			<path id="&lt;Path&gt;" class="s1" d="m818.7 455.9h66.5"/>
			<path id="&lt;Path&gt;" class="s1" d="m109.9 248.1l57.5 33.3"/>
			<path id="&lt;Path&gt;" class="s1" d="m772 630.4l57.5 33.2"/>
			<path id="&lt;Path&gt;" class="s1" d="m262 96.1l33.2 57.5"/>
			<path id="&lt;Path&gt;" class="s1" d="m469.7 40.4v66.5"/>
			<path id="&lt;Path&gt;" class="s1" d="m453.1 838.2h132.9"/>
			<path id="&lt;Path&gt;" class="s0" d="m353.4 771.7v-18.8c0-22.7-11.5-44.2-30.8-56-81.2-49.7-135.4-138.9-135.4-241 0-156 126.5-282.5 282.5-282.5v123.5c0 11.7-11.9 19.8-22.7 15.4-9.1-3.8-18.7-6-27.2-6-27.5 0-49.8 22.3-49.8 49.9 0 27.5 22.3 49.8 49.8 49.8 8.5 0 18.1-2.1 27.2-5.9 10.8-4.5 22.7 3.7 22.7 15.4v80.8c0 11.7 11.9 19.9 22.7 15.4 9.1-3.8 18.7-5.9 27.2-5.9 27.5 0 49.8 22.3 49.8 49.8 0 27.6-22.3 49.9-49.8 49.9-8.5 0-18.1-2.2-27.2-6-10.8-4.4-22.7 3.7-22.7 15.4v156.8z"/>
			<path id="&lt;Path&gt;" class="s0" d="m469.7 771.7h116.3v-18.8c0-22.7 11.5-44.2 30.8-56 81.2-49.7 135.4-138.9 135.4-241 0-156-126.5-282.5-282.5-282.5"/>
		</g>
	</g>
</svg>