<svg version="1.2" xmlns="http://www.w3.org/2000/svg" viewBox="0 0 1000 1000" width="1000" height="1000">
	<title>Company_CoreValues-ai</title>
	<style>
		.s0 { fill: none;stroke: #36464c;stroke-linecap: round;stroke-linejoin: round;stroke-width: 12 } 
	</style>
	<g id="Layer 1">
		<g id="&lt;Group&gt;">
			<path id="&lt;Path&gt;" class="s0" d="m462.2 630.9c0 60.1-48.7 108.8-108.7 108.8-60.1 0-108.8-48.7-108.8-108.8 0-60.1 48.7-108.8 108.8-108.8 60 0 108.7 48.7 108.7 108.8z"/>
			<path id="&lt;Path&gt;" class="s0" d="m679.8 666.9c0 9-7.3 16.2-16.2 16.2h-41.5c-7.5 0-13.8 5.3-15.7 12.6-6.2 24.2-15.9 47.2-28.4 68.2-3.8 6.5-3.1 14.6 2.2 19.9l26.5 26.5c9.3 9.3 9.3 19.5 3 25.9l-51 50.9c-6.3 6.3-16.5 6.3-22.9 0l-29.3-29.4c-5.4-5.3-13.6-6.1-20-2.2-21.1 12.5-44 22.1-68.3 28.3-7.3 1.9-12.5 8.2-12.5 15.7v37.3c0 13.2-7.3 20.4-16.2 20.4h-72c-9 0-16.2-7.2-16.2-16.2v-41.4c0-7.6-5.3-13.9-12.6-15.8-24.3-6.2-47.2-15.8-68.2-28.3-6.5-3.9-14.6-3.2-20 2.2l-26.4 26.4c-9.3 9.3-19.6 9.3-25.9 3l-50.9-50.9c-6.4-6.4-6.4-16.6 0-22.9l29.3-29.4c5.4-5.3 6.1-13.5 2.3-20-12.5-21-22.1-44-28.4-68.2-1.8-7.3-8.1-12.6-15.6-12.6h-37.3c-13.2 0-20.4-7.2-20.4-16.2v-72c0-9 7.2-16.2 20.4-16.2h37.3c7.5 0 13.8-5.3 15.6-12.6 6.3-24.3 15.9-47.2 28.4-68.2 3.8-6.5 3.1-14.7-2.3-20l-29.3-29.4c-6.4-6.3-6.4-16.5 0-22.9l50.9-50.9c6.3-6.3 16.6-6.3 25.9 3l26.4 26.4c5.4 5.3 13.5 6.1 20 2.2 21-12.5 43.9-22.1 68.2-28.3 7.3-1.9 12.6-8.2 12.6-15.8v-41.4c0-9 7.2-16.2 16.2-16.2h72c8.9 0 16.2 7.2 16.2 20.4v37.3c0 7.5 5.2 13.8 12.5 15.7 24.3 6.2 47.2 15.8 68.3 28.3 6.4 3.9 14.6 3.1 20-2.2l29.3-29.4c6.4-6.3 16.6-6.3 22.9 0l51 50.9c6.3 6.4 6.3 16.6-3 25.9l-26.5 26.5c-5.3 5.3-6 13.4-2.2 19.9 12.5 21 22.2 44 28.4 68.2 1.9 7.3 8.2 12.6 15.7 12.6h41.5c8.9 0 16.2 7.2 16.2 16.2z"/>
			<path id="&lt;Path&gt;" class="s0" d="m749 572.2c0.6-0.4 1.3-0.7 2-1.1 6.1-3.7 13.9-2.9 18.9 2.1l27.7 27.7c6 6 15.7 6 21.7 0l48.1-48.1c5.9-5.9 5.9-15.6-2.9-24.4l-24.9-25c-5.1-5-5.7-12.7-2.1-18.8 11.8-19.9 20.9-41.5 26.8-64.5 1.7-6.9 7.7-11.8 14.8-11.8h39.2c8.4 0 15.3-6.9 15.3-15.3v-68c0-8.5-6.9-15.3-15.3-15.3h-39.2c-7.1 0-13.1-5-14.8-11.9-5.9-22.9-15-44.6-26.8-64.4-3.6-6.1-3-13.8 2.1-18.9l24.9-24.9c8.8-8.8 8.8-18.5 2.9-24.5l-48.1-48.1c-6-6-15.7-6-21.7 0l-27.7 27.7c-5 5.1-12.8 5.8-18.9 2.2-19.9-11.8-41.5-20.9-64.4-26.8-6.9-1.8-11.9-7.7-11.9-14.8v-35.2c0-12.5-6.8-19.3-15.3-19.3h-68c-8.5 0-15.3 6.8-15.3 15.3v39.1c0 7.1-5 13.1-11.9 14.9-22.9 5.9-44.5 15-64.4 26.8-6.1 3.6-13.8 2.9-18.9-2.1l-24.9-25c-8.8-8.8-18.5-8.8-24.5-2.8l-48.1 48.1c-5.9 6-5.9 15.7 0 21.6l27.8 27.8c5 5 5.7 12.8 2.1 18.9-0.4 0.6-0.7 1.3-1.1 2"/>
			<path id="&lt;Path&gt;" class="s0" d="m677.4 474.6c44.1-19.8 74.9-64.1 74.9-115.6 0-70.1-56.8-126.9-126.9-126.9-51.1 0-95 30.2-115.1 73.7"/>
		</g>
	</g>
</svg>