<svg version="1.2" xmlns="http://www.w3.org/2000/svg" viewBox="0 0 1000 1000" width="1000" height="1000">
	<title>Company_Links_InvRelations-ai</title>
	<style>
		.s0 { fill: none;stroke: #36464c;stroke-linecap: round;stroke-linejoin: round;stroke-width: 12 } 
	</style>
	<g id="Layer 1">
		<g id="&lt;Group&gt;">
			<path id="&lt;Path&gt;" class="s0" d="m170.3 551.7l215-214.9 99.2 99.2 132.3-132.3 66.2 66.1 82.7-82.7-66.2-66.1 231.5-33.1-33 231.5-66.2-66.1-148.8 148.8-66.2-66.1-132.3 132.3-99.2-99.2-181.9 181.9"/>
			<path id="&lt;Path&gt;" class="s0" d="m104.2 154.8v694.6h793.8"/>
			<path id="&lt;Path&gt;" class="s0" d="m798.7 485.6v297.7"/>
			<path id="&lt;Path&gt;" class="s0" d="m898 485.6v297.7"/>
			<path id="&lt;Path&gt;" class="s0" d="m699.5 568.3v215"/>
			<path id="&lt;Path&gt;" class="s0" d="m600.3 551.7v231.6"/>
			<path id="&lt;Path&gt;" class="s0" d="m501.1 634.4v148.9"/>
			<path id="&lt;Path&gt;" class="s0" d="m401.8 584.8v198.5"/>
			<path id="&lt;Path&gt;" class="s0" d="m302.6 651v132.3"/>
			<path id="&lt;Path&gt;" class="s0" d="m203.4 717.1v66.2"/>
			<path id="&lt;Path&gt;" class="s0" d="m38 254.1h66.2"/>
			<path id="&lt;Path&gt;" class="s0" d="m38 353.3h66.2"/>
			<path id="&lt;Path&gt;" class="s0" d="m38 452.5h66.2"/>
			<path id="&lt;Path&gt;" class="s0" d="m38 551.7h66.2"/>
			<path id="&lt;Path&gt;" class="s0" d="m38 651h66.2"/>
			<path id="&lt;Path&gt;" class="s0" d="m38 750.2h66.2"/>
			<path id="&lt;Path&gt;" class="s0" d="m302.6 187.9h-66.1c-18.3 0-33.1 14.8-33.1 33.1 0 18.3 14.8 33.1 33.1 33.1h33c18.3 0 33.1 14.8 33.1 33 0 18.3-14.8 33.1-33.1 33.1h-66.1"/>
			<path id="&lt;Path&gt;" class="s0" d="m253 154.8v33.1"/>
			<path id="&lt;Path&gt;" class="s0" d="m253 320.2v33.1"/>
		</g>
	</g>
</svg>