<svg version="1.2" xmlns="http://www.w3.org/2000/svg" viewBox="0 0 1000 1000" width="1000" height="1000">
	<title>Company_JoinOurTeam-ai</title>
	<style>
		.s0 { fill: none;stroke: #36464c;stroke-linecap: round;stroke-linejoin: round;stroke-width: 12 } 
	</style>
	<g id="Layer 1">
		<g id="&lt;Group&gt;">
			<path id="&lt;Path&gt;" class="s0" d="m289.7 827.2v-173.4c0-32.5 20.9-61.5 51.7-71.7l63.9-19.2 99.1 99.1 99.2-99.1 63.9 19.2c30.8 10.2 51.7 39.2 51.7 71.7v173.4"/>
			<path id="&lt;Path&gt;" class="s0" d="m636.6 695.1v132.1"/>
			<path id="&lt;Path&gt;" class="s0" d="m372.3 695.1v132.1"/>
			<path id="&lt;Path&gt;" class="s0" d="m388.8 414.2c0 63.9 51.8 115.7 115.6 115.7 63.9 0 115.7-51.8 115.7-115.7 0-63.8-51.8-115.6-115.7-115.6-63.8 0-115.6 51.8-115.6 115.6z"/>
			<path id="&lt;Path&gt;" class="s0" d="m867.9 529.9v132.1"/>
			<path id="&lt;Path&gt;" class="s0" d="m620.1 249c0 63.9 51.8 115.7 115.6 115.7 63.9 0 115.7-51.8 115.7-115.7 0-63.8-51.8-115.6-115.7-115.6-63.8 0-115.6 51.8-115.6 115.6z"/>
			<path id="&lt;Path&gt;" class="s0" d="m141 529.9v132.1"/>
			<path id="&lt;Path&gt;" class="s0" d="m157.5 249c0 63.9 51.8 115.7 115.7 115.7 63.8 0 115.6-51.8 115.6-115.7 0-63.8-51.8-115.6-115.6-115.6-63.9 0-115.7 51.8-115.7 115.6z"/>
			<path id="&lt;Path&gt;" class="s0" d="m389.4 402.8l-17.1-5.1-99.1 99.1-99.1-99.1-64 19.2c-30.8 10.2-51.7 39.2-51.7 71.7v173.4"/>
			<path id="&lt;Path&gt;" class="s0" d="m950.5 662v-173.4c0-32.5-20.9-61.5-51.7-71.7l-64-19.2-99.1 99.1-99.1-99.1-17.1 5.1"/>
		</g>
	</g>
</svg>