<svg version="1.2" xmlns="http://www.w3.org/2000/svg" viewBox="0 0 1000 1000" width="1000" height="1000">
	<title>Company_LeadershipTeam-ai</title>
	<style>
		.s0 { fill: none;stroke: #36464c;stroke-linecap: round;stroke-linejoin: round;stroke-width: 12 } 
		.s1 { fill: none;stroke: #36464c;stroke-linejoin: round;stroke-width: 12 } 
	</style>
	<g id="Layer 1">
		<g id="&lt;Group&gt;">
			<path id="&lt;Path&gt;" class="s0" d="m65.1 748.7v-153.5c0-28.3 22.9-51.2 51.2-51.2h34.1c28.3 0 51.2 22.9 51.2 51.2v34.1c0 9.4 7.6 17 17 17h85.3c18.8 0 34.1 15.3 34.1 34.2 0 18.8-15.3 34.1-34.1 34.1h-136.4"/>
			<path id="&lt;Path&gt;" class="s0" d="m917.9 748.7v-153.5c0-28.3-22.9-51.2-51.1-51.2h-34.1c-28.3 0-51.2 22.9-51.2 51.2v34.1c0 9.4-7.6 17-17.1 17h-85.2c-18.9 0-34.2 15.3-34.2 34.2 0 18.8 15.3 34.1 34.2 34.1h136.4"/>
			<path id="&lt;Path&gt;" class="s1" d="m201.6 441.7c0 37.6-30.6 68.2-68.3 68.2-37.6 0-68.2-30.6-68.2-68.2 0-37.7 30.6-68.3 68.2-68.3 37.7 0 68.3 30.6 68.3 68.3z"/>
			<path id="&lt;Path&gt;" class="s1" d="m559.8 680.5c0 37.6-30.6 68.2-68.3 68.2-37.6 0-68.2-30.6-68.2-68.2 0-37.7 30.6-68.3 68.2-68.3 37.7 0 68.3 30.6 68.3 68.3z"/>
			<path id="&lt;Path&gt;" class="s1" d="m917.9 441.7c0 37.6-30.5 68.2-68.2 68.2-37.7 0-68.2-30.6-68.2-68.2 0-37.7 30.5-68.3 68.2-68.3 37.7 0 68.2 30.6 68.2 68.3z"/>
			<path id="&lt;Path&gt;" class="s0" d="m679.2 851h78.6c11.7 0 19.9-11.4 16.2-22.4l-38-114"/>
			<path id="&lt;Path&gt;" class="s0" d="m247.1 714.6l-38 114c-3.7 11 4.5 22.4 16.1 22.4h78.7"/>
			<path id="&lt;Path&gt;" class="s1" d="m713.3 646.3l-30.3-90.6c-2.3-7-8.8-11.7-16.1-11.7h-350.7c-7.3 0-13.9 4.7-16.2 11.7l-30.2 90.6"/>
			<path id="&lt;Path&gt;" class="s0" d="m570.3 271.1c0 43.5-35.3 78.7-78.8 78.7-43.4 0-78.7-35.2-78.7-78.7 0-43.5 35.3-78.7 78.7-78.7 43.5 0 78.8 35.2 78.8 78.7z"/>
			<path id="&lt;Path&gt;" class="s0" d="m696.2 293.7c0 5.6-4.5 10.1-10.1 10.1h-26c-4.8 0-8.7 3.3-9.9 7.9-3.9 15.3-10 29.6-17.8 42.8-2.4 4.1-2 9.2 1.4 12.5l16.6 16.6c5.8 5.9 5.8 12.3 1.8 16.3l-31.9 31.9c-4 4-10.4 4-14.4 0l-18.4-18.4c-3.3-3.4-8.5-3.9-12.6-1.4-13.1 7.8-27.5 13.9-42.8 17.8-4.5 1.1-7.8 5-7.8 9.8v23.4c0 8.2-4.6 12.8-10.2 12.8h-45.2c-5.6 0-10.1-4.6-10.1-10.2v-26c0-4.7-3.3-8.7-7.9-9.8-15.2-3.9-29.6-10-42.8-17.8-4.1-2.4-9.2-2-12.5 1.3l-16.6 16.6c-5.8 5.9-12.3 5.9-16.2 1.9l-32-31.9c-3.9-4-3.9-10.4 0-14.4l18.4-18.4c3.4-3.4 3.9-8.5 1.5-12.6-7.9-13.2-13.9-27.5-17.8-42.8-1.2-4.6-5.1-7.9-9.8-7.9h-23.4c-8.3 0-12.8-4.5-12.8-10.1v-45.2c0-5.6 4.5-10.2 12.8-10.2h23.4c4.7 0 8.6-3.2 9.8-7.8 3.9-15.3 9.9-29.6 17.8-42.8 2.4-4.1 1.9-9.2-1.5-12.6l-18.4-18.4c-3.9-4-3.9-10.4 0-14.4l32-31.9c3.9-4 10.4-4 16.2 1.9l16.6 16.5c3.3 3.4 8.4 3.8 12.5 1.4 13.2-7.8 27.6-13.9 42.8-17.8 4.6-1.1 7.9-5.1 7.9-9.8v-26c0-5.6 4.5-10.2 10.1-10.2h45.2c5.6 0 10.2 4.6 10.2 12.8v23.4c0 4.7 3.3 8.7 7.8 9.8 15.3 3.9 29.7 10 42.8 17.8 4.1 2.4 9.3 2 12.6-1.4l18.4-18.4c4-4 10.4-4 14.4 0l31.9 31.9c4 4 4 10.4-1.8 16.3l-16.6 16.6c-3.4 3.3-3.8 8.4-1.4 12.5 7.8 13.2 13.9 27.5 17.8 42.8 1.2 4.6 5.1 7.8 9.9 7.8h26c5.6 0 10.1 4.6 10.1 10.2z"/>
			<path id="&lt;Path&gt;" class="s0" d="m372.1 919.3v-68.3c0-37.7 30.6-68.2 68.3-68.2h102.3c37.7 0 68.2 30.5 68.2 68.2v68.3"/>
		</g>
	</g>
</svg>