<svg id="Group_505" data-name="Group 505" xmlns="http://www.w3.org/2000/svg" xmlns:xlink="http://www.w3.org/1999/xlink" width="129.334" height="119.84" viewBox="0 0 129.334 119.84">
  <defs>
    <clipPath id="clip-path">
      <rect id="Rectangle_429" data-name="Rectangle 429" width="129.334" height="119.84" fill="none" stroke="#707070" stroke-width="3"/>
    </clipPath>
  </defs>
  <g id="Group_502" data-name="Group 502">
    <g id="Group_501" data-name="Group 501" clip-path="url(#clip-path)">
      <line id="Line_154" data-name="Line 154" x2="113.867" transform="translate(7.734 118.082)" fill="none" stroke="#1a1a1a" stroke-linecap="round" stroke-linejoin="round" stroke-width="3"/>
      <path id="Path_1294" data-name="Path 1294" d="M3.454,40.367,66.364,3.454l62.909,36.913" transform="translate(-1.697 -1.697)" fill="none" stroke="#1a1a1a" stroke-linecap="round" stroke-linejoin="round" stroke-width="3"/>
    </g>
  </g>
  <path id="Path_1295" data-name="Path 1295" d="M59.94,203.932l-4.93-13.447H43.893" transform="translate(-21.56 -93.566)" fill="none" stroke="#1a1a1a" stroke-linecap="round" stroke-linejoin="round" stroke-width="3"/>
  <path id="Path_1296" data-name="Path 1296" d="M30.156,122.6v34.54l-4.93,13.448" transform="translate(-12.391 -60.22)" fill="none" stroke="#1a1a1a" stroke-linecap="round" stroke-linejoin="round" stroke-width="3"/>
  <path id="Path_1297" data-name="Path 1297" d="M70.672,85.3,65.741,98.75V132" transform="translate(-32.292 -41.901)" fill="none" stroke="#1a1a1a" stroke-linecap="round" stroke-linejoin="round" stroke-width="3"/>
  <path id="Path_1298" data-name="Path 1298" d="M39.985,98.751H30.156L25.226,85.3" transform="translate(-12.391 -41.901)" fill="none" stroke="#1a1a1a" stroke-linecap="round" stroke-linejoin="round" stroke-width="3"/>
  <path id="Path_1299" data-name="Path 1299" d="M197.43,190.485h11.117l4.93,13.447" transform="translate(-96.977 -93.566)" fill="none" stroke="#1a1a1a" stroke-linecap="round" stroke-linejoin="round" stroke-width="3"/>
  <path id="Path_1300" data-name="Path 1300" d="M183.693,122.6v34.54l-4.93,13.448" transform="translate(-87.808 -60.22)" fill="none" stroke="#1a1a1a" stroke-linecap="round" stroke-linejoin="round" stroke-width="3"/>
  <path id="Path_1301" data-name="Path 1301" d="M224.209,85.3l-4.93,13.447V132" transform="translate(-107.709 -41.901)" fill="none" stroke="#1a1a1a" stroke-linecap="round" stroke-linejoin="round" stroke-width="3"/>
  <path id="Path_1302" data-name="Path 1302" d="M193.521,98.751h-9.829L178.762,85.3" transform="translate(-87.808 -41.901)" fill="none" stroke="#1a1a1a" stroke-linecap="round" stroke-linejoin="round" stroke-width="3"/>
  <line id="Line_155" data-name="Line 155" x2="27.97" transform="translate(50.735 26.334)" fill="none" stroke="#1a1a1a" stroke-linecap="round" stroke-linejoin="round" stroke-width="3"/>
  <line id="Line_156" data-name="Line 156" x2="103.558" transform="translate(12.941 43.403)" fill="none" stroke="#1a1a1a" stroke-linecap="round" stroke-linejoin="round" stroke-width="3"/>
  <line id="Line_157" data-name="Line 157" y2="7.402" transform="translate(65.258 52.488)" fill="none" stroke="#1a1a1a" stroke-linecap="round" stroke-linejoin="round" stroke-width="3"/>
  <g id="Group_504" data-name="Group 504">
    <g id="Group_503" data-name="Group 503" clip-path="url(#clip-path)">
      <path id="Path_1303" data-name="Path 1303" d="M102.049,152.217a14.437,14.437,0,0,0,12.442,7.127c3.986,0,13.046-1.57,13.046-10.751s-11.687-10.026-11.687-10.026l-1.057-.124s-11.973-.846-11.973-10.026,9.06-10.751,13.046-10.751a11.387,11.387,0,0,1,10.384,6.3" transform="translate(-50.126 -57.797)" fill="none" stroke="#1a1a1a" stroke-linecap="round" stroke-linejoin="round" stroke-width="3"/>
      <line id="Line_158" data-name="Line 158" y1="7.89" transform="translate(65.57 101.526)" fill="none" stroke="#1a1a1a" stroke-linecap="round" stroke-linejoin="round" stroke-width="3"/>
    </g>
  </g>
</svg>
