<svg id="Group_510" data-name="Group 510" xmlns="http://www.w3.org/2000/svg" xmlns:xlink="http://www.w3.org/1999/xlink" width="160.765" height="129.416" viewBox="0 0 160.765 129.416">
  <defs>
    <clipPath id="clip-path">
      <rect id="Rectangle_432" data-name="Rectangle 432" width="160.765" height="129.416" fill="none" stroke="#707070" stroke-width="3"/>
    </clipPath>
  </defs>
  <line id="Line_159" data-name="Line 159" y2="12.896" transform="translate(20.369 77.041)" fill="none" stroke="#1a1a1a" stroke-linecap="round" stroke-linejoin="round" stroke-width="3"/>
  <g id="Group_509" data-name="Group 509">
    <g id="Group_508" data-name="Group 508" clip-path="url(#clip-path)">
      <path id="Path_1308" data-name="Path 1308" d="M186.6,95.893V29.071A13.731,13.731,0,0,0,172.866,15.34H113.829" transform="translate(-44.201 -5.957)" fill="none" stroke="#1a1a1a" stroke-linecap="round" stroke-linejoin="round" stroke-width="3"/>
      <line id="Line_160" data-name="Line 160" x2="27.606" transform="translate(67.58 115.956)" fill="none" stroke="#1a1a1a" stroke-linecap="round" stroke-linejoin="round" stroke-width="3"/>
      <line id="Line_161" data-name="Line 161" y2="4.964" transform="translate(34.604 13.023)" fill="none" stroke="#1a1a1a" stroke-linecap="round" stroke-linejoin="round" stroke-width="3"/>
      <path id="Path_1309" data-name="Path 1309" d="M38.354,58.249a12.066,12.066,0,0,0,10.4,5.956c3.331,0,10.9-1.313,10.9-8.985s-9.766-8.378-9.766-8.378l-.883-.1S39,46.032,39,38.36s7.571-8.984,10.9-8.984a9.516,9.516,0,0,1,8.677,5.268" transform="translate(-14.893 -11.407)" fill="none" stroke="#1a1a1a" stroke-linecap="round" stroke-linejoin="round" stroke-width="3"/>
      <line id="Line_162" data-name="Line 162" y1="4.964" transform="translate(34.865 52.78)" fill="none" stroke="#1a1a1a" stroke-linecap="round" stroke-linejoin="round" stroke-width="3"/>
      <circle id="Ellipse_38" data-name="Ellipse 38" cx="31.973" cy="31.973" r="31.973" transform="translate(2.113 2.113)" fill="none" stroke="#1a1a1a" stroke-linecap="round" stroke-linejoin="round" stroke-width="3"/>
      <line id="Line_163" data-name="Line 163" y1="45.255" transform="translate(125.589 43.613)" fill="none" stroke="#1a1a1a" stroke-linecap="round" stroke-linejoin="round" stroke-width="3"/>
      <line id="Line_164" data-name="Line 164" y1="22.061" transform="translate(111.823 66.807)" fill="none" stroke="#1a1a1a" stroke-linecap="round" stroke-linejoin="round" stroke-width="3"/>
      <line id="Line_165" data-name="Line 165" y1="35.978" transform="translate(98.058 52.891)" fill="none" stroke="#1a1a1a" stroke-linecap="round" stroke-linejoin="round" stroke-width="3"/>
      <line id="Line_166" data-name="Line 166" y1="22.061" transform="translate(84.292 66.807)" fill="none" stroke="#1a1a1a" stroke-linecap="round" stroke-linejoin="round" stroke-width="3"/>
      <line id="Line_167" data-name="Line 167" y1="8.725" transform="translate(70.526 80.144)" fill="none" stroke="#1a1a1a" stroke-linecap="round" stroke-linejoin="round" stroke-width="3"/>
      <line id="Line_168" data-name="Line 168" y1="9.884" transform="translate(56.76 78.984)" fill="none" stroke="#1a1a1a" stroke-linecap="round" stroke-linejoin="round" stroke-width="3"/>
      <path id="Path_1310" data-name="Path 1310" d="M145.021,193.413H22.969A16.243,16.243,0,0,1,6.726,177.17a6.919,6.919,0,0,1,6.918-6.919h140.7a6.919,6.919,0,0,1,6.919,6.919A16.243,16.243,0,0,1,145.021,193.413Z" transform="translate(-2.612 -66.11)" fill="none" stroke="#1a1a1a" stroke-linecap="round" stroke-linejoin="round" stroke-width="3"/>
    </g>
  </g>
</svg>
