<svg xmlns="http://www.w3.org/2000/svg" width="144.75" height="144.75" viewBox="0 0 144.75 144.75">
  <g id="fdic-member-logo-vector" opacity="0.607">
    <path id="Path_1365" data-name="Path 1365" d="M0,0H144.75V144.75H0Z" fill="rgba(255,255,255,0)" fill-rule="evenodd"/>
    <path id="Path_1366" data-name="Path 1366" d="M36.257,70.328h19.2c17.315,0,28.359,10.647,28.359,27.265,0,18.409-12.238,27.364-31.742,27.364H36.257Zm18.015,12.53c-.7,0-1.592.1-2.786.1v29.454c9.751,0,17.314-3.881,17.314-15.125,0-9.652-6.17-14.428-14.528-14.428Zm89.055,3.374V71.8a29.861,29.861,0,0,0-12.24-2.488c-16.021,0-28.857,12.14-28.857,28.161s12.637,27.763,28.559,27.763c5.672,0,9.551-1.2,12.537-3.484V107.328c-4.478,2.785-7.562,3.979-11.743,3.979-8.059,0-14.328-5.869-14.328-14.528a14.216,14.216,0,0,1,14.328-14.628c4.379,0,7.563,1.494,11.743,4.081ZM2.834,59.375v2.587H13.482V59.375c-3.085-.1-3.583-.5-3.583-2.587V43.752l6.368,18.21h2.687l6.866-18.21V56.489c0,2.686,0,2.686-3.781,2.885v2.587h12.34V59.374c-3.583,0-3.682-.4-3.682-2.288V44.35c0-2.09.3-2.787,3.682-2.787V38.877H23.831L18.457,53.5,13.482,38.877H2.834v2.686c2.986,0,3.483,0,3.483,2.587V56.39c0,2.388,0,2.985-3.483,2.985Zm51.63,0v2.587h9.851V59.375c-2.388-.1-2.388-.4-2.388-3.682V52.907c0-2.687,1.194-4.876,3.681-4.876,1.99,0,2.587,1.294,2.587,3.085v5.871c0,1.99-.1,2.388-2.487,2.388v2.587h8.855V59.375c-2.089,0-2.288-.2-2.288-2.189v-4.08c0-2.786,1.294-5.174,3.881-5.174,1.99,0,2.388,1.194,2.388,3.582v5.971c0,1.691,0,1.891-2.388,1.891v2.587h9.752V59.376c-2.987,0-3.184.1-3.184-1.592V51.117c0-3.782-.9-5.971-4.777-5.971-2.288,0-3.781.9-5.672,2.886A5.1,5.1,0,0,0,67.5,45.047c-2.488,0-4.18,1.293-5.572,3.184V45.544H54.464v2.389c2.985,0,3.284.1,3.284,2.488v5.472c0,3.482,0,3.482-3.284,3.482ZM3.312,70.328v54.629H18.337l.1-20.9H33.065V91.425H18.537l-.1-8.459H34.159V70.328ZM87.1,38.883h6.965v8.459c1.891-1.592,3.084-2.189,4.975-2.189,3.981,0,6.668,3.582,6.668,8.558,0,5.373-2.687,8.856-7.265,8.856a6.273,6.273,0,0,1-5.075-2.289l-1.393,1.891H89.887V44.257c0-2.687-.2-2.985-2.787-2.985V38.883ZM101.036,53.7c0-3.781-1.393-5.672-3.384-5.672-2.587,0-3.681,2.09-3.681,5.971,0,3.383,1.294,5.672,3.582,5.672C99.442,59.672,101.036,57.881,101.036,53.7ZM126.9,59.375v2.587h10.747V59.375c-2.985,0-3.282.1-3.282-2.288V53.5c0-3.284,1.094-6.269,4.079-6.269a2.664,2.664,0,0,1,1,.2,2.553,2.553,0,0,0-1.693,2.289,2.171,2.171,0,0,0,2.29,2.189,2.7,2.7,0,0,0,2.685-2.986,3.659,3.659,0,0,0-3.781-3.781c-1.791,0-3.084.9-4.676,2.687V45.543H126.9v2.389c2.587,0,3.284,0,3.284,2.189v6.766C130.184,59.176,130.184,59.375,126.9,59.375Zm-13.532-5.167c0,3.184,1.493,5.373,4.18,5.373,2.388,0,3.482-1.393,3.881-3.582h2.985a6.818,6.818,0,0,1-7.265,6.468c-4.775,0-8.359-2.886-8.359-8.458,0-5.075,3.184-8.856,7.962-8.856,4.678,0,7.662,3.582,7.662,9.055H113.369Zm3.384-6.481c-1.99,0-3.184,1.393-3.184,3.881h6.269C119.837,49.021,118.842,47.727,116.752,47.727Zm-75.82,6.481c0,3.184,1.592,5.373,4.279,5.373,2.388,0,3.482-1.393,3.88-3.582h2.886c-.5,4.179-3.184,6.468-7.165,6.468-4.776,0-8.458-2.886-8.458-8.458,0-5.075,3.284-8.856,8.06-8.856,4.677,0,7.563,3.582,7.563,9.055Zm3.482-6.481c-1.99,0-3.184,1.393-3.184,3.881H47.4C47.4,48.921,46.4,47.727,44.415,47.727Zm41,77.231H100.44V70.328H85.414v54.629Z" transform="translate(-0.706 -9.682)" fill-rule="evenodd"/>
  </g>
</svg>
