<svg xmlns="http://www.w3.org/2000/svg" xmlns:xlink="http://www.w3.org/1999/xlink" width="82.25" height="58.533" viewBox="0 0 82.25 58.533">
  <defs>
    <clipPath id="clip-path">
      <rect id="Rectangle_295" data-name="Rectangle 295" width="82.25" height="58.533" fill="#555"/>
    </clipPath>
  </defs>
  <g id="Group_261" data-name="Group 261" clip-path="url(#clip-path)">
    <path id="Path_1165" data-name="Path 1165" d="M25.958,54.5a1.321,1.321,0,1,1,0,2.641H8.2a8.215,8.215,0,0,1-8.2-8.2V8.2A8.169,8.169,0,0,1,2.406,2.411c.137-.14.283-.275.43-.4l.077-.066A8.166,8.166,0,0,1,8.2,0H74.053a8.148,8.148,0,0,1,5.253,1.92l.124.106c.14.121.277.251.409.38A8.175,8.175,0,0,1,82.25,8.2V48.944a8.233,8.233,0,0,1-8.2,8.2H56.293a1.321,1.321,0,1,1,0-2.641H74.053a5.582,5.582,0,0,0,5.557-5.557V8.2a5.553,5.553,0,0,0-1.4-3.684L48.578,16.222a20.085,20.085,0,0,1-7.453,1.524,20.013,20.013,0,0,1-7.382-1.5L4.049,4.514A5.515,5.515,0,0,0,2.644,8.2V48.941A5.578,5.578,0,0,0,8.2,54.5Zm15.168,1.395a1.321,1.321,0,0,1,0,2.641A17.334,17.334,0,1,1,54.6,52.028a3.087,3.087,0,0,1-4.913-.145l-.066-.1a3.081,3.081,0,0,1-.5-1.683l0-1.844c-.156.18-.32.354-.489.523l-.079.074a10.623,10.623,0,1,1,.072-15.094l.008.008c.164.164.322.333.475.51a1.315,1.315,0,0,1,2.625.108L51.749,50.1a.484.484,0,0,0,.053.227l.021.029a.459.459,0,0,0,.219.161.466.466,0,0,0,.275.011.458.458,0,0,0,.222-.15,14.608,14.608,0,1,0-11.42,5.51ZM46.77,35.629a7.979,7.979,0,1,0-.063,11.352l.063-.066a7.984,7.984,0,0,0,0-11.286ZM75.369,2.8a5.519,5.519,0,0,0-1.313-.158H8.2A5.536,5.536,0,0,0,6.889,2.8l27.819,11a17.474,17.474,0,0,0,6.421,1.31,17.494,17.494,0,0,0,6.484-1.336L75.371,2.8Z" fill="#555"/>
  </g>
</svg>
