<svg xmlns="http://www.w3.org/2000/svg" xmlns:xlink="http://www.w3.org/1999/xlink" width="111.521" height="75.331" viewBox="0 0 111.521 75.331">
  <defs>
    <clipPath id="clip-path">
      <rect id="Rectangle_343" data-name="Rectangle 343" width="111.521" height="75.331" fill="#0f76bf"/>
    </clipPath>
  </defs>
  <g id="Group_379" data-name="Group 379" opacity="0.899" style="mix-blend-mode: luminosity;isolation: isolate">
    <g id="Group_378" data-name="Group 378" clip-path="url(#clip-path)">
      <path id="Path_1187" data-name="Path 1187" d="M55.74,0A18.116,18.116,0,0,0,37.59,18.069a17.8,17.8,0,0,0,4.154,11.414A26.824,26.824,0,0,0,34.888,34.2a19.965,19.965,0,0,0-3.671-2.46A12.9,12.9,0,0,0,33.96,23.8a13.27,13.27,0,0,0-26.539,0A12.964,12.964,0,0,0,10.2,31.783,18.356,18.356,0,0,0,0,48.723v7.784a1.453,1.453,0,0,0,.807,1.372c8.612,5.981,17.453,8.13,26.257,6.171v.323c.027.674.376.873.806,1.21,18.553,13.014,37.51,12.968,55.861.04.7-.52.628-.777.726-1.573,8.713,1.911,17.56-.177,26.177-6.171.709-.535.892-.779.887-1.573V48.723a18.361,18.361,0,0,0-10.164-16.98A12.9,12.9,0,0,0,104.1,23.8a13.25,13.25,0,0,0-26.5,0,12.9,12.9,0,0,0,2.743,7.946,20.273,20.273,0,0,0-3.711,2.46,26.635,26.635,0,0,0-6.816-4.679A17.8,17.8,0,0,0,73.971,18.07,18.155,18.155,0,0,0,55.74,0Zm0,2.581A15.468,15.468,0,1,1,40.171,18.07,15.524,15.524,0,0,1,55.74,2.581ZM20.691,13.229A10.548,10.548,0,1,1,13.27,31.38a1.158,1.158,0,0,0-.121-.121A10.452,10.452,0,0,1,10,23.8,10.582,10.582,0,0,1,20.69,13.23Zm70.139,0A10.548,10.548,0,1,1,80.182,23.8,10.582,10.582,0,0,1,90.83,13.229ZM43.64,31.461a18.154,18.154,0,0,0,24.241,0c7.984,3.5,14,10.635,14,21.781V63.728c-17.463,12.145-34.571,12.217-52.232-.04V53.242c0-11.157,6-18.254,14-21.781ZM29.322,33.72a17.393,17.393,0,0,1,3.791,2.38,25.76,25.76,0,0,0-6.05,17.142v8.147C18.891,63.4,10.848,61.6,2.58,55.944v-7.22c0-7.678,4.022-12.484,9.479-14.964a13.348,13.348,0,0,0,17.263-.04Zm52.878,0a13.284,13.284,0,0,0,17.263,0c5.433,2.456,9.478,7.305,9.478,15v7.22c-8.289,5.7-16.374,7.408-24.482,5.445V53.242a25.775,25.775,0,0,0-6.05-17.183,18.133,18.133,0,0,1,3.791-2.34Z" fill="#0f76bf" fill-rule="evenodd"/>
    </g>
  </g>
</svg>
