<svg id="Component_2_6" data-name="Component 2 – 6" xmlns="http://www.w3.org/2000/svg" xmlns:xlink="http://www.w3.org/1999/xlink" width="20" height="20" viewBox="0 0 20 20">
  <defs>
    <clipPath id="clip-path">
      <rect id="Rectangle_58" data-name="Rectangle 58" width="11.987" height="12.537" fill="#4787b4"/>
    </clipPath>
  </defs>
  <g id="Group_12" data-name="Group 12" transform="translate(4.199 3.491)">
    <g id="Group_11" data-name="Group 11" clip-path="url(#clip-path)">
      <path id="Path_5" data-name="Path 5" d="M9.66,5.6a.4.4,0,0,1-.093-.053Q7.358,3.344,5.15,1.136A.713.713,0,0,1,4.9.668a.621.621,0,0,1,.335-.6.589.589,0,0,1,.7.107q.525.512,1.042,1.033L11.9,6.153c.116.116.116.115,0,.228L6.634,11.645c-.221.221-.44.444-.663.663a.959.959,0,0,1-.2.15.554.554,0,0,1-.637-.048.6.6,0,0,1-.248-.6.605.605,0,0,1,.19-.359q.954-.952,1.906-1.905Q8.011,8.522,9.037,7.5c.184-.183.37-.365.555-.548.013-.013.024-.027.045-.051C9.6,6.9,9.577,6.9,9.554,6.9H.68a.652.652,0,0,1-.57-.281.619.619,0,0,1,.43-.961,1.139,1.139,0,0,1,.2-.018H9.631L9.66,5.6" transform="translate(0 0)" fill="#4787b4"/>
    </g>
  </g>
  <g id="Ellipse_3" data-name="Ellipse 3" fill="none" stroke="#4c8ab6" stroke-width="0.5">
    <circle cx="10" cy="10" r="10" stroke="none"/>
    <circle cx="10" cy="10" r="9.75" fill="none"/>
  </g>
</svg>
