<svg xmlns="http://www.w3.org/2000/svg" xmlns:xlink="http://www.w3.org/1999/xlink" width="119.62" height="83.109" viewBox="0 0 119.62 83.109">
  <defs>
    <clipPath id="clip-path">
      <rect id="Rectangle_342" data-name="Rectangle 342" width="119.62" height="83.109" fill="#0f76bf"/>
    </clipPath>
  </defs>
  <g id="Group_374" data-name="Group 374" clip-path="url(#clip-path)">
    <path id="Path_1186" data-name="Path 1186" d="M43.634,24.923a1.777,1.777,0,0,1,.227.061c.332-.419.664-.839,1-1.241,3.015-3.653,6.117-6.72,7.979-7.288,8.092-2.473,13.772-.306,19.322,1.818,4.4,1.678,8.7,3.33,14.017,2.281l1.757-.472a3.206,3.206,0,0,1-.14-1.975,3.278,3.278,0,0,1,1.451-1.975L114.682.481A3.2,3.2,0,0,1,116.317,0a3.244,3.244,0,0,1,1.643.419c.035.017.061.035.1.053A3.216,3.216,0,0,1,119.174,1.6a3.262,3.262,0,0,1,.446,1.643V37.3A8.683,8.683,0,0,1,115.4,44.84l-6.947,4.273a3.276,3.276,0,0,1-1.206.454,3.338,3.338,0,0,1-2.447-.621,3.416,3.416,0,0,1-.848-.979l-.629-1.1c-1.092,1.04-2.657,2.526-4.2,3.967-1.485,1.389-2.927,2.727-3.88,3.592l.332.262a5.992,5.992,0,0,1,2.447,5.619,5.6,5.6,0,0,1-1.058,2.561,5.737,5.737,0,0,1-2.272,1.818,7.941,7.941,0,0,1-5.68.114,5.329,5.329,0,0,1-.1,1.119,5.8,5.8,0,0,1-1.276,2.622,7.506,7.506,0,0,1-6.808,2.578,6.181,6.181,0,0,1-.14,1.258,7.212,7.212,0,0,1-4.772,5.244,6.62,6.62,0,0,1-4.23-.044c0,.131-.009.262-.018.393a4.731,4.731,0,0,1-1.215,2.762,5.661,5.661,0,0,1-2.447,1.582,5.966,5.966,0,0,1-4.186-.114c-.787-.315-2.709-1.241-4.728-2.211-1.809-.874-3.688-1.774-4.868-2.29-.3.428-.629.874-.952,1.3a20.189,20.189,0,0,1-2.989,3.408,5.508,5.508,0,0,1-3.67.62,6.283,6.283,0,0,1-2.98-1.372,5.732,5.732,0,0,1-1.905-3.033c-.044-.175-.079-.358-.114-.551a6.118,6.118,0,0,1-4.4.437,6.973,6.973,0,0,1-2.8-1.451,5.757,5.757,0,0,1-1.792-2.805,5.494,5.494,0,0,1-.183-1.389,6.606,6.606,0,0,1-1.494.14,7.775,7.775,0,0,1-3.8-1.04c-.122-.079-.253-.166-.384-.262a5.266,5.266,0,0,1-2.2-4.4,8,8,0,0,1,.384-2.377,5.313,5.313,0,0,1-2.91-1.232A6.05,6.05,0,0,1,20.2,61.033a5.165,5.165,0,0,1-.28-1.966,8.262,8.262,0,0,1,1.556-3.539,1.44,1.44,0,0,1-.262-.253c-.306-.411-.865-1.188-1.485-2.071-1.066-1.5-2.342-3.312-3.006-4.011l-.026-.026L15.8,48.16l-.131.227a3.3,3.3,0,0,1-.848.979.816.816,0,0,1-.114.07,3.089,3.089,0,0,1-1.049.48l-.07.018a3.173,3.173,0,0,1-1.215.053,3.279,3.279,0,0,1-1.206-.454L4.221,45.259A8.683,8.683,0,0,1,0,37.718V3.662A3.26,3.26,0,0,1,.446,2.019,3.291,3.291,0,0,1,3.3.42,3.3,3.3,0,0,1,4.938.9L30.377,16.552a3.247,3.247,0,0,1,1.451,1.975,3.175,3.175,0,0,1-.044,1.713l.3.2a21.437,21.437,0,0,0,4.457,2.587c.411.1,1.241.332,2.211.6,1.861.524,4.265,1.2,4.885,1.294Zm45.679-2.377-2.429.655v-.009l-.087.018c-6.135,1.241-10.828-.551-15.607-2.377-5.13-1.957-10.373-3.959-17.556-1.774-1.3.4-3.95,3.12-6.659,6.414a65.292,65.292,0,0,0-7.69,11.256c-.009.035-.026.061-.035.1a.523.523,0,0,0-.044.341.537.537,0,0,0,.183.271c3.242,2.534,5.453-.018,7.926-2.875,2.412-2.8,5.025-5.812,9.08-6.178a1.369,1.369,0,0,1,1.477,1.241,1.578,1.578,0,0,1-.009.35c.822.428,2.045,1.066,3.277,1.7,1.625.839,3.26,1.678,4.134,2.176l.018.009c9.98,5.392,19.024,12.182,27.747,18.885.926-.822,2.552-2.333,4.221-3.889,1.765-1.66,3.592-3.391,4.658-4.422l-12.6-21.882Zm17.706,24.233,6.947-4.273a6.071,6.071,0,0,0,2.167-2.2,6.16,6.16,0,0,0,.752-3.006V3.241a.579.579,0,0,0-.061-.262.666.666,0,0,0-.157-.157l-.044-.018a.5.5,0,0,0-.254-.079.631.631,0,0,0-.253.087L90.676,18.464a.5.5,0,0,0-.227.3.49.49,0,0,0,.053.384l15.818,27.467a.54.54,0,0,0,.131.149.457.457,0,0,0,.175.079.6.6,0,0,0,.21.018.417.417,0,0,0,.183-.079ZM26.89,61.26a.47.47,0,0,1,.061-.07c.358-.384.743-.848,1.119-1.328a14.7,14.7,0,0,0,1.258-1.888h.009a.429.429,0,0,1,.026-.061l.009-.018a1.811,1.811,0,0,0-.018-2.158,2.9,2.9,0,0,0-.909-1.014,2.339,2.339,0,0,0-1.171-.411,2.064,2.064,0,0,0-1.153.28,1.214,1.214,0,0,1-.245.1,7.238,7.238,0,0,0-1.9,2,6.9,6.9,0,0,0-1.337,2.508,2.6,2.6,0,0,0,.14.952,3.282,3.282,0,0,0,1,1.433,2.55,2.55,0,0,0,1.468.612,1.932,1.932,0,0,0,.787-.114,6.9,6.9,0,0,0,.577-.542c.087-.1.183-.192.28-.289Zm2.089,1.757c-.157.227-.315.463-.463.7A6.98,6.98,0,0,0,27.3,67.281a2.621,2.621,0,0,0,1.084,2.22c.061.044.131.087.219.14a4.838,4.838,0,0,0,2.386.638A2.941,2.941,0,0,0,32.8,69.8l.018-.018a6.838,6.838,0,0,0,.83-.952,1.184,1.184,0,0,1,.183-.227c1.014-1.337,2.482-3.469,3.644-5.165.752-1.092,1.381-2.01,1.722-2.464a4.649,4.649,0,0,0,.9-1.678,3.816,3.816,0,0,0-.315-2.22,2.8,2.8,0,0,0-.69-.909,4.563,4.563,0,0,0-1.285-.848,3.054,3.054,0,0,0-2.779.35,9.616,9.616,0,0,0-3.286,3.592l-.018.035a17.794,17.794,0,0,1-1.494,2.237c-.411.533-.839,1.049-1.25,1.485Zm2.893-8.363a9.544,9.544,0,0,1,1.783-1.346,5.644,5.644,0,0,1,5.244-.5,7.755,7.755,0,0,1,2.054,1.355,5.4,5.4,0,0,1,1.372,1.914,7.05,7.05,0,0,1,.559,2.788,6.538,6.538,0,0,1,2.657.393,7.746,7.746,0,0,1,2.482,1.451A6.752,6.752,0,0,1,49.786,63.1a5.826,5.826,0,0,1,.131,4.291c.245-.009.489-.009.725,0a5.567,5.567,0,0,1,3.225,1.25A6,6,0,0,1,55.72,71.3a5.81,5.81,0,0,1,.009,3.976.3.3,0,0,1-.035.079c1.171.533,2.91,1.363,4.579,2.167,1.914.926,3.749,1.809,4.571,2.141a3.308,3.308,0,0,0,2.3.061,2.915,2.915,0,0,0,1.267-.813,2.066,2.066,0,0,0,.542-1.188,2.924,2.924,0,0,0-.48-1.73c-.822-.454-1.739-.961-2.665-1.477-1.792-1-3.609-2.01-4.868-2.648a1.366,1.366,0,1,1,1.232-2.438c1.258.638,3.129,1.678,4.964,2.7,1.861,1.04,3.688,2.054,4.789,2.6a4.179,4.179,0,0,0,3.163.3,4.376,4.376,0,0,0,1.905-1.276,4.271,4.271,0,0,0,1.023-1.94,2.824,2.824,0,0,0-.192-1.861c-1.372-.778-5.173-2.875-8.363-4.64-2.15-1.188-4.029-2.22-4.667-2.578a1.375,1.375,0,0,1-.524-1.861,1.359,1.359,0,0,1,1.861-.525c.769.428,2.569,1.424,4.64,2.569,3.277,1.809,7.218,3.985,8.643,4.8.044.026.079.044.122.07v-.008a4.716,4.716,0,0,0,6-.97,3.187,3.187,0,0,0,.69-1.4,2.686,2.686,0,0,0-.8-2.351,1.59,1.59,0,0,1-.114-.122c-.061-.061-.122-.122-.192-.183a.972.972,0,0,1-.1-.1v.009c-.21-.236-3.094-2.019-6.3-3.959-3.854-2.333-8.084-4.815-8.879-5.182a1.365,1.365,0,0,1,1.136-2.482c.909.419,5.261,2.962,9.158,5.313,3.076,1.87,5.925,3.662,6.729,4.308l.07.053.087.087c.061.053.122.114.183.175,2.779,1.7,4.946,1.853,6.353,1.223a3.057,3.057,0,0,0,1.2-.952,2.889,2.889,0,0,0,.542-1.311A3.331,3.331,0,0,0,93.9,56.848l-.551-.428C84.1,49.315,74.553,41.965,64,36.258l-.079-.035c-.8-.463-2.421-1.294-4.029-2.124-2.124-1.092-4.23-2.176-4.824-2.622-2.2.848-4,2.919-5.68,4.868-3.373,3.9-6.388,7.376-11.675,3.242a3.253,3.253,0,0,1-.961-3.9.653.653,0,0,1,.061-.1,54.721,54.721,0,0,1,5.226-8.223c-1.127-.28-2.709-.725-4.029-1.1-.97-.271-1.792-.5-2.124-.586C34.362,25.3,32.02,23.7,30.543,22.7l-.053-.044-13.257,23,1.5,1.687c.76.813,2.1,2.7,3.216,4.282.48.69.926,1.311,1.267,1.765a5.972,5.972,0,0,1,1.643-1.232,4.86,4.86,0,0,1,2.561-.586,5.019,5.019,0,0,1,2.561.891,5.694,5.694,0,0,1,1.774,1.957c.035.07.079.149.114.227Zm10.522,18.8a1.317,1.317,0,0,1,.21-.271c.988-1.267,2.124-2.8,2.954-3.915a1.593,1.593,0,0,1,.1-.149c.289-.384.533-.716.856-1.136a3.727,3.727,0,0,0,.752-3.81,3.988,3.988,0,0,0-1.049-1.407,4.932,4.932,0,0,0-1.591-.926,2.96,2.96,0,0,0-2.849.218c-.122.192-.262.376-.4.568-.323.428-.926,1.311-1.652,2.36-1.162,1.687-2.6,3.8-3.758,5.279a4.318,4.318,0,0,0-.69,3.286A2.933,2.933,0,0,0,36.214,75a4.088,4.088,0,0,0,1.678.856,3.267,3.267,0,0,0,2.6-.28c.044-.026.079-.053.114-.07V75.5a14,14,0,0,0,1.783-2.045Zm2.368,1.372a5.1,5.1,0,0,0-.376,3.137,2.994,2.994,0,0,0,1,1.6,3.579,3.579,0,0,0,1.687.769,2.7,2.7,0,0,0,1.809-.262,27.03,27.03,0,0,0,2.211-2.709,24.479,24.479,0,0,0,2.071-3.024,3.111,3.111,0,0,0-.018-2.124,3.308,3.308,0,0,0-1-1.451,2.922,2.922,0,0,0-1.652-.638,4.821,4.821,0,0,0-2.84.9c-.813,1.1-1.879,2.526-2.893,3.8ZM2.736,3.661V37.717a6.158,6.158,0,0,0,.752,3.006,6.077,6.077,0,0,0,2.167,2.2L12.6,47.2a.466.466,0,0,0,.183.079.408.408,0,0,0,.175-.009l.026-.009a.945.945,0,0,0,.149-.053l.035-.026a.529.529,0,0,0,.131-.149L29.119,19.566a.477.477,0,0,0,.053-.376.5.5,0,0,0-.227-.306L3.505,3.233a.623.623,0,0,0-.253-.087.556.556,0,0,0-.262.079A.47.47,0,0,0,2.8,3.4a.58.58,0,0,0-.061.262Z" transform="translate(0 0)" fill="#0f76bf"/>
  </g>
</svg>
