<svg version="1.2" xmlns="http://www.w3.org/2000/svg" viewBox="0 0 1000 1000" width="1000" height="1000">
	<title>Prod_GetStarted_CallUs-ai</title>
	<style>
		.s0 { fill: none;stroke: #36464c;stroke-linecap: round;stroke-linejoin: round;stroke-width: 12 } 
		.s1 { fill: none;stroke: #36464c;stroke-linejoin: round;stroke-width: 12 } 
	</style>
	<g id="Layer 1">
		<g id="&lt;Group&gt;">
			<path id="&lt;Path&gt;" class="s0" d="m514.3 73.7c226.5 0 410 183.6 410 410"/>
			<path id="&lt;Path&gt;" class="s0" d="m514.3 185.6c164.7 0 298.2 133.5 298.2 298.1"/>
			<path id="&lt;Path&gt;" class="s0" d="m514.3 297.4c102.9 0 186.4 83.4 186.4 186.3"/>
			<path id="&lt;Path&gt;" class="s1" d="m280.7 717.3c-193.6-193.6-269.6-431.5-169.7-531.4 21.2-21.1 57.8-48.4 85-67.6 18.5-13.2 44.3-8 56.4 11.2l119 188.8c11.9 18.9 5.9 43.8-13.2 55.2l-69.8 41.8c-19.7 11.9-25.5 38-12.2 56.8 32.1 45.5 72.7 90.9 115.8 133.9 43.1 43.1 88.5 83.7 134 115.9 18.7 13.3 44.9 7.4 56.7-12.3l41.8-69.8c11.5-19 36.4-25 55.2-13.1l188.8 119c19.3 12.1 24.4 37.8 11.3 56.4-19.2 27.1-46.5 63.8-67.7 84.9-99.9 99.9-337.8 23.9-531.4-169.7z"/>
		</g>
	</g>
</svg>