<svg version="1.2" xmlns="http://www.w3.org/2000/svg" viewBox="0 0 1000 1000" width="1000" height="1000">
	<title>Prod_GetStarted_QuestionsPhone-ai</title>
	<style>
		.s0 { fill: none;stroke: #36464c;stroke-linecap: round;stroke-linejoin: round;stroke-width: 12 } 
	</style>
	<g id="Layer 1">
		<g id="&lt;Group&gt;">
			<path id="&lt;Path&gt;" class="s0" d="m593.8 808.6l290.3 85.4"/>
			<path id="&lt;Path&gt;" class="s0" d="m98.6 894l290.3-85.4"/>
			<path id="&lt;Path&gt;" class="s0" d="m610.9 962.3h102.4"/>
			<path id="&lt;Path&gt;" class="s0" d="m491.3 654.9c-30.9 0-61.8-11.3-85.3-34.1"/>
			<path id="&lt;Path&gt;" class="s0" d="m747.5 535.4c0 141.5-114.7 256.1-256.2 256.1-141.4 0-256.1-114.6-256.1-256.1"/>
			<path id="&lt;Path&gt;" class="s0" d="m747.5 364.7c56.5 0 102.4 45.8 102.4 102.4 0 56.6-45.9 102.5-102.4 102.5z"/>
			<path id="&lt;Path&gt;" class="s0" d="m235.2 569.6c-56.6 0-102.4-45.9-102.4-102.5 0-56.6 45.8-102.4 102.4-102.4z"/>
			<path id="&lt;Path&gt;" class="s0" d="m747.5 364.7c-94.3 0-170.8-61.2-170.8-136.6"/>
			<path id="&lt;Path&gt;" class="s0" d="m747.5 535.4c0 66-84.1 119.5-187.9 119.5"/>
			<path id="&lt;Path&gt;" class="s0" d="m576.7 228.1c0 75.4-152.9 136.6-341.5 136.6"/>
			<path id="&lt;Path&gt;" class="s0" d="m559.6 654.9c0 18.9-15.2 34.2-34.1 34.2-18.9 0-34.2-15.3-34.2-34.2 0-18.8 15.3-34.1 34.2-34.1 18.9 0 34.1 15.3 34.1 34.1z"/>
			<path id="&lt;Path&gt;" class="s0" d="m767.9 859.8c51.2-97.4 82-222.3 82-358.5v-102.5c0-198-160.5-358.6-358.6-358.6-198 0-358.5 160.6-358.5 358.6v102.5c0 136.2 30.7 261.1 81.9 358.5"/>
			<path id="&lt;Path&gt;" class="s0" d="m371.8 415.9v34.1"/>
			<path id="&lt;Path&gt;" class="s0" d="m610.9 415.9v34.1"/>
			<path id="&lt;Path&gt;" class="s0" d="m388.9 770.1v38.5l102.4 153.7 102.5-153.7v-38.5"/>
		</g>
	</g>
</svg>