<svg version="1.2" xmlns="http://www.w3.org/2000/svg" viewBox="0 0 1000 1000" width="1000" height="1000">
	<title>Prod_Benefits_ThankYouGift-ai</title>
	<style>
		.s0 { fill: none;stroke: #181919;stroke-linejoin: round;stroke-width: 12 } 
		.s1 { fill: none;stroke: #181919;stroke-linecap: round;stroke-linejoin: round;stroke-width: 12 } 
	</style>
	<g id="Layer 1">
		<g id="&lt;Group&gt;">
			<path id="&lt;Path&gt;" class="s0" d="m810.5 476.5v423.1c0 18-15.7 32.5-35.1 32.5h-595.8c-19.4 0-35.1-14.5-35.1-32.5v-423.1"/>
			<path id="&lt;Path&gt;" class="s0" d="m424.9 932.1v-595.8"/>
			<path id="&lt;Path&gt;" class="s0" d="m530.1 336.3v595.8"/>
			<path id="&lt;Path&gt;" class="s0" d="m424.9 476.5h-315.4v-122.7c0-9.7 7.8-17.5 17.5-17.5h701c9.7 0 17.5 7.8 17.5 17.5v122.7h-315.4"/>
			<path id="&lt;Path&gt;" class="s0" d="m495 336.3h-35c-19.4 0-35.1-15.7-35.1-35.1v-52.6c0-29 23.5-52.5 52.6-52.5 29 0 52.6 23.5 52.6 52.5v52.6c0 19.4-15.7 35.1-35.1 35.1z"/>
			<path id="&lt;Path&gt;" class="s0" d="m424.9 248.6c0-106.4-94.1-192.7-210.3-192.7-54.9 54.8-70.1 105.1-70.1 192.7v17.6c0 38.7 31.4 70.1 70.1 70.1"/>
			<path id="&lt;Path&gt;" class="s1" d="m424.9 301.2c0 0-70.1-105.1-210.3-105.1-38.7 0-70.1 31.4-70.1 70.1"/>
			<path id="&lt;Path&gt;" class="s0" d="m530.1 248.6c0-106.4 94.1-192.7 210.3-192.7 54.9 54.8 70.1 105.1 70.1 192.7v17.6c0 38.7-31.4 70.1-70.1 70.1"/>
			<path id="&lt;Path&gt;" class="s1" d="m530.1 301.2c0 0 70.1-105.1 210.3-105.1 38.7 0 70.1 31.4 70.1 70.1"/>
		</g>
	</g>
</svg>