<svg version="1.2" xmlns="http://www.w3.org/2000/svg" viewBox="0 0 1000 1000" width="1000" height="1000">
	<title>Prod_GetStarted_CheckRates-ai</title>
	<style>
		.s0 { fill: none;stroke: #36464c;stroke-linejoin: round;stroke-width: 12 } 
		.s1 { fill: none;stroke: #36464c;stroke-linecap: round;stroke-linejoin: round;stroke-width: 12 } 
	</style>
	<g id="Layer 1">
		<g id="&lt;Group&gt;">
			<path id="&lt;Path&gt;" class="s0" d="m746.5 425c0 189.4-153.5 342.9-342.9 342.9-189.4 0-343-153.5-343-342.9 0-189.4 153.6-343 343-343 189.4 0 342.9 153.6 342.9 343z"/>
			<path id="&lt;Path&gt;" class="s1" d="m588.9 713.2l204.9 204.9c28.4 28.3 74.4 28.3 102.8 0l0.1-0.1c28.3-28.4 28.3-74.4 0-102.8l-204.9-204.9"/>
			<path id="&lt;Path&gt;" class="s1" d="m300.7 579.3l205.7-308.6"/>
			<path id="&lt;Path&gt;" class="s1" d="m369.3 322.1c0 37.9-30.7 68.6-68.6 68.6-37.9 0-68.6-30.7-68.6-68.6 0-37.9 30.7-68.6 68.6-68.6 37.9 0 68.6 30.7 68.6 68.6z"/>
			<path id="&lt;Path&gt;" class="s1" d="m575 527.8c0 37.9-30.7 68.6-68.6 68.6-37.8 0-68.5-30.7-68.5-68.6 0-37.8 30.7-68.5 68.5-68.5 37.9 0 68.6 30.7 68.6 68.5z"/>
		</g>
	</g>
</svg>