<svg version="1.2" xmlns="http://www.w3.org/2000/svg" viewBox="0 0 1000 1000" width="1000" height="1000">
	<title>Prod_Benefits_CardHub-ai</title>
	<style>
		.s0 { fill: none;stroke: #36464c;stroke-linecap: round;stroke-linejoin: round;stroke-width: 12 } 
	</style>
	<g id="Layer 1">
		<g id="&lt;Group&gt;">
			<path id="&lt;Path&gt;" class="s0" d="m331.1 585.5h32.1"/>
			<path id="&lt;Path&gt;" class="s0" d="m427.4 585.5h32.2"/>
			<path id="&lt;Path&gt;" class="s0" d="m523.8 585.5h32.1"/>
			<path id="&lt;Path&gt;" class="s0" d="m620.1 585.5h32.1"/>
			<path id="&lt;Path&gt;" class="s0" d="m724.6 681.8h-465.8c-13.3 0-24-10.7-24-24v-305.2c0-13.2 10.7-24 24-24h465.8c13.2 0 24 10.8 24 24v305.2c0 13.3-10.8 24-24 24z"/>
			<path id="&lt;Path&gt;" class="s0" d="m395.3 489.2h-64.2v-64.3h64.2z"/>
			<path id="&lt;Path&gt;" class="s0" d="m294 777.7l-125.9-14.5 18.5 127.4"/>
			<path id="&lt;Path&gt;" class="s0" d="m657.3 232.7l125.8 14.5-18.5-127.3"/>
			<path id="&lt;Path&gt;" class="s0" d="m783.1 247.2c-142.5-169.8-395.7-191.9-565.5-49.5-137.6 115.5-178.2 303.7-112.9 461.3"/>
			<path id="&lt;Path&gt;" class="s0" d="m168.1 763.2c142.5 169.8 395.7 192 565.5 49.5 137.7-115.5 178.3-303.6 112.9-461.2"/>
		</g>
	</g>
</svg>