<svg version="1.2" xmlns="http://www.w3.org/2000/svg" viewBox="0 0 1000 1000" width="1000" height="1000">
	<title>Prod_GetStarted_RequestAppt-ai</title>
	<style>
		.s0 { fill: none;stroke: #36464c;stroke-linejoin: round;stroke-width: 12 } 
		.s1 { fill: none;stroke: #36464c;stroke-linecap: round;stroke-linejoin: round;stroke-width: 12 } 
	</style>
	<g id="Layer 1">
		<g id="&lt;Group&gt;">
			<path id="&lt;Path&gt;" class="s0" d="m729.9 138.6h143c39.5 0 71.5 32 71.5 71.5v607.9c0 39.5-32 71.5-71.5 71.5h-750.9c-39.5 0-71.6-32-71.6-71.5v-607.9c0-39.5 32.1-71.5 71.6-71.5h143"/>
			<path id="&lt;Path&gt;" class="s0" d="m336.5 138.6h321.8"/>
			<path id="&lt;Path&gt;" class="s1" d="m50.4 317.3h822.5"/>
			<path id="&lt;Path&gt;" class="s1" d="m336.5 210.1c0 19.7-16 35.7-35.7 35.7-19.8 0-35.8-16-35.8-35.7v-107.3c0-19.8 16-35.8 35.8-35.8 19.7 0 35.7 16 35.7 35.8z"/>
			<path id="&lt;Path&gt;" class="s1" d="m729.9 210.1c0 19.7-16 35.7-35.8 35.7-19.7 0-35.8-16-35.8-35.7v-107.3c0-19.8 16.1-35.8 35.8-35.8 19.8 0 35.8 16 35.8 35.8z"/>
			<path id="&lt;Path&gt;" class="s1" d="m193.5 460.4h71.5"/>
			<path id="&lt;Path&gt;" class="s1" d="m372.3 460.4h71.5"/>
			<path id="&lt;Path&gt;" class="s1" d="m551.1 460.4h71.5"/>
			<path id="&lt;Path&gt;" class="s1" d="m729.9 460.4h71.5"/>
			<path id="&lt;Path&gt;" class="s1" d="m193.5 603.4h71.5"/>
			<path id="&lt;Path&gt;" class="s1" d="m372.3 603.4h71.5"/>
			<path id="&lt;Path&gt;" class="s1" d="m551.1 603.4h71.5"/>
			<path id="&lt;Path&gt;" class="s1" d="m729.9 603.4h71.5"/>
			<path id="&lt;Path&gt;" class="s1" d="m193.5 746.5h71.5"/>
			<path id="&lt;Path&gt;" class="s1" d="m372.3 746.5h71.5"/>
			<path id="&lt;Path&gt;" class="s1" d="m551.1 746.5h71.5"/>
		</g>
	</g>
</svg>