<svg version="1.2" xmlns="http://www.w3.org/2000/svg" viewBox="0 0 1000 1000" width="1000" height="1000">
	<title>Prod_Benefits_OnlineBanking-ai</title>
	<style>
		.s0 { fill: none;stroke: #445a64;stroke-linejoin: round;stroke-width: 12 } 
		.s1 { fill: none;stroke: #445a64;stroke-linecap: round;stroke-linejoin: round;stroke-width: 12 } 
	</style>
	<g id="Layer 1">
		<g id="&lt;Group&gt;">
			<path id="&lt;Path&gt;" class="s0" d="m40.2 632.5h924.3"/>
			<path id="&lt;Path&gt;" class="s0" d="m588 769.5v68.4l102.7 68.5h-376.6l102.7-68.5v-68.4"/>
			<path id="&lt;Path&gt;" class="s1" d="m468.1 701h68.5"/>
			<path id="&lt;Path&gt;" class="s0" d="m91.6 119c-28.4 0-51.4 23-51.4 51.4v547.7c0 28.4 23 51.4 51.4 51.4h821.6c28.3 0 51.3-23 51.3-51.4v-547.7c0-28.4-23-51.4-51.3-51.4z"/>
			<path id="&lt;Path&gt;" class="s1" d="m485.3 358.7l136.9-102.7 136.9 102.7z"/>
			<path id="&lt;Path&gt;" class="s1" d="m759.1 495.6h-273.8"/>
			<path id="&lt;Path&gt;" class="s1" d="m519.5 358.7v136.9"/>
			<path id="&lt;Path&gt;" class="s1" d="m588 358.7v136.9"/>
			<path id="&lt;Path&gt;" class="s1" d="m656.4 358.7v136.9"/>
			<path id="&lt;Path&gt;" class="s1" d="m724.9 358.7v136.9"/>
			<path id="&lt;Path&gt;" class="s1" d="m382.6 324.4h-66.7c-17 0-32.8 11.7-35.6 28.5-3.5 21.5 13 40 33.8 40h32.4c17.1 0 32.9 11.7 35.6 28.5 3.5 21.4-13 40-33.8 40h-68.4"/>
			<path id="&lt;Path&gt;" class="s1" d="m331.2 290.2v34.2"/>
			<path id="&lt;Path&gt;" class="s1" d="m331.2 461.4v34.2"/>
		</g>
	</g>
</svg>