<svg version="1.2" xmlns="http://www.w3.org/2000/svg" viewBox="0 0 1000 1000" width="1000" height="1000">
	<title>Prod_Benefits_DebitCard-ai</title>
	<style>
		.s0 { fill: none;stroke: #36464c;stroke-linecap: round;stroke-linejoin: round;stroke-width: 12 } 
	</style>
	<g id="Layer 1">
		<g id="&lt;Group&gt;">
			<path id="&lt;Path&gt;" class="s0" d="m211 751.3h77.3"/>
			<path id="&lt;Path&gt;" class="s0" d="m365.6 751.3h77.2"/>
			<path id="&lt;Path&gt;" class="s0" d="m520.1 751.3h77.3"/>
			<path id="&lt;Path&gt;" class="s0" d="m674.6 751.3h77.3"/>
			<path id="&lt;Path&gt;" class="s0" d="m211 828.5h231.8"/>
			<path id="&lt;Path&gt;" class="s0" d="m326.9 674h-115.9v-115.9h115.9z"/>
			<path id="&lt;Path&gt;" class="s0" d="m288.3 143.9c117.3-117.4 307.6-117.4 425 0"/>
			<path id="&lt;Path&gt;" class="s0" d="m368 226.8c73.3-73.4 192.2-73.4 265.6 0"/>
			<path id="&lt;Path&gt;" class="s0" d="m447.7 307c29.3-25.8 76.9-25.8 106.2 0"/>
			<path id="&lt;Path&gt;" class="s0" d="m874.4 944.4h-747.3c-17.6 0-32-14.3-32-32v-476.8c0-17.7 14.4-32 32-32h747.3c17.7 0 32 14.3 32 32v476.8c0 17.7-14.3 32-32 32z"/>
			<path id="&lt;Path&gt;" class="s0" d="m766.5 519.5c32 32 32 83.9 0 115.9"/>
			<path id="&lt;Path&gt;" class="s0" d="m703.6 554.1c12.9 12.9 12.9 33.8 0 46.6"/>
		</g>
	</g>
</svg>