<svg version="1.2" xmlns="http://www.w3.org/2000/svg" viewBox="0 0 1000 1000" width="1000" height="1000">
	<title>Prod_Benefits_AppleGooglePay-ai</title>
	<style>
		.s0 { fill: none;stroke: #445a64;stroke-linejoin: round;stroke-width: 12 } 
		.s1 { fill: none;stroke: #445a64;stroke-linecap: round;stroke-linejoin: round;stroke-width: 12 } 
	</style>
	<g id="Layer 1">
		<g id="&lt;Group&gt;">
			<path id="&lt;Path&gt;" class="s0" d="m70.8 789h437.7"/>
			<path id="&lt;Path&gt;" class="s0" d="m70.8 216.6h218.9"/>
			<path id="&lt;Path&gt;" class="s1" d="m256 856.3h67.3"/>
			<path id="&lt;Path&gt;" class="s1" d="m298.1 149.3c0 4.6-3.8 8.4-8.4 8.4-4.7 0-8.5-3.8-8.5-8.4 0-4.7 3.8-8.4 8.5-8.4 4.6 0 8.4 3.7 8.4 8.4z"/>
			<path id="&lt;Path&gt;" class="s0" d="m508.5 216.6v-84.1c0-27.9-22.6-50.5-50.5-50.5h-336.7c-27.9 0-50.5 22.6-50.5 50.5v740.6c0 27.9 22.6 50.5 50.5 50.5h336.7c27.9 0 50.5-22.6 50.5-50.5v-185.1"/>
			<path id="&lt;Path&gt;" class="s0" d="m912.5 637.5c0 27.9-22.6 50.5-50.5 50.5h-572.3c-27.9 0-50.5-22.6-50.5-50.5v-370.4c0-27.9 22.6-50.5 50.5-50.5h572.3c27.9 0 50.5 22.6 50.5 50.5z"/>
			<path id="&lt;Path&gt;" class="s0" d="m441.2 418.6h-101v-101h101z"/>
			<path id="&lt;Path&gt;" class="s1" d="m340.2 519.6h67.3"/>
			<path id="&lt;Path&gt;" class="s1" d="m340.2 587h202"/>
			<path id="&lt;Path&gt;" class="s1" d="m474.8 519.6h67.4"/>
			<path id="&lt;Path&gt;" class="s1" d="m609.5 519.6h67.3"/>
			<path id="&lt;Path&gt;" class="s1" d="m744.2 519.6h67.3"/>
		</g>
	</g>
</svg>