<svg version="1.2" xmlns="http://www.w3.org/2000/svg" viewBox="0 0 1000 1000" width="1000" height="1000">
	<title>Prod_Benefits_FDICInsured-ai</title>
	<defs>
		<clipPath clipPathUnits="userSpaceOnUse" id="cp1">
			<path d="m60.79 761.35h859.08v-497.79h-859.08z"/>
		</clipPath>
	</defs>
	<style>
		.s0 { fill: #221e1f } 
		.s1 { fill: #050505 } 
	</style>
	<g id="Layer 1">
		<path id="&lt;Compound Path&gt;" fill-rule="evenodd" class="s0" d="m265.2 444.8h117.4c105.9 0 173.4 61.4 173.4 157.2 0 106.1-74.8 157.7-194.1 157.7h-96.7zm110.1 72.2c-4.3 0-9.7 0.6-17 0.6v169.8c59.6 0 105.8-22.3 105.8-87.2 0-55.6-37.7-83.2-88.8-83.2z"/>
		<path id="&lt;Path&gt;" class="s1" d="m919.9 536.5v-83.2c-23.8-9.1-45.1-14.3-74.9-14.3-97.9 0-176.4 70-176.4 162.3 0 92.4 77.2 160 174.6 160 34.7 0 58.4-6.8 76.7-20v-83.2c-27.4 16.1-46.3 23-71.8 23-49.3 0-87.7-33.9-87.7-83.8 0-48.8 39-84.3 87.7-84.3 26.7 0 46.2 8.6 71.8 23.5z"/>
		<path id="&lt;Path&gt;" class="s0" d="m60.8 381.7v14.9h65.1v-14.9c-18.9-0.6-21.9-2.9-21.9-14.9v-75.1l38.9 104.9h16.5l41.9-104.9v73.4c0 15.5 0 15.5-23.1 16.6v14.9h75.5v-14.9c-22 0-22.5-2.3-22.5-13.2v-73.4c0-12 1.8-16 22.5-16v-15.5h-64.6l-32.8 84.3-30.4-84.3h-65.1v15.5c18.2 0 21.3 0 21.3 14.9v70.5c0 13.8 0 17.2-21.3 17.2z"/>
		<path id="&lt;Path&gt;" class="s0" d="m376.5 381.7v14.9h60.2v-14.9c-14.6-0.6-14.6-2.3-14.6-21.2v-16.1c0-15.5 7.3-28.1 22.5-28.1 12.2 0 15.9 7.5 15.9 17.8v33.8c0 11.5-0.6 13.8-15.3 13.8v14.9h54.2v-14.9c-12.8 0-14-1.1-14-12.6v-23.5c0-16.1 7.9-29.9 23.7-29.9 12.2 0 14.6 6.9 14.6 20.7v34.4c0 9.8 0 10.9-14.6 10.9v14.9h59.6v-14.9c-18.2 0-19.4 0.6-19.4-9.2v-38.4c0-21.8-5.5-34.4-29.2-34.4-14 0-23.1 5.2-34.7 16.6-6.1-10.3-14.6-17.2-29.2-17.2-15.2 0-25.6 7.5-34.1 18.4v-15.5h-45.6v13.7c18.2 0 20.1 0.6 20.1 14.4v31.5c0 20.1 0 20.1-20.1 20.1z"/>
		<path id="&lt;Path&gt;" class="s0" d="m63.7 444.8v314.9h91.9l0.6-120.4h89.4v-72.8h-88.8l-0.6-48.8h96.1v-72.9z"/>
		<path id="&lt;Compound Path&gt;" fill-rule="evenodd" class="s0" d="m576 263.6h42.6v48.7c11.6-9.1 18.9-12.6 30.5-12.6 24.3 0 40.8 20.7 40.8 49.4 0 30.9-16.5 51-44.5 51-13.4 0-21.9-4-31-13.2l-8.6 10.9h-12.7v-103.2c0-15.5-1.3-17.2-17.1-17.2zm85.2 85.4c0-21.8-8.5-32.7-20.6-32.7-15.9 0-22.5 12-22.5 34.4 0 19.5 7.9 32.7 21.9 32.7 11.5 0 21.2-10.3 21.2-34.4z"/>
		<path id="&lt;Path&gt;" class="s0" d="m819.4 381.7v14.9h65.7v-14.9c-18.2 0-20 0.6-20-13.2v-20.6c0-19 6.7-36.2 24.9-36.2 1.2 0 2.4 0 6.1 1.2-6.1 2.8-10.4 6.9-10.4 13.2 0 7.4 6.1 12.6 14.1 12.6 9.7 0 16.4-6.9 16.4-17.2 0-12.6-9.8-21.8-23.1-21.8-11 0-18.9 5.2-28.7 15.5v-13.2h-45v13.7c15.8 0 20.1 0 20.1 12.7v39c0 13.2 0 14.3-20.1 14.3z"/>
		<path id="&lt;Compound Path&gt;" fill-rule="evenodd" class="s0" d="m736.7 351.9c0 18.4 9.1 31 25.5 31 14.6 0 21.4-8 23.7-20.7h18.3c-3 24.2-20.1 37.3-44.4 37.3-29.2 0-51.1-16.6-51.1-48.7 0-29.3 19.5-51.1 48.7-51.1 28.5 0 46.8 20.7 46.8 52.2zm20.7-37.3c-12.1 0-19.5 8-19.5 22.3h38.4c0-14.9-6.1-22.3-18.9-22.3z"/>
		<path id="&lt;Compound Path&gt;" fill-rule="evenodd" class="s0" d="m293.7 351.9c0 18.4 9.8 31 26.2 31 14.6 0 21.3-8 23.7-20.7h17.7c-3.1 24.2-19.5 37.3-43.8 37.3-29.2 0-51.8-16.6-51.8-48.7 0-29.3 20.1-51.1 49.3-51.1 28.6 0 46.3 20.7 46.3 52.2zm21.3-37.3c-12.2 0-19.5 8-19.5 22.3h37.7c0-15.5-6-22.3-18.2-22.3z"/>
		<g id="&lt;Clip Group&gt;" clip-path="url(#cp1)">
		</g>
		<path id="&lt;Path&gt;" class="s0" d="m565.7 759.7h91.9v-314.9h-91.9z"/>
	</g>
</svg>