<svg version="1.2" xmlns="http://www.w3.org/2000/svg" viewBox="0 0 1000 1000" width="1000" height="1000">
	<title>Prod_Benefits_UnlimitedCheckWriting-ai</title>
	<style>
		.s0 { fill: none;stroke: #36464c;stroke-linecap: round;stroke-linejoin: round;stroke-width: 12 } 
		.s1 { fill: none;stroke: #36464c;stroke-linejoin: round;stroke-width: 12 } 
	</style>
	<g id="Layer 1">
		<g id="&lt;Group&gt;">
			<path id="&lt;Path&gt;" class="s0" d="m813 712.2h44.2c8.1 0 14.7-6.6 14.7-14.7v-410.7c0-9-7.3-16.3-16.3-16.3h-42.6"/>
			<path id="&lt;Path&gt;" class="s0" d="m548 270.5h-294.5v441.7h353.4"/>
			<path id="&lt;Path&gt;" class="s0" d="m459.6 388.3h-58.9c-16.2 0-29.4 13.2-29.4 29.4 0 16.3 13.2 29.5 29.4 29.5h29.5c16.2 0 29.4 13.2 29.4 29.4 0 16.3-13.2 29.5-29.4 29.5h-58.9"/>
			<path id="&lt;Path&gt;" class="s0" d="m415.4 358.8v29.5"/>
			<path id="&lt;Path&gt;" class="s0" d="m415.4 506.1v29.4"/>
			<path id="&lt;Path&gt;" class="s0" d="m489.1 623.9h-147.3"/>
			<path id="&lt;Path&gt;" class="s0" d="m606.9 623.9h-58.9"/>
			<path id="&lt;Path&gt;" class="s1" d="m253.5 712.2c0-55-50.3-98.2-107.4-86.3-33.4 6.9-60.4 33.9-67.3 67.3-11.9 57.1 31.3 107.4 86.3 107.4h324c8.1 0 14.7-6.6 14.7-14.7v-73.7"/>
			<path id="&lt;Path&gt;" class="s1" d="m253.5 270.5c0-48.8-39.6-88.3-88.4-88.3-48.8 0-88.3 39.5-88.3 88.3v441.7"/>
			<path id="&lt;Path&gt;" class="s1" d="m709.9 152.7c24.4 0 44.2 19.8 44.2 44.2v515.3c0 58.9-44.2 103.1-44.2 103.1 0 0-44.1-44.2-44.1-103.1v-515.3c0-24.4 19.7-44.2 44.1-44.2z"/>
			<path id="&lt;Path&gt;" class="s0" d="m754.1 241.1h-117.8c-16.2 0-29.4 13.1-29.4 29.4v137.1"/>
			<path id="&lt;Path&gt;" class="s1" d="m665.8 668.1h88.3"/>
			<path id="&lt;Path&gt;" class="s0" d="m709.9 830v-14.7"/>
		</g>
	</g>
</svg>