<svg version="1.2" xmlns="http://www.w3.org/2000/svg" viewBox="0 0 1000 1000" width="1000" height="1000">
	<title>Prod_Benefits_AccountAlerts-ai</title>
	<style>
		.s0 { fill: none;stroke: #445a64;stroke-linejoin: round;stroke-width: 12 } 
		.s1 { fill: none;stroke: #445a64;stroke-linecap: round;stroke-linejoin: round;stroke-width: 12 } 
	</style>
	<g id="Layer 1">
		<g id="&lt;Group&gt;">
			<path id="&lt;Path&gt;" class="s0" d="m819.4 604.5c0 190.7-154.6 345.3-345.3 345.3-190.7 0-345.3-154.6-345.3-345.3 0-190.7 154.6-345.3 345.3-345.3 190.7 0 345.3 154.6 345.3 345.3z"/>
			<path id="&lt;Path&gt;" class="s0" d="m601.3 95.7c0 30.1-24.4 54.5-54.5 54.5h-145.4c-30.1 0-54.5-24.4-54.5-54.5 0-30.2 24.4-54.6 54.5-54.6h145.4c30.1 0 54.5 24.4 54.5 54.6z"/>
			<path id="&lt;Compound Path&gt;" class="s0" d="m257.1 336.1l-51.2-51.2c-14.2-14.2-37.2-14.2-51.4 0-14.2 14.2-14.2 37.2 0 51.4l51.2 51.2m536.8 0l51.2-51.2c14.2-14.2 14.2-37.2 0-51.4-14.2-14.2-37.2-14.2-51.4 0l-51.2 51.2"/>
			<path id="&lt;Path&gt;" class="s0" d="m437.8 150.2v110.9"/>
			<path id="&lt;Path&gt;" class="s0" d="m510.5 261.1v-110.9"/>
			<path id="&lt;Path&gt;" class="s1" d="m237.9 604.5c0 130.5 105.7 236.2 236.2 236.2 130.5 0 236.3-105.7 236.3-236.2 0-130.5-105.8-236.3-236.3-236.3v163.6"/>
			<path id="&lt;Path&gt;" class="s1" d="m528.6 531.8h-70.7c-18.1 0-34.9 12.4-37.8 30.2-3.7 22.8 13.8 42.5 35.8 42.5h34.4c18.1 0 34.9 12.4 37.8 30.2 3.7 22.8-13.7 42.5-35.8 42.5h-72.7"/>
			<path id="&lt;Path&gt;" class="s1" d="m474.1 677.2v54.5"/>
		</g>
	</g>
</svg>