<svg xmlns="http://www.w3.org/2000/svg" width="100.955" height="101" viewBox="0 0 100.955 101">
  <path id="noun-shield-5844158" d="M50.186,100.91l.292.09.292-.09c44.981-12.5,50.186-52.7,50.186-81.841v-.426l-.269-.314C100.035,17.589,84.264,0,50.478,0S.942,17.589.269,18.328L0,18.642v.426c0,29.142,5.2,69.345,50.186,81.841h0ZM50.478,4.9c28.662,0,43.459,14.14,45.579,16.324C96.015,47.98,91.118,84.57,50.478,96.019,30.867,90.506,5.024,76.684,4.9,21.225,7.017,19.041,21.815,4.9,50.477,4.9h0Zm5.35,77.927H47.2V75.884h8.623ZM42.893,18.091H60.138l-4.776,52.9H46.607l-3.715-52.9Z" opacity="0.607"/>
</svg>
