<svg id="Group_360" data-name="Group 360" xmlns="http://www.w3.org/2000/svg" xmlns:xlink="http://www.w3.org/1999/xlink" width="47.854" height="47.854" viewBox="0 0 47.854 47.854">
  <defs>
    <clipPath id="clip-path">
      <rect id="Rectangle_58" data-name="Rectangle 58" width="28.681" height="29.997" fill="#4787b4"/>
    </clipPath>
  </defs>
  <g id="Group_12" data-name="Group 12" transform="translate(38.353 10.047) rotate(90)">
    <g id="Group_11" data-name="Group 11" clip-path="url(#clip-path)">
      <path id="Path_5" data-name="Path 5" d="M23.115,16.589a.967.967,0,0,0-.223.127Q17.606,22,12.325,27.279a1.707,1.707,0,0,0-.608,1.119,1.485,1.485,0,0,0,.8,1.436,1.409,1.409,0,0,0,1.665-.257q1.256-1.226,2.494-2.472,5.9-5.914,11.8-11.832c.278-.278.277-.274.005-.545L15.873,2.135c-.529-.528-1.052-1.062-1.586-1.585A2.3,2.3,0,0,0,13.82.19,1.324,1.324,0,0,0,12.3.3,1.433,1.433,0,0,0,11.7,1.745a1.448,1.448,0,0,0,.455.858q2.283,2.277,4.561,4.559,2.45,2.446,4.905,4.888c.441.439.885.873,1.327,1.311.031.03.058.065.107.121-.085.006-.141.012-.2.012q-10.616,0-21.232,0a1.56,1.56,0,0,0-1.365.673,1.48,1.48,0,0,0,1.03,2.3,2.724,2.724,0,0,0,.472.042q10.368,0,20.736,0h.544l.07.079" transform="translate(0 0)" fill="#4787b4"/>
    </g>
  </g>
  <g id="Ellipse_3" data-name="Ellipse 3" transform="translate(47.854) rotate(90)" fill="none" stroke="#4c8ab6" stroke-width="0.5">
    <circle cx="23.927" cy="23.927" r="23.927" stroke="none"/>
    <circle cx="23.927" cy="23.927" r="23.677" fill="none"/>
  </g>
</svg>
