<svg xmlns="http://www.w3.org/2000/svg" xmlns:xlink="http://www.w3.org/1999/xlink" width="72.507" height="67.001" viewBox="0 0 72.507 67.001">
  <defs>
    <clipPath id="clip-path">
      <rect id="Rectangle_256" data-name="Rectangle 256" width="72.507" height="67.001" fill="rgba(0,0,0,0)" stroke="#575757" stroke-width="1"/>
    </clipPath>
  </defs>
  <g id="Group_232" data-name="Group 232" opacity="0.722">
    <g id="Group_231" data-name="Group 231" clip-path="url(#clip-path)">
      <path id="Path_1150" data-name="Path 1150" d="M46.558,54.261a3.6,3.6,0,0,1-4.437-2.509L33.267,19.857A2.806,2.806,0,0,1,35.221,16.4L81.5,3.557a2.806,2.806,0,0,1,3.455,1.953L94.024,38.2a2.806,2.806,0,0,1-1.955,3.455Z" transform="translate(-22.709 -2.365)" fill="rgba(0,0,0,0)" stroke="#575757" stroke-linecap="round" stroke-linejoin="round" stroke-width="1"/>
      <line id="Line_15" data-name="Line 15" y1="12.458" x2="44.881" transform="translate(12.501 9.957)" fill="none" stroke="#575757" stroke-linecap="round" stroke-linejoin="round" stroke-width="1"/>
      <line id="Line_16" data-name="Line 16" y1="12.458" x2="44.881" transform="translate(14.795 18.221)" fill="none" stroke="#575757" stroke-linecap="round" stroke-linejoin="round" stroke-width="1"/>
      <path id="Path_1151" data-name="Path 1151" d="M89,122.764l-10.664,2.96a.711.711,0,0,1-.875-.494l-1.252-4.51" transform="translate(-52.181 -82.662)" fill="rgba(0,0,0,0)" stroke="#575757" stroke-linecap="round" stroke-linejoin="round" stroke-width="1"/>
      <path id="Path_1152" data-name="Path 1152" d="M67.717,106.737l.6,2.165a2.806,2.806,0,0,1-1.955,3.455l-49.815,13.8a3.6,3.6,0,0,1-4.437-2.509L3.556,92.834A2.806,2.806,0,0,1,5.51,89.379l4.316-1.2" transform="translate(-2.365 -60.381)" fill="rgba(0,0,0,0)" stroke="#575757" stroke-linecap="round" stroke-linejoin="round" stroke-width="1"/>
      <line id="Line_17" data-name="Line 17" y1="1.806" x2="6.508" transform="translate(3.134 35.569)" fill="none" stroke="#575757" stroke-linecap="round" stroke-linejoin="round" stroke-width="1"/>
      <line id="Line_18" data-name="Line 18" y1="1.806" x2="6.508" transform="translate(5.428 43.833)" fill="none" stroke="#575757" stroke-linecap="round" stroke-linejoin="round" stroke-width="1"/>
      <line id="Line_19" data-name="Line 19" x2="9.273" y2="6.095" transform="translate(53.696 31.081)" fill="none" stroke="#575757" stroke-linecap="round" stroke-linejoin="round" stroke-width="1"/>
    </g>
  </g>
</svg>
