<svg xmlns="http://www.w3.org/2000/svg" width="31.152" height="20.417" viewBox="0 0 31.152 20.417">
  <path id="noun-speaker-5112547" d="M10.538,24.935v11.6H9.5A4.589,4.589,0,0,1,5,32V29.47a4.55,4.55,0,0,1,4.534-4.534Zm13.43,2.908V21.4a.939.939,0,0,0-1.281-.831l-10.28,4.361v11.6l10.315,4.327A.929.929,0,0,0,24,40.027V33.589a2.873,2.873,0,1,0-.035-5.746Zm8.55-5.123A.909.909,0,0,0,31.341,24.1a8.8,8.8,0,0,1,3.011,6.611,8.58,8.58,0,0,1-3.011,6.611.885.885,0,0,0-.1,1.281.938.938,0,0,0,.692.277,1.074,1.074,0,0,0,.588-.242,10.537,10.537,0,0,0,0-15.922Zm-2.8,3.219a.909.909,0,1,0-1.177,1.385A4.547,4.547,0,0,1,30.1,30.716a4.437,4.437,0,0,1-1.558,3.392.885.885,0,0,0-.1,1.281.808.808,0,0,0,.692.346.822.822,0,0,0,.588-.208,6.118,6.118,0,0,0,2.181-4.777A6.24,6.24,0,0,0,29.714,25.939Zm-17.307-1v11.6" transform="translate(-5 -20.507)" fill="#0076bf"/>
</svg>
