<svg xmlns="http://www.w3.org/2000/svg" width="37.183" height="37.183" viewBox="0 0 37.183 37.183">
  <path id="Shape" d="M1.315,26.293a1.336,1.336,0,0,1-1.21-.815,1.3,1.3,0,0,1-.105-.5V18.405a1.314,1.314,0,1,1,2.629,0v3.4l6.954-6.968a1.32,1.32,0,1,1,1.867,1.867L4.483,23.663h3.4a1.315,1.315,0,0,1,0,2.63ZM14.842,11.451a1.316,1.316,0,0,1,0-1.867L21.81,2.629h-3.4a1.314,1.314,0,1,1,0-2.629h6.573a1.3,1.3,0,0,1,.5.105,1.336,1.336,0,0,1,.815,1.21V7.888a1.315,1.315,0,0,1-2.63,0v-3.4l-6.954,6.968a1.315,1.315,0,0,1-1.867,0Z" transform="translate(18.592) rotate(45)" fill="#0076bf"/>
</svg>
