<svg id="Group_498" data-name="Group 498" xmlns="http://www.w3.org/2000/svg" xmlns:xlink="http://www.w3.org/1999/xlink" width="158.814" height="137.214" viewBox="0 0 158.814 137.214">
  <defs>
    <clipPath id="clip-path">
      <rect id="Rectangle_426" data-name="Rectangle 426" width="158.814" height="137.214" fill="none" stroke="#707070" stroke-width="3"/>
    </clipPath>
  </defs>
  <line id="Line_144" data-name="Line 144" y2="29.166" transform="translate(24.69 94.774)" fill="none" stroke="#1a1a1a" stroke-linecap="round" stroke-linejoin="round" stroke-width="3"/>
  <line id="Line_145" data-name="Line 145" y1="29.166" transform="translate(53.427 94.773)" fill="none" stroke="#1a1a1a" stroke-linecap="round" stroke-linejoin="round" stroke-width="3"/>
  <line id="Line_146" data-name="Line 146" y2="33.931" transform="translate(70.614 90.008)" fill="none" stroke="#1a1a1a" stroke-linecap="round" stroke-linejoin="round" stroke-width="3"/>
  <path id="Path_1282" data-name="Path 1282" d="M159.019,168.93V111.214H147.5" transform="translate(-59.668 -44.99)" fill="none" stroke="#1a1a1a" stroke-linecap="round" stroke-linejoin="round" stroke-width="3"/>
  <g id="Group_495" data-name="Group 495">
    <g id="Group_494" data-name="Group 494" clip-path="url(#clip-path)">
      <line id="Line_147" data-name="Line 147" x2="135.557" transform="translate(17.981 135.157)" fill="none" stroke="#1a1a1a" stroke-linecap="round" stroke-linejoin="round" stroke-width="3"/>
      <path id="Path_1283" data-name="Path 1283" d="M177.279,58.475,202.624,26.65l25.85,31.825H216.992V134" transform="translate(-71.716 -10.781)" fill="none" stroke="#1a1a1a" stroke-linecap="round" stroke-linejoin="round" stroke-width="3"/>
    </g>
  </g>
  <line id="Line_148" data-name="Line 148" y1="75.522" transform="translate(116.539 47.694)" fill="none" stroke="#1a1a1a" stroke-linecap="round" stroke-linejoin="round" stroke-width="3"/>
  <line id="Line_149" data-name="Line 149" y2="5.973" transform="translate(43.581 16.144)" fill="none" stroke="#1a1a1a" stroke-linecap="round" stroke-linejoin="round" stroke-width="3"/>
  <g id="Group_497" data-name="Group 497">
    <g id="Group_496" data-name="Group 496" clip-path="url(#clip-path)">
      <path id="Path_1284" data-name="Path 1284" d="M50.671,71.847a14.517,14.517,0,0,0,12.51,7.166c4.008,0,13.119-1.579,13.119-10.81S64.548,58.122,64.548,58.122L63.485,58s-12.038-.85-12.038-10.082,9.109-10.81,13.118-10.81A11.448,11.448,0,0,1,75,43.444" transform="translate(-20.498 -15.011)" fill="none" stroke="#1a1a1a" stroke-linecap="round" stroke-linejoin="round" stroke-width="3"/>
      <line id="Line_150" data-name="Line 150" y1="5.973" transform="translate(43.894 63.981)" fill="none" stroke="#1a1a1a" stroke-linecap="round" stroke-linejoin="round" stroke-width="3"/>
      <ellipse id="Ellipse_36" data-name="Ellipse 36" cx="40.93" cy="40.93" rx="40.93" ry="40.93" transform="translate(1.908 2.206) rotate(-0.209)" fill="none" stroke="#1a1a1a" stroke-linecap="round" stroke-linejoin="round" stroke-width="3"/>
    </g>
  </g>
</svg>
