<svg version="1.2" xmlns="http://www.w3.org/2000/svg" viewBox="0 0 1000 1000" width="1000" height="1000">
	<title>Prod_Benefits_Zelle-ai</title>
	<style>
		.s0 { fill: #050505 } 
	</style>
	<g id="Layer 1">
		<g id="&lt;Group&gt;">
			<g id="&lt;Group&gt;">
				<path id="&lt;Path&gt;" class="s0" d="m593.2 633.2c-5.8-10-9.4-21.3-11-34.5-0.2-1.9-1.2-3.5-2.7-4.6-1.2-0.9-2.5-1.3-3.9-1.3q-0.7 0-1.3 0.1-3.7 0.8-7.3 0.8c-7.8 0-13.7-1.3-13.7-17.6v-15.7q0 0 0 0v-219.3c0-3.4-2.8-6.1-6.1-6.1h-44.4c-3.3 0-6.1 2.7-6.1 6.1v240.2c0 18 1.7 31.6 10 43.8 10.1 13.9 30.2 21.9 48.7 21.9q1.5 0 2.9 0 0 0 0 0c11.2 0 22.2-1 31.3-4.1 1.8-0.7 3.3-2.2 4-4 0.7-1.9 0.6-3.9-0.4-5.7z"/>
				<path id="&lt;Path&gt;" class="s0" d="m713.5 625.5c-8.2-11.9-10.7-14-16.2-26.8-0.8-1.7-1.2-3.5-2.7-4.6-1.2-0.9-2.6-1.3-4-1.3q-0.6 0-1.2 0.1c-2.5 0.5-5 0.8-7.4 0.8-7.7 0-13.6-1.3-13.6-17.6v-15.7q0 0 0 0v-219.3c0-3.4-2.8-6.1-6.1-6.1h-44.4c-3.4 0-6.1 2.7-6.1 6.1v240.2c0 18 1.7 31.6 9.9 43.8 10.1 13.9 30.3 21.9 48.8 21.9q1.5 0 2.9 0 0 0 0 0c11.2 0 22.2-1 31.2-4.1 1.9-0.7 8.6-4.1 10-5.5 4.4-4.5 0-10.3-1.1-11.9z"/>
				<path id="&lt;Compound Path&gt;" fill-rule="evenodd" class="s0" d="m441.6 445.8c18.8 20.2 29.2 48.6 29.2 80.3 0 5.4-0.3 11-0.9 15.9-0.3 3.1-2.9 5.5-6 5.5h-154.6c4 30.5 24.5 46.2 57.8 46.2 22.5 0 42-6.7 57.2-23 1.1-1.2 2.7-1.9 4.3-2q0.1 0 0.2 0c1.6 0 2.7 0.6 4.2 1.7 13.2 17.2 26.4 26.1 29 27.8 2.7 1.7 2.6 6.2 0.2 8.6-25.3 26.7-57.7 40.2-96.3 40.2-35.8 0-65.7-11.5-86.6-33.2-19.9-20.7-30.4-49.3-30.4-82.5 0-32.8 10.7-62.4 29.9-83.5 20.4-22.4 49-34.3 82.7-34.3 32.6 0 60.3 11.2 80.1 32.3zm-28.7 57.2c-4.8-26-23.5-41.4-51-41.4-27.3 0-46.9 16-51.5 41.4z"/>
				<path id="&lt;Compound Path&gt;" fill-rule="evenodd" class="s0" d="m902.2 445.8c18.9 20.2 29.2 48.6 29.2 80.3 0 5.4-0.3 11-0.8 15.9-0.3 3.1-3 5.5-6.1 5.5h-154.5c4 30.5 24.5 46.2 57.8 46.2 22.5 0 42-6.7 57.2-23 1.1-1.2 2.6-1.9 4.3-2q0.1 0 0.2 0c1.5 0 2.6 0.6 4.2 1.7 13.2 17.2 26.4 26.1 29 27.8 2.6 1.7 2.5 6.2 0.2 8.6-25.3 26.7-57.7 40.2-96.3 40.2-35.8 0-65.7-11.5-86.6-33.2-19.9-20.7-30.4-49.3-30.4-82.5 0-32.8 10.6-62.4 29.9-83.5 20.4-22.4 49-34.3 82.6-34.3 32.6 0 60.3 11.2 80.1 32.3zm-28.6 57.2c-4.8-26-23.5-41.4-51.1-41.4-27.2 0-46.9 16-51.5 41.4z"/>
				<path id="&lt;Path&gt;" class="s0" d="m259.8 631.8q-0.3-0.3-0.6-0.6-0.3-0.3-0.5-0.5c-10.4-10.9-18.8-23.7-25.1-38.1-0.9-2.3-3.1-3.7-5.6-3.7h-5-22.4-88.9l142.3-182c0.8-1.1 1.3-2.4 1.3-3.8v-35.5c0-3.3-2.8-6.1-6.1-6.1h-66.5-2.6-7.7v-50.8c0-1.7-1.3-3.1-3-3.1h-1.5-1.1-42-1.5-1.1c-1.7 0-3 1.4-3 3.1v50.8h-11-2.6-61.6c-3.4 0-6.1 2.8-6.1 6.1v41.1c0 3.4 2.7 6.1 6.1 6.1h130.5l-141.4 180.4c-0.8 1.1-1.3 2.4-1.3 3.8v37.1c0 3.4 2.8 6.1 6.1 6.1h81.3v50.9c0 1.7 1.4 3 3.1 3h1 1.6 41.9 1.1 1.5c1.7 0 3.1-1.3 3.1-3v-50.9h34.2 43.8 5c2.5 0 4.7-1.5 5.6-3.7 1-2.3 0.5-4.9-1.3-6.7z"/>
			</g>
			<g id="&lt;Group&gt;">
				<path id="&lt;Compound Path&gt;" fill-rule="evenodd" class="s0" d="m930.6 387.6q0-5.6 2.1-10.4 2.1-4.7 5.6-8.2 3.6-3.5 8.3-5.5 4.8-2 10.1-2 5.3 0 10.1 2 4.8 2 8.4 5.4 3.5 3.5 5.6 8.2 2.1 4.7 2.1 10.2 0 5.6-2.1 10.4-2.1 4.8-5.6 8.3-3.6 3.4-8.4 5.4-4.8 2-10.1 2-5.3 0-10.1-2-4.7-2-8.3-5.4-3.5-3.5-5.6-8.2-2.1-4.7-2.1-10.2zm4.2 0q0 4.7 1.7 8.7 1.7 4 4.7 7 3 2.9 7 4.6 3.9 1.7 8.5 1.7 4.6 0 8.6-1.7 4-1.7 7-4.7 3-3 4.7-7 1.7-4.1 1.7-8.9 0-4.6-1.7-8.7-1.7-4-4.7-7-3-3-7-4.6-4-1.7-8.6-1.7-4.6 0-8.5 1.7-4 1.7-7 4.7-3 2.9-4.7 7-1.7 4.1-1.7 8.9zm12.3-15h11q5.4 0 8 2.1 2.6 2 2.6 6.6 0 4-2.3 5.9-2.3 1.9-5.7 2.2l8.7 13.3h-4.6l-8.2-12.9h-5.4v12.9h-4.1zm4.1 13.4h5.2q1.5 0 3-0.1 1.5-0.1 2.6-0.6 1.2-0.5 1.8-1.5 0.7-1 0.7-2.8 0-1.5-0.6-2.5-0.6-0.9-1.6-1.4-0.9-0.5-2.2-0.6-1.2-0.2-2.4-0.2h-6.5z"/>
			</g>
		</g>
	</g>
</svg>