<svg xmlns="http://www.w3.org/2000/svg" width="49" height="23" viewBox="0 0 49 23">
  <g id="Group_526" data-name="Group 526" transform="translate(-314 -24)">
    <g id="Group_254" data-name="Group 254" transform="translate(2.931 -12)">
      <rect id="Rectangle_280" data-name="Rectangle 280" width="49" height="4" rx="2" transform="translate(311.069 55)" fill="#0f76bf"/>
      <rect id="Rectangle_281" data-name="Rectangle 281" width="31" height="4" rx="2" transform="translate(311.069 46)" fill="#54b847"/>
      <rect id="Rectangle_282" data-name="Rectangle 282" width="49" height="4" rx="2" transform="translate(311.069 36)" fill="#0f76bf"/>
    </g>
    <path id="Exclusion_3" data-name="Exclusion 3" d="M11.9,11.325a.955.955,0,0,1-.578-.194L8.782,9.22A5.278,5.278,0,1,1,9.961,7.7L12.476,9.6a.963.963,0,0,1,.189,1.345A.953.953,0,0,1,11.9,11.325ZM5.27,1.352A3.923,3.923,0,1,0,9.192,5.274,3.926,3.926,0,0,0,5.27,1.352Z" transform="translate(350.008 30.012)" fill="#54b847"/>
  </g>
</svg>
