<svg xmlns="http://www.w3.org/2000/svg" width="34.941" height="34.637" viewBox="0 0 34.941 34.637">
  <g id="Group_6" transform="translate(0 0)">
    <path id="Path_14" d="M3050.719,250.9c15.5,0,17.622,2.127,17.622,17.318s-2.127,17.318-17.319,17.318c-15.5,0-17.622-2.127-17.622-17.318S3035.527,250.9,3050.719,250.9Zm0,31.9c13.976,0,15.191-1.215,15.191-14.28,0-13.672-1.519-15.192-15.5-15.192-13.065,0-14.584,1.519-14.584,14.584,0,13.672,1.216,14.888,14.888,14.888Z" transform="translate(-3033.4 -250.9)" fill="#707070"/>
    <path id="Path_15" d="M3051.162,268.131c-3.343,3.342-9.114,3.646-12.153.3-3.343-3.342-3.343-9.115-.3-12.153a8.619,8.619,0,0,1,12.153,0C3053.9,259.32,3054.2,265.093,3051.162,268.131Zm-1.823-1.519c2.126-2.127,1.823-6.684-.3-8.811s-6.685-1.823-8.811.3-1.823,6.684.3,8.811S3047.211,268.739,3049.339,266.612Z" transform="translate(-3027.159 -245.04)" fill="#707070"/>
    <circle id="Ellipse_2" cx="2.127" cy="2.127" r="2.127" transform="translate(24.61 6.077)" fill="#707070"/>
  </g>
</svg>
