<svg id="northfieldBanklogo_REVnorule" xmlns="http://www.w3.org/2000/svg" width="299.77" height="87.499" viewBox="0 0 299.77 87.499">
  <path id="Path_1332" data-name="Path 1332" d="M215.471,112.39C206.121,106.1,117.432,79.056,0,87.075c.007,0,94.369-16.67,214.772-.955l.7,26.262Z" transform="translate(0 -26.02)" fill="#67a25f"/>
  <path id="Path_1333" data-name="Path 1333" d="M34.166,51.222,11.1,21.208V50.543H2.99V3.16H7.043L29.535,31.728V3.16h8.107V51.222Z" transform="translate(-0.98 -1.036)" fill="#0076c0"/>
  <path id="Path_1334" data-name="Path 1334" d="M62.39,39.024q0-7.935,4.578-12.926A15.613,15.613,0,0,1,79.054,21.11q7.895,0,12.261,4.793t4.369,13.121c0,5.552-1.486,9.928-4.45,13.188s-7.024,4.894-12.18,4.894S69.7,55.459,66.773,52.165,62.39,44.5,62.39,39.031m8.4,0q0,11.515,8.268,11.515a7.111,7.111,0,0,0,6.016-3q2.218-2.995,2.218-8.523,0-11.353-8.234-11.353a7.138,7.138,0,0,0-6.03,2.991q-2.238,2.995-2.238,8.362" transform="translate(-20.452 -6.92)" fill="#0076c0"/>
  <path id="Path_1335" data-name="Path 1335" d="M139.1,29.311a8.341,8.341,0,0,0-4.746-1.445,6.46,6.46,0,0,0-4.994,2.554,9.321,9.321,0,0,0-2.178,6.251V56.427H119.08V21.782h8.107v3.186A11.4,11.4,0,0,1,136.2,21.11a12.906,12.906,0,0,1,6.332,1.264L139.1,29.317Z" transform="translate(-39.035 -6.92)" fill="#0076c0"/>
  <path id="Path_1336" data-name="Path 1336" d="M166.073,23.682H162.02V17.216h4.053V10.158L174.18,7.18V17.216h9.552v6.466H174.18v15.2q0,3.731,1.17,5.27t4.087,1.539a10.3,10.3,0,0,0,5.451-1.546v7.428a25.968,25.968,0,0,1-8.046.968c-3.482,0-6.124-.975-7.986-2.937s-2.79-4.739-2.79-8.349V23.682Z" transform="translate(-53.112 -2.354)" fill="#0076c0"/>
  <path id="Path_1337" data-name="Path 1337" d="M228.891,49.507V28.131a6.865,6.865,0,0,0-2-5.149,7.222,7.222,0,0,0-5.236-1.943,8.507,8.507,0,0,0-4.04,1.089A7.5,7.5,0,0,0,214.7,24.6V49.514h-8.2V1.943L214.7,0V17.033q3.136-2.843,8.624-2.85,6.493,0,10.083,3.61t3.583,10.345V49.507h-8.107Z" transform="translate(-67.693)" fill="#0076c0"/>
  <path id="Path_1338" data-name="Path 1338" d="M282.075,8.294A14.385,14.385,0,0,0,278,7.421a4.85,4.85,0,0,0-3.9,1.99,7.562,7.562,0,0,0-1.6,4.887,4.038,4.038,0,0,0,.094.847h7.139v6.661h-7.045V49.8h-8.107V21.805H259.57V15.144h5.014A15.987,15.987,0,0,1,268.356,4.8,11.62,11.62,0,0,1,277.437.86a24.7,24.7,0,0,1,7.024,1.27L282.068,8.3Z" transform="translate(-85.089 -0.282)" fill="#0076c0"/>
  <path id="Path_1339" data-name="Path 1339" d="M301.243,50.212V22.222H296.8V15.56h12.644V50.2h-8.2Zm4.2-48.062a4.507,4.507,0,0,1,3.307,1.371,4.507,4.507,0,0,1,1.371,3.307,4.507,4.507,0,0,1-1.371,3.307,4.674,4.674,0,0,1-6.614,0,4.507,4.507,0,0,1-1.371-3.307,4.507,4.507,0,0,1,1.371-3.307,4.507,4.507,0,0,1,3.307-1.371" transform="translate(-97.294 -0.705)" fill="#0076c0"/>
  <path id="Path_1340" data-name="Path 1340" d="M354.607,41.561h-24.8a8.824,8.824,0,0,0,2.857,6.473,10.352,10.352,0,0,0,7.078,2.312q5.556,0,8.443-2.9l3.146,6.177q-4.285,3.479-12.8,3.475-7.965,0-12.59-4.652t-4.625-12.98c0-5.559,1.694-9.888,5.082-13.282A16.589,16.589,0,0,1,338.589,21.1q7.562,0,12.133,4.5A15.375,15.375,0,0,1,355.3,37.058a22.843,22.843,0,0,1-.679,4.5m-24.508-6.083h17.08q-.847-7.623-8.443-7.623-6.947,0-8.638,7.623" transform="translate(-105.332 -6.917)" fill="#0076c0"/>
  <path id="Path_1341" data-name="Path 1341" d="M378.56,1.943,386.667,0V38.947q0,6.413,3.764,7.636a6.611,6.611,0,0,1-6.386,3.6q-5.485,0-5.485-7.643Z" transform="translate(-124.095)" fill="#0076c0"/>
  <path id="Path_1342" data-name="Path 1342" d="M422.22,49.507V47.4a8.319,8.319,0,0,1-3.4,1.936,14.922,14.922,0,0,1-4.954.84q-7.26,0-11.414-4.6T398.29,32.742q0-8.228,4.779-13.4a15.621,15.621,0,0,1,11.965-5.162,15.9,15.9,0,0,1,7.192,1.613V1.943L430.333,0V49.507h-8.107Zm0-26.4a8.6,8.6,0,0,0-5.418-2.07q-4.87,0-7.495,2.964t-2.628,8.5q0,10.829,10.446,10.822a7.905,7.905,0,0,0,2.87-.7,5.249,5.249,0,0,0,2.225-1.412V23.1Z" transform="translate(-130.563)" fill="#0076c0"/>
  <path id="Path_1343" data-name="Path 1343" d="M335.981,113.033H328.13V87.349c3.462-.168,5.882-.249,7.273-.249a10.1,10.1,0,0,1,6.245,1.714,5.8,5.8,0,0,1,2.252,4.9c0,2.124-1.076,3.65-3.22,4.84a7.251,7.251,0,0,1,2.138,12.422,10.806,10.806,0,0,1-6.836,2.057M332.667,91V97.19c.7.047,1.438.067,2.218.067,2.978,0,4.477-1.123,4.477-3.368q0-2.985-4.067-2.985c-.719,0-1.593.034-2.622.087m0,9.727v8.47c.928.081,1.674.121,2.245.121a7.426,7.426,0,0,0,4.43-1.035,4,4,0,0,0,1.378-3.428,3.792,3.792,0,0,0-1.284-3.186q-1.281-1-4.477-.995c-.444,0-1.21.02-2.3.054" transform="translate(-107.564 -28.552)" fill="#0076c0"/>
  <path id="Path_1344" data-name="Path 1344" d="M369.423,114.448a4.243,4.243,0,0,1-2.09,1.613,7.936,7.936,0,0,1-3.106.625,7.026,7.026,0,0,1-4.786-1.519,5.441,5.441,0,0,1-1.741-4.315,6.032,6.032,0,0,1,2.447-5.109q2.44-1.845,6.957-1.849a8.3,8.3,0,0,1,1.822.242c0-2.178-1.4-3.274-4.194-3.274a9.2,9.2,0,0,0-4.141.834l-.948-3.421a12.487,12.487,0,0,1,5.384-1.076q4.3,0,6.292,1.956t2,7.414v4.02c0,2.507.5,4.08,1.506,4.719a2.328,2.328,0,0,1-1.21,1.149,4.993,4.993,0,0,1-1.519.215,2.4,2.4,0,0,1-1.687-.706,3.546,3.546,0,0,1-1-1.533m-.437-6.991a11.169,11.169,0,0,0-1.687-.195c-3.469,0-5.2,1.136-5.2,3.388q0,2.521,2.931,2.521,3.952,0,3.952-3.952v-1.754Z" transform="translate(-117.257 -31.863)" fill="#0076c0"/>
  <path id="Path_1345" data-name="Path 1345" d="M400.183,116.344V105.481a5.441,5.441,0,0,0-.921-3.509,3.719,3.719,0,0,0-3.018-1.109,4.664,4.664,0,0,0-2.064.544,4.764,4.764,0,0,0-1.714,1.351v13.585h-4.4v-18.8h3.166l.807,1.754a6.575,6.575,0,0,1,5.29-2.1,6.906,6.906,0,0,1,5.3,2.01,7.726,7.726,0,0,1,1.943,5.606v11.528h-4.4Z" transform="translate(-127.213 -31.863)" fill="#0076c0"/>
  <path id="Path_1346" data-name="Path 1346" d="M431.652,112.581l-5.519-8.51-2.1,2.225v6.285h-4.4V86.775l4.4-1.055v15.252l6.245-7.192h5.277l-6.339,7.125,7.656,11.676Z" transform="translate(-137.562 -28.1)" fill="#0076c0"/>
  <path id="Path_1347" data-name="Path 1347" d="M214.673,117.641S133.3,83.709,5.83,93.839l20.851,17.867c48.915-11.5,124.006-10.735,187.992,5.935" transform="translate(-1.911 -30.142)" fill="#0076c0"/>
</svg>
