<svg xmlns="http://www.w3.org/2000/svg" width="34.636" height="28.26" viewBox="0 0 34.636 28.26">
  <path id="Path_20" d="M2905.229,273.033a8.063,8.063,0,0,1-6.684-4.861h3.038a7.476,7.476,0,0,1-5.469-6.988l3.039.911v-.3a5.907,5.907,0,0,1-2.734-4.254,7.568,7.568,0,0,1,.911-5.165,20.6,20.6,0,0,0,14.584,7.292v-2.431a6.919,6.919,0,0,1,7.9-6.077,9.416,9.416,0,0,1,3.95,1.823,1.118,1.118,0,0,0,.912.3c1.216-.3,2.431-.911,3.343-1.215a.94.94,0,0,0,.607-.3,8.3,8.3,0,0,1-2.734,3.646,8.088,8.088,0,0,0,3.646-.912,8.62,8.62,0,0,1-2.734,3.038,1.67,1.67,0,0,0-.912,1.519,20.461,20.461,0,0,1-6.077,14.584,17.978,17.978,0,0,1-11.241,5.469,19.9,19.9,0,0,1-12.457-2.127c-.3-.3-.912-.608-1.215-.911a16.821,16.821,0,0,0,5.469-.608,12.2,12.2,0,0,0,4.859-2.431Z" transform="translate(-2894.9 -251.072)" fill="#707070"/>
</svg>
