<svg xmlns="http://www.w3.org/2000/svg" width="456.375" height="322.97" viewBox="0 0 456.375 322.97">
  <path id="Intersection_43" data-name="Intersection 43" d="M443.971,321.97q.578-4.694.985-9.463a226.307,226.307,0,0,0-51.565-163.728,213.571,213.571,0,0,0-24.057-24.595v2.8q0,81.266-.037,162.531c-.007,5.634.569,11.29-.613,16.92-.688,3.28-.715,6.7-1.231,10.024q-.432,2.781-.954,5.514h-9.676a140.261,140.261,0,0,0,2.818-26.94c.626-74.406-57.469-134.989-129.56-136.175q-1.107-.018-2.211-.018h0c-72.664,0-128.966,59.128-131.8,128.7a143.01,143.01,0,0,0,2.706,34.438h-12.7q-.01-11.536-.028-23.07a180.721,180.721,0,0,1,1.527-23.674c4.4-33.808,18.424-62.821,42.723-86.093C165.626,155.309,207.7,142.479,255,151.976c48.216,9.679,82.243,38.9,102.7,84.656.572,1.28,1.09,2.586,1.633,3.88l.328-.094v-2.131q0-59.738.039-119.477a4.627,4.627,0,0,0-2.023-4.243c-32.257-24.259-68.222-38.643-108.057-42.793a215.583,215.583,0,0,0-22.353-1.17h-.005a208.241,208.241,0,0,0-52.183,6.631Q113.422,93.131,69.587,140.4A220.64,220.64,0,0,0,18.276,232.25a211.531,211.531,0,0,0-8.223,59.433A290.324,290.324,0,0,0,11.5,321.97H0q.041-14.553.151-29.1A236.244,236.244,0,0,1,22.359,193.6a230.2,230.2,0,0,1,44.383-64.308C98.287,97.165,135.768,76.01,179.275,66.21a215.977,215.977,0,0,1,44.341-5.245q73.621-1.106,134.217,41.716c.475.335.962.651,1.736,1.173V0h9.766q0,54.5-.032,108.986a4.594,4.594,0,0,0,1.807,3.991,231.114,231.114,0,0,1,59.235,74.771,233.914,233.914,0,0,1,14.581,36.444,1.971,1.971,0,0,0,.765,1.151V0h9.681q.03,151.258-.153,302.511a161.6,161.6,0,0,1-1.27,19.459Z" transform="translate(0.502 0.5)" fill="#e8edec" stroke="rgba(0,0,0,0)" stroke-miterlimit="10" stroke-width="1" opacity="0.238"/>
</svg>
