<svg xmlns="http://www.w3.org/2000/svg" width="20.665" height="13.782" viewBox="0 0 20.665 13.782">
  <path id="Icon_ionic-ios-arrow-round-forward" data-name="Icon ionic-ios-arrow-round-forward" d="M21.053,11.516a.938.938,0,0,0-.007,1.321l4.364,4.371H8.8a.933.933,0,0,0,0,1.866H25.4l-4.364,4.371a.945.945,0,0,0,.007,1.321.929.929,0,0,0,1.314-.007L28.274,18.8h0a1.048,1.048,0,0,0,.194-.294.891.891,0,0,0,.072-.359.936.936,0,0,0-.266-.653L22.36,11.537A.914.914,0,0,0,21.053,11.516Z" transform="translate(-7.875 -11.252)" fill="#015844"/>
</svg>
