<svg xmlns="http://www.w3.org/2000/svg" width="37.5" height="32" viewBox="0 0 37.5 32">
  <g id="Group_2791" data-name="Group 2791" transform="translate(-327.5 -9.422)">
    <rect id="Rectangle_8" data-name="Rectangle 8" width="37" height="6" transform="translate(328 35.422)" fill="#005844"/>
    <rect id="Rectangle_159" data-name="Rectangle 159" width="16.5" height="6" transform="translate(348.5 22.422)" fill="#005844"/>
    <rect id="Rectangle_160" data-name="Rectangle 160" width="37" height="6" transform="translate(328 9.422)" fill="#005844"/>
    <path id="Icon_ionic-ios-search" data-name="Icon ionic-ios-search" d="M19.134,18.233l-4.118-4.157a5.869,5.869,0,1,0-.891.9l4.091,4.13a.634.634,0,0,0,.895.023A.638.638,0,0,0,19.134,18.233Zm-8.731-3.2a4.634,4.634,0,1,1,3.278-1.357A4.606,4.606,0,0,1,10.4,15.028Z" transform="translate(323.5 13.523)" fill="#005844" stroke="#005844" stroke-width="1"/>
  </g>
</svg>
