<svg xmlns="http://www.w3.org/2000/svg" width="40" height="39.999" viewBox="0 0 40 39.999">
  <path id="Icon_awesome-linkedin-in" data-name="Icon awesome-linkedin-in" d="M8.954,40H.661V13.294H8.954ZM4.8,9.652A4.826,4.826,0,1,1,9.605,4.8,4.843,4.843,0,0,1,4.8,9.652ZM39.991,40H31.716V27c0-3.1-.062-7.071-4.312-7.071-4.312,0-4.972,3.366-4.972,6.848V40H14.148V13.294H22.1v3.643h.116a8.714,8.714,0,0,1,7.846-4.313C38.457,12.625,40,18.152,40,25.33V40Z" transform="translate(0 -0.001)" fill="#034638"/>
</svg>
