<svg xmlns="http://www.w3.org/2000/svg" width="13.919" height="21.705" viewBox="0 0 13.919 21.705">
  <path id="Icon_ionic-ios-arrow-round-forward" data-name="Icon ionic-ios-arrow-round-forward" d="M21.717,11.518a.922.922,0,0,0-.008,1.334l4.584,4.415H8.848a.943.943,0,1,0,0,1.885H26.285L21.7,23.566a.928.928,0,0,0,.008,1.334,1,1,0,0,0,1.38-.007L29.3,18.876h0a1.056,1.056,0,0,0,.2-.3.87.87,0,0,0,.075-.362.926.926,0,0,0-.279-.66L23.089,11.54A.987.987,0,0,0,21.717,11.518Z" transform="translate(25.171 -7.875) rotate(90)" fill="#015844"/>
</svg>
