<svg xmlns="http://www.w3.org/2000/svg" width="30.706" height="30.488" viewBox="0 0 30.706 30.488">
  <g id="Group_2724" data-name="Group 2724" transform="translate(-532.559 -2270.246)">
    <g id="Rectangle_1227" data-name="Rectangle 1227" transform="translate(532.559 2270.246)" fill="none" stroke="#f9fffd" stroke-width="2">
      <rect width="30.706" height="30.488" rx="15.244" stroke="none"/>
      <rect x="1" y="1" width="28.706" height="28.488" rx="14.244" fill="none"/>
    </g>
    <path id="Icon_ionic-ios-arrow-round-forward" data-name="Icon ionic-ios-arrow-round-forward" d="M17.313,11.439a.664.664,0,0,0-.005.939l3.125,3.108H8.538a.664.664,0,0,0,0,1.327h11.89L17.3,19.922a.665.665,0,0,0,.946.934l4.236-4.236h0a.745.745,0,0,0,.139-.209.629.629,0,0,0,.051-.255.663.663,0,0,0-.19-.464l-4.236-4.236A.658.658,0,0,0,17.313,11.439Z" transform="translate(532.637 2269.34)" fill="#f8fffd"/>
  </g>
</svg>
