<svg id="Allpoint_Logo_Vector" data-name="Allpoint Logo Vector" xmlns="http://www.w3.org/2000/svg" width="91.439" height="47.001" viewBox="0 0 91.439 47.001">
  <g id="Group_142" data-name="Group 142" transform="translate(0 0)">
    <g id="Group_140" data-name="Group 140">
      <g id="Group_138" data-name="Group 138">
        <path id="Path_308" data-name="Path 308" d="M120.439,180.184a3.231,3.231,0,0,1-3.219,3.221h-85A3.231,3.231,0,0,1,29,180.184v-40.56a3.231,3.231,0,0,1,3.22-3.219h85a3.23,3.23,0,0,1,3.219,3.219Z" transform="translate(-29 -136.404)" fill="#009f3f"/>
      </g>
      <g id="Group_139" data-name="Group 139" transform="translate(5.871 3.489)">
        <path id="Path_309" data-name="Path 309" d="M323.59,160.432c-2.311,3.688-5,1.811-5,1.811l.477,2.073s2.691,1.879,5-1.809Z" transform="translate(-264.55 -158.95)" fill="#ffe700"/>
        <path id="Path_310" data-name="Path 310" d="M323.789,187.132c-3.687-2.311-1.813-5-1.813-5l-2.069.477s-1.88,2.693,1.809,5Z" transform="translate(-265.216 -176.158)" fill="#ffe700"/>
        <path id="Path_311" data-name="Path 311" d="M292.809,187.329c2.31-3.688,5.006-1.809,5.006-1.809l-.479-2.077s-2.691-1.875-5,1.813l.476,2.072" transform="translate(-243.727 -176.823)" fill="#ffe700"/>
        <path id="Path_312" data-name="Path 312" d="M296.88,156.357c3.689,2.311,1.809,5,1.809,5l2.077-.475s1.877-2.693-1.811-5Z" transform="translate(-247.333 -155.343)" fill="#ffe700"/>
        <path id="Path_313" data-name="Path 313" d="M323.3,154.558a1.29,1.29,0,1,1-1.289-1.289,1.289,1.289,0,0,1,1.289,1.289" transform="translate(-266.24 -153.269)" fill="#ffe700"/>
        <path id="Path_314" data-name="Path 314" d="M66.2,201.821H63.81l.114-.634c.489-2.67.891-4.852,1.064-6.691.2,1.838.635,4.02,1.091,6.663l.117.661m6.491,7.638-5.171-20.1H62.574l-5.2,20.1h4.939l.718-3.735H67l.747,3.735Z" transform="translate(-57.379 -181.891)" fill="#fff"/>
        <path id="Path_315" data-name="Path 315" d="M131.639,206.27V186.26l4.421-.925V206.27Z" transform="translate(-116.276 -178.701)" fill="#fff"/>
        <path id="Path_316" data-name="Path 316" d="M159.673,206.27V186.26l4.422-.925V206.27Z" transform="translate(-138.511 -178.701)" fill="#fff"/>
        <path id="Path_317" data-name="Path 317" d="M195.288,220.017c0,3.56-.4,4.077-1.206,4.077a1.788,1.788,0,0,1-1.294-.548v-7.178a1.874,1.874,0,0,1,1.264-.516c.832,0,1.236.548,1.236,4.165m4.394-.116c0-5.284-1.523-7.783-4.077-7.783a3.886,3.886,0,0,0-2.817,1.209v-.891h-4.422v20.617l4.422-.926v-5.447a4.047,4.047,0,0,0,2.7,1.145c2.7,0,4.194-2.468,4.194-7.924" transform="translate(-161.268 -199.944)" fill="#fff"/>
        <path id="Path_318" data-name="Path 318" d="M255.216,220c0,3.072-.432,4.135-1.436,4.135-1.064,0-1.463-1.064-1.463-4.192,0-3.1.4-4.107,1.436-4.107s1.463.948,1.463,4.163m4.392-.057c0-5.141-2.124-7.811-5.829-7.811-3.851,0-5.859,2.786-5.859,7.895,0,5.14,2.154,7.811,5.8,7.811,3.791,0,5.888-2.727,5.888-7.895" transform="translate(-208.502 -199.952)" fill="#fff"/>
        <rect id="Rectangle_170" data-name="Rectangle 170" width="4.422" height="15.075" transform="translate(51.995 12.49)" fill="#fff"/>
        <path id="Path_319" data-name="Path 319" d="M345.154,227.52v-9.908c0-1.15-.373-1.693-1.092-1.693a2,2,0,0,0-1.377.575V227.52h-4.422V212.444h4.422v.861a4.354,4.354,0,0,1,3.073-1.177c2.5,0,3.818,1.493,3.818,4.709V227.52Z" transform="translate(-280.154 -199.952)" fill="#fff"/>
        <path id="Path_320" data-name="Path 320" d="M403.385,205.9a9.756,9.756,0,0,1-3.442.683c-2.326,0-3.53-1.209-3.53-4.022v-7.721h-1.665v-3.647h1.665v-4.961l4.3-.9v5.859h2.559v3.647h-2.559v6.6c0,.917.345,1.263,1.007,1.263a2.855,2.855,0,0,0,1.665-.574Z" transform="translate(-324.954 -178.702)" fill="#fff"/>
        <path id="Path_321" data-name="Path 321" d="M439.441,213.827v1.379h-.186v-1.379h-.449v-.161h1.08v.161Zm1.877,1.379v-1.189c-.017.061-.059.173-.094.259l-.4.973-.4-.973a1.94,1.94,0,0,1-.093-.259v1.189h-.173v-1.541h.2l.364.923c.038.093.086.216.1.282.018-.066.063-.189.1-.282l.368-.923h.2v1.541Z" transform="translate(-359.898 -201.171)" fill="#fff"/>
      </g>
    </g>
    <g id="Group_141" data-name="Group 141" transform="translate(5.797 39.893)">
      <path id="Path_322" data-name="Path 322" d="M58.652,333.157l-.153-.68h-.73l-.154.68h-.6l.832-3.256h.567l.832,3.256Zm-.367-1.611c-.055-.25-.13-.627-.153-.791-.024.168-.089.517-.149.782l-.089.4h.48Z" transform="translate(-57.02 -329.764)" fill="#fff"/>
      <path id="Path_323" data-name="Path 323" d="M71.264,336.079V334.5c0-.3-.032-.4-.214-.4a.431.431,0,0,0-.307.2v1.777h-.549V334.5c0-.3-.032-.4-.214-.4a.432.432,0,0,0-.308.2v1.777h-.548v-2.442h.548v.167a.623.623,0,0,1,.438-.218.537.537,0,0,1,.535.27.717.717,0,0,1,.535-.27c.521,0,.632.321.632.894v1.6h-.549Z" transform="translate(-66.62 -332.686)" fill="#fff"/>
      <path id="Path_324" data-name="Path 324" d="M85.261,335.062H84.029c.023.377.176.545.39.545a.408.408,0,0,0,.382-.215l.391.294a.883.883,0,0,1-.782.442c-.6,0-.935-.517-.935-1.271,0-.818.372-1.274.9-1.274.614,0,.893.6.893,1.274C85.27,334.923,85.266,335,85.261,335.062Zm-.889-.985c-.2,0-.316.176-.344.535h.693C84.694,334.314,84.61,334.077,84.373,334.077Z" transform="translate(-78.002 -332.685)" fill="#fff"/>
      <path id="Path_325" data-name="Path 325" d="M94.846,334.246a.49.49,0,0,0-.321-.121.423.423,0,0,0-.354.209v1.745h-.548v-2.442h.548v.166a.638.638,0,0,1,.447-.218.6.6,0,0,1,.386.126Z" transform="translate(-86.051 -332.686)" fill="#fff"/>
      <path id="Path_326" data-name="Path 326" d="M101.35,330.013a.348.348,0,1,1,.348-.348A.351.351,0,0,1,101.35,330.013Zm-.275,2.68v-2.442h.549v2.442Z" transform="translate(-91.902 -329.3)" fill="#fff"/>
      <path id="Path_327" data-name="Path 327" d="M106.844,334.436c-.084-.2-.182-.33-.345-.33-.246,0-.348.293-.348.749s.111.754.367.754c.158,0,.274-.154.354-.359l.4.294a.829.829,0,0,1-.763.586c-.54,0-.921-.442-.921-1.266s.386-1.279.917-1.279a.789.789,0,0,1,.776.553Z" transform="translate(-95.544 -332.686)" fill="#fff"/>
      <path id="Path_328" data-name="Path 328" d="M115.616,336.078v-.168a.577.577,0,0,1-.437.22c-.428,0-.721-.326-.721-.852a.744.744,0,0,1,.748-.815.669.669,0,0,1,.41.1v-.186a.265.265,0,0,0-.293-.3.8.8,0,0,0-.493.15l-.223-.4a1.258,1.258,0,0,1,.754-.238c.567,0,.8.279.8.814v1.68h-.549Zm0-1.033a.45.45,0,0,0-.335-.117c-.154,0-.265.135-.265.341,0,.236.1.371.279.371a.393.393,0,0,0,.321-.2Z" transform="translate(-102.575 -332.686)" fill="#fff"/>
      <path id="Path_329" data-name="Path 329" d="M125.047,331.077h-.377l.061-1.176h.651Z" transform="translate(-110.675 -329.764)" fill="#fff"/>
      <path id="Path_330" data-name="Path 330" d="M129.042,336.129a1.176,1.176,0,0,1-.772-.265l.2-.471a1,1,0,0,0,.586.215c.172,0,.255-.08.255-.2,0-.135-.1-.2-.442-.368a.772.772,0,0,1-.53-.753.688.688,0,0,1,.754-.7,1.17,1.17,0,0,1,.688.223l-.19.447a.972.972,0,0,0-.512-.148c-.126,0-.2.07-.2.167s.074.177.409.336a.79.79,0,0,1,.563.753A.727.727,0,0,1,129.042,336.129Z" transform="translate(-113.53 -332.685)" fill="#fff"/>
      <path id="Path_331" data-name="Path 331" d="M142.305,333.157V329.9h.582v2.688h1.019v.568Z" transform="translate(-124.662 -329.764)" fill="#fff"/>
      <path id="Path_332" data-name="Path 332" d="M152.013,336.078v-.168a.577.577,0,0,1-.437.22c-.428,0-.721-.326-.721-.852a.744.744,0,0,1,.748-.815.669.669,0,0,1,.41.1v-.186a.265.265,0,0,0-.293-.3.8.8,0,0,0-.493.15l-.223-.4a1.258,1.258,0,0,1,.754-.238c.567,0,.8.279.8.814v1.68h-.549Zm0-1.033a.449.449,0,0,0-.335-.117c-.154,0-.265.135-.265.341,0,.236.1.371.279.371a.393.393,0,0,0,.321-.2Z" transform="translate(-131.443 -332.686)" fill="#fff"/>
      <path id="Path_333" data-name="Path 333" d="M162.134,334.246a.491.491,0,0,0-.321-.121.423.423,0,0,0-.354.209v1.745h-.548v-2.442h.548v.166a.638.638,0,0,1,.447-.218.6.6,0,0,1,.386.126Z" transform="translate(-139.419 -332.686)" fill="#fff"/>
      <path id="Path_334" data-name="Path 334" d="M168.357,336.976l-.149-.409c.572-.106.656-.214.656-.656a.66.66,0,0,1-.47.22c-.456,0-.712-.411-.712-1.271,0-.744.223-1.274.758-1.274a.593.593,0,0,1,.423.186v-.135h.549v2.191C169.413,336.557,169.194,336.865,168.357,336.976Zm.507-2.67a.44.44,0,0,0-.349-.209c-.2,0-.274.176-.274.744,0,.535.056.777.284.777a.462.462,0,0,0,.339-.2v-1.108Z" transform="translate(-144.789 -332.686)" fill="#fff"/>
      <path id="Path_335" data-name="Path 335" d="M179.3,335.062h-1.233c.023.377.176.545.39.545a.408.408,0,0,0,.382-.215l.391.294a.883.883,0,0,1-.782.442c-.6,0-.935-.517-.935-1.271,0-.818.372-1.274.9-1.274.614,0,.893.6.893,1.274C179.308,334.923,179.3,335,179.3,335.062Zm-.889-.985c-.2,0-.317.176-.344.535h.693C178.732,334.314,178.648,334.077,178.411,334.077Z" transform="translate(-152.586 -332.685)" fill="#fff"/>
      <path id="Path_336" data-name="Path 336" d="M187.845,336.129a1.177,1.177,0,0,1-.772-.265l.2-.471a1,1,0,0,0,.586.215c.172,0,.255-.08.255-.2,0-.135-.1-.2-.442-.368a.772.772,0,0,1-.53-.753.688.688,0,0,1,.754-.7,1.17,1.17,0,0,1,.688.223l-.19.447a.972.972,0,0,0-.512-.148c-.126,0-.2.07-.2.167s.074.177.409.336a.79.79,0,0,1,.563.753A.727.727,0,0,1,187.845,336.129Z" transform="translate(-160.168 -332.685)" fill="#fff"/>
      <path id="Path_337" data-name="Path 337" d="M196.775,332.578a.858.858,0,0,1-.418.108c-.4,0-.591-.215-.591-.75v-1.223h-.3v-.521h.3v-.674l.548-.276v.95h.493v.521h-.493v1.209c0,.182.07.242.2.242a.548.548,0,0,0,.326-.117Z" transform="translate(-166.823 -329.242)" fill="#fff"/>
      <path id="Path_338" data-name="Path 338" d="M208.673,333.011a1.219,1.219,0,0,1-.973-.512l.4-.424a.806.806,0,0,0,.6.373.323.323,0,0,0,.363-.353c0-.186-.116-.335-.5-.53-.483-.252-.776-.5-.776-1.038a.863.863,0,0,1,.911-.874,1.027,1.027,0,0,1,.889.465l-.386.386c-.191-.215-.293-.289-.517-.289a.283.283,0,0,0-.307.285c0,.2.111.315.465.506.563.3.809.526.809,1.074A.9.9,0,0,1,208.673,333.011Z" transform="translate(-176.528 -329.567)" fill="#fff"/>
      <path id="Path_339" data-name="Path 339" d="M219.287,336.275v-.168a.627.627,0,0,1-.455.22c-.521,0-.651-.321-.651-.894v-1.6h.549v1.582c0,.3.037.4.232.4a.461.461,0,0,0,.325-.2v-1.777h.549v2.442h-.549Z" transform="translate(-184.84 -332.883)" fill="#fff"/>
      <path id="Path_340" data-name="Path 340" d="M229.327,334.246a.491.491,0,0,0-.321-.121.423.423,0,0,0-.354.209v1.745H228.1v-2.442h.548v.166a.638.638,0,0,1,.447-.218.6.6,0,0,1,.386.126Z" transform="translate(-192.711 -332.686)" fill="#fff"/>
      <path id="Path_341" data-name="Path 341" d="M235.972,334.436c-.084-.2-.182-.33-.345-.33-.246,0-.348.293-.348.749s.111.754.367.754c.158,0,.274-.154.354-.359l.4.294a.829.829,0,0,1-.763.586c-.54,0-.921-.442-.921-1.266s.386-1.279.917-1.279a.788.788,0,0,1,.776.553Z" transform="translate(-197.959 -332.686)" fill="#fff"/>
      <path id="Path_342" data-name="Path 342" d="M245.389,332.633v-1.582c0-.3-.037-.4-.233-.4a.458.458,0,0,0-.326.2v1.777h-.548v-3.117l.548-.276v1.117a.629.629,0,0,1,.456-.218c.521,0,.651.321.651.894v1.6h-.549Z" transform="translate(-205.542 -329.241)" fill="#fff"/>
      <path id="Path_343" data-name="Path 343" d="M254.619,336.078v-.168a.576.576,0,0,1-.436.22c-.429,0-.722-.326-.722-.852a.744.744,0,0,1,.749-.815.666.666,0,0,1,.409.1v-.186a.265.265,0,0,0-.292-.3.807.807,0,0,0-.494.15l-.223-.4a1.258,1.258,0,0,1,.753-.238c.568,0,.8.279.8.814v1.68h-.549Zm0-1.033a.447.447,0,0,0-.335-.117c-.153,0-.265.135-.265.341,0,.236.1.371.279.371a.393.393,0,0,0,.321-.2Z" transform="translate(-212.822 -332.686)" fill="#fff"/>
      <path id="Path_344" data-name="Path 344" d="M264.741,334.246a.49.49,0,0,0-.321-.121.42.42,0,0,0-.353.209v1.745h-.548v-2.442h.548v.166a.637.637,0,0,1,.447-.218.607.607,0,0,1,.386.126Z" transform="translate(-220.799 -332.686)" fill="#fff"/>
      <path id="Path_345" data-name="Path 345" d="M270.961,336.976l-.15-.409c.573-.106.656-.214.656-.656a.658.658,0,0,1-.47.22c-.456,0-.712-.411-.712-1.271,0-.744.224-1.274.759-1.274a.592.592,0,0,1,.423.186v-.135h.55v2.191C272.017,336.557,271.8,336.865,270.961,336.976Zm.506-2.67a.44.44,0,0,0-.348-.209c-.2,0-.274.176-.274.744,0,.535.056.777.283.777a.462.462,0,0,0,.339-.2Z" transform="translate(-226.166 -332.686)" fill="#fff"/>
      <path id="Path_346" data-name="Path 346" d="M281.906,335.062h-1.233c.023.377.177.545.391.545a.409.409,0,0,0,.382-.215l.391.294a.884.884,0,0,1-.782.442c-.6,0-.935-.517-.935-1.271,0-.818.371-1.274.9-1.274.615,0,.894.6.894,1.274C281.916,334.923,281.911,335,281.906,335.062Zm-.889-.985c-.2,0-.315.176-.344.535h.694C281.338,334.314,281.255,334.077,281.017,334.077Z" transform="translate(-233.966 -332.685)" fill="#fff"/>
      <path id="Path_347" data-name="Path 347" d="M290.037,336.672V336.1h1.186v.568Z" transform="translate(-241.831 -334.684)" fill="#fff"/>
      <path id="Path_348" data-name="Path 348" d="M298.272,330.463v.721h.762v.562h-.762v1.411h-.582V329.9h1.717v.562Z" transform="translate(-247.901 -329.764)" fill="#fff"/>
      <path id="Path_349" data-name="Path 349" d="M306.317,334.246a.49.49,0,0,0-.321-.121.42.42,0,0,0-.353.209v1.745h-.548v-2.442h.548v.166a.637.637,0,0,1,.447-.218.607.607,0,0,1,.386.126Z" transform="translate(-253.774 -332.686)" fill="#fff"/>
      <path id="Path_350" data-name="Path 350" d="M313.492,335.062h-1.232c.023.377.176.545.389.545a.408.408,0,0,0,.382-.215l.391.294a.883.883,0,0,1-.782.442c-.6,0-.935-.517-.935-1.271,0-.818.373-1.274.9-1.274.614,0,.892.6.892,1.274C313.5,334.923,313.5,335,313.492,335.062Zm-.888-.985c-.2,0-.317.176-.344.535h.692C312.926,334.314,312.841,334.077,312.6,334.077Z" transform="translate(-259.018 -332.685)" fill="#fff"/>
      <path id="Path_351" data-name="Path 351" d="M323.189,335.062h-1.232c.023.377.176.545.389.545a.407.407,0,0,0,.382-.215l.391.294a.883.883,0,0,1-.782.442c-.6,0-.935-.517-.935-1.271,0-.818.373-1.274.9-1.274.614,0,.892.6.892,1.274C323.2,334.923,323.194,335,323.189,335.062Zm-.888-.985c-.2,0-.317.176-.344.535h.692C322.623,334.314,322.538,334.077,322.3,334.077Z" transform="translate(-266.709 -332.685)" fill="#fff"/>
      <path id="Path_352" data-name="Path 352" d="M337.185,333.157l-.153-.68h-.73l-.155.68h-.6l.833-3.256h.567l.833,3.256Zm-.368-1.611c-.055-.25-.13-.627-.153-.791-.023.168-.088.517-.149.782l-.089.4h.48Z" transform="translate(-277.931 -329.764)" fill="#fff"/>
      <path id="Path_353" data-name="Path 353" d="M346.738,330.459v2.7h-.58v-2.7h-.674V329.9h1.93v.558Z" transform="translate(-285.807 -329.764)" fill="#fff"/>
      <path id="Path_354" data-name="Path 354" d="M356.992,333.157v-1.052c0-.386,0-.744.009-.986-.065.232-.171.6-.293.968l-.377,1.153-.377-1.153c-.115-.368-.227-.736-.293-.968,0,.242.009.6.009.986v1.052h-.521V329.9h.586l.386,1.2a7.663,7.663,0,0,1,.218.735c.033-.164.126-.447.22-.735l.385-1.2h.577v3.256Z" transform="translate(-293.474 -329.764)" fill="#fff"/>
      <path id="Path_355" data-name="Path 355" d="M374.967,333.157l-.6-1.451c-.083-.2-.186-.47-.247-.661,0,.2.009.535.009.739v1.373h-.53V329.9h.586l.573,1.427c.079.2.2.5.256.679,0-.2-.02-.553-.02-.758V329.9h.53v3.256h-.558Z" transform="translate(-308.107 -329.764)" fill="#fff"/>
      <path id="Path_356" data-name="Path 356" d="M386.391,335.062h-1.233c.023.377.177.545.391.545a.409.409,0,0,0,.382-.215l.391.294a.883.883,0,0,1-.782.442c-.6,0-.935-.517-.935-1.271,0-.818.371-1.274.9-1.274.615,0,.894.6.894,1.274C386.4,334.923,386.4,335,386.391,335.062Zm-.889-.985c-.2,0-.315.176-.344.535h.694C385.822,334.314,385.739,334.077,385.5,334.077Z" transform="translate(-316.835 -332.685)" fill="#fff"/>
      <path id="Path_357" data-name="Path 357" d="M395.276,332.578a.86.86,0,0,1-.418.108c-.4,0-.591-.215-.591-.75v-1.223h-.3v-.521h.3v-.674l.548-.276v.95h.492v.521h-.492v1.209c0,.182.07.242.2.242a.55.55,0,0,0,.326-.117Z" transform="translate(-324.259 -329.242)" fill="#fff"/>
      <path id="Path_358" data-name="Path 358" d="M403.219,336.276h-.409l-.177-.847c-.045-.218-.12-.6-.144-.768-.023.168-.1.55-.144.777l-.167.838h-.411l-.539-2.442h.5l.126.717c.041.232.1.623.126.791.027-.168.106-.564.158-.786l.158-.721h.391l.159.721c.05.223.13.618.158.786.023-.168.083-.559.126-.791l.126-.717h.5Z" transform="translate(-330.02 -332.884)" fill="#fff"/>
      <path id="Path_359" data-name="Path 359" d="M414.781,336.13c-.55,0-.926-.442-.926-1.266s.38-1.279.93-1.279.921.447.921,1.27S415.325,336.13,414.781,336.13Zm0-2.024c-.265,0-.363.293-.363.749s.108.754.373.754.362-.335.362-.745C415.147,334.414,415.037,334.106,414.776,334.106Z" transform="translate(-340.035 -332.686)" fill="#fff"/>
      <path id="Path_360" data-name="Path 360" d="M425.492,334.246a.493.493,0,0,0-.321-.121.425.425,0,0,0-.355.209v1.745h-.548v-2.442h.548v.166a.64.64,0,0,1,.447-.218.6.6,0,0,1,.386.126Z" transform="translate(-348.293 -332.686)" fill="#fff"/>
      <path id="Path_361" data-name="Path 361" d="M433.03,332.633l-.363-1.121-.218.357v.764H431.9v-3.117l.548-.276v1.532c0,.135,0,.209,0,.344a3.8,3.8,0,0,1,.186-.348l.339-.577h.6l-.53.8.558,1.647h-.571Z" transform="translate(-354.346 -329.241)" fill="#fff"/>
    </g>
  </g>
</svg>
