<svg xmlns="http://www.w3.org/2000/svg" width="37.5" height="37.5" viewBox="0 0 37.5 37.5">
  <g id="Group_594" data-name="Group 594" transform="translate(-8.631 -5.078)">
    <path id="Path_5906" data-name="Path 5906" d="M18.5,0A18.5,18.5,0,1,0,37,18.5,18.52,18.52,0,0,0,18.5,0m0,35.238A16.738,16.738,0,1,1,35.238,18.5,16.759,16.759,0,0,1,18.5,35.238" transform="translate(8.881 5.328)" fill="#012169" stroke="#012169" stroke-width="0.5"/>
    <path id="Path_5907" data-name="Path 5907" d="M188.581,211.044l-6.943-7.129a.85.85,0,0,0-1.225,0,.906.906,0,0,0,0,1.258l5.452,5.6-15.232,0a.89.89,0,0,0,0,1.779h15.232l-5.452,5.6a.906.906,0,0,0,0,1.258.842.842,0,0,0,1.221,0l6.943-7.129a.794.794,0,0,0,.173-.276.891.891,0,0,0,.064-.342.924.924,0,0,0-.064-.342,1.013,1.013,0,0,0-.173-.276Z" transform="translate(-151.916 -187.835)" fill="#012169" stroke="#012169" stroke-width="0.5"/>
  </g>
</svg>
