<svg xmlns="http://www.w3.org/2000/svg" xmlns:xlink="http://www.w3.org/1999/xlink" width="36.086" height="36.23" viewBox="0 0 36.086 36.23">
  <defs>
    <clipPath id="clip-path">
      <rect id="Rectangle_715" data-name="Rectangle 715" width="20.853" height="21.898" fill="#2d2d2d"/>
    </clipPath>
  </defs>
  <g id="Group_3287" data-name="Group 3287" transform="translate(-18.406 -972.77)">
    <g id="Group_835" data-name="Group 835" transform="translate(25.041 979.936)" clip-path="url(#clip-path)">
      <path id="Path_5999" data-name="Path 5999" d="M4.047,9.788A.7.7,0,0,0,4.209,9.7q3.843-3.854,7.683-7.711a1.247,1.247,0,0,0,.442-.817A1.085,1.085,0,0,0,11.751.119a1.021,1.021,0,0,0-1.21.187q-.914.9-1.813,1.8Q4.438,6.428.151,10.747c-.2.2-.2.2,0,.4L9.312,20.34c.384.386.765.775,1.153,1.157a1.67,1.67,0,0,0,.341.263.96.96,0,0,0,1.108-.083,1.048,1.048,0,0,0,.432-1.053A1.058,1.058,0,0,0,12.014,20Q10.354,18.335,8.7,16.67,6.916,14.884,5.131,13.1c-.32-.32-.643-.638-.965-.957-.023-.022-.042-.048-.077-.089.062,0,.1-.009.143-.009q7.719,0,15.437,0a1.133,1.133,0,0,0,.992-.491,1.081,1.081,0,0,0-.749-1.678,1.973,1.973,0,0,0-.344-.031H4.1l-.051-.058" transform="translate(0.001 0)" fill="#2d2d2d"/>
    </g>
    <g id="Ellipse_90" data-name="Ellipse 90" transform="translate(18.406 972.77)" fill="none" stroke="#2d2d2d" stroke-width="1">
      <ellipse cx="18.043" cy="18.115" rx="18.043" ry="18.115" stroke="none"/>
      <ellipse cx="18.043" cy="18.115" rx="17.543" ry="17.615" fill="none"/>
    </g>
  </g>
</svg>
