<svg xmlns="http://www.w3.org/2000/svg" width="288" height="288" viewBox="0 0 288 288">
  <g id="Group_1" data-name="Group 1" transform="translate(-448 -335)">
    <g id="Rectangle_1" data-name="Rectangle 1" transform="translate(448 335)" fill="#e9f3fb" stroke="#e9f3fb" stroke-width="1">
      <rect width="288" height="288" stroke="none"/>
      <rect x="0.5" y="0.5" width="287" height="287" fill="none"/>
    </g>
    <g id="Group_3834" data-name="Group 3834" transform="translate(-908.072 33.71)" opacity="0.9">
      <g id="Group_1-2" data-name="Group 1" transform="translate(1413.359 364.742)">
        <path id="Path_153" data-name="Path 153" d="M164.753,84.131v28.522h56.674c8.477,0,12-1.745,12-10.014V94.145c0-8.277-3.524-10.014-12-10.014Zm0-45.29V65.622h56.674c7.652,0,11.371-1.524,11.371-8.06V46.893c0-6.524-3.72-8.052-11.371-8.052ZM140.346,20.554h91.422c16.342,0,23.994,6.094,23.994,21.768V56.034c0,10.9-6.622,17.423-18.41,18.955,12.41,1.736,19.232,9.575,19.232,21.547v14.372c0,15.023-10.541,21.985-31.433,21.985h-84.8V20.554Z" transform="translate(-83.158 28.203)" fill="#6da9dc"/>
        <path id="Path_154" data-name="Path 154" d="M107.305,20.553v19.42H24.876v29.36h44.5v20.3h-44.5v42.3H.271V20.553Z" transform="translate(-0.271 -20.553)" fill="#012169"/>
      </g>
    </g>
  </g>
</svg>
