<svg id="Equal_Housing_Opportunity_Logo_Vector" data-name="Equal Housing Opportunity Logo Vector" xmlns="http://www.w3.org/2000/svg" width="49.186" height="47.001" viewBox="0 0 49.186 47.001">
  <path id="Path_362" data-name="Path 362" d="M41.076,487.621H39.152v.762H40.92v.644H39.152v.935h2.01v.644H38.41V486.98h2.666v.641Z" transform="translate(-35.431 -449.21)" fill="#2d2d2d" fill-rule="evenodd"/>
  <path id="Path_363" data-name="Path 363" d="M265.789,685.465l.364.342a.879.879,0,0,1-.409.1c-.41,0-.986-.252-.986-1.267s.576-1.266.986-1.266.984.251.984,1.266a1.613,1.613,0,0,1-.167.776l-.383-.358-.388.407Zm1.712.838-.395-.372a2.037,2.037,0,0,0,.379-1.293,1.751,1.751,0,1,0-1.742,1.913,1.867,1.867,0,0,0,.931-.243l.427.406.4-.41Z" transform="translate(-257.711 -645.057)" fill="#2d2d2d" fill-rule="evenodd"/>
  <path id="Path_364" data-name="Path 364" d="M320.144,686.356c0,.953-.577,1.363-1.491,1.363a1.541,1.541,0,0,1-1.151-.438,1.316,1.316,0,0,1-.282-.879V684h.772v2.35c0,.507.293.728.646.728.52,0,.732-.252.732-.692V684h.776v2.358Z" transform="translate(-306.803 -646.229)" fill="#2d2d2d" fill-rule="evenodd"/>
  <path id="Path_365" data-name="Path 365" d="M360.656,684.817h.012l.448,1.433h-.925l.465-1.434Zm-.668,2.058h1.339l.233.749h.823L361.106,684h-.874l-1.292,3.626h.8l.251-.749Z" transform="translate(-345.287 -646.229)" fill="#2d2d2d" fill-rule="evenodd"/>
  <path id="Path_366" data-name="Path 366" d="M228.789,489.95h1.8v.656H228.03V486.98h.759v2.97Z" transform="translate(-210.344 -449.21)" fill="#2d2d2d" fill-rule="evenodd"/>
  <path id="Path_367" data-name="Path 367" d="M289.086,488.979v1.627h-.756V486.98h.756v1.373H290.5V486.98h.757v3.626H290.5v-1.627Z" transform="translate(-265.967 -449.21)" fill="#2d2d2d" fill-rule="evenodd"/>
  <path id="Path_368" data-name="Path 368" d="M518.6,684.658c0-1.015.577-1.267.984-1.267s.987.251.987,1.267-.576,1.267-.986,1.267-.984-.252-.984-1.267Zm-.756,0a1.749,1.749,0,1,0,1.74-1.908A1.69,1.69,0,0,0,517.84,684.658Z" transform="translate(-491.863 -645.076)" fill="#2d2d2d" fill-rule="evenodd"/>
  <path id="Path_369" data-name="Path 369" d="M574.6,686.356c0,.953-.577,1.363-1.491,1.363a1.545,1.545,0,0,1-1.152-.438,1.32,1.32,0,0,1-.282-.879V684h.776v2.35c0,.507.293.728.648.728.52,0,.731-.252.731-.692V684h.776v2.358Z" transform="translate(-541.527 -646.229)" fill="#2d2d2d" fill-rule="evenodd"/>
  <path id="Path_370" data-name="Path 370" d="M618.643,685.354c.007.2.109.586.769.586.358,0,.758-.086.758-.471,0-.281-.273-.358-.655-.449l-.388-.091c-.588-.136-1.153-.265-1.153-1.063,0-.4.219-1.117,1.4-1.117,1.111,0,1.409.726,1.415,1.171h-.728c-.019-.16-.078-.543-.742-.543-.287,0-.631.106-.631.434,0,.285.233.343.382.379l.885.216c.495.122.948.325.948.975,0,1.092-1.111,1.187-1.429,1.187-1.319,0-1.551-.763-1.551-1.212Z" transform="translate(-584.181 -645.076)" fill="#2d2d2d" fill-rule="evenodd"/>
  <path id="Path_371" data-name="Path 371" d="M482.175,490.606h-.755V486.98h.755v3.626Z" transform="translate(-444.082 -449.21)" fill="#2d2d2d" fill-rule="evenodd"/>
  <path id="Path_372" data-name="Path 372" d="M503.438,486.98h.706v3.626h-.756l-1.479-2.587H501.9v2.587h-.706V486.98h.8l1.438,2.525h.012V486.98Z" transform="translate(-462.318 -449.21)" fill="#2d2d2d" fill-rule="evenodd"/>
  <path id="Path_373" data-name="Path 373" d="M732.685,684.517H734.2v1.954h-.5l-.078-.454a1.341,1.341,0,0,1-1.132.548,1.689,1.689,0,0,1-1.665-1.9,1.74,1.74,0,0,1,1.771-1.918,1.433,1.433,0,0,1,1.59,1.222h-.756a.8.8,0,0,0-.793-.6c-.534,0-1.041.373-1.041,1.3,0,.99.543,1.247,1.056,1.247a.894.894,0,0,0,.878-.8h-.84v-.61Z" transform="translate(-688.325 -645.076)" fill="#2d2d2d" fill-rule="evenodd"/>
  <path id="Path_374" data-name="Path 374" d="M219.988,755.678c0-1.014.576-1.268.984-1.268s.984.254.984,1.268-.572,1.268-.983,1.268S219.988,756.692,219.988,755.678Zm-.758,0a1.749,1.749,0,1,0,1.742-1.908A1.694,1.694,0,0,0,219.23,755.678Z" transform="translate(-216.413 -710.588)" fill="#2d2d2d" fill-rule="evenodd"/>
  <path id="Path_375" data-name="Path 375" d="M281.907,756.691v-1.066h.6c.465,0,.666.148.666.5,0,.161,0,.565-.565.565Zm0,.627h.868a1.11,1.11,0,0,0,1.156-1.155A1.061,1.061,0,0,0,282.805,755H281.15v3.626h.757Z" transform="translate(-273.531 -711.722)" fill="#2d2d2d" fill-rule="evenodd"/>
  <path id="Path_376" data-name="Path 376" d="M334.5,756.663V755.6h.6c.47,0,.667.148.667.5,0,.161,0,.565-.565.565Zm0,.627h.869a1.112,1.112,0,0,0,1.156-1.157,1.062,1.062,0,0,0-1.126-1.163H333.74V758.6h.758Z" transform="translate(-322.042 -711.695)" fill="#2d2d2d" fill-rule="evenodd"/>
  <path id="Path_377" data-name="Path 377" d="M384.988,755.678c0-1.014.574-1.268.984-1.268s.984.254.984,1.268-.577,1.268-.984,1.268S384.988,756.692,384.988,755.678Zm-.758,0a1.748,1.748,0,1,0,1.742-1.908A1.694,1.694,0,0,0,384.23,755.678Z" transform="translate(-368.616 -710.588)" fill="#2d2d2d" fill-rule="evenodd"/>
  <path id="Path_378" data-name="Path 378" d="M446.9,756.6v-.971h.943c.444,0,.53.285.53.476,0,.358-.192.495-.586.495Zm-.744,2.03h.744v-1.419h.782c.561,0,.592.192.592.686a2.447,2.447,0,0,0,.078.733h.838v-.1c-.161-.06-.161-.191-.161-.72,0-.679-.161-.789-.459-.921a.865.865,0,0,0,.56-.862,1.02,1.02,0,0,0-1.14-1.025H446.16Z" transform="translate(-425.743 -711.722)" fill="#2d2d2d" fill-rule="evenodd"/>
  <path id="Path_379" data-name="Path 379" d="M315.952,561.626H315.2v-2.984h-1.1V558h2.949v.641h-1.1v2.984Z" transform="translate(-289.739 -514.722)" fill="#2d2d2d" fill-rule="evenodd"/>
  <path id="Path_380" data-name="Path 380" d="M552.672,757.357c0,.954-.576,1.366-1.491,1.366a1.558,1.558,0,0,1-1.15-.442,1.306,1.306,0,0,1-.282-.877V755h.771v2.352a.636.636,0,0,0,.647.729c.52,0,.731-.254.731-.693V755h.776v2.357Z" transform="translate(-521.298 -711.722)" fill="#2d2d2d" fill-rule="evenodd"/>
  <path id="Path_381" data-name="Path 381" d="M425.047,558h.708v3.626H425l-1.48-2.586h-.008v2.586H422.8V558h.8l1.44,2.524h.009V558Z" transform="translate(-390.008 -514.722)" fill="#2d2d2d" fill-rule="evenodd"/>
  <path id="Path_382" data-name="Path 382" d="M479.419,561.626h-.759V558h.759v3.626Z" transform="translate(-441.536 -514.722)" fill="#2d2d2d" fill-rule="evenodd"/>
  <path id="Path_383" data-name="Path 383" d="M504.561,561.626H503.8v-2.984H502.71V558h2.947v.641h-1.1v2.984Z" transform="translate(-463.72 -514.722)" fill="#2d2d2d" fill-rule="evenodd"/>
  <path id="Path_384" data-name="Path 384" d="M553.72,561.626h-.759v-1.369L551.71,558h.893l.753,1.576.718-1.576h.857l-1.211,2.266v1.36Z" transform="translate(-508.92 -514.722)" fill="#2d2d2d" fill-rule="evenodd"/>
  <path id="Path_385" data-name="Path 385" d="M207.321,197,182.91,209.022v5.647h2.732v16.943h43.173V214.67H232.1v-5.649Zm16.21,29.51H190.925V211.027l16.4-8.376,16.21,8.376Z" transform="translate(-182.91 -197)" fill="#2d2d2d" fill-rule="evenodd"/>
  <path id="Path_386" data-name="Path 386" d="M231.209,186.314H216.09V180.85h15.119v5.464Z" transform="translate(-199.33 -166.823)" fill="#2d2d2d" fill-rule="evenodd"/>
  <path id="Path_387" data-name="Path 387" d="M231.209,287.317H216.09V281.85h15.119v5.467Z" transform="translate(-199.33 -259.99)" fill="#2d2d2d" fill-rule="evenodd"/>
</svg>
