<svg xmlns="http://www.w3.org/2000/svg" width="47.46" height="47.46" viewBox="0 0 47.46 47.46">
  <path id="Icon_fa-brands-square-facebook" data-name="Icon fa-brands-square-facebook" d="M42.375,2.25H5.085A5.085,5.085,0,0,0,0,7.335v37.29A5.085,5.085,0,0,0,5.085,49.71h14.54V33.575H12.951V25.98h6.674V20.192c0-6.584,3.92-10.221,9.923-10.221a40.433,40.433,0,0,1,5.882.513v6.462H32.117c-3.264,0-4.282,2.026-4.282,4.1V25.98h7.286l-1.165,7.595H27.835V49.71h14.54a5.085,5.085,0,0,0,5.085-5.085V7.335A5.085,5.085,0,0,0,42.375,2.25Z" transform="translate(0 -2.25)" fill="#011f64"/>
</svg>
