<svg xmlns="http://www.w3.org/2000/svg" width="368.17" height="124.191" viewBox="0 0 368.17 124.191">
  <g id="Group_6030" data-name="Group 6030" transform="translate(14630.48 7546.748)">
    <path id="Path_6171" data-name="Path 6171" d="M243.091,25.311h6.824V37.122l16.211-11.811H275.9L256.741,38.85,278.07,54.532h-10.7l-17.458-13.2v13.2h-6.824V25.311Z" transform="translate(-14545.33 -7537.881)" fill="#6cace4"/>
    <path id="Path_6172" data-name="Path 6172" d="M61.728,15.709C41.039,22.887,33.982,30.8,33.982,30.8S43.573,13.739,86.216,5.154c34.9-7.028,94.548-8.963,162.56,7.88C338.656,35.294,354.5,66.817,354.5,66.817H340.644s-20-24.544-69.692-41.291C238.58,14.615,199.8,5.574,141.248,4.731,105.7,4.217,79.162,9.66,61.728,15.709" transform="translate(-14618.577 -7546.748)" fill="#012169"/>
    <path id="Path_6173" data-name="Path 6173" d="M163.614,32.227h13.454V26.979h-33.6v5.249h13.388V56.2h6.759V32.227Zm-34.389,0v3.108l5.841-1.312v-.69c0-5.114-2.166-6.356-7.285-6.356H111.309c-5.447,0-7.285,1.381-7.285,6.909v3.245c0,5.528,1.838,6.908,7.285,6.908H129.29v6.7H108.881V47.288l-6.037,1.172v.83c0,5.459,1.773,6.908,7.285,6.908h18.047c5.516,0,7.22-1.449,7.22-6.908V45.285c0-5.527-1.7-6.908-7.22-6.908H110.128v-6.15Zm-46.2-.205c2.034,0,3.084.413,3.084,2.347v3.385c0,1.935-1.051,2.349-3.084,2.349H67.6V32.022ZM60.909,56.2H67.6V45.144h6.367L85.584,56.2H95.3L82.106,45.144h3.808c4.463,0,6.5-1.587,6.5-5.593V32.643c0-4.075-2.032-5.667-6.5-5.667h-25V56.2Zm-19.1,0h6.759V26.979H41.812V56.2ZM34.528,20.553v6.215H8.146v9.4H22.389v6.5H8.146V56.2H.271V20.553Z" transform="translate(-14630.386 -7539.548)" fill="#012169"/>
    <path id="Path_6174" data-name="Path 6174" d="M232.353,56.2h6.172V36.509L262.017,56.2h4.66V26.977h-6.1V46.39L237.013,26.977h-4.66ZM211.615,44.455l-6.5-12.158-6.236,12.158Zm-9.383-17.479h6.5L225.464,56.2h-7.613l-3.478-6.425H196L192.52,56.2h-6.76l16.472-29.224ZM148.09,40.726v9.05h17.982c2.69,0,3.808-.554,3.808-3.177V43.9c0-2.626-1.118-3.177-3.808-3.177Zm0-14.37v8.5h17.982c2.428,0,3.608-.483,3.608-2.557V28.911c0-2.07-1.18-2.555-3.608-2.555Zm-7.744-5.8h29.007c5.185,0,7.613,1.934,7.613,6.907v4.351c0,3.457-2.1,5.528-5.841,6.014,3.937.551,6.1,3.038,6.1,6.836v4.56c0,4.766-3.345,6.976-9.973,6.976H140.346V20.554Z" transform="translate(-14581.318 -7539.548)" fill="#6cace4"/>
    <path id="Path_6176" data-name="Path 6176" d="M17.463,77.068a1.337,1.337,0,0,0-.74.313,3.839,3.839,0,0,0-.845.9,7.734,7.734,0,0,0-.779,1.43,8.356,8.356,0,0,0-.547,1.936c.208-.157.433-.316.676-.481s.485-.342.728-.533a7.331,7.331,0,0,0,1.56-1.507A2.617,2.617,0,0,0,18.008,78a1.08,1.08,0,0,0-.1-.716.515.515,0,0,0-.443-.221Zm6.654,4a19.7,19.7,0,0,1-1.768,2.223,16.132,16.132,0,0,1-2.093,1.924A11.469,11.469,0,0,1,18,86.582a5.459,5.459,0,0,1-2.248.52,3.245,3.245,0,0,1-1.234-.273,3.5,3.5,0,0,1-1.208-.845,4.085,4.085,0,0,1-.871-1.481,5.069,5.069,0,0,1-.2-2.21,6.886,6.886,0,0,1,.663-2.248,10.288,10.288,0,0,1,1.377-2.169,7.822,7.822,0,0,1,1.846-1.638,3.83,3.83,0,0,1,2.066-.649,1.835,1.835,0,0,1,1.43.493,1.591,1.591,0,0,1,.39,1.222,3.754,3.754,0,0,1-.455,1.481,6,6,0,0,1-.9,1.222,9.043,9.043,0,0,1-1.1.988c-.39.293-.759.563-1.1.8-.382.261-.747.506-1.092.741s-.649.446-.91.637a2.822,2.822,0,0,0,.235,1.091,2.145,2.145,0,0,0,.52.716,1.872,1.872,0,0,0,.714.389,2.959,2.959,0,0,0,.818.117,3.678,3.678,0,0,0,1.846-.559,12.726,12.726,0,0,0,1.885-1.352,20.762,20.762,0,0,0,1.715-1.651q.792-.857,1.312-1.481a.692.692,0,0,1,.377-.246.365.365,0,0,1,.312.051.372.372,0,0,1,.117.312.971.971,0,0,1-.182.506Z" transform="translate(-14626.207 -7520.271)" fill="#6cace4"/>
    <path id="Path_6177" data-name="Path 6177" d="M19.175,86.718a.915.915,0,0,1-.4.378.509.509,0,0,1-.389.026.361.361,0,0,1-.221-.273.774.774,0,0,1,.1-.52l.351-.7q.271-.547.649-1.314l.818-1.662q.442-.9.845-1.7c.269-.539.516-1.018.741-1.442s.389-.732.494-.924c-.192-.173-.321-.3-.392-.377a1.055,1.055,0,0,1-.155-.506,1.836,1.836,0,0,1,.155-.886,5.309,5.309,0,0,1,.547-1.052,4.318,4.318,0,0,1,.753-.87,1.244,1.244,0,0,1,.806-.365A1.121,1.121,0,0,1,24.906,75a2.194,2.194,0,0,1,.351.961,2.559,2.559,0,0,1-.051.856,2.516,2.516,0,0,1-.39.937,1.938,1.938,0,0,0,.208.117.984.984,0,0,0,.416.065,2.307,2.307,0,0,0,.585-.051,1.881,1.881,0,0,1,.532-.054,1.153,1.153,0,0,1,.729.223,1.758,1.758,0,0,1,.467.546,2.73,2.73,0,0,1,.273.7,4.6,4.6,0,0,1,.117.689,2.14,2.14,0,0,1-.339,1.352q-.415.7-1.013,1.534a13.7,13.7,0,0,0-.728,1.169,2.009,2.009,0,0,0-.312,1.169,1.415,1.415,0,0,0,.182.547c.086.138.328.208.728.208a1.9,1.9,0,0,0,.974-.325,7.4,7.4,0,0,0,1.092-.832,15.208,15.208,0,0,0,1.1-1.118c.363-.408.7-.8,1.014-1.2s.575-.739.793-1.052.377-.536.481-.675a.665.665,0,0,1,.338-.286.439.439,0,0,1,.365,0,.388.388,0,0,1,.194.312,1,1,0,0,1-.194.624q-.157.261-.533.832t-.91,1.273q-.532.7-1.183,1.443a13.405,13.405,0,0,1-1.364,1.352,8.51,8.51,0,0,1-1.43,1,2.862,2.862,0,0,1-1.364.389,2.182,2.182,0,0,1-1.118-.259,2.31,2.31,0,0,1-.716-.637,2.44,2.44,0,0,1-.389-.83,2.674,2.674,0,0,1-.092-.845,2.3,2.3,0,0,1,.169-.664q.144-.348.339-.728c.13-.25.269-.5.415-.752s.282-.5.4-.741q.442-.753.716-1.287a2.082,2.082,0,0,0,.273-.9.827.827,0,0,0-.1-.416.361.361,0,0,0-.339-.182,1.21,1.21,0,0,0-.221.014.6.6,0,0,1-.13.014,1.55,1.55,0,0,0-.181.014c-.078.007-.2.011-.351.011a1.419,1.419,0,0,1-.573-.1,2.771,2.771,0,0,0-.442-.157c-.069.122-.225.381-.467.78s-.525.867-.845,1.4-.659,1.1-1.014,1.689-.689,1.14-1,1.651l-.793,1.3c-.216.354-.351.567-.4.635Z" transform="translate(-14624.123 -7520.642)" fill="#6cace4"/>
    <path id="Path_6178" data-name="Path 6178" d="M31.235,85.825a.719.719,0,0,0,.4.1,1.272,1.272,0,0,0,.493-.1,1.907,1.907,0,0,0,.469-.286,1.067,1.067,0,0,0,.324-.469,1.58,1.58,0,0,0,0-.818,7.887,7.887,0,0,0-.324-1.144q-.221-.612-.481-1.234c-.174-.417-.321-.8-.443-1.145q-.156-.389-.259-.728-.1-.284-.194-.558a3.552,3.552,0,0,0-.143-.377q-.132.209-.455.675t-.7.976q-.377.506-.714.934t-.469.586a.788.788,0,0,1-.4.273.357.357,0,0,1-.325-.08.467.467,0,0,1-.143-.338.922.922,0,0,1,.2-.532c.1-.139.259-.359.467-.664s.416-.614.624-.934.4-.606.573-.859a3.132,3.132,0,0,0,.285-.455.772.772,0,0,0-.142-.544.959.959,0,0,1-.066-.78,2.687,2.687,0,0,1,.469-.844,4.848,4.848,0,0,1,.857-.872,3.785,3.785,0,0,1,1.014-.583,1.131,1.131,0,0,1,.936.012,2.249,2.249,0,0,1,.546.455.591.591,0,0,1,.157.506c-.035.088-.088.2-.157.338a4.074,4.074,0,0,1-.312.508c-.139.2-.338.454-.6.767a7.206,7.206,0,0,0,.22,1.091c.095.331.186.616.273.857a6.866,6.866,0,0,0,.338.806c.157.312.32.633.494.963s.329.654.469.974a9.328,9.328,0,0,1,.338.9,1.513,1.513,0,0,1,.078.7,3.3,3.3,0,0,1-.455,1.065,7.072,7.072,0,0,1-.936,1.21,5.8,5.8,0,0,1-1.273,1,2.937,2.937,0,0,1-1.5.415,1.869,1.869,0,0,1-1.053-.338,3.7,3.7,0,0,1-1.377-1.689.812.812,0,0,1-.039-.675,4,4,0,0,1,.285-.494,2.771,2.771,0,0,1,.392-.416q.1-.077.259-.182a1.9,1.9,0,0,1,.363-.155l.547-.182a11.992,11.992,0,0,0,.467,1.261c.139.3.251.541.338.714a1.37,1.37,0,0,0,.286.39Z" transform="translate(-14620.719 -7520.501)" fill="#6cace4"/>
    <path id="Path_6179" data-name="Path 6179" d="M37.912,78.308a1.563,1.563,0,0,0-.078.493,7.561,7.561,0,0,0,.053.871,2.12,2.12,0,0,0,.261.82,1.618,1.618,0,0,0,.663.61,2.66,2.66,0,0,0,1.26.247,2.425,2.425,0,0,0,.261-.014c.085-.008.171-.022.259-.038.051-.225.1-.431.143-.613A2.092,2.092,0,0,0,40.8,80.2a4.894,4.894,0,0,0,0-1.014,4.453,4.453,0,0,0-.194-.949,2.256,2.256,0,0,0-.365-.7.668.668,0,0,0-.532-.273,1.826,1.826,0,0,0-.949.273,3.172,3.172,0,0,0-.845.768ZM36.25,82.882a8.034,8.034,0,0,0,.051.922,2.722,2.722,0,0,0,.208.806,1.58,1.58,0,0,0,.416.571,1.006,1.006,0,0,0,.675.221,1.717,1.717,0,0,0,.859-.221,2.758,2.758,0,0,0,.7-.571,4.3,4.3,0,0,0,.559-.806,7.252,7.252,0,0,0,.429-.949c-.122.018-.239.03-.351.039s-.239.014-.377.014a2.6,2.6,0,0,1-1.7-.586,3.861,3.861,0,0,1-1.1-1.493c-.1.363-.192.718-.261,1.065a5.071,5.071,0,0,0-.1.988Zm6.055-.624a9.019,9.019,0,0,1-.7,1.844,6.051,6.051,0,0,1-1.053,1.481,4.6,4.6,0,0,1-1.377.975,3.966,3.966,0,0,1-1.677.351,2.744,2.744,0,0,1-1.676-.455,2.788,2.788,0,0,1-.91-1.13,4.554,4.554,0,0,1-.365-1.483c-.042-.536-.065-1.038-.065-1.507a5.714,5.714,0,0,1,.117-1.091,9.844,9.844,0,0,1,.325-1.222,8.38,8.38,0,0,1,.532-1.248,6.2,6.2,0,0,1,.767-1.144,2.134,2.134,0,0,1,.482-.779,2.82,2.82,0,0,1,.753-.559,3.971,3.971,0,0,1,.922-.338,4.139,4.139,0,0,1,.961-.117.4.4,0,0,1,.143.026,1.464,1.464,0,0,0,.143.051,2.617,2.617,0,0,1,.844.261,3.621,3.621,0,0,1,.988.7,3.9,3.9,0,0,1,1.156,2.91c0,.14-.008.309-.026.508s-.035.369-.051.506a12.743,12.743,0,0,0,1.248-.571q.648-.336,1.26-.716t1.132-.766a8.209,8.209,0,0,0,.832-.7.922.922,0,0,1,.442-.259.236.236,0,0,1,.259.1.5.5,0,0,1,.027.365,1.32,1.32,0,0,1-.286.52,8.031,8.031,0,0,1-.663.624q-.532.468-1.26,1.013a19.068,19.068,0,0,1-1.587,1.067,8.088,8.088,0,0,1-1.638.78Z" transform="translate(-14618.401 -7520.183)" fill="#6cace4"/>
    <path id="Path_6180" data-name="Path 6180" d="M50.191,86.987a2.224,2.224,0,0,1-1.028-.221,1.9,1.9,0,0,1-.687-.585,1.98,1.98,0,0,1-.339-.845,2.6,2.6,0,0,1,.053-1.026q.077-.365.259-.975t.377-1.326q.2-.715.365-1.43a9.381,9.381,0,0,0,.221-1.3,2.8,2.8,0,0,0-.053-.961.44.44,0,0,0-.442-.378,1.637,1.637,0,0,0-.857.273,4.723,4.723,0,0,0-.9.741,10.565,10.565,0,0,0-.91,1.079q-.456.612-.9,1.261-.235.883-.39,1.546t-.273,1.2q-.117.533-.221.934c-.069.27-.13.525-.181.768a1.019,1.019,0,0,1-.469.506,4.156,4.156,0,0,1-.832.4,2.4,2.4,0,0,1-.767.155c-.216,0-.308-.078-.273-.235.018-.1.074-.338.169-.7l.338-1.287c.13-.5.265-1.017.4-1.572s.269-1.082.39-1.585c.086-.4.181-.841.285-1.326q.13-.624.325-1.456t.455-1.819a1.721,1.721,0,0,1,.377-.247,2.229,2.229,0,0,1,.4-.143,1.883,1.883,0,0,1,.442-.1,3.329,3.329,0,0,1,.417.027,2.07,2.07,0,0,1,.375.09,1.084,1.084,0,0,1,.352.194q-.079.182-.182.506c-.07.217-.139.446-.208.689q-.1.417-.261.859a12.017,12.017,0,0,1,.767-.949,6.873,6.873,0,0,1,.936-.871,5.043,5.043,0,0,1,1.079-.636,2.9,2.9,0,0,1,1.169-.247,1.453,1.453,0,0,1,.884.286,1.91,1.91,0,0,1,.61.793,3.5,3.5,0,0,1,.259,1.207,4.7,4.7,0,0,1-.194,1.534l-.286,1.145q-.13.545-.324,1.285t-.481,1.624a2.8,2.8,0,0,0-.117.988c.026.278.194.416.506.416a2.11,2.11,0,0,0,1.183-.573,12.421,12.421,0,0,0,1.443-1.377q.725-.806,1.377-1.65c.432-.563.763-1.018.987-1.365a1.326,1.326,0,0,1,.443-.442.318.318,0,0,1,.324-.026c.078.053.117.169.117.35a1.645,1.645,0,0,1-.208.69q-.183.364-.559.961t-.9,1.273c-.349.451-.72.906-1.118,1.365a12.089,12.089,0,0,1-1.248,1.248,7.746,7.746,0,0,1-1.287.91,2.521,2.521,0,0,1-1.208.351Z" transform="translate(-14615.787 -7520.129)" fill="#6cace4"/>
    <path id="Path_6181" data-name="Path 6181" d="M57.264,82.465q.13-.521.312-1.223c.122-.467.224-.917.312-1.352s.151-.793.194-1.078.03-.42-.039-.4a2.617,2.617,0,0,0-.285.077,1.4,1.4,0,0,1-.338.078,3.437,3.437,0,0,0-.417.078,2.358,2.358,0,0,0,.247-.689,1.48,1.48,0,0,0,.014-.428.62.62,0,0,0-.1-.286c-.19-.158-.525-.031-1,.377a8.781,8.781,0,0,0-1.651,2.248,6.946,6.946,0,0,0-.624,1.442,9.209,9.209,0,0,0-.324,1.443,5.048,5.048,0,0,0-.039,1.181,1.144,1.144,0,0,0,.208.663.846.846,0,0,0,.649.273,1.745,1.745,0,0,0,.741-.208,4.281,4.281,0,0,0,.753-.506,6.486,6.486,0,0,0,1.169-1.275,1.392,1.392,0,0,0,.221-.415ZM64.88,81.32q-.365.521-.936,1.287t-1.183,1.534q-.612.768-1.195,1.4a6.022,6.022,0,0,1-.975.9,2.764,2.764,0,0,1-.6.259,3.163,3.163,0,0,1-.689.13,2.429,2.429,0,0,1-.663-.038,1.53,1.53,0,0,1-.546-.221,1.362,1.362,0,0,1-.39-.52,4.452,4.452,0,0,1-.247-.755,4.236,4.236,0,0,1-.09-1.169,5.448,5.448,0,0,1-1.379,1.6,6.177,6.177,0,0,1-1.429.817,5.575,5.575,0,0,1-1.56.339,1.541,1.541,0,0,1-.78-.247,1.935,1.935,0,0,1-.7-.78,3.624,3.624,0,0,1-.365-1.377,6.249,6.249,0,0,1,.208-2.013A9.633,9.633,0,0,1,52.52,79.58a11.523,11.523,0,0,1,1.728-2.223,7.658,7.658,0,0,1,1.846-1.391A2.914,2.914,0,0,1,57.6,75.55a3.159,3.159,0,0,1,1.144.416,1.243,1.243,0,0,1,.481.767,1.863,1.863,0,0,1-.428,1.338,5.785,5.785,0,0,1,.61-.1,3.754,3.754,0,0,1,.377-.027.532.532,0,0,1,.208.027.613.613,0,0,1,.026.22,4.24,4.24,0,0,1-.077.61q-.079.444-.235,1.2t-.416,1.948q-.052.235-.09.429c-.025.129-.053.261-.078.389s-.057.282-.09.455-.078.39-.13.651a2.961,2.961,0,0,0-.014.508,1.882,1.882,0,0,0,.09.506.819.819,0,0,0,.247.377.727.727,0,0,0,.481.143,1.246,1.246,0,0,0,.676-.325,7.6,7.6,0,0,0,.883-.832q.468-.506.975-1.118t.948-1.183c.3-.379.56-.718.794-1.013s.4-.512.506-.651a.781.781,0,0,1,.416-.273.281.281,0,0,1,.312.117.622.622,0,0,1,.039.469,1.95,1.95,0,0,1-.377.726Z" transform="translate(-14612.567 -7520.286)" fill="#6cace4"/>
    <path id="Path_6182" data-name="Path 6182" d="M59.737,87.972q1.142-4.81,1.832-7.721l1.053-4.444q.415-1.821.571-2.521c.051-.331.1-.651.13-.963a7.08,7.08,0,0,0,.053-.857,3.906,3.906,0,0,0-.078-.806,2.014,2.014,0,0,1,.454-.208c.166-.051.325-.095.482-.13a5.338,5.338,0,0,1,.571-.131,3.016,3.016,0,0,1,.521-.051,1.791,1.791,0,0,1,.389.039.294.294,0,0,1,.234.169.634.634,0,0,1,.143.519c-.008.262-.031.529-.065.807-.069.328-.147.685-.234,1.065q-.312,1.118-.859,3.223-.468,1.795-1.26,4.887t-1.989,7.8a.688.688,0,0,1-.312.182,1.22,1.22,0,0,1-.338.053,3.389,3.389,0,0,1-.39-.026,1.794,1.794,0,0,1-.363-.155,1.829,1.829,0,0,1-.312-.274,1.077,1.077,0,0,1-.234-.454Z" transform="translate(-14609.555 -7522.179)" fill="#6cace4"/>
    <path id="Path_6183" data-name="Path 6183" d="M75.2,80.009c-.035.173-.074.347-.117.52s-.09.355-.143.546a2.815,2.815,0,0,1,1.053-.624,3.908,3.908,0,0,1,1.416-.286,6.222,6.222,0,0,1,.7.039c.224.026.442.055.649.092a7.21,7.21,0,0,0,1.4-1.21A9.836,9.836,0,0,0,81.345,77.5a10.292,10.292,0,0,0,.832-1.728,6.761,6.761,0,0,0,.4-1.638,3.453,3.453,0,0,0-.61-2.663A2.735,2.735,0,0,0,79.8,70.6a6.151,6.151,0,0,0-1.95.339l-.52,1.676q-.311,1-.663,2.2t-.74,2.521Q75.537,78.662,75.2,80.009Zm-.442,1.715q-.365,1.4-.729,3.041-.338,1.406-.728,3.262t-.83,3.964a.954.954,0,0,0,.416.182c.173.034.346.068.518.1a3.589,3.589,0,0,0,.624.051,6.392,6.392,0,0,0,2.379-.482,7.681,7.681,0,0,0,3.924-3.508,7.049,7.049,0,0,0,.82-2.819,3.927,3.927,0,0,0-.092-1.261,3.749,3.749,0,0,0-.416-1.014,4.1,4.1,0,0,0-.624-.806,4.863,4.863,0,0,0-.74-.61,14.491,14.491,0,0,1-2.625,1.092,1.548,1.548,0,0,1-.806.038,1.46,1.46,0,0,1-.571-.286,1.373,1.373,0,0,1-.365-.455,1.441,1.441,0,0,1-.155-.493ZM83.8,86.377a6.791,6.791,0,0,1-1.04,3.118,8.2,8.2,0,0,1-2.248,2.328,10.4,10.4,0,0,1-3.08,1.442,12.758,12.758,0,0,1-3.535.493,8.176,8.176,0,0,1-1.26-.09,9.679,9.679,0,0,1-1.053-.22c-.312-.088-.577-.169-.793-.248a2.847,2.847,0,0,1-.455-.193,1.169,1.169,0,0,1-.377-.325,1.068,1.068,0,0,1-.169-.56,2.7,2.7,0,0,1-.026-.324,1.228,1.228,0,0,1,.026-.246c.018-.088.047-.205.09-.351s.1-.352.17-.612q.051-.233.4-1.468T71.3,86.1q.494-1.778,1.079-3.859l1.132-4.028q.545-1.95.987-3.523t.649-2.325q-.365.257-.714.546c-.235.189-.473.4-.716.624a.764.764,0,0,1-.766.246.848.848,0,0,1-.533-.636,5.076,5.076,0,0,1-.078-.547,2.242,2.242,0,0,1,.014-.532,1.666,1.666,0,0,1,.194-.586,15.309,15.309,0,0,1,1.677-.883q.818-.365,1.572-.651a2.274,2.274,0,0,1,.351-.675,1.007,1.007,0,0,1,.4-.312.946.946,0,0,1,.442-.051c.155.018.32.043.493.078a1.326,1.326,0,0,1,.755.363c.242-.034.477-.061.7-.078s.458-.026.7-.026a7.98,7.98,0,0,1,2.624.39A5.159,5.159,0,0,1,84.1,70.689a3.835,3.835,0,0,1,1.026,1.547,4.507,4.507,0,0,1,.234,1.871,6.194,6.194,0,0,1-.455,1.781,9.465,9.465,0,0,1-1,1.819,13.31,13.31,0,0,1-1.456,1.742A12.708,12.708,0,0,1,80.6,81a6.882,6.882,0,0,1,1.43,1.092,6.328,6.328,0,0,1,1.04,1.352,5.621,5.621,0,0,1,.6,1.48,4.69,4.69,0,0,1,.13,1.457Z" transform="translate(-14606.043 -7522.612)" fill="#6cace4"/>
    <path id="Path_6184" data-name="Path 6184" d="M87.659,82.465q.13-.521.312-1.223c.122-.467.224-.917.312-1.352s.151-.793.194-1.078.03-.42-.039-.4a2.617,2.617,0,0,0-.285.077,1.4,1.4,0,0,1-.338.078,3.488,3.488,0,0,0-.417.078,2.358,2.358,0,0,0,.247-.689,1.434,1.434,0,0,0,.014-.428.62.62,0,0,0-.1-.286c-.19-.158-.525-.031-1,.377A8.781,8.781,0,0,0,84.9,79.866a6.944,6.944,0,0,0-.624,1.442,9.211,9.211,0,0,0-.324,1.443,5.049,5.049,0,0,0-.039,1.181,1.144,1.144,0,0,0,.208.663.846.846,0,0,0,.649.273,1.745,1.745,0,0,0,.741-.208,4.281,4.281,0,0,0,.753-.506,6.374,6.374,0,0,0,1.169-1.275,1.392,1.392,0,0,0,.221-.415Zm7.616-1.145q-.365.521-.936,1.287t-1.183,1.534q-.612.768-1.2,1.4a6.021,6.021,0,0,1-.975.9,2.764,2.764,0,0,1-.6.259,3.163,3.163,0,0,1-.689.13,2.429,2.429,0,0,1-.663-.038,1.53,1.53,0,0,1-.546-.221,1.362,1.362,0,0,1-.39-.52,4.575,4.575,0,0,1-.247-.755,4.236,4.236,0,0,1-.09-1.169,5.429,5.429,0,0,1-1.379,1.6,6.177,6.177,0,0,1-1.429.817,5.575,5.575,0,0,1-1.56.339,1.544,1.544,0,0,1-.78-.247,1.935,1.935,0,0,1-.7-.78,3.624,3.624,0,0,1-.365-1.377,6.25,6.25,0,0,1,.208-2.013,9.633,9.633,0,0,1,1.157-2.886,11.523,11.523,0,0,1,1.728-2.223,7.658,7.658,0,0,1,1.846-1.391A2.914,2.914,0,0,1,88,75.55a3.159,3.159,0,0,1,1.144.416,1.243,1.243,0,0,1,.481.767,1.863,1.863,0,0,1-.428,1.338,5.783,5.783,0,0,1,.61-.1,3.754,3.754,0,0,1,.377-.027.532.532,0,0,1,.208.027.613.613,0,0,1,.026.22,4.24,4.24,0,0,1-.077.61q-.079.444-.235,1.2t-.416,1.948q-.053.235-.09.429c-.025.129-.053.261-.078.389s-.057.282-.09.455-.078.39-.13.651a3.1,3.1,0,0,0-.013.508,1.883,1.883,0,0,0,.09.506.82.82,0,0,0,.247.377.727.727,0,0,0,.481.143,1.246,1.246,0,0,0,.676-.325,7.594,7.594,0,0,0,.883-.832q.468-.506.975-1.118t.948-1.183c.3-.379.56-.718.794-1.013s.4-.512.506-.651a.781.781,0,0,1,.416-.273.281.281,0,0,1,.312.117.622.622,0,0,1,.039.469,1.95,1.95,0,0,1-.377.726Z" transform="translate(-14601.921 -7520.286)" fill="#6cace4"/>
    <path id="Path_6185" data-name="Path 6185" d="M98.277,86.987a2.22,2.22,0,0,1-1.028-.221,1.908,1.908,0,0,1-.689-.585,1.978,1.978,0,0,1-.338-.845,2.6,2.6,0,0,1,.051-1.026q.079-.365.261-.975c.12-.406.247-.848.377-1.326s.251-.953.363-1.43a9.384,9.384,0,0,0,.221-1.3,2.766,2.766,0,0,0-.053-.961A.439.439,0,0,0,97,77.94a1.641,1.641,0,0,0-.857.273,4.766,4.766,0,0,0-.9.741,10.744,10.744,0,0,0-.91,1.079q-.454.612-.9,1.261-.235.883-.389,1.546c-.105.442-.2.84-.274,1.2s-.151.667-.22.934-.131.525-.182.768a1.012,1.012,0,0,1-.469.506,4.157,4.157,0,0,1-.832.4,2.389,2.389,0,0,1-.767.155q-.324,0-.271-.235c.016-.1.073-.338.169-.7s.207-.791.338-1.287.263-1.017.4-1.572.269-1.082.39-1.585c.086-.4.182-.841.285-1.326q.132-.624.325-1.456t.455-1.819a1.721,1.721,0,0,1,.377-.247,2.28,2.28,0,0,1,.4-.143,1.852,1.852,0,0,1,.442-.1,3.323,3.323,0,0,1,.416.027,2.083,2.083,0,0,1,.377.09,1.078,1.078,0,0,1,.351.194c-.051.122-.113.29-.182.506s-.139.446-.208.689a8.17,8.17,0,0,1-.259.859,11.989,11.989,0,0,1,.766-.949,6.873,6.873,0,0,1,.936-.871,5.11,5.11,0,0,1,1.079-.636,2.9,2.9,0,0,1,1.169-.247,1.453,1.453,0,0,1,.884.286,1.888,1.888,0,0,1,.61.793,3.5,3.5,0,0,1,.261,1.207,4.74,4.74,0,0,1-.194,1.534L99.33,80.96Q99.2,81.5,99,82.245t-.481,1.624a2.836,2.836,0,0,0-.117.988c.027.278.2.416.508.416A2.11,2.11,0,0,0,100.1,84.7a12.417,12.417,0,0,0,1.442-1.377q.727-.806,1.377-1.65t.987-1.365a1.327,1.327,0,0,1,.443-.442.318.318,0,0,1,.324-.026c.078.053.117.169.117.35a1.625,1.625,0,0,1-.208.69q-.182.365-.559.961t-.9,1.273q-.521.676-1.117,1.365a12.235,12.235,0,0,1-1.249,1.248,7.684,7.684,0,0,1-1.285.91,2.525,2.525,0,0,1-1.208.351Z" transform="translate(-14598.944 -7520.129)" fill="#6cace4"/>
    <path id="Path_6186" data-name="Path 6186" d="M113,83.276q-.6.988-1.364,2.042a17.194,17.194,0,0,1-1.624,1.923,9.809,9.809,0,0,1-1.768,1.442,3.4,3.4,0,0,1-1.82.573,1.46,1.46,0,0,1-1.312-.61,2.277,2.277,0,0,1-.377-1.365,2.462,2.462,0,0,1,.065-.6,4.337,4.337,0,0,1,.143-.469c.053-.139.108-.282.169-.428a4.3,4.3,0,0,0,.169-.508.991.991,0,0,0,.014-.612,2.291,2.291,0,0,0-.221-.481,2.649,2.649,0,0,1-.532.455,1.323,1.323,0,0,1-.741.194.749.749,0,0,1-.571-.3,1.082,1.082,0,0,1-.261-.74,1.009,1.009,0,0,1,.169-.6,1.3,1.3,0,0,1,.39-.363,1.615,1.615,0,0,1,.455-.182,1.912,1.912,0,0,1,.39-.051q.076,0,.324.027c.165.018.342.043.533.077a6.435,6.435,0,0,0,1.338-1.365.923.923,0,0,0,.065-1.1.642.642,0,0,0-.52-.351,1.353,1.353,0,0,0-.649.157,3.711,3.711,0,0,0-.663.429c-.216.173-.412.338-.585.493q-.521.521-1.156,1.234L102,83.38q-.182.78-.365,1.638-.156.753-.35,1.7t-.4,1.962a1.465,1.465,0,0,1-.325.117c-.112.026-.212.047-.3.065a2.024,2.024,0,0,1-.312.026c-.139,0-.269,0-.39-.012a.464.464,0,0,1-.3-.13.558.558,0,0,1-.13-.377,2.139,2.139,0,0,1,.143-.729q.207-.676.52-1.805t.649-2.482q.338-1.353.689-2.821t.663-2.807q.312-1.339.533-2.417t.324-1.7c.051-.451.1-.883.157-1.3q.051-.521.065-1.026a2.652,2.652,0,0,0-.065-.767,1.156,1.156,0,0,1,.363-.234,2.273,2.273,0,0,1,.52-.157,5.407,5.407,0,0,1,.677-.13,3.78,3.78,0,0,1,.74-.026.5.5,0,0,1,.429.259,1.391,1.391,0,0,1,.065.872,17.364,17.364,0,0,1-.377,1.7q-.365,1.4-.741,2.56t-.728,2.17q-.35,1.015-.675,1.962t-.585,1.938a14.569,14.569,0,0,1,1.3-1.6,7.013,7.013,0,0,1,1.768-1.391,3.916,3.916,0,0,1,1.716-.546,1.319,1.319,0,0,1,1.195.559,2.207,2.207,0,0,1,.338,1.311,2.547,2.547,0,0,1-.3,1.106,4.758,4.758,0,0,1-.663.936,5.07,5.07,0,0,1-.832.741c-.3.207-.545.381-.753.52a2.15,2.15,0,0,1,.636.559,1.26,1.26,0,0,1,.247.87,3.185,3.185,0,0,1-.273,1.234,2.349,2.349,0,0,0-.247.975.955.955,0,0,0,.143.494.62.62,0,0,0,.508.157,2.423,2.423,0,0,0,1.468-.6,10.307,10.307,0,0,0,1.442-1.377q.676-.78,1.249-1.547c.379-.51.675-.887.883-1.13q.442-.468.741-.246t-.066.817Z" transform="translate(-14595.756 -7522.242)" fill="#6cace4"/>
    <path id="Path_6187" data-name="Path 6187" d="M113.364,77.068a1.337,1.337,0,0,0-.74.313,3.838,3.838,0,0,0-.845.9,7.735,7.735,0,0,0-.779,1.43,8.288,8.288,0,0,0-.547,1.936c.208-.157.433-.316.676-.481s.485-.342.728-.533a7.331,7.331,0,0,0,1.56-1.507A2.634,2.634,0,0,0,113.909,78a1.08,1.08,0,0,0-.1-.716.515.515,0,0,0-.443-.221Zm6.654,4a19.863,19.863,0,0,1-1.768,2.223,16.134,16.134,0,0,1-2.093,1.924,11.469,11.469,0,0,1-2.26,1.364,5.459,5.459,0,0,1-2.248.52,3.256,3.256,0,0,1-1.235-.273,3.524,3.524,0,0,1-1.209-.845,4.123,4.123,0,0,1-.871-1.481,5.092,5.092,0,0,1-.194-2.21,6.885,6.885,0,0,1,.663-2.248,10.288,10.288,0,0,1,1.377-2.169,7.8,7.8,0,0,1,1.846-1.638,3.83,3.83,0,0,1,2.066-.649,1.837,1.837,0,0,1,1.43.493,1.591,1.591,0,0,1,.39,1.222,3.754,3.754,0,0,1-.455,1.481,6,6,0,0,1-.9,1.222,9.054,9.054,0,0,1-1.106.988c-.389.293-.757.563-1.1.8-.382.261-.747.506-1.092.741s-.649.446-.91.637a2.823,2.823,0,0,0,.234,1.091,2.147,2.147,0,0,0,.521.716,1.872,1.872,0,0,0,.714.389,2.96,2.96,0,0,0,.818.117,3.679,3.679,0,0,0,1.846-.559,12.728,12.728,0,0,0,1.885-1.352,20.762,20.762,0,0,0,1.715-1.651q.792-.857,1.312-1.481a.692.692,0,0,1,.377-.246.365.365,0,0,1,.312.051.372.372,0,0,1,.117.312.971.971,0,0,1-.182.506Z" transform="translate(-14592.614 -7520.271)" fill="#6cace4"/>
    <path id="Path_6188" data-name="Path 6188" d="M115.076,86.718a.915.915,0,0,1-.4.378.509.509,0,0,1-.389.026.361.361,0,0,1-.221-.273.774.774,0,0,1,.1-.52q.077-.156.351-.7t.649-1.314l.818-1.662q.441-.9.845-1.7c.269-.539.516-1.018.741-1.442s.389-.732.493-.924c-.19-.173-.32-.3-.39-.377a1.055,1.055,0,0,1-.155-.506,1.837,1.837,0,0,1,.155-.886,5.308,5.308,0,0,1,.547-1.052,4.319,4.319,0,0,1,.753-.87,1.244,1.244,0,0,1,.8-.365A1.122,1.122,0,0,1,120.8,75a2.194,2.194,0,0,1,.351.961,2.53,2.53,0,0,1-.053.856,2.491,2.491,0,0,1-.389.937,1.936,1.936,0,0,0,.208.117.984.984,0,0,0,.416.065,2.307,2.307,0,0,0,.585-.051,1.881,1.881,0,0,1,.532-.054,1.146,1.146,0,0,1,.728.223,1.744,1.744,0,0,1,.469.546,2.78,2.78,0,0,1,.273.7,4.6,4.6,0,0,1,.117.689,2.14,2.14,0,0,1-.339,1.352q-.415.7-1.013,1.534a13.7,13.7,0,0,0-.728,1.169,2.009,2.009,0,0,0-.312,1.169,1.438,1.438,0,0,0,.181.547c.086.138.329.208.729.208a1.9,1.9,0,0,0,.974-.325,7.464,7.464,0,0,0,1.092-.832,15.207,15.207,0,0,0,1.1-1.118c.363-.408.7-.8,1.014-1.2s.575-.739.793-1.052.377-.536.481-.675a.665.665,0,0,1,.338-.286.439.439,0,0,1,.365,0,.388.388,0,0,1,.194.312,1,1,0,0,1-.194.624q-.157.261-.533.832t-.91,1.273q-.533.7-1.183,1.443a13.545,13.545,0,0,1-1.364,1.352,8.563,8.563,0,0,1-1.43,1,2.862,2.862,0,0,1-1.364.389,2.181,2.181,0,0,1-1.118-.259,2.309,2.309,0,0,1-.716-.637,2.415,2.415,0,0,1-.389-.83,2.674,2.674,0,0,1-.092-.845,2.259,2.259,0,0,1,.169-.664q.144-.348.339-.728c.13-.25.267-.5.415-.752s.282-.5.4-.741q.442-.753.714-1.287a2.068,2.068,0,0,0,.274-.9.814.814,0,0,0-.105-.416.358.358,0,0,0-.338-.182,1.21,1.21,0,0,0-.221.014.6.6,0,0,1-.13.014,1.589,1.589,0,0,0-.182.014c-.077.007-.194.011-.35.011a1.419,1.419,0,0,1-.573-.1,2.771,2.771,0,0,0-.442-.157c-.07.122-.225.381-.467.78s-.525.867-.845,1.4-.659,1.1-1.014,1.689-.689,1.14-1,1.651l-.793,1.3c-.216.354-.351.567-.4.635Z" transform="translate(-14590.531 -7520.642)" fill="#6cace4"/>
    <path id="Path_6189" data-name="Path 6189" d="M127.136,85.825a.716.716,0,0,0,.4.1,1.272,1.272,0,0,0,.493-.1,1.876,1.876,0,0,0,.467-.286,1.059,1.059,0,0,0,.325-.469,1.61,1.61,0,0,0,0-.818,7.735,7.735,0,0,0-.325-1.144c-.146-.408-.308-.818-.479-1.234s-.321-.8-.443-1.145q-.156-.389-.259-.728c-.07-.189-.135-.375-.2-.558a3.032,3.032,0,0,0-.143-.377q-.13.209-.454.675t-.7.976q-.377.506-.714.934c-.225.286-.382.481-.469.586a.789.789,0,0,1-.4.273.357.357,0,0,1-.325-.08.467.467,0,0,1-.143-.338.922.922,0,0,1,.2-.532c.1-.139.259-.359.467-.664s.416-.614.624-.934.4-.606.573-.859a3.132,3.132,0,0,0,.285-.455.767.767,0,0,0-.143-.544.964.964,0,0,1-.065-.78,2.687,2.687,0,0,1,.469-.844,4.8,4.8,0,0,1,.857-.872,3.785,3.785,0,0,1,1.014-.583,1.131,1.131,0,0,1,.936.012,2.276,2.276,0,0,1,.546.455.586.586,0,0,1,.155.506c-.034.088-.086.2-.155.338a4.246,4.246,0,0,1-.312.508c-.139.2-.338.454-.6.767a7.376,7.376,0,0,0,.221,1.091c.1.331.186.616.273.857a6.87,6.87,0,0,0,.338.806c.157.312.32.633.494.963s.328.654.469.974a9.327,9.327,0,0,1,.338.9,1.514,1.514,0,0,1,.078.7,3.3,3.3,0,0,1-.455,1.065,7.069,7.069,0,0,1-.936,1.21,5.807,5.807,0,0,1-1.275,1,2.933,2.933,0,0,1-1.493.415,1.869,1.869,0,0,1-1.053-.338,3.674,3.674,0,0,1-1.377-1.689.807.807,0,0,1-.039-.675,3.839,3.839,0,0,1,.285-.494,2.826,2.826,0,0,1,.39-.416c.07-.051.157-.112.261-.182a1.9,1.9,0,0,1,.363-.155l.547-.182a11.991,11.991,0,0,0,.467,1.261c.139.3.251.541.338.714a1.345,1.345,0,0,0,.286.39Z" transform="translate(-14587.126 -7520.501)" fill="#6cace4"/>
    <path id="Path_6190" data-name="Path 6190" d="M144.138,82.26a12,12,0,0,0,1.8-1.092,8.35,8.35,0,0,0,1.626-1.558,8.853,8.853,0,0,0,1.221-2.067,8.536,8.536,0,0,0,.624-2.611,5.765,5.765,0,0,0-.169-2.17,3.28,3.28,0,0,0-.8-1.392,3.115,3.115,0,0,0-1.208-.741,4.376,4.376,0,0,0-1.352-.22,4.558,4.558,0,0,0-1.261.182,7.751,7.751,0,0,0-1.235.469.5.5,0,0,1,.182.128,1.915,1.915,0,0,1,.117.2.864.864,0,0,1,.09.247q-.6,2.522-.961,4.21t-.6,2.756q-.286,1.248-.416,2a1.879,1.879,0,0,0-.039.208c-.008.069-.022.147-.039.234a6.743,6.743,0,0,1,1.2.4,4.519,4.519,0,0,1,1.222.82Zm-2.782.883q.312-.051.624-.116c.208-.043.433-.1.675-.169a2.088,2.088,0,0,0-1.169-.521c-.051.278-.1.546-.13.806Zm10.629-8.031a8.562,8.562,0,0,1-.582,2.34,10.156,10.156,0,0,1-1.34,2.364,12.076,12.076,0,0,1-2.079,2.132,10.769,10.769,0,0,1-2.782,1.611c.155.294.3.608.442.936a7.661,7.661,0,0,1,.365,1.118q.233.832.4,1.716t.286,1.715q.117.83.208,1.547t.143,1.183a1.633,1.633,0,0,0,.506,1.1,1.61,1.61,0,0,0,.91.363,2.712,2.712,0,0,0,1.013-.115,3.473,3.473,0,0,0,.794-.339c-.019.016-.113.169-.286.454a5.817,5.817,0,0,1-.7.91,4.339,4.339,0,0,1-1.053.832,1.982,1.982,0,0,1-1.364.221,2.193,2.193,0,0,1-.924-.351,2.309,2.309,0,0,1-.7-.806,4.91,4.91,0,0,1-.481-1.365,12,12,0,0,1-.234-2.027q-.053-1.61-.117-3.08a8.366,8.366,0,0,0-.559-2.717c-.051-.138-.1-.273-.157-.4a1.821,1.821,0,0,0-.181-.351,13.6,13.6,0,0,1-2.391.338q-.182.986-.39,2.027T140.3,88.5q-.221.986-.467,1.858t-.481,1.5a3.087,3.087,0,0,1-.663,1.052,1.757,1.757,0,0,1-1.287.4,1.73,1.73,0,0,1-.91-.235,3.225,3.225,0,0,1-.753-.649l.325-.247a2.479,2.479,0,0,0,.52-.675,9.662,9.662,0,0,0,.649-1.442,20.848,20.848,0,0,0,.714-2.521q.13-.652.351-1.522t.481-1.909a1.559,1.559,0,0,1-.961-1.534,1.454,1.454,0,0,1,.546-1.014,2.753,2.753,0,0,1,1.2-.573q.336-1.351.689-2.728l.663-2.587q.312-1.209.571-2.182t.416-1.547a10.556,10.556,0,0,0-.936.7q-.415.338-.9.766a11.239,11.239,0,0,0-.9.9,1.507,1.507,0,0,1-.338-.338c-.088-.122-.155-.224-.208-.311a1.226,1.226,0,0,1-.157-.339,1.74,1.74,0,0,1-.182-.793c0-.286.209-.577.624-.871q.338-.233,1.028-.676a10.641,10.641,0,0,1,1.7-.857,15.668,15.668,0,0,1,2.352-.728,13.137,13.137,0,0,1,2.976-.312,4.86,4.86,0,0,1,2.652.649,4.723,4.723,0,0,1,1.56,1.587,5.731,5.731,0,0,1,.714,1.975,7.072,7.072,0,0,1,.089,1.819Z" transform="translate(-14582.933 -7522.55)" fill="#222d65"/>
    <path id="Path_6191" data-name="Path 6191" d="M152.641,77.068a1.337,1.337,0,0,0-.74.313,3.863,3.863,0,0,0-.844.9,7.733,7.733,0,0,0-.782,1.43,8.425,8.425,0,0,0-.546,1.936c.208-.157.433-.316.676-.481s.485-.342.728-.533a7.264,7.264,0,0,0,1.56-1.507A2.639,2.639,0,0,0,153.187,78a1.079,1.079,0,0,0-.1-.716.515.515,0,0,0-.443-.221Zm6.654,4a19.846,19.846,0,0,1-1.766,2.223,16.219,16.219,0,0,1-2.093,1.924,11.517,11.517,0,0,1-2.262,1.364,5.459,5.459,0,0,1-2.248.52,3.25,3.25,0,0,1-1.234-.273,3.529,3.529,0,0,1-1.21-.845,4.1,4.1,0,0,1-.87-1.481,5.111,5.111,0,0,1-.2-2.21,6.886,6.886,0,0,1,.663-2.248,10.293,10.293,0,0,1,1.379-2.169,7.764,7.764,0,0,1,1.844-1.638,3.83,3.83,0,0,1,2.066-.649,1.835,1.835,0,0,1,1.43.493,1.586,1.586,0,0,1,.39,1.222,3.754,3.754,0,0,1-.455,1.481,5.951,5.951,0,0,1-.9,1.222,9.043,9.043,0,0,1-1.1.988c-.39.293-.759.563-1.106.8-.381.261-.744.506-1.09.741s-.651.446-.91.637a2.823,2.823,0,0,0,.234,1.091,2.145,2.145,0,0,0,.52.716,1.872,1.872,0,0,0,.714.389,2.959,2.959,0,0,0,.818.117,3.687,3.687,0,0,0,1.847-.559,12.787,12.787,0,0,0,1.884-1.352,20.984,20.984,0,0,0,1.716-1.651q.79-.857,1.311-1.481a.69.69,0,0,1,.378-.246.367.367,0,0,1,.312.051.371.371,0,0,1,.116.312.971.971,0,0,1-.182.506Z" transform="translate(-14578.855 -7520.271)" fill="#222d65"/>
    <path id="Path_6192" data-name="Path 6192" d="M160.643,82.465q.128-.521.311-1.223t.313-1.352c.085-.432.15-.793.193-1.078s.031-.42-.038-.4a2.553,2.553,0,0,0-.286.077,1.374,1.374,0,0,1-.338.078,3.44,3.44,0,0,0-.417.078,2.408,2.408,0,0,0,.248-.689,1.585,1.585,0,0,0,.013-.428.636.636,0,0,0-.1-.286c-.192-.158-.525-.031-1,.377a8.815,8.815,0,0,0-1.65,2.248,6.808,6.808,0,0,0-.624,1.442,9.059,9.059,0,0,0-.324,1.443,5.052,5.052,0,0,0-.041,1.181,1.142,1.142,0,0,0,.209.663.842.842,0,0,0,.649.273,1.739,1.739,0,0,0,.74-.208,4.231,4.231,0,0,0,.753-.506,6.079,6.079,0,0,0,.675-.651,6.251,6.251,0,0,0,.5-.624,1.425,1.425,0,0,0,.221-.415Zm7.614-1.145q-.363.521-.936,1.287c-.381.511-.775,1.024-1.183,1.534s-.806.98-1.2,1.4a6.026,6.026,0,0,1-.974.9,2.776,2.776,0,0,1-.6.259,3.163,3.163,0,0,1-.689.13,2.432,2.432,0,0,1-.663-.038,1.551,1.551,0,0,1-.545-.221,1.36,1.36,0,0,1-.389-.52,4.435,4.435,0,0,1-.248-.755,4.29,4.29,0,0,1-.09-1.169,5.445,5.445,0,0,1-1.377,1.6,6.207,6.207,0,0,1-1.429.817,5.6,5.6,0,0,1-1.56.339,1.549,1.549,0,0,1-.782-.247,1.935,1.935,0,0,1-.7-.78,3.624,3.624,0,0,1-.365-1.377,6.255,6.255,0,0,1,.209-2.013A9.6,9.6,0,0,1,155.9,79.58a11.576,11.576,0,0,1,1.728-2.223,7.636,7.636,0,0,1,1.847-1.391,2.908,2.908,0,0,1,1.507-.416,3.151,3.151,0,0,1,1.142.416,1.245,1.245,0,0,1,.482.767,1.872,1.872,0,0,1-.429,1.338,5.8,5.8,0,0,1,.612-.1,3.7,3.7,0,0,1,.377-.027.524.524,0,0,1,.207.027.574.574,0,0,1,.027.22,4.3,4.3,0,0,1-.078.61q-.079.444-.235,1.2t-.415,1.948c-.035.157-.065.3-.092.429s-.051.261-.077.389l-.092.455c-.035.173-.077.39-.13.651a3.261,3.261,0,0,0-.014.508,1.937,1.937,0,0,0,.09.506.822.822,0,0,0,.248.377.725.725,0,0,0,.479.143,1.237,1.237,0,0,0,.676-.325,7.6,7.6,0,0,0,.884-.832q.468-.506.974-1.118t.949-1.183c.294-.379.559-.718.793-1.013s.4-.512.506-.651a.779.779,0,0,1,.417-.273.279.279,0,0,1,.311.117.621.621,0,0,1,.041.469,1.957,1.957,0,0,1-.378.726Z" transform="translate(-14576.355 -7520.286)" fill="#222d65"/>
    <path id="Path_6193" data-name="Path 6193" d="M163.114,87.972q1.144-4.81,1.834-7.721T166,75.807q.415-1.821.573-2.521c.051-.331.1-.651.131-.963a7.081,7.081,0,0,0,.051-.857,3.9,3.9,0,0,0-.078-.806,2.025,2.025,0,0,1,.455-.208c.163-.051.324-.1.479-.13a5.429,5.429,0,0,1,.573-.131,3.028,3.028,0,0,1,.52-.051,1.8,1.8,0,0,1,.39.039.294.294,0,0,1,.234.169.634.634,0,0,1,.143.519c-.009.262-.03.529-.066.807-.068.328-.146.685-.232,1.065q-.314,1.118-.857,3.223-.47,1.795-1.261,4.887t-1.988,7.8a.7.7,0,0,1-.313.182,1.22,1.22,0,0,1-.338.053,3.391,3.391,0,0,1-.39-.026,1.283,1.283,0,0,1-.675-.429,1.094,1.094,0,0,1-.235-.454Z" transform="translate(-14573.344 -7522.179)" fill="#222d65"/>
    <path id="Path_6194" data-name="Path 6194" d="M180.942,82.26a12.076,12.076,0,0,0,1.807-1.092,8.381,8.381,0,0,0,1.624-1.558,8.9,8.9,0,0,0,1.222-2.067,8.615,8.615,0,0,0,.624-2.611,5.79,5.79,0,0,0-.17-2.17,3.241,3.241,0,0,0-.806-1.392,3.091,3.091,0,0,0-1.207-.741,4.376,4.376,0,0,0-1.352-.22,4.565,4.565,0,0,0-1.261.182,7.787,7.787,0,0,0-1.234.469.527.527,0,0,1,.182.128,2.134,2.134,0,0,1,.116.2.862.862,0,0,1,.09.247q-.6,2.522-.961,4.21t-.6,2.756c-.192.832-.329,1.5-.417,2a1.864,1.864,0,0,0-.038.208c-.009.069-.023.147-.039.234a6.769,6.769,0,0,1,1.195.4,4.5,4.5,0,0,1,1.222.82Zm-2.782.883q.312-.051.624-.116c.208-.043.432-.1.676-.169a2.1,2.1,0,0,0-1.169-.521c-.053.278-.1.546-.131.806Zm10.631-8.031a8.617,8.617,0,0,1-.583,2.34,10.164,10.164,0,0,1-1.341,2.364,11.936,11.936,0,0,1-2.079,2.132,10.716,10.716,0,0,1-2.78,1.611c.157.294.3.608.442.936a7.662,7.662,0,0,1,.363,1.118c.158.555.29,1.126.4,1.716s.209,1.16.286,1.715.147,1.069.208,1.547.108.87.143,1.183a1.633,1.633,0,0,0,.506,1.1,1.61,1.61,0,0,0,.91.363,2.719,2.719,0,0,0,1.014-.115,3.459,3.459,0,0,0,.793-.339c-.018.016-.113.169-.286.454a5.817,5.817,0,0,1-.7.91,4.383,4.383,0,0,1-1.052.832,1.987,1.987,0,0,1-1.365.221,2.188,2.188,0,0,1-.922-.351,2.312,2.312,0,0,1-.7-.806,4.953,4.953,0,0,1-.481-1.365,12,12,0,0,1-.234-2.027q-.055-1.61-.117-3.08a8.33,8.33,0,0,0-.559-2.717c-.051-.138-.1-.273-.155-.4a1.9,1.9,0,0,0-.182-.351,13.578,13.578,0,0,1-2.391.338q-.182.986-.39,2.027t-.428,2.028c-.146.659-.3,1.277-.469,1.858s-.324,1.078-.481,1.5A3.087,3.087,0,0,1,175.5,92.9a1.755,1.755,0,0,1-1.287.4,1.726,1.726,0,0,1-.909-.235,3.23,3.23,0,0,1-.755-.649c.07-.051.178-.135.325-.247a2.454,2.454,0,0,0,.52-.675,9.665,9.665,0,0,0,.649-1.442,20.8,20.8,0,0,0,.716-2.521q.128-.652.35-1.522t.482-1.909a1.558,1.558,0,0,1-.963-1.534,1.449,1.449,0,0,1,.546-1.014,2.754,2.754,0,0,1,1.2-.573q.338-1.351.689-2.728t.663-2.587q.312-1.209.573-2.182l.415-1.547a10.77,10.77,0,0,0-.936.7q-.415.338-.9.766a11.229,11.229,0,0,0-.9.9,1.509,1.509,0,0,1-.338-.338c-.088-.122-.155-.224-.208-.311a1.268,1.268,0,0,1-.157-.339,1.757,1.757,0,0,1-.181-.793q0-.429.624-.871c.225-.155.566-.381,1.026-.676a10.641,10.641,0,0,1,1.7-.857,15.665,15.665,0,0,1,2.352-.728,13.128,13.128,0,0,1,2.976-.312,4.849,4.849,0,0,1,2.651.649,4.7,4.7,0,0,1,1.56,1.587,5.706,5.706,0,0,1,.716,1.975,7.139,7.139,0,0,1,.09,1.819Z" transform="translate(-14570.04 -7522.55)" fill="#222d65"/>
    <path id="Path_6195" data-name="Path 6195" d="M189.445,77.068a1.344,1.344,0,0,0-.741.313,3.863,3.863,0,0,0-.844.9,7.732,7.732,0,0,0-.78,1.43,8.358,8.358,0,0,0-.546,1.936c.208-.157.433-.316.676-.481s.485-.342.728-.533a7.3,7.3,0,0,0,1.56-1.507A2.617,2.617,0,0,0,189.99,78a1.07,1.07,0,0,0-.1-.716.511.511,0,0,0-.442-.221Zm6.654,4a19.7,19.7,0,0,1-1.768,2.223,16.131,16.131,0,0,1-2.093,1.924,11.469,11.469,0,0,1-2.26,1.364,5.464,5.464,0,0,1-2.248.52,3.245,3.245,0,0,1-1.234-.273,3.516,3.516,0,0,1-1.21-.845,4.1,4.1,0,0,1-.871-1.481,5.091,5.091,0,0,1-.194-2.21,6.886,6.886,0,0,1,.663-2.248,10.239,10.239,0,0,1,1.379-2.169,7.764,7.764,0,0,1,1.844-1.638,3.827,3.827,0,0,1,2.066-.649,1.837,1.837,0,0,1,1.43.493,1.591,1.591,0,0,1,.39,1.222,3.776,3.776,0,0,1-.455,1.481,6,6,0,0,1-.9,1.222,8.953,8.953,0,0,1-1.106.988c-.39.293-.758.563-1.1.8-.381.261-.745.506-1.09.741s-.651.446-.91.637a2.8,2.8,0,0,0,.234,1.091,2.161,2.161,0,0,0,.519.716,1.878,1.878,0,0,0,.716.389,2.959,2.959,0,0,0,.818.117,3.679,3.679,0,0,0,1.846-.559,12.729,12.729,0,0,0,1.885-1.352,20.758,20.758,0,0,0,1.715-1.651q.792-.857,1.312-1.481a.692.692,0,0,1,.377-.246.37.37,0,0,1,.313.051.375.375,0,0,1,.116.312.971.971,0,0,1-.182.506Z" transform="translate(-14565.964 -7520.271)" fill="#222d65"/>
    <path id="Path_6196" data-name="Path 6196" d="M191.333,87.972q1.142-4.81,1.832-7.721l1.053-4.444q.415-1.821.573-2.521c.051-.331.1-.651.13-.963a6.817,6.817,0,0,0,.051-.857,3.909,3.909,0,0,0-.077-.806,2,2,0,0,1,.455-.208c.163-.051.324-.1.479-.13a5.373,5.373,0,0,1,.573-.131,3.015,3.015,0,0,1,.52-.051,1.8,1.8,0,0,1,.39.039.294.294,0,0,1,.234.169.634.634,0,0,1,.143.519c-.009.262-.03.529-.066.807-.069.328-.146.685-.234,1.065q-.312,1.118-.856,3.223-.47,1.795-1.261,4.887t-1.989,7.8a.688.688,0,0,1-.312.182,1.22,1.22,0,0,1-.338.053,3.372,3.372,0,0,1-.39-.026,1.27,1.27,0,0,1-.675-.429,1.094,1.094,0,0,1-.235-.454Z" transform="translate(-14563.46 -7522.179)" fill="#222d65"/>
    <path id="Path_6197" data-name="Path 6197" d="M201.758,82.465c.085-.347.19-.755.311-1.223s.225-.917.313-1.352.15-.793.193-1.078.031-.42-.038-.4a2.632,2.632,0,0,0-.286.077,1.374,1.374,0,0,1-.338.078,3.418,3.418,0,0,0-.416.078,2.4,2.4,0,0,0,.247-.689,1.534,1.534,0,0,0,.014-.428.636.636,0,0,0-.1-.286c-.192-.158-.525-.031-1,.377A8.781,8.781,0,0,0,199,79.866a6.876,6.876,0,0,0-.624,1.442,9.21,9.21,0,0,0-.324,1.443,4.975,4.975,0,0,0-.039,1.181,1.144,1.144,0,0,0,.208.663.844.844,0,0,0,.649.273,1.734,1.734,0,0,0,.74-.208,4.242,4.242,0,0,0,.755-.506,6.33,6.33,0,0,0,.675-.651,6.414,6.414,0,0,0,.494-.624,1.392,1.392,0,0,0,.221-.415Zm7.616-1.145q-.365.521-.937,1.287t-1.183,1.534c-.4.512-.8.98-1.194,1.4a6.08,6.08,0,0,1-.975.9,2.777,2.777,0,0,1-.6.259,3.151,3.151,0,0,1-.687.13,2.426,2.426,0,0,1-.663-.038,1.548,1.548,0,0,1-.547-.221,1.36,1.36,0,0,1-.389-.52,4.45,4.45,0,0,1-.247-.755,4.229,4.229,0,0,1-.092-1.169,5.423,5.423,0,0,1-1.376,1.6,6.213,6.213,0,0,1-1.43.817,5.585,5.585,0,0,1-1.56.339,1.544,1.544,0,0,1-.78-.247,1.948,1.948,0,0,1-.7-.78,3.625,3.625,0,0,1-.363-1.377,6.213,6.213,0,0,1,.208-2.013,9.666,9.666,0,0,1,1.156-2.886,11.579,11.579,0,0,1,1.73-2.223,7.631,7.631,0,0,1,1.846-1.391,2.908,2.908,0,0,1,1.507-.416,3.159,3.159,0,0,1,1.144.416,1.249,1.249,0,0,1,.481.767,1.865,1.865,0,0,1-.429,1.338,5.8,5.8,0,0,1,.612-.1,3.718,3.718,0,0,1,.377-.027.524.524,0,0,1,.207.027.574.574,0,0,1,.027.22,4.3,4.3,0,0,1-.078.61c-.053.3-.13.694-.234,1.2s-.243,1.152-.416,1.948c-.034.157-.065.3-.091.429s-.053.261-.078.389-.057.282-.09.455-.078.39-.131.651a3.259,3.259,0,0,0-.014.508,1.884,1.884,0,0,0,.092.506.82.82,0,0,0,.247.377.727.727,0,0,0,.481.143,1.246,1.246,0,0,0,.676-.325,7.6,7.6,0,0,0,.883-.832q.468-.506.975-1.118t.949-1.183c.293-.379.559-.718.793-1.013s.4-.512.506-.651a.776.776,0,0,1,.416-.273.281.281,0,0,1,.312.117.629.629,0,0,1,.039.469,1.951,1.951,0,0,1-.377.726Z" transform="translate(-14561.954 -7520.286)" fill="#222d65"/>
    <path id="Path_6198" data-name="Path 6198" d="M214.6,81.853a.435.435,0,0,1,.271-.194.31.31,0,0,1,.273.039.333.333,0,0,1,.117.259,1.014,1.014,0,0,1-.142.493,16.849,16.849,0,0,1-1.365,2.133,24.167,24.167,0,0,1-1.78,2.143,13.369,13.369,0,0,1-1.82,1.651,2.726,2.726,0,0,1-1.483.649,2.769,2.769,0,0,1-1.429-.339,2.681,2.681,0,0,1-.9-.832,3.2,3.2,0,0,1-.455-1.078,3.352,3.352,0,0,1-.078-1.079q.027-.416.182-1.5c.1-.719.243-1.55.416-2.5s.367-1.958.585-3.041.446-2.128.689-3.133c-.294.036-.59.07-.883.1a6.87,6.87,0,0,1-.806.053,6.176,6.176,0,0,1-1.573-.194,6.242,6.242,0,0,1-1.1-.377.278.278,0,0,1-.182-.3.929.929,0,0,1,.155-.39,1.4,1.4,0,0,1,.324-.338.629.629,0,0,1,.352-.143c.328.035.685.065,1.065.092a11.854,11.854,0,0,0,1.248.014q.492-.026.948-.08c.3-.034.6-.078.9-.13q.338-1.248.663-2.17a5.6,5.6,0,0,1,.586-1.287.625.625,0,0,1,.351-.22,2.971,2.971,0,0,1,.583-.131,2.218,2.218,0,0,1,.6,0,.627.627,0,0,1,.416.194,2.438,2.438,0,0,1,.1,1.067,14.234,14.234,0,0,1-.285,2.183,13.96,13.96,0,0,1,1.935.117c.563.077,1.045.165,1.443.259a7.208,7.208,0,0,1,.961.286q.365.142.547.194a.258.258,0,0,1,.193.261.946.946,0,0,1-.077.428.9.9,0,0,1-.3.378.569.569,0,0,1-.469.1,4.546,4.546,0,0,1-.585-.1,6.326,6.326,0,0,0-.779-.131c-.3-.035-.664-.069-1.079-.1s-.9-.051-1.456-.051c-.1,0-.221,0-.351.012s-.265.012-.4.012q-.1.417-.2.82a7.533,7.533,0,0,1-.247.845q-.338,1.039-.779,2.26-.391,1.067-.937,2.444t-1.221,2.937a3.952,3.952,0,0,0,.039,1.7,1.968,1.968,0,0,0,.481.845,1.361,1.361,0,0,0,.832.311,1.545,1.545,0,0,0,.948-.273,6.829,6.829,0,0,0,1.159-.871q.6-.545,1.207-1.195t1.132-1.273q.518-.624.91-1.132l.546-.714Z" transform="translate(-14559.327 -7522.222)" fill="#222d65"/>
    <path id="Path_6199" data-name="Path 6199" d="M216.047,72.777a1.532,1.532,0,0,1-.3.559,1.947,1.947,0,0,1-.494.442A1.613,1.613,0,0,1,214.7,74a.531.531,0,0,1-.467-.1,1.237,1.237,0,0,1-.572-.9,1.55,1.55,0,0,1,.234-.909,2.628,2.628,0,0,1,.649-.729,1.669,1.669,0,0,1,.676-.35.539.539,0,0,1,.479.116,1.083,1.083,0,0,1,.3.442,1.956,1.956,0,0,1,.117.612,1.863,1.863,0,0,1-.065.6Zm-3.588,5.536a1.015,1.015,0,0,1,.494-.261,7.58,7.58,0,0,1,.753-.169,6.245,6.245,0,0,1,.716-.077,1.278,1.278,0,0,1,.375.014,1.933,1.933,0,0,1-.128.546c-.1.347-.235.755-.39,1.221s-.321.949-.494,1.443-.3.9-.39,1.208-.19.663-.312,1.052-.23.772-.324,1.145a7.153,7.153,0,0,0-.2,1.052,1.394,1.394,0,0,0,.078.753,1,1,0,0,0,.286.429.547.547,0,0,0,.338.116,2.446,2.446,0,0,0,1.313-.571,14.715,14.715,0,0,0,1.612-1.364q.818-.794,1.52-1.612a16.576,16.576,0,0,0,1.04-1.312,1,1,0,0,1,.429-.338.375.375,0,0,1,.363.026.426.426,0,0,1,.155.338,1.011,1.011,0,0,1-.169.546,13.8,13.8,0,0,1-1.222,1.73,25.31,25.31,0,0,1-1.716,1.923,15.721,15.721,0,0,1-1.78,1.573,2.9,2.9,0,0,1-1.416.676,2.067,2.067,0,0,1-.87-.144,2.736,2.736,0,0,1-1.365-1.169,1.855,1.855,0,0,1-.259-.845,9.859,9.859,0,0,1,0-1.78,21.883,21.883,0,0,1,.285-2.313,18.889,18.889,0,0,1,.533-2.248,4.854,4.854,0,0,1,.74-1.587Z" transform="translate(-14556.62 -7521.879)" fill="#222d65"/>
    <path id="Path_6200" data-name="Path 6200" d="M219.21,78.308a1.563,1.563,0,0,0-.077.493,7.266,7.266,0,0,0,.053.871,2.1,2.1,0,0,0,.259.82,1.631,1.631,0,0,0,.662.61,2.673,2.673,0,0,0,1.261.247,2.4,2.4,0,0,0,.261-.014c.086-.008.173-.022.261-.038.051-.225.1-.431.142-.613a2.092,2.092,0,0,0,.065-.479,4.894,4.894,0,0,0,0-1.014,4.293,4.293,0,0,0-.194-.949,2.285,2.285,0,0,0-.363-.7.669.669,0,0,0-.535-.273,1.829,1.829,0,0,0-.948.273,3.193,3.193,0,0,0-.845.768Zm-1.662,4.575a8.356,8.356,0,0,0,.051.922,2.723,2.723,0,0,0,.208.806,1.58,1.58,0,0,0,.416.571,1.01,1.01,0,0,0,.676.221,1.716,1.716,0,0,0,.857-.221,2.765,2.765,0,0,0,.7-.571,4.367,4.367,0,0,0,.558-.806,7.439,7.439,0,0,0,.431-.949c-.123.018-.239.03-.352.039s-.238.014-.375.014a2.591,2.591,0,0,1-1.7-.586,3.851,3.851,0,0,1-1.106-1.493q-.156.545-.259,1.065a4.975,4.975,0,0,0-.1.988Zm6.056-.624a9.1,9.1,0,0,1-.7,1.844,6.016,6.016,0,0,1-1.053,1.481,4.567,4.567,0,0,1-1.377.975,3.959,3.959,0,0,1-1.676.351,2.738,2.738,0,0,1-1.676-.455,2.787,2.787,0,0,1-.91-1.13,4.485,4.485,0,0,1-.365-1.483c-.043-.536-.066-1.038-.066-1.507a5.823,5.823,0,0,1,.117-1.091,9.843,9.843,0,0,1,.325-1.222,8.538,8.538,0,0,1,.533-1.248,6.192,6.192,0,0,1,.766-1.144,2.151,2.151,0,0,1,.482-.779,2.835,2.835,0,0,1,.752-.559,4,4,0,0,1,.924-.338,4.148,4.148,0,0,1,.961-.117.4.4,0,0,1,.143.026c.045.018.092.035.143.051a2.623,2.623,0,0,1,.845.261,3.6,3.6,0,0,1,.987.7,3.9,3.9,0,0,1,1.157,2.91c0,.14-.009.309-.027.508s-.034.369-.051.506a12.6,12.6,0,0,0,1.248-.571q.648-.336,1.261-.716c.406-.25.785-.506,1.13-.766a8.06,8.06,0,0,0,.832-.7.928.928,0,0,1,.442-.259.238.238,0,0,1,.261.1.506.506,0,0,1,.026.365,1.3,1.3,0,0,1-.286.52,7.925,7.925,0,0,1-.662.624q-.535.468-1.261,1.013a18.842,18.842,0,0,1-1.587,1.067,8.113,8.113,0,0,1-1.637.78Z" transform="translate(-14554.897 -7520.183)" fill="#222d65"/>
    <path id="Path_6201" data-name="Path 6201" d="M231.49,86.987a2.218,2.218,0,0,1-1.026-.221,1.912,1.912,0,0,1-.69-.585,2,2,0,0,1-.338-.845,2.623,2.623,0,0,1,.053-1.026c.051-.243.139-.568.261-.975s.246-.848.375-1.326.251-.953.363-1.43a9.181,9.181,0,0,0,.221-1.3,2.769,2.769,0,0,0-.051-.961.44.44,0,0,0-.443-.378,1.641,1.641,0,0,0-.857.273,4.808,4.808,0,0,0-.9.741,10.734,10.734,0,0,0-.909,1.079q-.456.612-.9,1.261-.235.883-.392,1.546t-.273,1.2c-.077.355-.151.667-.22.934s-.13.525-.182.768a1.015,1.015,0,0,1-.467.506,4.192,4.192,0,0,1-.832.4,2.4,2.4,0,0,1-.767.155q-.324,0-.273-.235c.018-.1.074-.338.169-.7l.338-1.287c.13-.5.263-1.017.4-1.572s.267-1.082.389-1.585c.086-.4.182-.841.286-1.326q.13-.624.325-1.456t.455-1.819a1.714,1.714,0,0,1,.375-.247,2.318,2.318,0,0,1,.4-.143,1.882,1.882,0,0,1,.442-.1,3.309,3.309,0,0,1,.416.027,2.031,2.031,0,0,1,.377.09,1.065,1.065,0,0,1,.351.194q-.077.182-.182.506c-.069.217-.138.446-.207.689q-.1.417-.261.859a12,12,0,0,1,.767-.949,6.792,6.792,0,0,1,.936-.871,5.043,5.043,0,0,1,1.079-.636,2.888,2.888,0,0,1,1.169-.247,1.455,1.455,0,0,1,.884.286,1.91,1.91,0,0,1,.61.793,3.5,3.5,0,0,1,.259,1.207,4.666,4.666,0,0,1-.194,1.534l-.286,1.145q-.13.545-.325,1.285t-.481,1.624a2.863,2.863,0,0,0-.116.988c.026.278.2.416.506.416a2.106,2.106,0,0,0,1.183-.573,12.3,12.3,0,0,0,1.442-1.377q.729-.806,1.379-1.65t.987-1.365a1.325,1.325,0,0,1,.442-.442.32.32,0,0,1,.325-.026c.077.053.117.169.117.35a1.63,1.63,0,0,1-.209.69,10.866,10.866,0,0,1-.559.961q-.379.6-.9,1.273t-1.117,1.365a12.232,12.232,0,0,1-1.248,1.248,7.689,7.689,0,0,1-1.287.91,2.517,2.517,0,0,1-1.208.351Z" transform="translate(-14552.282 -7520.129)" fill="#222d65"/>
    <path id="Path_6202" data-name="Path 6202" d="M236.326,85.825a.719.719,0,0,0,.4.1,1.267,1.267,0,0,0,.493-.1,1.908,1.908,0,0,0,.469-.286,1.07,1.07,0,0,0,.325-.469,1.61,1.61,0,0,0,0-.818,7.909,7.909,0,0,0-.325-1.144q-.221-.612-.481-1.234c-.173-.417-.321-.8-.443-1.145q-.154-.389-.259-.728c-.069-.189-.135-.375-.2-.558a3.622,3.622,0,0,0-.142-.377q-.132.209-.455.675t-.7.976q-.377.506-.714.934t-.469.586a.783.783,0,0,1-.4.273.358.358,0,0,1-.325-.08.466.466,0,0,1-.142-.338.909.909,0,0,1,.194-.532c.1-.139.261-.359.467-.664s.417-.614.624-.934.4-.606.573-.859a3.209,3.209,0,0,0,.286-.455.777.777,0,0,0-.144-.544.964.964,0,0,1-.063-.78,2.707,2.707,0,0,1,.467-.844,4.891,4.891,0,0,1,.857-.872,3.785,3.785,0,0,1,1.014-.583,1.131,1.131,0,0,1,.936.012,2.312,2.312,0,0,1,.547.455.594.594,0,0,1,.155.506c-.035.088-.088.2-.155.338a4.287,4.287,0,0,1-.313.508c-.138.2-.338.454-.6.767a7.377,7.377,0,0,0,.22,1.091c.1.331.186.616.273.857a6.859,6.859,0,0,0,.339.806q.233.468.493.963t.469.974a9.5,9.5,0,0,1,.338.9,1.5,1.5,0,0,1,.078.7,3.271,3.271,0,0,1-.455,1.065,6.94,6.94,0,0,1-.936,1.21,5.8,5.8,0,0,1-1.273,1,2.938,2.938,0,0,1-1.495.415,1.872,1.872,0,0,1-1.053-.338,3.7,3.7,0,0,1-1.377-1.689.817.817,0,0,1-.039-.675,3.82,3.82,0,0,1,.286-.494,2.732,2.732,0,0,1,.389-.416c.07-.051.158-.112.262-.182a1.844,1.844,0,0,1,.362-.155l.547-.182a12.3,12.3,0,0,0,.467,1.261c.139.3.253.541.338.714a1.344,1.344,0,0,0,.286.39Z" transform="translate(-14548.88 -7520.501)" fill="#222d65"/>
    <path id="Path_6203" data-name="Path 6203" d="M253.149,82.668a.558.558,0,0,1,.377-.22.376.376,0,0,1,.311.1.434.434,0,0,1,.1.351,1,1,0,0,1-.221.518,17.11,17.11,0,0,1-1.144,1.392q-.65.713-1.391,1.389t-1.495,1.273a10.808,10.808,0,0,1-1.454.988,2.839,2.839,0,0,1-1.314.442,1.41,1.41,0,0,1-1.052-.675,1.973,1.973,0,0,1-.455-1.287,7.207,7.207,0,0,1,.3-1.728c.12-.433.29-.949.506-1.547a15.129,15.129,0,0,0,.519-1.727,4.009,4.009,0,0,0,.117-1.418.608.608,0,0,0-.676-.585,1.78,1.78,0,0,0-.9.286,5.584,5.584,0,0,0-.961.74,9.155,9.155,0,0,0-.922,1.028,13.108,13.108,0,0,0-.779,1.118q-.209,1.013-.416,2-.184.834-.377,1.807t-.378,1.728a.9.9,0,0,1-.338.182,1.213,1.213,0,0,1-.338.053,2.755,2.755,0,0,1-.365-.026,1.661,1.661,0,0,1-.389-.155,1.886,1.886,0,0,1-.313-.274,1.075,1.075,0,0,1-.232-.454q1.169-4.81,1.844-7.721t1.04-4.444q.415-1.821.573-2.521c.051-.331.1-.651.13-.963a7.075,7.075,0,0,0,.051-.857,3.817,3.817,0,0,0-.078-.806,2.024,2.024,0,0,1,.455-.208q.247-.077.482-.13a5.283,5.283,0,0,1,.571-.131,3.016,3.016,0,0,1,.52-.051,1.8,1.8,0,0,1,.39.039.3.3,0,0,1,.234.169.634.634,0,0,1,.143.519c-.008.262-.031.529-.065.807-.07.328-.149.685-.234,1.065q-.547,2.1-1.222,4.094t-1.248,4.249a10.057,10.057,0,0,1,.806-1.065,7.9,7.9,0,0,1,1.026-1,5.939,5.939,0,0,1,1.183-.755,3.039,3.039,0,0,1,1.326-.3,2.035,2.035,0,0,1,.687.116,1.433,1.433,0,0,1,.573.39,1.829,1.829,0,0,1,.378.728,3.8,3.8,0,0,1,.1,1.13,4.341,4.341,0,0,1-.092.859c-.062.3-.143.62-.247.975s-.238.749-.4,1.183-.361.936-.586,1.507q-.233.6-.363,1.014a.868.868,0,0,0,.053.728c.155.277.463.343.921.2a7.728,7.728,0,0,0,2.069-1.339c.207-.174.442-.39.7-.649s.51-.524.753-.793.469-.525.676-.767.381-.433.52-.573Z" transform="translate(-14546.597 -7522.179)" fill="#222d65"/>
    <path id="Path_6204" data-name="Path 6204" d="M254.431,72.777a1.53,1.53,0,0,1-.3.559,1.946,1.946,0,0,1-.494.442,1.624,1.624,0,0,1-.558.221.534.534,0,0,1-.469-.1,1.246,1.246,0,0,1-.573-.9,1.56,1.56,0,0,1,.234-.909,2.632,2.632,0,0,1,.651-.729,1.669,1.669,0,0,1,.677-.35.54.54,0,0,1,.479.116,1.084,1.084,0,0,1,.3.442,1.953,1.953,0,0,1,.117.612,1.861,1.861,0,0,1-.065.6Zm-3.588,5.536a1.015,1.015,0,0,1,.494-.261,7.573,7.573,0,0,1,.753-.169,6.245,6.245,0,0,1,.716-.077,1.278,1.278,0,0,1,.375.014,1.913,1.913,0,0,1-.13.546c-.1.347-.234.755-.39,1.221s-.32.949-.493,1.443-.3.9-.39,1.208-.192.663-.312,1.052-.23.772-.325,1.145a7.32,7.32,0,0,0-.194,1.052,1.38,1.38,0,0,0,.078.753,1.013,1.013,0,0,0,.285.429.553.553,0,0,0,.338.116,2.449,2.449,0,0,0,1.314-.571,14.573,14.573,0,0,0,1.611-1.364q.82-.794,1.52-1.612a16.315,16.315,0,0,0,1.041-1.312,1,1,0,0,1,.428-.338.378.378,0,0,1,.365.026.426.426,0,0,1,.155.338,1.011,1.011,0,0,1-.169.546,13.8,13.8,0,0,1-1.222,1.73,25.592,25.592,0,0,1-1.716,1.923,15.713,15.713,0,0,1-1.78,1.573,2.9,2.9,0,0,1-1.416.676,2.064,2.064,0,0,1-.87-.144,2.713,2.713,0,0,1-.782-.469,2.683,2.683,0,0,1-.583-.7,1.873,1.873,0,0,1-.261-.845,9.866,9.866,0,0,1,0-1.78,22.6,22.6,0,0,1,.285-2.313A19.142,19.142,0,0,1,250.1,79.9a4.854,4.854,0,0,1,.74-1.587Z" transform="translate(-14543.175 -7521.879)" fill="#222d65"/>
    <path id="Path_6205" data-name="Path 6205" d="M257.874,81.313c-.088.294-.178.637-.274,1.026s-.2.855-.324,1.391a1.5,1.5,0,0,1,.467-.234,1.788,1.788,0,0,1,.521-.078,1.421,1.421,0,0,1,.728.3,11.789,11.789,0,0,0,1.065.636q.389-.468.818-1.052a12.111,12.111,0,0,0,.779-1.21,9.393,9.393,0,0,0,.6-1.273,4,4,0,0,0,.273-1.248,2.3,2.3,0,0,0-.182-1.221.811.811,0,0,0-.779-.443,2.641,2.641,0,0,0-1.755.949,15.5,15.5,0,0,0-1.935,2.456Zm-4.757,16.116a1.429,1.429,0,0,1-.363-.235,2.12,2.12,0,0,1-.313-.324,1.68,1.68,0,0,1-.259-.482q.727-2.781,1.234-4.834t.871-3.431q.391-1.612.675-2.7.259-1.037.521-2.079c.139-.606.289-1.254.454-1.948s.316-1.342.455-1.951a10.389,10.389,0,0,0,.312-1.624,1.27,1.27,0,0,0-.39-1.052,2.767,2.767,0,0,1,.637-.4,2.851,2.851,0,0,1,.586-.194,1.574,1.574,0,0,1,.57-.053c.469.035.759.181.872.442a2.446,2.446,0,0,1,.038,1.249c-.018.086-.03.159-.038.22a1.27,1.27,0,0,0-.014.194,8.734,8.734,0,0,1,.806-.8,8.939,8.939,0,0,1,.9-.7,4.94,4.94,0,0,1,.936-.508,2.457,2.457,0,0,1,.922-.193,1.526,1.526,0,0,1,.975.3,1.961,1.961,0,0,1,.585.793,3.6,3.6,0,0,1,.259,1.1,9.326,9.326,0,0,1,.027,1.21,6.272,6.272,0,0,1-.221,1.377,9.767,9.767,0,0,1-.533,1.481,13.676,13.676,0,0,1-.779,1.483,13.4,13.4,0,0,1-.936,1.352,1.023,1.023,0,0,1,.131.038c.016.009.026.018.026.027s.012.016.038.026a.723.723,0,0,0,.169.012,2.729,2.729,0,0,0,1.223-.311,6.955,6.955,0,0,0,1.221-.793,12.949,12.949,0,0,0,1.156-1.055q.561-.571,1.014-1.1t.767-.963c.208-.286.363-.489.467-.61a1.278,1.278,0,0,1,.392-.351.264.264,0,0,1,.285-.013.36.36,0,0,1,.105.3,1.4,1.4,0,0,1-.158.559,6.064,6.064,0,0,1-.442.753q-.338.521-.832,1.169t-1.13,1.352A12.075,12.075,0,0,1,265,85.419a8.111,8.111,0,0,1-1.442.949,3.179,3.179,0,0,1-1.443.377,4.527,4.527,0,0,1-.546-.026,1.311,1.311,0,0,1-.351-.09c-.095-.043-.186-.088-.273-.131s-.192-.09-.312-.142a3.96,3.96,0,0,1-.961.559,2.652,2.652,0,0,1-.961.193,1.913,1.913,0,0,1-.768-.142,1.429,1.429,0,0,1-.532-.39,2.165,2.165,0,0,1-.337-.547,4.221,4.221,0,0,1-.208-.583,1.838,1.838,0,0,0-.039.182c-.008.052-.022.12-.039.207q-.312,1.248-.651,2.886-.284,1.4-.687,3.419t-.845,4.587q-.156.7-.558.806a1.492,1.492,0,0,1-.924-.1Z" transform="translate(-14542.146 -7520.122)" fill="#222d65"/>
    <path id="Path_6206" data-name="Path 6206" d="M266.74,85.825a.719.719,0,0,0,.4.1,1.267,1.267,0,0,0,.493-.1,1.9,1.9,0,0,0,.468-.286,1.07,1.07,0,0,0,.325-.469,1.61,1.61,0,0,0,0-.818,7.908,7.908,0,0,0-.325-1.144q-.221-.612-.481-1.234c-.173-.417-.321-.8-.443-1.145q-.154-.389-.259-.728c-.069-.189-.135-.375-.2-.558a3.347,3.347,0,0,0-.142-.377c-.086.139-.239.365-.455.675s-.451.637-.7.976-.491.648-.716.934-.381.481-.467.586a.791.791,0,0,1-.4.273.358.358,0,0,1-.325-.08.466.466,0,0,1-.142-.338.9.9,0,0,1,.2-.532c.1-.139.259-.359.466-.664s.417-.614.624-.934.4-.606.572-.859a3.2,3.2,0,0,0,.286-.455.776.776,0,0,0-.145-.544.964.964,0,0,1-.063-.78,2.706,2.706,0,0,1,.467-.844,4.892,4.892,0,0,1,.857-.872,3.784,3.784,0,0,1,1.014-.583,1.131,1.131,0,0,1,.936.012,2.311,2.311,0,0,1,.547.455.594.594,0,0,1,.155.506c-.034.088-.088.2-.155.338a4.288,4.288,0,0,1-.313.508c-.138.2-.338.454-.6.767a7.379,7.379,0,0,0,.22,1.091c.1.331.186.616.273.857a6.868,6.868,0,0,0,.339.806q.233.468.493.963t.469.974a8.991,8.991,0,0,1,.338.9,1.5,1.5,0,0,1,.078.7,3.24,3.24,0,0,1-.455,1.065,6.938,6.938,0,0,1-.936,1.21,5.8,5.8,0,0,1-1.273,1,2.936,2.936,0,0,1-1.493.415,1.873,1.873,0,0,1-1.055-.338,3.7,3.7,0,0,1-1.377-1.689.817.817,0,0,1-.039-.675,4,4,0,0,1,.286-.494,2.733,2.733,0,0,1,.389-.416c.07-.051.158-.112.262-.182a1.842,1.842,0,0,1,.362-.155c.158-.051.339-.112.547-.182a12.625,12.625,0,0,0,.467,1.261c.139.3.252.541.338.714a1.345,1.345,0,0,0,.286.39Z" transform="translate(-14538.226 -7520.501)" fill="#222d65"/>
    <line id="Line_61" data-name="Line 61" x2="368.17" transform="translate(-14630.48 -7467.927)" fill="none" stroke="#6da9dc" stroke-width="0.871"/>
    <path id="Path_6175" data-name="Path 6175" d="M6.59,80.615c-.053.278-.117.636-.2,1.079s-.169.94-.273,1.5a10.288,10.288,0,0,0,1.56-.377A9.751,9.751,0,0,0,9.4,82.071a11.14,11.14,0,0,0,1.677-1.13,9.311,9.311,0,0,0,1.5-1.534,8.463,8.463,0,0,0,1.13-1.975,8.605,8.605,0,0,0,.585-2.456,5.5,5.5,0,0,0-.143-2.17,3.43,3.43,0,0,0-.791-1.4,2.921,2.921,0,0,0-1.2-.755A4.338,4.338,0,0,0,10.8,70.43a4.564,4.564,0,0,0-1.273.182,9.184,9.184,0,0,0-1.248.467.508.508,0,0,1,.181.131.968.968,0,0,1,.235.442q-.624,2.522-1.026,4.21t-.637,2.756q-.288,1.248-.442,2ZM.429,92.468c.07-.053.178-.139.325-.259a2.754,2.754,0,0,0,.52-.676,9.623,9.623,0,0,0,.663-1.43,20.651,20.651,0,0,0,.753-2.548q.209-.855.546-2.182t.741-2.834q.4-1.507.818-3.106t.8-3.042q.391-1.442.7-2.613t.5-1.818a8.827,8.827,0,0,0-.963.7q-.415.338-.883.767t-.91.9a2.164,2.164,0,0,1-.52-.624,2.124,2.124,0,0,1-.182-.338,2.156,2.156,0,0,1-.155-.806q0-.415.649-.859.338-.233,1.026-.675a11.374,11.374,0,0,1,1.7-.871,14.436,14.436,0,0,1,2.366-.74,13.221,13.221,0,0,1,2.99-.313,4.792,4.792,0,0,1,2.638.651,4.621,4.621,0,0,1,1.533,1.585,5.663,5.663,0,0,1,.689,1.975,7.4,7.4,0,0,1,.078,1.819,9.108,9.108,0,0,1-.936,3.041A10.6,10.6,0,0,1,13.763,81.1a12.34,12.34,0,0,1-3.353,2.275A11.9,11.9,0,0,1,5.888,84.44q-.209.986-.416,2.027T5.029,88.5q-.233,1-.481,1.872a13.657,13.657,0,0,1-.506,1.5,2.946,2.946,0,0,1-.675,1.079,1.855,1.855,0,0,1-1.326.4,1.711,1.711,0,0,1-.871-.232,2.772,2.772,0,0,1-.741-.651Z" transform="translate(-14630.33 -7522.543)" fill="#6cace4"/>
  </g>
</svg>
