<svg xmlns="http://www.w3.org/2000/svg" width="47.457" height="47.456" viewBox="0 0 47.457 47.456">
  <path id="Icon_fa-brands-square-instagram" data-name="Icon fa-brands-square-instagram" d="M23.728,20.328a5.65,5.65,0,1,0,5.652,5.651,5.65,5.65,0,0,0-5.652-5.651Zm13.211-4.343a5.72,5.72,0,0,0-3.221-3.221c-2.225-.878-7.521-.681-9.989-.681s-7.759-.2-9.99.681a5.72,5.72,0,0,0-3.221,3.221c-.877,2.225-.681,7.526-.681,9.992s-.2,7.761.685,9.993a5.72,5.72,0,0,0,3.221,3.221c2.225.878,7.521.681,9.99.681s7.758.2,9.989-.681a5.72,5.72,0,0,0,3.221-3.221c.885-2.225.681-7.526.681-9.992s.2-7.76-.681-9.992ZM23.728,34.664a8.676,8.676,0,1,1,6.145-2.541A8.686,8.686,0,0,1,23.728,34.664Zm9.044-15.709a2.016,2.016,0,1,1,1.437-.592,2.027,2.027,0,0,1-1.437.592Zm9.6-16.705H5.085A5.085,5.085,0,0,0,0,7.335V44.622a5.085,5.085,0,0,0,5.085,5.085H42.372a5.085,5.085,0,0,0,5.085-5.085V7.335A5.085,5.085,0,0,0,42.372,2.25ZM40.558,32.97c-.137,2.715-.756,5.121-2.738,7.1a10.084,10.084,0,0,1-7.1,2.738c-2.8.158-11.185.158-13.983,0a10.1,10.1,0,0,1-7.1-2.738A10.049,10.049,0,0,1,6.9,32.97c-.158-2.8-.158-11.187,0-13.983.137-2.715.749-5.121,2.738-7.1a10.1,10.1,0,0,1,7.1-2.731c2.8-.158,11.185-.158,13.983,0,2.715.137,5.12.757,7.1,2.738A10.085,10.085,0,0,1,40.558,19C40.716,21.788,40.716,30.169,40.558,32.97Z" transform="translate(0 -2.25)" fill="#012169"/>
</svg>
