<svg xmlns="http://www.w3.org/2000/svg" width="47.455" height="47.457" viewBox="0 0 47.455 47.457">
  <path id="Icon_corebrands-linkedin" data-name="Icon corebrands-linkedin" d="M40.426,40.442H33.407V29.428c0-2.626-.055-6-3.67-6-3.66,0-4.218,2.849-4.218,5.807V40.441H18.491V17.794h6.751v3.089h.09a7.4,7.4,0,0,1,6.66-3.66c7.12,0,8.441,4.688,8.441,10.783V40.441ZM10.551,14.7a4.083,4.083,0,1,1,4.086-4.079A4.078,4.078,0,0,1,10.551,14.7Zm3.521,25.743H7.029V17.8h7.043ZM43.95,0H3.5A3.46,3.46,0,0,0,0,3.421V44.035a3.46,3.46,0,0,0,3.5,3.421H43.942a3.473,3.473,0,0,0,3.513-3.421V3.421A3.473,3.473,0,0,0,43.942,0Z" fill="#012169"/>
</svg>
