<svg xmlns="http://www.w3.org/2000/svg" width="365.729" height="66.771" viewBox="0 0 365.729 66.771">
  <g id="g10" transform="translate(0 78)">
    <g id="g12" transform="translate(0 -78)">
      <path id="path14" d="M370.154-36.854h6.821v11.8l16.2-11.8h9.77l-19.148,13.53L405.1-7.654H394.416L376.975-20.839V-7.654h-6.821v-29.2" transform="translate(-42.551 71.008)" fill="#76b0e3"/>
      <path id="path16" d="M79.112-59.747C58.441-52.573,51.388-44.664,51.388-44.664S60.971-61.715,103.581-70.3c34.872-7.021,94.469-8.955,162.424,7.877,89.808,22.244,105.63,53.746,105.63,53.746H357.8S337.816-33.2,288.163-49.934c-32.345-10.9-71.1-19.938-129.6-20.783-35.516-.512-62.033,4.926-79.455,10.97" transform="translate(-5.907 75.444)" fill="#222d65"/>
      <path id="path18" d="M0-44.112H34.229V-37.9H7.868v9.389H22.1v6.489H7.868V-8.49H0V-44.112" transform="translate(0 71.845)" fill="#222d65"/>
      <path id="path20" d="M46.9-7.654h6.754v-29.2H46.9v29.2" transform="translate(-5.393 71.008)" fill="#222d65"/>
      <path id="path22" d="M75.146-31.814v8.074H90.555c2.033,0,3.083-.413,3.083-2.347v-3.381c0-1.934-1.049-2.347-3.083-2.347Zm-6.688-5.041H93.441c4.46,0,6.492,1.589,6.492,5.661v6.9c0,4-2.032,5.59-6.492,5.59h-3.8l13.18,11.045H93.113L81.506-18.7H75.146V-7.655H68.458v-29.2" transform="translate(-7.87 71.008)" fill="#222d65"/>
      <path id="path24" d="M123.078-31.606v6.144H141.11c5.509,0,7.214,1.381,7.214,6.9v4c0,5.455-1.705,6.9-7.214,6.9H123.078c-5.508,0-7.278-1.449-7.278-6.9v-.827l6.032-1.172V-13.1h20.393v-6.7H124.259c-5.443,0-7.28-1.381-7.28-6.9v-3.244c0-5.525,1.837-6.9,7.28-6.9h16.459c5.114,0,7.279,1.243,7.279,6.351v.69L142.159-28.5v-3.106H123.078" transform="translate(-13.311 71.007)" fill="#222d65"/>
      <path id="path26" d="M181.792-7.654h-6.753V-31.607H161.661v-5.247h33.573v5.247H181.792V-7.654" transform="translate(-18.584 71.008)" fill="#222d65"/>
      <path id="path28" d="M221.266-23.954v9.042h17.969c2.687,0,3.8-.553,3.8-3.175V-20.78c0-2.622-1.115-3.175-3.8-3.175Zm0-14.359v8.489h17.969c2.425,0,3.605-.482,3.605-2.554V-35.76c0-2.071-1.18-2.553-3.605-2.553Zm-7.737-5.8h28.985c5.18,0,7.605,1.934,7.605,6.9v4.348c0,3.453-2.1,5.524-5.835,6.008,3.933.551,6.1,3.037,6.1,6.833v4.555c0,4.764-3.343,6.973-9.966,6.973H213.529V-44.114" transform="translate(-24.546 71.847)" fill="#76b0e3"/>
      <path id="path30" d="M290.635-19.389l-6.49-12.15-6.23,12.15Zm-9.375-17.466h6.491l16.721,29.2h-7.607l-3.475-6.419H275.031l-3.478,6.419H264.8l16.459-29.2" transform="translate(-30.441 71.008)" fill="#76b0e3"/>
      <path id="path32" d="M317.4-36.854h4.654l23.542,19.4v-19.4h6.1v29.2H347.04L323.564-27.329V-7.654H317.4v-29.2" transform="translate(-36.484 71.008)" fill="#76b0e3"/>
    </g>
  </g>
</svg>
