<svg xmlns="http://www.w3.org/2000/svg" width="76.46" height="47.001" viewBox="0 0 76.46 47.001">
  <g id="Group_206" data-name="Group 206" transform="translate(0)">
    <path id="Path_454" data-name="Path 454" d="M131.529,212.264h10.452c9.423,0,15.434,5.795,15.434,14.838,0,10.019-6.661,14.892-17.275,14.892h-8.611V212.264Zm9.8,6.819c-.379,0-.866.054-1.516.054v16.03c5.307,0,9.423-2.112,9.423-8.231,0-5.253-3.358-7.853-7.907-7.853Z" transform="translate(-113.339 -195.147)" fill="#2d2d2d" fill-rule="evenodd"/>
    <path id="Path_455" data-name="Path 455" d="M366.148,218.212V210.36a16.245,16.245,0,0,0-6.661-1.354c-8.719,0-15.7,6.607-15.7,15.326s6.878,15.109,15.543,15.109c3.087,0,5.2-.65,6.823-1.9v-7.853c-2.437,1.516-4.116,2.166-6.39,2.166a7.6,7.6,0,0,1-7.8-7.907,7.737,7.737,0,0,1,7.8-7.961c2.383,0,4.116.813,6.39,2.221Z" transform="translate(-289.688 -192.44)" fill="#2d2d2d" fill-rule="evenodd"/>
    <path id="Path_456" data-name="Path 456" d="M24,122.231v1.408h5.795v-1.408c-1.679-.054-1.95-.271-1.95-1.408v-7.094l3.466,9.91h1.462l3.737-9.91v6.932c0,1.462,0,1.462-2.058,1.57v1.408h6.715v-1.408c-1.95,0-2-.217-2-1.246v-6.932c0-1.137.162-1.517,2-1.517v-1.462h-5.74L32.5,119.036l-2.708-7.961H24v1.462c1.625,0,1.9,0,1.9,1.408v6.661c0,1.3,0,1.625-1.9,1.625Z" transform="translate(-24 -111.075)" fill="#2d2d2d" fill-rule="evenodd"/>
    <path id="Path_457" data-name="Path 457" d="M190.105,138.724v1.408h5.361v-1.408c-1.3-.054-1.3-.217-1.3-2V135.2c0-1.462.65-2.654,2-2.654,1.083,0,1.408.7,1.408,1.679v3.2c0,1.083-.054,1.3-1.354,1.3v1.408h4.82v-1.408c-1.137,0-1.246-.108-1.246-1.191v-2.22c0-1.516.7-2.816,2.112-2.816,1.083,0,1.3.65,1.3,1.95V137.7c0,.921,0,1.029-1.3,1.029v1.408h5.307v-1.408c-1.625,0-1.733.054-1.733-.867v-3.628c0-2.058-.487-3.249-2.6-3.249a3.945,3.945,0,0,0-3.087,1.57,2.778,2.778,0,0,0-2.6-1.625,3.643,3.643,0,0,0-3.033,1.733V131.2H190.1v1.3c1.625,0,1.787.054,1.787,1.354v2.978c0,1.9,0,1.9-1.787,1.9Z" transform="translate(-162.007 -127.568)" fill="#2d2d2d" fill-rule="evenodd"/>
    <path id="Path_458" data-name="Path 458" d="M25.537,212.264v29.731h8.177l.054-11.372h7.961v-6.878H33.823l-.054-4.6h8.556v-6.878Z" transform="translate(-25.277 -195.147)" fill="#2d2d2d" fill-rule="evenodd"/>
    <path id="Path_459" data-name="Path 459" d="M295.1,111.1h3.791v4.6a3.8,3.8,0,0,1,2.708-1.191c2.166,0,3.628,1.95,3.628,4.657,0,2.924-1.462,4.82-3.953,4.82a3.413,3.413,0,0,1-2.762-1.246l-.758,1.029H296.62v-9.748c0-1.462-.108-1.625-1.516-1.625v-1.3Zm7.584,8.064c0-2.058-.758-3.087-1.841-3.087-1.408,0-2,1.137-2,3.249,0,1.841.7,3.087,1.95,3.087,1.029,0,1.9-.975,1.9-3.249Z" transform="translate(-249.243 -111.094)" fill="#2d2d2d" fill-rule="evenodd"/>
    <path id="Path_460" data-name="Path 460" d="M423.152,138.989V140.4H429v-1.408c-1.625,0-1.787.054-1.787-1.246v-1.95c0-1.787.6-3.412,2.22-3.412a1.451,1.451,0,0,1,.542.108,1.389,1.389,0,0,0-.921,1.246,1.181,1.181,0,0,0,1.246,1.191,1.47,1.47,0,0,0,1.462-1.625,1.992,1.992,0,0,0-2.058-2.058,3.334,3.334,0,0,0-2.545,1.462v-1.246h-4.007v1.3c1.408,0,1.787,0,1.787,1.191v3.682c0,1.246,0,1.354-1.787,1.354Z" transform="translate(-355.632 -127.833)" fill="#2d2d2d" fill-rule="evenodd"/>
    <path id="Path_461" data-name="Path 461" d="M367.381,136.2c0,1.733.812,2.924,2.275,2.924,1.3,0,1.9-.758,2.112-1.95h1.625a3.711,3.711,0,0,1-3.953,3.52,4.25,4.25,0,0,1-4.549-4.6c0-2.762,1.733-4.82,4.332-4.82,2.545,0,4.17,1.95,4.17,4.928Zm1.842-3.528c-1.083,0-1.733.758-1.733,2.112H370.9c0-1.408-.542-2.112-1.679-2.112Z" transform="translate(-307.225 -127.855)" fill="#2d2d2d" fill-rule="evenodd"/>
    <path id="Path_462" data-name="Path 462" d="M134.336,136.2c0,1.733.867,2.924,2.329,2.924,1.3,0,1.9-.758,2.112-1.95h1.57a3.663,3.663,0,0,1-3.9,3.52,4.291,4.291,0,0,1-4.6-4.6c0-2.762,1.787-4.82,4.386-4.82,2.545,0,4.116,1.95,4.116,4.928Zm1.9-3.528c-1.083,0-1.733.758-1.733,2.112h3.358c0-1.462-.542-2.112-1.625-2.112Z" transform="translate(-113.602 -127.855)" fill="#2d2d2d" fill-rule="evenodd"/>
    <path id="Path_463" data-name="Path 463" d="M289.679,241.995h8.178V212.264h-8.178Z" transform="translate(-244.737 -195.147)" fill="#2d2d2d" fill-rule="evenodd"/>
  </g>
</svg>
