<svg id="Group_874" data-name="Group 874" xmlns="http://www.w3.org/2000/svg" xmlns:xlink="http://www.w3.org/1999/xlink" width="178" height="265" viewBox="0 0 178 265">
  <defs>
    <linearGradient id="linear-gradient" x1="0.695" y1="0.255" x2="0.096" gradientUnits="objectBoundingBox">
      <stop offset="0" stop-color="#fff"/>
      <stop offset="1" stop-color="#6ca9dc"/>
    </linearGradient>
    <linearGradient id="linear-gradient-2" x1="0.695" y1="0.745" x2="0.096" y2="1" gradientUnits="objectBoundingBox">
      <stop offset="0" stop-color="#fff"/>
      <stop offset="1" stop-color="#85bd00"/>
    </linearGradient>
  </defs>
  <path id="Rectangle_730" data-name="Rectangle 730" d="M50,0H178a0,0,0,0,1,0,0V265a0,0,0,0,1,0,0H50A50,50,0,0,1,0,215V50A50,50,0,0,1,50,0Z" fill="url(#linear-gradient)" style="mix-blend-mode: multiply;isolation: isolate"/>
  <path id="Rectangle_736" data-name="Rectangle 736" d="M50,0H178a0,0,0,0,1,0,0V265a0,0,0,0,1,0,0H50A50,50,0,0,1,0,215V50A50,50,0,0,1,50,0Z" fill="url(#linear-gradient-2)" style="mix-blend-mode: multiply;isolation: isolate"/>
</svg>
