<svg xmlns="http://www.w3.org/2000/svg" xmlns:xlink="http://www.w3.org/1999/xlink" width="178" height="265" viewBox="0 0 178 265">
  <defs>
    <linearGradient id="linear-gradient" x1="0.305" y1="0.255" x2="0.904" gradientUnits="objectBoundingBox">
      <stop offset="0" stop-color="#fff"/>
      <stop offset="1" stop-color="#6ca9dc"/>
    </linearGradient>
    <linearGradient id="linear-gradient-2" x1="0.305" y1="0.745" x2="0.904" y2="1" gradientUnits="objectBoundingBox">
      <stop offset="0" stop-color="#fff"/>
      <stop offset="1" stop-color="#85bd00"/>
    </linearGradient>
  </defs>
  <g id="Group_873" data-name="Group 873" transform="translate(-178)">
    <path id="Rectangle_730" data-name="Rectangle 730" d="M0,0H128a50,50,0,0,1,50,50V215a50,50,0,0,1-50,50H0a0,0,0,0,1,0,0V0A0,0,0,0,1,0,0Z" transform="translate(178)" fill="url(#linear-gradient)" style="mix-blend-mode: multiply;isolation: isolate"/>
    <path id="Rectangle_736" data-name="Rectangle 736" d="M0,0H128a50,50,0,0,1,50,50V215a50,50,0,0,1-50,50H0a0,0,0,0,1,0,0V0A0,0,0,0,1,0,0Z" transform="translate(178)" fill="url(#linear-gradient-2)" style="mix-blend-mode: multiply;isolation: isolate"/>
  </g>
</svg>
