<svg xmlns="http://www.w3.org/2000/svg" width="32.111" height="32.111" viewBox="0 0 32.111 32.111">
  <g id="Group_3273" data-name="Group 3273" transform="translate(-1686.072 -234.944)">
    <path id="Path_6088" data-name="Path 6088" d="M15.806,0A15.806,15.806,0,1,0,31.611,15.806,15.823,15.823,0,0,0,15.806,0m0,30.106a14.3,14.3,0,1,1,14.3-14.3,14.319,14.319,0,0,1-14.3,14.3" transform="translate(1686.322 235.194)" fill="#012169" stroke="#012169" stroke-width="0.5"/>
    <path id="Path_6089" data-name="Path 6089" d="M185.841,209.968l-5.931-6.09a.726.726,0,0,0-1.046,0,.774.774,0,0,0,0,1.074l4.658,4.783-13.014,0a.76.76,0,0,0,0,1.52h13.014l-4.658,4.783a.774.774,0,0,0,0,1.074.719.719,0,0,0,1.043,0l5.931-6.09a.678.678,0,0,0,.147-.236.761.761,0,0,0,.055-.292.789.789,0,0,0-.055-.292.865.865,0,0,0-.147-.236Z" transform="translate(1524.219 40.502)" fill="#012169" stroke="#012169" stroke-width="0.5"/>
  </g>
</svg>
