<svg xmlns="http://www.w3.org/2000/svg" width="35.732" height="34.178" viewBox="0 0 35.732 34.178">
  <g id="Group_788" data-name="Group 788" transform="translate(-1870.758 -999.138)">
    <g id="Ellipse_41" data-name="Ellipse 41" transform="translate(1870.758 999.138)" fill="rgba(242,245,248,0.4)" stroke="#4A99DE" stroke-width="2">
      <ellipse cx="17.866" cy="17.089" rx="17.866" ry="17.089" stroke="none"/>
      <ellipse cx="17.866" cy="17.089" rx="16.866" ry="16.089" fill="none"/>
    </g>
    <g id="slider-play-icon" transform="translate(1822.238 1006.828)">
      <path id="Path_1" data-name="Path 1" d="M75.29,7.654,64.3.505A2.773,2.773,0,0,0,62.851,0c-.822,0-1.331.627-1.331,1.676v15.45c0,1.048.508,1.673,1.328,1.673a2.748,2.748,0,0,0,1.438-.506l11-7.149a2.127,2.127,0,0,0,1.1-1.746A2.119,2.119,0,0,0,75.29,7.654Z" transform="translate(0)" fill="rgba(242,245,248,0.4)" stroke="#4A99DE" stroke-width="2"/>
    </g>
  </g>
</svg>
