<svg xmlns="http://www.w3.org/2000/svg" xmlns:xlink="http://www.w3.org/1999/xlink" width="21.911" height="22" viewBox="0 0 21.911 22">
  <defs>
    <clipPath id="clip-path">
      <rect id="Rectangle_58" data-name="Rectangle 58" width="12.662" height="13.297" fill="#4787b4"/>
    </clipPath>
  </defs>
  <g id="Group_3705" data-name="Group 3705" transform="translate(-114.354)">
    <g id="Group_12" data-name="Group 12" transform="translate(119.574 4.352)">
      <g id="Group_11" data-name="Group 11" clip-path="url(#clip-path)">
        <path id="Path_5" data-name="Path 5" d="M10.2,5.943a.427.427,0,0,1-.1-.056Q7.772,3.547,5.441,1.2a.757.757,0,0,1-.268-.5A.659.659,0,0,1,5.526.072a.62.62,0,0,1,.735.114q.555.544,1.1,1.1Q9.967,3.9,12.57,6.526c.123.123.122.122,0,.242L7.007,12.351c-.233.234-.464.471-.7.7a1.014,1.014,0,0,1-.207.159.583.583,0,0,1-.673-.051.636.636,0,0,1-.262-.639.643.643,0,0,1,.2-.38q1.008-1.009,2.014-2.021Q8.462,9.038,9.546,7.956c.194-.194.391-.387.586-.581.014-.014.025-.029.047-.054-.037,0-.062-.005-.087-.005H.718a.688.688,0,0,1-.6-.3A.657.657,0,0,1,.57,6a1.2,1.2,0,0,1,.209-.019h9.395l.031-.035" transform="translate(0 0)" fill="#4787b4"/>
      </g>
    </g>
    <g id="Ellipse_3" data-name="Ellipse 3" transform="translate(114.354)" fill="none" stroke="#4c8ab6" stroke-width="0.75">
      <ellipse cx="10.956" cy="11" rx="10.956" ry="11" stroke="none"/>
      <ellipse cx="10.956" cy="11" rx="10.581" ry="10.625" fill="none"/>
    </g>
  </g>
</svg>
