<svg xmlns="http://www.w3.org/2000/svg" width="52.916" height="52.916" viewBox="0 0 52.916 52.916">
  <g id="Group_594" data-name="Group 594" transform="translate(-5.328 61.797) rotate(-90)">
    <path id="Path_5906" data-name="Path 5906" d="M26.458,0A26.458,26.458,0,1,0,52.916,26.458,26.487,26.487,0,0,0,26.458,0m0,50.4A23.938,23.938,0,1,1,50.4,26.458,23.969,23.969,0,0,1,26.458,50.4" transform="translate(8.881 5.328)" fill="#fff"/>
    <path id="Path_5907" data-name="Path 5907" d="M196.674,214.223l-9.929-10.2a1.215,1.215,0,0,0-1.752,0,1.3,1.3,0,0,0,0,1.8l7.8,8.007-21.784,0a1.272,1.272,0,0,0,0,2.544h21.784l-7.8,8.007a1.3,1.3,0,0,0,0,1.8,1.2,1.2,0,0,0,1.747,0l9.929-10.2a1.135,1.135,0,0,0,.247-.395,1.274,1.274,0,0,0,.092-.489,1.322,1.322,0,0,0-.092-.489,1.448,1.448,0,0,0-.247-.395Z" transform="translate(-148.057 -183.322)" fill="#fff"/>
  </g>
</svg>
