<svg id="Group_794" data-name="Group 794" xmlns="http://www.w3.org/2000/svg" width="41.828" height="40.01" viewBox="0 0 41.828 40.01">
  <g id="Ellipse_42" data-name="Ellipse 42" transform="translate(0 0)" fill="rgba(242,245,248,0.4)" stroke="#fff" stroke-width="2">
    <ellipse cx="20.914" cy="20.005" rx="20.914" ry="20.005" stroke="none"/>
    <ellipse cx="20.914" cy="20.005" rx="19.914" ry="19.005" fill="none"/>
  </g>
  <path id="Icon_awesome-volume-mute" data-name="Icon awesome-volume-mute" d="M11.4,4.874,6.682,9.589H1.272A1.272,1.272,0,0,0,0,10.861v7.633a1.272,1.272,0,0,0,1.272,1.272h5.41L11.4,24.481a1.273,1.273,0,0,0,2.172-.9V5.773A1.273,1.273,0,0,0,11.4,4.874Zm13.072,9.8,2.419-2.419a.855.855,0,0,0,0-1.21l-1.21-1.21a.855.855,0,0,0-1.21,0l-2.419,2.419L19.632,9.839a.855.855,0,0,0-1.21,0l-1.21,1.21a.855.855,0,0,0,0,1.21l2.419,2.419L17.213,17.1a.855.855,0,0,0,0,1.21l1.21,1.21a.855.855,0,0,0,1.21,0L22.051,17.1l2.419,2.419a.855.855,0,0,0,1.21,0l1.21-1.21a.855.855,0,0,0,0-1.21Z" transform="translate(7.344 5.327)" fill="#fff"/>
</svg>
