<svg xmlns="http://www.w3.org/2000/svg" width="24.417" height="24.418" viewBox="0 0 24.417 24.418">
  <g id="Group_880" data-name="Group 880" transform="translate(-572.501 -270.465)">
    <path id="Path_6002" data-name="Path 6002" d="M11.708,0A11.709,11.709,0,1,0,23.417,11.709,11.722,11.722,0,0,0,11.708,0m0,22.3A10.594,10.594,0,1,1,22.3,11.709,10.607,10.607,0,0,1,11.708,22.3" transform="translate(573.001 270.965)" fill="#012169" stroke="#012169" stroke-width="1"/>
    <path id="Path_6003" data-name="Path 6003" d="M182.064,208.179l-4.538-4.365a.582.582,0,0,0-.8,0,.53.53,0,0,0,0,.77l3.564,3.428h-9.956a.545.545,0,1,0,0,1.089h9.956l-3.564,3.428a.53.53,0,0,0,0,.77.576.576,0,0,0,.8,0l4.538-4.365a.483.483,0,0,0,.113-.169.516.516,0,0,0,.042-.21.535.535,0,0,0-.042-.21.615.615,0,0,0-.113-.169Z" transform="translate(408.714 74.116)" fill="#012169" stroke="#012169" stroke-width="1"/>
  </g>
</svg>
