<svg width="31" height="30" viewBox="0 0 31 30" fill="none" xmlns="http://www.w3.org/2000/svg">
<path d="M30.0174 2.20588V27.7941C30.0174 28.3792 29.7848 28.9402 29.3709 29.3539C28.957 29.7676 28.3956 30 27.8102 30H2.20716C1.62178 30 1.06038 29.7676 0.646462 29.3539C0.232539 28.9402 0 28.3792 0 27.7941L0 2.20588C0 1.62085 0.232539 1.05977 0.646462 0.646088C1.06038 0.232405 1.62178 0 2.20716 0L27.8102 0C28.3956 0 28.957 0.232405 29.3709 0.646088C29.7848 1.05977 30.0174 1.62085 30.0174 2.20588ZM8.82863 11.4706H4.41432V25.5882H8.82863V11.4706ZM9.22592 6.61765C9.22825 6.28393 9.16478 5.95303 9.03915 5.64383C8.91351 5.33463 8.72817 5.05319 8.4937 4.81558C8.25923 4.57797 7.98023 4.38884 7.67263 4.259C7.36502 4.12915 7.03484 4.06113 6.70093 4.05882H6.62148C5.94244 4.05882 5.29122 4.32841 4.81107 4.80829C4.33092 5.28816 4.06117 5.93901 4.06117 6.61765C4.06117 7.29629 4.33092 7.94714 4.81107 8.42701C5.29122 8.90688 5.94244 9.17647 6.62148 9.17647C6.95541 9.18468 7.28768 9.12705 7.59932 9.00688C7.91096 8.8867 8.19585 8.70633 8.43771 8.47608C8.67958 8.24582 8.87368 7.9702 9.00892 7.66494C9.14417 7.35969 9.2179 7.0308 9.22592 6.69706V6.61765ZM25.603 17.0118C25.603 12.7676 22.9015 11.1176 20.2176 11.1176C19.3388 11.0737 18.4639 11.2607 17.68 11.6602C16.8962 12.0596 16.2308 12.6575 15.7503 13.3941H15.6267V11.4706H11.4772V25.5882H15.8915V18.0794C15.8277 17.3104 16.0701 16.5472 16.566 15.9558C17.062 15.3643 17.7714 14.9923 18.5401 14.9206H18.7079C20.1116 14.9206 21.1534 15.8029 21.1534 18.0265V25.5882H25.5677L25.603 17.0118Z" fill="#001F3F"/>
</svg>
