<svg width="30" height="30" viewBox="0 0 30 30" fill="none" xmlns="http://www.w3.org/2000/svg">
<path d="M13.319 18.924C13.319 16.521 13.751 15.09 15.965 13.281L16.64 12.714C17.558 11.985 18.422 10.959 18.422 9.582C18.422 7.908 17.207 6.612 15.101 6.612C12.698 6.612 11.267 8.259 11.267 10.878H8.864C8.864 6.99 11.483 4.668 15.101 4.668C18.503 4.668 20.879 6.855 20.879 9.42C20.879 11.634 19.691 13.065 17.99 14.415L17.261 15.009C16.1 15.954 15.668 17.007 15.668 18.924H13.319ZM13.13 24V21.057H15.911V24H13.13Z" fill="white"/>
<circle cx="15" cy="15" r="14" stroke="white" stroke-width="2"/>
</svg>
