<svg width="31" height="31" viewBox="0 0 31 31" fill="none" xmlns="http://www.w3.org/2000/svg">
<path d="M30.4998 2.55744V28.1457C30.4998 28.7307 30.2674 29.2918 29.8537 29.7055C29.44 30.1192 28.8789 30.3516 28.2939 30.3516H2.70564C2.1206 30.3516 1.55953 30.1192 1.14584 29.7055C0.732161 29.2918 0.499756 28.7307 0.499756 28.1457L0.499756 2.55744C0.499756 1.97241 0.732161 1.41133 1.14584 0.99765C1.55953 0.583967 2.1206 0.351563 2.70564 0.351563L28.2939 0.351562C28.8789 0.351562 29.44 0.583967 29.8537 0.99765C30.2674 1.41133 30.4998 1.97241 30.4998 2.55744V2.55744ZM9.32329 11.8222H4.91152V25.9398H9.32329V11.8222ZM9.72034 6.96921C9.72267 6.6355 9.65924 6.30459 9.53368 5.99539C9.40812 5.68619 9.22288 5.40475 8.98855 5.16714C8.75421 4.92953 8.47537 4.7404 8.16795 4.61056C7.86052 4.48071 7.53053 4.4127 7.19681 4.41039H7.1174C6.43876 4.41039 5.78791 4.67998 5.30804 5.15985C4.82817 5.63972 4.55858 6.29057 4.55858 6.96921C4.55858 7.64785 4.82817 8.2987 5.30804 8.77857C5.78791 9.25844 6.43876 9.52803 7.1174 9.52803V9.52803C7.45114 9.53624 7.78322 9.47861 8.09468 9.35844C8.40614 9.23826 8.69087 9.05789 8.93259 8.82764C9.17432 8.59739 9.3683 8.32176 9.50347 8.01651C9.63864 7.71126 9.71233 7.38236 9.72034 7.04862V6.96921ZM26.088 17.3633C26.088 13.1192 23.388 11.4692 20.7056 11.4692C19.8274 11.4252 18.9529 11.6123 18.1695 12.0117C17.3861 12.4112 16.7212 13.009 16.2409 13.7457H16.1174V11.8222H11.9703V25.9398H16.3821V18.431C16.3183 17.6619 16.5606 16.8988 17.0562 16.3074C17.5518 15.7159 18.2608 15.3439 19.0292 15.2722H19.1968C20.5998 15.2722 21.6409 16.1545 21.6409 18.378V25.9398H26.0527L26.088 17.3633Z" fill="white"/>
</svg>
