<svg width="140" height="140" viewBox="0 0 140 140" fill="none" xmlns="http://www.w3.org/2000/svg">
<path d="M0 0H140V140H0V0Z" fill="#001F3F"/>
<path d="M69.1324 107.063C63.479 107.063 59.4922 111.075 59.4922 117.103C59.4922 123.64 63.5845 127.27 69.2378 127.27C74.5114 127.27 77.9287 124.277 78.3084 120.35H72.7184C72.4442 122.091 70.9887 123.046 69.2378 123.046C66.8752 123.046 65.1455 121.114 65.1033 118.461H78.4139V117.379C78.4139 111.138 75.0177 107.063 69.1113 107.063H69.1324ZM65.0822 114.789C65.3143 112.624 66.8752 111.053 69.0902 111.053C71.3051 111.053 72.7184 112.56 72.7606 114.789H65.0822Z" fill="white"/>
<path d="M85.7139 107.466H80.166V126.59H85.7139V107.466Z" fill="white"/>
<path d="M97.8869 115.107L95.3556 114.577C93.3305 114.195 92.6766 113.685 92.6766 112.773C92.6766 111.626 93.8579 111.032 95.3134 111.032C97.1064 111.032 98.2244 112.115 98.3721 113.6H103.878C103.73 109.716 100.545 107.063 95.3556 107.063C90.546 107.063 87.3186 109.61 87.3186 112.942C87.3186 116.169 89.6179 118.015 93.3516 118.801L95.9884 119.331C97.7181 119.671 98.5408 120.18 98.5408 121.22C98.5408 122.451 97.4017 123.3 95.6298 123.3C93.4782 123.3 92.2969 122.027 92.2336 120.138H86.6436C86.8756 124.447 90.2296 127.248 95.6298 127.248C100.714 127.248 103.962 124.595 103.962 120.902C103.962 117.442 101.41 115.787 97.8447 115.086L97.8869 115.107Z" fill="white"/>
<path d="M115.479 115.107L112.947 114.577C110.922 114.195 110.268 113.685 110.268 112.773C110.268 111.626 111.45 111.032 112.905 111.032C114.698 111.032 115.816 112.115 115.964 113.6H121.47C121.322 109.716 118.137 107.063 112.947 107.063C108.138 107.063 104.91 109.61 104.91 112.942C104.91 116.275 107.21 118.015 110.943 118.801L113.58 119.331C115.31 119.671 116.133 120.18 116.133 121.22C116.133 122.451 114.994 123.3 113.222 123.3C111.07 123.3 109.889 122.027 109.825 120.138H104.235C104.467 124.447 107.821 127.248 113.222 127.248C118.305 127.248 121.554 124.595 121.554 120.902C121.554 117.442 119.001 115.787 115.437 115.086L115.479 115.107Z" fill="white"/>
<path d="M34.9404 78.0054C34.9404 72.0411 30.5527 69.6851 24.8783 69.6851H13.5928V96.6202H19.5625V86.3046H24.8783C30.384 86.3046 34.9404 84.0759 34.9404 77.9842V78.0054ZM19.5625 81.3591V74.6943H24.7728C27.7261 74.6943 28.823 75.9678 28.823 78.0054C28.823 80.0855 27.5995 81.3591 24.7728 81.3591H19.5625Z" fill="white"/>
<path d="M40.5096 83.8847C40.6994 82.1442 41.9229 81.1042 43.8003 81.1042C45.5512 81.1042 46.5215 82.1018 46.5215 83.2692C46.5215 84.1182 46.0152 84.6064 44.5386 84.8187L41.8596 85.137C37.8728 85.6464 34.4766 87.0898 34.4766 91.3349C34.4766 95.1767 37.6407 97.3417 40.9315 97.3417C43.9902 97.3417 45.952 96.0682 46.9434 94.2215C46.8379 94.7946 46.7957 95.3677 46.7957 95.962V96.6625H51.9217V85.5403C51.9217 80.2339 49.5169 77.1562 43.6316 77.1562C38.5478 77.1562 35.2149 80.0005 34.9195 83.9272H40.5518L40.5096 83.8847ZM46.627 89.3397C46.627 91.7169 44.8972 93.3513 42.6401 93.3513C41.1424 93.3513 40.0455 92.5023 40.0455 91.0377C40.0455 89.5732 41.3112 88.9152 43.2097 88.5756L44.5175 88.3421C45.6355 88.1086 46.2473 87.9176 46.627 87.578V89.3397Z" fill="white"/>
<path d="M60.1701 97.3202C63.1445 97.3202 64.7898 96.0042 65.8235 94.2425C65.718 94.8155 65.6336 95.3886 65.6336 95.983V96.6409H71.1393V77.7715H65.6336V88.8936C65.6336 91.4407 64.0937 92.9265 62.0476 92.9265C60.0014 92.9265 59.0732 91.3133 59.0732 88.9149V77.7715H53.5254V89.7851C53.5254 94.7094 56.4364 97.3202 60.1912 97.3202H60.1701Z" fill="white"/>
<path d="M78.4387 69.6851H72.8909V96.6202H78.4387V69.6851Z" fill="white"/>
<path d="M80.082 100.016V103.412C83.7947 103.412 86.8112 100.377 86.8112 96.6415V89.8706H80.082V96.6415H83.4571C83.4571 98.5094 81.9594 100.038 80.082 100.038V100.016Z" fill="white"/>
<path d="M55.2349 100.016L51.5645 116.19C51.1848 117.803 50.9527 119.077 50.6785 120.966C50.3832 119.162 50.0668 117.803 49.7293 116.232L46.1854 100.016H37.8953L34.035 116.232C33.6975 117.803 33.4232 119.077 33.1068 120.966C32.7904 119.077 32.5373 117.803 32.1787 116.232L28.5926 100.016H22.1377L28.8035 126.569H36.6929L42.0087 106.193L46.6073 126.569H54.6865L61.3945 100.016H55.2138H55.2349Z" fill="white"/>
</svg>
