<svg width="109" height="59" viewBox="0 0 109 59" fill="none" xmlns="http://www.w3.org/2000/svg">
<path d="M56.1324 38.063C50.479 38.063 46.4922 42.0746 46.4922 48.1026C46.4922 54.6401 50.5845 58.2696 56.2378 58.2696C61.5114 58.2696 64.9287 55.2769 65.3084 51.3501H59.7184C59.4442 53.0906 57.9887 54.0458 56.2378 54.0458C53.8752 54.0458 52.1455 52.1143 52.1033 49.4611H65.4139V48.3786C65.4139 42.1383 62.0177 38.063 56.1113 38.063H56.1324ZM52.0822 45.7891C52.3143 43.6241 53.8752 42.0534 56.0902 42.0534C58.3051 42.0534 59.7184 43.5604 59.7606 45.7891H52.0822Z" fill="white"/>
<path d="M72.7137 38.4658H67.1659V57.59H72.7137V38.4658Z" fill="white"/>
<path d="M84.8868 46.1074L82.3554 45.5768C80.3304 45.1947 79.6765 44.6853 79.6765 43.7726C79.6765 42.6265 80.8577 42.0322 82.3133 42.0322C84.1063 42.0322 85.2243 43.1147 85.3719 44.6004H90.8776C90.7299 40.7162 87.5447 38.063 82.3554 38.063C77.5459 38.063 74.3185 40.61 74.3185 43.9424C74.3185 47.1687 76.6178 49.0153 80.3515 49.8007L82.9883 50.3313C84.718 50.6709 85.5407 51.1803 85.5407 52.2204C85.5407 53.4515 84.4016 54.3005 82.6297 54.3005C80.478 54.3005 79.2967 53.027 79.2335 51.1379H73.6434C73.8755 55.4467 77.2295 58.2484 82.6297 58.2484C87.7134 58.2484 90.962 55.5952 90.962 51.902C90.962 48.4422 88.4096 46.7867 84.8446 46.0862L84.8868 46.1074Z" fill="white"/>
<path d="M102.479 46.1074L99.9475 45.5768C97.9224 45.1947 97.2685 44.6853 97.2685 43.7726C97.2685 42.6265 98.4498 42.0322 99.9053 42.0322C101.698 42.0322 102.816 43.1147 102.964 44.6004H108.47C108.322 40.7162 105.137 38.063 99.9475 38.063C95.1379 38.063 91.9105 40.61 91.9105 43.9424C91.9105 47.2748 94.2098 49.0153 97.9435 49.8007L100.58 50.3313C102.31 50.6709 103.133 51.1803 103.133 52.2204C103.133 53.4515 101.994 54.3005 100.222 54.3005C98.0701 54.3005 96.8888 53.027 96.8255 51.1379H91.2355C91.4675 55.4467 94.8215 58.2484 100.222 58.2484C105.305 58.2484 108.554 55.5952 108.554 51.902C108.554 48.4422 106.002 46.7867 102.437 46.0862L102.479 46.1074Z" fill="white"/>
<path d="M21.9404 9.00545C21.9404 3.04109 17.5527 0.685059 11.8783 0.685059H0.592773V27.6202H6.56251V17.3046H11.8783C17.384 17.3046 21.9404 15.0759 21.9404 8.98422V9.00545ZM6.56251 12.3591V5.69427H11.7728C14.7261 5.69427 15.823 6.9678 15.823 9.00545C15.823 11.0855 14.5995 12.3591 11.7728 12.3591H6.56251Z" fill="white"/>
<path d="M27.5097 14.8847C27.6996 13.1442 28.923 12.1042 30.8004 12.1042C32.5513 12.1042 33.5216 13.1018 33.5216 14.2692C33.5216 15.1182 33.0154 15.6064 31.5387 15.8187L28.8597 16.137C24.8729 16.6464 21.4767 18.0898 21.4767 22.3349C21.4767 26.1767 24.6409 28.3417 27.9316 28.3417C30.9903 28.3417 32.9521 27.0682 33.9435 25.2215C33.838 25.7946 33.7958 26.3677 33.7958 26.962V27.6625H38.9218V16.5403C38.9218 11.2339 36.517 8.15625 30.6317 8.15625C25.5479 8.15625 22.215 11.0005 21.9197 14.9272H27.5519L27.5097 14.8847ZM33.6271 20.3397C33.6271 22.7169 31.8974 24.3513 29.6402 24.3513C28.1425 24.3513 27.0456 23.5023 27.0456 22.0377C27.0456 20.5732 28.3113 19.9152 30.2098 19.5756L31.5176 19.3421C32.6357 19.1086 33.2474 18.9176 33.6271 18.578V20.3397Z" fill="white"/>
<path d="M47.17 28.3202C50.1443 28.3202 51.7897 27.0042 52.8233 25.2425C52.7179 25.8155 52.6335 26.3886 52.6335 26.983V27.6409H58.1391V8.77148H52.6335V19.8936C52.6335 22.4407 51.0936 23.9265 49.0474 23.9265C47.0013 23.9265 46.0731 22.3133 46.0731 19.9149V8.77148H40.5253V20.7851C40.5253 25.7094 43.4363 28.3202 47.1911 28.3202H47.17Z" fill="white"/>
<path d="M65.4386 0.685059H59.8907V27.6202H65.4386V0.685059Z" fill="white"/>
<path d="M67.0819 31.0164V34.4125C70.7945 34.4125 73.811 31.3772 73.811 27.6415V20.8706H67.0819V27.6415H70.457C70.457 29.5094 68.9593 31.0376 67.0819 31.0376V31.0164Z" fill="white"/>
<path d="M42.2349 31.0161L38.5645 47.1899C38.1848 48.8031 37.9527 50.0766 37.6785 51.9657C37.3832 50.1615 37.0668 48.8031 36.7293 47.2324L33.1854 31.0161H24.8953L21.035 47.2324C20.6975 48.8031 20.4232 50.0766 20.1068 51.9657C19.7904 50.0766 19.5373 48.8031 19.1787 47.2324L15.5926 31.0161H9.1377L15.8035 57.5692H23.6929L29.0087 37.1927L33.6073 57.5692H41.6865L48.3945 31.0161H42.2138H42.2349Z" fill="white"/>
</svg>
