<svg version="1.2" baseProfile="tiny-ps" xmlns="http://www.w3.org/2000/svg" viewBox="0 0 123 123" width="123" height="123">
	<title>more-info-svg</title>
	<style>
		tspan { white-space:pre }
		.shp0 { fill: #ffffff } 
	</style>
	<path id="Layer" fill-rule="evenodd" class="shp0" d="M121.73 49.46C127.46 78.22 112.07 107.01 84.98 118.24C57.9 129.46 26.65 119.99 10.36 95.61C-5.93 71.23 -2.73 38.73 18 18C20.84 15.15 23.96 12.59 27.3 10.35C30.65 8.11 34.21 6.21 37.92 4.67C41.64 3.12 45.5 1.95 49.45 1.17C53.4 0.39 57.42 0 61.44 0C90.76 -0.01 116.01 20.7 121.73 49.46ZM33.47 19.6C13.51 32.93 5.74 58.5 14.93 80.68C24.11 102.86 47.68 115.46 71.22 110.78C94.76 106.1 111.72 85.44 111.72 61.44C111.72 58.15 111.4 54.86 110.76 51.63C110.12 48.4 109.17 45.24 107.91 42.19C106.65 39.15 105.09 36.24 103.26 33.5C101.43 30.76 99.33 28.21 97 25.88C80.03 8.9 53.44 6.27 33.47 19.6ZM62.21 83.8L62.04 84.43L61.92 84.92L61.87 85.26L61.87 85.53C61.87 85.58 61.87 85.64 61.87 85.69C61.88 85.75 61.88 85.8 61.89 85.85C61.9 85.91 61.91 85.96 61.92 86.01C61.93 86.07 61.94 86.12 61.96 86.17C61.97 86.21 61.98 86.24 62 86.28C62.02 86.32 62.03 86.35 62.05 86.39C62.07 86.42 62.09 86.46 62.12 86.49C62.14 86.52 62.16 86.55 62.19 86.58C62.21 86.61 62.24 86.63 62.27 86.65C62.29 86.68 62.32 86.7 62.35 86.72C62.38 86.74 62.41 86.75 62.44 86.77C62.47 86.78 62.51 86.8 62.54 86.81C62.58 86.83 62.63 86.84 62.67 86.85C62.72 86.86 62.76 86.87 62.81 86.88C62.86 86.89 62.9 86.89 62.95 86.9C63 86.9 63.04 86.9 63.09 86.9C63.22 86.88 63.36 86.86 63.49 86.83C63.62 86.79 63.74 86.75 63.87 86.69C63.99 86.64 64.11 86.58 64.22 86.51C64.34 86.44 64.45 86.36 64.55 86.27C64.75 86.12 64.94 85.96 65.13 85.8C65.31 85.63 65.5 85.47 65.68 85.29C65.86 85.12 66.03 84.95 66.2 84.77C66.37 84.58 66.54 84.4 66.7 84.21C66.93 83.95 67.16 83.68 67.38 83.41C67.6 83.14 67.82 82.87 68.03 82.6C68.25 82.32 68.46 82.04 68.66 81.76C68.87 81.48 69.07 81.2 69.27 80.91C70.16 79.65 71.09 78.2 72.06 76.58C72.08 76.54 72.12 76.5 72.16 76.47C72.19 76.45 72.24 76.43 72.28 76.41C72.33 76.4 72.38 76.4 72.43 76.4C72.47 76.41 72.52 76.43 72.56 76.45L75.84 78.89C75.88 78.92 75.91 78.95 75.94 78.99C75.96 79.03 75.98 79.08 75.99 79.12C76 79.17 76 79.22 75.99 79.26C75.98 79.31 75.96 79.35 75.93 79.39C75.59 79.99 75.24 80.58 74.88 81.17C74.52 81.76 74.15 82.34 73.76 82.91C73.38 83.48 72.99 84.05 72.59 84.61C72.19 85.16 71.77 85.72 71.35 86.26C71 86.71 70.64 87.15 70.27 87.58C69.9 88.01 69.52 88.43 69.12 88.84C68.73 89.25 68.32 89.64 67.9 90.03C67.49 90.41 67.06 90.79 66.62 91.15C66.25 91.45 65.87 91.75 65.48 92.02C65.09 92.3 64.68 92.56 64.27 92.8C63.86 93.05 63.44 93.27 63.01 93.49C62.58 93.7 62.14 93.89 61.7 94.07C61.29 94.23 60.87 94.38 60.44 94.5C60.02 94.63 59.59 94.73 59.15 94.81C58.72 94.9 58.28 94.96 57.84 95C57.4 95.05 56.95 95.07 56.51 95.07C56.17 95.08 55.82 95.07 55.48 95.05C55.14 95.03 54.79 95 54.45 94.95C54.11 94.9 53.78 94.84 53.44 94.77C53.1 94.7 52.77 94.62 52.44 94.52C52.16 94.44 51.89 94.34 51.63 94.23C51.36 94.12 51.1 93.99 50.85 93.85C50.6 93.71 50.35 93.56 50.12 93.4C49.88 93.23 49.66 93.05 49.44 92.86C49.23 92.67 49.04 92.48 48.86 92.27C48.68 92.06 48.51 91.84 48.35 91.61C48.19 91.38 48.05 91.14 47.92 90.9C47.79 90.65 47.68 90.4 47.58 90.14C47.47 89.85 47.38 89.56 47.3 89.26C47.22 88.96 47.16 88.66 47.11 88.36C47.05 88.05 47.02 87.75 47 87.44C46.97 87.14 46.96 86.83 46.97 86.52C46.97 86.07 46.97 85.6 47.05 85.1C47.13 84.6 47.19 84.1 47.3 83.52C47.4 82.98 47.55 82.37 47.73 81.7C47.91 81.03 48.14 80.27 48.4 79.44L54.1 61.61L54.57 59.94C54.69 59.47 54.79 59.06 54.87 58.7C54.89 58.63 54.9 58.55 54.92 58.48C54.93 58.4 54.94 58.33 54.96 58.25C54.97 58.18 54.98 58.1 54.99 58.03C55 57.95 55.01 57.88 55.02 57.8C55.03 57.74 55.04 57.67 55.04 57.61C55.05 57.54 55.06 57.48 55.06 57.42C55.07 57.35 55.07 57.29 55.07 57.22C55.08 57.16 55.08 57.09 55.08 57.03C55.08 56.94 55.08 56.84 55.07 56.75C55.06 56.66 55.05 56.57 55.03 56.48C55.02 56.38 54.99 56.29 54.97 56.2C54.94 56.11 54.91 56.03 54.88 55.94C54.85 55.86 54.81 55.79 54.77 55.72C54.73 55.64 54.68 55.57 54.64 55.51C54.59 55.44 54.54 55.37 54.48 55.31C54.43 55.25 54.37 55.19 54.31 55.13C54.24 55.07 54.17 55.01 54.1 54.96C54.02 54.9 53.95 54.85 53.87 54.81C53.79 54.76 53.71 54.72 53.62 54.68C53.54 54.64 53.46 54.61 53.37 54.58C53.27 54.55 53.16 54.52 53.06 54.5C52.95 54.47 52.84 54.45 52.74 54.43C52.63 54.42 52.52 54.41 52.41 54.4C52.31 54.39 52.2 54.39 52.09 54.39L47.45 54.39C47.4 54.39 47.35 54.38 47.31 54.36C47.27 54.34 47.23 54.32 47.19 54.29C47.16 54.25 47.13 54.21 47.11 54.17C47.09 54.12 47.08 54.08 47.08 54.03L47.08 53.9L48.3 49.47C48.31 49.43 48.33 49.39 48.35 49.36C48.37 49.33 48.4 49.3 48.43 49.27C48.47 49.25 48.5 49.23 48.54 49.22C48.58 49.21 48.62 49.2 48.66 49.2L72.33 48.45C72.38 48.45 72.43 48.46 72.47 48.48C72.52 48.49 72.56 48.52 72.59 48.55C72.63 48.59 72.66 48.63 72.68 48.67C72.7 48.71 72.71 48.76 72.71 48.81L72.71 48.93L62.21 83.78L62.21 83.8ZM59.15 35.19C59.18 34.92 59.21 34.65 59.26 34.39C59.32 34.12 59.38 33.86 59.46 33.6C59.54 33.34 59.63 33.09 59.73 32.84C59.83 32.59 59.95 32.35 60.08 32.12C60.2 31.88 60.34 31.65 60.49 31.43C60.65 31.21 60.81 31 60.98 30.79C61.15 30.59 61.34 30.4 61.53 30.21C61.72 30.02 61.91 29.84 62.12 29.67C62.32 29.5 62.53 29.34 62.75 29.19C62.97 29.04 63.2 28.9 63.43 28.77C63.67 28.64 63.91 28.53 64.15 28.42C64.63 28.22 65.14 28.07 65.65 27.97C66.16 27.87 66.68 27.82 67.2 27.82C67.73 27.82 68.25 27.87 68.76 27.97C69.27 28.07 69.78 28.22 70.26 28.42C70.5 28.53 70.74 28.64 70.97 28.77C71.2 28.9 71.42 29.04 71.64 29.19C71.85 29.34 72.06 29.5 72.26 29.67C72.46 29.84 72.66 30.02 72.84 30.21C73.03 30.4 73.21 30.59 73.38 30.8C73.55 31 73.71 31.21 73.86 31.43C74.01 31.66 74.15 31.88 74.27 32.12C74.4 32.35 74.51 32.59 74.61 32.84C74.71 33.09 74.8 33.35 74.87 33.6C74.95 33.86 75.01 34.13 75.06 34.39C75.11 34.66 75.14 34.92 75.17 35.19C75.19 35.46 75.2 35.73 75.2 36C75.2 36.26 75.19 36.53 75.17 36.79C75.14 37.06 75.11 37.32 75.06 37.58C75.01 37.84 74.94 38.1 74.87 38.35C74.8 38.6 74.71 38.85 74.61 39.1C74.51 39.35 74.39 39.59 74.27 39.82C74.14 40.06 74.01 40.29 73.86 40.51C73.71 40.73 73.55 40.95 73.38 41.15C73.22 41.36 73.04 41.56 72.85 41.75C72.67 41.94 72.47 42.12 72.27 42.3C72.07 42.47 71.86 42.63 71.64 42.79C71.43 42.94 71.2 43.08 70.97 43.21C70.74 43.34 70.5 43.46 70.26 43.57C70.02 43.67 69.77 43.76 69.52 43.84C69.27 43.91 69.02 43.97 68.77 44.03C68.51 44.08 68.25 44.11 67.99 44.14C67.73 44.16 67.47 44.17 67.21 44.17C66.94 44.17 66.68 44.16 66.41 44.14C66.15 44.11 65.88 44.08 65.62 44.03C65.36 43.98 65.1 43.91 64.84 43.84C64.59 43.76 64.34 43.67 64.09 43.57C63.84 43.47 63.61 43.35 63.37 43.22C63.14 43.09 62.91 42.95 62.69 42.8C62.47 42.65 62.26 42.49 62.06 42.32C61.86 42.15 61.66 41.96 61.48 41.77C61.29 41.58 61.11 41.38 60.94 41.18C60.77 40.97 60.61 40.76 60.46 40.54C60.32 40.32 60.18 40.09 60.05 39.85C59.93 39.62 59.81 39.38 59.71 39.13C59.61 38.88 59.52 38.63 59.45 38.37C59.38 38.12 59.31 37.86 59.26 37.59C59.21 37.33 59.18 37.07 59.15 36.8C59.13 36.53 59.12 36.27 59.12 36C59.12 35.73 59.13 35.46 59.15 35.19Z" />
</svg>