<svg width="111" height="111" viewBox="0 0 111 111" fill="none" xmlns="http://www.w3.org/2000/svg">
<path d="M22.25 0.204682C29.65 0.204682 35.25 3.15468 39.05 9.05468C42.85 14.8547 44.75 23.0547 44.75 33.6547C44.75 44.2547 42.9 52.5547 39.2 58.5547C35.6 64.4547 29.95 67.4047 22.25 67.4047C17.55 67.4047 13.55 66.0547 10.25 63.3547C6.95 60.6547 4.45 56.8047 2.75 51.8047C1.15 46.7047 0.35 40.6547 0.35 33.6547C0.35 23.0547 2.1 14.8547 5.6 9.05468C9.1 3.15468 14.65 0.204682 22.25 0.204682ZM22.25 9.50468C18.45 9.50468 15.65 11.5547 13.85 15.6547C12.15 19.6547 11.3 25.6547 11.3 33.6547C11.3 41.6547 12.15 47.7047 13.85 51.8047C15.65 55.9047 18.45 57.9547 22.25 57.9547C26.15 57.9547 29.05 55.9547 30.95 51.9547C32.85 47.8547 33.8 41.7547 33.8 33.6547C33.8 25.6547 32.85 19.6547 30.95 15.6547C29.05 11.5547 26.15 9.50468 22.25 9.50468ZM90.8 1.70468L31.4 108.805H19.85L79.25 1.70468H90.8ZM87.8 43.1047C92.7 43.1047 96.8 44.4547 100.1 47.1547C103.4 49.7547 105.9 53.5547 107.6 58.5547C109.4 63.4547 110.3 69.4547 110.3 76.5547C110.3 87.1547 108.45 95.4547 104.75 101.455C101.15 107.355 95.5 110.305 87.8 110.305C83.1 110.305 79.1 108.955 75.8 106.255C72.5 103.555 70 99.7047 68.3 94.7047C66.7 89.6047 65.9 83.5547 65.9 76.5547C65.9 65.9547 67.65 57.7547 71.15 51.9547C74.65 46.0547 80.2 43.1047 87.8 43.1047ZM87.8 52.5547C84 52.5547 81.2 54.5547 79.4 58.5547C77.7 62.5547 76.85 68.5547 76.85 76.5547C76.85 84.6547 77.7 90.7547 79.4 94.8547C81.2 98.8547 84 100.855 87.8 100.855C91.7 100.855 94.6 98.8547 96.5 94.8547C98.4 90.8547 99.35 84.7547 99.35 76.5547C99.35 68.5547 98.4 62.5547 96.5 58.5547C94.6 54.5547 91.7 52.5547 87.8 52.5547Z" fill="white"/>
</svg>
