<svg width="140" height="140" viewBox="0 0 140 140" fill="none" xmlns="http://www.w3.org/2000/svg">
<path d="M0 0H140V140H0V0Z" fill="#001F3F"/>
<path d="M69.1343 107.064C63.481 107.064 59.4941 111.076 59.4941 117.104C59.4941 123.642 63.5865 127.271 69.2398 127.271C74.5134 127.271 77.9307 124.278 78.3104 120.352H72.7204C72.4461 122.092 70.9906 123.047 69.2398 123.047C66.8772 123.047 65.1475 121.116 65.1053 118.463H78.4159V117.38C78.4159 111.14 75.0197 107.064 69.1132 107.064H69.1343ZM65.0842 114.791C65.3162 112.626 66.8772 111.055 69.0921 111.055C71.307 111.055 72.7204 112.562 72.7626 114.791H65.0842Z" fill="white"/>
<path d="M85.7139 107.467H80.166V126.591H85.7139V107.467Z" fill="white"/>
<path d="M97.8879 115.109L95.3565 114.578C93.3315 114.196 92.6775 113.687 92.6775 112.774C92.6775 111.628 93.8588 111.034 95.3144 111.034C97.1074 111.034 98.2254 112.116 98.373 113.602H103.879C103.731 109.718 100.546 107.064 95.3565 107.064C90.547 107.064 87.3196 109.612 87.3196 112.944C87.3196 116.17 89.6189 118.017 93.3526 118.802L95.9894 119.333C97.7191 119.672 98.5418 120.182 98.5418 121.222C98.5418 122.453 97.4027 123.302 95.6308 123.302C93.4791 123.302 92.2978 122.028 92.2346 120.139H86.6445C86.8766 124.448 90.2306 127.25 95.6308 127.25C100.715 127.25 103.963 124.597 103.963 120.903C103.963 117.444 101.411 115.788 97.8457 115.088L97.8879 115.109Z" fill="white"/>
<path d="M115.48 115.109L112.948 114.578C110.923 114.196 110.269 113.687 110.269 112.774C110.269 111.628 111.451 111.034 112.906 111.034C114.699 111.034 115.817 112.116 115.965 113.602H121.471C121.323 109.718 118.138 107.064 112.948 107.064C108.139 107.064 104.911 109.612 104.911 112.944C104.911 116.276 107.211 118.017 110.944 118.802L113.581 119.333C115.311 119.672 116.134 120.182 116.134 121.222C116.134 122.453 114.995 123.302 113.223 123.302C111.071 123.302 109.89 122.028 109.826 120.139H104.236C104.468 124.448 107.822 127.25 113.223 127.25C118.306 127.25 121.555 124.597 121.555 120.903C121.555 117.444 119.002 115.788 115.437 115.088L115.48 115.109Z" fill="white"/>
<path d="M34.9413 78.0059C34.9413 72.0416 30.5537 69.6855 24.8793 69.6855H13.5938V96.6207H19.5635V86.3051H24.8793C30.3849 86.3051 34.9413 84.0764 34.9413 77.9847V78.0059ZM19.5635 81.3596V74.6948H24.7738C27.727 74.6948 28.824 75.9683 28.824 78.0059C28.824 80.086 27.6005 81.3596 24.7738 81.3596H19.5635Z" fill="white"/>
<path d="M40.5115 83.8847C40.7014 82.1442 41.9249 81.1042 43.8023 81.1042C45.5531 81.1042 46.5235 82.1018 46.5235 83.2692C46.5235 84.1182 46.0172 84.6064 44.5406 84.8187L41.8616 85.137C37.8747 85.6464 34.4785 87.0898 34.4785 91.3349C34.4785 95.1767 37.6427 97.3417 40.9334 97.3417C43.9921 97.3417 45.9539 96.0682 46.9453 94.2215C46.8399 94.7946 46.7977 95.3677 46.7977 95.962V96.6625H51.9236V85.5403C51.9236 80.2339 49.5189 77.1562 43.6335 77.1562C38.5497 77.1562 35.2168 80.0005 34.9215 83.9272H40.5537L40.5115 83.8847ZM46.6289 89.3397C46.6289 91.7169 44.8992 93.3513 42.6421 93.3513C41.1444 93.3513 40.0475 92.5023 40.0475 91.0377C40.0475 89.5732 41.3131 88.9152 43.2116 88.5756L44.5195 88.3421C45.6375 88.1086 46.2492 87.9176 46.6289 87.578V89.3397Z" fill="white"/>
<path d="M60.1701 97.3202C63.1445 97.3202 64.7898 96.0042 65.8235 94.2425C65.718 94.8155 65.6336 95.3886 65.6336 95.983V96.6409H71.1393V77.7715H65.6336V88.8936C65.6336 91.4407 64.0937 92.9265 62.0476 92.9265C60.0014 92.9265 59.0732 91.3133 59.0732 88.9149V77.7715H53.5254V89.7851C53.5254 94.7094 56.4364 97.3202 60.1912 97.3202H60.1701Z" fill="white"/>
<path d="M78.4404 69.6855H72.8926V96.6207H78.4404V69.6855Z" fill="white"/>
<path d="M80.082 100.017V103.413C83.7947 103.413 86.8112 100.378 86.8112 96.642V89.8711H80.082V96.642H83.4571C83.4571 98.5099 81.9594 100.038 80.082 100.038V100.017Z" fill="white"/>
<path d="M55.2359 100.016L51.5655 116.189C51.1858 117.803 50.9537 119.076 50.6795 120.965C50.3842 119.161 50.0677 117.803 49.7302 116.232L46.1864 100.016H37.8962L34.036 116.232C33.6984 117.803 33.4242 119.076 33.1078 120.965C32.7914 119.076 32.5382 117.803 32.1796 116.232L28.5936 100.016H22.1387L28.8045 126.569H36.6939L42.0097 106.192L46.6083 126.569H54.6874L61.3955 100.016H55.2148H55.2359Z" fill="white"/>
</svg>
