<svg xmlns="http://www.w3.org/2000/svg" xmlns:xlink="http://www.w3.org/1999/xlink" width="832" height="512" viewBox="0 0 832 512">
  <defs>
    <linearGradient id="linear-gradient" x1="0.952" y1="0.288" x2="1.028" y2="1.248" gradientUnits="objectBoundingBox">
      <stop offset="0" stop-color="#9fc9bd"/>
      <stop offset="1" stop-color="#fff"/>
    </linearGradient>
    <clipPath id="clip-path">
      <rect id="Rectangle_1580" data-name="Rectangle 1580" width="832" height="512" transform="translate(1114.208 3735.273)" fill="#fff" stroke="#707070" stroke-width="1"/>
    </clipPath>
    <clipPath id="clip-path-2">
      <rect id="Rectangle_1574" data-name="Rectangle 1574" width="1264.015" height="1264.015" transform="translate(0 0)" stroke="rgba(0,0,0,0)" stroke-miterlimit="10" stroke-width="1" fill="url(#linear-gradient)"/>
    </clipPath>
  </defs>
  <g id="Mask_Group_275" data-name="Mask Group 275" transform="translate(-1114.209 -3735.273)" clip-path="url(#clip-path)">
    <g id="Mask_Group_269" data-name="Mask Group 269" transform="translate(1124.185 3254.279)" opacity="0.33" clip-path="url(#clip-path-2)">
      <path id="Rectangle_1493" data-name="Rectangle 1493" d="M144.229,1187.114A124.955,124.955,0,0,1,19.415,1062.3V144.229A124.955,124.955,0,0,1,144.229,19.416h895.882a124.955,124.955,0,0,1,124.813,124.813V1062.3a124.955,124.955,0,0,1-124.813,124.813H144.229m0,19.415h895.882A144.229,144.229,0,0,0,1184.34,1062.3V144.229A144.229,144.229,0,0,0,1040.111,0H144.229A144.229,144.229,0,0,0,0,144.229V1062.3A144.229,144.229,0,0,0,144.229,1206.529Z" transform="translate(334.777 2513.197) rotate(-135)" stroke="rgba(0,0,0,0)" stroke-miterlimit="10" stroke-width="1" fill="url(#linear-gradient)"/>
      <path id="Rectangle_1494" data-name="Rectangle 1494" d="M144.229,1187.114A124.955,124.955,0,0,1,19.415,1062.3V144.229A124.955,124.955,0,0,1,144.229,19.416h895.882a124.955,124.955,0,0,1,124.813,124.813V1062.3a124.955,124.955,0,0,1-124.813,124.813H144.229m0,19.415h895.882A144.229,144.229,0,0,0,1184.34,1062.3V144.229A144.229,144.229,0,0,0,1040.111,0H144.229A144.229,144.229,0,0,0,0,144.229V1062.3A144.229,144.229,0,0,0,144.229,1206.529Z" transform="translate(345.872 2330.137) rotate(-135)" stroke="rgba(0,0,0,0)" stroke-miterlimit="10" stroke-width="1" fill="url(#linear-gradient)"/>
      <path id="Rectangle_1492" data-name="Rectangle 1492" d="M144.229,1187.114A124.955,124.955,0,0,1,19.415,1062.3V144.229A124.955,124.955,0,0,1,144.229,19.416h895.882a124.955,124.955,0,0,1,124.813,124.813V1062.3a124.955,124.955,0,0,1-124.813,124.813H144.229m0,19.415h895.882A144.229,144.229,0,0,0,1184.34,1062.3V144.229A144.229,144.229,0,0,0,1040.111,0H144.229A144.229,144.229,0,0,0,0,144.229V1062.3A144.229,144.229,0,0,0,144.229,1206.529Z" transform="translate(673.16 2346.779) rotate(-135)" stroke="rgba(0,0,0,0)" stroke-miterlimit="10" stroke-width="1" fill="url(#linear-gradient)"/>
      <path id="Rectangle_1491" data-name="Rectangle 1491" d="M144.229,1187.114A124.955,124.955,0,0,1,19.415,1062.3V144.229A124.955,124.955,0,0,1,144.229,19.416h895.882a124.955,124.955,0,0,1,124.813,124.813V1062.3a124.955,124.955,0,0,1-124.813,124.813H144.229m0,19.415h895.882A144.229,144.229,0,0,0,1184.34,1062.3V144.229A144.229,144.229,0,0,0,1040.111,0H144.229A144.229,144.229,0,0,0,0,144.229V1062.3A144.229,144.229,0,0,0,144.229,1206.529Z" transform="translate(684.255 2163.719) rotate(-135)" stroke="rgba(0,0,0,0)" stroke-miterlimit="10" stroke-width="1" fill="url(#linear-gradient)"/>
    </g>
  </g>
</svg>
