<svg xmlns="http://www.w3.org/2000/svg" xmlns:xlink="http://www.w3.org/1999/xlink" width="986" height="987" viewBox="0 0 986 987">
  <defs>
    <linearGradient id="linear-gradient" x1="0.386" x2="0.97" y2="0.874" gradientUnits="objectBoundingBox">
      <stop offset="0" stop-color="#fff"/>
      <stop offset="1" stop-color="#b3ccc5"/>
    </linearGradient>
    <clipPath id="clip-path">
      <rect id="Rectangle_1524" data-name="Rectangle 1524" width="986" height="987" transform="translate(-697 4547.54)" stroke="#707070" stroke-width="1" fill="url(#linear-gradient)"/>
    </clipPath>
  </defs>
  <g id="Mask_Group_256" data-name="Mask Group 256" transform="translate(697 -4547.54)" opacity="0.3" clip-path="url(#clip-path)">
    <path id="Union_38" data-name="Union 38" d="M728.981,841.46c-109.6,0-200.032-83.584-210.9-190.361H211.99C95.093,651.1,0,556,0,439.118V211.994C0,95.1,95.093,0,211.99,0H761.424C871,0,961.434,83.584,972.308,190.353h306.106c116.88,0,211.981,95.1,211.981,211.99V629.47c0,116.9-95.1,211.99-211.981,211.99Zm0-23.788h549.434c103.928,0,188.189-84.257,188.189-188.2V402.343c0-103.936-84.261-188.2-188.189-188.2H973.405v60.576h279.053c84.685,0,153.578,68.9,153.578,153.582V601.346c0,84.694-68.892,153.582-153.578,153.582H754.937c-67.281,0-124.592-43.485-145.313-103.829H542.013C552.737,744.851,632.354,817.672,728.981,817.672Zm25.956-86.536h497.521a129.79,129.79,0,0,0,129.785-129.79V428.3a129.79,129.79,0,0,0-129.785-129.79H973.405v140.6C973.405,556,878.3,651.1,761.424,651.1h-126.4A129.821,129.821,0,0,0,754.937,731.136Zm6.487-103.829c103.928,0,188.189-84.257,188.189-188.189v-140.6H889.045v112.48c0,84.69-68.892,153.582-153.578,153.582H625.151v36.771a130.5,130.5,0,0,0,2.592,25.961Zm-157.871,0a153.893,153.893,0,0,1-2.194-25.961V564.576H540.783v62.731ZM23.792,211.994V439.118c0,103.932,84.257,188.189,188.2,188.189h305V564.576H237.946c-84.685,0-153.578-68.892-153.578-153.582V237.951c0-84.69,68.892-153.595,153.578-153.595H735.468c68.078,0,125.955,44.534,146.028,106h66.883c-10.737-93.747-90.345-166.56-186.955-166.56H211.99C108.049,23.792,23.792,108.054,23.792,211.994ZM735.468,540.783a129.788,129.788,0,0,0,129.785-129.79V298.514H754.937A129.782,129.782,0,0,0,625.151,428.3v112.48Zm-134.109,0V428.3c0-84.685,68.892-153.582,153.578-153.582H865.253V237.951a130.461,130.461,0,0,0-2.177-23.805h-134.1c-103.941,0-188.2,84.261-188.2,188.2v138.44Zm-493.2-302.833V410.993a129.779,129.779,0,0,0,129.785,129.79H516.991V402.343c0-116.893,95.093-211.99,211.99-211.99h127.27a129.85,129.85,0,0,0-120.783-82.2H237.946A129.793,129.793,0,0,0,108.161,237.951Zm841.452,36.771V214.145H887.207a154.705,154.705,0,0,1,1.838,23.805v36.771Z" transform="translate(-945.761 4643.178)" fill="url(#linear-gradient)"/>
  </g>
</svg>
