<svg xmlns="http://www.w3.org/2000/svg" width="66.016" height="102.691" viewBox="0 0 66.016 102.691">
  <g id="Group_580" data-name="Group 580" transform="translate(-906 -2519.021)">
    <g id="Icon_ion-ios-location-outline" data-name="Icon ion-ios-location-outline" transform="translate(906 2519.021)">
      <path id="Path_710" data-name="Path 710" d="M40.883,5.918a29.34,29.34,0,0,1,29.34,29.34c0,9.838-5.522,24.556-15.97,42.562-5.107,8.8-10.262,16.42-13.371,20.843-3.1-4.408-8.232-11.994-13.332-20.778C17.078,59.849,11.543,45.109,11.543,35.258a29.34,29.34,0,0,1,29.34-29.34m0-3.668A33.008,33.008,0,0,0,7.875,35.258c0,25.673,33.008,69.683,33.008,69.683S73.891,60.931,73.891,35.258A33.008,33.008,0,0,0,40.883,2.25Z" transform="translate(-7.875 -2.25)" fill="#eb0028"/>
    </g>
    <path id="Icon_feather-check" data-name="Icon feather-check" d="M34.1,9,14.782,28.321,6,19.539" transform="translate(918.957 2537.341)" fill="none" stroke="#eb0028" stroke-linecap="round" stroke-linejoin="round" stroke-width="3"/>
  </g>
</svg>
