<svg xmlns="http://www.w3.org/2000/svg" width="937.846" height="838.179" viewBox="0 0 937.846 838.179">
  <path id="Intersection_46" data-name="Intersection 46" d="M864.443,837.179q42.684-82.8,50.96-181.843a478.919,478.919,0,0,0-11.824-153.053,472.367,472.367,0,0,0-94.26-190.29,443.97,443.97,0,0,0-49.491-51.575v5.866q0,170.416-.077,340.832c-.013,11.814,1.171,23.675-1.26,35.481-1.416,6.877-1.471,14.047-2.533,21.019Q741.3,759.825,675.95,829.4q-3.739,3.974-7.571,7.778H638.65C698.5,786.848,739.138,709.463,739.887,618.686c1.287-156.031-118.23-283.075-266.542-285.563q-2.277-.038-4.547-.038h0c-149.49,0-265.32,123.993-271.141,269.878-3.945,98.854,38.338,181.558,101,234.216H268.784q-44.82-44.143-70.8-108.3v108.3H177.119q.022-105.186-.075-210.377a386.3,386.3,0,0,1,3.143-49.647c9.054-70.9,37.9-131.737,87.894-180.537,72.66-70.932,159.207-97.835,256.531-77.92,99.194,20.3,169.2,81.566,211.282,177.527,1.177,2.684,2.243,5.422,3.361,8.135l.675-.2V499.7q0-125.272.081-250.546c0-3.968-.988-6.463-4.163-8.9-66.362-50.872-140.351-81.035-222.305-89.738a435.22,435.22,0,0,0-45.986-2.455h-.011a420.813,420.813,0,0,0-107.354,13.9Q233.341,195.3,143.161,294.424,67.846,377.167,37.6,487.033c-11.173,40.68-17.337,82.123-16.916,124.633.245,24.717.72,49.34,4.3,73.816a484.555,484.555,0,0,0,48.128,151.7H50.894a530.208,530.208,0,0,1-29.775-75.1v75.1H.083c-.117-74.347-.35-148.687.228-223.028C.876,541.431,15.809,471.8,46,405.989c23.107-50.373,53.4-95.5,91.308-134.855,64.9-67.376,142.007-111.74,231.512-132.29a436.266,436.266,0,0,1,91.221-11q151.459-2.318,276.123,87.479c.977.7,1.98,1.365,3.571,2.461V0h20.092q-.007,114.278-.067,228.545c0,3.63.936,6.009,3.717,8.369q76.652,65.051,121.862,156.8a496.018,496.018,0,0,1,30,76.423,4.14,4.14,0,0,0,1.574,2.414V0h19.916q.019,95.066.028,190.146v32.918q-.007,205.663-.342,411.311c-.063,32.5-5.345,64.8-12.776,96.544a510.83,510.83,0,0,1-37.313,106.26Z" transform="translate(0.493 0.5)" fill="#e8edec" stroke="rgba(0,0,0,0)" stroke-miterlimit="10" stroke-width="1" opacity="0.238"/>
</svg>
