<svg xmlns="http://www.w3.org/2000/svg" width="1640.821" height="1160.064" viewBox="0 0 1640.821 1160.064">
  <path id="Intersection_30" data-name="Intersection 30" d="M1598.759,1159.063q2.082-16.9,3.547-34.065a806.8,806.8,0,0,0-20.7-262.742c-30-122.111-85.311-230.869-164.99-326.664a768.9,768.9,0,0,0-86.629-88.538v10.069q0,292.549-.135,585.1c-.022,20.281,2.049,40.642-2.2,60.907-2.479,11.806-2.575,24.116-4.434,36.086q-1.555,10.01-3.436,19.849h-34.841a504.766,504.766,0,0,0,10.148-96.98c2.253-267.855-206.948-485.947-466.55-490.218q-3.987-.066-7.958-.066h0c-261.666,0-464.413,212.857-474.6,463.294a514.654,514.654,0,0,0,9.743,123.97H310q-.035-41.528-.1-83.047a650.75,650.75,0,0,1,5.5-85.226c15.848-121.705,66.346-226.149,153.849-309.926C596.427,559.1,747.919,512.914,918.272,547.1,1091.9,581.945,1214.436,687.123,1288.1,851.857c2.06,4.607,3.925,9.308,5.881,13.965l1.183-.336v-7.672q0-215.052.141-430.1c.008-6.812-1.729-11.094-7.288-15.274-116.157-87.331-245.668-139.109-389.119-154.05a776.549,776.549,0,0,0-80.494-4.215h-.011a750.123,750.123,0,0,0-187.918,23.872q-222.036,57.22-379.886,227.389Q118.757,647.474,65.811,836.078C46.255,905.912,35.465,977.057,36.2,1050.033c.368,36.481,1.035,72.844,5.2,109.031H0q.146-52.391.545-104.765c.989-124.837,27.128-244.364,79.973-357.346,40.445-86.474,93.474-163.947,159.824-231.5,113.594-115.662,248.566-191.82,405.236-227.1a777.933,777.933,0,0,1,159.671-18.883q265.113-3.978,483.323,150.174c1.71,1.206,3.465,2.344,6.25,4.224V0h35.168q-.011,196.178-.117,392.34c0,6.231,1.638,10.314,6.506,14.366q134.171,111.672,213.305,269.171a841.922,841.922,0,0,1,52.505,131.193,7.092,7.092,0,0,0,2.754,4.144V0h34.86q.108,544.516-.549,1089.016a581.314,581.314,0,0,1-4.572,70.048Z" transform="translate(0.502 0.501)" fill="#e8edec" stroke="rgba(0,0,0,0)" stroke-miterlimit="10" stroke-width="1" opacity="0.238"/>
</svg>
