<svg xmlns="http://www.w3.org/2000/svg" width="44" height="44" viewBox="0 0 44 44">
  <g id="Group_3006" data-name="Group 3006" transform="translate(-1856 -208)">
    <g id="Group_3005" data-name="Group 3005" transform="translate(0 59)">
      <g id="Group_3003" data-name="Group 3003" transform="translate(71 -50)">
        <g id="Ellipse_208" data-name="Ellipse 208" transform="translate(1785 199)" fill="none" stroke="#fff" stroke-width="2">
          <circle cx="22" cy="22" r="22" stroke="none"/>
          <circle cx="22" cy="22" r="21" fill="none"/>
        </g>
      </g>
    </g>
    <path id="Icon_fa-solid-volume-xmark" data-name="Icon fa-solid-volume-xmark" d="M15.514,2.395a1.652,1.652,0,0,1,.974,1.5V23.684a1.649,1.649,0,0,1-2.746,1.231L6.791,18.738H3.3a3.3,3.3,0,0,1-3.3-3.3v-3.3a3.3,3.3,0,0,1,3.3-3.3H6.791l6.951-6.178a1.655,1.655,0,0,1,1.772-.273ZM21.9,9.206l2.834,2.834,2.834-2.834a1.235,1.235,0,0,1,1.747,1.747l-2.834,2.834,2.834,2.834a1.235,1.235,0,0,1-1.747,1.747l-2.834-2.834L21.9,18.367a1.235,1.235,0,1,1-1.747-1.747l2.834-2.834-2.834-2.834A1.235,1.235,0,1,1,21.9,9.206Z" transform="translate(1862 216.166)" fill="#fff"/>
  </g>
</svg>
