<svg width="632" height="1201" viewBox="0 0 632 1201" fill="none" xmlns="http://www.w3.org/2000/svg">
<path d="M106.676 490.447L79.5419 497.631C78.0746 495.92 75.7984 494.92 73.3027 495.239C70.2691 495.631 67.7562 498.087 67.3044 501.121C66.8742 504.034 68.2339 506.663 70.4413 508.089L65.6908 534.708L71.5901 535.764L76.3879 508.865C78.8233 508.076 80.6693 505.986 81.1211 503.414L108.208 496.243L106.676 490.443V490.447Z" fill="url(#paint0_linear_1477_8735)"/>
<path d="M74.2295 444.549C42.4353 444.549 16.6652 470.361 16.6652 502.198C16.6652 534.035 42.4396 559.848 74.2295 559.848C106.024 559.848 131.794 534.035 131.794 502.198C131.794 470.361 106.019 444.549 74.2295 444.549ZM74.2295 544.098C51.1616 544.098 32.3923 525.3 32.3923 502.198C32.3923 479.096 51.1616 460.299 74.2295 460.299C97.2974 460.299 116.067 479.096 116.067 502.198C116.067 525.3 97.2974 544.098 74.2295 544.098Z" fill="url(#paint1_linear_1477_8735)"/>
<path d="M74.2272 390.683C68.5087 390.683 63.8572 395.341 63.8572 401.068H84.6015C84.6015 395.341 79.9501 390.683 74.2315 390.683H74.2272Z" fill="url(#paint2_linear_1477_8735)"/>
<path d="M147.693 502.198C147.693 486.211 142.598 471.417 133.949 459.351C133.132 458.214 134.117 454.542 134.246 454.033C134.672 452.4 135.881 450.444 136.518 450.362C138.786 450.078 140.748 449.276 142.353 447.97C146.062 444.958 147.731 440.645 146.935 436.128C146.436 433.301 144.009 431.224 141.144 431.173C141.045 431.173 129.862 431.194 125.683 423.692C120.602 414.565 111.652 413.897 111.462 413.884C111.144 413.836 101.385 412.862 100.408 400.611C100.197 397.957 98.2997 395.815 95.8083 395.225C93.2395 385.705 84.539 378.681 74.2292 378.681C63.9194 378.681 55.219 385.705 52.6458 395.229C50.1587 395.815 48.2612 397.961 48.0503 400.615C47.0735 412.867 37.3146 413.841 36.9961 413.888C36.8068 413.901 27.8567 414.569 22.775 423.696C18.5969 431.198 7.41794 431.173 7.31467 431.177C4.44893 431.229 2.02209 433.306 1.52295 436.133C0.72691 440.649 2.39644 444.967 6.10555 447.975C7.71053 449.276 9.67266 450.082 11.9403 450.366C12.5771 450.444 13.7862 452.405 14.2122 454.038C14.3413 454.546 15.3267 458.218 14.5091 459.355C5.86028 471.417 0.765628 486.211 0.765625 502.198C0.765622 518.186 5.97645 533.32 14.806 545.464C15.6838 546.675 15.7182 548.299 14.8964 549.549C13.3172 551.954 11.0151 555.737 10.701 556.793C10.1632 558.616 10.5461 561.486 12.3189 563.903C13.5797 565.623 16.1141 567.721 21.0409 567.963C21.6218 567.993 22.448 568.139 23.1321 568.583C27.5512 571.444 29.6252 577.456 30.1459 578.994C31.6046 583.317 35.4299 586.234 40.2147 585.993C42.0133 587.027 44.1647 588.134 47.7577 588.018C45.8343 590.112 45.6062 593.336 47.4005 595.723C48.5537 597.257 50.4212 598.08 52.3403 598.08H96.1009C98.02 598.08 99.8874 597.253 101.041 595.723C102.839 593.336 102.607 590.112 100.683 588.018C104.272 588.134 106.428 587.027 108.226 585.993C113.011 586.234 116.837 583.321 118.295 578.994C118.816 577.452 120.894 571.445 125.309 568.583C125.993 568.139 126.819 567.993 127.4 567.963C132.327 567.721 134.861 565.623 136.122 563.903C137.895 561.486 138.278 558.616 137.74 556.793C137.43 555.741 135.128 551.954 133.545 549.549C132.723 548.299 132.757 546.675 133.635 545.464C142.465 533.32 147.676 518.367 147.676 502.198H147.693ZM12.4308 444.381C11.411 444.294 10.4558 443.812 9.68126 443.144C8.5539 442.17 7.32327 440.593 7.31897 438.343C7.31897 437.706 7.8009 437.167 8.43343 437.119C12.0177 436.844 24.1304 435.254 28.2311 426.17C28.2311 426.17 30.4299 421.179 37.6115 419.861C37.6115 419.861 52.7061 418.391 54.0228 401.077H57.8652C57.8652 392.027 65.1931 384.688 74.2292 384.688C83.2653 384.688 90.5932 392.027 90.5932 401.077H94.4357C95.7567 418.396 110.847 419.861 110.847 419.861C118.029 421.179 120.227 426.17 120.227 426.17C124.328 435.254 136.441 436.848 140.025 437.119C140.653 437.167 141.139 437.701 141.139 438.335C141.139 440.593 139.909 442.17 138.777 443.144C138.003 443.816 137.047 444.294 136.028 444.381C130.494 444.855 128.571 452.047 128.442 452.551C115.008 437.848 95.6964 428.626 74.2292 428.626C52.762 428.626 33.4505 437.848 20.0168 452.551C19.8878 452.047 17.9644 444.855 12.4308 444.381ZM127.052 561.973C125.141 562.055 123.248 562.61 121.738 563.783C115.055 568.971 113.312 575.043 112.628 577.072C112.224 578.275 111.208 580.003 108.743 580.003C108.532 580.003 108.308 579.99 108.076 579.964C107.142 579.856 106.204 580.128 105.43 580.658C104.483 581.308 103.037 582.032 101.312 582.032C99.6938 582.032 97.8263 581.395 95.8943 579.46L93.2868 583.911C92.3918 585.928 92.7833 588.285 94.2807 589.906L96.2859 592.077H52.1811L54.1862 589.905C55.6836 588.285 56.0709 585.928 55.1802 583.911L52.5726 579.46C50.6406 581.395 48.7732 582.032 47.1553 582.032C45.4298 582.032 43.9883 581.308 43.0374 580.658C42.2586 580.123 41.3248 579.852 40.3911 579.964C40.1587 579.99 39.935 580.003 39.7242 580.003C37.2543 580.003 36.2431 578.275 35.8386 577.072C35.1545 575.043 33.4118 568.971 26.7294 563.783C25.219 562.61 23.3258 562.055 21.4153 561.973C15.8344 561.727 16.7251 558.327 16.7251 558.327L20.2363 552.074C33.6614 566.644 52.8825 575.775 74.2378 575.775C95.5931 575.775 114.819 566.648 128.239 552.074L131.75 558.327C131.75 558.327 132.641 561.731 127.06 561.973H127.052ZM74.2292 569.773C37.0262 569.773 6.75527 539.461 6.75528 502.198C6.75529 464.936 37.0219 434.624 74.2292 434.624C111.436 434.624 141.703 464.936 141.703 502.198C141.703 539.461 111.436 569.773 74.2292 569.773Z" fill="url(#paint3_linear_1477_8735)"/>
<path d="M188.302 684.985L161.168 692.169C159.701 690.458 157.425 689.458 154.929 689.777C151.895 690.169 149.382 692.626 148.931 695.659C148.5 698.572 149.86 701.201 152.067 702.628L147.317 729.246L153.216 730.302L158.014 703.403C160.45 702.615 162.295 700.525 162.747 697.952L189.834 690.781L188.302 684.981V684.985Z" fill="url(#paint4_linear_1477_8735)"/>
<path d="M155.856 639.087C124.061 639.087 98.2914 664.899 98.2914 696.737C98.2913 728.574 124.066 754.386 155.856 754.386C187.65 754.386 213.42 728.574 213.42 696.737C213.42 664.899 187.646 639.087 155.856 639.087ZM155.856 738.636C132.788 738.636 114.018 719.839 114.018 696.737C114.019 673.634 132.788 654.837 155.856 654.837C178.924 654.837 197.693 673.634 197.693 696.737C197.693 719.839 178.924 738.636 155.856 738.636Z" fill="url(#paint5_linear_1477_8735)"/>
<path d="M155.853 585.221C150.135 585.221 145.483 589.879 145.483 595.606H166.228C166.228 589.879 161.576 585.221 155.858 585.221H155.853Z" fill="url(#paint6_linear_1477_8735)"/>
<path d="M229.319 696.737C229.319 680.749 224.224 665.955 215.575 653.889C214.758 652.752 215.743 649.08 215.872 648.572C216.298 646.938 217.507 644.982 218.144 644.9C220.412 644.616 222.374 643.814 223.979 642.508C227.688 639.496 229.358 635.183 228.562 630.667C228.062 627.84 225.636 625.763 222.77 625.711C222.671 625.711 211.488 625.732 207.31 618.23C202.228 609.103 193.278 608.435 193.088 608.422C192.77 608.375 183.011 607.401 182.034 595.149C181.823 592.495 179.926 590.353 177.434 589.763C174.866 580.243 166.165 573.219 155.855 573.219C145.546 573.219 136.845 580.243 134.272 589.767C131.785 590.353 129.887 592.499 129.676 595.154C128.7 607.405 118.941 608.379 118.622 608.426C118.433 608.439 109.483 609.107 104.401 618.234C100.223 625.737 89.0441 625.711 88.9408 625.715C86.0751 625.767 83.6483 627.844 83.1491 630.671C82.3531 635.187 84.0226 639.505 87.7317 642.513C89.3367 643.814 91.2988 644.62 93.5665 644.904C94.2033 644.982 95.4124 646.943 95.8384 648.576C95.9675 649.084 96.9529 652.756 96.1353 653.894C87.4865 665.955 82.3918 680.749 82.3918 696.737C82.3918 712.724 87.6026 727.858 96.4322 740.002C97.31 741.213 97.3444 742.837 96.5226 744.087C94.9434 746.492 92.6413 750.275 92.3272 751.331C91.7893 753.154 92.1723 756.024 93.9451 758.441C95.2058 760.161 97.7402 762.259 102.667 762.501C103.248 762.531 104.074 762.677 104.758 763.121C109.177 765.983 111.251 771.994 111.772 773.532C113.231 777.855 117.056 780.772 121.841 780.531C123.639 781.565 125.791 782.673 129.384 782.556C127.46 784.651 127.232 787.874 129.027 790.261C130.18 791.795 132.047 792.618 133.966 792.618H177.727C179.646 792.618 181.514 791.791 182.667 790.261C184.465 787.874 184.233 784.651 182.31 782.556C185.898 782.673 188.054 781.565 189.853 780.531C194.637 780.772 198.463 777.859 199.921 773.532C200.442 771.99 202.52 765.983 206.935 763.121C207.619 762.677 208.446 762.531 209.026 762.501C213.953 762.259 216.488 760.161 217.748 758.441C219.521 756.024 219.904 753.154 219.366 751.331C219.056 750.28 216.754 746.492 215.171 744.087C214.349 742.837 214.384 741.213 215.261 740.002C224.091 727.858 229.302 712.905 229.302 696.737H229.319ZM94.057 638.919C93.0372 638.833 92.082 638.35 91.3074 637.682C90.1801 636.708 88.9494 635.131 88.9451 632.881C88.9451 632.244 89.4271 631.705 90.0596 631.658C93.6439 631.382 105.757 629.792 109.857 620.708C109.857 620.708 112.056 615.718 119.238 614.399C119.238 614.399 134.332 612.929 135.649 595.615H139.491C139.491 586.565 146.819 579.226 155.855 579.226C164.891 579.226 172.219 586.565 172.219 595.615H176.062C177.383 612.934 192.473 614.399 192.473 614.399C199.655 615.718 201.853 620.708 201.853 620.708C205.954 629.792 218.067 631.386 221.651 631.658C222.279 631.705 222.766 632.239 222.766 632.873C222.766 635.131 221.535 636.708 220.403 637.682C219.629 638.354 218.674 638.833 217.654 638.919C212.12 639.393 210.197 646.585 210.068 647.089C196.634 632.386 177.323 623.164 155.855 623.164C134.388 623.164 115.077 632.386 101.643 647.089C101.514 646.585 99.5905 639.393 94.057 638.919ZM208.678 756.511C206.767 756.593 204.874 757.149 203.364 758.321C196.681 763.509 194.939 769.581 194.255 771.611C193.85 772.813 192.835 774.541 190.369 774.541C190.158 774.541 189.934 774.528 189.702 774.502C188.768 774.394 187.83 774.666 187.056 775.196C186.109 775.847 184.663 776.571 182.938 776.571C181.32 776.571 179.453 775.933 177.521 773.998L174.913 778.449C174.018 780.466 174.409 782.823 175.907 784.444L177.912 786.616H133.807L135.812 784.444C137.31 782.823 137.697 780.466 136.806 778.449L134.199 773.998C132.267 775.933 130.399 776.571 128.781 776.571C127.056 776.571 125.615 775.847 124.664 775.196C123.885 774.662 122.951 774.39 122.017 774.502C121.785 774.528 121.561 774.541 121.35 774.541C118.88 774.541 117.869 772.813 117.465 771.611C116.781 769.581 115.038 763.509 108.356 758.321C106.845 757.149 104.952 756.593 103.041 756.511C97.4606 756.265 98.3513 752.865 98.3513 752.865L101.862 746.612C115.288 761.182 134.509 770.313 155.864 770.313C177.219 770.313 196.445 761.186 209.865 746.612L213.377 752.865C213.377 752.865 214.267 756.269 208.686 756.511H208.678ZM155.855 764.311C118.652 764.311 88.3814 733.999 88.3814 696.737C88.3814 659.474 118.648 629.163 155.855 629.163C193.063 629.163 223.329 659.474 223.329 696.737C223.329 733.999 193.063 764.311 155.855 764.311Z" fill="url(#paint7_linear_1477_8735)"/>
<path d="M428.728 873.583L401.594 880.767C400.127 879.056 397.851 878.056 395.355 878.375C392.321 878.767 389.809 881.224 389.357 884.257C388.926 887.171 390.286 889.799 392.494 891.226L387.743 917.844L393.642 918.9L398.44 892.001C400.876 891.213 402.722 889.123 403.173 886.55L430.26 879.379L428.728 873.579V873.583Z" fill="url(#paint8_linear_1477_8735)"/>
<path d="M396.282 827.685C364.488 827.685 338.718 853.498 338.718 885.335C338.718 917.172 364.492 942.984 396.282 942.984C428.076 942.984 453.846 917.172 453.846 885.335C453.846 853.498 428.072 827.685 396.282 827.685ZM396.282 927.234C373.214 927.234 354.445 908.437 354.445 885.335C354.445 862.232 373.214 843.435 396.282 843.435C419.35 843.435 438.119 862.232 438.119 885.335C438.119 908.437 419.35 927.234 396.282 927.234Z" fill="url(#paint9_linear_1477_8735)"/>
<path d="M396.28 773.819C390.561 773.819 385.91 778.477 385.91 784.204H406.654C406.654 778.477 402.002 773.819 396.284 773.819H396.28Z" fill="url(#paint10_linear_1477_8735)"/>
<path d="M469.745 885.335C469.745 869.347 464.65 854.553 456.002 842.487C455.184 841.35 456.169 837.678 456.298 837.17C456.724 835.536 457.934 833.58 458.57 833.498C460.838 833.214 462.8 832.412 464.405 831.107C468.114 828.094 469.784 823.781 468.988 819.265C468.489 816.438 466.062 814.361 463.196 814.309C463.097 814.309 451.914 814.331 447.736 806.828C442.654 797.701 433.704 797.033 433.515 797.02C433.196 796.973 423.437 795.999 422.46 783.747C422.25 781.093 420.352 778.951 417.861 778.361C415.292 768.841 406.591 761.817 396.282 761.817C385.972 761.817 377.271 768.842 374.698 778.365C372.211 778.951 370.314 781.097 370.103 783.752C369.126 796.003 359.367 796.977 359.048 797.024C358.859 797.037 349.909 797.705 344.827 806.832C340.649 814.335 329.47 814.309 329.367 814.313C326.501 814.365 324.074 816.442 323.575 819.269C322.779 823.785 324.449 828.103 328.158 831.111C329.763 832.412 331.725 833.218 333.993 833.503C334.629 833.58 335.839 835.541 336.265 837.174C336.394 837.682 337.379 841.354 336.561 842.492C327.913 854.553 322.818 869.347 322.818 885.335C322.818 901.322 328.029 916.456 336.858 928.6C337.736 929.811 337.771 931.435 336.949 932.685C335.37 935.09 333.068 938.873 332.753 939.929C332.216 941.752 332.598 944.622 334.371 947.039C335.632 948.759 338.166 950.857 343.093 951.099C343.674 951.129 344.5 951.276 345.184 951.719C349.604 954.581 351.678 960.592 352.198 962.131C353.657 966.453 357.482 969.37 362.267 969.129C364.066 970.163 366.217 971.271 369.81 971.154C367.887 973.249 367.659 976.472 369.453 978.859C370.606 980.393 372.474 981.216 374.393 981.216H418.153C420.072 981.216 421.94 980.389 423.093 978.859C424.892 976.472 424.659 973.249 422.736 971.154C426.324 971.271 428.48 970.163 430.279 969.129C435.064 969.37 438.889 966.457 440.348 962.131C440.868 960.588 442.947 954.581 447.361 951.719C448.046 951.276 448.872 951.129 449.453 951.099C454.379 950.857 456.914 948.759 458.175 947.039C459.947 944.622 460.33 941.752 459.792 939.929C459.483 938.878 457.181 935.09 455.597 932.685C454.775 931.436 454.81 929.811 455.687 928.6C464.517 916.456 469.728 901.503 469.728 885.335H469.745ZM334.483 827.517C333.463 827.431 332.508 826.948 331.734 826.28C330.606 825.306 329.376 823.729 329.371 821.48C329.371 820.842 329.853 820.303 330.486 820.256C334.07 819.98 346.183 818.39 350.283 809.306C350.283 809.306 352.482 804.316 359.664 802.997C359.664 802.997 374.758 801.527 376.075 784.213H379.918C379.918 775.163 387.245 767.825 396.282 767.825C405.318 767.825 412.646 775.163 412.646 784.213H416.488C417.809 801.532 432.899 802.997 432.899 802.997C440.081 804.316 442.28 809.306 442.28 809.306C446.38 818.39 458.493 819.984 462.077 820.256C462.706 820.303 463.192 820.837 463.192 821.471C463.192 823.729 461.961 825.306 460.829 826.28C460.055 826.952 459.1 827.431 458.08 827.517C452.546 827.991 450.623 835.183 450.494 835.687C437.06 820.984 417.749 811.762 396.282 811.762C374.814 811.762 355.503 820.984 342.069 835.687C341.94 835.183 340.017 827.991 334.483 827.517ZM449.104 945.109C447.194 945.191 445.3 945.747 443.79 946.919C437.108 952.107 435.365 958.179 434.681 960.209C434.276 961.411 433.261 963.139 430.795 963.139C430.584 963.139 430.361 963.126 430.128 963.1C429.194 962.992 428.256 963.264 427.482 963.794C426.535 964.445 425.09 965.169 423.364 965.169C421.746 965.169 419.879 964.531 417.947 962.596L415.339 967.048C414.444 969.064 414.836 971.421 416.333 973.042L418.338 975.214H374.233L376.239 973.042C377.736 971.421 378.123 969.064 377.233 967.047L374.625 962.596C372.693 964.531 370.826 965.169 369.208 965.169C367.482 965.169 366.041 964.445 365.09 963.794C364.311 963.26 363.377 962.988 362.443 963.1C362.211 963.126 361.987 963.139 361.777 963.139C359.307 963.139 358.295 961.411 357.891 960.209C357.207 958.179 355.464 952.107 348.782 946.919C347.271 945.747 345.378 945.191 343.468 945.109C337.887 944.863 338.777 941.463 338.777 941.463L342.289 935.21C355.714 949.78 374.935 958.911 396.29 958.911C417.645 958.911 436.871 949.784 450.292 935.21L453.803 941.463C453.803 941.463 454.694 944.868 449.113 945.109H449.104ZM396.282 952.909C359.079 952.909 328.808 922.597 328.808 885.335C328.808 848.072 359.074 817.761 396.282 817.761C433.489 817.761 463.755 848.072 463.755 885.335C463.755 922.597 433.489 952.909 396.282 952.909Z" fill="url(#paint11_linear_1477_8735)"/>
<path d="M182.366 292.939L155.232 300.122C153.764 298.412 151.488 297.412 148.992 297.731C145.959 298.123 143.446 300.579 142.994 303.613C142.564 306.526 143.924 309.155 146.131 310.581L141.381 337.2L147.28 338.255L152.078 311.357C154.513 310.568 156.359 308.478 156.811 305.906L183.898 298.735L182.366 292.935V292.939Z" fill="url(#paint12_linear_1477_8735)"/>
<path d="M149.919 247.04C118.125 247.04 92.3549 272.853 92.3549 304.69C92.3549 336.527 118.129 362.34 149.919 362.34C181.713 362.34 207.484 336.527 207.484 304.69C207.484 272.853 181.709 247.04 149.919 247.04ZM149.919 346.589C126.851 346.589 108.082 327.792 108.082 304.69C108.082 281.588 126.851 262.791 149.919 262.791C172.987 262.791 191.756 281.588 191.756 304.69C191.756 327.792 172.987 346.589 149.919 346.589Z" fill="url(#paint13_linear_1477_8735)"/>
<path d="M149.917 193.174C144.198 193.174 139.547 197.833 139.547 203.56H160.291C160.291 197.833 155.64 193.174 149.921 193.174H149.917Z" fill="url(#paint14_linear_1477_8735)"/>
<path d="M223.383 304.69C223.383 288.703 218.288 273.909 209.639 261.843C208.821 260.705 209.807 257.034 209.936 256.525C210.362 254.892 211.571 252.936 212.208 252.854C214.475 252.569 216.438 251.768 218.043 250.462C221.752 247.45 223.421 243.136 222.625 238.62C222.126 235.793 219.699 233.716 216.833 233.664C216.734 233.664 205.551 233.686 201.373 226.184C196.291 217.056 187.341 216.389 187.152 216.376C186.834 216.328 177.075 215.354 176.098 203.103C175.887 200.448 173.989 198.307 171.498 197.716C168.929 188.197 160.229 181.173 149.919 181.173C139.609 181.173 130.909 188.197 128.336 197.721C125.848 198.307 123.951 200.453 123.74 203.107C122.763 215.359 113.004 216.332 112.686 216.38C112.497 216.393 103.546 217.061 98.4647 226.188C94.2866 233.69 83.1077 233.664 83.0044 233.669C80.1387 233.72 77.7118 235.798 77.2127 238.624C76.4166 243.141 78.0862 247.458 81.7953 250.466C83.4002 251.768 85.3624 252.574 87.63 252.858C88.2668 252.936 89.476 254.896 89.9019 256.53C90.031 257.038 91.0164 260.71 90.1989 261.847C81.55 273.909 76.4554 288.703 76.4554 304.69C76.4554 320.678 81.6662 335.812 90.4957 347.956C91.3735 349.166 91.4079 350.791 90.5861 352.041C89.0069 354.445 86.7049 358.229 86.3907 359.285C85.8529 361.108 86.2359 363.977 88.0087 366.395C89.2694 368.114 91.8038 370.213 96.7306 370.454C97.3115 370.484 98.1377 370.631 98.8219 371.075C103.241 373.936 105.315 379.948 105.836 381.486C107.294 385.808 111.12 388.726 115.904 388.484C117.703 389.519 119.854 390.626 123.447 390.51C121.524 392.604 121.296 395.827 123.09 398.215C124.243 399.749 126.111 400.572 128.03 400.572H171.791C173.71 400.572 175.577 399.745 176.73 398.215C178.529 395.828 178.297 392.604 176.373 390.51C179.962 390.626 182.118 389.519 183.916 388.484C188.701 388.726 192.526 385.813 193.985 381.486C194.506 379.943 196.584 373.936 200.999 371.075C201.683 370.631 202.509 370.485 203.09 370.454C208.017 370.213 210.551 368.114 211.812 366.395C213.585 363.978 213.968 361.108 213.43 359.285C213.12 358.233 210.818 354.445 209.234 352.041C208.413 350.791 208.447 349.166 209.325 347.956C218.154 335.812 223.365 320.859 223.365 304.69H223.383ZM88.1205 246.872C87.1008 246.786 86.1455 246.304 85.371 245.636C84.2436 244.662 83.013 243.085 83.0087 240.835C83.0087 240.197 83.4906 239.659 84.1231 239.611C87.7075 239.335 99.8201 237.745 103.921 228.661C103.921 228.661 106.12 223.671 113.301 222.353C113.301 222.353 128.396 220.883 129.712 203.568H133.555C133.555 194.519 140.883 187.18 149.919 187.18C158.955 187.18 166.283 194.519 166.283 203.568H170.125C171.446 220.887 186.537 222.353 186.537 222.353C193.718 223.671 195.917 228.661 195.917 228.661C200.018 237.745 212.13 239.34 215.715 239.611C216.343 239.659 216.829 240.193 216.829 240.827C216.829 243.085 215.599 244.662 214.467 245.636C213.692 246.308 212.737 246.786 211.717 246.872C206.184 247.346 204.26 254.539 204.131 255.043C190.698 240.34 171.386 231.118 149.919 231.118C128.452 231.118 109.14 240.34 95.7066 255.043C95.5775 254.539 93.6541 247.346 88.1205 246.872ZM202.741 364.464C200.831 364.546 198.938 365.102 197.427 366.274C190.745 371.463 189.002 377.535 188.318 379.564C187.914 380.767 186.898 382.495 184.433 382.495C184.222 382.495 183.998 382.482 183.766 382.456C182.832 382.348 181.894 382.62 181.119 383.15C180.173 383.8 178.727 384.524 177.001 384.524C175.384 384.524 173.516 383.886 171.584 381.952L168.976 386.403C168.081 388.42 168.473 390.777 169.97 392.397L171.976 394.569H127.871L129.876 392.397C131.373 390.777 131.761 388.42 130.87 386.403L128.262 381.952C126.33 383.886 124.463 384.524 122.845 384.524C121.12 384.524 119.678 383.8 118.727 383.15C117.948 382.615 117.015 382.344 116.081 382.456C115.848 382.482 115.625 382.495 115.414 382.495C112.944 382.495 111.933 380.767 111.528 379.564C110.844 377.535 109.102 371.463 102.419 366.274C100.909 365.102 99.0155 364.546 97.105 364.464C91.5241 364.219 92.4148 360.819 92.4148 360.819L95.926 354.566C109.351 369.136 128.572 378.267 149.927 378.267C171.283 378.267 190.508 369.14 203.929 354.566L207.44 360.819C207.44 360.819 208.331 364.223 202.75 364.464H202.741ZM149.919 372.264C112.716 372.264 82.445 341.953 82.445 304.69C82.445 267.428 112.712 237.116 149.919 237.116C187.126 237.116 217.393 267.428 217.393 304.69C217.393 341.953 187.126 372.264 149.919 372.264Z" fill="url(#paint15_linear_1477_8735)"/>
<path d="M203.551 107.633L230.685 100.45C232.152 102.16 234.428 103.16 236.924 102.841C239.957 102.449 242.47 99.9928 242.922 96.959C243.352 94.0459 241.993 91.4173 239.785 89.9909L244.536 63.3724L238.636 62.3166L233.839 89.2152C231.403 90.0038 229.557 92.0938 229.106 94.6665L202.019 101.837L203.551 107.637V107.633Z" fill="url(#paint16_linear_1477_8735)"/>
<path d="M235.997 153.532C267.791 153.532 293.561 127.719 293.561 95.8819C293.561 64.0448 267.787 38.2321 235.997 38.2321C204.203 38.2321 178.433 64.0448 178.433 95.8819C178.433 127.719 204.207 153.532 235.997 153.532ZM235.997 53.9826C259.065 53.9826 277.834 72.7797 277.834 95.8819C277.834 118.984 259.065 137.781 235.997 137.781C212.929 137.781 194.16 118.984 194.16 95.8819C194.16 72.7797 212.929 53.9826 235.997 53.9826Z" fill="url(#paint17_linear_1477_8735)"/>
<path d="M235.999 207.398C241.718 207.398 246.369 202.739 246.369 197.012H225.625C225.625 202.739 230.277 207.398 235.995 207.398H235.999Z" fill="url(#paint18_linear_1477_8735)"/>
<path d="M162.534 95.8818C162.534 111.869 167.628 126.663 176.277 138.729C177.095 139.867 176.11 143.538 175.98 144.047C175.554 145.68 174.345 147.636 173.708 147.718C171.441 148.003 169.479 148.804 167.874 150.11C164.165 153.122 162.495 157.436 163.291 161.952C163.79 164.779 166.217 166.856 169.083 166.908C169.182 166.908 180.365 166.886 184.543 174.389C189.625 183.516 198.575 184.184 198.764 184.196C199.083 184.244 208.842 185.218 209.819 197.469C210.029 200.124 211.927 202.265 214.418 202.856C216.987 212.375 225.688 219.399 235.997 219.399C246.307 219.399 255.008 212.375 257.581 202.851C260.068 202.265 261.965 200.119 262.176 197.465C263.153 185.213 272.912 184.24 273.23 184.192C273.42 184.179 282.37 183.511 287.452 174.384C291.63 166.882 302.809 166.908 302.912 166.903C305.778 166.852 308.204 164.774 308.704 161.948C309.5 157.431 307.83 153.114 304.121 150.106C302.516 148.804 300.554 147.998 298.286 147.714C297.649 147.636 296.44 145.676 296.014 144.042C295.885 143.534 294.9 139.862 295.717 138.725C304.366 126.663 309.461 111.869 309.461 95.8818C309.461 79.8943 304.25 64.7601 295.421 52.6165C294.543 51.4056 294.508 49.781 295.33 48.5313C296.909 46.1267 299.211 42.3431 299.526 41.2873C300.063 39.4645 299.68 36.5945 297.908 34.177C296.647 32.4576 294.112 30.359 289.186 30.1177C288.605 30.0875 287.779 29.941 287.094 29.4971C282.675 26.6357 280.601 20.6243 280.081 19.0859C278.622 14.7636 274.797 11.8463 270.012 12.0876C268.213 11.0533 266.062 9.94585 262.469 10.0622C264.392 7.96789 264.62 4.74453 262.826 2.35718C261.673 0.823075 259.805 -1.67876e-07 257.886 0L214.126 3.82802e-06C212.207 3.9959e-06 210.339 0.827389 209.186 2.35719C207.387 4.74454 207.62 7.96789 209.543 10.0622C205.954 9.94586 203.799 11.0534 202 12.0876C197.215 11.8463 193.39 14.7593 191.931 19.0859C191.411 20.6286 189.332 26.6358 184.918 29.4971C184.233 29.941 183.407 30.0875 182.826 30.1177C177.9 30.359 175.365 32.4576 174.104 34.177C172.332 36.5945 171.949 39.4645 172.486 41.2873C172.796 42.3388 175.098 46.1267 176.682 48.5313C177.504 49.781 177.469 51.4056 176.591 52.6165C167.762 64.7601 162.551 79.7133 162.551 95.8818H162.534ZM297.796 153.7C298.816 153.786 299.771 154.268 300.545 154.936C301.673 155.91 302.903 157.487 302.908 159.737C302.908 160.375 302.426 160.913 301.793 160.961C298.209 161.237 286.096 162.827 281.996 171.911C281.996 171.911 279.797 176.901 272.615 178.219C272.615 178.219 257.521 179.689 256.204 197.004H252.361C252.361 206.053 245.034 213.392 235.997 213.392C226.961 213.392 219.633 206.053 219.633 197.004H215.791C214.47 179.685 199.38 178.219 199.38 178.219C192.198 176.901 189.999 171.911 189.999 171.911C185.899 162.827 173.786 161.232 170.202 160.961C169.573 160.913 169.087 160.379 169.087 159.746C169.087 157.487 170.318 155.91 171.449 154.936C172.224 154.264 173.179 153.786 174.199 153.7C179.733 153.226 181.656 146.033 181.785 145.529C195.219 160.232 214.53 169.454 235.997 169.454C257.465 169.454 276.776 160.232 290.21 145.529C290.339 146.033 292.262 153.226 297.796 153.7ZM183.175 36.1076C185.085 36.0257 186.979 35.4698 188.489 34.2977C195.171 29.1093 196.914 23.0375 197.598 21.0078C198.003 19.8055 199.018 18.0775 201.484 18.0775C201.695 18.0775 201.918 18.0904 202.151 18.1163C203.084 18.224 204.022 17.9525 204.797 17.4225C205.744 16.7718 207.189 16.0478 208.915 16.0478C210.533 16.0478 212.4 16.6856 214.332 18.6205L216.94 14.169C217.835 12.1522 217.443 9.79503 215.946 8.17473L213.941 6.00285L258.046 6.00284L256.04 8.17473C254.543 9.79502 254.156 12.1522 255.046 14.169L257.654 18.6205C259.586 16.6856 261.453 16.0478 263.071 16.0478C264.797 16.0478 266.238 16.7718 267.189 17.4225C267.968 17.9568 268.902 18.2283 269.835 18.1163C270.068 18.0904 270.292 18.0775 270.502 18.0775C272.972 18.0775 273.983 19.8055 274.388 21.0078C275.072 23.0375 276.815 29.1093 283.497 34.2977C285.008 35.4698 286.901 36.0257 288.811 36.1076C294.392 36.3532 293.501 39.7532 293.501 39.7532L289.99 46.006C276.565 31.4363 257.344 22.3049 235.989 22.3049C214.633 22.3049 195.408 31.432 181.987 46.006L178.476 39.7532C178.476 39.7532 177.585 36.3489 183.166 36.1076H183.175ZM235.997 28.3078C273.2 28.3077 303.471 58.6193 303.471 95.8818C303.471 133.144 273.205 163.456 235.997 163.456C198.79 163.456 168.523 133.144 168.523 95.8818C168.523 58.6193 198.79 28.3078 235.997 28.3078Z" fill="url(#paint19_linear_1477_8735)"/>
<path d="M430.212 469.657L403.078 476.84C401.611 475.13 399.335 474.13 396.839 474.449C393.806 474.841 391.293 477.297 390.841 480.331C390.411 483.244 391.77 485.873 393.978 487.299L389.227 513.917L395.127 514.973L399.924 488.075C402.36 487.286 404.206 485.196 404.658 482.623L431.744 475.453L430.212 469.652V469.657Z" fill="url(#paint20_linear_1477_8735)"/>
<path d="M397.766 423.758C365.972 423.758 340.202 449.571 340.202 481.408C340.202 513.245 365.976 539.058 397.766 539.058C429.56 539.058 455.33 513.245 455.33 481.408C455.33 449.571 429.556 423.758 397.766 423.758ZM397.766 523.307C374.698 523.307 355.929 504.51 355.929 481.408C355.929 458.306 374.698 439.509 397.766 439.509C420.834 439.509 439.603 458.306 439.603 481.408C439.603 504.51 420.834 523.307 397.766 523.307Z" fill="url(#paint21_linear_1477_8735)"/>
<path d="M397.764 369.892C392.045 369.892 387.394 374.551 387.394 380.278H408.138C408.138 374.551 403.487 369.892 397.768 369.892H397.764Z" fill="url(#paint22_linear_1477_8735)"/>
<path d="M471.229 481.408C471.229 465.421 466.135 450.627 457.486 438.561C456.668 437.423 457.654 433.752 457.783 433.243C458.209 431.61 459.418 429.654 460.055 429.572C462.322 429.287 464.284 428.486 465.889 427.18C469.598 424.168 471.268 419.854 470.472 415.338C469.973 412.511 467.546 410.434 464.68 410.382C464.581 410.382 453.398 410.404 449.22 402.901C444.138 393.774 435.188 393.106 434.999 393.093C434.68 393.046 424.921 392.072 423.945 379.821C423.734 377.166 421.836 375.025 419.345 374.434C416.776 364.915 408.075 357.891 397.766 357.891C387.456 357.891 378.755 364.915 376.182 374.439C373.695 375.025 371.798 377.171 371.587 379.825C370.61 392.076 360.851 393.05 360.533 393.098C360.343 393.111 351.393 393.779 346.311 402.906C342.133 410.408 330.954 410.382 330.851 410.387C327.985 410.438 325.559 412.515 325.059 415.342C324.263 419.858 325.933 424.176 329.642 427.184C331.247 428.486 333.209 429.291 335.477 429.576C336.114 429.653 337.323 431.614 337.749 433.247C337.878 433.756 338.863 437.427 338.046 438.565C329.397 450.627 324.302 465.421 324.302 481.408C324.302 497.396 329.513 512.53 338.342 524.673C339.22 525.884 339.255 527.509 338.433 528.759C336.854 531.163 334.552 534.947 334.237 536.003C333.7 537.825 334.083 540.695 335.855 543.113C337.116 544.832 339.651 546.931 344.577 547.172C345.158 547.202 345.984 547.349 346.669 547.793C351.088 550.654 353.162 556.666 353.682 558.204C355.141 562.526 358.966 565.444 363.751 565.202C365.55 566.237 367.701 567.344 371.294 567.228C369.371 569.322 369.143 572.545 370.937 574.933C372.09 576.467 373.958 577.29 375.877 577.29H419.637C421.556 577.29 423.424 576.463 424.577 574.933C426.376 572.545 426.143 569.322 424.22 567.228C427.809 567.344 429.964 566.237 431.763 565.202C436.548 565.444 440.373 562.531 441.832 558.204C442.352 556.661 444.431 550.654 448.845 547.793C449.53 547.349 450.356 547.202 450.937 547.172C455.863 546.931 458.398 544.832 459.659 543.113C461.432 540.695 461.814 537.825 461.277 536.003C460.967 534.951 458.665 531.163 457.081 528.759C456.259 527.509 456.294 525.884 457.172 524.673C466.001 512.53 471.212 497.577 471.212 481.408H471.229ZM335.967 423.59C334.947 423.504 333.992 423.021 333.218 422.354C332.09 421.38 330.86 419.802 330.855 417.553C330.855 416.915 331.337 416.377 331.97 416.329C335.554 416.053 347.667 414.463 351.768 405.379C351.768 405.379 353.966 400.389 361.148 399.07C361.148 399.07 376.242 397.601 377.559 380.286H381.402C381.402 371.237 388.73 363.898 397.766 363.898C406.802 363.898 414.13 371.237 414.13 380.286H417.972C419.293 397.605 434.383 399.07 434.383 399.07C441.565 400.389 443.764 405.379 443.764 405.379C447.864 414.463 459.977 416.058 463.561 416.329C464.19 416.377 464.676 416.911 464.676 417.544C464.676 419.802 463.445 421.38 462.314 422.354C461.539 423.026 460.584 423.504 459.564 423.59C454.031 424.064 452.107 431.257 451.978 431.761C438.544 417.057 419.233 407.836 397.766 407.836C376.298 407.836 356.987 417.057 343.553 431.761C343.424 431.257 341.501 424.064 335.967 423.59ZM450.588 541.182C448.678 541.264 446.784 541.82 445.274 542.992C438.592 548.181 436.849 554.252 436.165 556.282C435.76 557.484 434.745 559.212 432.279 559.212C432.068 559.212 431.845 559.199 431.612 559.174C430.679 559.066 429.741 559.337 428.966 559.867C428.019 560.518 426.574 561.242 424.848 561.242C423.23 561.242 421.363 560.604 419.431 558.669L416.823 563.121C415.928 565.138 416.32 567.495 417.817 569.115L419.822 571.287H375.718L377.723 569.115C379.22 567.495 379.607 565.138 378.717 563.121L376.109 558.669C374.177 560.604 372.31 561.242 370.692 561.242C368.966 561.242 367.525 560.518 366.574 559.867C365.795 559.333 364.861 559.062 363.928 559.174C363.695 559.199 363.471 559.212 363.261 559.212C360.791 559.212 359.78 557.484 359.375 556.282C358.691 554.252 356.948 548.181 350.266 542.992C348.755 541.82 346.862 541.264 344.952 541.182C339.371 540.937 340.262 537.537 340.262 537.537L343.773 531.284C357.198 545.854 376.419 554.985 397.774 554.985C419.13 554.985 438.355 545.858 451.776 531.284L455.287 537.537C455.287 537.537 456.178 540.941 450.597 541.182H450.588ZM397.766 548.982C360.563 548.982 330.292 518.671 330.292 481.408C330.292 444.146 360.558 413.834 397.766 413.834C434.973 413.834 465.24 444.146 465.24 481.408C465.24 518.671 434.973 548.982 397.766 548.982Z" fill="url(#paint23_linear_1477_8735)"/>
<path d="M203.551 490.769L230.685 483.586C232.152 485.297 234.428 486.296 236.924 485.977C239.957 485.585 242.47 483.129 242.922 480.095C243.352 477.182 241.993 474.553 239.785 473.127L244.536 446.509L238.637 445.453L233.839 472.351C231.403 473.14 229.557 475.23 229.106 477.803L202.019 484.973L203.551 490.774V490.769Z" fill="url(#paint24_linear_1477_8735)"/>
<path d="M235.997 536.668C267.791 536.668 293.561 510.855 293.561 479.018C293.561 447.181 267.787 421.368 235.997 421.368C204.203 421.368 178.433 447.181 178.433 479.018C178.433 510.855 204.207 536.668 235.997 536.668ZM235.997 437.119C259.065 437.119 277.834 455.916 277.834 479.018C277.834 502.12 259.065 520.917 235.997 520.917C212.929 520.917 194.16 502.12 194.16 479.018C194.16 455.916 212.929 437.119 235.997 437.119Z" fill="url(#paint25_linear_1477_8735)"/>
<path d="M235.999 590.534C241.718 590.534 246.369 585.876 246.369 580.148H225.625C225.625 585.876 230.277 590.534 235.995 590.534H235.999Z" fill="url(#paint26_linear_1477_8735)"/>
<path d="M162.534 479.018C162.534 495.005 167.628 509.799 176.277 521.865C177.095 523.003 176.11 526.674 175.98 527.183C175.554 528.816 174.345 530.773 173.709 530.854C171.441 531.139 169.479 531.94 167.874 533.246C164.165 536.258 162.495 540.572 163.291 545.088C163.79 547.915 166.217 549.992 169.083 550.044C169.182 550.044 180.365 550.022 184.543 557.525C189.625 566.652 198.575 567.32 198.764 567.333C199.083 567.38 208.842 568.354 209.819 580.605C210.029 583.26 211.927 585.402 214.418 585.992C216.987 595.511 225.688 602.535 235.997 602.535C246.307 602.535 255.008 595.511 257.581 585.988C260.068 585.402 261.965 583.255 262.176 580.601C263.153 568.35 272.912 567.376 273.23 567.328C273.42 567.315 282.37 566.647 287.452 557.52C291.63 550.018 302.809 550.044 302.912 550.039C305.778 549.988 308.205 547.911 308.704 545.084C309.5 540.568 307.83 536.25 304.121 533.242C302.516 531.94 300.554 531.135 298.286 530.85C297.649 530.773 296.44 528.812 296.014 527.179C295.885 526.67 294.9 522.999 295.717 521.861C304.366 509.799 309.461 495.005 309.461 479.018C309.461 463.03 304.25 447.896 295.421 435.753C294.543 434.542 294.508 432.917 295.33 431.667C296.909 429.263 299.211 425.479 299.526 424.424C300.063 422.601 299.68 419.731 297.908 417.313C296.647 415.594 294.112 413.495 289.186 413.254C288.605 413.224 287.779 413.077 287.094 412.633C282.675 409.772 280.601 403.761 280.081 402.222C278.622 397.9 274.797 394.982 270.012 395.224C268.213 394.19 266.062 393.082 262.469 393.198C264.392 391.104 264.62 387.881 262.826 385.493C261.673 383.959 259.805 383.136 257.886 383.136H214.126C212.207 383.136 210.339 383.964 209.186 385.493C207.387 387.881 207.62 391.104 209.543 393.198C205.954 393.082 203.799 394.19 202 395.224C197.215 394.982 193.39 397.896 191.931 402.222C191.411 403.765 189.332 409.772 184.918 412.633C184.233 413.077 183.407 413.224 182.826 413.254C177.9 413.495 175.365 415.594 174.104 417.313C172.332 419.731 171.949 422.601 172.486 424.424C172.796 425.475 175.098 429.263 176.682 431.667C177.504 432.917 177.469 434.542 176.591 435.753C167.762 447.896 162.551 462.85 162.551 479.018H162.534ZM297.796 536.836C298.816 536.922 299.771 537.405 300.545 538.073C301.673 539.046 302.903 540.624 302.908 542.873C302.908 543.511 302.426 544.05 301.793 544.097C298.209 544.373 286.096 545.963 281.996 555.047C281.996 555.047 279.797 560.037 272.615 561.356C272.615 561.356 257.521 562.825 256.204 580.14H252.361C252.361 589.189 245.034 596.528 235.997 596.528C226.961 596.528 219.633 589.189 219.633 580.14H215.791C214.47 562.821 199.38 561.356 199.38 561.356C192.198 560.037 189.999 555.047 189.999 555.047C185.899 545.963 173.786 544.368 170.202 544.097C169.573 544.05 169.087 543.515 169.087 542.882C169.087 540.624 170.318 539.046 171.449 538.073C172.224 537.4 173.179 536.922 174.199 536.836C179.733 536.362 181.656 529.17 181.785 528.665C195.219 543.369 214.53 552.591 235.997 552.591C257.465 552.591 276.776 543.369 290.21 528.665C290.339 529.17 292.262 536.362 297.796 536.836ZM183.175 419.244C185.085 419.162 186.979 418.606 188.489 417.434C195.171 412.245 196.914 406.174 197.598 404.144C198.003 402.942 199.018 401.214 201.484 401.214C201.695 401.214 201.918 401.227 202.151 401.252C203.084 401.36 204.023 401.089 204.797 400.559C205.744 399.908 207.189 399.184 208.915 399.184C210.533 399.184 212.4 399.822 214.332 401.757L216.94 397.305C217.835 395.288 217.443 392.931 215.946 391.311L213.941 389.139H258.046L256.04 391.311C254.543 392.931 254.156 395.288 255.046 397.305L257.654 401.757C259.586 399.822 261.453 399.184 263.071 399.184C264.797 399.184 266.238 399.908 267.189 400.559C267.968 401.093 268.902 401.365 269.836 401.252C270.068 401.227 270.292 401.214 270.502 401.214C272.972 401.214 273.983 402.942 274.388 404.144C275.072 406.174 276.815 412.246 283.497 417.434C285.008 418.606 286.901 419.162 288.811 419.244C294.392 419.489 293.501 422.889 293.501 422.889L289.99 429.142C276.565 414.573 257.344 405.441 235.989 405.441C214.633 405.441 195.408 414.568 181.987 429.142L178.476 422.889C178.476 422.889 177.585 419.485 183.166 419.244H183.175ZM235.997 411.444C273.2 411.444 303.471 441.756 303.471 479.018C303.471 516.28 273.205 546.592 235.997 546.592C198.79 546.592 168.523 516.28 168.523 479.018C168.523 441.756 198.79 411.444 235.997 411.444Z" fill="url(#paint27_linear_1477_8735)"/>
<path d="M285.177 685.307L312.311 678.124C313.778 679.835 316.054 680.834 318.55 680.516C321.584 680.123 324.097 677.667 324.548 674.633C324.979 671.72 323.619 669.092 321.412 667.665L326.162 641.047L320.263 639.991L315.465 666.89C313.029 667.678 311.184 669.768 310.732 672.341L283.645 679.511L285.177 685.312V685.307Z" fill="url(#paint28_linear_1477_8735)"/>
<path d="M317.623 731.206C349.417 731.206 375.188 705.393 375.188 673.556C375.188 641.719 349.413 615.906 317.623 615.906C285.829 615.906 260.059 641.719 260.059 673.556C260.059 705.393 285.833 731.206 317.623 731.206ZM317.623 631.657C340.691 631.657 359.46 650.454 359.46 673.556C359.46 696.658 340.691 715.456 317.623 715.456C294.555 715.456 275.786 696.658 275.786 673.556C275.786 650.454 294.555 631.657 317.623 631.657Z" fill="url(#paint29_linear_1477_8735)"/>
<path d="M317.626 785.072C323.344 785.072 327.996 780.414 327.996 774.687H307.251C307.251 780.414 311.903 785.072 317.621 785.072H317.626Z" fill="url(#paint30_linear_1477_8735)"/>
<path d="M244.16 673.556C244.16 689.544 249.255 704.337 257.904 716.403C258.721 717.541 257.736 721.213 257.607 721.721C257.181 723.354 255.971 725.311 255.335 725.393C253.067 725.677 251.105 726.479 249.5 727.784C245.791 730.797 244.121 735.11 244.917 739.626C245.416 742.453 247.843 744.53 250.709 744.582C250.808 744.582 261.991 744.56 266.169 752.063C271.251 761.19 280.201 761.858 280.391 761.871C280.709 761.918 290.468 762.892 291.445 775.143C291.656 777.798 293.553 779.94 296.044 780.53C298.613 790.049 307.314 797.073 317.624 797.073C327.933 797.073 336.634 790.049 339.207 780.526C341.694 779.94 343.592 777.794 343.802 775.139C344.779 762.888 354.538 761.914 354.857 761.867C355.046 761.854 363.996 761.186 369.078 752.059C373.256 744.556 384.435 744.582 384.538 744.578C387.404 744.526 389.831 742.449 390.33 739.622C391.126 735.106 389.456 730.788 385.747 727.78C384.142 726.479 382.18 725.673 379.913 725.388C379.276 725.311 378.067 723.35 377.641 721.717C377.512 721.208 376.526 717.537 377.344 716.399C385.992 704.337 391.087 689.544 391.087 673.556C391.087 657.569 385.876 642.434 377.047 630.291C376.169 629.08 376.135 627.455 376.956 626.206C378.536 623.801 380.838 620.017 381.152 618.962C381.69 617.139 381.307 614.269 379.534 611.851C378.273 610.132 375.739 608.033 370.812 607.792C370.231 607.762 369.405 607.615 368.721 607.172C364.302 604.31 362.228 598.299 361.707 596.76C360.248 592.438 356.423 589.521 351.638 589.762C349.839 588.728 347.688 587.62 344.095 587.737C346.018 585.642 346.247 582.419 344.452 580.032C343.299 578.497 341.432 577.674 339.513 577.674H295.752C293.833 577.674 291.965 578.502 290.812 580.031C289.014 582.419 289.246 585.642 291.169 587.737C287.581 587.62 285.425 588.728 283.626 589.762C278.841 589.521 275.016 592.434 273.557 596.76C273.037 598.303 270.959 604.31 266.544 607.171C265.86 607.615 265.033 607.762 264.453 607.792C259.526 608.033 256.991 610.132 255.731 611.851C253.958 614.269 253.575 617.139 254.113 618.962C254.422 620.013 256.725 623.801 258.308 626.206C259.13 627.455 259.095 629.08 258.218 630.291C249.388 642.434 244.177 657.388 244.177 673.556H244.16ZM379.422 731.374C380.442 731.46 381.397 731.943 382.172 732.611C383.299 733.585 384.529 735.162 384.534 737.411C384.534 738.049 384.052 738.588 383.419 738.635C379.835 738.911 367.722 740.501 363.622 749.585C363.622 749.585 361.423 754.575 354.241 755.894C354.241 755.894 339.147 757.363 337.83 774.678H333.988C333.988 783.728 326.66 791.066 317.624 791.066C308.587 791.066 301.26 783.727 301.26 774.678H297.417C296.096 757.359 281.006 755.894 281.006 755.894C273.824 754.575 271.625 749.585 271.625 749.585C267.525 740.501 255.412 738.907 251.828 738.635C251.2 738.588 250.713 738.053 250.713 737.42C250.713 735.162 251.944 733.585 253.076 732.611C253.85 731.938 254.805 731.46 255.825 731.374C261.359 730.9 263.282 723.708 263.411 723.203C276.845 737.907 296.156 747.129 317.624 747.129C339.091 747.129 358.402 737.907 371.836 723.203C371.965 723.708 373.888 730.9 379.422 731.374ZM264.801 613.782C266.712 613.7 268.605 613.144 270.115 611.972C276.798 606.784 278.54 600.712 279.224 598.682C279.629 597.48 280.644 595.752 283.11 595.752C283.321 595.752 283.545 595.765 283.777 595.791C284.711 595.898 285.649 595.627 286.423 595.097C287.37 594.446 288.816 593.722 290.541 593.722C292.159 593.722 294.026 594.36 295.958 596.295L298.566 591.843C299.461 589.827 299.069 587.469 297.572 585.849L295.567 583.677H339.672L337.667 585.849C336.169 587.469 335.782 589.827 336.673 591.843L339.28 596.295C341.212 594.36 343.08 593.722 344.697 593.722C346.423 593.722 347.864 594.446 348.815 595.097C349.594 595.631 350.528 595.903 351.462 595.791C351.694 595.765 351.918 595.752 352.129 595.752C354.599 595.752 355.61 597.48 356.014 598.682C356.698 600.712 358.441 606.784 365.123 611.972C366.634 613.144 368.527 613.7 370.438 613.782C376.018 614.028 375.128 617.428 375.128 617.428L371.616 623.68C358.191 609.111 338.97 599.979 317.615 599.979C296.26 599.979 277.034 609.106 263.613 623.68L260.102 617.428C260.102 617.428 259.212 614.023 264.792 613.782H264.801ZM317.624 605.982C354.827 605.982 385.098 636.294 385.098 673.556C385.098 710.819 354.831 741.13 317.624 741.13C280.416 741.13 250.15 710.819 250.15 673.556C250.15 636.294 280.416 605.982 317.624 605.982Z" fill="url(#paint31_linear_1477_8735)"/>
<path d="M285.177 1089.23L312.311 1082.05C313.778 1083.76 316.054 1084.76 318.55 1084.44C321.584 1084.05 324.097 1081.59 324.548 1078.56C324.979 1075.65 323.619 1073.02 321.412 1071.59L326.162 1044.97L320.263 1043.92L315.465 1070.82C313.029 1071.6 311.184 1073.69 310.732 1076.27L283.645 1083.44L285.177 1089.24V1089.23Z" fill="url(#paint32_linear_1477_8735)"/>
<path d="M317.623 1135.13C349.417 1135.13 375.188 1109.32 375.188 1077.48C375.188 1045.65 349.413 1019.83 317.623 1019.83C285.829 1019.83 260.059 1045.65 260.059 1077.48C260.059 1109.32 285.833 1135.13 317.623 1135.13ZM317.623 1035.58C340.691 1035.58 359.46 1054.38 359.46 1077.48C359.46 1100.58 340.691 1119.38 317.623 1119.38C294.555 1119.38 275.786 1100.58 275.786 1077.48C275.786 1054.38 294.555 1035.58 317.623 1035.58Z" fill="url(#paint33_linear_1477_8735)"/>
<path d="M317.626 1189C323.344 1189 327.996 1184.34 327.996 1178.61H307.251C307.251 1184.34 311.903 1189 317.621 1189H317.626Z" fill="url(#paint34_linear_1477_8735)"/>
<path d="M244.16 1077.48C244.16 1093.47 249.255 1108.26 257.904 1120.33C258.721 1121.47 257.736 1125.14 257.607 1125.65C257.181 1127.28 255.971 1129.24 255.335 1129.32C253.067 1129.6 251.105 1130.41 249.5 1131.71C245.791 1134.72 244.121 1139.04 244.917 1143.55C245.416 1146.38 247.843 1148.46 250.709 1148.51C250.808 1148.51 261.991 1148.49 266.169 1155.99C271.251 1165.12 280.201 1165.78 280.391 1165.8C280.709 1165.84 290.468 1166.82 291.445 1179.07C291.656 1181.72 293.553 1183.87 296.044 1184.46C298.613 1193.98 307.314 1201 317.624 1201C327.933 1201 336.634 1193.98 339.207 1184.45C341.694 1183.87 343.592 1181.72 343.802 1179.07C344.779 1166.81 354.538 1165.84 354.857 1165.79C355.046 1165.78 363.996 1165.11 369.078 1155.99C373.256 1148.48 384.435 1148.51 384.538 1148.5C387.404 1148.45 389.831 1146.38 390.33 1143.55C391.126 1139.03 389.456 1134.71 385.747 1131.71C384.142 1130.41 382.18 1129.6 379.913 1129.31C379.276 1129.24 378.067 1127.28 377.641 1125.64C377.512 1125.13 376.526 1121.46 377.344 1120.33C385.992 1108.26 391.087 1093.47 391.087 1077.48C391.087 1061.5 385.876 1046.36 377.047 1034.22C376.169 1033.01 376.135 1031.38 376.956 1030.13C378.536 1027.73 380.838 1023.94 381.152 1022.89C381.69 1021.07 381.307 1018.2 379.534 1015.78C378.273 1014.06 375.739 1011.96 370.812 1011.72C370.231 1011.69 369.405 1011.54 368.721 1011.1C364.302 1008.24 362.228 1002.23 361.707 1000.69C360.248 996.365 356.423 993.447 351.638 993.688C349.839 992.654 347.688 991.547 344.095 991.663C346.018 989.569 346.247 986.345 344.452 983.958C343.299 982.424 341.432 981.601 339.513 981.601H295.752C293.833 981.601 291.965 982.428 290.812 983.958C289.014 986.345 289.246 989.569 291.169 991.663C287.581 991.547 285.425 992.654 283.626 993.688C278.841 993.447 275.016 996.36 273.557 1000.69C273.037 1002.23 270.959 1008.24 266.544 1011.1C265.86 1011.54 265.033 1011.69 264.453 1011.72C259.526 1011.96 256.991 1014.06 255.731 1015.78C253.958 1018.2 253.575 1021.07 254.113 1022.89C254.422 1023.94 256.725 1027.73 258.308 1030.13C259.13 1031.38 259.095 1033.01 258.218 1034.22C249.388 1046.36 244.177 1061.31 244.177 1077.48H244.16ZM379.422 1135.3C380.442 1135.39 381.397 1135.87 382.172 1136.54C383.299 1137.51 384.529 1139.09 384.534 1141.34C384.534 1141.98 384.052 1142.51 383.419 1142.56C379.835 1142.84 367.722 1144.43 363.622 1153.51C363.622 1153.51 361.423 1158.5 354.241 1159.82C354.241 1159.82 339.147 1161.29 337.83 1178.6H333.988C333.988 1187.65 326.66 1194.99 317.624 1194.99C308.587 1194.99 301.26 1187.65 301.26 1178.6H297.417C296.096 1161.29 281.006 1159.82 281.006 1159.82C273.824 1158.5 271.625 1153.51 271.625 1153.51C267.525 1144.43 255.412 1142.83 251.828 1142.56C251.2 1142.51 250.713 1141.98 250.713 1141.35C250.713 1139.09 251.944 1137.51 253.076 1136.54C253.85 1135.86 254.805 1135.39 255.825 1135.3C261.359 1134.83 263.282 1127.63 263.411 1127.13C276.845 1141.83 296.156 1151.06 317.624 1151.06C339.091 1151.06 358.402 1141.83 371.836 1127.13C371.965 1127.63 373.888 1134.83 379.422 1135.3ZM264.801 1017.71C266.712 1017.63 268.605 1017.07 270.115 1015.9C276.798 1010.71 278.54 1004.64 279.224 1002.61C279.629 1001.41 280.644 999.678 283.11 999.678C283.321 999.678 283.545 999.691 283.777 999.717C284.711 999.825 285.649 999.553 286.423 999.023C287.37 998.373 288.816 997.649 290.541 997.649C292.159 997.649 294.026 998.286 295.958 1000.22L298.566 995.77C299.461 993.753 299.069 991.396 297.572 989.776L295.567 987.604H339.672L337.667 989.776C336.169 991.396 335.782 993.753 336.673 995.77L339.28 1000.22C341.212 998.286 343.08 997.649 344.697 997.649C346.423 997.649 347.864 998.373 348.815 999.023C349.594 999.558 350.528 999.829 351.462 999.717C351.694 999.691 351.918 999.678 352.129 999.678C354.599 999.678 355.61 1001.41 356.014 1002.61C356.698 1004.64 358.441 1010.71 365.123 1015.9C366.634 1017.07 368.527 1017.63 370.438 1017.71C376.018 1017.95 375.128 1021.35 375.128 1021.35L371.616 1027.61C358.191 1013.04 338.97 1003.91 317.615 1003.91C296.26 1003.91 277.034 1013.03 263.613 1027.61L260.102 1021.35C260.102 1021.35 259.212 1017.95 264.792 1017.71H264.801ZM317.624 1009.91C354.827 1009.91 385.098 1040.22 385.098 1077.48C385.098 1114.75 354.831 1145.06 317.624 1145.06C280.416 1145.06 250.15 1114.75 250.15 1077.48C250.15 1040.22 280.416 1009.91 317.624 1009.91Z" fill="url(#paint35_linear_1477_8735)"/>
<path d="M511.839 684.985L484.705 692.169C483.237 690.458 480.961 689.458 478.465 689.777C475.432 690.169 472.919 692.626 472.467 695.659C472.037 698.572 473.397 701.201 475.604 702.628L470.853 729.246L476.753 730.302L481.551 703.403C483.986 702.615 485.832 700.525 486.284 697.952L513.371 690.781L511.839 684.981V684.985Z" fill="url(#paint36_linear_1477_8735)"/>
<path d="M479.392 639.087C447.598 639.087 421.828 664.899 421.828 696.737C421.828 728.574 447.602 754.386 479.392 754.386C511.186 754.386 536.956 728.574 536.956 696.737C536.956 664.899 511.182 639.087 479.392 639.087ZM479.392 738.636C456.324 738.636 437.555 719.839 437.555 696.737C437.555 673.634 456.324 654.837 479.392 654.837C502.46 654.837 521.229 673.634 521.229 696.737C521.229 719.839 502.46 738.636 479.392 738.636Z" fill="url(#paint37_linear_1477_8735)"/>
<path d="M479.39 585.221C473.671 585.221 469.02 589.879 469.02 595.606H489.764C489.764 589.879 485.113 585.221 479.394 585.221H479.39Z" fill="url(#paint38_linear_1477_8735)"/>
<path d="M552.855 696.737C552.855 680.749 547.761 665.955 539.112 653.889C538.294 652.752 539.28 649.08 539.409 648.572C539.835 646.938 541.044 644.982 541.681 644.9C543.948 644.616 545.911 643.814 547.516 642.508C551.225 639.496 552.894 635.183 552.098 630.667C551.599 627.84 549.172 625.763 546.306 625.711C546.207 625.711 535.024 625.732 530.846 618.23C525.764 609.103 516.814 608.435 516.625 608.422C516.307 608.375 506.548 607.401 505.571 595.149C505.36 592.495 503.462 590.353 500.971 589.763C498.402 580.243 489.702 573.219 479.392 573.219C469.082 573.219 460.382 580.243 457.808 589.767C455.321 590.353 453.424 592.499 453.213 595.154C452.236 607.405 442.477 608.379 442.159 608.426C441.969 608.439 433.019 609.107 427.938 618.234C423.76 625.737 412.581 625.711 412.477 625.715C409.612 625.767 407.185 627.844 406.686 630.671C405.89 635.187 407.559 639.505 411.268 642.513C412.873 643.814 414.835 644.62 417.103 644.904C417.74 644.982 418.949 646.943 419.375 648.576C419.504 649.084 420.489 652.756 419.672 653.894C411.023 665.955 405.928 680.749 405.928 696.737C405.928 712.724 411.139 727.858 419.969 740.002C420.846 741.213 420.881 742.837 420.059 744.087C418.48 746.492 416.178 750.275 415.864 751.331C415.326 753.154 415.709 756.024 417.482 758.441C418.742 760.161 421.277 762.259 426.204 762.501C426.784 762.531 427.611 762.677 428.295 763.121C432.714 765.983 434.788 771.994 435.309 773.532C436.767 777.855 440.593 780.772 445.377 780.531C447.176 781.565 449.327 782.672 452.92 782.556C450.997 784.65 450.769 787.874 452.563 790.261C453.716 791.795 455.584 792.618 457.503 792.618H501.264C503.183 792.618 505.05 791.791 506.203 790.261C508.002 787.874 507.77 784.65 505.846 782.556C509.435 782.672 511.59 781.565 513.389 780.531C518.174 780.772 521.999 777.859 523.458 773.532C523.979 771.99 526.057 765.983 530.472 763.121C531.156 762.677 531.982 762.531 532.563 762.501C537.49 762.259 540.024 760.161 541.285 758.441C543.058 756.024 543.441 753.154 542.903 751.331C542.593 750.28 540.291 746.492 538.707 744.087C537.886 742.837 537.92 741.213 538.798 740.002C547.627 727.858 552.838 712.905 552.838 696.737H552.855ZM417.593 638.919C416.574 638.833 415.618 638.35 414.844 637.682C413.717 636.708 412.486 635.131 412.482 632.881C412.482 632.244 412.964 631.705 413.596 631.658C417.18 631.382 429.293 629.792 433.394 620.708C433.394 620.708 435.593 615.718 442.774 614.399C442.774 614.399 457.869 612.929 459.185 595.615H463.028C463.028 586.565 470.356 579.226 479.392 579.226C488.428 579.226 495.756 586.565 495.756 595.615H499.598C500.919 612.934 516.01 614.399 516.01 614.399C523.191 615.718 525.39 620.708 525.39 620.708C529.491 629.792 541.603 631.386 545.188 631.658C545.816 631.705 546.302 632.239 546.302 632.873C546.302 635.131 545.071 636.708 543.94 637.682C543.165 638.354 542.21 638.833 541.19 638.919C535.657 639.393 533.733 646.585 533.604 647.089C520.171 632.386 500.859 623.164 479.392 623.164C457.925 623.164 438.613 632.386 425.179 647.089C425.05 646.585 423.127 639.393 417.593 638.919ZM532.214 756.511C530.304 756.593 528.411 757.149 526.9 758.321C520.218 763.509 518.475 769.581 517.791 771.611C517.387 772.813 516.371 774.541 513.906 774.541C513.695 774.541 513.471 774.528 513.239 774.502C512.305 774.394 511.367 774.666 510.592 775.196C509.646 775.847 508.2 776.571 506.474 776.571C504.856 776.571 502.989 775.933 501.057 773.998L498.449 778.449C497.554 780.466 497.946 782.823 499.443 784.444L501.449 786.616H457.344L459.349 784.444C460.846 782.823 461.234 780.466 460.343 778.449L457.735 773.998C455.803 775.933 453.936 776.571 452.318 776.571C450.592 776.571 449.151 775.847 448.2 775.196C447.421 774.662 446.487 774.39 445.554 774.502C445.321 774.528 445.098 774.541 444.887 774.541C442.417 774.541 441.406 772.813 441.001 771.611C440.317 769.581 438.574 763.509 431.892 758.321C430.382 757.149 428.488 756.593 426.578 756.511C420.997 756.265 421.888 752.865 421.888 752.865L425.399 746.612C438.824 761.182 458.045 770.313 479.4 770.313C500.756 770.313 519.981 761.186 533.402 746.612L536.913 752.865C536.913 752.865 537.804 756.269 532.223 756.511H532.214ZM479.392 764.311C442.189 764.311 411.918 733.999 411.918 696.737C411.918 659.474 442.185 629.163 479.392 629.163C516.599 629.163 546.866 659.474 546.866 696.737C546.866 733.999 516.599 764.311 479.392 764.311Z" fill="url(#paint39_linear_1477_8735)"/>
<path d="M527.087 490.769L554.221 483.586C555.688 485.297 557.965 486.296 560.46 485.977C563.494 485.585 566.007 483.129 566.459 480.095C566.889 477.182 565.529 474.553 563.322 473.127L568.072 446.509L562.173 445.453L557.375 472.351C554.94 473.14 553.094 475.23 552.642 477.803L525.555 484.973L527.087 490.774V490.769Z" fill="url(#paint40_linear_1477_8735)"/>
<path d="M559.534 536.668C591.328 536.668 617.098 510.855 617.098 479.018C617.098 447.181 591.323 421.368 559.534 421.368C527.739 421.368 501.969 447.181 501.969 479.018C501.969 510.855 527.744 536.668 559.534 536.668ZM559.534 437.119C582.601 437.119 601.371 455.916 601.371 479.018C601.371 502.12 582.601 520.917 559.534 520.917C536.466 520.917 517.696 502.12 517.696 479.018C517.696 455.916 536.466 437.119 559.534 437.119Z" fill="url(#paint41_linear_1477_8735)"/>
<path d="M559.536 590.534C565.254 590.534 569.906 585.876 569.906 580.148H549.162C549.162 585.876 553.813 590.534 559.532 590.534H559.536Z" fill="url(#paint42_linear_1477_8735)"/>
<path d="M486.07 479.018C486.07 495.005 491.165 509.799 499.814 521.865C500.631 523.003 499.646 526.674 499.517 527.183C499.091 528.816 497.882 530.773 497.245 530.854C494.977 531.139 493.015 531.94 491.41 533.246C487.701 536.258 486.032 540.572 486.828 545.088C487.327 547.915 489.754 549.992 492.619 550.044C492.718 550.044 503.902 550.022 508.08 557.525C513.161 566.652 522.112 567.32 522.301 567.333C522.619 567.38 532.378 568.354 533.355 580.605C533.566 583.26 535.463 585.402 537.955 585.992C540.524 595.511 549.224 602.535 559.534 602.535C569.844 602.535 578.544 595.511 581.117 585.988C583.604 585.402 585.502 583.255 585.713 580.601C586.69 568.35 596.449 567.376 596.767 567.328C596.956 567.315 605.906 566.647 610.988 557.52C615.166 550.018 626.345 550.044 626.448 550.039C629.314 549.988 631.741 547.911 632.24 545.084C633.036 540.568 631.367 536.25 627.658 533.242C626.053 531.94 624.09 531.135 621.823 530.85C621.186 530.773 619.977 528.812 619.551 527.179C619.422 526.67 618.436 522.999 619.254 521.861C627.903 509.799 632.997 495.005 632.997 479.018C632.997 463.03 627.787 447.896 618.957 435.753C618.079 434.542 618.045 432.917 618.867 431.667C620.446 429.263 622.748 425.479 623.062 424.424C623.6 422.601 623.217 419.731 621.444 417.313C620.183 415.594 617.649 413.495 612.722 413.254C612.141 413.224 611.315 413.077 610.631 412.633C606.212 409.772 604.138 403.761 603.617 402.222C602.159 397.9 598.333 394.982 593.548 395.224C591.75 394.19 589.598 393.082 586.005 393.198C587.929 391.104 588.157 387.881 586.363 385.493C585.209 383.959 583.342 383.136 581.423 383.136H537.662C535.743 383.136 533.876 383.964 532.722 385.493C530.924 387.881 531.156 391.104 533.08 393.198C529.491 393.082 527.335 394.19 525.537 395.224C520.752 394.982 516.926 397.896 515.468 402.222C514.947 403.765 512.869 409.772 508.454 412.633C507.77 413.077 506.944 413.224 506.363 413.254C501.436 413.495 498.902 415.594 497.641 417.313C495.868 419.731 495.485 422.601 496.023 424.424C496.333 425.475 498.635 429.263 500.218 431.667C501.04 432.917 501.006 434.542 500.128 435.753C491.298 447.896 486.087 462.85 486.087 479.018H486.07ZM621.332 536.836C622.352 536.922 623.307 537.405 624.082 538.073C625.209 539.046 626.44 540.624 626.444 542.873C626.444 543.511 625.962 544.05 625.33 544.097C621.745 544.373 609.633 545.963 605.532 555.047C605.532 555.047 603.333 560.037 596.152 561.356C596.152 561.356 581.057 562.825 579.74 580.14H575.898C575.898 589.189 568.57 596.528 559.534 596.528C550.498 596.528 543.17 589.189 543.17 580.14H539.327C538.006 562.821 522.916 561.356 522.916 561.356C515.735 560.037 513.536 555.047 513.536 555.047C509.435 545.963 497.322 544.368 493.738 544.097C493.11 544.05 492.624 543.515 492.624 542.882C492.624 540.624 493.854 539.046 494.986 538.073C495.76 537.4 496.716 536.922 497.736 536.836C503.269 536.362 505.192 529.17 505.322 528.665C518.755 543.369 538.067 552.591 559.534 552.591C581.001 552.591 600.313 543.369 613.746 528.665C613.875 529.17 615.799 536.362 621.332 536.836ZM506.711 419.244C508.622 419.162 510.515 418.606 512.025 417.434C518.708 412.245 520.451 406.174 521.135 404.144C521.539 402.942 522.555 401.214 525.02 401.214C525.231 401.214 525.455 401.227 525.687 401.252C526.621 401.36 527.559 401.089 528.333 400.559C529.28 399.908 530.726 399.184 532.451 399.184C534.069 399.184 535.937 399.822 537.869 401.757L540.476 397.305C541.371 395.288 540.98 392.931 539.482 391.311L537.477 389.139H581.582L579.577 391.311C578.079 392.931 577.692 395.288 578.583 397.305L581.19 401.757C583.122 399.822 584.99 399.184 586.608 399.184C588.333 399.184 589.775 399.908 590.726 400.559C591.505 401.093 592.438 401.365 593.372 401.252C593.604 401.227 593.828 401.214 594.039 401.214C596.509 401.214 597.52 402.942 597.924 404.144C598.609 406.174 600.351 412.246 607.034 417.434C608.544 418.606 610.437 419.162 612.348 419.244C617.929 419.489 617.038 422.889 617.038 422.889L613.527 429.142C600.102 414.573 580.881 405.441 559.525 405.441C538.17 405.441 518.945 414.568 505.524 429.142L502.013 422.889C502.013 422.889 501.122 419.485 506.703 419.244H506.711ZM559.534 411.444C596.737 411.444 627.008 441.756 627.008 479.018C627.008 516.28 596.741 546.592 559.534 546.592C522.327 546.592 492.06 516.28 492.06 479.018C492.06 441.756 522.327 411.444 559.534 411.444Z" fill="url(#paint43_linear_1477_8735)"/>
<defs>
<linearGradient id="paint0_linear_1477_8735" x1="435.5" y1="-371" x2="435.5" y2="1547.5" gradientUnits="userSpaceOnUse">
<stop stop-color="#F6F8FA"/>
<stop offset="0.5" stop-color="#E4E9ED"/>
<stop offset="1" stop-color="#F6F8FA"/>
</linearGradient>
<linearGradient id="paint1_linear_1477_8735" x1="435.5" y1="-371" x2="435.5" y2="1547.5" gradientUnits="userSpaceOnUse">
<stop stop-color="#F6F8FA"/>
<stop offset="0.5" stop-color="#E4E9ED"/>
<stop offset="1" stop-color="#F6F8FA"/>
</linearGradient>
<linearGradient id="paint2_linear_1477_8735" x1="435.5" y1="-371" x2="435.5" y2="1547.5" gradientUnits="userSpaceOnUse">
<stop stop-color="#F6F8FA"/>
<stop offset="0.5" stop-color="#E4E9ED"/>
<stop offset="1" stop-color="#F6F8FA"/>
</linearGradient>
<linearGradient id="paint3_linear_1477_8735" x1="435.5" y1="-371" x2="435.5" y2="1547.5" gradientUnits="userSpaceOnUse">
<stop stop-color="#F6F8FA"/>
<stop offset="0.5" stop-color="#E4E9ED"/>
<stop offset="1" stop-color="#F6F8FA"/>
</linearGradient>
<linearGradient id="paint4_linear_1477_8735" x1="435.5" y1="-371" x2="435.5" y2="1547.5" gradientUnits="userSpaceOnUse">
<stop stop-color="#F6F8FA"/>
<stop offset="0.5" stop-color="#E4E9ED"/>
<stop offset="1" stop-color="#F6F8FA"/>
</linearGradient>
<linearGradient id="paint5_linear_1477_8735" x1="435.5" y1="-371" x2="435.5" y2="1547.5" gradientUnits="userSpaceOnUse">
<stop stop-color="#F6F8FA"/>
<stop offset="0.5" stop-color="#E4E9ED"/>
<stop offset="1" stop-color="#F6F8FA"/>
</linearGradient>
<linearGradient id="paint6_linear_1477_8735" x1="435.5" y1="-371" x2="435.5" y2="1547.5" gradientUnits="userSpaceOnUse">
<stop stop-color="#F6F8FA"/>
<stop offset="0.5" stop-color="#E4E9ED"/>
<stop offset="1" stop-color="#F6F8FA"/>
</linearGradient>
<linearGradient id="paint7_linear_1477_8735" x1="435.5" y1="-371" x2="435.5" y2="1547.5" gradientUnits="userSpaceOnUse">
<stop stop-color="#F6F8FA"/>
<stop offset="0.5" stop-color="#E4E9ED"/>
<stop offset="1" stop-color="#F6F8FA"/>
</linearGradient>
<linearGradient id="paint8_linear_1477_8735" x1="435.5" y1="-371" x2="435.5" y2="1547.5" gradientUnits="userSpaceOnUse">
<stop stop-color="#F6F8FA"/>
<stop offset="0.5" stop-color="#E4E9ED"/>
<stop offset="1" stop-color="#F6F8FA"/>
</linearGradient>
<linearGradient id="paint9_linear_1477_8735" x1="435.5" y1="-371" x2="435.5" y2="1547.5" gradientUnits="userSpaceOnUse">
<stop stop-color="#F6F8FA"/>
<stop offset="0.5" stop-color="#E4E9ED"/>
<stop offset="1" stop-color="#F6F8FA"/>
</linearGradient>
<linearGradient id="paint10_linear_1477_8735" x1="435.5" y1="-371" x2="435.5" y2="1547.5" gradientUnits="userSpaceOnUse">
<stop stop-color="#F6F8FA"/>
<stop offset="0.5" stop-color="#E4E9ED"/>
<stop offset="1" stop-color="#F6F8FA"/>
</linearGradient>
<linearGradient id="paint11_linear_1477_8735" x1="435.5" y1="-371" x2="435.5" y2="1547.5" gradientUnits="userSpaceOnUse">
<stop stop-color="#F6F8FA"/>
<stop offset="0.5" stop-color="#E4E9ED"/>
<stop offset="1" stop-color="#F6F8FA"/>
</linearGradient>
<linearGradient id="paint12_linear_1477_8735" x1="435.5" y1="-371" x2="435.5" y2="1547.5" gradientUnits="userSpaceOnUse">
<stop stop-color="#F6F8FA"/>
<stop offset="0.5" stop-color="#E4E9ED"/>
<stop offset="1" stop-color="#F6F8FA"/>
</linearGradient>
<linearGradient id="paint13_linear_1477_8735" x1="435.5" y1="-371" x2="435.5" y2="1547.5" gradientUnits="userSpaceOnUse">
<stop stop-color="#F6F8FA"/>
<stop offset="0.5" stop-color="#E4E9ED"/>
<stop offset="1" stop-color="#F6F8FA"/>
</linearGradient>
<linearGradient id="paint14_linear_1477_8735" x1="435.5" y1="-371" x2="435.5" y2="1547.5" gradientUnits="userSpaceOnUse">
<stop stop-color="#F6F8FA"/>
<stop offset="0.5" stop-color="#E4E9ED"/>
<stop offset="1" stop-color="#F6F8FA"/>
</linearGradient>
<linearGradient id="paint15_linear_1477_8735" x1="435.5" y1="-371" x2="435.5" y2="1547.5" gradientUnits="userSpaceOnUse">
<stop stop-color="#F6F8FA"/>
<stop offset="0.5" stop-color="#E4E9ED"/>
<stop offset="1" stop-color="#F6F8FA"/>
</linearGradient>
<linearGradient id="paint16_linear_1477_8735" x1="435.5" y1="-371" x2="435.5" y2="1547.5" gradientUnits="userSpaceOnUse">
<stop stop-color="#F6F8FA"/>
<stop offset="0.5" stop-color="#E4E9ED"/>
<stop offset="1" stop-color="#F6F8FA"/>
</linearGradient>
<linearGradient id="paint17_linear_1477_8735" x1="435.5" y1="-371" x2="435.5" y2="1547.5" gradientUnits="userSpaceOnUse">
<stop stop-color="#F6F8FA"/>
<stop offset="0.5" stop-color="#E4E9ED"/>
<stop offset="1" stop-color="#F6F8FA"/>
</linearGradient>
<linearGradient id="paint18_linear_1477_8735" x1="435.5" y1="-371" x2="435.5" y2="1547.5" gradientUnits="userSpaceOnUse">
<stop stop-color="#F6F8FA"/>
<stop offset="0.5" stop-color="#E4E9ED"/>
<stop offset="1" stop-color="#F6F8FA"/>
</linearGradient>
<linearGradient id="paint19_linear_1477_8735" x1="435.5" y1="-371" x2="435.5" y2="1547.5" gradientUnits="userSpaceOnUse">
<stop stop-color="#F6F8FA"/>
<stop offset="0.5" stop-color="#E4E9ED"/>
<stop offset="1" stop-color="#F6F8FA"/>
</linearGradient>
<linearGradient id="paint20_linear_1477_8735" x1="435.5" y1="-371" x2="435.5" y2="1547.5" gradientUnits="userSpaceOnUse">
<stop stop-color="#F6F8FA"/>
<stop offset="0.5" stop-color="#E4E9ED"/>
<stop offset="1" stop-color="#F6F8FA"/>
</linearGradient>
<linearGradient id="paint21_linear_1477_8735" x1="435.5" y1="-371" x2="435.5" y2="1547.5" gradientUnits="userSpaceOnUse">
<stop stop-color="#F6F8FA"/>
<stop offset="0.5" stop-color="#E4E9ED"/>
<stop offset="1" stop-color="#F6F8FA"/>
</linearGradient>
<linearGradient id="paint22_linear_1477_8735" x1="435.5" y1="-371" x2="435.5" y2="1547.5" gradientUnits="userSpaceOnUse">
<stop stop-color="#F6F8FA"/>
<stop offset="0.5" stop-color="#E4E9ED"/>
<stop offset="1" stop-color="#F6F8FA"/>
</linearGradient>
<linearGradient id="paint23_linear_1477_8735" x1="435.5" y1="-371" x2="435.5" y2="1547.5" gradientUnits="userSpaceOnUse">
<stop stop-color="#F6F8FA"/>
<stop offset="0.5" stop-color="#E4E9ED"/>
<stop offset="1" stop-color="#F6F8FA"/>
</linearGradient>
<linearGradient id="paint24_linear_1477_8735" x1="435.5" y1="-371" x2="435.5" y2="1547.5" gradientUnits="userSpaceOnUse">
<stop stop-color="#F6F8FA"/>
<stop offset="0.5" stop-color="#E4E9ED"/>
<stop offset="1" stop-color="#F6F8FA"/>
</linearGradient>
<linearGradient id="paint25_linear_1477_8735" x1="435.5" y1="-371" x2="435.5" y2="1547.5" gradientUnits="userSpaceOnUse">
<stop stop-color="#F6F8FA"/>
<stop offset="0.5" stop-color="#E4E9ED"/>
<stop offset="1" stop-color="#F6F8FA"/>
</linearGradient>
<linearGradient id="paint26_linear_1477_8735" x1="435.5" y1="-371" x2="435.5" y2="1547.5" gradientUnits="userSpaceOnUse">
<stop stop-color="#F6F8FA"/>
<stop offset="0.5" stop-color="#E4E9ED"/>
<stop offset="1" stop-color="#F6F8FA"/>
</linearGradient>
<linearGradient id="paint27_linear_1477_8735" x1="435.5" y1="-371" x2="435.5" y2="1547.5" gradientUnits="userSpaceOnUse">
<stop stop-color="#F6F8FA"/>
<stop offset="0.5" stop-color="#E4E9ED"/>
<stop offset="1" stop-color="#F6F8FA"/>
</linearGradient>
<linearGradient id="paint28_linear_1477_8735" x1="435.5" y1="-371" x2="435.5" y2="1547.5" gradientUnits="userSpaceOnUse">
<stop stop-color="#F6F8FA"/>
<stop offset="0.5" stop-color="#E4E9ED"/>
<stop offset="1" stop-color="#F6F8FA"/>
</linearGradient>
<linearGradient id="paint29_linear_1477_8735" x1="435.5" y1="-371" x2="435.5" y2="1547.5" gradientUnits="userSpaceOnUse">
<stop stop-color="#F6F8FA"/>
<stop offset="0.5" stop-color="#E4E9ED"/>
<stop offset="1" stop-color="#F6F8FA"/>
</linearGradient>
<linearGradient id="paint30_linear_1477_8735" x1="435.5" y1="-371" x2="435.5" y2="1547.5" gradientUnits="userSpaceOnUse">
<stop stop-color="#F6F8FA"/>
<stop offset="0.5" stop-color="#E4E9ED"/>
<stop offset="1" stop-color="#F6F8FA"/>
</linearGradient>
<linearGradient id="paint31_linear_1477_8735" x1="435.5" y1="-371" x2="435.5" y2="1547.5" gradientUnits="userSpaceOnUse">
<stop stop-color="#F6F8FA"/>
<stop offset="0.5" stop-color="#E4E9ED"/>
<stop offset="1" stop-color="#F6F8FA"/>
</linearGradient>
<linearGradient id="paint32_linear_1477_8735" x1="435.5" y1="-371" x2="435.5" y2="1547.5" gradientUnits="userSpaceOnUse">
<stop stop-color="#F6F8FA"/>
<stop offset="0.5" stop-color="#E4E9ED"/>
<stop offset="1" stop-color="#F6F8FA"/>
</linearGradient>
<linearGradient id="paint33_linear_1477_8735" x1="435.5" y1="-371" x2="435.5" y2="1547.5" gradientUnits="userSpaceOnUse">
<stop stop-color="#F6F8FA"/>
<stop offset="0.5" stop-color="#E4E9ED"/>
<stop offset="1" stop-color="#F6F8FA"/>
</linearGradient>
<linearGradient id="paint34_linear_1477_8735" x1="435.5" y1="-371" x2="435.5" y2="1547.5" gradientUnits="userSpaceOnUse">
<stop stop-color="#F6F8FA"/>
<stop offset="0.5" stop-color="#E4E9ED"/>
<stop offset="1" stop-color="#F6F8FA"/>
</linearGradient>
<linearGradient id="paint35_linear_1477_8735" x1="435.5" y1="-371" x2="435.5" y2="1547.5" gradientUnits="userSpaceOnUse">
<stop stop-color="#F6F8FA"/>
<stop offset="0.5" stop-color="#E4E9ED"/>
<stop offset="1" stop-color="#F6F8FA"/>
</linearGradient>
<linearGradient id="paint36_linear_1477_8735" x1="435.5" y1="-371" x2="435.5" y2="1547.5" gradientUnits="userSpaceOnUse">
<stop stop-color="#F6F8FA"/>
<stop offset="0.5" stop-color="#E4E9ED"/>
<stop offset="1" stop-color="#F6F8FA"/>
</linearGradient>
<linearGradient id="paint37_linear_1477_8735" x1="435.5" y1="-371" x2="435.5" y2="1547.5" gradientUnits="userSpaceOnUse">
<stop stop-color="#F6F8FA"/>
<stop offset="0.5" stop-color="#E4E9ED"/>
<stop offset="1" stop-color="#F6F8FA"/>
</linearGradient>
<linearGradient id="paint38_linear_1477_8735" x1="435.5" y1="-371" x2="435.5" y2="1547.5" gradientUnits="userSpaceOnUse">
<stop stop-color="#F6F8FA"/>
<stop offset="0.5" stop-color="#E4E9ED"/>
<stop offset="1" stop-color="#F6F8FA"/>
</linearGradient>
<linearGradient id="paint39_linear_1477_8735" x1="435.5" y1="-371" x2="435.5" y2="1547.5" gradientUnits="userSpaceOnUse">
<stop stop-color="#F6F8FA"/>
<stop offset="0.5" stop-color="#E4E9ED"/>
<stop offset="1" stop-color="#F6F8FA"/>
</linearGradient>
<linearGradient id="paint40_linear_1477_8735" x1="435.5" y1="-371" x2="435.5" y2="1547.5" gradientUnits="userSpaceOnUse">
<stop stop-color="#F6F8FA"/>
<stop offset="0.5" stop-color="#E4E9ED"/>
<stop offset="1" stop-color="#F6F8FA"/>
</linearGradient>
<linearGradient id="paint41_linear_1477_8735" x1="435.5" y1="-371" x2="435.5" y2="1547.5" gradientUnits="userSpaceOnUse">
<stop stop-color="#F6F8FA"/>
<stop offset="0.5" stop-color="#E4E9ED"/>
<stop offset="1" stop-color="#F6F8FA"/>
</linearGradient>
<linearGradient id="paint42_linear_1477_8735" x1="435.5" y1="-371" x2="435.5" y2="1547.5" gradientUnits="userSpaceOnUse">
<stop stop-color="#F6F8FA"/>
<stop offset="0.5" stop-color="#E4E9ED"/>
<stop offset="1" stop-color="#F6F8FA"/>
</linearGradient>
<linearGradient id="paint43_linear_1477_8735" x1="435.5" y1="-371" x2="435.5" y2="1547.5" gradientUnits="userSpaceOnUse">
<stop stop-color="#F6F8FA"/>
<stop offset="0.5" stop-color="#E4E9ED"/>
<stop offset="1" stop-color="#F6F8FA"/>
</linearGradient>
</defs>
</svg>
