<svg width="632" height="1201" viewBox="0 0 632 1201" fill="none" xmlns="http://www.w3.org/2000/svg">
<path d="M443.324 490.447L470.458 497.631C471.925 495.92 474.202 494.92 476.697 495.239C479.731 495.631 482.244 498.087 482.696 501.121C483.126 504.034 481.766 506.663 479.559 508.089L484.309 534.708L478.41 535.764L473.612 508.865C471.177 508.076 469.331 505.986 468.879 503.414L441.792 496.243L443.324 490.443V490.447Z" fill="url(#paint0_linear_1477_8736)"/>
<path d="M475.77 444.549C507.565 444.549 533.335 470.361 533.335 502.198C533.335 534.035 507.56 559.848 475.771 559.848C443.976 559.848 418.206 534.035 418.206 502.198C418.206 470.361 443.981 444.549 475.77 444.549ZM475.771 544.098C498.838 544.098 517.608 525.3 517.608 502.198C517.608 479.096 498.838 460.299 475.77 460.299C452.703 460.299 433.933 479.096 433.933 502.198C433.933 525.3 452.703 544.098 475.771 544.098Z" fill="url(#paint1_linear_1477_8736)"/>
<path d="M475.773 390.683C481.491 390.683 486.143 395.341 486.143 401.068H465.398C465.398 395.341 470.05 390.683 475.768 390.683H475.773Z" fill="url(#paint2_linear_1477_8736)"/>
<path d="M402.307 502.198C402.307 486.211 407.402 471.417 416.051 459.351C416.868 458.214 415.883 454.542 415.754 454.033C415.328 452.4 414.119 450.444 413.482 450.362C411.214 450.078 409.252 449.276 407.647 447.97C403.938 444.958 402.269 440.645 403.065 436.128C403.564 433.301 405.991 431.224 408.856 431.173C408.955 431.173 420.138 431.194 424.317 423.692C429.398 414.565 438.348 413.897 438.538 413.884C438.856 413.836 448.615 412.862 449.592 400.611C449.803 397.957 451.7 395.815 454.192 395.225C456.761 385.705 465.461 378.681 475.771 378.681C486.081 378.681 494.781 385.705 497.354 395.229C499.841 395.815 501.739 397.961 501.95 400.615C502.926 412.867 512.685 413.841 513.004 413.888C513.193 413.901 522.143 414.569 527.225 423.696C531.403 431.198 542.582 431.173 542.685 431.177C545.551 431.229 547.978 433.306 548.477 436.133C549.273 440.649 547.604 444.967 543.894 447.975C542.289 449.276 540.327 450.082 538.06 450.366C537.423 450.444 536.214 452.405 535.788 454.038C535.659 454.546 534.673 458.218 535.491 459.355C544.14 471.417 549.234 486.211 549.234 502.198C549.234 518.186 544.024 533.32 535.194 545.464C534.316 546.675 534.282 548.299 535.104 549.549C536.683 551.954 538.985 555.737 539.299 556.793C539.837 558.616 539.454 561.486 537.681 563.903C536.42 565.623 533.886 567.721 528.959 567.963C528.378 567.993 527.552 568.139 526.868 568.583C522.449 571.444 520.375 577.456 519.854 578.994C518.395 583.317 514.57 586.234 509.785 585.993C507.987 587.027 505.835 588.134 502.242 588.018C504.166 590.112 504.394 593.336 502.599 595.723C501.446 597.257 499.579 598.08 497.66 598.08H453.899C451.98 598.08 450.113 597.253 448.959 595.723C447.161 593.336 447.393 590.112 449.317 588.018C445.728 588.134 443.572 587.027 441.774 585.993C436.989 586.234 433.163 583.321 431.705 578.994C431.184 577.452 429.106 571.445 424.691 568.583C424.007 568.139 423.181 567.993 422.6 567.963C417.673 567.721 415.139 565.623 413.878 563.903C412.105 561.486 411.722 558.616 412.26 556.793C412.57 555.741 414.872 551.954 416.455 549.549C417.277 548.299 417.243 546.675 416.365 545.464C407.535 533.32 402.324 518.367 402.324 502.198H402.307ZM537.569 444.381C538.589 444.294 539.544 443.812 540.319 443.144C541.446 442.17 542.677 440.593 542.681 438.343C542.681 437.706 542.199 437.167 541.567 437.119C537.982 436.844 525.87 435.254 521.769 426.17C521.769 426.17 519.57 421.179 512.389 419.861C512.389 419.861 497.294 418.391 495.977 401.077H492.135C492.135 392.027 484.807 384.688 475.771 384.688C466.735 384.688 459.407 392.027 459.407 401.077H455.564C454.243 418.396 439.153 419.861 439.153 419.861C431.971 421.179 429.773 426.17 429.773 426.17C425.672 435.254 413.559 436.848 409.975 437.119C409.347 437.167 408.861 437.701 408.861 438.335C408.861 440.593 410.091 442.17 411.223 443.144C411.997 443.816 412.953 444.294 413.972 444.381C419.506 444.855 421.429 452.047 421.558 452.551C434.992 437.848 454.304 428.626 475.771 428.626C497.238 428.626 516.549 437.848 529.983 452.551C530.112 452.047 532.036 444.855 537.569 444.381ZM422.948 561.973C424.859 562.055 426.752 562.61 428.262 563.783C434.945 568.971 436.688 575.043 437.372 577.072C437.776 578.275 438.792 580.003 441.257 580.003C441.468 580.003 441.692 579.99 441.924 579.964C442.858 579.856 443.796 580.128 444.57 580.658C445.517 581.308 446.963 582.032 448.688 582.032C450.306 582.032 452.174 581.395 454.106 579.46L456.713 583.911C457.608 585.928 457.217 588.285 455.719 589.906L453.714 592.077H497.819L495.814 589.905C494.316 588.285 493.929 585.928 494.82 583.911L497.427 579.46C499.359 581.395 501.227 582.032 502.845 582.032C504.57 582.032 506.012 581.308 506.963 580.658C507.741 580.123 508.675 579.852 509.609 579.964C509.841 579.99 510.065 580.003 510.276 580.003C512.746 580.003 513.757 578.275 514.161 577.072C514.846 575.043 516.588 568.971 523.271 563.783C524.781 562.61 526.674 562.055 528.585 561.973C534.166 561.727 533.275 558.327 533.275 558.327L529.764 552.074C516.339 566.644 497.118 575.775 475.762 575.775C454.407 575.775 435.181 566.648 421.761 552.074L418.25 558.327C418.25 558.327 417.359 561.731 422.94 561.973H422.948ZM475.771 569.773C512.974 569.773 543.245 539.461 543.245 502.198C543.245 464.936 512.978 434.624 475.771 434.624C438.564 434.624 408.297 464.936 408.297 502.198C408.297 539.461 438.564 569.773 475.771 569.773Z" fill="url(#paint3_linear_1477_8736)"/>
<path d="M361.698 684.985L388.832 692.169C390.299 690.458 392.575 689.458 395.071 689.777C398.105 690.169 400.618 692.626 401.069 695.659C401.5 698.572 400.14 701.201 397.933 702.628L402.683 729.246L396.784 730.302L391.986 703.403C389.55 702.615 387.705 700.525 387.253 697.952L360.166 690.781L361.698 684.981V684.985Z" fill="url(#paint4_linear_1477_8736)"/>
<path d="M394.144 639.087C425.939 639.087 451.709 664.899 451.709 696.737C451.709 728.574 425.934 754.386 394.144 754.386C362.35 754.386 336.58 728.574 336.58 696.737C336.58 664.899 362.354 639.087 394.144 639.087ZM394.144 738.636C417.212 738.636 435.982 719.839 435.982 696.737C435.981 673.634 417.212 654.837 394.144 654.837C371.076 654.837 352.307 673.634 352.307 696.737C352.307 719.839 371.076 738.636 394.144 738.636Z" fill="url(#paint5_linear_1477_8736)"/>
<path d="M394.147 585.221C399.865 585.221 404.517 589.879 404.517 595.606H383.772C383.772 589.879 388.424 585.221 394.142 585.221H394.147Z" fill="url(#paint6_linear_1477_8736)"/>
<path d="M320.681 696.737C320.681 680.749 325.776 665.955 334.425 653.889C335.242 652.752 334.257 649.08 334.128 648.572C333.702 646.938 332.493 644.982 331.856 644.9C329.588 644.616 327.626 643.814 326.021 642.508C322.312 639.496 320.642 635.183 321.438 630.667C321.938 627.84 324.364 625.763 327.23 625.711C327.329 625.711 338.512 625.732 342.69 618.23C347.772 609.103 356.722 608.435 356.912 608.422C357.23 608.375 366.989 607.401 367.966 595.149C368.177 592.495 370.074 590.353 372.566 589.763C375.134 580.243 383.835 573.219 394.145 573.219C404.454 573.219 413.155 580.243 415.728 589.767C418.215 590.353 420.113 592.499 420.324 595.154C421.3 607.405 431.059 608.379 431.378 608.426C431.567 608.439 440.517 609.107 445.599 618.234C449.777 625.737 460.956 625.711 461.059 625.715C463.925 625.767 466.352 627.844 466.851 630.671C467.647 635.187 465.977 639.505 462.268 642.513C460.663 643.814 458.701 644.62 456.434 644.904C455.797 644.982 454.588 646.943 454.162 648.576C454.033 649.084 453.047 652.756 453.865 653.894C462.514 665.955 467.608 680.749 467.608 696.737C467.608 712.724 462.397 727.858 453.568 740.002C452.69 741.213 452.656 742.837 453.477 744.087C455.057 746.492 457.359 750.275 457.673 751.331C458.211 753.154 457.828 756.024 456.055 758.441C454.794 760.161 452.26 762.259 447.333 762.501C446.752 762.531 445.926 762.677 445.242 763.121C440.823 765.983 438.749 771.994 438.228 773.532C436.769 777.855 432.944 780.772 428.159 780.531C426.361 781.565 424.209 782.673 420.616 782.556C422.54 784.651 422.768 787.874 420.973 790.261C419.82 791.795 417.953 792.618 416.034 792.618H372.273C370.354 792.618 368.486 791.791 367.333 790.261C365.535 787.874 365.767 784.651 367.69 782.556C364.102 782.673 361.946 781.565 360.147 780.531C355.363 780.772 351.537 777.859 350.079 773.532C349.558 771.99 347.48 765.983 343.065 763.121C342.381 762.677 341.554 762.531 340.974 762.501C336.047 762.259 333.512 760.161 332.252 758.441C330.479 756.024 330.096 753.154 330.634 751.331C330.944 750.28 333.246 746.492 334.829 744.087C335.651 742.837 335.616 741.213 334.739 740.002C325.909 727.858 320.698 712.905 320.698 696.737H320.681ZM455.943 638.919C456.963 638.833 457.918 638.35 458.693 637.682C459.82 636.708 461.051 635.131 461.055 632.881C461.055 632.244 460.573 631.705 459.94 631.658C456.356 631.382 444.243 629.792 440.143 620.708C440.143 620.708 437.944 615.718 430.762 614.399C430.762 614.399 415.668 612.929 414.351 595.615H410.509C410.509 586.565 403.181 579.226 394.145 579.226C385.109 579.226 377.781 586.565 377.781 595.615H373.938C372.617 612.934 357.527 614.399 357.527 614.399C350.345 615.718 348.147 620.708 348.147 620.708C344.046 629.792 331.933 631.386 328.349 631.658C327.721 631.705 327.234 632.239 327.234 632.873C327.234 635.131 328.465 636.708 329.597 637.682C330.371 638.354 331.326 638.833 332.346 638.919C337.88 639.393 339.803 646.585 339.932 647.089C353.366 632.386 372.677 623.164 394.145 623.164C415.612 623.164 434.923 632.386 448.357 647.089C448.486 646.585 450.409 639.393 455.943 638.919ZM341.322 756.511C343.233 756.593 345.126 757.149 346.636 758.321C353.319 763.509 355.061 769.581 355.745 771.611C356.15 772.813 357.165 774.541 359.631 774.541C359.842 774.541 360.066 774.528 360.298 774.502C361.232 774.394 362.17 774.666 362.944 775.196C363.891 775.847 365.337 776.571 367.062 776.571C368.68 776.571 370.547 775.933 372.479 773.998L375.087 778.449C375.982 780.466 375.591 782.823 374.093 784.444L372.088 786.616H416.193L414.188 784.444C412.69 782.823 412.303 780.466 413.194 778.449L415.801 773.998C417.733 775.933 419.601 776.571 421.219 776.571C422.944 776.571 424.385 775.847 425.336 775.196C426.115 774.662 427.049 774.39 427.983 774.502C428.215 774.528 428.439 774.541 428.65 774.541C431.12 774.541 432.131 772.813 432.535 771.611C433.219 769.581 434.962 763.509 441.644 758.321C443.155 757.149 445.048 756.593 446.959 756.511C452.539 756.265 451.649 752.865 451.649 752.865L448.138 746.612C434.712 761.182 415.491 770.313 394.136 770.313C372.781 770.313 353.555 761.186 340.135 746.612L336.623 752.865C336.623 752.865 335.733 756.269 341.314 756.511H341.322ZM394.145 764.311C431.348 764.311 461.619 733.999 461.619 696.737C461.619 659.474 431.352 629.163 394.145 629.163C356.937 629.163 326.671 659.474 326.671 696.737C326.671 733.999 356.937 764.311 394.145 764.311Z" fill="url(#paint7_linear_1477_8736)"/>
<path d="M121.272 873.583L148.406 880.767C149.873 879.056 152.149 878.056 154.645 878.375C157.679 878.767 160.191 881.224 160.643 884.257C161.074 887.171 159.714 889.799 157.506 891.226L162.257 917.844L156.358 918.9L151.56 892.001C149.124 891.213 147.278 889.123 146.827 886.55L119.74 879.379L121.272 873.579V873.583Z" fill="url(#paint8_linear_1477_8736)"/>
<path d="M153.718 827.685C185.512 827.685 211.282 853.498 211.282 885.335C211.282 917.172 185.508 942.984 153.718 942.984C121.924 942.984 96.1538 917.172 96.1538 885.335C96.1538 853.498 121.928 827.685 153.718 827.685ZM153.718 927.234C176.786 927.234 195.555 908.437 195.555 885.335C195.555 862.232 176.786 843.435 153.718 843.435C130.65 843.435 111.881 862.232 111.881 885.335C111.881 908.437 130.65 927.234 153.718 927.234Z" fill="url(#paint9_linear_1477_8736)"/>
<path d="M153.72 773.819C159.439 773.819 164.09 778.477 164.09 784.204H143.346C143.346 778.477 147.998 773.819 153.716 773.819H153.72Z" fill="url(#paint10_linear_1477_8736)"/>
<path d="M80.2549 885.335C80.2549 869.347 85.3496 854.553 93.9984 842.487C94.816 841.35 93.8306 837.678 93.7015 837.17C93.2755 835.536 92.0664 833.58 91.4296 833.498C89.162 833.214 87.1998 832.412 85.5948 831.107C81.8857 828.094 80.2161 823.781 81.0122 819.265C81.5113 816.438 83.9382 814.361 86.8039 814.309C86.9029 814.309 98.0861 814.331 102.264 806.828C107.346 797.701 116.296 797.033 116.485 797.02C116.804 796.973 126.563 795.999 127.54 783.747C127.75 781.093 129.648 778.951 132.139 778.361C134.708 768.841 143.409 761.817 153.718 761.817C164.028 761.817 172.729 768.842 175.302 778.365C177.789 778.951 179.686 781.097 179.897 783.752C180.874 796.003 190.633 796.977 190.952 797.024C191.141 797.037 200.091 797.705 205.173 806.832C209.351 814.335 220.53 814.309 220.633 814.313C223.499 814.365 225.926 816.442 226.425 819.269C227.221 823.785 225.551 828.103 221.842 831.111C220.237 832.412 218.275 833.218 216.007 833.503C215.371 833.58 214.161 835.541 213.735 837.174C213.606 837.682 212.621 841.354 213.439 842.492C222.087 854.553 227.182 869.347 227.182 885.335C227.182 901.322 221.971 916.456 213.142 928.6C212.264 929.811 212.229 931.435 213.051 932.685C214.63 935.09 216.932 938.873 217.247 939.929C217.784 941.752 217.402 944.622 215.629 947.039C214.368 948.759 211.834 950.857 206.907 951.099C206.326 951.129 205.5 951.276 204.816 951.719C200.396 954.581 198.322 960.592 197.802 962.131C196.343 966.453 192.518 969.37 187.733 969.129C185.934 970.163 183.783 971.271 180.19 971.154C182.113 973.249 182.341 976.472 180.547 978.859C179.394 980.393 177.526 981.216 175.607 981.216H131.847C129.928 981.216 128.06 980.389 126.907 978.859C125.108 976.472 125.341 973.249 127.264 971.154C123.676 971.271 121.52 970.163 119.721 969.129C114.936 969.37 111.111 966.457 109.652 962.131C109.132 960.588 107.053 954.581 102.639 951.719C101.954 951.276 101.128 951.129 100.547 951.099C95.6206 950.857 93.0862 948.759 91.8254 947.039C90.0526 944.622 89.6697 941.752 90.2076 939.929C90.5174 938.878 92.8194 935.09 94.4029 932.685C95.2247 931.436 95.1903 929.811 94.3125 928.6C85.483 916.456 80.2721 901.503 80.2721 885.335H80.2549ZM215.517 827.517C216.537 827.431 217.492 826.948 218.266 826.28C219.394 825.306 220.624 823.729 220.629 821.48C220.629 820.842 220.147 820.303 219.514 820.256C215.93 819.98 203.817 818.39 199.717 809.306C199.717 809.306 197.518 804.316 190.336 802.997C190.336 802.997 175.242 801.527 173.925 784.213H170.082C170.082 775.163 162.755 767.825 153.718 767.825C144.682 767.825 137.354 775.163 137.354 784.213H133.512C132.191 801.532 117.101 802.997 117.101 802.997C109.919 804.316 107.72 809.306 107.72 809.306C103.62 818.39 91.507 819.984 87.9226 820.256C87.2944 820.303 86.8082 820.837 86.8082 821.471C86.8082 823.729 88.0388 825.306 89.1705 826.28C89.945 826.952 90.9003 827.431 91.9201 827.517C97.4536 827.991 99.377 835.183 99.5061 835.687C112.94 820.984 132.251 811.762 153.718 811.762C175.186 811.762 194.497 820.984 207.931 835.687C208.06 835.183 209.983 827.991 215.517 827.517ZM100.896 945.109C102.806 945.191 104.7 945.747 106.21 946.919C112.892 952.107 114.635 958.179 115.319 960.209C115.724 961.411 116.739 963.139 119.205 963.139C119.416 963.139 119.639 963.126 119.872 963.1C120.806 962.992 121.744 963.264 122.518 963.794C123.465 964.445 124.91 965.169 126.636 965.169C128.254 965.169 130.121 964.531 132.053 962.596L134.661 967.048C135.556 969.064 135.164 971.421 133.667 973.042L131.662 975.214H175.767L173.761 973.042C172.264 971.421 171.877 969.064 172.767 967.047L175.375 962.596C177.307 964.531 179.174 965.169 180.792 965.169C182.518 965.169 183.959 964.445 184.91 963.794C185.689 963.26 186.623 962.988 187.557 963.1C187.789 963.126 188.013 963.139 188.223 963.139C190.693 963.139 191.705 961.411 192.109 960.209C192.793 958.179 194.536 952.107 201.218 946.919C202.729 945.747 204.622 945.191 206.532 945.109C212.113 944.863 211.223 941.463 211.223 941.463L207.711 935.21C194.286 949.78 175.065 958.911 153.71 958.911C132.355 958.911 113.129 949.784 99.7083 935.21L96.1972 941.463C96.1972 941.463 95.3065 944.868 100.887 945.109H100.896ZM153.718 952.909C190.921 952.909 221.192 922.597 221.192 885.335C221.192 848.072 190.926 817.761 153.718 817.761C116.511 817.761 86.2445 848.072 86.2445 885.335C86.2445 922.597 116.511 952.909 153.718 952.909Z" fill="url(#paint11_linear_1477_8736)"/>
<path d="M367.634 292.939L394.768 300.122C396.236 298.412 398.512 297.412 401.008 297.731C404.041 298.123 406.554 300.579 407.006 303.613C407.436 306.526 406.076 309.155 403.869 310.581L408.619 337.2L402.72 338.255L397.922 311.357C395.487 310.568 393.641 308.478 393.189 305.906L366.102 298.735L367.634 292.935V292.939Z" fill="url(#paint12_linear_1477_8736)"/>
<path d="M400.081 247.04C431.875 247.04 457.645 272.853 457.645 304.69C457.645 336.527 431.871 362.34 400.081 362.34C368.287 362.34 342.516 336.527 342.516 304.69C342.516 272.853 368.291 247.04 400.081 247.04ZM400.081 346.589C423.149 346.589 441.918 327.792 441.918 304.69C441.918 281.588 423.149 262.791 400.081 262.791C377.013 262.791 358.244 281.588 358.244 304.69C358.244 327.792 377.013 346.589 400.081 346.589Z" fill="url(#paint13_linear_1477_8736)"/>
<path d="M400.083 193.174C405.802 193.174 410.453 197.833 410.453 203.56H389.709C389.709 197.833 394.36 193.174 400.079 193.174H400.083Z" fill="url(#paint14_linear_1477_8736)"/>
<path d="M326.617 304.69C326.617 288.703 331.712 273.909 340.361 261.843C341.179 260.705 340.193 257.034 340.064 256.525C339.638 254.892 338.429 252.936 337.792 252.854C335.525 252.569 333.562 251.768 331.957 250.462C328.248 247.45 326.579 243.136 327.375 238.62C327.874 235.793 330.301 233.716 333.167 233.664C333.266 233.664 344.449 233.686 348.627 226.184C353.709 217.056 362.659 216.389 362.848 216.376C363.166 216.328 372.925 215.354 373.902 203.103C374.113 200.448 376.011 198.307 378.502 197.716C381.071 188.197 389.771 181.173 400.081 181.173C410.391 181.173 419.091 188.197 421.664 197.721C424.152 198.307 426.049 200.453 426.26 203.107C427.237 215.359 436.996 216.332 437.314 216.38C437.503 216.393 446.454 217.061 451.535 226.188C455.713 233.69 466.892 233.664 466.996 233.669C469.861 233.72 472.288 235.798 472.787 238.624C473.583 243.141 471.914 247.458 468.205 250.466C466.6 251.768 464.638 252.574 462.37 252.858C461.733 252.936 460.524 254.896 460.098 256.53C459.969 257.038 458.984 260.71 459.801 261.847C468.45 273.909 473.545 288.703 473.545 304.69C473.545 320.678 468.334 335.812 459.504 347.956C458.626 349.166 458.592 350.791 459.414 352.041C460.993 354.445 463.295 358.229 463.609 359.285C464.147 361.108 463.764 363.977 461.991 366.395C460.731 368.114 458.196 370.213 453.269 370.454C452.688 370.484 451.862 370.631 451.178 371.075C446.759 373.936 444.685 379.948 444.164 381.486C442.706 385.808 438.88 388.726 434.096 388.484C432.297 389.519 430.146 390.626 426.553 390.51C428.476 392.604 428.704 395.827 426.91 398.215C425.757 399.749 423.889 400.572 421.97 400.572H378.209C376.29 400.572 374.423 399.745 373.27 398.215C371.471 395.828 371.703 392.604 373.627 390.51C370.038 390.626 367.882 389.519 366.084 388.484C361.299 388.726 357.474 385.813 356.015 381.486C355.494 379.943 353.416 373.936 349.001 371.075C348.317 370.631 347.491 370.485 346.91 370.454C341.983 370.213 339.449 368.114 338.188 366.395C336.415 363.978 336.032 361.108 336.57 359.285C336.88 358.233 339.182 354.445 340.766 352.041C341.587 350.791 341.553 349.166 340.675 347.956C331.846 335.812 326.635 320.859 326.635 304.69H326.617ZM461.879 246.872C462.899 246.786 463.854 246.304 464.629 245.636C465.756 244.662 466.987 243.085 466.991 240.835C466.991 240.197 466.509 239.659 465.877 239.611C462.293 239.335 450.18 237.745 446.079 228.661C446.079 228.661 443.88 223.671 436.699 222.353C436.699 222.353 421.604 220.883 420.288 203.568H416.445C416.445 194.519 409.117 187.18 400.081 187.18C391.045 187.18 383.717 194.519 383.717 203.568H379.875C378.554 220.887 363.463 222.353 363.463 222.353C356.282 223.671 354.083 228.661 354.083 228.661C349.982 237.745 337.87 239.34 334.285 239.611C333.657 239.659 333.171 240.193 333.171 240.827C333.171 243.085 334.401 244.662 335.533 245.636C336.308 246.308 337.263 246.786 338.283 246.872C343.816 247.346 345.74 254.539 345.869 255.043C359.302 240.34 378.614 231.118 400.081 231.118C421.548 231.118 440.86 240.34 454.293 255.043C454.423 254.539 456.346 247.346 461.879 246.872ZM347.259 364.464C349.169 364.546 351.062 365.102 352.573 366.274C359.255 371.463 360.998 377.535 361.682 379.564C362.086 380.767 363.102 382.495 365.567 382.495C365.778 382.495 366.002 382.482 366.234 382.456C367.168 382.348 368.106 382.62 368.881 383.15C369.827 383.8 371.273 384.524 372.999 384.524C374.616 384.524 376.484 383.886 378.416 381.952L381.024 386.403C381.919 388.42 381.527 390.777 380.03 392.397L378.024 394.569H422.129L420.124 392.397C418.627 390.777 418.239 388.42 419.13 386.403L421.738 381.952C423.67 383.886 425.537 384.524 427.155 384.524C428.88 384.524 430.322 383.8 431.273 383.15C432.052 382.615 432.985 382.344 433.919 382.456C434.152 382.482 434.375 382.495 434.586 382.495C437.056 382.495 438.067 380.767 438.472 379.564C439.156 377.535 440.898 371.463 447.581 366.274C449.091 365.102 450.985 364.546 452.895 364.464C458.476 364.219 457.585 360.819 457.585 360.819L454.074 354.566C440.649 369.136 421.428 378.267 400.073 378.267C378.717 378.267 359.492 369.14 346.071 354.566L342.56 360.819C342.56 360.819 341.669 364.223 347.25 364.464H347.259ZM400.081 372.264C437.284 372.264 467.555 341.953 467.555 304.69C467.555 267.428 437.288 237.116 400.081 237.116C362.874 237.116 332.607 267.428 332.607 304.69C332.607 341.953 362.874 372.264 400.081 372.264Z" fill="url(#paint15_linear_1477_8736)"/>
<path d="M346.449 107.633L319.315 100.45C317.848 102.16 315.572 103.16 313.076 102.841C310.043 102.449 307.53 99.9928 307.078 96.959C306.648 94.0459 308.007 91.4173 310.215 89.9909L305.464 63.3724L311.364 62.3166L316.161 89.2152C318.597 90.0038 320.443 92.0938 320.894 94.6665L347.981 101.837L346.449 107.637V107.633Z" fill="url(#paint16_linear_1477_8736)"/>
<path d="M314.003 153.532C282.209 153.532 256.439 127.719 256.439 95.8819C256.439 64.0448 282.213 38.2321 314.003 38.2321C345.797 38.2321 371.567 64.0448 371.567 95.8819C371.567 127.719 345.793 153.532 314.003 153.532ZM314.003 53.9826C290.935 53.9826 272.166 72.7797 272.166 95.8819C272.166 118.984 290.935 137.781 314.003 137.781C337.071 137.781 355.84 118.984 355.84 95.8819C355.84 72.7797 337.071 53.9826 314.003 53.9826Z" fill="url(#paint17_linear_1477_8736)"/>
<path d="M314.001 207.398C308.282 207.398 303.631 202.739 303.631 197.012H324.375C324.375 202.739 319.723 207.398 314.005 207.398H314.001Z" fill="url(#paint18_linear_1477_8736)"/>
<path d="M387.466 95.8818C387.466 111.869 382.372 126.663 373.723 138.729C372.905 139.867 373.89 143.538 374.02 144.047C374.446 145.68 375.655 147.636 376.292 147.718C378.559 148.003 380.521 148.804 382.126 150.11C385.835 153.122 387.505 157.436 386.709 161.952C386.21 164.779 383.783 166.856 380.917 166.908C380.818 166.908 369.635 166.886 365.457 174.389C360.375 183.516 351.425 184.184 351.236 184.196C350.917 184.244 341.158 185.218 340.181 197.469C339.971 200.124 338.073 202.265 335.582 202.856C333.013 212.375 324.312 219.399 314.003 219.399C303.693 219.399 294.992 212.375 292.419 202.851C289.932 202.265 288.035 200.119 287.824 197.465C286.847 185.213 277.088 184.24 276.77 184.192C276.58 184.179 267.63 183.511 262.548 174.384C258.37 166.882 247.191 166.908 247.088 166.903C244.222 166.852 241.796 164.774 241.296 161.948C240.5 157.431 242.17 153.114 245.879 150.106C247.484 148.804 249.446 147.998 251.714 147.714C252.351 147.636 253.56 145.676 253.986 144.042C254.115 143.534 255.1 139.862 254.283 138.725C245.634 126.663 240.539 111.869 240.539 95.8818C240.539 79.8943 245.75 64.7601 254.579 52.6165C255.457 51.4056 255.492 49.781 254.67 48.5313C253.091 46.1267 250.789 42.3431 250.474 41.2873C249.937 39.4645 250.32 36.5945 252.092 34.177C253.353 32.4576 255.888 30.359 260.814 30.1177C261.395 30.0875 262.221 29.941 262.906 29.4971C267.325 26.6357 269.399 20.6243 269.919 19.0859C271.378 14.7636 275.203 11.8463 279.988 12.0876C281.787 11.0533 283.938 9.94585 287.531 10.0622C285.608 7.96789 285.38 4.74453 287.174 2.35718C288.327 0.823075 290.195 -1.67876e-07 292.114 0L335.874 3.82802e-06C337.793 3.9959e-06 339.661 0.827389 340.814 2.35719C342.613 4.74454 342.38 7.96789 340.457 10.0622C344.046 9.94586 346.201 11.0534 348 12.0876C352.785 11.8463 356.61 14.7593 358.069 19.0859C358.589 20.6286 360.668 26.6358 365.082 29.4971C365.767 29.941 366.593 30.0875 367.174 30.1177C372.1 30.359 374.635 32.4576 375.896 34.177C377.668 36.5945 378.051 39.4645 377.514 41.2873C377.204 42.3388 374.902 46.1267 373.318 48.5313C372.496 49.781 372.531 51.4056 373.409 52.6165C382.238 64.7601 387.449 79.7133 387.449 95.8818H387.466ZM252.204 153.7C251.184 153.786 250.229 154.268 249.455 154.936C248.327 155.91 247.097 157.487 247.092 159.737C247.092 160.375 247.574 160.913 248.207 160.961C251.791 161.237 263.904 162.827 268.004 171.911C268.004 171.911 270.203 176.901 277.385 178.219C277.385 178.219 292.479 179.689 293.796 197.004H297.639C297.639 206.053 304.966 213.392 314.003 213.392C323.039 213.392 330.367 206.053 330.367 197.004H334.209C335.53 179.685 350.62 178.219 350.62 178.219C357.802 176.901 360.001 171.911 360.001 171.911C364.101 162.827 376.214 161.232 379.798 160.961C380.427 160.913 380.913 160.379 380.913 159.746C380.913 157.487 379.682 155.91 378.551 154.936C377.776 154.264 376.821 153.786 375.801 153.7C370.267 153.226 368.344 146.033 368.215 145.529C354.781 160.232 335.47 169.454 314.003 169.454C292.535 169.454 273.224 160.232 259.79 145.529C259.661 146.033 257.738 153.226 252.204 153.7ZM366.825 36.1076C364.915 36.0257 363.021 35.4698 361.511 34.2977C354.829 29.1093 353.086 23.0375 352.402 21.0078C351.997 19.8055 350.982 18.0775 348.516 18.0775C348.305 18.0775 348.082 18.0904 347.849 18.1163C346.916 18.224 345.978 17.9525 345.203 17.4225C344.256 16.7718 342.811 16.0478 341.085 16.0478C339.467 16.0478 337.6 16.6856 335.668 18.6205L333.06 14.169C332.165 12.1522 332.557 9.79503 334.054 8.17473L336.059 6.00285L291.954 6.00284L293.96 8.17473C295.457 9.79502 295.844 12.1522 294.954 14.169L292.346 18.6205C290.414 16.6856 288.547 16.0478 286.929 16.0478C285.203 16.0478 283.762 16.7718 282.811 17.4225C282.032 17.9568 281.098 18.2283 280.165 18.1163C279.932 18.0904 279.708 18.0775 279.498 18.0775C277.028 18.0775 276.017 19.8055 275.612 21.0078C274.928 23.0375 273.185 29.1093 266.503 34.2977C264.992 35.4698 263.099 36.0257 261.189 36.1076C255.608 36.3532 256.499 39.7532 256.499 39.7532L260.01 46.006C273.435 31.4363 292.656 22.3049 314.011 22.3049C335.367 22.3049 354.592 31.432 368.013 46.006L371.524 39.7532C371.524 39.7532 372.415 36.3489 366.834 36.1076H366.825ZM314.003 28.3078C276.8 28.3077 246.529 58.6193 246.529 95.8818C246.529 133.144 276.795 163.456 314.003 163.456C351.21 163.456 381.477 133.144 381.477 95.8818C381.477 58.6193 351.21 28.3078 314.003 28.3078Z" fill="url(#paint19_linear_1477_8736)"/>
<path d="M119.788 469.657L146.922 476.84C148.389 475.13 150.665 474.13 153.161 474.449C156.194 474.841 158.707 477.297 159.159 480.331C159.589 483.244 158.23 485.873 156.022 487.299L160.773 513.917L154.873 514.973L150.076 488.075C147.64 487.286 145.794 485.196 145.342 482.623L118.256 475.453L119.788 469.652V469.657Z" fill="url(#paint20_linear_1477_8736)"/>
<path d="M152.234 423.758C184.028 423.758 209.798 449.571 209.798 481.408C209.798 513.245 184.024 539.058 152.234 539.058C120.44 539.058 94.6697 513.245 94.6697 481.408C94.6697 449.571 120.444 423.758 152.234 423.758ZM152.234 523.307C175.302 523.307 194.071 504.51 194.071 481.408C194.071 458.306 175.302 439.509 152.234 439.509C129.166 439.509 110.397 458.306 110.397 481.408C110.397 504.51 129.166 523.307 152.234 523.307Z" fill="url(#paint21_linear_1477_8736)"/>
<path d="M152.236 369.892C157.955 369.892 162.606 374.551 162.606 380.278H141.862C141.862 374.551 146.513 369.892 152.232 369.892H152.236Z" fill="url(#paint22_linear_1477_8736)"/>
<path d="M78.7708 481.408C78.7708 465.421 83.8655 450.627 92.5143 438.561C93.3319 437.423 92.3465 433.752 92.2174 433.243C91.7914 431.61 90.5823 429.654 89.9455 429.572C87.6778 429.287 85.7157 428.486 84.1107 427.18C80.4016 424.168 78.7321 419.854 79.5281 415.338C80.0273 412.511 82.4541 410.434 85.3198 410.382C85.4188 410.382 96.602 410.404 100.78 402.901C105.862 393.774 114.812 393.106 115.001 393.093C115.32 393.046 125.079 392.072 126.055 379.821C126.266 377.166 128.164 375.025 130.655 374.434C133.224 364.915 141.925 357.891 152.234 357.891C162.544 357.891 171.245 364.915 173.818 374.439C176.305 375.025 178.202 377.171 178.413 379.825C179.39 392.076 189.149 393.05 189.467 393.098C189.657 393.111 198.607 393.779 203.689 402.906C207.867 410.408 219.046 410.382 219.149 410.387C222.015 410.438 224.441 412.515 224.941 415.342C225.737 419.858 224.067 424.176 220.358 427.184C218.753 428.486 216.791 429.291 214.523 429.576C213.886 429.653 212.677 431.614 212.251 433.247C212.122 433.756 211.137 437.427 211.954 438.565C220.603 450.627 225.698 465.421 225.698 481.408C225.698 497.396 220.487 512.53 211.658 524.673C210.78 525.884 210.745 527.509 211.567 528.759C213.146 531.163 215.448 534.947 215.763 536.003C216.3 537.825 215.917 540.695 214.145 543.113C212.884 544.832 210.349 546.931 205.423 547.172C204.842 547.202 204.016 547.349 203.331 547.793C198.912 550.654 196.838 556.666 196.318 558.204C194.859 562.526 191.034 565.444 186.249 565.202C184.45 566.237 182.299 567.344 178.706 567.228C180.629 569.322 180.857 572.545 179.063 574.933C177.91 576.467 176.042 577.29 174.123 577.29H130.363C128.444 577.29 126.576 576.463 125.423 574.933C123.624 572.545 123.857 569.322 125.78 567.228C122.191 567.344 120.036 566.237 118.237 565.202C113.452 565.444 109.627 562.531 108.168 558.204C107.648 556.661 105.569 550.654 101.155 547.793C100.47 547.349 99.6442 547.202 99.0633 547.172C94.1365 546.931 91.602 544.832 90.3413 543.113C88.5685 540.695 88.1855 537.825 88.7234 536.003C89.0332 534.951 91.3353 531.163 92.9187 528.759C93.7406 527.509 93.7062 525.884 92.8284 524.673C83.9988 512.53 78.788 497.577 78.788 481.408H78.7708ZM214.033 423.59C215.053 423.504 216.008 423.021 216.782 422.354C217.91 421.38 219.14 419.802 219.145 417.553C219.145 416.915 218.663 416.377 218.03 416.329C214.446 416.053 202.333 414.463 198.232 405.379C198.232 405.379 196.034 400.389 188.852 399.07C188.852 399.07 173.758 397.601 172.441 380.286H168.598C168.598 371.237 161.27 363.898 152.234 363.898C143.198 363.898 135.87 371.237 135.87 380.286H132.028C130.707 397.605 115.617 399.07 115.617 399.07C108.435 400.389 106.236 405.379 106.236 405.379C102.136 414.463 90.0228 416.058 86.4385 416.329C85.8103 416.377 85.3241 416.911 85.3241 417.544C85.3241 419.802 86.5548 421.38 87.6864 422.354C88.461 423.026 89.4162 423.504 90.4359 423.59C95.9695 424.064 97.8929 431.257 98.022 431.761C111.456 417.057 130.767 407.836 152.234 407.836C173.702 407.836 193.013 417.057 206.447 431.761C206.576 431.257 208.499 424.064 214.033 423.59ZM99.4119 541.182C101.322 541.264 103.216 541.82 104.726 542.992C111.408 548.181 113.151 554.252 113.835 556.282C114.24 557.484 115.255 559.212 117.721 559.212C117.932 559.212 118.155 559.199 118.388 559.174C119.321 559.066 120.259 559.337 121.034 559.867C121.981 560.518 123.426 561.242 125.152 561.242C126.77 561.242 128.637 560.604 130.569 558.669L133.177 563.121C134.072 565.138 133.68 567.495 132.183 569.115L130.178 571.287H174.282L172.277 569.115C170.78 567.495 170.393 565.138 171.283 563.121L173.891 558.669C175.823 560.604 177.69 561.242 179.308 561.242C181.034 561.242 182.475 560.518 183.426 559.867C184.205 559.333 185.139 559.062 186.072 559.174C186.305 559.199 186.529 559.212 186.739 559.212C189.209 559.212 190.22 557.484 190.625 556.282C191.309 554.252 193.052 548.181 199.734 542.992C201.245 541.82 203.138 541.264 205.048 541.182C210.629 540.937 209.738 537.537 209.738 537.537L206.227 531.284C192.802 545.854 173.581 554.985 152.226 554.985C130.87 554.985 111.645 545.858 98.2243 531.284L94.713 537.537C94.713 537.537 93.8224 540.941 99.4032 541.182H99.4119ZM152.234 548.982C189.437 548.982 219.708 518.671 219.708 481.408C219.708 444.146 189.442 413.834 152.234 413.834C115.027 413.834 84.7605 444.146 84.7605 481.408C84.7605 518.671 115.027 548.982 152.234 548.982Z" fill="url(#paint23_linear_1477_8736)"/>
<path d="M346.449 490.769L319.315 483.586C317.848 485.297 315.572 486.296 313.076 485.977C310.043 485.585 307.53 483.129 307.078 480.095C306.648 477.182 308.007 474.553 310.215 473.127L305.464 446.509L311.363 445.453L316.161 472.351C318.597 473.14 320.443 475.23 320.894 477.803L347.981 484.973L346.449 490.774V490.769Z" fill="url(#paint24_linear_1477_8736)"/>
<path d="M314.003 536.668C282.209 536.668 256.439 510.855 256.439 479.018C256.439 447.181 282.213 421.368 314.003 421.368C345.797 421.368 371.567 447.181 371.567 479.018C371.567 510.855 345.793 536.668 314.003 536.668ZM314.003 437.119C290.935 437.119 272.166 455.916 272.166 479.018C272.166 502.12 290.935 520.917 314.003 520.917C337.071 520.917 355.84 502.12 355.84 479.018C355.84 455.916 337.071 437.119 314.003 437.119Z" fill="url(#paint25_linear_1477_8736)"/>
<path d="M314.001 590.534C308.282 590.534 303.631 585.876 303.631 580.148H324.375C324.375 585.876 319.723 590.534 314.005 590.534H314.001Z" fill="url(#paint26_linear_1477_8736)"/>
<path d="M387.466 479.018C387.466 495.005 382.372 509.799 373.723 521.865C372.905 523.003 373.89 526.674 374.02 527.183C374.446 528.816 375.655 530.773 376.291 530.854C378.559 531.139 380.521 531.94 382.126 533.246C385.835 536.258 387.505 540.572 386.709 545.088C386.21 547.915 383.783 549.992 380.917 550.044C380.818 550.044 369.635 550.022 365.457 557.525C360.375 566.652 351.425 567.32 351.236 567.333C350.917 567.38 341.158 568.354 340.181 580.605C339.971 583.26 338.073 585.402 335.582 585.992C333.013 595.511 324.312 602.535 314.003 602.535C303.693 602.535 294.992 595.511 292.419 585.988C289.932 585.402 288.035 583.255 287.824 580.601C286.847 568.35 277.088 567.376 276.77 567.328C276.58 567.315 267.63 566.647 262.548 557.52C258.37 550.018 247.191 550.044 247.088 550.039C244.222 549.988 241.795 547.911 241.296 545.084C240.5 540.568 242.17 536.25 245.879 533.242C247.484 531.94 249.446 531.135 251.714 530.85C252.351 530.773 253.56 528.812 253.986 527.179C254.115 526.67 255.1 522.999 254.283 521.861C245.634 509.799 240.539 495.005 240.539 479.018C240.539 463.03 245.75 447.896 254.579 435.753C255.457 434.542 255.492 432.917 254.67 431.667C253.091 429.263 250.789 425.479 250.474 424.424C249.937 422.601 250.32 419.731 252.092 417.313C253.353 415.594 255.888 413.495 260.814 413.254C261.395 413.224 262.221 413.077 262.906 412.633C267.325 409.772 269.399 403.761 269.919 402.222C271.378 397.9 275.203 394.982 279.988 395.224C281.787 394.19 283.938 393.082 287.531 393.198C285.608 391.104 285.38 387.881 287.174 385.493C288.327 383.959 290.195 383.136 292.114 383.136H335.874C337.793 383.136 339.661 383.964 340.814 385.493C342.613 387.881 342.38 391.104 340.457 393.198C344.046 393.082 346.201 394.19 348 395.224C352.785 394.982 356.61 397.896 358.069 402.222C358.589 403.765 360.668 409.772 365.082 412.633C365.767 413.077 366.593 413.224 367.174 413.254C372.1 413.495 374.635 415.594 375.896 417.313C377.668 419.731 378.051 422.601 377.514 424.424C377.204 425.475 374.902 429.263 373.318 431.667C372.496 432.917 372.531 434.542 373.409 435.753C382.238 447.896 387.449 462.85 387.449 479.018H387.466ZM252.204 536.836C251.184 536.922 250.229 537.405 249.455 538.073C248.327 539.046 247.097 540.624 247.092 542.873C247.092 543.511 247.574 544.05 248.207 544.097C251.791 544.373 263.904 545.963 268.004 555.047C268.004 555.047 270.203 560.037 277.385 561.356C277.385 561.356 292.479 562.825 293.796 580.14H297.639C297.639 589.189 304.966 596.528 314.003 596.528C323.039 596.528 330.367 589.189 330.367 580.14H334.209C335.53 562.821 350.62 561.356 350.62 561.356C357.802 560.037 360.001 555.047 360.001 555.047C364.101 545.963 376.214 544.368 379.798 544.097C380.427 544.05 380.913 543.515 380.913 542.882C380.913 540.624 379.682 539.046 378.551 538.073C377.776 537.4 376.821 536.922 375.801 536.836C370.267 536.362 368.344 529.17 368.215 528.665C354.781 543.369 335.47 552.591 314.003 552.591C292.535 552.591 273.224 543.369 259.79 528.665C259.661 529.17 257.738 536.362 252.204 536.836ZM366.825 419.244C364.915 419.162 363.021 418.606 361.511 417.434C354.829 412.245 353.086 406.174 352.402 404.144C351.997 402.942 350.982 401.214 348.516 401.214C348.305 401.214 348.082 401.227 347.849 401.252C346.916 401.36 345.977 401.089 345.203 400.559C344.256 399.908 342.811 399.184 341.085 399.184C339.467 399.184 337.6 399.822 335.668 401.757L333.06 397.305C332.165 395.288 332.557 392.931 334.054 391.311L336.059 389.139H291.954L293.96 391.311C295.457 392.931 295.844 395.288 294.954 397.305L292.346 401.757C290.414 399.822 288.547 399.184 286.929 399.184C285.203 399.184 283.762 399.908 282.811 400.559C282.032 401.093 281.098 401.365 280.164 401.252C279.932 401.227 279.708 401.214 279.498 401.214C277.028 401.214 276.017 402.942 275.612 404.144C274.928 406.174 273.185 412.246 266.503 417.434C264.992 418.606 263.099 419.162 261.189 419.244C255.608 419.489 256.499 422.889 256.499 422.889L260.01 429.142C273.435 414.573 292.656 405.441 314.011 405.441C335.367 405.441 354.592 414.568 368.013 429.142L371.524 422.889C371.524 422.889 372.415 419.485 366.834 419.244H366.825ZM314.003 411.444C276.8 411.444 246.529 441.756 246.529 479.018C246.529 516.28 276.795 546.592 314.003 546.592C351.21 546.592 381.477 516.28 381.477 479.018C381.477 441.756 351.21 411.444 314.003 411.444Z" fill="url(#paint27_linear_1477_8736)"/>
<path d="M264.823 685.307L237.689 678.124C236.222 679.835 233.946 680.834 231.45 680.516C228.416 680.123 225.903 677.667 225.452 674.633C225.021 671.72 226.381 669.092 228.588 667.665L223.838 641.047L229.737 639.991L234.535 666.89C236.971 667.678 238.816 669.768 239.268 672.341L266.355 679.511L264.823 685.312V685.307Z" fill="url(#paint28_linear_1477_8736)"/>
<path d="M232.377 731.206C200.583 731.206 174.812 705.393 174.812 673.556C174.812 641.719 200.587 615.906 232.377 615.906C264.171 615.906 289.941 641.719 289.941 673.556C289.941 705.393 264.167 731.206 232.377 731.206ZM232.377 631.657C209.309 631.657 190.54 650.454 190.54 673.556C190.54 696.658 209.309 715.456 232.377 715.456C255.445 715.456 274.214 696.658 274.214 673.556C274.214 650.454 255.445 631.657 232.377 631.657Z" fill="url(#paint29_linear_1477_8736)"/>
<path d="M232.374 785.072C226.656 785.072 222.004 780.414 222.004 774.687H242.749C242.749 780.414 238.097 785.072 232.379 785.072H232.374Z" fill="url(#paint30_linear_1477_8736)"/>
<path d="M305.84 673.556C305.84 689.544 300.745 704.337 292.096 716.403C291.279 717.541 292.264 721.213 292.393 721.721C292.819 723.354 294.029 725.311 294.665 725.393C296.933 725.677 298.895 726.479 300.5 727.784C304.209 730.797 305.879 735.11 305.083 739.626C304.584 742.453 302.157 744.53 299.291 744.582C299.192 744.582 288.009 744.56 283.831 752.063C278.749 761.19 269.799 761.858 269.609 761.871C269.291 761.918 259.532 762.892 258.555 775.143C258.344 777.798 256.447 779.94 253.956 780.53C251.387 790.049 242.686 797.073 232.376 797.073C222.067 797.073 213.366 790.049 210.793 780.526C208.306 779.94 206.408 777.794 206.198 775.139C205.221 762.888 195.462 761.914 195.143 761.867C194.954 761.854 186.004 761.186 180.922 752.059C176.744 744.556 165.565 744.582 165.462 744.578C162.596 744.526 160.169 742.449 159.67 739.622C158.874 735.106 160.544 730.788 164.253 727.78C165.858 726.479 167.82 725.673 170.087 725.388C170.724 725.311 171.933 723.35 172.359 721.717C172.488 721.208 173.474 717.537 172.656 716.399C164.008 704.337 158.913 689.544 158.913 673.556C158.913 657.569 164.124 642.434 172.953 630.291C173.831 629.08 173.865 627.455 173.044 626.206C171.464 623.801 169.162 620.017 168.848 618.962C168.31 617.139 168.693 614.269 170.466 611.851C171.727 610.132 174.261 608.033 179.188 607.792C179.769 607.762 180.595 607.615 181.279 607.172C185.698 604.31 187.772 598.299 188.293 596.76C189.752 592.438 193.577 589.521 198.362 589.762C200.161 588.728 202.312 587.62 205.905 587.737C203.982 585.642 203.753 582.419 205.548 580.032C206.701 578.497 208.568 577.674 210.487 577.674H254.248C256.167 577.674 258.035 578.502 259.188 580.031C260.986 582.419 260.754 585.642 258.831 587.737C262.419 587.62 264.575 588.728 266.374 589.762C271.159 589.521 274.984 592.434 276.443 596.76C276.963 598.303 279.041 604.31 283.456 607.171C284.14 607.615 284.967 607.762 285.547 607.792C290.474 608.033 293.009 610.132 294.269 611.851C296.042 614.269 296.425 617.139 295.887 618.962C295.578 620.013 293.275 623.801 291.692 626.206C290.87 627.455 290.905 629.08 291.782 630.291C300.612 642.434 305.823 657.388 305.823 673.556H305.84ZM170.578 731.374C169.558 731.46 168.603 731.943 167.828 732.611C166.701 733.585 165.471 735.162 165.466 737.411C165.466 738.049 165.948 738.588 166.581 738.635C170.165 738.911 182.278 740.501 186.378 749.585C186.378 749.585 188.577 754.575 195.759 755.894C195.759 755.894 210.853 757.363 212.17 774.678H216.012C216.012 783.728 223.34 791.066 232.376 791.066C241.413 791.066 248.74 783.727 248.74 774.678H252.583C253.904 757.359 268.994 755.894 268.994 755.894C276.176 754.575 278.375 749.585 278.375 749.585C282.475 740.501 294.588 738.907 298.172 738.635C298.8 738.588 299.287 738.053 299.287 737.42C299.287 735.162 298.056 733.585 296.924 732.611C296.15 731.938 295.195 731.46 294.175 731.374C288.641 730.9 286.718 723.708 286.589 723.203C273.155 737.907 253.844 747.129 232.376 747.129C210.909 747.129 191.598 737.907 178.164 723.203C178.035 723.708 176.112 730.9 170.578 731.374ZM285.199 613.782C283.288 613.7 281.395 613.144 279.885 611.972C273.202 606.784 271.46 600.712 270.776 598.682C270.371 597.48 269.356 595.752 266.89 595.752C266.679 595.752 266.455 595.765 266.223 595.791C265.289 595.898 264.351 595.627 263.577 595.097C262.63 594.446 261.184 593.722 259.459 593.722C257.841 593.722 255.974 594.36 254.042 596.295L251.434 591.843C250.539 589.827 250.931 587.469 252.428 585.849L254.433 583.677H210.328L212.333 585.849C213.831 587.469 214.218 589.827 213.327 591.843L210.72 596.295C208.788 594.36 206.92 593.722 205.303 593.722C203.577 593.722 202.136 594.446 201.185 595.097C200.406 595.631 199.472 595.903 198.538 595.791C198.306 595.765 198.082 595.752 197.871 595.752C195.401 595.752 194.39 597.48 193.986 598.682C193.302 600.712 191.559 606.784 184.877 611.972C183.366 613.144 181.473 613.7 179.562 613.782C173.982 614.028 174.872 617.428 174.872 617.428L178.384 623.68C191.809 609.111 211.03 599.979 232.385 599.979C253.74 599.979 272.966 609.106 286.387 623.68L289.898 617.428C289.898 617.428 290.788 614.023 285.208 613.782H285.199ZM232.376 605.982C195.173 605.982 164.902 636.294 164.902 673.556C164.902 710.819 195.169 741.13 232.376 741.13C269.584 741.13 299.85 710.819 299.85 673.556C299.85 636.294 269.584 605.982 232.376 605.982Z" fill="url(#paint31_linear_1477_8736)"/>
<path d="M264.823 1089.23L237.689 1082.05C236.222 1083.76 233.946 1084.76 231.45 1084.44C228.416 1084.05 225.903 1081.59 225.452 1078.56C225.021 1075.65 226.381 1073.02 228.588 1071.59L223.838 1044.97L229.737 1043.92L234.535 1070.82C236.971 1071.6 238.816 1073.69 239.268 1076.27L266.355 1083.44L264.823 1089.24V1089.23Z" fill="url(#paint32_linear_1477_8736)"/>
<path d="M232.377 1135.13C200.583 1135.13 174.812 1109.32 174.812 1077.48C174.812 1045.65 200.587 1019.83 232.377 1019.83C264.171 1019.83 289.941 1045.65 289.941 1077.48C289.941 1109.32 264.167 1135.13 232.377 1135.13ZM232.377 1035.58C209.309 1035.58 190.54 1054.38 190.54 1077.48C190.54 1100.58 209.309 1119.38 232.377 1119.38C255.445 1119.38 274.214 1100.58 274.214 1077.48C274.214 1054.38 255.445 1035.58 232.377 1035.58Z" fill="url(#paint33_linear_1477_8736)"/>
<path d="M232.374 1189C226.656 1189 222.004 1184.34 222.004 1178.61H242.749C242.749 1184.34 238.097 1189 232.379 1189H232.374Z" fill="url(#paint34_linear_1477_8736)"/>
<path d="M305.84 1077.48C305.84 1093.47 300.745 1108.26 292.096 1120.33C291.279 1121.47 292.264 1125.14 292.393 1125.65C292.819 1127.28 294.029 1129.24 294.665 1129.32C296.933 1129.6 298.895 1130.41 300.5 1131.71C304.209 1134.72 305.879 1139.04 305.083 1143.55C304.584 1146.38 302.157 1148.46 299.291 1148.51C299.192 1148.51 288.009 1148.49 283.831 1155.99C278.749 1165.12 269.799 1165.78 269.609 1165.8C269.291 1165.84 259.532 1166.82 258.555 1179.07C258.344 1181.72 256.447 1183.87 253.956 1184.46C251.387 1193.98 242.686 1201 232.376 1201C222.067 1201 213.366 1193.98 210.793 1184.45C208.306 1183.87 206.408 1181.72 206.198 1179.07C205.221 1166.81 195.462 1165.84 195.143 1165.79C194.954 1165.78 186.004 1165.11 180.922 1155.99C176.744 1148.48 165.565 1148.51 165.462 1148.5C162.596 1148.45 160.169 1146.38 159.67 1143.55C158.874 1139.03 160.544 1134.71 164.253 1131.71C165.858 1130.41 167.82 1129.6 170.087 1129.31C170.724 1129.24 171.933 1127.28 172.359 1125.64C172.488 1125.13 173.474 1121.46 172.656 1120.33C164.008 1108.26 158.913 1093.47 158.913 1077.48C158.913 1061.5 164.124 1046.36 172.953 1034.22C173.831 1033.01 173.865 1031.38 173.044 1030.13C171.464 1027.73 169.162 1023.94 168.848 1022.89C168.31 1021.07 168.693 1018.2 170.466 1015.78C171.727 1014.06 174.261 1011.96 179.188 1011.72C179.769 1011.69 180.595 1011.54 181.279 1011.1C185.698 1008.24 187.772 1002.23 188.293 1000.69C189.752 996.365 193.577 993.447 198.362 993.688C200.161 992.654 202.312 991.547 205.905 991.663C203.982 989.569 203.753 986.345 205.548 983.958C206.701 982.424 208.568 981.601 210.487 981.601H254.248C256.167 981.601 258.035 982.428 259.188 983.958C260.986 986.345 260.754 989.569 258.831 991.663C262.419 991.547 264.575 992.654 266.374 993.688C271.159 993.447 274.984 996.36 276.443 1000.69C276.963 1002.23 279.041 1008.24 283.456 1011.1C284.14 1011.54 284.967 1011.69 285.547 1011.72C290.474 1011.96 293.009 1014.06 294.269 1015.78C296.042 1018.2 296.425 1021.07 295.887 1022.89C295.578 1023.94 293.275 1027.73 291.692 1030.13C290.87 1031.38 290.905 1033.01 291.782 1034.22C300.612 1046.36 305.823 1061.31 305.823 1077.48H305.84ZM170.578 1135.3C169.558 1135.39 168.603 1135.87 167.828 1136.54C166.701 1137.51 165.471 1139.09 165.466 1141.34C165.466 1141.98 165.948 1142.51 166.581 1142.56C170.165 1142.84 182.278 1144.43 186.378 1153.51C186.378 1153.51 188.577 1158.5 195.759 1159.82C195.759 1159.82 210.853 1161.29 212.17 1178.6H216.012C216.012 1187.65 223.34 1194.99 232.376 1194.99C241.413 1194.99 248.74 1187.65 248.74 1178.6H252.583C253.904 1161.29 268.994 1159.82 268.994 1159.82C276.176 1158.5 278.375 1153.51 278.375 1153.51C282.475 1144.43 294.588 1142.83 298.172 1142.56C298.8 1142.51 299.287 1141.98 299.287 1141.35C299.287 1139.09 298.056 1137.51 296.924 1136.54C296.15 1135.86 295.195 1135.39 294.175 1135.3C288.641 1134.83 286.718 1127.63 286.589 1127.13C273.155 1141.83 253.844 1151.06 232.376 1151.06C210.909 1151.06 191.598 1141.83 178.164 1127.13C178.035 1127.63 176.112 1134.83 170.578 1135.3ZM285.199 1017.71C283.288 1017.63 281.395 1017.07 279.885 1015.9C273.202 1010.71 271.46 1004.64 270.776 1002.61C270.371 1001.41 269.356 999.678 266.89 999.678C266.679 999.678 266.455 999.691 266.223 999.717C265.289 999.825 264.351 999.553 263.577 999.023C262.63 998.373 261.184 997.649 259.459 997.649C257.841 997.649 255.974 998.286 254.042 1000.22L251.434 995.77C250.539 993.753 250.931 991.396 252.428 989.776L254.433 987.604H210.328L212.333 989.776C213.831 991.396 214.218 993.753 213.327 995.77L210.72 1000.22C208.788 998.286 206.92 997.649 205.303 997.649C203.577 997.649 202.136 998.373 201.185 999.023C200.406 999.558 199.472 999.829 198.538 999.717C198.306 999.691 198.082 999.678 197.871 999.678C195.401 999.678 194.39 1001.41 193.986 1002.61C193.302 1004.64 191.559 1010.71 184.877 1015.9C183.366 1017.07 181.473 1017.63 179.562 1017.71C173.982 1017.95 174.872 1021.35 174.872 1021.35L178.384 1027.61C191.809 1013.04 211.03 1003.91 232.385 1003.91C253.74 1003.91 272.966 1013.03 286.387 1027.61L289.898 1021.35C289.898 1021.35 290.788 1017.95 285.208 1017.71H285.199ZM232.376 1009.91C195.173 1009.91 164.902 1040.22 164.902 1077.48C164.902 1114.75 195.169 1145.06 232.376 1145.06C269.584 1145.06 299.85 1114.75 299.85 1077.48C299.85 1040.22 269.584 1009.91 232.376 1009.91Z" fill="url(#paint35_linear_1477_8736)"/>
<path d="M38.1613 684.985L65.2954 692.169C66.7627 690.458 69.039 689.458 71.5347 689.777C74.5682 690.169 77.0811 692.626 77.5329 695.659C77.9632 698.572 76.6035 701.201 74.3961 702.628L79.1465 729.246L73.2472 730.302L68.4495 703.403C66.014 702.615 64.1681 700.525 63.7163 697.952L36.6295 690.781L38.1613 684.981V684.985Z" fill="url(#paint36_linear_1477_8736)"/>
<path d="M70.6078 639.087C102.402 639.087 128.172 664.899 128.172 696.737C128.172 728.574 102.398 754.386 70.6078 754.386C38.8136 754.386 13.0435 728.574 13.0435 696.737C13.0435 664.899 38.8179 639.087 70.6078 639.087ZM70.6078 738.636C93.6757 738.636 112.445 719.839 112.445 696.737C112.445 673.634 93.6757 654.837 70.6078 654.837C47.5399 654.837 28.7706 673.634 28.7706 696.737C28.7706 719.839 47.5399 738.636 70.6078 738.636Z" fill="url(#paint37_linear_1477_8736)"/>
<path d="M70.6101 585.221C76.3287 585.221 80.9802 589.879 80.9802 595.606H60.2359C60.2359 589.879 64.8873 585.221 70.6059 585.221H70.6101Z" fill="url(#paint38_linear_1477_8736)"/>
<path d="M-2.85541 696.737C-2.85541 680.749 2.2392 665.955 10.8881 653.889C11.7056 652.752 10.7203 649.08 10.5912 648.572C10.1652 646.938 8.95605 644.982 8.31921 644.9C6.05157 644.616 4.08948 643.814 2.4845 642.508C-1.22461 639.496 -2.8941 635.183 -2.09808 630.667C-1.59894 627.84 0.827881 625.763 3.6936 625.711C3.79254 625.711 14.9758 625.732 19.1539 618.23C24.2357 609.103 33.1857 608.435 33.3751 608.422C33.6935 608.375 43.4525 607.401 44.4292 595.149C44.6401 592.495 46.5377 590.353 49.0291 589.763C51.5979 580.243 60.2984 573.219 70.6082 573.219C80.918 573.219 89.6184 580.243 92.1916 589.767C94.6786 590.353 96.5762 592.499 96.7871 595.154C97.7638 607.405 107.523 608.379 107.841 608.426C108.031 608.439 116.981 609.107 122.062 618.234C126.24 625.737 137.419 625.711 137.523 625.715C140.388 625.767 142.815 627.844 143.314 630.671C144.11 635.187 142.441 639.505 138.732 642.513C137.127 643.814 135.165 644.62 132.897 644.904C132.26 644.982 131.051 646.943 130.625 648.576C130.496 649.084 129.511 652.756 130.328 653.894C138.977 665.955 144.072 680.749 144.072 696.737C144.072 712.724 138.861 727.858 130.031 740.002C129.154 741.213 129.119 742.837 129.941 744.087C131.52 746.492 133.822 750.275 134.136 751.331C134.674 753.154 134.291 756.024 132.518 758.441C131.258 760.161 128.723 762.259 123.796 762.501C123.216 762.531 122.389 762.677 121.705 763.121C117.286 765.983 115.212 771.994 114.691 773.532C113.233 777.855 109.407 780.772 104.623 780.531C102.824 781.565 100.673 782.672 97.0797 782.556C99.0031 784.65 99.2311 787.874 97.4368 790.261C96.2836 791.795 94.4161 792.618 92.497 792.618H48.7365C46.8174 792.618 44.95 791.791 43.7968 790.261C41.9982 787.874 42.2305 784.65 44.1539 782.556C40.5653 782.672 38.4095 781.565 36.6109 780.531C31.826 780.772 28.0007 777.859 26.5421 773.532C26.0214 771.99 23.9431 765.983 19.5283 763.121C18.8442 762.677 18.0179 762.531 17.4371 762.501C12.5103 762.259 9.97583 760.161 8.71509 758.441C6.94226 756.024 6.55939 753.154 7.09723 751.331C7.40704 750.28 9.70905 746.492 11.2925 744.087C12.1144 742.837 12.08 741.213 11.2021 740.002C2.37256 727.858 -2.8382 712.905 -2.8382 696.737H-2.85541ZM132.407 638.919C133.426 638.833 134.382 638.35 135.156 637.682C136.283 636.708 137.514 635.131 137.518 632.881C137.518 632.244 137.036 631.705 136.404 631.658C132.82 631.382 120.707 629.792 116.606 620.708C116.606 620.708 114.407 615.718 107.226 614.399C107.226 614.399 92.1313 612.929 90.8147 595.615H86.9721C86.9721 586.565 79.6443 579.226 70.6082 579.226C61.5721 579.226 54.2442 586.565 54.2442 595.615H50.4017C49.0807 612.934 33.9904 614.399 33.9904 614.399C26.8088 615.718 24.61 620.708 24.61 620.708C20.5094 629.792 8.39667 631.386 4.81232 631.658C4.18408 631.705 3.69788 632.239 3.69788 632.873C3.69788 635.131 4.92853 636.708 6.06018 637.682C6.83472 638.354 7.78998 638.833 8.80975 638.919C14.3433 639.393 16.2667 646.585 16.3958 647.089C29.8294 632.386 49.141 623.164 70.6082 623.164C92.0754 623.164 111.387 632.386 124.821 647.089C124.95 646.585 126.873 639.393 132.407 638.919ZM17.7856 756.511C19.6961 756.593 21.5894 757.149 23.0997 758.321C29.7821 763.509 31.5248 769.581 32.209 771.611C32.6135 772.813 33.6289 774.541 36.0945 774.541C36.3053 774.541 36.5291 774.528 36.7615 774.502C37.6952 774.394 38.6333 774.666 39.4078 775.196C40.3544 775.847 41.8002 776.571 43.5257 776.571C45.1436 776.571 47.011 775.933 48.943 773.998L51.5506 778.449C52.4456 780.466 52.054 782.823 50.5566 784.444L48.5515 786.616H92.6563L90.6511 784.444C89.1537 782.823 88.7664 780.466 89.6571 778.449L92.2647 773.998C94.1967 775.933 96.0641 776.571 97.682 776.571C99.4075 776.571 100.849 775.847 101.8 775.196C102.579 774.662 103.513 774.39 104.446 774.502C104.679 774.528 104.902 774.541 105.113 774.541C107.583 774.541 108.594 772.813 108.999 771.611C109.683 769.581 111.426 763.509 118.108 758.321C119.618 757.149 121.512 756.593 123.422 756.511C129.003 756.265 128.112 752.865 128.112 752.865L124.601 746.612C111.176 761.182 91.9549 770.313 70.5996 770.313C49.2442 770.313 30.0188 761.186 16.598 746.612L13.0869 752.865C13.0869 752.865 12.1962 756.269 17.777 756.511H17.7856ZM70.6082 764.311C107.811 764.311 138.082 733.999 138.082 696.737C138.082 659.474 107.815 629.163 70.6082 629.163C33.4009 629.163 3.13422 659.474 3.13422 696.737C3.13422 733.999 33.4009 764.311 70.6082 764.311Z" fill="url(#paint39_linear_1477_8736)"/>
<path d="M22.913 490.769L-4.22119 483.586C-5.68848 485.297 -7.96472 486.296 -10.4604 485.977C-13.494 485.585 -16.0068 483.129 -16.4586 480.095C-16.8889 477.182 -15.5292 474.553 -13.3218 473.127L-18.0723 446.509L-12.173 445.453L-7.37518 472.351C-4.93976 473.14 -3.09381 475.23 -2.64203 477.803L24.4448 484.973L22.913 490.774V490.769Z" fill="url(#paint40_linear_1477_8736)"/>
<path d="M-9.53357 536.668C-41.3278 536.668 -67.0978 510.855 -67.0978 479.018C-67.0978 447.181 -41.3235 421.368 -9.53357 421.368C22.2606 421.368 48.0307 447.181 48.0307 479.018C48.0307 510.855 22.2563 536.668 -9.53357 536.668ZM-9.53357 437.119C-32.6014 437.119 -51.3707 455.916 -51.3707 479.018C-51.3707 502.12 -32.6014 520.917 -9.53357 520.917C13.5343 520.917 32.3036 502.12 32.3036 479.018C32.3036 455.916 13.5343 437.119 -9.53357 437.119Z" fill="url(#paint41_linear_1477_8736)"/>
<path d="M-9.53589 590.534C-15.2545 590.534 -19.9059 585.876 -19.9059 580.148H0.83844C0.83844 585.876 -3.81299 590.534 -9.53156 590.534H-9.53589Z" fill="url(#paint42_linear_1477_8736)"/>
<path d="M63.9297 479.018C63.9297 495.005 58.835 509.799 50.1862 521.865C49.3686 523.003 50.354 526.674 50.4831 527.183C50.9091 528.816 52.1182 530.773 52.755 530.854C55.0227 531.139 56.9848 531.94 58.5898 533.246C62.2989 536.258 63.9684 540.572 63.1724 545.088C62.6732 547.915 60.2464 549.992 57.3807 550.044C57.2817 550.044 46.0984 550.022 41.9203 557.525C36.8386 566.652 27.8885 567.32 27.6992 567.333C27.3807 567.38 17.6218 568.354 16.645 580.605C16.4342 583.26 14.5366 585.402 12.0452 585.992C9.47638 595.511 0.775879 602.535 -9.53387 602.535C-19.8436 602.535 -28.5441 595.511 -31.1172 585.988C-33.6043 585.402 -35.502 583.255 -35.7128 580.601C-36.6895 568.35 -46.4485 567.376 -46.767 567.328C-46.9563 567.315 -55.9064 566.647 -60.9881 557.52C-65.1662 550.018 -76.3452 550.044 -76.4485 550.039C-79.3142 549.988 -81.741 547.911 -82.2402 545.084C-83.0362 540.568 -81.3667 536.25 -77.6576 533.242C-76.0526 531.94 -74.0905 531.135 -71.8228 530.85C-71.186 530.773 -69.9768 528.812 -69.5508 527.179C-69.4218 526.67 -68.4364 522.999 -69.254 521.861C-77.9028 509.799 -82.9974 495.005 -82.9974 479.018C-82.9974 463.03 -77.7867 447.896 -68.9571 435.753C-68.0793 434.542 -68.0449 432.917 -68.8668 431.667C-70.4459 429.263 -72.7479 425.479 -73.062 424.424C-73.5999 422.601 -73.2169 419.731 -71.4441 417.313C-70.1833 415.594 -67.649 413.495 -62.7222 413.254C-62.1413 413.224 -61.3151 413.077 -60.6309 412.633C-56.2119 409.772 -54.1378 403.761 -53.6172 402.222C-52.1585 397.9 -48.3333 394.982 -43.5484 395.224C-41.7498 394.19 -39.5984 393.082 -36.0054 393.198C-37.9288 391.104 -38.1569 387.881 -36.3625 385.493C-35.2094 383.959 -33.3419 383.136 -31.4228 383.136H12.3378C14.2568 383.136 16.1243 383.964 17.2775 385.493C19.0762 387.881 18.8438 391.104 16.9204 393.198C20.509 393.082 22.6647 394.19 24.4634 395.224C29.2482 394.982 33.0735 397.896 34.5322 402.222C35.0529 403.765 37.1312 409.772 41.5459 412.633C42.2301 413.077 43.0563 413.224 43.6372 413.254C48.564 413.495 51.0984 415.594 52.3592 417.313C54.132 419.731 54.515 422.601 53.9771 424.424C53.6673 425.475 51.3652 429.263 49.7817 431.667C48.9598 432.917 48.9943 434.542 49.8721 435.753C58.7017 447.896 63.9125 462.85 63.9125 479.018H63.9297ZM-71.3322 536.836C-72.352 536.922 -73.3073 537.405 -74.0818 538.073C-75.2092 539.046 -76.4398 540.624 -76.4441 542.873C-76.4441 543.511 -75.9622 544.05 -75.3297 544.097C-71.7453 544.373 -59.6327 545.963 -55.532 555.047C-55.532 555.047 -53.3333 560.037 -46.1517 561.356C-46.1517 561.356 -31.0571 562.825 -29.7404 580.14H-25.8978C-25.8978 589.189 -18.57 596.528 -9.53387 596.528C-0.497742 596.528 6.83008 589.189 6.83008 580.14H10.6725C11.9935 562.821 27.0839 561.356 27.0839 561.356C34.2654 560.037 36.4642 555.047 36.4642 555.047C40.5649 545.963 52.6776 544.368 56.2619 544.097C56.8902 544.05 57.3764 543.515 57.3764 542.882C57.3764 540.624 56.1457 539.046 55.0141 538.073C54.2395 537.4 53.2843 536.922 52.2645 536.836C46.731 536.362 44.8076 529.17 44.6785 528.665C31.2448 543.369 11.9333 552.591 -9.53387 552.591C-31.0011 552.591 -50.3126 543.369 -63.7463 528.665C-63.8754 529.17 -65.7986 536.362 -71.3322 536.836ZM43.2887 419.244C41.3782 419.162 39.4848 418.606 37.9745 417.434C31.2921 412.245 29.5494 406.174 28.8652 404.144C28.4608 402.942 27.4453 401.214 24.9797 401.214C24.7689 401.214 24.5452 401.227 24.3128 401.252C23.3791 401.36 22.441 401.089 21.6665 400.559C20.7198 399.908 19.2741 399.184 17.5486 399.184C15.9307 399.184 14.0633 399.822 12.1313 401.757L9.52368 397.305C8.62866 395.288 9.0202 392.931 10.5176 391.311L12.5228 389.139H-31.582L-29.5768 391.311C-28.0794 392.931 -27.6922 395.288 -28.5829 397.305L-31.1904 401.757C-33.1224 399.822 -34.9899 399.184 -36.6078 399.184C-38.3333 399.184 -39.7748 399.908 -40.7257 400.559C-41.5045 401.093 -42.4383 401.365 -43.372 401.252C-43.6044 401.227 -43.8281 401.214 -44.0389 401.214C-46.5088 401.214 -47.52 402.942 -47.9244 404.144C-48.6086 406.174 -50.3513 412.246 -57.0337 417.434C-58.544 418.606 -60.4373 419.162 -62.3478 419.244C-67.9286 419.489 -67.038 422.889 -67.038 422.889L-63.5268 429.142C-50.1017 414.573 -30.8806 405.441 -9.52527 405.441C11.8301 405.441 31.0555 414.568 44.4762 429.142L47.9874 422.889C47.9874 422.889 48.8781 419.485 43.2973 419.244H43.2887ZM-9.53387 411.444C-46.7368 411.444 -77.0078 441.756 -77.0078 479.018C-77.0078 516.28 -46.7411 546.592 -9.53387 546.592C27.6734 546.592 57.9401 516.28 57.9401 479.018C57.9401 441.756 27.6734 411.444 -9.53387 411.444Z" fill="url(#paint43_linear_1477_8736)"/>
<defs>
<linearGradient id="paint0_linear_1477_8736" x1="114.5" y1="-371" x2="114.5" y2="1547.5" gradientUnits="userSpaceOnUse">
<stop stop-color="#F6F8FA"/>
<stop offset="0.5" stop-color="#E4E9ED"/>
<stop offset="1" stop-color="#F6F8FA"/>
</linearGradient>
<linearGradient id="paint1_linear_1477_8736" x1="114.5" y1="-371" x2="114.5" y2="1547.5" gradientUnits="userSpaceOnUse">
<stop stop-color="#F6F8FA"/>
<stop offset="0.5" stop-color="#E4E9ED"/>
<stop offset="1" stop-color="#F6F8FA"/>
</linearGradient>
<linearGradient id="paint2_linear_1477_8736" x1="114.5" y1="-371" x2="114.5" y2="1547.5" gradientUnits="userSpaceOnUse">
<stop stop-color="#F6F8FA"/>
<stop offset="0.5" stop-color="#E4E9ED"/>
<stop offset="1" stop-color="#F6F8FA"/>
</linearGradient>
<linearGradient id="paint3_linear_1477_8736" x1="114.5" y1="-371" x2="114.5" y2="1547.5" gradientUnits="userSpaceOnUse">
<stop stop-color="#F6F8FA"/>
<stop offset="0.5" stop-color="#E4E9ED"/>
<stop offset="1" stop-color="#F6F8FA"/>
</linearGradient>
<linearGradient id="paint4_linear_1477_8736" x1="114.5" y1="-371" x2="114.5" y2="1547.5" gradientUnits="userSpaceOnUse">
<stop stop-color="#F6F8FA"/>
<stop offset="0.5" stop-color="#E4E9ED"/>
<stop offset="1" stop-color="#F6F8FA"/>
</linearGradient>
<linearGradient id="paint5_linear_1477_8736" x1="114.5" y1="-371" x2="114.5" y2="1547.5" gradientUnits="userSpaceOnUse">
<stop stop-color="#F6F8FA"/>
<stop offset="0.5" stop-color="#E4E9ED"/>
<stop offset="1" stop-color="#F6F8FA"/>
</linearGradient>
<linearGradient id="paint6_linear_1477_8736" x1="114.5" y1="-371" x2="114.5" y2="1547.5" gradientUnits="userSpaceOnUse">
<stop stop-color="#F6F8FA"/>
<stop offset="0.5" stop-color="#E4E9ED"/>
<stop offset="1" stop-color="#F6F8FA"/>
</linearGradient>
<linearGradient id="paint7_linear_1477_8736" x1="114.5" y1="-371" x2="114.5" y2="1547.5" gradientUnits="userSpaceOnUse">
<stop stop-color="#F6F8FA"/>
<stop offset="0.5" stop-color="#E4E9ED"/>
<stop offset="1" stop-color="#F6F8FA"/>
</linearGradient>
<linearGradient id="paint8_linear_1477_8736" x1="114.5" y1="-371" x2="114.5" y2="1547.5" gradientUnits="userSpaceOnUse">
<stop stop-color="#F6F8FA"/>
<stop offset="0.5" stop-color="#E4E9ED"/>
<stop offset="1" stop-color="#F6F8FA"/>
</linearGradient>
<linearGradient id="paint9_linear_1477_8736" x1="114.5" y1="-371" x2="114.5" y2="1547.5" gradientUnits="userSpaceOnUse">
<stop stop-color="#F6F8FA"/>
<stop offset="0.5" stop-color="#E4E9ED"/>
<stop offset="1" stop-color="#F6F8FA"/>
</linearGradient>
<linearGradient id="paint10_linear_1477_8736" x1="114.5" y1="-371" x2="114.5" y2="1547.5" gradientUnits="userSpaceOnUse">
<stop stop-color="#F6F8FA"/>
<stop offset="0.5" stop-color="#E4E9ED"/>
<stop offset="1" stop-color="#F6F8FA"/>
</linearGradient>
<linearGradient id="paint11_linear_1477_8736" x1="114.5" y1="-371" x2="114.5" y2="1547.5" gradientUnits="userSpaceOnUse">
<stop stop-color="#F6F8FA"/>
<stop offset="0.5" stop-color="#E4E9ED"/>
<stop offset="1" stop-color="#F6F8FA"/>
</linearGradient>
<linearGradient id="paint12_linear_1477_8736" x1="114.5" y1="-371" x2="114.5" y2="1547.5" gradientUnits="userSpaceOnUse">
<stop stop-color="#F6F8FA"/>
<stop offset="0.5" stop-color="#E4E9ED"/>
<stop offset="1" stop-color="#F6F8FA"/>
</linearGradient>
<linearGradient id="paint13_linear_1477_8736" x1="114.5" y1="-371" x2="114.5" y2="1547.5" gradientUnits="userSpaceOnUse">
<stop stop-color="#F6F8FA"/>
<stop offset="0.5" stop-color="#E4E9ED"/>
<stop offset="1" stop-color="#F6F8FA"/>
</linearGradient>
<linearGradient id="paint14_linear_1477_8736" x1="114.5" y1="-371" x2="114.5" y2="1547.5" gradientUnits="userSpaceOnUse">
<stop stop-color="#F6F8FA"/>
<stop offset="0.5" stop-color="#E4E9ED"/>
<stop offset="1" stop-color="#F6F8FA"/>
</linearGradient>
<linearGradient id="paint15_linear_1477_8736" x1="114.5" y1="-371" x2="114.5" y2="1547.5" gradientUnits="userSpaceOnUse">
<stop stop-color="#F6F8FA"/>
<stop offset="0.5" stop-color="#E4E9ED"/>
<stop offset="1" stop-color="#F6F8FA"/>
</linearGradient>
<linearGradient id="paint16_linear_1477_8736" x1="114.5" y1="-371" x2="114.5" y2="1547.5" gradientUnits="userSpaceOnUse">
<stop stop-color="#F6F8FA"/>
<stop offset="0.5" stop-color="#E4E9ED"/>
<stop offset="1" stop-color="#F6F8FA"/>
</linearGradient>
<linearGradient id="paint17_linear_1477_8736" x1="114.5" y1="-371" x2="114.5" y2="1547.5" gradientUnits="userSpaceOnUse">
<stop stop-color="#F6F8FA"/>
<stop offset="0.5" stop-color="#E4E9ED"/>
<stop offset="1" stop-color="#F6F8FA"/>
</linearGradient>
<linearGradient id="paint18_linear_1477_8736" x1="114.5" y1="-371" x2="114.5" y2="1547.5" gradientUnits="userSpaceOnUse">
<stop stop-color="#F6F8FA"/>
<stop offset="0.5" stop-color="#E4E9ED"/>
<stop offset="1" stop-color="#F6F8FA"/>
</linearGradient>
<linearGradient id="paint19_linear_1477_8736" x1="114.5" y1="-371" x2="114.5" y2="1547.5" gradientUnits="userSpaceOnUse">
<stop stop-color="#F6F8FA"/>
<stop offset="0.5" stop-color="#E4E9ED"/>
<stop offset="1" stop-color="#F6F8FA"/>
</linearGradient>
<linearGradient id="paint20_linear_1477_8736" x1="114.5" y1="-371" x2="114.5" y2="1547.5" gradientUnits="userSpaceOnUse">
<stop stop-color="#F6F8FA"/>
<stop offset="0.5" stop-color="#E4E9ED"/>
<stop offset="1" stop-color="#F6F8FA"/>
</linearGradient>
<linearGradient id="paint21_linear_1477_8736" x1="114.5" y1="-371" x2="114.5" y2="1547.5" gradientUnits="userSpaceOnUse">
<stop stop-color="#F6F8FA"/>
<stop offset="0.5" stop-color="#E4E9ED"/>
<stop offset="1" stop-color="#F6F8FA"/>
</linearGradient>
<linearGradient id="paint22_linear_1477_8736" x1="114.5" y1="-371" x2="114.5" y2="1547.5" gradientUnits="userSpaceOnUse">
<stop stop-color="#F6F8FA"/>
<stop offset="0.5" stop-color="#E4E9ED"/>
<stop offset="1" stop-color="#F6F8FA"/>
</linearGradient>
<linearGradient id="paint23_linear_1477_8736" x1="114.5" y1="-371" x2="114.5" y2="1547.5" gradientUnits="userSpaceOnUse">
<stop stop-color="#F6F8FA"/>
<stop offset="0.5" stop-color="#E4E9ED"/>
<stop offset="1" stop-color="#F6F8FA"/>
</linearGradient>
<linearGradient id="paint24_linear_1477_8736" x1="114.5" y1="-371" x2="114.5" y2="1547.5" gradientUnits="userSpaceOnUse">
<stop stop-color="#F6F8FA"/>
<stop offset="0.5" stop-color="#E4E9ED"/>
<stop offset="1" stop-color="#F6F8FA"/>
</linearGradient>
<linearGradient id="paint25_linear_1477_8736" x1="114.5" y1="-371" x2="114.5" y2="1547.5" gradientUnits="userSpaceOnUse">
<stop stop-color="#F6F8FA"/>
<stop offset="0.5" stop-color="#E4E9ED"/>
<stop offset="1" stop-color="#F6F8FA"/>
</linearGradient>
<linearGradient id="paint26_linear_1477_8736" x1="114.5" y1="-371" x2="114.5" y2="1547.5" gradientUnits="userSpaceOnUse">
<stop stop-color="#F6F8FA"/>
<stop offset="0.5" stop-color="#E4E9ED"/>
<stop offset="1" stop-color="#F6F8FA"/>
</linearGradient>
<linearGradient id="paint27_linear_1477_8736" x1="114.5" y1="-371" x2="114.5" y2="1547.5" gradientUnits="userSpaceOnUse">
<stop stop-color="#F6F8FA"/>
<stop offset="0.5" stop-color="#E4E9ED"/>
<stop offset="1" stop-color="#F6F8FA"/>
</linearGradient>
<linearGradient id="paint28_linear_1477_8736" x1="114.5" y1="-371" x2="114.5" y2="1547.5" gradientUnits="userSpaceOnUse">
<stop stop-color="#F6F8FA"/>
<stop offset="0.5" stop-color="#E4E9ED"/>
<stop offset="1" stop-color="#F6F8FA"/>
</linearGradient>
<linearGradient id="paint29_linear_1477_8736" x1="114.5" y1="-371" x2="114.5" y2="1547.5" gradientUnits="userSpaceOnUse">
<stop stop-color="#F6F8FA"/>
<stop offset="0.5" stop-color="#E4E9ED"/>
<stop offset="1" stop-color="#F6F8FA"/>
</linearGradient>
<linearGradient id="paint30_linear_1477_8736" x1="114.5" y1="-371" x2="114.5" y2="1547.5" gradientUnits="userSpaceOnUse">
<stop stop-color="#F6F8FA"/>
<stop offset="0.5" stop-color="#E4E9ED"/>
<stop offset="1" stop-color="#F6F8FA"/>
</linearGradient>
<linearGradient id="paint31_linear_1477_8736" x1="114.5" y1="-371" x2="114.5" y2="1547.5" gradientUnits="userSpaceOnUse">
<stop stop-color="#F6F8FA"/>
<stop offset="0.5" stop-color="#E4E9ED"/>
<stop offset="1" stop-color="#F6F8FA"/>
</linearGradient>
<linearGradient id="paint32_linear_1477_8736" x1="114.5" y1="-371" x2="114.5" y2="1547.5" gradientUnits="userSpaceOnUse">
<stop stop-color="#F6F8FA"/>
<stop offset="0.5" stop-color="#E4E9ED"/>
<stop offset="1" stop-color="#F6F8FA"/>
</linearGradient>
<linearGradient id="paint33_linear_1477_8736" x1="114.5" y1="-371" x2="114.5" y2="1547.5" gradientUnits="userSpaceOnUse">
<stop stop-color="#F6F8FA"/>
<stop offset="0.5" stop-color="#E4E9ED"/>
<stop offset="1" stop-color="#F6F8FA"/>
</linearGradient>
<linearGradient id="paint34_linear_1477_8736" x1="114.5" y1="-371" x2="114.5" y2="1547.5" gradientUnits="userSpaceOnUse">
<stop stop-color="#F6F8FA"/>
<stop offset="0.5" stop-color="#E4E9ED"/>
<stop offset="1" stop-color="#F6F8FA"/>
</linearGradient>
<linearGradient id="paint35_linear_1477_8736" x1="114.5" y1="-371" x2="114.5" y2="1547.5" gradientUnits="userSpaceOnUse">
<stop stop-color="#F6F8FA"/>
<stop offset="0.5" stop-color="#E4E9ED"/>
<stop offset="1" stop-color="#F6F8FA"/>
</linearGradient>
<linearGradient id="paint36_linear_1477_8736" x1="114.5" y1="-371" x2="114.5" y2="1547.5" gradientUnits="userSpaceOnUse">
<stop stop-color="#F6F8FA"/>
<stop offset="0.5" stop-color="#E4E9ED"/>
<stop offset="1" stop-color="#F6F8FA"/>
</linearGradient>
<linearGradient id="paint37_linear_1477_8736" x1="114.5" y1="-371" x2="114.5" y2="1547.5" gradientUnits="userSpaceOnUse">
<stop stop-color="#F6F8FA"/>
<stop offset="0.5" stop-color="#E4E9ED"/>
<stop offset="1" stop-color="#F6F8FA"/>
</linearGradient>
<linearGradient id="paint38_linear_1477_8736" x1="114.5" y1="-371" x2="114.5" y2="1547.5" gradientUnits="userSpaceOnUse">
<stop stop-color="#F6F8FA"/>
<stop offset="0.5" stop-color="#E4E9ED"/>
<stop offset="1" stop-color="#F6F8FA"/>
</linearGradient>
<linearGradient id="paint39_linear_1477_8736" x1="114.5" y1="-371" x2="114.5" y2="1547.5" gradientUnits="userSpaceOnUse">
<stop stop-color="#F6F8FA"/>
<stop offset="0.5" stop-color="#E4E9ED"/>
<stop offset="1" stop-color="#F6F8FA"/>
</linearGradient>
<linearGradient id="paint40_linear_1477_8736" x1="114.5" y1="-371" x2="114.5" y2="1547.5" gradientUnits="userSpaceOnUse">
<stop stop-color="#F6F8FA"/>
<stop offset="0.5" stop-color="#E4E9ED"/>
<stop offset="1" stop-color="#F6F8FA"/>
</linearGradient>
<linearGradient id="paint41_linear_1477_8736" x1="114.5" y1="-371" x2="114.5" y2="1547.5" gradientUnits="userSpaceOnUse">
<stop stop-color="#F6F8FA"/>
<stop offset="0.5" stop-color="#E4E9ED"/>
<stop offset="1" stop-color="#F6F8FA"/>
</linearGradient>
<linearGradient id="paint42_linear_1477_8736" x1="114.5" y1="-371" x2="114.5" y2="1547.5" gradientUnits="userSpaceOnUse">
<stop stop-color="#F6F8FA"/>
<stop offset="0.5" stop-color="#E4E9ED"/>
<stop offset="1" stop-color="#F6F8FA"/>
</linearGradient>
<linearGradient id="paint43_linear_1477_8736" x1="114.5" y1="-371" x2="114.5" y2="1547.5" gradientUnits="userSpaceOnUse">
<stop stop-color="#F6F8FA"/>
<stop offset="0.5" stop-color="#E4E9ED"/>
<stop offset="1" stop-color="#F6F8FA"/>
</linearGradient>
</defs>
</svg>
