<svg width="682" height="1017" viewBox="0 0 682 1017" fill="none" xmlns="http://www.w3.org/2000/svg">
<path d="M491.247 518.079L365.393 551.377C358.587 543.447 348.03 538.813 336.454 540.291C322.384 542.109 310.728 553.495 308.633 567.557C306.637 581.061 312.944 593.245 323.182 599.857L301.148 723.244L328.511 728.138L350.764 603.453C362.06 599.797 370.622 590.109 372.717 578.184L498.353 544.945L491.247 518.059V518.079Z" fill="#EEF1F3" fill-opacity="0.8"/>
<path d="M340.731 305.321C193.262 305.321 73.7344 424.973 73.7344 572.55C73.7344 720.127 193.282 839.779 340.731 839.779C488.2 839.779 607.728 720.127 607.728 572.55C607.728 424.973 488.18 305.321 340.731 305.321ZM340.731 766.77C233.737 766.77 146.681 679.638 146.681 572.55C146.681 465.463 233.737 378.331 340.731 378.331C447.726 378.331 534.782 465.463 534.782 572.55C534.782 679.638 447.726 766.77 340.731 766.77Z" fill="#EEF1F3" fill-opacity="0.8"/>
<path d="M340.747 55.6309C314.223 55.6309 292.648 77.2241 292.648 103.771H388.866C388.866 77.2241 367.291 55.6309 340.767 55.6309H340.747Z" fill="#EEF1F3" fill-opacity="0.8"/>
<path d="M681.483 572.551C681.483 498.442 657.853 429.867 617.737 373.937C613.945 368.663 618.516 351.644 619.114 349.287C621.09 341.717 626.698 332.648 629.652 332.268C640.17 330.95 649.271 327.235 656.715 321.182C673.919 307.219 681.663 287.224 677.97 266.29C675.655 253.186 664.399 243.558 651.107 243.319C650.648 243.319 598.777 243.418 579.398 208.642C555.828 166.334 514.315 163.238 513.437 163.178C511.96 162.958 466.696 158.444 462.165 101.654C461.188 89.3493 452.386 79.4216 440.83 76.685C428.916 32.5597 388.561 0 340.741 0C292.922 0 252.567 32.5597 240.633 76.705C229.097 79.4216 220.295 89.3693 219.318 101.674C214.787 158.464 169.523 162.978 168.046 163.198C167.167 163.258 125.655 166.354 102.085 208.661C82.7056 243.438 30.8549 243.319 30.3759 243.339C17.084 243.578 5.82771 253.206 3.51259 266.31C-0.179621 287.244 7.56405 307.259 24.7678 321.202C32.2121 327.235 41.3129 330.97 51.8307 332.288C54.7845 332.648 60.3927 341.737 62.3685 349.307C62.9672 351.664 67.5376 368.683 63.7456 373.957C23.6302 429.867 0 498.442 0 572.551C0 646.659 24.169 716.812 65.1227 773.102C69.1941 778.715 69.3538 786.246 65.5418 792.039C58.2172 803.185 47.5398 820.723 46.0828 825.617C43.5881 834.067 45.3643 847.37 53.587 858.576C59.4347 866.546 71.1899 876.274 94.0417 877.393C96.736 877.533 100.568 878.212 103.741 880.269C124.238 893.533 133.858 921.398 136.273 928.53C143.038 948.565 160.781 962.088 182.974 960.969C191.317 965.763 201.296 970.897 217.96 970.358C209.039 980.066 207.981 995.007 216.304 1006.07C221.653 1013.18 230.314 1017 239.216 1017H442.188C451.089 1017 459.75 1013.16 465.099 1006.07C473.442 995.007 472.364 980.066 463.443 970.358C480.088 970.897 490.087 965.763 498.429 960.969C520.622 962.088 538.365 948.585 545.13 928.53C547.545 921.378 557.185 893.533 577.662 880.269C580.835 878.212 584.667 877.533 587.361 877.393C610.213 876.274 621.968 866.546 627.816 858.576C636.039 847.37 637.815 834.067 635.32 825.617C633.883 820.743 623.206 803.185 615.861 792.039C612.049 786.246 612.209 778.715 616.28 773.102C657.234 716.812 681.403 647.498 681.403 572.551H681.483ZM54.1059 304.543C49.3759 304.143 44.9452 301.906 41.3528 298.81C36.1238 294.295 30.4159 286.984 30.3959 276.557C30.3959 273.601 32.6312 271.104 35.565 270.884C52.1899 269.606 108.371 262.235 127.391 220.127C127.391 220.127 137.59 196.996 170.9 190.883C170.9 190.883 240.912 184.072 247.019 103.811H264.842C264.842 61.8634 298.83 27.8455 340.741 27.8455C382.653 27.8455 416.641 61.8634 416.641 103.811H434.464C440.591 184.092 510.583 190.883 510.583 190.883C543.893 196.996 554.092 220.127 554.092 220.127C573.111 262.235 629.293 269.626 645.918 270.884C648.832 271.104 651.087 273.581 651.087 276.517C651.087 286.984 645.379 294.295 640.13 298.81C636.538 301.926 632.107 304.143 627.377 304.543C601.711 306.74 592.79 340.079 592.191 342.416C529.883 274.26 440.311 231.513 340.741 231.513C241.171 231.513 151.6 274.26 89.2917 342.416C88.693 340.079 79.7718 306.74 54.1059 304.543ZM585.745 849.627C576.883 850.007 568.102 852.584 561.097 858.017C530.102 882.067 522.019 910.212 518.846 919.621C516.97 925.194 512.26 933.204 500.824 933.204C499.846 933.204 498.808 933.144 497.73 933.024C493.4 932.525 489.049 933.783 485.456 936.24C481.066 939.256 474.36 942.612 466.357 942.612C458.852 942.612 450.191 939.656 441.23 930.687L429.135 951.321C424.984 960.67 426.8 971.596 433.745 979.107L443.046 989.174H238.477L247.778 979.107C254.723 971.596 256.519 960.67 252.388 951.321L240.293 930.687C231.332 939.656 222.67 942.612 215.166 942.612C207.163 942.612 200.477 939.256 196.067 936.24C192.454 933.763 188.123 932.505 183.792 933.024C182.715 933.144 181.677 933.204 180.699 933.204C169.243 933.204 164.553 925.194 162.677 919.621C159.504 910.212 151.421 882.067 120.426 858.017C113.421 852.584 104.639 850.007 95.778 849.627C69.8926 848.489 74.0239 832.728 74.0239 832.728L90.3096 803.744C152.578 871.281 241.73 913.608 340.781 913.608C439.833 913.608 529.004 871.301 591.253 803.744L607.539 832.728C607.539 832.728 611.67 848.509 585.785 849.627H585.745ZM340.741 885.783C168.185 885.783 27.7814 745.277 27.7814 572.551C27.7814 399.825 168.165 259.319 340.741 259.319C513.318 259.319 653.702 399.825 653.702 572.551C653.702 745.277 513.318 885.783 340.741 885.783Z" fill="#EEF1F3" fill-opacity="0.8"/>
</svg>
