<svg width="481" height="471" viewBox="0 0 481 471" fill="none" xmlns="http://www.w3.org/2000/svg">
<path d="M240.295 0L203.523 88.0593H277.066L240.295 0Z" fill="#BDBDBD"/>
<path d="M244.133 379.914L393.334 470.765L371.814 379.914H244.133Z" fill="#41AD49"/>
<path d="M128.602 296.66L110.586 372.724H370.037L352.021 296.66L367.74 283.158H112.883L128.602 296.66Z" fill="#EFA320"/>
<path d="M108.817 380.149L87.2969 471L236.498 380.149H108.817Z" fill="#808080"/>
<path d="M309.348 165.317L280.195 95.498H200.422L171.27 165.317L7.375 178.715H473.242L309.348 165.317Z" fill="#2BBED3"/>
<path d="M0 186.141L104.214 275.719H376.398L480.612 186.141H0Z" fill="#90182C"/>
<path d="M139.151 223.128V226.296H145.524V229.463H139.151V234.41H135.062V219.96H146.394V223.128H139.151Z" fill="white"/>
<path d="M151.987 219.96H147.898V234.41H151.987V219.96Z" fill="white"/>
<mask id="mask0_639_137" style="mask-type:luminance" maskUnits="userSpaceOnUse" x="88" y="199" width="302" height="57">
<path d="M389.048 199.591H88.7109V255.337H389.048V199.591Z" fill="white"/>
</mask>
<g mask="url(#mask0_639_137)">
<path d="M159.813 230.579H157.581V234.422H153.492V219.973H160.099C164.045 219.973 166.511 222.011 166.511 225.322C166.511 227.451 165.485 229.021 163.681 229.878L166.796 234.422H162.422L159.8 230.579H159.813ZM159.852 223.179H157.581V227.412H159.852C161.54 227.412 162.383 226.633 162.383 225.309C162.383 223.984 161.54 223.179 159.852 223.179Z" fill="white"/>
<path d="M167.763 233.111L169.1 230.099C170.385 230.943 172.202 231.527 173.863 231.527C175.525 231.527 176.213 231.047 176.213 230.346C176.213 228.048 167.997 229.723 167.997 224.361C167.997 221.778 170.099 219.674 174.396 219.674C176.278 219.674 178.212 220.103 179.639 220.934L178.38 223.972C176.992 223.232 175.642 222.855 174.383 222.855C172.669 222.855 172.046 223.426 172.046 224.153C172.046 226.36 180.236 224.712 180.236 230.034C180.236 232.553 178.134 234.695 173.837 234.695C171.462 234.695 169.113 234.059 167.75 233.111" fill="white"/>
<path d="M185.619 223.206H181.18V219.96H194.12V223.206H189.694V234.409H185.619V223.206Z" fill="white"/>
<path d="M197.5 227.191C197.5 222.79 200.862 219.674 205.444 219.674C208.104 219.674 210.246 220.648 211.661 222.401L209.065 224.751C208.156 223.66 207.04 223.063 205.664 223.063C203.289 223.063 201.641 224.712 201.641 227.191C201.641 229.671 203.289 231.32 205.664 231.32C207.053 231.32 208.156 230.722 209.065 229.632L211.661 231.982C210.259 233.734 208.117 234.708 205.444 234.708C200.862 234.708 197.5 231.592 197.5 227.191Z" fill="white"/>
<path d="M213.172 227.191C213.172 222.855 216.573 219.674 221.193 219.674C225.814 219.674 229.215 222.855 229.215 227.191C229.215 231.527 225.814 234.708 221.193 234.708C216.573 234.708 213.172 231.527 213.172 227.191ZM225.1 227.191C225.1 224.699 223.387 223.063 221.193 223.063C219 223.063 217.299 224.699 217.299 227.191C217.299 229.684 219.013 231.32 221.193 231.32C223.374 231.32 225.1 229.684 225.1 227.191Z" fill="white"/>
<path d="M243.758 234.409L243.719 226.75L240.007 232.981H238.19L234.504 226.957V234.409H230.727V219.96H234.088L239.163 228.308L244.109 219.96H247.47L247.522 234.409H243.758Z" fill="white"/>
<path d="M262.029 234.409L261.977 226.75L258.265 232.981H256.448L252.761 226.957V234.409H248.984V219.96H252.346L257.421 228.308L262.379 219.96H265.741L265.78 234.409H262.029Z" fill="white"/>
<path d="M278.846 231.255V234.409H267.242V219.96H278.573V223.128H271.292V225.555H277.704V228.606H271.292V231.255H278.846Z" fill="white"/>
<path d="M286.376 230.579H284.143V234.422H280.055V219.973H286.661C290.607 219.973 293.073 222.011 293.073 225.322C293.073 227.451 292.048 229.021 290.244 229.878L293.359 234.422H288.985L286.363 230.579H286.376ZM286.415 223.179H284.143V227.412H286.415C288.102 227.412 288.946 226.633 288.946 225.309C288.946 223.984 288.102 223.179 286.415 223.179Z" fill="white"/>
<path d="M294.594 227.191C294.594 222.79 297.955 219.674 302.537 219.674C305.198 219.674 307.34 220.648 308.755 222.401L306.159 224.751C305.25 223.66 304.134 223.063 302.758 223.063C300.383 223.063 298.734 224.712 298.734 227.191C298.734 229.671 300.383 231.32 302.758 231.32C304.147 231.32 305.25 230.722 306.159 229.632L308.755 231.982C307.353 233.734 305.211 234.708 302.537 234.708C297.955 234.708 294.594 231.592 294.594 227.191Z" fill="white"/>
<path d="M321.846 231.255V234.409H310.242V219.96H321.573V223.128H314.292V225.555H320.704V228.606H314.292V231.255H321.846Z" fill="white"/>
<path d="M341.277 230.45C341.277 232.942 339.213 234.409 335.332 234.409H327.531V219.96H334.917C338.707 219.96 340.563 221.505 340.563 223.738C340.563 225.127 339.862 226.23 338.629 226.88C340.264 227.464 341.277 228.697 341.277 230.45ZM331.581 222.92V225.711H334.385C335.747 225.711 336.448 225.231 336.448 224.309C336.448 223.387 335.747 222.92 334.385 222.92H331.581ZM337.162 229.995C337.162 229.009 336.422 228.528 335.021 228.528H331.594V231.462H335.021C336.422 231.462 337.162 230.982 337.162 229.995Z" fill="white"/>
<path d="M353.339 231.605H347.225L346.096 234.409H341.93L348.303 219.96H352.326L358.725 234.409H354.481L353.352 231.605H353.339ZM352.145 228.593L350.289 223.972L348.432 228.593H352.145Z" fill="white"/>
<path d="M373.097 219.96V234.409H369.735L363.349 226.711V234.409H359.352V219.96H362.713L369.086 227.659V219.96H373.097Z" fill="white"/>
<path d="M380.199 229.268L378.68 230.891V234.487H374.656V220.116H378.68V226.088L384.248 220.116H388.726L382.846 226.477L389.025 234.487H384.313L380.199 229.268Z" fill="white"/>
<path d="M262.012 240.316H135.07V242.445H262.012V240.316Z" fill="white"/>
<path d="M267.959 237.811C269.621 237.811 270.425 238.447 270.425 239.628C270.425 240.381 269.932 241.056 269.244 241.225C270.14 241.394 270.646 241.991 270.646 242.9C270.646 243.938 270.01 244.951 268.18 244.951H265.766V237.811H267.946H267.959ZM266.661 240.835H268.115C269.114 240.835 269.53 240.329 269.53 239.628C269.53 238.992 269.205 238.602 267.959 238.602H266.661V240.835ZM266.661 244.146H268.18C269.257 244.146 269.75 243.679 269.75 242.9C269.75 242.043 269.192 241.64 268.011 241.64H266.661V244.133V244.146Z" fill="white"/>
<path d="M273.416 241.952H274.649V241.355C274.649 240.615 274.311 240.459 273.494 240.459C272.871 240.459 272.546 240.511 272.248 240.991L271.624 240.563C271.988 239.966 272.52 239.706 273.494 239.706C274.805 239.706 275.466 240.134 275.466 241.368V244.964H274.636V244.458C274.35 244.938 273.987 245.055 273.325 245.055C272.118 245.055 271.469 244.458 271.469 243.458C271.469 242.341 272.261 241.978 273.403 241.978M274.649 242.666H273.416C272.598 242.666 272.312 242.952 272.312 243.458C272.312 244.042 272.728 244.263 273.338 244.263C274.104 244.263 274.649 244.12 274.649 242.952V242.653V242.666Z" fill="white"/>
<path d="M276.82 239.771H277.651V240.277C277.911 239.888 278.274 239.68 279.04 239.68C280.143 239.68 280.922 240.264 280.922 241.705V244.938H280.091V241.718C280.091 240.667 279.52 240.446 278.91 240.446C278.131 240.446 277.651 240.991 277.651 241.705V244.938H276.82V239.758V239.771Z" fill="white"/>
<path d="M286.271 239.771L284.039 242.056L286.596 244.951H285.518L283.429 242.692L283.104 243.029V244.951H282.273V237.811H283.104V241.887L285.194 239.771H286.271Z" fill="white"/>
<path d="M287.414 237.811H288.349V238.745H287.414V237.811ZM287.466 239.771H288.297V244.951H287.466V239.771Z" fill="white"/>
<path d="M289.805 239.771H290.635V240.277C290.895 239.888 291.258 239.68 292.024 239.68C293.127 239.68 293.906 240.264 293.906 241.705V244.938H293.076V241.718C293.076 240.667 292.504 240.446 291.894 240.446C291.116 240.446 290.635 240.991 290.635 241.705V244.938H289.805V239.758V239.771Z" fill="white"/>
<path d="M298.468 239.771H299.299V244.847C299.299 246.288 298.468 246.976 297.079 246.976C296.184 246.976 295.626 246.743 295.262 246.106L295.911 245.652C296.132 246.042 296.469 246.236 297.144 246.236C298.04 246.236 298.468 245.743 298.468 244.847V244.497C298.183 244.86 297.741 245.029 297.053 245.029C295.652 245.029 294.977 244.042 294.977 242.692V242.004C294.977 240.524 295.768 239.68 297.053 239.68C297.741 239.68 298.183 239.901 298.468 240.277V239.758V239.771ZM298.468 242.692V242.004C298.468 241.03 297.988 240.433 297.144 240.433C296.3 240.433 295.82 241.017 295.82 242.004V242.692C295.82 243.575 296.262 244.289 297.144 244.289C298.092 244.289 298.468 243.588 298.468 242.692Z" fill="white"/>
<path d="M305.623 237.811C307.285 237.811 308.089 238.447 308.089 239.628C308.089 240.381 307.596 241.056 306.908 241.225C307.804 241.394 308.31 241.991 308.31 242.9C308.31 243.938 307.674 244.951 305.844 244.951H303.43V237.811H305.61H305.623ZM304.325 240.835H305.779C306.778 240.835 307.194 240.329 307.194 239.628C307.194 238.992 306.869 238.602 305.623 238.602H304.325V240.835ZM304.325 244.146H305.844C306.921 244.146 307.414 243.679 307.414 242.9C307.414 242.043 306.856 241.64 305.675 241.64H304.325V244.133V244.146Z" fill="white"/>
<path d="M313.5 244.951H312.669V244.445C312.41 244.834 312.046 245.042 311.28 245.042C310.177 245.042 309.398 244.458 309.398 243.017V239.784H310.229V243.004C310.229 244.055 310.8 244.276 311.41 244.276C312.189 244.276 312.669 243.731 312.669 243.017V239.784H313.5V244.964V244.951Z" fill="white"/>
<path d="M314.93 237.811H315.864V238.745H314.93V237.811ZM314.982 239.771H315.812V244.951H314.982V239.771Z" fill="white"/>
<path d="M317.312 237.798H318.143V243.146C318.143 243.705 318.169 244.185 319.026 244.185V244.951C317.715 244.951 317.312 244.432 317.312 243.354V237.798Z" fill="white"/>
<path d="M319.695 239.771H320.357V238.629H321.188V239.771H322.382V240.511H321.188V243.147C321.188 243.861 321.266 244.159 321.967 244.159H322.382V244.951H321.941C320.721 244.951 320.37 244.432 320.37 243.354V240.511H319.708V239.771H319.695Z" fill="white"/>
<path d="M326.222 239.771V239.394C326.222 238.317 326.572 237.798 327.792 237.798H328.026V238.59H327.818C327.13 238.59 327.04 238.888 327.04 239.602V239.771H328.026V240.511H327.04V244.938H326.209V240.511H325.547V239.771H326.209H326.222Z" fill="white"/>
<path d="M332.997 242.692C332.997 244.042 332.335 245.029 330.842 245.029C329.466 245.029 328.688 244.12 328.688 242.692V242.004C328.688 240.537 329.479 239.68 330.842 239.68C332.205 239.68 332.997 240.524 332.997 242.004V242.692ZM332.166 242.692V242.004C332.166 241.017 331.686 240.433 330.842 240.433C329.998 240.433 329.518 241.03 329.518 242.004V242.692C329.518 243.588 329.895 244.289 330.842 244.289C331.725 244.289 332.166 243.575 332.166 242.692Z" fill="white"/>
<path d="M336.897 240.887C336.677 240.589 336.417 240.459 336.028 240.459C335.392 240.459 334.924 240.939 334.924 241.705V244.951H334.094V239.771H334.924V240.277C335.145 239.914 335.496 239.693 336.132 239.693C336.832 239.693 337.287 239.927 337.611 240.394L336.91 240.887H336.897Z" fill="white"/>
<path d="M344.707 240.031C344.707 238.888 344.292 238.525 343.292 238.525C342.111 238.525 341.475 239.135 341.125 240.978L340.969 241.77C340.631 243.51 341.047 244.224 342.189 244.224C343.24 244.224 343.811 243.731 344.175 242.718H345.031C344.59 244.237 343.63 245.029 342.111 245.029C340.592 245.029 339.619 244.081 340.073 241.77L340.229 240.978C340.683 238.667 341.799 237.72 343.448 237.72C344.863 237.72 345.577 238.434 345.577 240.031H344.707Z" fill="white"/>
<path d="M350.112 242.692C349.84 244.055 349.113 245.029 347.542 245.029C346.335 245.029 345.531 244.081 345.803 242.692L345.933 242.004C346.244 240.407 347.179 239.68 348.529 239.68C349.879 239.68 350.515 240.576 350.242 242.004L350.112 242.692ZM349.282 242.692L349.412 242.004C349.632 240.875 349.23 240.433 348.386 240.433C347.542 240.433 346.984 240.875 346.764 242.004L346.634 242.692C346.452 243.64 346.751 244.289 347.646 244.289C348.633 244.289 349.1 243.653 349.282 242.692Z" fill="white"/>
<path d="M351.765 239.771H352.596L352.505 240.277C352.79 239.927 353.245 239.68 353.907 239.68C354.647 239.68 355.062 240.044 355.231 240.524C355.698 239.953 356.308 239.68 356.97 239.68C358.073 239.68 358.605 240.472 358.359 241.705L357.723 244.938H356.892L357.515 241.718C357.697 240.771 357.398 240.446 356.762 240.446C356.022 240.446 355.464 240.875 355.296 241.705L354.66 244.938H353.829L354.452 241.718C354.634 240.771 354.335 240.446 353.712 240.446C352.959 240.446 352.388 240.901 352.232 241.705L351.596 244.938H350.766L351.765 239.758V239.771Z" fill="white"/>
<path d="M360.046 239.771H360.877L360.786 240.277C361.072 239.927 361.526 239.68 362.188 239.68C362.928 239.68 363.343 240.044 363.512 240.524C363.979 239.953 364.589 239.68 365.251 239.68C366.354 239.68 366.887 240.472 366.64 241.705L366.004 244.938H365.173L365.796 241.718C365.978 240.771 365.679 240.446 365.043 240.446C364.304 240.446 363.746 240.875 363.577 241.705L362.941 244.938H362.11L362.733 241.718C362.915 240.771 362.616 240.446 361.993 240.446C361.24 240.446 360.669 240.901 360.514 241.705L359.878 244.938H359.047L360.046 239.758V239.771Z" fill="white"/>
<path d="M371.464 244.951H370.633L370.724 244.445C370.386 244.821 370.023 245.042 369.27 245.042C368.258 245.042 367.453 244.458 367.726 243.017L368.362 239.784H369.179L368.556 243.004C368.336 244.107 368.881 244.276 369.491 244.276C370.373 244.276 370.854 243.783 371.009 243.017L371.645 239.784H372.476L371.477 244.964L371.464 244.951Z" fill="white"/>
<path d="M373.817 239.771H374.648L374.557 240.277C374.894 239.888 375.297 239.693 376.063 239.68C377.062 239.68 377.828 240.264 377.555 241.705L376.919 244.938H376.089L376.712 241.718C376.932 240.615 376.439 240.446 375.777 240.446C374.998 240.446 374.44 240.849 374.271 241.705L373.635 244.938H372.805L373.804 239.758L373.817 239.771Z" fill="white"/>
<path d="M379.406 239.771H380.236L379.237 244.951H378.406L379.406 239.771ZM379.73 237.798H380.665L380.483 238.732H379.548L379.73 237.798Z" fill="white"/>
<path d="M381.263 239.771H381.925L382.145 238.629H382.976L382.755 239.771H383.949L383.807 240.511H382.612L382.106 243.147C381.964 243.925 381.989 244.159 382.69 244.159H383.106L382.95 244.951H382.509C381.418 244.951 381.055 244.354 381.25 243.354L381.795 240.511H381.133L381.276 239.771H381.263Z" fill="white"/>
<path d="M385.367 244.99L384.368 239.771H385.224L385.99 243.809L388.119 239.771H389.04L386.198 245.12C385.536 246.366 385.133 246.924 383.68 246.924L383.835 246.119C384.523 246.119 384.887 245.99 385.341 245.081L385.38 245.003L385.367 244.99Z" fill="white"/>
<path d="M335.626 249.106C344.062 246.081 353.356 245.886 362.273 246.275C368.763 246.483 375.889 247.223 382.34 248.08L388.959 249.093C388.959 249.093 389.037 249.132 389.024 249.183C389.024 249.222 388.972 249.248 388.933 249.248L382.275 248.534C375.811 247.989 368.698 247.457 362.247 247.47C353.356 247.6 344.465 247.82 335.678 249.248C335.587 249.274 335.535 249.145 335.626 249.106Z" fill="white"/>
<path d="M89.4954 215.299C89.7031 215.481 89.9627 215.611 90.2352 215.637C91.7279 215.767 92.2471 217.701 92.273 217.831C95.8944 213.884 101.086 211.405 106.862 211.405C112.638 211.405 117.83 213.884 121.451 217.831C121.49 217.688 122.01 215.767 123.489 215.637C123.762 215.611 124.021 215.481 124.229 215.299C124.528 215.04 124.865 214.611 124.865 214.001C124.865 213.832 124.735 213.689 124.567 213.676C123.606 213.599 120.335 213.17 119.232 210.729C119.232 210.729 118.635 209.392 116.714 209.029C116.714 209.029 112.651 208.639 112.301 203.979H111.262C111.262 201.551 109.289 199.578 106.862 199.578C104.435 199.578 102.462 201.551 102.462 203.979H101.424C101.073 208.639 97.0106 209.029 97.0106 209.029C95.0767 209.379 94.4926 210.729 94.4926 210.729C93.3893 213.17 90.1314 213.599 89.1579 213.676C88.9892 213.689 88.8594 213.832 88.8594 214.001C88.8594 214.611 89.1839 215.027 89.4954 215.286M106.875 201.2C108.42 201.2 109.666 202.46 109.666 203.992H104.085C104.085 202.46 105.331 201.2 106.875 201.2Z" fill="white"/>
<path d="M121.395 244.588C117.786 248.508 112.607 250.962 106.857 250.962C101.107 250.962 95.9415 248.508 92.3202 244.588L91.3727 246.262C91.3727 246.262 91.139 247.184 92.6317 247.249C93.1509 247.275 93.6571 247.418 94.0595 247.742C95.8636 249.144 96.3309 250.767 96.5126 251.313C96.6165 251.637 96.889 252.104 97.564 252.104C97.6159 252.104 97.6808 252.104 97.7457 252.104C97.9923 252.078 98.2519 252.143 98.4596 252.286C98.7192 252.455 99.1086 252.65 99.5628 252.65C100.004 252.65 100.497 252.481 101.017 251.962L101.717 253.156C101.951 253.701 101.847 254.324 101.445 254.766L100.9 255.35H112.763L112.218 254.766C111.816 254.324 111.712 253.701 111.945 253.156L112.646 251.962C113.166 252.481 113.672 252.65 114.1 252.65C114.567 252.65 114.957 252.455 115.203 252.286C115.411 252.143 115.658 252.065 115.917 252.104C115.982 252.104 116.047 252.104 116.099 252.104C116.761 252.104 117.034 251.637 117.15 251.313C117.332 250.767 117.799 249.131 119.603 247.742C120.006 247.431 120.525 247.275 121.031 247.249C122.537 247.184 122.29 246.262 122.29 246.262L121.343 244.588H121.395Z" fill="white"/>
<path d="M106.86 242.446C113.064 242.446 118.127 237.395 118.127 231.19C118.127 224.984 113.077 219.921 106.86 219.921C100.643 219.921 95.5938 224.971 95.5938 231.19C95.5938 237.408 100.643 242.446 106.86 242.446ZM104.991 230.891C105.108 230.073 105.783 229.411 106.601 229.307C107.275 229.217 107.886 229.489 108.275 229.944L115.582 228.009L115.998 229.567L108.703 231.488C108.586 232.176 108.08 232.735 107.431 232.955L106.133 240.187L104.55 239.901L105.835 232.748C105.238 232.358 104.874 231.657 104.991 230.878" fill="white"/>
<path d="M106.87 249.339C116.877 249.339 125.028 241.186 125.028 231.177C125.028 221.167 116.877 213.014 106.87 213.014C96.8622 213.014 88.7109 221.167 88.7109 231.177C88.7109 241.186 96.8622 249.339 106.87 249.339ZM106.87 215.689C115.423 215.689 122.367 222.621 122.367 231.19C122.367 239.758 115.436 246.691 106.87 246.691C98.3029 246.691 91.3718 239.758 91.3718 231.19C91.3718 222.621 98.3029 215.689 106.87 215.689Z" fill="white"/>
</g>
<path d="M231.382 57.2H239.254V74H234.502V60.872H231.382V57.2ZM244.349 74.216C242.813 74.216 241.613 73.088 241.613 71.504C241.613 69.872 242.813 68.816 244.349 68.816C245.909 68.816 247.085 69.872 247.085 71.504C247.085 73.088 245.909 74.216 244.349 74.216Z" fill="white"/>
<path d="M236.121 152.232H242.601V156H229.521V153.024L235.809 147.144C237.153 145.896 237.345 145.128 237.345 144.432C237.345 143.352 236.625 142.704 235.185 142.704C233.961 142.704 232.857 143.256 232.185 144.336L228.657 142.368C229.929 140.256 232.305 138.864 235.617 138.864C239.481 138.864 242.145 140.856 242.145 143.976C242.145 145.608 241.689 147.096 239.289 149.304L236.121 152.232ZM246.786 156.216C245.25 156.216 244.05 155.088 244.05 153.504C244.05 151.872 245.25 150.816 246.786 150.816C248.346 150.816 249.522 151.872 249.522 153.504C249.522 155.088 248.346 156.216 246.786 156.216Z" fill="white"/>
<path d="M238.303 328.92C241.135 329.52 242.623 331.344 242.623 333.744C242.623 336.6 240.367 339.336 235.303 339.336C232.975 339.336 230.503 338.76 228.775 337.68L230.503 334.104C231.847 335.016 233.575 335.496 235.159 335.496C236.767 335.496 237.823 334.872 237.823 333.744C237.823 332.736 237.079 332.112 235.255 332.112H233.263V329.112L236.263 325.872H229.639V322.2H241.783V325.176L238.303 328.92ZM246.716 339.216C245.18 339.216 243.98 338.088 243.98 336.504C243.98 334.872 245.18 333.816 246.716 333.816C248.276 333.816 249.452 334.872 249.452 336.504C249.452 338.088 248.276 339.216 246.716 339.216Z" fill="white"/>
<path d="M349.121 413.016V416.784H346.625V420H341.993V416.784H333.113V413.688L340.649 403.2H345.569L338.729 413.016H342.137V410.16H346.625V413.016H349.121ZM353.122 420.216C351.586 420.216 350.386 419.088 350.386 417.504C350.386 415.872 351.586 414.816 353.122 414.816C354.682 414.816 355.858 415.872 355.858 417.504C355.858 419.088 354.682 420.216 353.122 420.216Z" fill="white"/>
<path d="M133.509 420.336C132.357 420.336 131.197 420.192 130.029 419.904C128.861 419.616 127.853 419.208 127.005 418.68L128.709 415.104C129.397 415.552 130.141 415.896 130.941 416.136C131.757 416.376 132.565 416.496 133.365 416.496C134.165 416.496 134.813 416.344 135.309 416.04C135.805 415.72 136.053 415.28 136.053 414.72C136.053 414.384 135.957 414.088 135.765 413.832C135.573 413.56 135.245 413.36 134.781 413.232C134.317 413.088 133.653 413.016 132.789 413.016H128.229L129.069 403.2H139.773V406.872H130.749L133.173 404.784L132.621 411.408L130.197 409.32H133.917C135.581 409.32 136.917 409.56 137.925 410.04C138.933 410.504 139.669 411.136 140.133 411.936C140.597 412.72 140.829 413.608 140.829 414.6C140.829 415.592 140.565 416.528 140.036 417.408C139.525 418.272 138.733 418.976 137.661 419.52C136.589 420.064 135.205 420.336 133.509 420.336ZM144.775 420.216C144.007 420.216 143.359 419.96 142.831 419.448C142.303 418.936 142.039 418.288 142.039 417.504C142.039 416.688 142.303 416.04 142.831 415.56C143.359 415.064 144.007 414.816 144.775 414.816C145.543 414.816 146.191 415.064 146.719 415.56C147.247 416.04 147.511 416.688 147.511 417.504C147.511 418.288 147.247 418.936 146.719 419.448C146.191 419.96 145.543 420.216 144.775 420.216Z" fill="white"/>
</svg>
