<svg id="noun_Car_2664292" xmlns="http://www.w3.org/2000/svg" width="60.067" height="43.838" viewBox="0 0 60.067 43.838">
  <g id="noun_Car_2664292-2" data-name="noun_Car_2664292" transform="translate(0)">
    <path id="Shape" d="M55.73,43.838H52.555a2.571,2.571,0,0,1-1.8-.767,2.47,2.47,0,0,1-.707-1.78,2.49,2.49,0,0,0-.691-1.814,2.633,2.633,0,0,0-1.811-.8H12.517a2.629,2.629,0,0,0-1.811.8,2.486,2.486,0,0,0-.691,1.814,2.465,2.465,0,0,1-.708,1.78,2.57,2.57,0,0,1-1.795.767H4.337A3.655,3.655,0,0,1,1,41.714a12.524,12.524,0,0,1-1-5.269V23.836a7.826,7.826,0,0,1,2.2-5.47l1.58-1.627a14.406,14.406,0,0,0,1.309-1.583l-3.8-.524a1.5,1.5,0,0,1-1.225-.767.766.766,0,0,1,.126-.8,10.4,10.4,0,0,1,6.305-2.5A3.148,3.148,0,0,0,8.765,9.026L10.288,6.41a11,11,0,0,1,7.281-5.328A63.563,63.563,0,0,1,29.237,0c.262,0,.53,0,.8,0s.535,0,.8,0A63.56,63.56,0,0,1,42.5,1.082,11,11,0,0,1,49.779,6.41L51.3,9.026a3.148,3.148,0,0,0,2.268,1.538,10.4,10.4,0,0,1,6.305,2.5.766.766,0,0,1,.126.8,1.5,1.5,0,0,1-1.225.767l-3.8.524a14.539,14.539,0,0,0,1.311,1.583l1.581,1.627a7.83,7.83,0,0,1,2.2,5.47V36.445a12.538,12.538,0,0,1-1,5.269A3.654,3.654,0,0,1,55.73,43.838ZM45.047,24.357a2.472,2.472,0,0,0-2.5,2.435v2.436a2.472,2.472,0,0,0,2.5,2.435h2.5a2.472,2.472,0,0,0,2.5-2.435V26.791a2.472,2.472,0,0,0-2.5-2.435Zm-32.531,0a2.472,2.472,0,0,0-2.5,2.435v2.436a2.472,2.472,0,0,0,2.5,2.435h2.5a2.472,2.472,0,0,0,2.5-2.435V26.791a2.472,2.472,0,0,0-2.5-2.435ZM20.729,5.146a7.959,7.959,0,0,0-4.322,1.268,7.643,7.643,0,0,0-2.891,3.4l-.608,1.878a.779.779,0,0,0,.133.724,1.349,1.349,0,0,0,1.087.483H45.941a1.347,1.347,0,0,0,1.086-.483.777.777,0,0,0,.132-.723l-.607-1.878a7.643,7.643,0,0,0-2.892-3.4,7.956,7.956,0,0,0-4.322-1.268c-.163,0-.329.005-.494.015H21.223C21.058,5.151,20.892,5.146,20.729,5.146Z" transform="translate(0)" fill="#00577d"/>
  </g>
</svg>
