<svg id="noun_paycheck_1726532" xmlns="http://www.w3.org/2000/svg" width="69.413" height="44.83" viewBox="0 0 69.413 44.83">
  <g id="noun_paycheck_1726532-2" data-name="noun_paycheck_1726532">
    <path id="Combined_Shape" data-name="Combined Shape" d="M69.228,44.474H6.923V11.119H69.228V44.474h0ZM25.384,37.8H64.613V35.579H25.384Zm-9.23-2.224V37.8h2.307V35.579a4.45,4.45,0,1,0,0-8.894V22.237a2.269,2.269,0,0,1,2.307,2.224h2.308a4.343,4.343,0,0,0-1.354-3.143,4.673,4.673,0,0,0-3.262-1.3V17.79H16.153v2.224a4.451,4.451,0,1,0,0,8.895v4.447a2.269,2.269,0,0,1-2.307-2.224H11.538A4.539,4.539,0,0,0,16.153,35.579Zm2.307-6.671a2.225,2.225,0,1,1,0,4.447ZM0,33.356V0H62.305V8.895H4.615V33.356Zm13.845-8.895a2.274,2.274,0,0,1,2.308-2.224v4.448A2.274,2.274,0,0,1,13.845,24.461Z" fill="#00577d"/>
  </g>
</svg>
