<svg xmlns="http://www.w3.org/2000/svg" width="17.551" height="17.551" viewBox="0 0 17.551 17.551">
  <path id="Combined_Shape" data-name="Combined Shape" d="M15.547,17.365,8.775,10.593,2,17.365a.641.641,0,0,1-.906,0l-.909-.909a.641.641,0,0,1,0-.906L6.957,8.775.186,2a.641.641,0,0,1,0-.906L1.1.189A.641.641,0,0,1,2,.186L8.775,6.957,15.547.186a.641.641,0,0,1,.906,0l.909.909a.641.641,0,0,1,0,.906L10.593,8.775l6.771,6.771a.641.641,0,0,1,0,.906l-.909.909a.643.643,0,0,1-.456.189A.635.635,0,0,1,15.547,17.365Z" transform="translate(0 0)" fill="#00577d"/>
</svg>
