<svg xmlns="http://www.w3.org/2000/svg" width="124.244" height="42.8" viewBox="0 0 124.244 42.8">
  <g id="Group_10" data-name="Group 10" transform="translate(0 0)">
    <g id="Member_FDIC" data-name="Member FDIC" transform="translate(0 0.225)">
      <path id="Shape" d="M63.286,42.575c-.487,0-.977-.023-1.456-.067s-.949-.11-1.412-.2-.916-.194-1.36-.322-.878-.275-1.3-.442-.836-.352-1.236-.556-.79-.426-1.164-.664-.739-.5-1.086-.768-.683-.563-1-.866-.623-.626-.908-.958-.558-.685-.809-1.045a13.14,13.14,0,0,1-1.293-2.331,13.362,13.362,0,0,1-.471-1.275,13.635,13.635,0,0,1-.345-1.34,14.058,14.058,0,0,1-.212-1.4c-.048-.478-.072-.967-.072-1.455a14.5,14.5,0,0,1,.073-1.457,14.043,14.043,0,0,1,.215-1.407,13.748,13.748,0,0,1,.35-1.35,13.493,13.493,0,0,1,1.076-2.506c.217-.391.457-.776.712-1.144s.53-.723.819-1.063.6-.667.919-.977.661-.607,1.012-.884.72-.542,1.1-.785.775-.473,1.177-.681.824-.4,1.249-.571.869-.324,1.313-.454.91-.243,1.371-.332.945-.158,1.422-.2.976-.069,1.466-.069a16.685,16.685,0,0,1,1.693.081,13.779,13.779,0,0,1,1.518.238,14.408,14.408,0,0,1,1.426.385c.445.144.909.315,1.417.523v7.113c-.574-.354-1.042-.625-1.475-.853a11.908,11.908,0,0,0-1.392-.632,8.3,8.3,0,0,0-1.41-.393c-.243-.045-.493-.079-.744-.1s-.519-.034-.787-.034a7.432,7.432,0,0,0-1.435.139,7.11,7.11,0,0,0-1.333.4A6.879,6.879,0,0,0,57.8,24.43a7.047,7.047,0,0,0-.651,1.228,7.352,7.352,0,0,0-.411,1.379,7.911,7.911,0,0,0-.143,1.507,8.242,8.242,0,0,0,.141,1.533,7.355,7.355,0,0,0,.406,1.387,6.838,6.838,0,0,0,.644,1.222,6.6,6.6,0,0,0,1.9,1.879,6.863,6.863,0,0,0,1.205.622,7.272,7.272,0,0,0,1.34.386,7.88,7.88,0,0,0,1.449.133,9.007,9.007,0,0,0,1.468-.113,8.181,8.181,0,0,0,1.38-.353,14.987,14.987,0,0,0,2.959-1.5v7.113c-.185.142-.379.275-.575.4s-.409.241-.622.347-.443.206-.674.295-.48.171-.731.243-.52.136-.793.19-.564.1-.861.136-.612.064-.933.082S63.634,42.575,63.286,42.575Zm-15.011-.139H40.843V15.5h7.432V42.436Zm-40.608,0H.237V15.5H15.493v6.23H7.717l.049,4.17h7.185v6.23H7.717l-.049,10.3Zm16.688,0H16.531V15.5h9.5a17.056,17.056,0,0,1,5.8.948,12.421,12.421,0,0,1,4.42,2.7,11.786,11.786,0,0,1,2.814,4.236,15.144,15.144,0,0,1,.987,5.556c0,.562-.024,1.116-.07,1.647s-.116,1.044-.209,1.538a14.062,14.062,0,0,1-.343,1.43,12.533,12.533,0,0,1-.474,1.322,11.509,11.509,0,0,1-.6,1.214,10.942,10.942,0,0,1-.726,1.106,10.807,10.807,0,0,1-.846,1,11.088,11.088,0,0,1-.963.893,11.786,11.786,0,0,1-1.076.786,12.906,12.906,0,0,1-1.185.68c-.41.208-.844.4-1.291.575s-.913.331-1.393.469-.98.261-1.492.364-1.044.191-1.587.26-1.106.121-1.678.156S24.957,42.436,24.356,42.436Zm1.085-20.754c-.149,0-.315.009-.506.019h0c-.251.014-.536.029-.87.029v14.52h0a15.83,15.83,0,0,0,1.752-.093,11.711,11.711,0,0,0,1.62-.293c.258-.067.511-.143.751-.227s.481-.181.706-.285a7.12,7.12,0,0,0,.657-.345,6.409,6.409,0,0,0,.6-.407,5.954,5.954,0,0,0,.548-.472,5.759,5.759,0,0,0,.487-.54,5.824,5.824,0,0,0,.423-.61,6.172,6.172,0,0,0,.355-.682,6.838,6.838,0,0,0,.283-.757,7.859,7.859,0,0,0,.207-.835c.056-.292.1-.6.127-.915s.043-.655.043-1c0-.294-.012-.585-.035-.864s-.058-.547-.1-.808-.1-.51-.17-.752a7.107,7.107,0,0,0-.233-.7,6.488,6.488,0,0,0-.293-.639,6.075,6.075,0,0,0-.35-.583,5.8,5.8,0,0,0-.859-1A7.406,7.406,0,0,0,25.441,21.682Zm21.847-10a3.868,3.868,0,0,1-.745-.066,2.78,2.78,0,0,1-.639-.2,3.644,3.644,0,0,1-1.126-.859l-.689.932H43.056V2.652a5.849,5.849,0,0,0-.035-.789,1.2,1.2,0,0,0-.063-.259.575.575,0,0,0-.111-.185.528.528,0,0,0-.171-.123.994.994,0,0,0-.243-.073,4.353,4.353,0,0,0-.755-.044V0h3.445v4.17c.246-.206.457-.37.648-.5a3.778,3.778,0,0,1,.583-.334,2.861,2.861,0,0,1,1.23-.245,2.9,2.9,0,0,1,1.909.688,3.273,3.273,0,0,1,.479.5,3.817,3.817,0,0,1,.386.616,4.536,4.536,0,0,1,.286.719,5.82,5.82,0,0,1,.238,1.694,6.28,6.28,0,0,1-.243,1.8,3.994,3.994,0,0,1-.7,1.377,3.1,3.1,0,0,1-1.129.88A3.625,3.625,0,0,1,47.288,11.678ZM46.9,4.512a1.975,1.975,0,0,0-.446.048,1.488,1.488,0,0,0-.379.143,1.393,1.393,0,0,0-.314.236,1.66,1.66,0,0,0-.252.327,2.342,2.342,0,0,0-.192.417,3.567,3.567,0,0,0-.134.505,5.5,5.5,0,0,0-.079.591c-.017.209-.026.436-.026.676a3.914,3.914,0,0,0,.461,2.023,1.672,1.672,0,0,0,.556.57,1.441,1.441,0,0,0,.754.2,1.341,1.341,0,0,0,.663-.17,1.594,1.594,0,0,0,.548-.529,2.879,2.879,0,0,0,.373-.915,5.808,5.808,0,0,0,.138-1.329,5.534,5.534,0,0,0-.123-1.223,2.8,2.8,0,0,0-.345-.874,1.541,1.541,0,0,0-.529-.524A1.342,1.342,0,0,0,46.9,4.512ZM56.54,11.63a4.916,4.916,0,0,1-1.642-.265,3.666,3.666,0,0,1-1.31-.789,3.563,3.563,0,0,1-.868-1.3,4.964,4.964,0,0,1-.314-1.81,5.241,5.241,0,0,1,.283-1.738,4.383,4.383,0,0,1,.34-.743,3.956,3.956,0,0,1,.46-.64,3.686,3.686,0,0,1,.571-.523,3.607,3.607,0,0,1,.672-.391,3.934,3.934,0,0,1,1.612-.33,3.81,3.81,0,0,1,1.568.318,3.343,3.343,0,0,1,1.194.9,4.1,4.1,0,0,1,.76,1.408,6.022,6.022,0,0,1,.267,1.836H54.67a3.165,3.165,0,0,0,.535,1.913,1.8,1.8,0,0,0,.648.543,1.988,1.988,0,0,0,.884.193,2.585,2.585,0,0,0,.413-.032,1.925,1.925,0,0,0,.357-.093,1.591,1.591,0,0,0,.3-.15,1.514,1.514,0,0,0,.254-.2,1.669,1.669,0,0,0,.208-.255,2.066,2.066,0,0,0,.166-.3,3.205,3.205,0,0,0,.217-.731h1.476a4.224,4.224,0,0,1-.388,1.367,3.159,3.159,0,0,1-.762,1,3.2,3.2,0,0,1-1.085.613A4.252,4.252,0,0,1,56.54,11.63Zm-.2-7.267a1.662,1.662,0,0,0-.661.126,1.318,1.318,0,0,0-.5.37,1.681,1.681,0,0,0-.311.6,2.866,2.866,0,0,0-.108.816h3.1a3.36,3.36,0,0,0-.093-.837,1.891,1.891,0,0,0-.117-.329,1.389,1.389,0,0,0-.165-.269,1.174,1.174,0,0,0-.213-.209,1.206,1.206,0,0,0-.263-.149,1.491,1.491,0,0,0-.312-.09A2.086,2.086,0,0,0,56.343,4.363ZM20.762,11.63a4.979,4.979,0,0,1-1.65-.265,3.749,3.749,0,0,1-1.327-.789,3.579,3.579,0,0,1-.884-1.3,4.866,4.866,0,0,1-.321-1.81,5.458,5.458,0,0,1,.074-.906,4.858,4.858,0,0,1,.216-.832,4.366,4.366,0,0,1,.348-.743,3.992,3.992,0,0,1,.469-.64,3.757,3.757,0,0,1,.58-.523,3.69,3.69,0,0,1,.68-.391,3.983,3.983,0,0,1,1.619-.33A3.429,3.429,0,0,1,23.3,4.314a4.1,4.1,0,0,1,.744,1.408,6.173,6.173,0,0,1,.259,1.836H18.843a3.825,3.825,0,0,0,.144,1.076,2.5,2.5,0,0,0,.416.837,1.868,1.868,0,0,0,.665.543,2.035,2.035,0,0,0,.891.193,2.585,2.585,0,0,0,.413-.032,1.926,1.926,0,0,0,.357-.093,1.59,1.59,0,0,0,.3-.15,1.513,1.513,0,0,0,.254-.2,1.669,1.669,0,0,0,.208-.255,2.065,2.065,0,0,0,.165-.3,3.2,3.2,0,0,0,.217-.731h1.427a4.344,4.344,0,0,1-.381,1.367,3.051,3.051,0,0,1-1.813,1.613A4.185,4.185,0,0,1,20.762,11.63Zm-.2-7.267a1.662,1.662,0,0,0-.661.126,1.318,1.318,0,0,0-.5.37,1.68,1.68,0,0,0-.311.6,2.866,2.866,0,0,0-.108.816h3.052a4.354,4.354,0,0,0-.023-.463,2.844,2.844,0,0,0-.069-.4,1.892,1.892,0,0,0-.115-.33,1.353,1.353,0,0,0-.162-.266,1.124,1.124,0,0,0-.208-.2,1.151,1.151,0,0,0-.254-.143,1.436,1.436,0,0,0-.3-.085A2.034,2.034,0,0,0,20.566,4.363Zm20.522,7.018H36.265V10.105h0c.58,0,.883-.023,1.032-.153a.429.429,0,0,0,.129-.281,3.8,3.8,0,0,0,.018-.5V6.23a5.149,5.149,0,0,0-.046-.773,1.552,1.552,0,0,0-.175-.552.8.8,0,0,0-.36-.331,1.4,1.4,0,0,0-.6-.11,1.722,1.722,0,0,0-.84.205,1.754,1.754,0,0,0-.6.555,2.6,2.6,0,0,0-.36.812,3.844,3.844,0,0,0-.12.978V9.026c0,.5.027.762.178.907a.441.441,0,0,0,.141.089.9.9,0,0,0,.2.052,4.059,4.059,0,0,0,.613.031V11.38H31.1V10.105h0a3.693,3.693,0,0,0,.69-.046.651.651,0,0,0,.368-.175.48.48,0,0,0,.094-.153.918.918,0,0,0,.052-.206,4.465,4.465,0,0,0,.026-.6V6.034a2.709,2.709,0,0,0-.062-.61,1.557,1.557,0,0,0-.084-.259,1.143,1.143,0,0,0-.125-.222.961.961,0,0,0-.171-.181.991.991,0,0,0-.222-.135,1.258,1.258,0,0,0-.278-.084,1.843,1.843,0,0,0-.338-.029,1.687,1.687,0,0,0-.8.189,1.618,1.618,0,0,0-.568.516,2.392,2.392,0,0,0-.338.764,3.73,3.73,0,0,0-.111.934V8.29a3.5,3.5,0,0,0,.148,1.5.542.542,0,0,0,.351.242,3.237,3.237,0,0,0,.683.077V11.38H25.536V10.105h.019a8.694,8.694,0,0,0,.928-.028,1.189,1.189,0,0,0,.285-.064.5.5,0,0,0,.191-.125c.2-.215.2-.644.2-1.5h0v-2.7A3.379,3.379,0,0,0,27.114,5a.754.754,0,0,0-.078-.217.464.464,0,0,0-.134-.149,1,1,0,0,0-.489-.146c-.211-.022-.471-.026-.877-.026V3.287h3.691V4.611A4.259,4.259,0,0,1,30.4,3.477a2.973,2.973,0,0,1,.35-.184,2.862,2.862,0,0,1,.378-.137,2.969,2.969,0,0,1,.409-.085,3.313,3.313,0,0,1,.443-.029,3.176,3.176,0,0,1,.42.027,2.613,2.613,0,0,1,.378.079,2.318,2.318,0,0,1,.339.127,2.247,2.247,0,0,1,.3.172,3.006,3.006,0,0,1,.923,1.067,7.634,7.634,0,0,1,.674-.636,3.87,3.87,0,0,1,.655-.443A3.054,3.054,0,0,1,37.15,3.09a3.942,3.942,0,0,1,.653.05,2.409,2.409,0,0,1,.526.148,1.715,1.715,0,0,1,.412.242,1.6,1.6,0,0,1,.31.333,2.4,2.4,0,0,1,.362.924,6.531,6.531,0,0,1,.1,1.246V9.321a2.176,2.176,0,0,0,.029.438.35.35,0,0,0,.145.235.75.75,0,0,0,.346.1c.154.015.349.018.634.018h.421v1.275Zm25.59,0H61.363V10.105h0a8.735,8.735,0,0,0,.936-.033.918.918,0,0,0,.482-.157.424.424,0,0,0,.117-.152.783.783,0,0,0,.06-.216,4.958,4.958,0,0,0,.025-.668V5.543c0-1.079-.344-1.079-1.624-1.079V3.286h3.642V4.415a7.322,7.322,0,0,1,.569-.58,3.572,3.572,0,0,1,.55-.414,2.314,2.314,0,0,1,.569-.248,2.282,2.282,0,0,1,.624-.083,2.007,2.007,0,0,1,.749.139,1.745,1.745,0,0,1,.981.978,1.989,1.989,0,0,1,.14.747,1.815,1.815,0,0,1-.1.6,1.353,1.353,0,0,1-.272.465,1.2,1.2,0,0,1-.42.3,1.364,1.364,0,0,1-.54.106,1.262,1.262,0,0,1-.447-.079,1.08,1.08,0,0,1-.359-.221,1.008,1.008,0,0,1-.239-.341,1.143,1.143,0,0,1-.025-.807,1.054,1.054,0,0,1,.172-.305,1.424,1.424,0,0,1,.265-.25,2.288,2.288,0,0,1,.339-.2,1.327,1.327,0,0,0-.493-.1,1.908,1.908,0,0,0-.511.066,1.6,1.6,0,0,0-.428.189,1.872,1.872,0,0,0-.624.683,4.474,4.474,0,0,0-.455,2.152V8.977c0,.542.031.825.21.972a.739.739,0,0,0,.394.133,6.608,6.608,0,0,0,.7.023h.317V11.38Zm-61.412,0H0V10.105H0a5.6,5.6,0,0,0,1-.064.928.928,0,0,0,.511-.23A.757.757,0,0,0,1.7,9.36a5.667,5.667,0,0,0,.027-.727V2.6a3.1,3.1,0,0,0-.061-.737.758.758,0,0,0-.094-.227.5.5,0,0,0-.152-.152,1.131,1.131,0,0,0-.523-.14C.661,1.324.37,1.324,0,1.324V0H5.266L7.727,7.211,10.385,0H15.6V1.324h0c-.213,0-.4.005-.557.017a3.576,3.576,0,0,0-.432.053,1.6,1.6,0,0,0-.321.093.831.831,0,0,0-.226.138.75.75,0,0,0-.234.424,3.107,3.107,0,0,0-.049.649V8.977a2.868,2.868,0,0,0,.035.569.645.645,0,0,0,.074.2.477.477,0,0,0,.137.147,1.211,1.211,0,0,0,.543.169A8.36,8.36,0,0,0,15.6,10.1V11.38H9.5V10.1c1.87-.1,1.87-.1,1.87-1.422V2.4l-3.4,8.977H6.644L3.494,2.4V8.83a2.32,2.32,0,0,0,.062.627.669.669,0,0,0,.252.379,1.268,1.268,0,0,0,.538.195,6.784,6.784,0,0,0,.921.075V11.38Z" transform="translate(0)" fill="#00577d"/>
    </g>
    <g id="Equal_Housing" data-name="Equal Housing" transform="translate(84.244 0)">
      <g id="equal-housing" transform="translate(0)">
        <path id="Shape-2" data-name="Shape" d="M13.963,42.382a1.562,1.562,0,0,1-.31-.031,1.476,1.476,0,0,1-.29-.091,1.444,1.444,0,0,1-.264-.149,1.474,1.474,0,0,1-.231-.2,1.66,1.66,0,0,1-.337-.569,2.275,2.275,0,0,1-.124-.767,1.721,1.721,0,0,1,.124-.647,1.665,1.665,0,0,1,.144-.278,1.629,1.629,0,0,1,.189-.24,1.578,1.578,0,0,1,.226-.2,1.507,1.507,0,0,1,.256-.148,1.431,1.431,0,0,1,.279-.093,1.376,1.376,0,0,1,.3-.032,1.469,1.469,0,0,1,.884.289,1.541,1.541,0,0,1,.229.208,1.821,1.821,0,0,1,.445,1.226,2.116,2.116,0,0,1-.118.716,1.6,1.6,0,0,1-.322.542,1.4,1.4,0,0,1-.48.344A1.482,1.482,0,0,1,13.963,42.382Zm-.046-2.777a.624.624,0,0,0-.149.018.681.681,0,0,0-.145.054.762.762,0,0,0-.135.088.863.863,0,0,0-.121.121,1.042,1.042,0,0,0-.181.333,1.4,1.4,0,0,0-.069.445,1.377,1.377,0,0,0,.07.445,1.012,1.012,0,0,0,.186.333.815.815,0,0,0,.27.209.739.739,0,0,0,.32.072.713.713,0,0,0,.567-.3,1.073,1.073,0,0,0,.171-.335,1.422,1.422,0,0,0,.063-.427,1.4,1.4,0,0,0-.063-.427,1.04,1.04,0,0,0-.176-.335.8.8,0,0,0-.268-.219A.751.751,0,0,0,13.917,39.605Zm10.5,2.776a1.413,1.413,0,0,1-.462-.073,1.045,1.045,0,0,1-.366-.214.959.959,0,0,1-.241-.346,1.23,1.23,0,0,1-.087-.47V39.026h.667v2.031a.915.915,0,0,0,.117.5.431.431,0,0,0,.165.15.551.551,0,0,0,.252.055.507.507,0,0,0,.227-.048.391.391,0,0,0,.152-.135.614.614,0,0,0,.085-.209,1.254,1.254,0,0,0,.026-.271V39.025h.667v2.164a1.469,1.469,0,0,1-.081.5.984.984,0,0,1-.613.609A1.5,1.5,0,0,1,24.42,42.381ZM3.227,42.363a1.562,1.562,0,0,1-.31-.031,1.474,1.474,0,0,1-.29-.091,1.443,1.443,0,0,1-.264-.149,1.474,1.474,0,0,1-.231-.2,1.661,1.661,0,0,1-.337-.569,2.276,2.276,0,0,1-.124-.767,1.721,1.721,0,0,1,.124-.647,1.664,1.664,0,0,1,.144-.278,1.629,1.629,0,0,1,.189-.24,1.578,1.578,0,0,1,.226-.2,1.507,1.507,0,0,1,.256-.148,1.43,1.43,0,0,1,.279-.093,1.376,1.376,0,0,1,.3-.032,1.47,1.47,0,0,1,.884.289,1.541,1.541,0,0,1,.229.208A1.821,1.821,0,0,1,4.74,40.64a2.116,2.116,0,0,1-.118.716A1.6,1.6,0,0,1,4.3,41.9a1.4,1.4,0,0,1-.48.344A1.481,1.481,0,0,1,3.227,42.363Zm-.046-2.776a.624.624,0,0,0-.149.018.682.682,0,0,0-.145.054.763.763,0,0,0-.135.088.862.862,0,0,0-.121.121,1.042,1.042,0,0,0-.181.333,1.4,1.4,0,0,0-.069.445,1.376,1.376,0,0,0,.07.445,1.012,1.012,0,0,0,.186.333.815.815,0,0,0,.27.209.739.739,0,0,0,.32.072.713.713,0,0,0,.567-.3,1.073,1.073,0,0,0,.171-.335,1.422,1.422,0,0,0,.063-.427,1.4,1.4,0,0,0-.063-.426,1.04,1.04,0,0,0-.176-.335.8.8,0,0,0-.268-.219A.751.751,0,0,0,3.181,39.586ZM37.06,42.3h-.623V40.972l-1.023-1.943h.712l.623,1.237.712-1.237h.756L37.06,40.972V42.3Zm-3.164,0h-.667V39.691h-.89v-.662h2.4v.662H33.9V42.3Zm-2.486,0h-.667V39.029h.667V42.3Zm-1.919,0h-.623l-1.335-1.9v1.9H26.91V39.029h.623l1.335,2.031V39.029h.623V42.3Zm-8.093,0H20.73V39.691h-.845v-.662h2.4v.662H21.4V42.3Zm-2.315,0h-.667a2.416,2.416,0,0,0-.117-.646,3.053,3.053,0,0,0-.284-.546H17.3V42.3h-.712V39.029h1.246a1.6,1.6,0,0,1,.462.064,1.118,1.118,0,0,1,.366.184.842.842,0,0,1,.241.292.865.865,0,0,1,.087.387.811.811,0,0,1-.017.156,1.487,1.487,0,0,1-.055.2,2.143,2.143,0,0,1-.1.23,2.691,2.691,0,0,1-.143.255,2.343,2.343,0,0,1,.284.6,4.113,4.113,0,0,1,.117.9ZM17.3,39.7v.751h.623a.5.5,0,0,0,.156-.024.384.384,0,0,0,.127-.07.32.32,0,0,0,.086-.111.349.349,0,0,0,.031-.148.394.394,0,0,0-.117-.282.4.4,0,0,0-.284-.116ZM9.9,42.3H9.23V39.029h1.246a1.165,1.165,0,0,1,.43.079.983.983,0,0,1,.559.555,1.141,1.141,0,0,1,.079.427,1.29,1.29,0,0,1-.031.288.936.936,0,0,1-.089.238.842.842,0,0,1-.143.192.968.968,0,0,1-.193.149,1.33,1.33,0,0,1-.239.109,1.978,1.978,0,0,1-.281.074,2.991,2.991,0,0,1-.318.041c-.109.009-.227.013-.352.013v1.1Zm-.006-2.6h0v.751h.578a.367.367,0,0,0,.131-.024.357.357,0,0,0,.114-.07.334.334,0,0,0,.081-.111.361.361,0,0,0,.031-.148.409.409,0,0,0-.031-.155.416.416,0,0,0-.081-.126.341.341,0,0,0-.245-.116H9.892Zm-3.4,2.6H5.824V39.029H7.07a1.165,1.165,0,0,1,.43.079.984.984,0,0,1,.559.555,1.141,1.141,0,0,1,.079.427,1.29,1.29,0,0,1-.031.288.936.936,0,0,1-.089.238.843.843,0,0,1-.143.192.969.969,0,0,1-.193.149,1.331,1.331,0,0,1-.239.109,1.979,1.979,0,0,1-.281.074,2.993,2.993,0,0,1-.318.041c-.109.009-.227.013-.352.013v1.1Zm-.006-2.6v.751h.578a.367.367,0,0,0,.131-.024.357.357,0,0,0,.114-.07.334.334,0,0,0,.081-.111.361.361,0,0,0,.031-.148.409.409,0,0,0-.031-.155.416.416,0,0,0-.081-.126.341.341,0,0,0-.245-.116Zm.807-3.228h0l-.445-.353-.031.019,0,0a1.01,1.01,0,0,1-.588.2,1.486,1.486,0,0,1-.644-.145,1.55,1.55,0,0,1-.273-.167,1.656,1.656,0,0,1-.234-.218,1.76,1.76,0,0,1-.19-.259,1.829,1.829,0,0,1-.23-.606,1.789,1.789,0,0,1-.031-.328A2.116,2.116,0,0,1,4.74,33.9a1.6,1.6,0,0,1,.322-.542,1.4,1.4,0,0,1,.48-.344,1.482,1.482,0,0,1,.593-.12,1.566,1.566,0,0,1,.649.132,1.335,1.335,0,0,1,.474.359,1.58,1.58,0,0,1,.291.533,2.109,2.109,0,0,1,.1.653,2.063,2.063,0,0,1-.356,1.148l.4.353-.4.4Zm-1.2-2.913a.666.666,0,0,0-.545.259.929.929,0,0,0-.156.318,1.6,1.6,0,0,0-.056.438,1.206,1.206,0,0,0,.086.464.917.917,0,0,0,.232.331.98.98,0,0,0,.34.2,1.251,1.251,0,0,0,.411.066l-.223-.309.4-.309.267.265a7.073,7.073,0,0,0,.089-.795,1.059,1.059,0,0,0-.07-.387.869.869,0,0,0-.186-.292.819.819,0,0,0-.59-.248Zm30.52,2.781a1.172,1.172,0,0,1-.527-.124,1.262,1.262,0,0,1-.227-.146,1.39,1.39,0,0,1-.2-.194,1.543,1.543,0,0,1-.161-.235,1.7,1.7,0,0,1-.121-.27,1.89,1.89,0,0,1-.1-.621,2.433,2.433,0,0,1,.111-.76,1.546,1.546,0,0,1,.312-.553,1.415,1.415,0,0,1,1.09-.453,1.58,1.58,0,0,1,.6.106,1.087,1.087,0,0,1,.4.275,1.1,1.1,0,0,1,.225.383,1.267,1.267,0,0,1,.053.212,1.365,1.365,0,0,1,.017.216h-.445c-.067-.106-.115-.177-.163-.239a1.071,1.071,0,0,0-.171-.181.658.658,0,0,0-.2-.114.851.851,0,0,0-.6.032.763.763,0,0,0-.268.209.984.984,0,0,0-.176.333,1.485,1.485,0,0,0-.063.445,1.185,1.185,0,0,0,.217.74.716.716,0,0,0,.584.276.8.8,0,0,0,.254-.035.416.416,0,0,0,.174-.109.588.588,0,0,0,.116-.192,1.646,1.646,0,0,0,.079-.283h-.578V34.57h1.29v1.722h-.445l-.134-.265a4.326,4.326,0,0,1-.551.237A1.214,1.214,0,0,1,36.609,36.337Zm-7.74,0a2.052,2.052,0,0,1-.309-.022,1.475,1.475,0,0,1-.262-.064,1.151,1.151,0,0,1-.219-.1,1.018,1.018,0,0,1-.178-.137,1.041,1.041,0,0,1-.14-.168,1.211,1.211,0,0,1-.106-.2,1.752,1.752,0,0,1-.121-.459h.623a2.176,2.176,0,0,0,.2.232,1.329,1.329,0,0,0,.2.166.849.849,0,0,0,.2.1.637.637,0,0,0,.2.033.663.663,0,0,0,.227-.037.447.447,0,0,0,.152-.09.363.363,0,0,0,.085-.115.27.27,0,0,0,.026-.111.32.32,0,0,0-.011-.092.2.2,0,0,0-.045-.079.59.59,0,0,0-.256-.138l-.756-.265a1.558,1.558,0,0,1-.3-.156,1.113,1.113,0,0,1-.224-.2.817.817,0,0,1-.14-.23.7.7,0,0,1-.049-.255.856.856,0,0,1,.1-.4.987.987,0,0,1,.116-.173,1.118,1.118,0,0,1,.151-.149,1.244,1.244,0,0,1,.18-.123,1.329,1.329,0,0,1,.2-.092,1.36,1.36,0,0,1,.22-.058,1.342,1.342,0,0,1,.231-.02,1.084,1.084,0,0,1,.873.337.959.959,0,0,1,.184.353,1.478,1.478,0,0,1,.055.415h-.534c-.06-.1-.109-.168-.154-.225a.911.911,0,0,0-.141-.15A.469.469,0,0,0,29,33.58a.557.557,0,0,0-.179-.026.51.51,0,0,0-.339.105.311.311,0,0,0-.08.1.237.237,0,0,0-.026.1c0,.095.056.225.49.4l.845.309a.544.544,0,0,1,.182.1.694.694,0,0,1,.14.166.846.846,0,0,1,.122.436.974.974,0,0,1-.1.427.99.99,0,0,1-.266.335,1.246,1.246,0,0,1-.408.219A1.677,1.677,0,0,1,28.869,36.336Zm-3.029,0a1.192,1.192,0,0,1-.481-.1A1.017,1.017,0,0,1,25,35.972a1.21,1.21,0,0,1-.231-.418,1.744,1.744,0,0,1-.081-.542V32.98h.667v1.987a1.208,1.208,0,0,0,.033.3.644.644,0,0,0,.1.222.439.439,0,0,0,.167.139.54.54,0,0,0,.234.048.5.5,0,0,0,.227-.048.388.388,0,0,0,.152-.139.661.661,0,0,0,.085-.222,1.477,1.477,0,0,0,.026-.3V32.98h.667v2.031a2.4,2.4,0,0,1-.021.323,1.641,1.641,0,0,1-.061.275,1.181,1.181,0,0,1-.1.228.949.949,0,0,1-.136.183.9.9,0,0,1-.172.14,1.018,1.018,0,0,1-.206.1,1.314,1.314,0,0,1-.238.058A1.822,1.822,0,0,1,25.841,36.336Zm-3.248,0a1.462,1.462,0,0,1-.308-.032,1.4,1.4,0,0,1-.542-.247,1.476,1.476,0,0,1-.223-.206,1.68,1.68,0,0,1-.322-.558,2.172,2.172,0,0,1-.118-.723,1.8,1.8,0,0,1,.417-1.236,1.314,1.314,0,0,1,.465-.328,1.5,1.5,0,0,1,.586-.113,1.551,1.551,0,0,1,.638.132,1.451,1.451,0,0,1,.266.155,1.486,1.486,0,0,1,.226.2,1.765,1.765,0,0,1,.428,1.187,2.27,2.27,0,0,1-.111.723,1.649,1.649,0,0,1-.311.557,1.377,1.377,0,0,1-.478.359A1.478,1.478,0,0,1,22.593,36.336Zm-.035-2.782a.657.657,0,0,0-.306.072.692.692,0,0,0-.239.209,1.313,1.313,0,0,0-.211.778,1.615,1.615,0,0,0,.057.445.957.957,0,0,0,.166.333.717.717,0,0,0,.266.209.855.855,0,0,0,.357.072.711.711,0,0,0,.325-.072.647.647,0,0,0,.237-.209,1,1,0,0,0,.145-.333,1.842,1.842,0,0,0,.049-.445,1.458,1.458,0,0,0-.07-.464.957.957,0,0,0-.186-.331.775.775,0,0,0-.27-.2A.787.787,0,0,0,22.558,33.555ZM9.379,36.294a1.36,1.36,0,0,1-.507-.09.993.993,0,0,1-.377-.263,1.169,1.169,0,0,1-.236-.429,1.958,1.958,0,0,1-.081-.587V32.982h.667v1.943a.917.917,0,0,0,.117.5.43.43,0,0,0,.165.15.55.55,0,0,0,.252.055.464.464,0,0,0,.434-.2.64.64,0,0,0,.079-.224,1.579,1.579,0,0,0,.021-.278V32.982h.668v1.943a1.992,1.992,0,0,1-.075.568,1.19,1.19,0,0,1-.225.431.981.981,0,0,1-.376.274A1.36,1.36,0,0,1,9.379,36.294Zm4.632-.084h-.667l-.222-.618H11.876l-.222.618h-.667L12.1,32.986h.8l1.112,3.223ZM12.5,33.956l-.4.972h.756l-.356-.972Zm22.163,2.254h-.623l-1.335-1.9v1.9h-.667V32.986H32.7l1.335,2.031V32.986h.623v3.223Zm-3.388,0H30.6V32.986h.667v3.223Zm-10.851,0h-.667V34.841H18.508v1.369H17.84V32.986h.667v1.148h1.246V32.986h.667v3.223Zm-3.879,0H14.45V32.986h.667v2.605h1.424v.618Zm-12.28,0H1.948V32.986H4.262v.53H2.616v.706H4.04V34.8H2.616v.839H4.262v.574Zm32.579-5.563H3.07V16.03H0V11.57L20.022,0,40,11.57v4.46H36.841V30.647ZM19.928,5.206h0L7.692,12.36V26.138h24.65V12.36L19.928,5.206Zm7.027,18.24H13.073V19.075H26.955v4.372Zm0-5.394H13.073V13.814H26.955Z" fill="#00577d"/>
      </g>
    </g>
  </g>
</svg>
