<svg xmlns="http://www.w3.org/2000/svg" width="77.826" height="35.66" viewBox="0 0 77.826 35.66">
  <g id="noun_venture_2913744" transform="translate(0)">
    <g id="noun_venture_2913744-2" data-name="noun_venture_2913744" transform="translate(0)">
      <path id="Shape" d="M44.763,35.555,17.095,23.774H13.418V3.962H25.495a1.5,1.5,0,0,1,.362,0l18.33,6.062a2.672,2.672,0,0,1,1.57,1.321,2.6,2.6,0,0,1,.107,2.048l-.523,1.4a2.694,2.694,0,0,1-3.274,1.625L30.272,13a1.346,1.346,0,0,0-1.664.9,1.318,1.318,0,0,0,.912,1.637L41.3,18.953a5.525,5.525,0,0,0,1.516.212,5.365,5.365,0,0,0,5.046-3.474l.349-.924L73.1,9.246a3.858,3.858,0,0,1,3.261.673,3.718,3.718,0,0,1,1.463,2.945v1.321a3.8,3.8,0,0,1-1.838,3.222L46,35.462a1.362,1.362,0,0,1-.7.2A1.552,1.552,0,0,1,44.763,35.555ZM.389,27.353A1.312,1.312,0,0,1,0,26.415V1.321A1.331,1.331,0,0,1,1.342,0H6.709a3.994,3.994,0,0,1,4.025,3.962V23.774a3.994,3.994,0,0,1-4.025,3.962H1.335A1.354,1.354,0,0,1,.389,27.353Z" transform="translate(0)" fill="#00577d"/>
    </g>
  </g>
</svg>
