<svg id="noun_vault_3207506" xmlns="http://www.w3.org/2000/svg" width="48.378" height="43.811" viewBox="0 0 48.378 43.811">
  <g id="noun_vault_3207506-2" data-name="noun_vault_3207506" transform="translate(0 0.303)">
    <path id="Combined_Shape" data-name="Combined Shape" d="M36.364,43.283a2.41,2.41,0,0,1-2.441-2.366V38.531H14.294v2.386a2.41,2.41,0,0,1-2.441,2.366H6.007a2.41,2.41,0,0,1-2.441-2.366V38.531H1a1,1,0,0,1-1-.978V.978A.994.994,0,0,1,1,0H47.213a.988.988,0,0,1,1,.978V8.333h-5.18V4.9a.991.991,0,0,0-1-.978H5.026a.991.991,0,0,0-1,.978V33.638a.991.991,0,0,0,1,.978H42.033a.991.991,0,0,0,1-.978V30.2h5.18v7.354a.988.988,0,0,1-1,.978H44.651v2.386a2.41,2.41,0,0,1-2.441,2.366ZM6.03,32.66V5.875h35V8.333H38.217a.993.993,0,0,0-1,.978v4.211a.993.993,0,0,0,1,.978h2.812v9.533H38.217a.993.993,0,0,0-1,.978v4.21a.993.993,0,0,0,1,.978h2.812V32.66h-35ZM17.14,22.421,18.9,24.132a1.022,1.022,0,0,0,1.42,0,.958.958,0,0,0,0-1.383l-1.765-1.719a3.433,3.433,0,0,0-.009-3.518l1.775-1.728a.959.959,0,0,0,0-1.383,1.024,1.024,0,0,0-1.42,0l-1.784,1.737a3.96,3.96,0,0,0-3.6-.008L11.744,14.4a1.024,1.024,0,0,0-1.421,0,.96.96,0,0,0,0,1.383L12.081,17.5a3.435,3.435,0,0,0-.009,3.552l-1.749,1.7a.959.959,0,0,0,0,1.383,1.023,1.023,0,0,0,1.421,0l1.749-1.7a3.7,3.7,0,0,0,3.646-.008h0Zm24.9,5.82-.01,0-.01,0h-2.8V25.988h2.8c.005,0,.01,0,.015,0s.009,0,.015,0h6.17v2.254Zm.995-4.21V14.5h5.18v9.533Zm-28.9-3.539c-.012-.012-.016-.029-.028-.041s-.03-.016-.044-.028a1.632,1.632,0,0,1,.032-2.325,1.749,1.749,0,0,1,2.428,0,1.64,1.64,0,0,1,0,2.363,1.75,1.75,0,0,1-2.389.031Zm25.089-7.95V10.289h9v2.255Z" fill="#00577d"/>
  </g>
</svg>
