<svg id="noun_coin_3489271_1_" data-name="noun_coin_3489271 (1)" xmlns="http://www.w3.org/2000/svg" width="59.947" height="49.925" viewBox="0 0 59.947 49.925">
  <g id="noun_coin_3489271_1_2" data-name="noun_coin_3489271 (1)" transform="translate(0)">
    <path id="Combined_Shape" data-name="Combined Shape" d="M47.132,49.155a4.265,4.265,0,0,1-2.6-1.94l-1.213-2.053a22.254,22.254,0,0,1-9.26,2.053h-8.6a21.464,21.464,0,0,1-7.472-1.335L17.2,47.215A4.274,4.274,0,0,1,14.582,49.1a4.07,4.07,0,0,1-1.074.144h-.032a4.383,4.383,0,0,1-2.129-.554L7.728,46.64a4.1,4.1,0,0,1-1.969-2.484,3.956,3.956,0,0,1,.415-3.1L7.834,38.2A19.976,19.976,0,0,1,5.705,34.1L1.448,32.742A2.058,2.058,0,0,1,0,30.792V22.581a2.008,2.008,0,0,1,.5-1.347,2.149,2.149,0,0,1,1.289-.706l3.641-.513a20.4,20.4,0,0,1,3.086-5.645A29.337,29.337,0,0,1,9.814,5.5a2.109,2.109,0,0,1,2.033-1.448,2.22,2.22,0,0,1,.479.053,32.709,32.709,0,0,1,7.515,2.812l.262-.072a5.172,5.172,0,0,1,1.356-.256,10.251,10.251,0,0,0-.17,1.622,10.015,10.015,0,0,0,3.118,7.258,10.924,10.924,0,0,0,15.053,0,10.015,10.015,0,0,0,3.118-7.258,1.55,1.55,0,0,0,0-.329A20.629,20.629,0,0,1,55.349,24.633h2.129a2.054,2.054,0,1,1,0,4.106H55.221A19.9,19.9,0,0,1,52.795,36.4l2.768,4.66A3.955,3.955,0,0,1,56,44.18a4.158,4.158,0,0,1-1.99,2.5l-3.619,2.053a4.4,4.4,0,0,1-3.257.421ZM12.773,20.528A2.13,2.13,0,1,0,14.9,18.475,2.094,2.094,0,0,0,12.773,20.528ZM23.417,8.211a8.521,8.521,0,0,1,17.031,0,8.521,8.521,0,0,1-17.031,0Z" fill="#00577d"/>
  </g>
</svg>
