<svg xmlns="http://www.w3.org/2000/svg" width="29.999" height="30.001" viewBox="0 0 29.999 30.001">
  <g id="noun_Search_3641704" transform="translate(-0.5 -0.5)">
    <g id="search" transform="translate(0.5 0.5)">
      <path id="Shape" d="M28.949,30a1.044,1.044,0,0,1-.582-.177L21.45,22.957a12.474,12.474,0,0,1-8.272,3.112A13.469,13.469,0,0,1,3.7,22.12,12.634,12.634,0,0,1,1,18.11a12.832,12.832,0,0,1-1-5.076A13.036,13.036,0,0,1,13.029,0h.053a12.676,12.676,0,0,1,7.193,2.193,13.425,13.425,0,0,1,5.689,12.436,12.6,12.6,0,0,1-3.029,6.843l6.889,6.895A1.052,1.052,0,0,1,28.949,30ZM13.029,2.075A10.933,10.933,0,0,0,5.3,20.739a10.859,10.859,0,0,0,7.726,3.206,11.209,11.209,0,0,0,8.147-3.587,11,11,0,0,0,2.716-7.348,11,11,0,0,0-2.716-7.348,11.209,11.209,0,0,0-8.147-3.587Z" transform="translate(0)" fill="#00577d"/>
    </g>
  </g>
</svg>
