<svg xmlns="http://www.w3.org/2000/svg" width="21" height="11.2" viewBox="0 0 21 11.2">
  <g id="noun_Arrow_3324746" transform="translate(21 11.6) rotate(180)">
    <path id="Path" d="M20.716,1.616l-9.552,9.315a.922.922,0,0,1-.077.062c-.022.017-.042.037-.065.052a.917.917,0,0,1-.1.051c-.023.012-.045.026-.068.035a.946.946,0,0,1-.117.035c-.02.005-.038.013-.058.017a.947.947,0,0,1-.362,0c-.022,0-.043-.013-.065-.019a.941.941,0,0,1-.111-.033c-.026-.01-.049-.026-.074-.038a.929.929,0,0,1-.09-.048c-.024-.016-.045-.036-.068-.054a.933.933,0,0,1-.075-.06L.284,1.616A.941.941,0,0,1,.694.035.952.952,0,0,1,1.612.27L10.5,8.937,19.388.27A.95.95,0,0,1,20.97.708a.939.939,0,0,1-.254.908Z" transform="translate(0 0.4)" fill="#fff"/>
  </g>
</svg>
