<svg xmlns="http://www.w3.org/2000/svg" width="285.802" height="84.291" viewBox="0 0 285.802 84.291">
  <g id="Group_853" data-name="Group 853" transform="translate(-240 -4565)">
    <g id="lowenstein_logo-1" transform="translate(239.925 4564.414)">
      <g id="Group_26" data-name="Group 26">
        <g id="Group_25" data-name="Group 25">
          <g id="Group_1" data-name="Group 1">
            <path id="Path_1" data-name="Path 1" d="M.075.586h84.06V84.877H.075Z" fill="#eb0028"/>
          </g>
          <g id="Group_21" data-name="Group 21">
            <g id="Group_2" data-name="Group 2">
              <path id="Path_2" data-name="Path 2" d="M196.562,41.527V30a5.955,5.955,0,0,0-.235-2.012,1.81,1.81,0,0,0-1.827-1.247,2.256,2.256,0,0,0-1.667.586,3.98,3.98,0,0,0-.66,2.88V41.527h-6.79V22.667h6.367v2.776s.17-.264.423-.642a6.657,6.657,0,0,1,5.237-2.522,8.038,8.038,0,0,1,2.675.435,4.482,4.482,0,0,1,2.11,1.454c1.149,1.5,1.149,3.608,1.149,5.648v11.72h-6.782Z" fill="#fff"/>
            </g>
            <g id="Group_3" data-name="Group 3">
              <path id="Path_3" data-name="Path 3" d="M258.1,17.312h6.791v3.267H258.1Z" fill="#fff"/>
            </g>
            <g id="Group_4" data-name="Group 4">
              <path id="Path_4" data-name="Path 4" d="M258.1,22.667h6.791v18.87H258.1Z" fill="#fff"/>
            </g>
            <g id="Group_5" data-name="Group 5">
              <path id="Path_5" data-name="Path 5" d="M101.154,41.527V17.312h7.327V35.766h8.411v5.761Z" fill="#fff"/>
            </g>
            <g id="Group_6" data-name="Group 6">
              <path id="Path_6" data-name="Path 6" d="M130.756,28.522a12.343,12.343,0,0,1,.367,3.485c0,2.522-.282,4.118-.876,5.034a2.817,2.817,0,0,1-4.37,0c-.593-.925-.876-2.522-.876-5.034a12.311,12.311,0,0,1,.368-3.485,2.74,2.74,0,0,1,5.387,0Zm4.671,10.71a9.1,9.1,0,0,0,2.2-3.04,9.544,9.544,0,0,0,.81-3.92A9.661,9.661,0,0,0,135.484,25a11.485,11.485,0,0,0-14.843,0,9.71,9.71,0,0,0-2.958,7.273,9.544,9.544,0,0,0,.81,3.92,8.967,8.967,0,0,0,2.2,3.04,11.453,11.453,0,0,0,14.73,0Z" fill="#fff"/>
            </g>
            <g id="Group_7" data-name="Group 7">
              <path id="Path_7" data-name="Path 7" d="M154.33,41.527l-2.891-12.145-3.005,12.145h-4.84l-6.076-18.86h6.7L147.1,33.443l2.769-10.776h5.058l2.75,10.776,3.051-10.776H165.2l-5.962,18.86Z" fill="#fff"/>
            </g>
            <g id="Group_8" data-name="Group 8">
              <path id="Path_8" data-name="Path 8" d="M177.369,29.769v.406h-6.3v-.406c0-2.38,1.168-3.8,3.127-3.8,2.11,0,3.174,1.285,3.174,3.8Zm2.92,10.37a8.606,8.606,0,0,0,3.447-4.675l-5.981.01c-.5,1.935-1.94,2.21-3.306,2.21-2.26,0-3.4-1.36-3.4-4.062v-.406h12.78v-.633a10.489,10.489,0,0,0-2.693-7.49,9.111,9.111,0,0,0-7.026-2.8,9.617,9.617,0,0,0-3.664.718,9.067,9.067,0,0,0-3.447,2.2,10.328,10.328,0,0,0-2.722,7.14v.01a9.284,9.284,0,0,0,3.052,7.083,10.06,10.06,0,0,0,7.252,2.474,9.453,9.453,0,0,0,5.707-1.775Z" fill="#fff"/>
            </g>
            <g id="Group_9" data-name="Group 9">
              <path id="Path_9" data-name="Path 9" d="M279.1,41.527V30a5.955,5.955,0,0,0-.235-2.012,1.812,1.812,0,0,0-1.828-1.247,2.257,2.257,0,0,0-1.667.586,3.938,3.938,0,0,0-.659,2.88V41.527h-6.79V22.667h6.366v2.776s.17-.264.424-.642a6.654,6.654,0,0,1,5.237-2.522,8.042,8.042,0,0,1,2.675.435,4.487,4.487,0,0,1,2.11,1.454c1.148,1.5,1.148,3.608,1.148,5.648v11.72H279.1Z" fill="#fff"/>
            </g>
            <g id="Group_10" data-name="Group 10">
              <path id="Path_10" data-name="Path 10" d="M213.412,42.132a11.507,11.507,0,0,1-5.557-1.1,6.918,6.918,0,0,1-3.2-3.854l5.284-.538a3.674,3.674,0,0,0,3.57,1.681h.31c.932,0,3.334-.321,3.334-1.785,0-1.039-1.262-1.7-3.758-1.974l-.16-.028a18.071,18.071,0,0,1-5.755-1.426,4.682,4.682,0,0,1-2.618-4.562,5.285,5.285,0,0,1,.763-2.777,6.224,6.224,0,0,1,2.072-2.04,11.151,11.151,0,0,1,6.084-1.435,10.73,10.73,0,0,1,5.133,1.256,7.169,7.169,0,0,1,3.174,3.4l-5,.727a3.922,3.922,0,0,0-3.655-1.69,5.2,5.2,0,0,0-1.9.33c-.829.36-.96.85-.96,1.115,0,1.03,1.054,1.294,1.45,1.4a20.168,20.168,0,0,0,2.543.388c.292.028.575.056.81.094l.217.028a12.131,12.131,0,0,1,4.954,1.37,5.32,5.32,0,0,1,2.58,4.665,5.75,5.75,0,0,1-3.2,5.27,13.773,13.773,0,0,1-6.508,1.493Z" fill="#fff"/>
            </g>
            <g id="Group_11" data-name="Group 11">
              <path id="Path_11" data-name="Path 11" d="M231.26,41.99a5.839,5.839,0,0,1-4.417-1.946c-1.357-1.463-1.357-3.192-1.357-5.194V26.86h-2.053V22.667H225.6V17.312h6.593v5.355h4.088V26.86h-4v7.489a2.874,2.874,0,0,0,.5,2.135,2.1,2.1,0,0,0,1.563.5,9.717,9.717,0,0,0,1.959-.255V41.4a21.229,21.229,0,0,1-5.04.6Z" fill="#fff"/>
            </g>
            <g id="Group_12" data-name="Group 12">
              <path id="Path_12" data-name="Path 12" d="M249.947,29.769v.406h-6.3v-.406c0-2.38,1.167-3.8,3.126-3.8,2.11,0,3.174,1.285,3.174,3.8Zm2.93,10.37a8.606,8.606,0,0,0,3.446-4.675l-5.98.01c-.49,1.935-1.94,2.21-3.306,2.21-2.26,0-3.4-1.36-3.4-4.062v-.406h12.771v-.633a10.485,10.485,0,0,0-2.694-7.49,9.11,9.11,0,0,0-7.026-2.8,9.615,9.615,0,0,0-3.663.718,9.064,9.064,0,0,0-3.448,2.2,10.328,10.328,0,0,0-2.722,7.14v.01a9.288,9.288,0,0,0,3.052,7.083,10.062,10.062,0,0,0,7.252,2.474,9.5,9.5,0,0,0,5.717-1.775Z" fill="#fff"/>
            </g>
            <g id="Group_20" data-name="Group 20">
              <g id="Group_13" data-name="Group 13">
                <path id="Path_13" data-name="Path 13" d="M226.8,54.57a5.912,5.912,0,0,0-1.055-.094c-1.121,0-2.694.16-3.466,1.558a7.356,7.356,0,0,0-.594,3.58v8.14h-6.79V48.894h6.367v2.767s.17-.264.423-.642a6.622,6.622,0,0,1,5.1-2.512V54.57Z" fill="#fff"/>
              </g>
              <g id="Group_14" data-name="Group 14">
                <path id="Path_14" data-name="Path 14" d="M154.585,67.754V56.223a5.931,5.931,0,0,0-.236-2.012,1.81,1.81,0,0,0-1.827-1.247,2.27,2.27,0,0,0-1.667.586c-.688.69-.669,1.8-.66,2.88V67.754h-6.79V48.894h6.367v2.777s.17-.265.424-.643a6.651,6.651,0,0,1,5.236-2.521,8.012,8.012,0,0,1,2.675.434,4.469,4.469,0,0,1,2.11,1.445c1.149,1.511,1.149,3.608,1.149,5.648v11.72h-6.781Z" fill="#fff"/>
              </g>
              <g id="Group_15" data-name="Group 15">
                <path id="Path_15" data-name="Path 15" d="M110.431,67.906a11.593,11.593,0,0,1-6.48-1.748,8.9,8.9,0,0,1-3.579-5.08l6.188-.9c.7,2.012,1.987,2.871,4.267,2.871,1.12,0,3.249-.444,3.249-2.106,0-1.747-1.969-2.116-3.146-2.342-.056-.01-.1-.02-.16-.029a21.283,21.283,0,0,1-6.574-2.058,5.839,5.839,0,0,1-3.08-5.393,7.118,7.118,0,0,1,2.939-5.724,11.962,11.962,0,0,1,6.734-1.879,11.512,11.512,0,0,1,5.707,1.4,7.987,7.987,0,0,1,3.514,3.948l-5.51,1.3c-.9-1.927-2.458-2.21-4.022-2.21-1.366,0-2.825.765-2.825,2.182,0,1.473,1.7,1.841,2.73,2.058.1.02.19.038.274.057h.01c.263.057.517.1.781.151a22.223,22.223,0,0,1,5.971,1.747,6.308,6.308,0,0,1,2.534,2.409,6.661,6.661,0,0,1,.857,3.39,6.92,6.92,0,0,1-.923,3.551,7.594,7.594,0,0,1-2.411,2.465,13.026,13.026,0,0,1-7.045,1.937Z" fill="#fff"/>
              </g>
              <g id="Group_16" data-name="Group 16">
                <path id="Path_16" data-name="Path 16" d="M134.853,58.508v.84a8.721,8.721,0,0,1-.414,3.26,2.843,2.843,0,0,1-2.91,1.728,2.109,2.109,0,0,1-2.4-2.22c0-1.993,1.77-3.192,5.274-3.56Zm-.367,7.074.744-1.1v1.322a8.781,8.781,0,0,0,.188,1.945h6.423a12.936,12.936,0,0,1-.433-3.91V56.128a13.377,13.377,0,0,0-.245-3.38,4.448,4.448,0,0,0-1.855-2.626c-1.856-1.332-4.794-1.615-6.942-1.615a12.9,12.9,0,0,0-6.037,1.218,6.494,6.494,0,0,0-2.175,1.842A6.952,6.952,0,0,0,123,54.088l5.944.085c.6-1.54,1.638-1.85,3.192-1.85,2.26,0,2.713,1.1,2.713,2.87v.539l-.377.019a33.18,33.18,0,0,0-7.62,1.208,7.776,7.776,0,0,0-3.418,2.06,5.127,5.127,0,0,0-1.441,3.6,5.041,5.041,0,0,0,1.893,4.117,7.281,7.281,0,0,0,4.53,1.408c2.609,0,4.643-.435,6.066-2.56Z" fill="#fff"/>
              </g>
              <g id="Group_17" data-name="Group 17">
                <path id="Path_17" data-name="Path 17" d="M185.392,43.52h6.79V67.764h-6.79Z" fill="#fff"/>
              </g>
              <g id="Group_18" data-name="Group 18">
                <path id="Path_18" data-name="Path 18" d="M175.249,54.655a12.675,12.675,0,0,1,.357,3.485c0,2.512-.273,3.759-.866,4.675a2.817,2.817,0,0,1-4.37,0c-.6-.916-.876-2.163-.876-4.675a12.343,12.343,0,0,1,.367-3.485,2.74,2.74,0,0,1,5.388,0Zm.207,10.71.122-.236v2.616h6.79V43.5h-6.79v7.575l-.687-.69a6.15,6.15,0,0,0-4.4-1.88,6.409,6.409,0,0,0-5.792,3.08,13.232,13.232,0,0,0-1.639,6.837,12.864,12.864,0,0,0,1.62,6.668,6.2,6.2,0,0,0,5.576,3.05c2.392,0,4.182-.812,5.2-2.776Z" fill="#fff"/>
              </g>
              <g id="Group_19" data-name="Group 19">
                <path id="Path_19" data-name="Path 19" d="M206.914,56V56.4h-6.3V56c0-2.38,1.167-3.8,3.126-3.8C205.85,52.2,206.914,53.474,206.914,56Zm2.939,10.38A8.606,8.606,0,0,0,213.3,61.7l-5.98.009c-.5,1.936-1.94,2.21-3.307,2.21-2.26,0-3.4-1.36-3.4-4.061v-.406h12.762v-.633a10.5,10.5,0,0,0-2.693-7.5,9.141,9.141,0,0,0-7.027-2.805,9.634,9.634,0,0,0-3.663.718,9.072,9.072,0,0,0-3.447,2.2,10.323,10.323,0,0,0-2.722,7.14v.01a9.268,9.268,0,0,0,3.051,7.083,10.062,10.062,0,0,0,7.252,2.475,9.616,9.616,0,0,0,5.727-1.766Z" fill="#fff"/>
              </g>
            </g>
          </g>
          <g id="Group_24" data-name="Group 24">
            <g id="Group_22" data-name="Group 22">
              <path id="Path_20" data-name="Path 20" d="M10.944,65.2V20.258H24.827v34.01l8.147.01a19.089,19.089,0,0,0,4.9,7.753,22.736,22.736,0,0,0,3.956,3.183Z" fill="#fff"/>
            </g>
            <g id="Group_23" data-name="Group 23">
              <path id="Path_21" data-name="Path 21" d="M55.446,66.281A22.409,22.409,0,0,1,42.92,62.9,17.167,17.167,0,0,1,36,53.078l11.962-1.729C49.305,55.231,51.8,56.9,56.2,56.9c2.167,0,6.273-.85,6.273-4.061,0-3.381-3.805-4.1-6.074-4.524-.1-.02-.208-.038-.3-.057-4.483-.869-9.164-1.889-12.7-3.967a11.268,11.268,0,0,1-5.943-10.426,13.72,13.72,0,0,1,5.68-11.06,23.04,23.04,0,0,1,13.016-3.636,22.332,22.332,0,0,1,11.02,2.692,15.447,15.447,0,0,1,6.79,7.631L63.32,32.017c-1.742-3.73-4.756-4.26-7.76-4.26-2.647,0-5.454,1.474-5.454,4.212,0,2.853,3.306,3.561,5.274,3.977.189.037.368.085.537.113l.019.01c.5.1,1.008.2,1.507.292,3.937.756,8.006,1.549,11.547,3.372a12.057,12.057,0,0,1,4.888,4.656,12.863,12.863,0,0,1,1.667,6.545,13.317,13.317,0,0,1-1.79,6.857,14.518,14.518,0,0,1-4.652,4.76A25.458,25.458,0,0,1,55.446,66.281Z" fill="#fff"/>
            </g>
          </g>
        </g>
      </g>
    </g>
  </g>
</svg>
