<svg xmlns="http://www.w3.org/2000/svg" width="24" height="24" viewBox="0 0 24 24">
  <path id="Icon_akar-instagram-fill" data-name="Icon akar-instagram-fill" d="M8.553,1.572C9.832,1.513,10.24,1.5,13.5,1.5s3.668.014,4.946.072a8.831,8.831,0,0,1,2.915.557,6.143,6.143,0,0,1,3.508,3.509,8.826,8.826,0,0,1,.559,2.913c.059,1.282.072,1.69.072,4.948s-.014,3.668-.072,4.947a8.8,8.8,0,0,1-.559,2.913,6.126,6.126,0,0,1-3.508,3.509,8.826,8.826,0,0,1-2.913.559c-1.281.059-1.689.072-4.948.072s-3.668-.014-4.947-.072a8.8,8.8,0,0,1-2.913-.559,5.888,5.888,0,0,1-2.126-1.383,5.882,5.882,0,0,1-1.384-2.125,8.857,8.857,0,0,1-.557-2.913C1.513,17.167,1.5,16.759,1.5,13.5s.014-3.668.072-4.946a8.831,8.831,0,0,1,.557-2.915A5.887,5.887,0,0,1,3.515,3.514,5.882,5.882,0,0,1,5.639,2.129a8.857,8.857,0,0,1,2.913-.557Zm9.8,2.16c-1.265-.058-1.645-.07-4.849-.07s-3.584.012-4.849.07a6.633,6.633,0,0,0-2.229.413A3.963,3.963,0,0,0,4.145,6.422a6.633,6.633,0,0,0-.413,2.229c-.058,1.265-.07,1.645-.07,4.849s.012,3.584.07,4.849a6.633,6.633,0,0,0,.413,2.229,3.963,3.963,0,0,0,2.277,2.277,6.633,6.633,0,0,0,2.229.413c1.265.058,1.644.07,4.849.07s3.584-.012,4.849-.07a6.633,6.633,0,0,0,2.229-.413,3.963,3.963,0,0,0,2.277-2.277,6.633,6.633,0,0,0,.413-2.229c.058-1.265.07-1.645.07-4.849s-.012-3.584-.07-4.849a6.633,6.633,0,0,0-.413-2.229,3.963,3.963,0,0,0-2.277-2.277,6.633,6.633,0,0,0-2.229-.413ZM11.967,17.2A4,4,0,1,0,9.5,13.5a4,4,0,0,0,2.47,3.7ZM9.139,9.139a6.168,6.168,0,1,1,0,8.723,6.168,6.168,0,0,1,0-8.723Zm11.9-.888A1.459,1.459,0,1,0,19,8.221,1.459,1.459,0,0,0,21.036,8.251Z" transform="translate(-1.5 -1.5)" fill="#fff"/>
</svg>
