<svg id="Component_1_1" data-name="Component 1 – 1" xmlns="http://www.w3.org/2000/svg" width="45.5" height="45.5" viewBox="0 0 45.5 45.5">
  <g id="Group_233" data-name="Group 233">
    <circle id="Ellipse_1" data-name="Ellipse 1" cx="22.75" cy="22.75" r="22.75" fill="#eb0028"/>
    <g id="Icon_ionic-ios-arrow-round-forward" data-name="Icon ionic-ios-arrow-round-forward" transform="translate(7.652 12.212)">
      <path id="Icon_ionic-ios-arrow-round-forward-2" data-name="Icon ionic-ios-arrow-round-forward" d="M26.793,11.63a1.346,1.346,0,0,0-.01,1.9L33.047,19.8H9.2a1.339,1.339,0,0,0,0,2.679H33.037l-6.265,6.274a1.356,1.356,0,0,0,.01,1.9,1.334,1.334,0,0,0,1.886-.01l8.49-8.551h0a1.5,1.5,0,0,0,.278-.422,1.278,1.278,0,0,0,.1-.515,1.343,1.343,0,0,0-.381-.938l-8.49-8.551A1.313,1.313,0,0,0,26.793,11.63Z" transform="translate(-7.875 -11.252)" fill="#fff"/>
    </g>
  </g>
</svg>
