<svg xmlns="http://www.w3.org/2000/svg" width="24" height="24" viewBox="0 0 24 24">
  <path id="Icon_akar-linkedin-fill" data-name="Icon akar-linkedin-fill" d="M11.915,11.363h4.457v2.22a5.113,5.113,0,0,1,4.762-2.424c4.741,0,5.867,2.542,5.867,7.2V27H22.2V19.426c0-2.656-.642-4.153-2.276-4.153-2.267,0-3.209,1.614-3.209,4.152V27h-4.8V11.363ZM3.684,26.8h4.8V11.159h-4.8V26.8ZM9.172,6.06a3.036,3.036,0,0,1-.9,2.162A3.085,3.085,0,0,1,3,6.06,3.041,3.041,0,0,1,3.9,3.9a3.1,3.1,0,0,1,4.364,0A3.046,3.046,0,0,1,9.172,6.06Z" transform="translate(-3 -3)" fill="#fff"/>
</svg>
