<svg id="Group_1" data-name="Group 1" xmlns="http://www.w3.org/2000/svg" width="140.024" height="41" viewBox="0 0 140.024 41">
  <g id="Group_1-2" data-name="Group 1">
    <path id="Path_1" data-name="Path 1" d="M.075.586H41.058v41H.075Z" transform="translate(-0.075 -0.586)" fill="#eb0028"/>
  </g>
  <g id="Group_21" data-name="Group 21" transform="translate(49.559 8.107)">
    <g id="Group_2" data-name="Group 2" transform="translate(41.446 2.422)">
      <path id="Path_2" data-name="Path 2" d="M190.833,31.663V26.041a2.9,2.9,0,0,0-.115-.981.883.883,0,0,0-.891-.608,1.1,1.1,0,0,0-.813.286,1.941,1.941,0,0,0-.322,1.4v5.521h-3.31V22.468h3.1v1.353s.083-.129.206-.313a3.246,3.246,0,0,1,2.553-1.23,3.919,3.919,0,0,1,1.3.212,2.185,2.185,0,0,1,1.029.709,4.485,4.485,0,0,1,.56,2.754v5.714h-3.306Z" transform="translate(-185.383 -22.279)" fill="#584646"/>
    </g>
    <g id="Group_3" data-name="Group 3" transform="translate(76.9)">
      <path id="Path_3" data-name="Path 3" d="M258.1,17.312h3.311V18.9H258.1Z" transform="translate(-258.102 -17.312)" fill="#584646"/>
    </g>
    <g id="Group_4" data-name="Group 4" transform="translate(76.9 2.611)">
      <path id="Path_4" data-name="Path 4" d="M258.1,22.667h3.311v9.2H258.1Z" transform="translate(-258.102 -22.667)" fill="#584646"/>
    </g>
    <g id="Group_5" data-name="Group 5" transform="translate(0.381)">
      <path id="Path_5" data-name="Path 5" d="M101.154,29.118V17.312h3.572v9h4.1v2.809Z" transform="translate(-101.154 -17.312)" fill="#584646"/>
    </g>
    <g id="Group_6" data-name="Group 6" transform="translate(8.44 2.422)">
      <path id="Path_6" data-name="Path 6" d="M124.057,25.323a6.018,6.018,0,0,1,.179,1.7,4.784,4.784,0,0,1-.427,2.454,1.373,1.373,0,0,1-2.131,0,4.813,4.813,0,0,1-.427-2.454,6,6,0,0,1,.179-1.7,1.336,1.336,0,0,1,2.626,0Zm2.277,5.222a4.435,4.435,0,0,0,1.075-1.482,4.653,4.653,0,0,0,.395-1.911,4.71,4.71,0,0,0-1.442-3.546,5.6,5.6,0,0,0-7.237,0,4.734,4.734,0,0,0-1.442,3.546,4.653,4.653,0,0,0,.395,1.911,4.371,4.371,0,0,0,1.075,1.482,5.584,5.584,0,0,0,7.181,0Z" transform="translate(-117.683 -22.279)" fill="#584646"/>
    </g>
    <g id="Group_7" data-name="Group 7" transform="translate(18.11 2.611)">
      <path id="Path_7" data-name="Path 7" d="M145.714,31.862l-1.409-5.921-1.465,5.921h-2.36l-2.962-9.2h3.265l1.4,5.254,1.35-5.254H146l1.341,5.254,1.488-5.254h2.181l-2.907,9.2Z" transform="translate(-137.518 -22.667)" fill="#584646"/>
    </g>
    <g id="Group_8" data-name="Group 8" transform="translate(31.156 2.426)">
      <path id="Path_8" data-name="Path 8" d="M170.659,25.936v.2h-3.072v-.2c0-1.16.569-1.851,1.525-1.851C170.141,24.085,170.659,24.711,170.659,25.936Zm1.424,5.056a4.2,4.2,0,0,0,1.681-2.279h-2.916a1.417,1.417,0,0,1-1.612,1.077c-1.1,0-1.658-.663-1.658-1.98v-.2h6.231V27.3a5.114,5.114,0,0,0-1.313-3.652,4.442,4.442,0,0,0-3.425-1.367,4.689,4.689,0,0,0-1.786.35,4.421,4.421,0,0,0-1.681,1.073,5.035,5.035,0,0,0-1.327,3.481h0a4.526,4.526,0,0,0,1.488,3.453,4.9,4.9,0,0,0,3.536,1.206,4.609,4.609,0,0,0,2.782-.865Z" transform="translate(-164.276 -22.289)" fill="#584646"/>
    </g>
    <g id="Group_9" data-name="Group 9" transform="translate(81.685 2.422)">
      <path id="Path_9" data-name="Path 9" d="M273.367,31.663V26.041a2.9,2.9,0,0,0-.115-.981.884.884,0,0,0-.891-.608,1.1,1.1,0,0,0-.813.286,1.92,1.92,0,0,0-.321,1.4v5.521h-3.31V22.468h3.1v1.353s.083-.129.207-.313a3.244,3.244,0,0,1,2.553-1.23,3.92,3.92,0,0,1,1.3.212,2.188,2.188,0,0,1,1.029.709,4.488,4.488,0,0,1,.56,2.754v5.714H273.36Z" transform="translate(-267.917 -22.279)" fill="#584646"/>
    </g>
    <g id="Group_10" data-name="Group 10" transform="translate(50.841 2.426)">
      <path id="Path_10" data-name="Path 10" d="M208.923,31.963a5.611,5.611,0,0,1-2.709-.539,3.373,3.373,0,0,1-1.561-1.879l2.576-.262a1.791,1.791,0,0,0,1.741.82h.151c.454,0,1.625-.156,1.625-.87,0-.507-.615-.829-1.832-.962l-.078-.014a8.81,8.81,0,0,1-2.806-.7,2.283,2.283,0,0,1-1.276-2.224,2.576,2.576,0,0,1,.372-1.354,3.035,3.035,0,0,1,1.01-.995,5.437,5.437,0,0,1,2.966-.7,5.231,5.231,0,0,1,2.5.612,3.494,3.494,0,0,1,1.547,1.658l-2.438.354a1.912,1.912,0,0,0-1.782-.824,2.534,2.534,0,0,0-.928.161c-.4.176-.468.414-.468.544,0,.5.514.631.707.681a9.837,9.837,0,0,0,1.24.189c.142.014.28.027.4.046l.106.014a5.915,5.915,0,0,1,2.415.668,2.594,2.594,0,0,1,1.258,2.274,2.8,2.8,0,0,1-1.561,2.569A6.716,6.716,0,0,1,208.923,31.963Z" transform="translate(-204.653 -22.289)" fill="#584646"/>
    </g>
    <g id="Group_11" data-name="Group 11" transform="translate(59.997)">
      <path id="Path_11" data-name="Path 11" d="M227.249,29.344A2.847,2.847,0,0,1,225.1,28.4a3.363,3.363,0,0,1-.662-2.532v-3.9h-1v-2.04h1.056V17.312h3.21v2.611h2v2.044h-1.952v3.651a1.4,1.4,0,0,0,.244,1.041,1.024,1.024,0,0,0,.762.244,4.738,4.738,0,0,0,.955-.124v2.275a10.35,10.35,0,0,1-2.457.29Z" transform="translate(-223.433 -17.312)" fill="#584646"/>
    </g>
    <g id="Group_12" data-name="Group 12" transform="translate(66.54 2.426)">
      <path id="Path_12" data-name="Path 12" d="M243.237,25.936v.2h-3.071v-.2c0-1.16.569-1.851,1.524-1.851C242.719,24.085,243.237,24.711,243.237,25.936Zm1.428,5.056a4.2,4.2,0,0,0,1.68-2.279H243.43a1.414,1.414,0,0,1-1.612,1.077c-1.1,0-1.658-.663-1.658-1.98v-.2h6.226V27.3a5.112,5.112,0,0,0-1.313-3.652,4.441,4.441,0,0,0-3.425-1.367,4.688,4.688,0,0,0-1.786.35,4.419,4.419,0,0,0-1.681,1.073,5.036,5.036,0,0,0-1.327,3.481h0a4.528,4.528,0,0,0,1.488,3.453,4.905,4.905,0,0,0,3.536,1.206,4.634,4.634,0,0,0,2.787-.865Z" transform="translate(-236.854 -22.289)" fill="#584646"/>
    </g>
    <g id="Group_20" data-name="Group 20" transform="translate(0 12.768)">
      <g id="Group_13" data-name="Group 13" transform="translate(55.833 2.441)">
        <path id="Path_13" data-name="Path 13" d="M220.7,51.463a2.884,2.884,0,0,0-.514-.046,1.781,1.781,0,0,0-1.69.76,3.586,3.586,0,0,0-.29,1.745v3.969H214.9V48.7H218v1.349s.083-.129.206-.313a3.229,3.229,0,0,1,2.485-1.225v2.956Z" transform="translate(-214.891 -48.507)" fill="#584646"/>
      </g>
      <g id="Group_14" data-name="Group 14" transform="translate(20.98 2.441)">
        <path id="Path_14" data-name="Path 14" d="M148.856,57.891V52.269a2.891,2.891,0,0,0-.115-.981.883.883,0,0,0-.891-.608,1.107,1.107,0,0,0-.813.286,1.918,1.918,0,0,0-.322,1.4v5.521H143.4V48.7h3.1v1.35s.083-.129.207-.313a3.243,3.243,0,0,1,2.553-1.229,3.907,3.907,0,0,1,1.3.212,2.179,2.179,0,0,1,1.029.7,4.491,4.491,0,0,1,.56,2.754v5.714h-3.306Z" transform="translate(-143.405 -48.507)" fill="#584646"/>
      </g>
      <g id="Group_15" data-name="Group 15" transform="translate(0 0.009)">
        <path id="Path_15" data-name="Path 15" d="M105.276,55.409a5.652,5.652,0,0,1-3.159-.852,4.337,4.337,0,0,1-1.745-2.477l3.017-.438a1.916,1.916,0,0,0,2.08,1.4c.546,0,1.584-.216,1.584-1.027,0-.852-.96-1.032-1.534-1.142l-.078-.014a10.376,10.376,0,0,1-3.205-1,2.847,2.847,0,0,1-1.5-2.629,3.47,3.47,0,0,1,1.433-2.791,5.832,5.832,0,0,1,3.283-.916,5.613,5.613,0,0,1,2.782.682,3.894,3.894,0,0,1,1.713,1.925l-2.686.635a1.885,1.885,0,0,0-1.961-1.077c-.666,0-1.377.373-1.377,1.064,0,.718.831.9,1.331,1l.134.028h0c.128.028.252.051.381.074a10.835,10.835,0,0,1,2.911.852,3.075,3.075,0,0,1,1.235,1.174,3.247,3.247,0,0,1,.418,1.653,3.374,3.374,0,0,1-.45,1.731,3.7,3.7,0,0,1-1.176,1.2,6.351,6.351,0,0,1-3.435.944Z" transform="translate(-100.372 -43.52)" fill="#584646"/>
      </g>
      <g id="Group_16" data-name="Group 16" transform="translate(10.543 2.441)">
        <path id="Path_16" data-name="Path 16" d="M128.265,53.383v.41a4.252,4.252,0,0,1-.2,1.589,1.386,1.386,0,0,1-1.419.842,1.028,1.028,0,0,1-1.171-1.082c0-.972.863-1.556,2.571-1.736Zm-.179,3.449.363-.534v.645a4.28,4.28,0,0,0,.092.948h3.131a6.308,6.308,0,0,1-.211-1.906V52.223a6.522,6.522,0,0,0-.119-1.648,2.168,2.168,0,0,0-.9-1.28,6.179,6.179,0,0,0-3.384-.787,6.289,6.289,0,0,0-2.943.594,3.167,3.167,0,0,0-1.06.9,3.389,3.389,0,0,0-.561,1.229l2.9.041c.294-.751.8-.9,1.556-.9,1.1,0,1.323.534,1.323,1.4v.263l-.184.009a16.178,16.178,0,0,0-3.715.589,3.791,3.791,0,0,0-1.666,1,2.5,2.5,0,0,0-.7,1.754,2.458,2.458,0,0,0,.923,2.007,3.55,3.55,0,0,0,2.209.686A3.131,3.131,0,0,0,128.086,56.832Z" transform="translate(-121.997 -48.507)" fill="#584646"/>
      </g>
      <g id="Group_17" data-name="Group 17" transform="translate(41.451 0.009)">
        <path id="Path_17" data-name="Path 17" d="M185.392,43.52h3.31V55.34h-3.31Z" transform="translate(-185.392 -43.52)" fill="#584646"/>
      </g>
      <g id="Group_18" data-name="Group 18" transform="translate(30.563)">
        <path id="Path_18" data-name="Path 18" d="M169,48.939a6.18,6.18,0,0,1,.174,1.7,4.07,4.07,0,0,1-.422,2.279,1.373,1.373,0,0,1-2.131,0,4.018,4.018,0,0,1-.427-2.279,6.018,6.018,0,0,1,.179-1.7,1.336,1.336,0,0,1,2.627,0Zm.1,5.222.059-.115v1.275h3.31V43.5h-3.31v3.693l-.335-.336a3,3,0,0,0-2.145-.917,3.125,3.125,0,0,0-2.824,1.5,6.451,6.451,0,0,0-.8,3.333,6.272,6.272,0,0,0,.79,3.251,3.021,3.021,0,0,0,2.719,1.487,2.587,2.587,0,0,0,2.536-1.35Z" transform="translate(-163.061 -43.501)" fill="#584646"/>
      </g>
      <g id="Group_19" data-name="Group 19" transform="translate(45.561 2.445)">
        <path id="Path_19" data-name="Path 19" d="M200.2,52.162v.2h-3.072v-.2c0-1.16.569-1.851,1.524-1.851C199.686,50.311,200.2,50.933,200.2,52.162Zm1.433,5.061a4.2,4.2,0,0,0,1.681-2.28H200.4a1.417,1.417,0,0,1-1.612,1.077c-1.1,0-1.658-.663-1.658-1.98v-.2h6.222v-.309a5.117,5.117,0,0,0-1.313-3.656,4.456,4.456,0,0,0-3.426-1.368,4.7,4.7,0,0,0-1.786.35,4.423,4.423,0,0,0-1.681,1.073,5.033,5.033,0,0,0-1.327,3.481h0a4.519,4.519,0,0,0,1.487,3.453,4.906,4.906,0,0,0,3.536,1.207,4.688,4.688,0,0,0,2.792-.861Z" transform="translate(-193.822 -48.515)" fill="#584646"/>
      </g>
    </g>
  </g>
  <g id="Group_24" data-name="Group 24" transform="translate(5.299 9.014)">
    <g id="Group_22" data-name="Group 22" transform="translate(0 0.529)">
      <path id="Path_20" data-name="Path 20" d="M10.944,42.171V20.258h6.769V36.839h3.972a9.307,9.307,0,0,0,2.387,3.78A11.085,11.085,0,0,0,26,42.176Z" transform="translate(-10.944 -20.258)" fill="#fff"/>
    </g>
    <g id="Group_23" data-name="Group 23" transform="translate(12.214)">
      <path id="Path_21" data-name="Path 21" d="M45.479,42.139a10.925,10.925,0,0,1-6.107-1.648A8.37,8.37,0,0,1,36,35.7l5.832-.843c.656,1.893,1.873,2.708,4.017,2.708,1.056,0,3.058-.414,3.058-1.98,0-1.648-1.855-2-2.961-2.206l-.147-.028a20.113,20.113,0,0,1-6.19-1.934,5.494,5.494,0,0,1-2.9-5.083,6.689,6.689,0,0,1,2.769-5.392,11.233,11.233,0,0,1,6.346-1.773A10.888,10.888,0,0,1,51.2,20.484a7.531,7.531,0,0,1,3.31,3.72l-5.189,1.23c-.849-1.819-2.319-2.077-3.783-2.077-1.291,0-2.659.719-2.659,2.054,0,1.391,1.612,1.736,2.571,1.939.092.018.179.041.262.055h.009c.244.05.491.1.735.142a20.818,20.818,0,0,1,5.63,1.644,5.878,5.878,0,0,1,2.383,2.27,6.271,6.271,0,0,1,.813,3.191A6.493,6.493,0,0,1,54.406,38a7.078,7.078,0,0,1-2.268,2.321,12.412,12.412,0,0,1-6.659,1.818Z" transform="translate(-35.997 -19.172)" fill="#fff"/>
    </g>
  </g>
</svg>
