<svg id="lowenstein_logo-1" xmlns="http://www.w3.org/2000/svg" width="200.181" height="59.039" viewBox="0 0 200.181 59.039">
  <g id="Group_26" data-name="Group 26">
    <g id="Group_25" data-name="Group 25">
      <g id="Group_1" data-name="Group 1">
        <path id="Path_1" data-name="Path 1" d="M.075.586H58.952V59.625H.075Z" transform="translate(-0.075 -0.586)" fill="#eb0028"/>
      </g>
      <g id="Group_21" data-name="Group 21" transform="translate(70.25 11.715)">
        <g id="Group_2" data-name="Group 2" transform="translate(59.543 3.479)">
          <path id="Path_2" data-name="Path 2" d="M193.213,35.761V27.684a4.171,4.171,0,0,0-.165-1.409,1.268,1.268,0,0,0-1.28-.873,1.58,1.58,0,0,0-1.168.41,2.788,2.788,0,0,0-.462,2.017v7.932h-4.756V22.551h4.46V24.5s.119-.185.3-.45a4.663,4.663,0,0,1,3.668-1.766,5.63,5.63,0,0,1,1.874.3,3.139,3.139,0,0,1,1.478,1.018c.8,1.052.8,2.527.8,3.956v8.209h-4.75Z" transform="translate(-185.383 -22.279)" fill="#fff"/>
        </g>
        <g id="Group_3" data-name="Group 3" transform="translate(110.477)">
          <path id="Path_3" data-name="Path 3" d="M258.1,17.312h4.757V19.6H258.1Z" transform="translate(-258.102 -17.312)" fill="#fff"/>
        </g>
        <g id="Group_4" data-name="Group 4" transform="translate(110.477 3.751)">
          <path id="Path_4" data-name="Path 4" d="M258.1,22.667h4.757V35.884H258.1Z" transform="translate(-258.102 -22.667)" fill="#fff"/>
        </g>
        <g id="Group_5" data-name="Group 5" transform="translate(0.548)">
          <path id="Path_5" data-name="Path 5" d="M101.154,34.273V17.312h5.132V30.238h5.891v4.035Z" transform="translate(-101.154 -17.312)" fill="#fff"/>
        </g>
        <g id="Group_6" data-name="Group 6" transform="translate(12.125 3.479)">
          <path id="Path_6" data-name="Path 6" d="M126.84,26.652a8.646,8.646,0,0,1,.257,2.441,6.873,6.873,0,0,1-.614,3.526,1.973,1.973,0,0,1-3.061,0,6.914,6.914,0,0,1-.614-3.526,8.624,8.624,0,0,1,.258-2.441,1.919,1.919,0,0,1,3.773,0Zm3.272,7.5a6.37,6.37,0,0,0,1.544-2.129,6.685,6.685,0,0,0,.567-2.746,6.767,6.767,0,0,0-2.071-5.094,8.044,8.044,0,0,0-10.4,0,6.8,6.8,0,0,0-2.072,5.094,6.685,6.685,0,0,0,.567,2.746,6.281,6.281,0,0,0,1.544,2.129,8.022,8.022,0,0,0,10.317,0Z" transform="translate(-117.683 -22.279)" fill="#fff"/>
        </g>
        <g id="Group_7" data-name="Group 7" transform="translate(26.018 3.751)">
          <path id="Path_7" data-name="Path 7" d="M149.293,35.877l-2.025-8.507-2.1,8.507h-3.39l-4.256-13.21h4.691l2.019,7.548,1.939-7.548h3.543l1.926,7.548,2.137-7.548h3.134l-4.176,13.21Z" transform="translate(-137.518 -22.667)" fill="#fff"/>
        </g>
        <g id="Group_8" data-name="Group 8" transform="translate(44.76 3.486)">
          <path id="Path_8" data-name="Path 8" d="M173.447,27.528v.284h-4.413v-.284c0-1.667.818-2.659,2.19-2.659,1.478,0,2.223.9,2.223,2.659Zm2.045,7.263a6.028,6.028,0,0,0,2.414-3.274l-4.189.007a2.035,2.035,0,0,1-2.316,1.548c-1.583,0-2.381-.953-2.381-2.845v-.284h8.951V29.5a7.347,7.347,0,0,0-1.886-5.246,6.382,6.382,0,0,0-4.921-1.964,6.736,6.736,0,0,0-2.566.5,6.351,6.351,0,0,0-2.414,1.541,7.234,7.234,0,0,0-1.907,5v.007a6.5,6.5,0,0,0,2.138,4.961,7.046,7.046,0,0,0,5.079,1.733,6.621,6.621,0,0,0,4-1.243Z" transform="translate(-164.276 -22.289)" fill="#fff"/>
        </g>
        <g id="Group_9" data-name="Group 9" transform="translate(117.352 3.479)">
          <path id="Path_9" data-name="Path 9" d="M275.747,35.761V27.684a4.171,4.171,0,0,0-.165-1.409,1.269,1.269,0,0,0-1.28-.873,1.581,1.581,0,0,0-1.168.41,2.758,2.758,0,0,0-.462,2.017v7.932h-4.756V22.551h4.459V24.5s.119-.185.3-.45a4.661,4.661,0,0,1,3.668-1.766,5.632,5.632,0,0,1,1.874.3,3.143,3.143,0,0,1,1.478,1.018c.8,1.052.8,2.527.8,3.956v8.209h-4.749Z" transform="translate(-267.917 -22.279)" fill="#fff"/>
        </g>
        <g id="Group_10" data-name="Group 10" transform="translate(73.04 3.486)">
          <path id="Path_10" data-name="Path 10" d="M210.788,36.187a8.06,8.06,0,0,1-3.892-.774,4.846,4.846,0,0,1-2.243-2.7l3.7-.377a2.573,2.573,0,0,0,2.5,1.177h.217c.653,0,2.335-.225,2.335-1.25,0-.728-.884-1.191-2.632-1.383l-.112-.02a12.657,12.657,0,0,1-4.031-1,3.279,3.279,0,0,1-1.834-3.2,3.7,3.7,0,0,1,.534-1.945,4.359,4.359,0,0,1,1.451-1.429,7.81,7.81,0,0,1,4.261-1.005,7.516,7.516,0,0,1,3.6.88,5.021,5.021,0,0,1,2.223,2.381l-3.5.509a2.747,2.747,0,0,0-2.56-1.184,3.64,3.64,0,0,0-1.333.231c-.581.252-.672.6-.672.781,0,.721.738.906,1.016.978a14.126,14.126,0,0,0,1.781.272c.2.02.4.039.567.066l.152.02a8.5,8.5,0,0,1,3.47.96,3.726,3.726,0,0,1,1.807,3.267,4.028,4.028,0,0,1-2.243,3.691,9.647,9.647,0,0,1-4.558,1.046Z" transform="translate(-204.653 -22.289)" fill="#fff"/>
        </g>
        <g id="Group_11" data-name="Group 11" transform="translate(86.194 0)">
          <path id="Path_11" data-name="Path 11" d="M228.915,34.6a4.09,4.09,0,0,1-3.094-1.363c-.95-1.025-.95-2.236-.95-3.638V24h-1.438V21.063h1.517V17.312h4.618v3.751h2.863V24h-2.8v5.245a2.013,2.013,0,0,0,.35,1.5,1.472,1.472,0,0,0,1.095.35,6.806,6.806,0,0,0,1.372-.179V34.18a14.869,14.869,0,0,1-3.53.417Z" transform="translate(-223.433 -17.312)" fill="#fff"/>
        </g>
        <g id="Group_12" data-name="Group 12" transform="translate(95.595 3.486)">
          <path id="Path_12" data-name="Path 12" d="M246.025,27.528v.284h-4.413v-.284c0-1.667.817-2.659,2.19-2.659,1.478,0,2.223.9,2.223,2.659Zm2.052,7.263a6.028,6.028,0,0,0,2.414-3.274l-4.188.007a2.032,2.032,0,0,1-2.316,1.548c-1.583,0-2.381-.953-2.381-2.845v-.284h8.945V29.5a7.344,7.344,0,0,0-1.887-5.246,6.381,6.381,0,0,0-4.921-1.964,6.735,6.735,0,0,0-2.566.5,6.348,6.348,0,0,0-2.415,1.541,7.234,7.234,0,0,0-1.907,5v.007a6.505,6.505,0,0,0,2.138,4.961,7.047,7.047,0,0,0,5.079,1.733,6.657,6.657,0,0,0,4-1.243Z" transform="translate(-236.854 -22.289)" fill="#fff"/>
        </g>
        <g id="Group_20" data-name="Group 20" transform="translate(0 18.343)">
          <g id="Group_13" data-name="Group 13" transform="translate(80.211 3.506)">
            <path id="Path_13" data-name="Path 13" d="M223.23,52.754a4.142,4.142,0,0,0-.739-.066,2.558,2.558,0,0,0-2.428,1.091,5.152,5.152,0,0,0-.416,2.508v5.7h-4.756V48.778h4.46v1.938s.119-.185.3-.45a4.638,4.638,0,0,1,3.569-1.759v4.247Z" transform="translate(-214.891 -48.507)" fill="#fff"/>
          </g>
          <g id="Group_14" data-name="Group 14" transform="translate(30.141 3.506)">
            <path id="Path_14" data-name="Path 14" d="M151.236,61.988V53.911a4.154,4.154,0,0,0-.165-1.409,1.268,1.268,0,0,0-1.28-.873,1.59,1.59,0,0,0-1.168.41,2.755,2.755,0,0,0-.462,2.017v7.932h-4.756V48.778h4.46v1.945s.119-.186.3-.45a4.659,4.659,0,0,1,3.667-1.766,5.612,5.612,0,0,1,1.874.3,3.13,3.13,0,0,1,1.478,1.012c.8,1.058.8,2.527.8,3.956v8.209h-4.75Z" transform="translate(-143.405 -48.507)" fill="#fff"/>
          </g>
          <g id="Group_15" data-name="Group 15" transform="translate(0 0.013)">
            <path id="Path_15" data-name="Path 15" d="M107.418,60.6a8.12,8.12,0,0,1-4.539-1.224,6.23,6.23,0,0,1-2.507-3.558l4.334-.629a2.753,2.753,0,0,0,2.989,2.011c.784,0,2.276-.311,2.276-1.475,0-1.224-1.379-1.482-2.2-1.64l-.112-.02a14.907,14.907,0,0,1-4.6-1.441,4.09,4.09,0,0,1-2.157-3.777,4.985,4.985,0,0,1,2.059-4.009,8.378,8.378,0,0,1,4.717-1.316,8.063,8.063,0,0,1,4,.979,5.594,5.594,0,0,1,2.461,2.765l-3.859.913a2.707,2.707,0,0,0-2.817-1.548c-.957,0-1.979.536-1.979,1.528,0,1.032,1.194,1.289,1.912,1.441.073.014.133.027.192.04h.007c.184.04.362.073.547.106a15.566,15.566,0,0,1,4.182,1.224,4.418,4.418,0,0,1,1.775,1.687,4.665,4.665,0,0,1,.6,2.374,4.847,4.847,0,0,1-.646,2.487,5.319,5.319,0,0,1-1.689,1.727,9.124,9.124,0,0,1-4.934,1.357Z" transform="translate(-100.372 -43.52)" fill="#fff"/>
          </g>
          <g id="Group_16" data-name="Group 16" transform="translate(15.147 3.506)">
            <path id="Path_16" data-name="Path 16" d="M131,55.512V56.1a6.108,6.108,0,0,1-.29,2.283,1.992,1.992,0,0,1-2.038,1.21,1.477,1.477,0,0,1-1.682-1.555c0-1.4,1.24-2.236,3.694-2.493Zm-.257,4.955.521-.767v.926a6.15,6.15,0,0,0,.132,1.362h4.5a9.061,9.061,0,0,1-.3-2.739v-5.4a9.37,9.37,0,0,0-.172-2.367,3.115,3.115,0,0,0-1.3-1.839,8.877,8.877,0,0,0-4.862-1.131,9.035,9.035,0,0,0-4.228.853,4.548,4.548,0,0,0-1.523,1.29,4.87,4.87,0,0,0-.806,1.766l4.163.06c.422-1.079,1.147-1.3,2.236-1.3,1.583,0,1.9.767,1.9,2.01v.378l-.264.013a23.24,23.24,0,0,0-5.337.846,5.446,5.446,0,0,0-2.394,1.443A3.591,3.591,0,0,0,122,58.39a3.531,3.531,0,0,0,1.326,2.884,5.1,5.1,0,0,0,3.173.986c1.827,0,3.252-.3,4.249-1.793Z" transform="translate(-121.997 -48.507)" fill="#fff"/>
          </g>
          <g id="Group_17" data-name="Group 17" transform="translate(59.55 0.013)">
            <path id="Path_17" data-name="Path 17" d="M185.392,43.52h4.756V60.5h-4.756Z" transform="translate(-185.392 -43.52)" fill="#fff"/>
          </g>
          <g id="Group_18" data-name="Group 18" transform="translate(43.909 0)">
            <path id="Path_18" data-name="Path 18" d="M171.6,51.313a8.879,8.879,0,0,1,.25,2.441,5.847,5.847,0,0,1-.607,3.274,1.973,1.973,0,0,1-3.061,0,5.772,5.772,0,0,1-.614-3.274,8.645,8.645,0,0,1,.257-2.441,1.919,1.919,0,0,1,3.774,0Zm.145,7.5.085-.165v1.832h4.756V43.5h-4.756v5.306l-.481-.483a4.308,4.308,0,0,0-3.081-1.317,4.489,4.489,0,0,0-4.057,2.157,9.268,9.268,0,0,0-1.148,4.789,9.01,9.01,0,0,0,1.135,4.67,4.34,4.34,0,0,0,3.906,2.136,3.716,3.716,0,0,0,3.641-1.944Z" transform="translate(-163.061 -43.501)" fill="#fff"/>
          </g>
          <g id="Group_19" data-name="Group 19" transform="translate(65.454 3.512)">
            <path id="Path_19" data-name="Path 19" d="M202.992,53.755v.284h-4.413v-.284c0-1.667.817-2.659,2.189-2.659C202.247,51.1,202.992,51.988,202.992,53.755Zm2.059,7.27a6.028,6.028,0,0,0,2.414-3.275l-4.189.006A2.035,2.035,0,0,1,200.96,59.3c-1.583,0-2.381-.953-2.381-2.844v-.284h8.939v-.443a7.351,7.351,0,0,0-1.886-5.252,6.4,6.4,0,0,0-4.922-1.965,6.748,6.748,0,0,0-2.566.5,6.354,6.354,0,0,0-2.414,1.541,7.231,7.231,0,0,0-1.907,5v.007a6.492,6.492,0,0,0,2.137,4.961,7.048,7.048,0,0,0,5.079,1.734,6.735,6.735,0,0,0,4.011-1.237Z" transform="translate(-193.822 -48.515)" fill="#fff"/>
          </g>
        </g>
      </g>
      <g id="Group_24" data-name="Group 24" transform="translate(7.613 13.018)">
        <g id="Group_22" data-name="Group 22" transform="translate(0 0.761)">
          <path id="Path_20" data-name="Path 20" d="M10.944,51.739V20.258h9.724V44.079l5.706.007a13.371,13.371,0,0,0,3.43,5.43,15.925,15.925,0,0,0,2.771,2.229Z" transform="translate(-10.944 -20.258)" fill="#fff"/>
        </g>
        <g id="Group_23" data-name="Group 23" transform="translate(17.548)">
          <path id="Path_21" data-name="Path 21" d="M49.619,52.168A15.7,15.7,0,0,1,40.846,49.8,12.024,12.024,0,0,1,36,42.92l8.378-1.211c.943,2.719,2.691,3.89,5.771,3.89,1.518,0,4.394-.6,4.394-2.844,0-2.368-2.665-2.872-4.254-3.169l-.212-.04c-3.14-.609-6.419-1.323-8.893-2.779a7.893,7.893,0,0,1-4.163-7.3A9.61,9.61,0,0,1,41,21.719a16.138,16.138,0,0,1,9.117-2.547,15.642,15.642,0,0,1,7.719,1.886A10.819,10.819,0,0,1,62.589,26.4l-7.455,1.766c-1.22-2.613-3.331-2.984-5.435-2.984-1.854,0-3.82,1.032-3.82,2.95,0,2,2.316,2.494,3.694,2.786.132.026.258.06.376.079l.013.007c.35.072.706.139,1.056.2a29.908,29.908,0,0,1,8.088,2.362,8.445,8.445,0,0,1,3.424,3.261A9.009,9.009,0,0,1,63.7,41.419a9.327,9.327,0,0,1-1.254,4.8,10.169,10.169,0,0,1-3.258,3.334A17.831,17.831,0,0,1,49.619,52.168Z" transform="translate(-35.997 -19.172)" fill="#fff"/>
        </g>
      </g>
    </g>
  </g>
</svg>
