<svg xmlns="http://www.w3.org/2000/svg" width="32.666" height="14.748" viewBox="0 0 32.666 14.748">
  <path id="Path_798" data-name="Path 798" d="M16790.51,23211.3a29.876,29.876,0,0,1-8.49-1.8c-2.59-1.045-4.02-2.387-4.02-3.781,0-1.529,1.674-2.963,4.707-4.041a39.444,39.444,0,0,1,22.75,0c3.035,1.078,4.709,2.512,4.709,4.041,0,1.395-1.428,2.74-4.02,3.781a31.426,31.426,0,0,1-9.916,1.887l-.008-1.428a31.316,31.316,0,0,0,8.754-1.547c2.6-.918,3.762-2.016,3.762-2.693s-1.162-1.771-3.762-2.7a38.123,38.123,0,0,0-21.789,0c-2.6.926-3.758,2.02-3.758,2.7s1.162,1.775,3.758,2.693a29.4,29.4,0,0,0,7.322,1.453v-2.359l3.576,3.219-3.576,3.215Z" transform="translate(-16777.75 -23199.75)" fill="#eb0028" stroke="#eb0028" stroke-width="0.5"/>
</svg>
