<svg xmlns="http://www.w3.org/2000/svg" xmlns:xlink="http://www.w3.org/1999/xlink" width="417.275" height="376.429" viewBox="0 0 417.275 376.429">
  <defs>
    <linearGradient id="linear-gradient" x1="0.938" y1="0.966" x2="0.059" y2="0.425" gradientUnits="objectBoundingBox">
      <stop offset="0" stop-color="#e7f2ef" stop-opacity="0.071"/>
      <stop offset="1" stop-color="#fff"/>
    </linearGradient>
  </defs>
  <path id="Intersection_42" data-name="Intersection 42" d="M407.412,375.429V90.058a1.842,1.842,0,0,0-.7,1.073A220.457,220.457,0,0,1,393.385,125.1a214.786,214.786,0,0,1-54.147,69.688,4.317,4.317,0,0,0-1.652,3.72q.054,87.309.031,174.617v2.3h-8.928V203.286c-.707.486-1.152.781-1.587,1.094q-55.408,39.878-122.691,38.879a193.745,193.745,0,0,1-40.531-4.889c-39.771-9.133-74.033-28.85-102.869-58.794A214.7,214.7,0,0,1,20.44,119.64,223.786,223.786,0,0,1,.139,27.123Q.033,13.56,0,0H10.51A275.91,275.91,0,0,0,9.19,28.228,200.739,200.739,0,0,0,16.707,83.62a206.759,206.759,0,0,0,46.9,85.6q40.032,43.99,96.433,58.871a187.9,187.9,0,0,0,68.139,5.089c36.415-3.868,69.291-17.274,98.777-39.883a4.344,4.344,0,0,0,1.85-3.954q-.07-55.677-.036-111.353V76.006l-.3-.086c-.5,1.205-.97,2.423-1.493,3.615-18.7,42.649-49.8,69.88-93.88,78.9-43.244,8.851-81.7-3.106-113.985-34.631C96.9,102.115,84.086,75.074,80.063,43.565a171.6,171.6,0,0,1-1.4-22.064q.017-10.751.026-21.5H90.3a135.856,135.856,0,0,0-2.474,32.1c2.613,65.493,55.1,121.059,122.5,119.928,65.9-1.105,119-57.568,118.433-126.915A133.187,133.187,0,0,0,326.179,0h8.845q.478,2.549.872,5.139c.472,3.1.5,6.286,1.126,9.342,1.08,5.247.554,10.518.56,15.769q.085,75.74.034,151.481v2.606a197.3,197.3,0,0,0,21.991-22.922,209.964,209.964,0,0,0,41.882-84.572,212.9,212.9,0,0,0,5.253-68.024q-.372-4.447-.9-8.819h9.119a153.441,153.441,0,0,1,1.161,18.135q.346,177.669.13,355.34v1.954Z" transform="translate(0.502 0.5)" stroke="rgba(0,0,0,0)" stroke-miterlimit="10" stroke-width="1" opacity="0.204" fill="url(#linear-gradient)" style="mix-blend-mode: overlay;isolation: isolate"/>
</svg>
