<svg id="video-mute" xmlns="http://www.w3.org/2000/svg" width="41.828" height="40.01" viewBox="0 0 41.828 40.01">
  <g id="Ellipse_42" data-name="Ellipse 42" transform="translate(0 0)" fill="rgba(242,245,248,0)" stroke="#ffffff" stroke-width="2">
    <ellipse cx="20.914" cy="20.005" rx="20.914" ry="20.005" stroke="none"/>
    <ellipse cx="20.914" cy="20.005" rx="19.914" ry="19.005" fill="none"/>
  </g>
  <path id="video-unmute" d="M6,7l8-5V22L6,17ZM0,17H4V7H0ZM20.264,3.736l-1.5,1.5A9.388,9.388,0,0,1,21.75,12a9.38,9.38,0,0,1-2.983,6.766l1.5,1.5A11.288,11.288,0,0,0,24,12a11.287,11.287,0,0,0-3.736-8.264ZM19.775,12a7.494,7.494,0,0,0-2.384-5.391l-1.5,1.5A5.591,5.591,0,0,1,17.525,12a5.6,5.6,0,0,1-1.634,3.891l1.5,1.5A7.5,7.5,0,0,0,19.775,12Z" transform="translate(9 8)" fill="#ffffff"/>
</svg>
