<svg xmlns="http://www.w3.org/2000/svg" width="320" height="320" viewBox="0 0 320 320">
  <g id="Group_45" data-name="Group 45" transform="translate(-1029 -1283)">
    <g id="Path_217" data-name="Path 217" transform="translate(1029 1283)" fill="#fff">
      <path d="M 160 317 C 149.3457946777344 317 138.6991729736328 315.9268188476562 128.3558349609375 313.810302734375 C 118.2769546508789 311.7478332519531 108.3629989624023 308.6703796386719 98.88945770263672 304.6634216308594 C 89.58721160888672 300.7288818359375 80.61495971679688 295.85888671875 72.22191619873047 290.1886596679688 C 63.90783309936523 284.57177734375 56.08954238891602 278.12109375 48.98424911499023 271.0157775878906 C 41.8789176940918 263.9104614257812 35.42824935913086 256.0921630859375 29.81137466430664 247.7781219482422 C 24.1411247253418 239.3850860595703 19.27112579345703 230.4128265380859 15.33662509918213 221.1105804443359 C 11.32962512969971 211.6369934082031 8.252166748046875 201.7230834960938 6.189708232879639 191.6441650390625 C 4.073166847229004 181.3008270263672 3 170.6542053222656 3 160 C 3 149.3457946777344 4.073166847229004 138.6991729736328 6.189708232879639 128.3558349609375 C 8.252166748046875 118.2769546508789 11.32962512969971 108.3629989624023 15.33662509918213 98.88945770263672 C 19.27112579345703 89.58721160888672 24.1411247253418 80.61495971679688 29.81137466430664 72.22191619873047 C 35.42824935913086 63.90783309936523 41.8789176940918 56.08954238891602 48.98424911499023 48.98424911499023 C 56.08954238891602 41.8789176940918 63.90783309936523 35.42824935913086 72.22191619873047 29.81137466430664 C 80.61495971679688 24.1411247253418 89.58721160888672 19.27112579345703 98.88945770263672 15.33662509918213 C 108.3629989624023 11.32962512969971 118.2769546508789 8.252166748046875 128.3558349609375 6.189708232879639 C 138.6991729736328 4.073166847229004 149.3457946777344 3 160 3 C 170.6542053222656 3 181.3008270263672 4.073166847229004 191.6441650390625 6.189708232879639 C 201.7230834960938 8.252166748046875 211.6369934082031 11.32962512969971 221.1105804443359 15.33662509918213 C 230.4128265380859 19.27112579345703 239.3850860595703 24.1411247253418 247.7781219482422 29.81137466430664 C 256.0921630859375 35.42824935913086 263.9104614257812 41.8789176940918 271.0157775878906 48.98424911499023 C 278.12109375 56.08954238891602 284.57177734375 63.90783309936523 290.1886596679688 72.22191619873047 C 295.85888671875 80.61495971679688 300.7288818359375 89.58721160888672 304.6634216308594 98.88945770263672 C 308.6703796386719 108.3629989624023 311.7478332519531 118.2769546508789 313.810302734375 128.3558349609375 C 315.9268188476562 138.6991729736328 317 149.3457946777344 317 160 C 317 170.6542053222656 315.9268188476562 181.3008270263672 313.810302734375 191.6441650390625 C 311.7478332519531 201.7230834960938 308.6703796386719 211.6369934082031 304.6634216308594 221.1105804443359 C 300.7288818359375 230.4128265380859 295.85888671875 239.3850860595703 290.1886596679688 247.7781219482422 C 284.57177734375 256.0921630859375 278.12109375 263.9104614257812 271.0157775878906 271.0157775878906 C 263.9104614257812 278.12109375 256.0921630859375 284.57177734375 247.7781219482422 290.1886596679688 C 239.3850860595703 295.85888671875 230.4128265380859 300.7288818359375 221.1105804443359 304.6634216308594 C 211.6369934082031 308.6703796386719 201.7230834960938 311.7478332519531 191.6441650390625 313.810302734375 C 181.3008270263672 315.9268188476562 170.6542053222656 317 160 317 Z" stroke="none"/>
      <path d="M 160 6 C 75.08409118652344 6 6 75.08409118652344 6 160 C 6 244.9159088134766 75.08409118652344 314 160 314 C 244.9159088134766 314 314 244.9159088134766 314 160 C 314 75.08409118652344 244.9159088134766 6 160 6 M 160 0 C 248.3655395507812 0 320 71.63441467285156 320 160 C 320 248.3655395507812 248.3655395507812 320 160 320 C 71.63441467285156 320 0 248.3655395507812 0 160 C 0 71.63441467285156 71.63441467285156 0 160 0 Z" stroke="none" fill="#ea0031"/>
    </g>
    <path id="check" d="M56.955,187.691l-54.5-54.5a8.385,8.385,0,0,1,0-11.857l11.857-11.857a8.384,8.384,0,0,1,11.858,0l36.713,36.713L141.52,67.554a8.385,8.385,0,0,1,11.857,0l11.857,11.857a8.385,8.385,0,0,1,0,11.857L68.813,187.691a8.384,8.384,0,0,1-11.858,0Z" transform="translate(1105.155 1315.377)" fill="#1c375e"/>
  </g>
</svg>
