<svg id="noun_Home_633952" xmlns="http://www.w3.org/2000/svg" width="31.27" height="31.27" viewBox="0 0 31.27 31.27">
  <g id="Group_4" data-name="Group 4" transform="translate(0 0)">
    <path id="Path_5" data-name="Path 5" d="M28.385,15.2,15.635,4.047,2.885,15.2a1.737,1.737,0,0,1-2.454-.164h0A1.735,1.735,0,0,1,.6,12.59h0L14.49.429a1.743,1.743,0,0,1,2.29,0h0l13.9,12.16a1.737,1.737,0,0,1,.165,2.452h0a1.738,1.738,0,0,1-1.311.594h0a1.731,1.731,0,0,1-1.145-.43Z" transform="translate(-0.001 -0.001)" fill="#fff"/>
  </g>
  <g id="Group_5" data-name="Group 5" transform="translate(4.264 5.685)">
    <path id="Path_6" data-name="Path 6" d="M15.463,5.455,4.091,15.4V28.2A2.988,2.988,0,0,0,6.935,31.04H11.91V23.933a1.421,1.421,0,0,1,1.421-1.422h4.264a1.421,1.421,0,0,1,1.421,1.422V31.04h4.6c1.5,0,3.215-1.407,3.215-2.842V15.4Z" transform="translate(-4.091 -5.455)" fill="#fff"/>
  </g>
</svg>
