<?xml version="1.0" encoding="UTF-8"?>
<svg width="262px" height="78px" viewBox="0 0 262 78" version="1.1" xmlns="http://www.w3.org/2000/svg" xmlns:xlink="http://www.w3.org/1999/xlink">
    <!-- Generator: Sketch 53.2 (72643) - https://sketchapp.com -->
    <title>Lowenstein_Logo_Main</title>
    <desc>Created with Sketch.</desc>
    <g id="Page-1" stroke="none" stroke-width="1" fill="none" fill-rule="evenodd">
        <g id="Artboard" fill-rule="nonzero">
            <g id="Lowenstein_Logo_Main">
                <polygon id="Fill-2" fill="#EB0028" points="0.896 77.204 77.629 77.204 77.629 0.471 0.896 0.471"></polygon>
                <path d="M180.252,37.746 L180.252,27.25 C180.252,26.689 180.252,25.991 180.041,25.417 C179.769,24.678 179.193,24.285 178.376,24.285 C177.717,24.285 177.205,24.464 176.855,24.818 C176.232,25.447 176.241,26.459 176.249,27.438 C176.251,27.55 176.252,27.664 176.252,27.776 L176.252,37.746 L170.056,37.746 L170.056,20.574 L175.867,20.574 L175.867,23.098 C175.867,23.098 176.02,22.861 176.258,22.516 C177.015,21.425 178.852,20.224 181.038,20.224 C181.912,20.224 182.755,20.36 183.479,20.617 C184.312,20.915 184.959,21.358 185.404,21.937 C186.449,23.308 186.449,25.222 186.449,27.074 L186.449,37.746 L180.252,37.746" id="Fill-3" fill="#161616"></path>
                <polygon id="Fill-4" fill="#161616" points="236.421 18.677 242.617 18.677 242.617 15.703 236.421 15.703"></polygon>
                <polygon id="Fill-5" fill="#161616" points="236.421 37.747 242.617 37.747 242.617 20.574 236.421 20.574"></polygon>
                <polyline id="Fill-6" fill="#161616" points="93.157 37.746 93.157 15.703 99.845 15.703 99.845 32.495 107.524 32.495 107.524 37.746 93.157 37.746"></polyline>
                <path d="M117.72,23.865 C116.886,23.865 115.783,24.217 115.265,25.9 C114.932,26.977 114.932,28.288 114.932,29.072 C114.932,31.36 115.185,32.815 115.728,33.651 C116.267,34.48 117.004,34.594 117.72,34.594 C118.436,34.594 119.173,34.48 119.712,33.651 C120.254,32.815 120.508,31.36 120.508,29.072 C120.508,28.288 120.508,26.977 120.175,25.9 C119.657,24.217 118.554,23.865 117.72,23.865 Z M117.72,38.096 C115.124,38.096 112.737,37.227 110.995,35.654 C110.128,34.869 109.45,33.938 108.982,32.887 C108.491,31.792 108.244,30.589 108.244,29.317 C108.244,26.644 109.179,24.353 110.948,22.7 C112.655,21.103 115.059,20.224 117.72,20.224 C120.382,20.224 122.785,21.103 124.492,22.7 C126.26,24.353 127.196,26.644 127.196,29.317 C127.196,30.589 126.947,31.792 126.458,32.887 C125.989,33.938 125.311,34.869 124.444,35.654 C122.703,37.227 120.315,38.096 117.72,38.096 L117.72,38.096 Z" id="Fill-7" fill="#161616"></path>
                <polyline id="Fill-8" fill="#161616" points="141.696 37.746 139.059 26.69 136.315 37.746 131.899 37.746 126.356 20.574 132.466 20.574 135.099 30.387 137.628 20.574 142.238 20.574 144.749 30.387 147.535 20.574 151.62 20.574 146.179 37.746 141.696 37.746"></polyline>
                <path d="M159.833,23.585 C158.044,23.585 156.975,24.876 156.975,27.039 L156.975,27.409 L162.726,27.409 L162.726,27.039 C162.726,24.748 161.753,23.585 159.833,23.585 Z M160.184,38.096 C157.217,38.096 155.292,37.358 153.566,35.839 C151.764,34.233 150.75,31.883 150.782,29.392 L150.782,29.381 C150.749,26.975 151.702,24.484 153.271,22.881 C154.108,22.013 155.164,21.339 156.415,20.875 C157.566,20.449 158.492,20.224 159.762,20.224 C162.565,20.224 164.55,21.104 166.176,22.777 C167.787,24.429 168.638,26.788 168.638,29.598 L168.638,30.174 L156.975,30.174 L156.975,30.545 C156.975,33 158.019,34.245 160.079,34.245 C161.326,34.245 162.644,33.997 163.094,32.235 L168.553,32.229 C168.007,33.992 166.928,35.458 165.408,36.484 C163.853,37.539 162.279,38.096 160.184,38.096 L160.184,38.096 Z" id="Fill-9" fill="#161616"></path>
                <path d="M255.581,37.746 L255.581,27.25 C255.581,26.689 255.581,25.991 255.37,25.417 C255.098,24.678 254.522,24.285 253.704,24.285 C253.046,24.285 252.535,24.464 252.186,24.818 C251.562,25.447 251.571,26.459 251.58,27.438 C251.581,27.55 251.581,27.664 251.581,27.776 L251.581,37.746 L245.387,37.746 L245.387,20.574 L251.198,20.574 L251.198,23.098 C251.198,23.098 251.349,22.861 251.589,22.516 C252.344,21.425 254.181,20.224 256.368,20.224 C257.241,20.224 258.086,20.36 258.81,20.617 C259.641,20.915 260.291,21.358 260.734,21.937 C261.779,23.308 261.779,25.222 261.779,27.074 L261.779,37.746 L255.581,37.746" id="Fill-10" fill="#161616"></path>
                <path d="M195.626,38.29 C193.443,38.29 191.833,37.968 190.554,37.28 C189.203,36.55 188.244,35.4 187.633,33.769 L192.454,33.279 C193.388,34.814 194.832,34.813 195.711,34.813 C195.76,34.813 195.949,34.813 195.996,34.813 C196.844,34.813 199.042,34.522 199.042,33.189 C199.042,32.247 197.889,31.641 195.611,31.389 L195.469,31.367 C193.608,31.108 191.684,30.839 190.217,30.068 C188.589,29.212 187.83,27.893 187.83,25.918 C187.83,25.003 188.064,24.153 188.53,23.394 C188.973,22.669 189.609,22.044 190.424,21.535 C191.866,20.638 193.63,20.224 195.975,20.224 C197.662,20.224 199.325,20.63 200.658,21.369 C201.996,22.11 202.991,23.173 203.556,24.461 L198.991,25.127 C198.427,24.13 197.257,23.585 195.659,23.585 C195.002,23.585 194.385,23.693 193.92,23.889 C193.16,24.212 193.048,24.661 193.048,24.901 C193.048,25.834 194.007,26.078 194.375,26.17 C194.976,26.332 195.89,26.43 196.698,26.519 C196.967,26.547 197.222,26.573 197.435,26.601 L197.629,26.625 C199.149,26.822 200.874,27.045 202.151,27.875 C203.691,28.859 204.505,30.327 204.505,32.122 C204.505,34.215 203.519,35.832 201.578,36.921 C200.03,37.792 197.861,38.29 195.626,38.29" id="Fill-11" fill="#161616"></path>
                <path d="M211.92,38.167 C210.348,38.167 208.951,37.552 207.885,36.392 C206.649,35.062 206.65,33.488 206.65,31.667 L206.65,24.392 L204.778,24.392 L204.778,20.574 L206.757,20.574 L206.757,15.703 L212.776,15.703 L212.776,20.574 L216.506,20.574 L216.506,24.392 L212.848,24.392 L212.848,30.93 C212.848,31.024 212.847,31.12 212.847,31.213 C212.841,31.97 212.835,32.686 213.299,33.153 C213.606,33.462 214.071,33.613 214.724,33.613 C215.326,33.613 215.999,33.494 216.51,33.378 L216.51,37.626 C214.985,38.05 212.936,38.167 211.92,38.167" id="Fill-12" fill="#161616"></path>
                <path d="M226.083,23.585 C224.293,23.585 223.225,24.876 223.225,27.039 L223.225,27.409 L228.976,27.409 L228.976,27.039 C228.976,24.748 228.003,23.585 226.083,23.585 Z M226.433,38.096 C223.467,38.096 221.542,37.358 219.816,35.839 C218.014,34.233 216.999,31.883 217.033,29.392 L217.033,29.381 C216.999,26.975 217.951,24.484 219.52,22.881 C220.358,22.013 221.415,21.339 222.665,20.875 C223.817,20.449 224.742,20.224 226.013,20.224 C228.815,20.224 230.8,21.104 232.427,22.777 C234.036,24.429 234.887,26.788 234.887,29.598 L234.887,30.174 L223.225,30.174 L223.225,30.545 C223.225,33 224.27,34.245 226.328,34.245 C227.576,34.245 228.895,33.997 229.344,32.235 L234.802,32.229 C234.257,33.992 233.177,35.458 231.659,36.484 C230.102,37.539 228.528,38.096 226.433,38.096 L226.433,38.096 Z" id="Fill-13" fill="#161616"></path>
                <path d="M207.842,49.617 C207.511,49.56 207.187,49.529 206.88,49.529 C205.858,49.529 204.418,49.676 203.719,50.947 C203.181,51.906 203.181,53.131 203.181,54.209 L203.181,61.621 L196.984,61.621 L196.984,44.449 L202.796,44.449 L202.796,46.964 C202.796,46.964 202.947,46.728 203.187,46.383 C203.928,45.312 205.711,44.136 207.842,44.093 L207.842,49.617" id="Fill-14" fill="#161616"></path>
                <path d="M141.931,61.616 L141.931,51.121 C141.931,50.56 141.931,49.865 141.721,49.29 C141.448,48.55 140.873,48.158 140.054,48.158 C139.397,48.158 138.885,48.337 138.536,48.689 C137.912,49.319 137.922,50.331 137.93,51.309 C137.931,51.424 137.932,51.535 137.932,51.647 L137.932,61.616 L131.737,61.616 L131.737,44.445 L137.548,44.445 L137.548,46.971 C137.548,46.971 137.699,46.733 137.939,46.389 C138.696,45.298 140.532,44.095 142.718,44.095 C143.591,44.095 144.435,44.233 145.16,44.491 C145.993,44.786 146.641,45.23 147.084,45.807 C148.129,47.179 148.129,49.093 148.129,50.945 L148.129,61.616 L141.931,61.616" id="Fill-15" fill="#161616"></path>
                <path d="M101.632,61.75 C99.319,61.75 97.274,61.2 95.715,60.157 C94.128,59.092 93.029,57.538 92.445,55.532 L98.094,54.719 C98.729,56.549 99.908,57.334 101.985,57.334 C103.009,57.334 104.947,56.932 104.947,55.419 C104.947,53.828 103.15,53.49 102.078,53.286 C102.03,53.279 101.98,53.271 101.934,53.262 C99.815,52.853 97.607,52.374 95.937,51.392 C94.048,50.278 93.129,48.673 93.129,46.481 C93.129,44.433 94.157,42.438 95.813,41.273 C97.411,40.169 99.595,39.559 101.962,39.559 C103.907,39.559 105.706,40 107.168,40.829 C108.659,41.678 109.737,42.887 110.376,44.422 L105.35,45.608 C104.528,43.851 103.106,43.6 101.682,43.6 C100.433,43.6 99.105,44.296 99.105,45.584 C99.105,46.926 100.664,47.261 101.594,47.459 C101.685,47.478 101.769,47.497 101.847,47.514 L101.857,47.516 C102.094,47.564 102.332,47.608 102.569,47.656 C104.428,48.014 106.349,48.387 108.022,49.244 C109.022,49.777 109.799,50.514 110.332,51.436 C110.855,52.337 111.118,53.375 111.118,54.52 C111.118,55.713 110.835,56.802 110.275,57.75 C109.763,58.62 109.024,59.374 108.077,59.994 C106.373,61.11 104.023,61.75 101.632,61.75" id="Fill-16" fill="#161616"></path>
                <path d="M123.509,53.245 C120.315,53.58 118.694,54.671 118.694,56.487 C118.694,57.769 119.493,58.503 120.885,58.503 C122.208,58.503 123.101,57.975 123.543,56.929 C123.918,56.042 123.918,54.889 123.918,53.962 L123.918,53.201 L123.509,53.245 Z M118.048,61.972 C116.425,61.972 114.955,61.517 113.91,60.693 C112.779,59.798 112.181,58.501 112.181,56.942 C112.181,55.705 112.623,54.602 113.495,53.669 C114.277,52.831 115.353,52.183 116.616,51.793 C119.114,51.025 121.781,50.796 123.57,50.689 L123.918,50.668 L123.918,50.179 C123.918,48.566 123.503,47.565 121.446,47.565 C120.028,47.565 119.079,47.849 118.529,49.252 L113.108,49.178 C113.323,48.3 113.676,47.529 114.16,46.883 C114.667,46.203 115.336,45.64 116.145,45.211 C117.534,44.472 119.388,44.1 121.656,44.1 C123.614,44.1 126.3,44.353 127.992,45.571 L127.996,45.575 C128.888,46.202 129.426,46.961 129.69,47.964 C129.934,48.89 129.923,49.937 129.91,51.046 C129.908,51.289 129.906,51.54 129.906,51.79 L129.906,58.064 C129.906,59.282 129.94,60.472 130.306,61.621 L124.443,61.621 C124.323,61.024 124.268,60.57 124.268,59.852 L124.268,58.648 L123.593,59.644 C122.283,61.575 120.429,61.972 118.048,61.972 L118.048,61.972 Z" id="Fill-17" fill="#161616"></path>
                <polygon id="Fill-18" fill="#161616" points="170.053 61.621 176.249 61.621 176.249 39.552 170.053 39.552"></polygon>
                <path d="M158.333,47.651 C157.499,47.651 156.396,48.006 155.876,49.686 C155.545,50.762 155.545,52.075 155.545,52.857 C155.545,55.147 155.798,56.28 156.34,57.116 C156.879,57.947 157.615,58.061 158.333,58.061 C159.049,58.061 159.785,57.947 160.325,57.116 C160.866,56.28 161.118,55.147 161.118,52.857 C161.118,52.075 161.118,50.762 160.788,49.686 C160.269,48.006 159.167,47.651 158.333,47.651 Z M156.233,61.972 C154.005,61.972 152.293,61.036 151.147,59.192 C150.191,57.657 149.665,55.501 149.665,53.122 C149.665,51.371 149.924,48.87 151.159,46.901 C152.324,45.041 154.101,44.1 156.442,44.1 C158.342,44.1 159.673,45.03 160.456,45.814 L161.087,46.443 L161.087,39.552 L167.284,39.552 L167.284,61.621 L161.087,61.621 L161.087,59.237 L160.975,59.455 C160.055,61.231 158.421,61.972 156.233,61.972 L156.233,61.972 Z" id="Fill-19" fill="#161616"></path>
                <path d="M186.802,47.457 C185.013,47.457 183.945,48.746 183.945,50.91 L183.945,51.281 L189.695,51.281 L189.695,50.91 C189.695,48.618 188.723,47.457 186.802,47.457 Z M187.154,61.967 C184.185,61.967 182.261,61.228 180.536,59.71 C178.734,58.107 177.719,55.755 177.752,53.264 L177.752,53.253 C177.719,50.847 178.672,48.356 180.241,46.752 C181.077,45.885 182.133,45.211 183.384,44.747 C184.536,44.32 185.46,44.095 186.732,44.095 C189.535,44.095 191.52,44.978 193.146,46.647 C194.755,48.301 195.607,50.661 195.607,53.469 L195.607,54.047 L183.945,54.047 L183.945,54.416 C183.945,56.872 184.99,58.116 187.048,58.116 C188.295,58.116 189.614,57.87 190.062,56.106 L195.523,56.1 C194.977,57.864 193.897,59.329 192.378,60.356 C190.823,61.41 189.248,61.967 187.154,61.967 L187.154,61.967 Z" id="Fill-20" fill="#161616"></path>
                <path d="M10.816,59.292 L10.816,18.383 L23.486,18.383 L23.486,49.344 L30.919,49.355 C31.395,50.811 32.607,53.751 35.392,56.414 C37.606,58.531 39,59.308 39,59.308 L10.816,59.292" id="Fill-21" fill="#FFFFFE"></path>
                <path d="M51.436,60.279 C46.965,60.279 43.014,59.217 40.001,57.2 C36.934,55.143 34.81,52.14 33.682,48.263 L44.599,46.692 C45.826,50.227 48.105,51.744 52.118,51.744 C54.097,51.744 57.841,50.969 57.841,48.045 C57.841,44.971 54.369,44.317 52.296,43.924 C52.204,43.909 52.108,43.893 52.019,43.876 C47.925,43.087 43.657,42.16 40.429,40.262 C36.779,38.11 35.003,35.007 35.003,30.772 C35.003,26.815 36.99,22.958 40.191,20.707 C43.279,18.574 47.499,17.396 52.073,17.396 C55.831,17.396 59.309,18.247 62.132,19.849 C65.014,21.491 67.098,23.826 68.332,26.793 L58.621,29.085 C57.031,25.689 54.283,25.205 51.533,25.205 C49.117,25.205 46.552,26.549 46.552,29.038 C46.552,31.633 49.565,32.28 51.362,32.661 C51.537,32.699 51.701,32.735 51.85,32.768 L51.87,32.773 C52.328,32.865 52.788,32.951 53.246,33.043 C56.838,33.735 60.551,34.455 63.784,36.112 C65.717,37.141 67.218,38.565 68.247,40.347 C69.259,42.089 69.767,44.094 69.767,46.308 C69.767,48.613 69.219,50.718 68.137,52.55 C67.148,54.231 65.719,55.688 63.889,56.885 C60.598,59.041 56.056,60.279 51.436,60.279" id="Fill-22" fill="#FFFFFE"></path>
            </g>
        </g>
    </g>
</svg>