<svg width="40" height="39" viewBox="0 0 40 39" fill="none" xmlns="http://www.w3.org/2000/svg">
<g clip-path="url(#clip0_2598_8959)">
<path d="M19.6512 38.8238C15.821 38.824 12.0769 37.6884 8.89217 35.5606C5.70746 33.4328 3.22524 30.4084 1.75943 26.8699C0.293614 23.3314 -0.0899617 19.4376 0.657209 15.6811C1.40438 11.9245 3.24874 8.47394 5.95704 5.76564C8.66535 3.05733 12.116 1.21297 15.8725 0.465803C19.629 -0.281368 23.5228 0.102208 27.0613 1.56802C30.5998 3.03384 33.6242 5.51605 35.752 8.70076C37.8798 11.8855 39.0154 15.6296 39.0152 19.4598C39.0212 22.0044 38.5245 24.5251 37.5535 26.8772C36.5825 29.2293 35.1564 31.3664 33.3571 33.1657C31.5578 34.965 29.4207 36.3911 27.0686 37.3621C24.7165 38.3331 22.1958 38.8298 19.6512 38.8238ZM19.6512 31.1588L21.1032 29.7068L19.6512 24.1398L18.1992 29.7068L19.6512 31.1588ZM17.7952 31.0778L17.0692 33.8208L18.7632 32.1268L17.7952 31.0778ZM21.5062 31.0778L20.5382 32.0458L22.2322 33.7398L21.5062 31.0778ZM22.8782 36.0778L19.6502 32.8508L16.4222 36.0778C17.4881 36.2693 18.5674 36.3773 19.6502 36.4008C20.7349 36.4183 21.818 36.3109 22.8782 36.0808V36.0778ZM19.6512 2.51576C15.6489 2.51312 11.7751 3.92864 8.71741 6.51107C5.65973 9.0935 3.61594 12.6758 2.94881 16.6221C2.28169 20.5684 3.03437 24.6234 5.07328 28.0674C7.11218 31.5115 10.3054 34.1217 14.0862 35.4348L17.7172 21.9608C17.3109 21.6653 16.9816 21.2765 16.7569 20.8271C16.5322 20.3778 16.4188 19.8811 16.4262 19.3788C16.4255 18.8281 16.5657 18.2864 16.8334 17.8052C17.1012 17.3241 17.4875 16.9194 17.9558 16.6297C18.4241 16.3399 18.9587 16.1748 19.5088 16.15C20.0589 16.1252 20.6062 16.2416 21.0987 16.488C21.5911 16.7344 22.0123 17.1027 22.3223 17.5579C22.6322 18.013 22.8206 18.5399 22.8694 19.0884C22.9183 19.6368 22.826 20.1887 22.6014 20.6915C22.3768 21.1942 22.0273 21.6312 21.5862 21.9608L25.2182 35.4348C28.9998 34.1221 32.1939 31.5118 34.2334 28.0674C36.2729 24.6229 37.0257 20.5671 36.3583 16.6202C35.6908 12.6732 33.6462 9.09054 30.5876 6.50819C27.5289 3.92584 23.6541 2.51196 19.6512 2.51576ZM30.7042 27.8508C30.5055 28.0988 30.2199 28.2621 29.9054 28.3074C29.5908 28.3527 29.2708 28.2767 29.0102 28.0948C28.8822 28.0097 28.7735 27.8987 28.691 27.7691C28.6085 27.6394 28.5542 27.4939 28.5314 27.3419C28.5086 27.19 28.5178 27.0349 28.5586 26.8868C28.5994 26.7386 28.6708 26.6006 28.7682 26.4818C30.1869 24.4158 30.9463 21.9684 30.9463 19.4623C30.9463 16.9561 30.1869 14.5087 28.7682 12.4428C28.6706 12.3239 28.5991 12.1858 28.5582 12.0376C28.5173 11.8893 28.508 11.7341 28.5308 11.582C28.5536 11.4299 28.6081 11.2843 28.6906 11.1546C28.7732 11.0248 28.882 10.9138 29.0102 10.8288C29.2705 10.6466 29.5904 10.5703 29.905 10.6152C30.2195 10.6601 30.5052 10.823 30.7042 11.0708C32.4562 13.5161 33.3885 16.4536 33.3672 19.4618C33.388 22.4692 32.4557 25.406 30.7042 27.8508ZM24.8142 24.7038C24.5919 24.4409 24.4767 24.104 24.4915 23.7601C24.5064 23.4162 24.6501 23.0905 24.8942 22.8478C25.683 21.8953 26.1114 20.6955 26.1042 19.4588C26.0893 18.2259 25.6634 17.0333 24.8942 16.0698C24.6671 15.818 24.5349 15.4949 24.5203 15.1561C24.5057 14.8174 24.6096 14.4842 24.8142 14.2138C24.9126 14.0859 25.0376 13.9809 25.1806 13.9062C25.3237 13.8315 25.4812 13.7888 25.6424 13.7811C25.8036 13.7734 25.9645 13.8008 26.114 13.8616C26.2635 13.9223 26.398 14.0148 26.5082 14.1328C27.8075 15.6023 28.5247 17.4962 28.5247 19.4578C28.5247 21.4193 27.8075 23.3132 26.5082 24.7828C26.3934 24.8921 26.2577 24.9771 26.1093 25.0325C25.9608 25.0879 25.8026 25.1127 25.6443 25.1053C25.486 25.098 25.3308 25.0586 25.1881 24.9895C25.0454 24.9205 24.9182 24.8233 24.8142 24.7038ZM14.4862 24.7038C14.3822 24.8234 14.2551 24.9208 14.1125 24.99C13.9699 25.0592 13.8148 25.0988 13.6565 25.1064C13.4982 25.1139 13.3399 25.0893 13.1914 25.0341C13.0428 24.9788 12.907 24.894 12.7922 24.7848C11.4928 23.3152 10.7756 21.4213 10.7756 19.4598C10.7756 17.4982 11.4928 15.6043 12.7922 14.1348C12.902 14.0164 13.0365 13.9234 13.186 13.8624C13.3356 13.8013 13.4967 13.7737 13.658 13.7814C13.8193 13.7891 13.977 13.832 14.1201 13.907C14.2631 13.9821 14.3881 14.0874 14.4862 14.2158C14.7084 14.4786 14.8236 14.8155 14.8088 15.1594C14.794 15.5033 14.6502 15.829 14.4062 16.0718C13.6369 17.0353 13.2111 18.2279 13.1962 19.4608C13.1889 20.6975 13.6173 21.8973 14.4062 22.8498C14.6505 23.0919 14.7945 23.4174 14.8093 23.7611C14.8241 24.1048 14.7087 24.4414 14.4862 24.7038ZM10.2912 28.0948C10.0308 28.2769 9.71093 28.3533 9.39637 28.3083C9.08181 28.2634 8.7961 28.1005 8.59717 27.8528C6.84519 25.4074 5.91292 22.4699 5.93416 19.4618C5.91292 16.4536 6.84519 13.5161 8.59717 11.0708C8.7961 10.823 9.08181 10.6601 9.39637 10.6152C9.71093 10.5703 10.0308 10.6466 10.2912 10.8288C10.4193 10.9138 10.5281 11.0248 10.6107 11.1546C10.6933 11.2843 10.7477 11.4299 10.7705 11.582C10.7933 11.7341 10.784 11.8893 10.7431 12.0376C10.7022 12.1858 10.6307 12.3239 10.5332 12.4428C9.11444 14.5087 8.35503 16.9561 8.35503 19.4623C8.35503 21.9684 9.11444 24.4158 10.5332 26.4818C10.7122 26.7287 10.7872 27.0361 10.7419 27.3377C10.6967 27.6394 10.5348 27.9112 10.2912 28.0948Z" fill="#292929"/>
</g>
<defs>
<clipPath id="clip0_2598_8959">
<rect width="38.729" height="38.729" fill="white" transform="translate(0.285156 0.0976562)"/>
</clipPath>
</defs>
</svg>
