<svg width="38" height="38" viewBox="0 0 38 38" fill="none" xmlns="http://www.w3.org/2000/svg">
<path d="M26.8385 37.962H10.1905C8.68479 38.0168 7.17892 37.8585 5.71748 37.492C4.77124 37.2117 3.88759 36.7524 3.11448 36.139C2.07682 35.3186 1.26245 34.2501 0.746484 33.032C0.18313 31.344 -0.0649968 29.5668 0.0144845 27.789V11.137C-0.0649376 9.35895 0.183186 7.58141 0.746484 5.89304C1.26199 4.67501 2.07645 3.60671 3.11448 2.78704C3.8865 2.17323 4.76913 1.71325 5.71448 1.43204C7.17677 1.06463 8.68377 0.906391 10.1905 0.962042H26.8385C28.3452 0.906391 29.8522 1.06463 31.3145 1.43204C32.2598 1.71327 33.1425 2.17325 33.9145 2.78704C34.9512 3.6071 35.7649 4.67489 36.2805 5.89204C36.8446 7.5806 37.0934 9.3585 37.0145 11.137V27.789C37.094 29.5668 36.8458 31.344 36.2825 33.032C35.8341 34.0958 35.1563 35.0473 34.2975 35.8186C33.4387 36.59 32.4201 37.1621 31.3145 37.494C29.852 37.8601 28.3451 38.0177 26.8385 37.962ZM18.5145 21.269C17.5284 21.2239 16.5642 21.5696 15.8315 22.231C15.5477 22.5179 15.3745 22.8958 15.3425 23.298C15.2665 24.231 15.2866 25.1692 15.4025 26.098C15.5025 27.286 15.6925 28.812 15.9215 30.284C16.018 30.9975 16.1634 31.7035 16.3565 32.397C16.5261 32.8177 16.8291 33.171 17.2189 33.4028C17.6088 33.6346 18.0639 33.732 18.5145 33.68C18.9656 33.732 19.4212 33.6343 19.8113 33.4019C20.2014 33.1696 20.5044 32.8154 20.6735 32.394C20.8667 31.7005 21.012 30.9945 21.1085 30.281C21.3375 28.809 21.5265 27.281 21.6275 26.095C21.7424 25.1662 21.7625 24.228 21.6875 23.295C21.6555 22.8922 21.4811 22.5139 21.1955 22.228C20.4636 21.5668 19.4997 21.2221 18.5145 21.269ZM18.4245 6.73004H18.5145C21.1225 6.72933 23.6511 7.62718 25.6746 9.27244C27.6982 10.9177 29.0931 13.2099 29.6245 15.7632C30.156 18.3164 29.7915 20.9748 28.5925 23.2908C27.3935 25.6069 25.4332 27.4391 23.0415 28.479C22.9709 28.5105 22.9095 28.5596 22.8633 28.6216C22.8171 28.6836 22.7875 28.7564 22.7775 28.833C22.7185 29.291 22.6545 29.738 22.5885 30.164C22.5846 30.1891 22.5862 30.2147 22.5933 30.2391C22.6004 30.2635 22.6127 30.286 22.6295 30.305C22.6456 30.3237 22.6655 30.3387 22.688 30.3489C22.7104 30.359 22.7348 30.3642 22.7595 30.364C22.7796 30.3644 22.7996 30.361 22.8185 30.354C25.7195 29.339 28.1676 27.3298 29.7289 24.6823C31.2902 22.0349 31.8638 18.9203 31.3482 15.8903C30.8326 12.8604 29.261 10.1108 26.9119 8.12877C24.5629 6.14677 21.588 5.06036 18.5145 5.06204H18.4775C15.408 5.07067 12.4404 6.16424 10.0993 8.14943C7.75813 10.1346 6.19425 12.8836 5.68406 15.9104C5.17387 18.9372 5.75022 22.0469 7.31124 24.6898C8.87226 27.3328 11.3174 29.3387 14.2145 30.353C14.2334 30.36 14.2534 30.3634 14.2735 30.363C14.2981 30.3632 14.3225 30.358 14.345 30.3478C14.3674 30.3377 14.3874 30.3227 14.4035 30.304C14.4202 30.285 14.4326 30.2625 14.4397 30.2381C14.4468 30.2137 14.4484 30.1881 14.4445 30.163C14.3795 29.746 14.3165 29.298 14.2555 28.832C14.2454 28.7554 14.2159 28.6826 14.1697 28.6206C14.1234 28.5586 14.0621 28.5095 13.9915 28.478C11.6085 27.4403 9.65402 25.6158 8.45499 23.3097C7.25595 21.0036 6.88503 18.3558 7.40427 15.809C7.92351 13.2623 9.30142 10.971 11.3076 9.31837C13.3137 7.66576 15.8254 6.75205 18.4245 6.73004ZM18.5245 11.03C19.9382 11.03 21.3192 11.4551 22.4883 12.2499C23.6574 13.0448 24.5605 14.1727 25.0804 15.4873C25.6003 16.802 25.713 18.2425 25.4038 19.622C25.0946 21.0015 24.3778 22.2561 23.3465 23.223C23.2884 23.2762 23.2428 23.3417 23.2133 23.4147C23.1837 23.4877 23.1708 23.5664 23.1755 23.645C23.2004 24.1402 23.1954 24.6365 23.1605 25.131C23.1587 25.154 23.1618 25.1771 23.1696 25.1988C23.1773 25.2206 23.1895 25.2404 23.2055 25.257C23.2219 25.2746 23.2417 25.2887 23.2637 25.2983C23.2857 25.3079 23.3095 25.3129 23.3335 25.313C23.3669 25.3133 23.3997 25.3036 23.4275 25.285C24.9687 24.2368 26.1333 22.722 26.7503 20.9632C27.3673 19.2043 27.4042 17.294 26.8556 15.5126C26.3069 13.7312 25.2017 12.1726 23.7021 11.0656C22.2024 9.95866 20.3874 9.36157 18.5235 9.36204C18.4015 9.36204 18.2865 9.36204 18.1805 9.36804C16.348 9.44063 14.5851 10.0894 13.1427 11.222C11.7002 12.3546 10.6518 13.9134 10.1467 15.6763C9.64151 17.4393 9.70531 19.3168 10.329 21.0414C10.9527 22.766 12.1045 24.25 13.6205 25.282C13.6483 25.3006 13.6811 25.3103 13.7145 25.31C13.7385 25.3099 13.7623 25.3049 13.7843 25.2953C13.8063 25.2857 13.8261 25.2716 13.8425 25.254C13.8584 25.2374 13.8707 25.2176 13.8784 25.1958C13.8862 25.1741 13.8893 25.151 13.8875 25.128C13.8526 24.6335 13.8476 24.1372 13.8725 23.642C13.877 23.5631 13.864 23.4842 13.8345 23.4109C13.8049 23.3376 13.7595 23.2717 13.7015 23.218C12.6879 22.2672 11.978 21.0379 11.661 19.6848C11.344 18.3317 11.4339 16.915 11.9196 15.6129C12.4053 14.3107 13.2649 13.1812 14.3906 12.3661C15.5163 11.5511 16.8578 11.087 18.2465 11.032C18.3395 11.028 18.4325 11.027 18.5255 11.027L18.5245 11.03ZM18.5145 13.985C17.9156 13.985 17.3302 14.1626 16.8322 14.4954C16.3343 14.8281 15.9462 15.301 15.717 15.8543C15.4878 16.4076 15.4278 17.0164 15.5447 17.6038C15.6615 18.1911 15.9499 18.7307 16.3734 19.1542C16.7968 19.5776 17.3364 19.866 17.9238 19.9829C18.5111 20.0997 19.12 20.0397 19.6733 19.8105C20.2265 19.5814 20.6995 19.1933 21.0322 18.6953C21.3649 18.1974 21.5425 17.6119 21.5425 17.013C21.5414 16.2103 21.2221 15.4407 20.6544 14.8731C20.0868 14.3055 19.3172 13.9861 18.5145 13.985Z" fill="#292929"/>
</svg>
