<svg width="39" height="39" viewBox="0 0 39 39" fill="none" xmlns="http://www.w3.org/2000/svg">
<g clip-path="url(#clip0_2598_8961)">
<path fill-rule="evenodd" clip-rule="evenodd" d="M31.0905 17.2647C24.8485 13.5577 14.5535 13.2167 8.5905 15.0257C8.36291 15.0947 8.12395 15.1183 7.88726 15.095C7.65057 15.0718 7.42079 15.0021 7.21102 14.89C7.00126 14.7779 6.81561 14.6256 6.6647 14.4418C6.51379 14.258 6.40057 14.0462 6.33149 13.8187C6.26242 13.5911 6.23885 13.3521 6.26213 13.1154C6.2854 12.8787 6.35506 12.6489 6.46714 12.4392C6.57922 12.2294 6.73152 12.0438 6.91534 11.8929C7.09916 11.742 7.31091 11.6287 7.53849 11.5597C14.3795 9.48365 25.7505 9.88466 32.9385 14.1497C33.3516 14.395 33.6503 14.7944 33.7689 15.2599C33.8875 15.7255 33.8163 16.2191 33.571 16.6322C33.3257 17.0452 32.9263 17.3439 32.4607 17.4625C31.9952 17.5812 31.5016 17.51 31.0885 17.2647H31.0905ZM30.8905 22.7557C30.7871 22.9249 30.6514 23.0721 30.491 23.1888C30.3307 23.3056 30.1489 23.3895 29.9561 23.436C29.7633 23.4824 29.5633 23.4904 29.3674 23.4595C29.1715 23.4285 28.9836 23.3593 28.8145 23.2557C23.6095 20.0557 15.6745 19.1307 9.51449 20.9987C9.3248 21.0562 9.12562 21.0759 8.92832 21.0565C8.73103 21.0371 8.5395 20.9791 8.36465 20.8856C8.1898 20.7922 8.03505 20.6653 7.90925 20.5121C7.78346 20.3588 7.68908 20.1823 7.63149 19.9927C7.57391 19.803 7.55426 19.6038 7.57365 19.4065C7.59304 19.2092 7.6511 19.0177 7.74452 18.8428C7.83793 18.668 7.96486 18.5132 8.11808 18.3874C8.2713 18.2616 8.4478 18.1672 8.63749 18.1097C15.6695 15.9757 24.4125 17.0097 30.3905 20.6827C30.7308 20.8921 30.9741 21.228 31.0671 21.6166C31.1601 22.0052 31.0951 22.4149 30.8865 22.7557H30.8905ZM28.5215 28.0287C28.4388 28.1641 28.3302 28.2819 28.2019 28.3753C28.0737 28.4687 27.9282 28.5359 27.7739 28.5731C27.6197 28.6103 27.4596 28.6166 27.3028 28.5918C27.1461 28.567 26.9958 28.5116 26.8605 28.4287C22.3135 25.6497 16.5895 25.0217 9.8495 26.5617C9.69404 26.5997 9.53255 26.6064 9.37446 26.5815C9.21637 26.5565 9.06482 26.5004 8.92863 26.4163C8.79244 26.3323 8.67433 26.2219 8.58117 26.0918C8.48801 25.9617 8.42167 25.8143 8.386 25.6583C8.35032 25.5023 8.34603 25.3407 8.37338 25.183C8.40073 25.0253 8.45917 24.8746 8.5453 24.7397C8.63142 24.6048 8.74352 24.4884 8.87506 24.3972C9.0066 24.3061 9.15494 24.242 9.31149 24.2087C16.6885 22.5227 23.0115 23.2487 28.1195 26.3667C28.2548 26.4495 28.3724 26.5582 28.4656 26.6866C28.5588 26.8149 28.6258 26.9604 28.6628 27.1147C28.6998 27.2689 28.706 27.429 28.681 27.5856C28.6561 27.7423 28.6005 27.8925 28.5175 28.0277L28.5215 28.0287ZM19.6365 0.0976562C15.8064 0.0976563 12.0624 1.23342 8.87777 3.36132C5.69319 5.48921 3.21114 8.51367 1.74548 12.0522C0.279817 15.5908 -0.103627 19.4845 0.643656 23.241C1.39094 26.9974 3.23538 30.4479 5.94372 33.1561C8.65206 35.8643 12.1027 37.7086 15.8592 38.4557C19.6157 39.2028 23.5094 38.8191 27.0479 37.3533C30.5863 35.8875 33.6106 33.4052 35.7384 30.2205C37.8661 27.0359 39.0017 23.2917 39.0015 19.4617C39.0012 14.3259 36.9609 9.40061 33.3293 5.76918C29.6977 2.13775 24.7722 0.0976562 19.6365 0.0976562Z" fill="#292929"/>
</g>
<defs>
<clipPath id="clip0_2598_8961">
<rect width="38.729" height="38.729" fill="white" transform="translate(0.271484 0.0976562)"/>
</clipPath>
</defs>
</svg>
