<svg xmlns="http://www.w3.org/2000/svg" xmlns:xlink="http://www.w3.org/1999/xlink" width="149.261" height="230.779" viewBox="0 0 149.261 230.779">
  <defs>
    <clipPath id="clip-path">
      <rect id="Rectangle_1734" data-name="Rectangle 1734" width="149.261" height="230.779" transform="translate(0 -31)" fill="#fff" stroke="#707070" stroke-width="1"/>
    </clipPath>
    <clipPath id="clip-path-2">
      <rect id="Rectangle_1733" data-name="Rectangle 1733" width="232.147" height="212.147" transform="translate(-14 0)" fill="#fff" stroke="#707070" stroke-width="1"/>
    </clipPath>
  </defs>
  <g id="Mask_Group_330" data-name="Mask Group 330" transform="translate(0 31)" clip-path="url(#clip-path)">
    <g id="Mask_Group_329" data-name="Mask Group 329" transform="translate(-58.34 186.387) rotate(-90)" clip-path="url(#clip-path-2)">
      <path id="Rectangle_1498" data-name="Rectangle 1498" d="M30.708,3.257A27.451,27.451,0,0,0,3.257,30.708V68.861A27.451,27.451,0,0,0,30.708,96.313H145.167a27.451,27.451,0,0,0,27.451-27.451V30.708A27.451,27.451,0,0,0,145.167,3.257H30.708m0-3.257H145.167a30.743,30.743,0,0,1,30.708,30.708V68.861A30.743,30.743,0,0,1,145.167,99.57H30.708A30.743,30.743,0,0,1,0,68.861V30.708A30.743,30.743,0,0,1,30.708,0Z" transform="translate(76.751 80.728)" fill="#fbfbfb" stroke="rgba(0,0,0,0)" stroke-miterlimit="10" stroke-width="1"/>
      <path id="Rectangle_1499" data-name="Rectangle 1499" d="M43.271,3.257A40.014,40.014,0,0,0,3.257,43.271V92.59A40.014,40.014,0,0,0,43.271,132.6H167.035A40.014,40.014,0,0,0,207.049,92.59V43.271A40.014,40.014,0,0,0,167.035,3.257H43.271m0-3.257H167.035a43.32,43.32,0,0,1,43.271,43.271V92.59a43.32,43.32,0,0,1-43.271,43.271H43.271A43.32,43.32,0,0,1,0,92.59V43.271A43.32,43.32,0,0,1,43.271,0Z" transform="translate(60.467 62.117)" fill="#fbfbfb" stroke="rgba(0,0,0,0)" stroke-miterlimit="10" stroke-width="1"/>
      <path id="Rectangle_1496" data-name="Rectangle 1496" d="M30.708,3.257A27.451,27.451,0,0,0,3.257,30.708V68.861A27.451,27.451,0,0,0,30.708,96.313H145.167a27.451,27.451,0,0,0,27.451-27.451V30.708A27.451,27.451,0,0,0,145.167,3.257H30.708m0-3.257H145.167a30.743,30.743,0,0,1,30.708,30.708V68.861A30.743,30.743,0,0,1,145.167,99.57H30.708A30.743,30.743,0,0,1,0,68.861V30.708A30.743,30.743,0,0,1,30.708,0Z" transform="translate(-40.499 39.784)" fill="#17b0e1" stroke="rgba(0,0,0,0)" stroke-miterlimit="10" stroke-width="1"/>
      <path id="Rectangle_1497" data-name="Rectangle 1497" d="M43.271,3.257A40.014,40.014,0,0,0,3.257,43.271V92.59A40.014,40.014,0,0,0,43.271,132.6H167.035A40.014,40.014,0,0,0,207.049,92.59V43.271A40.014,40.014,0,0,0,167.035,3.257H43.271m0-3.257H167.035a43.32,43.32,0,0,1,43.271,43.271V92.59a43.32,43.32,0,0,1-43.271,43.271H43.271A43.32,43.32,0,0,1,0,92.59V43.271A43.32,43.32,0,0,1,43.271,0Z" transform="translate(-56.784 21.173)" fill="#17b0e1" stroke="rgba(0,0,0,0)" stroke-miterlimit="10" stroke-width="1"/>
    </g>
  </g>
</svg>
