<svg xmlns="http://www.w3.org/2000/svg" xmlns:xlink="http://www.w3.org/1999/xlink" width="194" height="213" viewBox="0 0 194 213">
  <defs>
    <clipPath id="clip-path">
      <path id="Rectangle_1732" data-name="Rectangle 1732" d="M50,0H194a0,0,0,0,1,0,0V213a0,0,0,0,1,0,0H50A50,50,0,0,1,0,163V50A50,50,0,0,1,50,0Z" transform="translate(-8 -0.221)" fill="#fff" stroke="#707070" stroke-width="1"/>
    </clipPath>
    <clipPath id="clip-path-2">
      <rect id="Rectangle_1731" data-name="Rectangle 1731" width="212" height="239" transform="translate(0.396 -0.46)" fill="#fff" stroke="#707070" stroke-width="1"/>
    </clipPath>
  </defs>
  <g id="Mask_Group_328" data-name="Mask Group 328" transform="translate(8 0.22)" clip-path="url(#clip-path)">
    <g id="Mask_Group_327" data-name="Mask Group 327" transform="translate(-14.396 -25.761)" clip-path="url(#clip-path-2)">
      <path id="Union_55" data-name="Union 55" d="M74.033,198.905V97.234H77.29V198.905ZM122.358,97.231v0H74.034V48.876h0v-.259a48.617,48.617,0,1,1,48.617,48.617Zm.293-3.253A45.361,45.361,0,1,0,77.29,48.617q0,1.32.075,2.623c-.045-.782-.07-1.571-.075-2.363v45.1h45.361ZM0,97.234V93.978H74.033v3.256Zm122.034-3.261.267,0Zm-.019,0h0Zm-.11,0,.11,0Zm-.071,0h0Zm-.131,0,.131,0ZM77.366,51.249v0Zm0-.005s0,0,0,.005A.032.032,0,0,1,77.365,51.243Z" transform="translate(-0.992 40.475)" fill="#fbfbfb" stroke="rgba(0,0,0,0)" stroke-miterlimit="10" stroke-width="1"/>
      <path id="Union_56" data-name="Union 56" d="M54.41,177.46V97.234h3.257V177.46Zm48.325-80.229v0H54.411V48.876h0v-.259a48.617,48.617,0,1,1,48.616,48.617Zm.293-3.253a45.361,45.361,0,1,0-45.36-45.361q0,1.32.075,2.623c-.045-.782-.07-1.571-.075-2.363v45.1h45.36ZM0,97.234V93.978H54.41v3.256Zm102.411-3.261.267,0Zm-.018,0h0Zm-.111,0,.111,0Zm-.071,0h0Zm-.131,0,.131,0ZM57.742,51.249a.013.013,0,0,1,0,.006A.018.018,0,0,0,57.742,51.249Zm0,0v0Z" transform="translate(-2.77 62.342)" fill="#17b0e1" stroke="rgba(0,0,0,0)" stroke-miterlimit="10" stroke-width="1"/>
    </g>
  </g>
</svg>
