<svg xmlns="http://www.w3.org/2000/svg" xmlns:xlink="http://www.w3.org/1999/xlink" width="156" height="212" viewBox="0 0 156 212">
  <defs>
    <clipPath id="clip-path">
      <rect id="Rectangle_1730" data-name="Rectangle 1730" width="156" height="212" transform="translate(258.809 -0.221)" fill="#fff" stroke="#707070" stroke-width="1"/>
    </clipPath>
    <clipPath id="clip-path-2">
      <rect id="Rectangle_1729" data-name="Rectangle 1729" width="212" height="245" transform="translate(-0.338 0.116)" fill="#fff" stroke="#707070" stroke-width="1"/>
    </clipPath>
  </defs>
  <g id="Mask_Group_326" data-name="Mask Group 326" transform="translate(-258.809 0.22)" clip-path="url(#clip-path)">
    <g id="Mask_Group_325" data-name="Mask Group 325" transform="translate(224.147 -33.337)" clip-path="url(#clip-path-2)">
      <g id="Ellipse_261" data-name="Ellipse 261" transform="translate(178 148.939)" fill="#fff" stroke="#707070" stroke-width="1">
        <circle cx="0.363" cy="0.363" r="0.363" stroke="none"/>
        <circle cx="0.363" cy="0.363" r="0.137" fill="none"/>
      </g>
      <rect id="Rectangle_1725" data-name="Rectangle 1725" width="115.519" height="2.906" transform="translate(-0.727 155.478)" fill="#fbfbfb"/>
      <rect id="Rectangle_1726" data-name="Rectangle 1726" width="115.519" height="2.906" transform="translate(-0.727 183.023)" fill="#fbfbfb"/>
      <path id="Union_52" data-name="Union 52" d="M0,175.484V43.649H.01A44.6,44.6,0,1,1,3.258,61.29V175.484ZM44.681,85.9A41.327,41.327,0,1,0,3.258,44.578,41.376,41.376,0,0,0,44.681,85.9Z" transform="translate(70.474 69.39)" fill="#fff"/>
      <path id="Union_54" data-name="Union 54" d="M0,202.416V70.582H.009a71.747,71.747,0,1,1,3.25,22.534v109.3Zm71.927-62.183A68.492,68.492,0,1,0,3.259,71.742,68.58,68.58,0,0,0,71.927,140.234Z" transform="translate(42.865 42.458)" fill="#17b0e1"/>
    </g>
  </g>
</svg>
