<svg xmlns="http://www.w3.org/2000/svg" xmlns:xlink="http://www.w3.org/1999/xlink" width="1451.899" height="1525.466" viewBox="0 0 1451.899 1525.466">
  <defs>
    <linearGradient id="linear-gradient" x1="0.509" y1="0.802" x2="0.5" y2="0.106" gradientUnits="objectBoundingBox">
      <stop offset="0" stop-color="#fff"/>
      <stop offset="0.46" stop-color="#acd0c6"/>
      <stop offset="1" stop-color="#fff"/>
    </linearGradient>
  </defs>
  <path id="Intersection_56" data-name="Intersection 56" d="M1420.1,1524.466V549.291a6.277,6.277,0,0,0-2.437,3.667,744.774,744.774,0,0,1-46.454,116.067q-69.964,139.352-188.726,238.137c-4.307,3.585-5.76,7.2-5.757,12.709q.189,298.353.105,596.706v7.87h-31.117V936.214c-2.464,1.663-4.017,2.67-5.53,3.738q-193.122,136.273-427.629,132.86a688.389,688.389,0,0,1-141.273-16.706c-138.616-31.21-258.036-98.589-358.54-200.915-58.7-59.768-105.622-128.309-141.407-204.811C24.582,550.422,1.455,444.676.58,334.234-.3,222.831.036,111.413.22,0H32.8V109.57A797.243,797.243,0,0,1,76.7,0H111Q56.863,105.549,38.788,225.9c-5.544,37.174-6.28,74.569-6.659,112.109-.652,64.562,8.895,127.5,26.2,189.287q46.684,166.69,163.485,292.524,139.522,150.325,336.11,201.171a667.487,667.487,0,0,0,237.493,17.392c126.921-13.219,241.509-59.028,344.281-136.29,4.918-3.7,6.456-7.486,6.448-13.511q-.246-190.26-.125-380.517v-6.789l-1.046-.3c-1.732,4.12-3.381,8.28-5.2,12.355-65.175,145.741-173.589,238.792-327.21,269.62C661.835,813.2,527.8,772.338,415.271,664.611c-77.419-74.117-122.1-166.519-136.12-274.191a575.536,575.536,0,0,1-4.866-75.4q.259-157.5.116-315.019h32.307V159.985Q345.75,65.633,411.779,0h45.487C363.172,80.146,300.208,203.867,306.2,351.224c9.107,223.8,192.051,413.684,426.959,409.82,229.688-3.778,414.783-196.726,412.79-433.7C1144.815,192.162,1084.244,76.514,994.511,0h45.25q3.61,3.609,7.172,7.321,101.122,105.393,123.907,251.788c1.645,10.588,1.73,21.479,3.923,31.925,3.765,17.929,1.931,35.942,1.951,53.885q.3,258.819.12,517.639v8.908a680.126,680.126,0,0,0,76.646-78.329c70.5-84.751,119.432-180.969,145.979-289a713.721,713.721,0,0,0,18.311-232.449Q1405.171,124.092,1341.19,0h33.9a767.187,767.187,0,0,1,55.59,156.892c11.508,48.2,19.688,97.263,19.786,146.625q1.207,607.134.454,1214.272v6.676Z" transform="translate(1451.489 1524.966) rotate(180)" stroke="rgba(0,0,0,0)" stroke-miterlimit="10" stroke-width="1" opacity="0.17" fill="url(#linear-gradient)"/>
</svg>
