<svg xmlns="http://www.w3.org/2000/svg" xmlns:xlink="http://www.w3.org/1999/xlink" width="1451.9" height="1525.466" viewBox="0 0 1451.9 1525.466">
  <defs>
    <linearGradient id="linear-gradient" x1="0.509" y1="0.802" x2="0.5" y2="0.106" gradientUnits="objectBoundingBox">
      <stop offset="0" stop-color="#fff"/>
      <stop offset="0.46" stop-color="#acd0c6"/>
      <stop offset="1" stop-color="#fff"/>
    </linearGradient>
  </defs>
  <path id="Intersection_39" data-name="Intersection 39" d="M1858.864,2201.466V1226.291a6.277,6.277,0,0,0-2.437,3.667,744.774,744.774,0,0,1-46.454,116.067q-69.964,139.352-188.726,238.137c-4.307,3.585-5.76,7.2-5.757,12.709q.189,298.353.105,596.706v7.87h-31.117V1613.214c-2.464,1.663-4.017,2.67-5.53,3.738q-193.122,136.273-427.629,132.86a688.38,688.38,0,0,1-141.273-16.706c-138.616-31.21-258.036-98.589-358.54-200.915-58.7-59.768-105.622-128.309-141.407-204.811-46.756-99.958-69.883-205.7-70.758-316.146-.883-111.4-.544-222.821-.36-334.234h32.585v109.57A797.25,797.25,0,0,1,515.455,677h34.306q-54.138,105.549-72.214,225.9c-5.544,37.174-6.28,74.57-6.659,112.109-.652,64.561,8.895,127.5,26.2,189.287q46.684,166.69,163.485,292.524,139.523,150.325,336.11,201.172a667.486,667.486,0,0,0,237.493,17.392c126.921-13.219,241.509-59.028,344.281-136.291,4.918-3.7,6.456-7.486,6.448-13.511q-.246-190.26-.125-380.517v-6.789l-1.046-.3c-1.732,4.12-3.381,8.28-5.2,12.355-65.174,145.741-173.589,238.792-327.21,269.62-150.724,30.245-284.758-10.615-397.287-118.342-77.419-74.117-122.1-166.519-136.12-274.191a575.534,575.534,0,0,1-4.866-75.4q.259-157.5.116-315.019h32.307V836.985Q784.51,742.633,850.538,677h45.487c-94.093,80.146-157.057,203.867-151.062,351.224,9.107,223.8,192.051,413.684,426.959,409.82,229.688-3.778,414.783-196.726,412.789-433.7C1583.574,869.162,1523,753.514,1433.271,677h45.25q3.61,3.609,7.172,7.321Q1586.815,789.714,1609.6,936.108c1.645,10.589,1.73,21.479,3.923,31.925,3.765,17.929,1.931,35.942,1.951,53.885q.3,258.819.12,517.639v8.908a680.126,680.126,0,0,0,76.646-78.329c70.5-84.751,119.432-180.969,145.979-289a713.721,713.721,0,0,0,18.311-232.449q-12.6-147.593-76.581-271.685h33.9a767.191,767.191,0,0,1,55.59,156.893c11.508,48.2,19.688,97.263,19.786,146.625q1.207,607.134.454,1214.272v6.676Z" transform="translate(1890.247 2201.966) rotate(-180)" stroke="rgba(0,0,0,0)" stroke-miterlimit="10" stroke-width="1" opacity="0.17" fill="url(#linear-gradient)"/>
</svg>
