<svg xmlns="http://www.w3.org/2000/svg" xmlns:xlink="http://www.w3.org/1999/xlink" width="1920.49" height="532.626" viewBox="0 0 1920.49 532.626">
  <defs>
    <clipPath id="clip-path">
      <rect x="196" width="1920.49" height="411.105" fill="none"/>
    </clipPath>
    <linearGradient id="linear-gradient" x1="0.598" y1="0.571" x2="1.132" y2="0.278" gradientUnits="objectBoundingBox">
      <stop offset="0" stop-color="#6ca9dc"/>
      <stop offset="1" stop-color="#78b369"/>
    </linearGradient>
  </defs>
  <g id="Group_1" data-name="Group 1" transform="translate(0.49 -262)">
    <path id="Path_1" data-name="Path 1" d="M1920,335.324,1633.63,517.27,1206.5,619.892,902.8,650.4l-198.6,9.707-314.507-20.8L142.839,606.024,1.387,572.741V794.626L1920,775.211Z" fill="#fff"/>
    <g id="Scroll_Group_1" data-name="Scroll Group 1" transform="translate(-196.49 262)" clip-path="url(#clip-path)" style="isolation: isolate">
      <path id="Intersection_125" data-name="Intersection 125" d="M885.255,1144.38c-23.313-.487-46.868-1.227-70.012-2.2-22.961-.962-46.138-2.177-68.886-3.613-22.577-1.424-45.339-3.1-67.657-4.99-22.162-1.874-44.478-4-66.326-6.328-21.713-2.311-43.546-4.878-64.892-7.629-21.222-2.734-42.538-5.725-63.356-8.889-20.7-3.146-41.467-6.548-61.716-10.111-20.146-3.544-40.324-7.344-59.975-11.293-19.564-3.932-39.121-8.117-58.131-12.439-18.941-4.306-37.844-8.862-56.183-13.543-18.286-4.667-36.5-9.583-54.133-14.61-17.6-5.016-35.085-10.277-51.982-15.637-16.877-5.354-33.608-10.948-49.727-16.626s-32.05-11.588-47.37-17.575S14.477,986.692,0,980.414c28.375,10.244,58.354,20.107,89.1,29.315,30.832,9.233,63.153,18.019,96.067,26.118,33.086,8.141,67.556,15.778,102.451,22.7,35.15,6.973,71.574,13.387,108.258,19.064,37.023,5.73,75.206,10.847,113.488,15.21,38.709,4.411,78.456,8.157,118.138,11.135,40.19,3.016,81.308,5.318,122.212,6.842,41.482,1.546,83.777,2.329,125.707,2.329,43.314,0,87-.836,129.837-2.486,42.221-1.626,84.642-4.082,126.087-7.3,40.91-3.175,81.854-7.167,121.7-11.866,39.4-4.647,78.65-10.1,116.67-16.194,37.67-6.042,75.017-12.864,111-20.277,35.731-7.361,70.958-15.477,104.7-24.121,33.581-8.6,66.471-17.93,97.759-27.722,31.213-9.768,61.553-20.225,90.178-31.08s56.2-22.362,81.96-34.2c12.888-5.921,25.571-12.042,37.7-18.191,12.145-6.158,24.056-12.51,35.4-18.88,11.381-6.388,22.493-12.961,33.031-19.538,10.579-6.6,20.868-13.388,30.578-20.166,9.746-6.8,19.182-13.79,28.044-20.764,8.894-7,17.45-14.177,25.43-21.331,8.014-7.185,15.664-14.543,22.737-21.868,7.109-7.362,13.826-14.891,19.965-22.375,6.174-7.528,11.93-15.216,17.111-22.851,4.009-5.909,7.757-11.91,11.182-17.9v125.6c-5.031,4.274-10.235,8.528-15.56,12.718-8.859,6.972-18.293,13.958-28.043,20.764-9.715,6.781-20,13.566-30.578,20.166-10.542,6.58-21.655,13.153-33.031,19.538-11.347,6.369-23.259,12.722-35.4,18.88-12.125,6.148-24.809,12.268-37.7,18.192-25.758,11.836-53.333,23.341-81.96,34.2s-58.968,21.313-90.179,31.08c-31.29,9.793-64.181,19.12-97.758,27.722-33.745,8.645-68.97,16.761-104.7,24.121-35.984,7.413-73.332,14.235-111.005,20.278-38.021,6.1-77.275,11.546-116.671,16.194-39.843,4.7-80.789,8.692-121.7,11.866-41.45,3.217-83.872,5.672-126.087,7.3-42.837,1.65-86.521,2.486-129.837,2.486C932.661,1145.12,908.762,1144.87,885.255,1144.38Z" transform="translate(0 -734.017)" fill="url(#linear-gradient)"/>
    </g>
  </g>
</svg>
