<svg xmlns="http://www.w3.org/2000/svg" width="69.439" height="87.814" viewBox="0 0 69.439 87.814" style="fill: #676a6c;">
  <g id="noun-location-1621029" transform="translate(-193.19 -80.4)">
    <path id="Path_1419" data-name="Path 1419" d="M446.517,259.435A14.517,14.517,0,1,0,432,244.917,14.534,14.534,0,0,0,446.517,259.435Zm0-27.207a12.69,12.69,0,1,1-12.69,12.69A12.7,12.7,0,0,1,446.517,232.227Z" transform="translate(-218.607 -137.31)"/>
    <path id="Path_1420" data-name="Path 1420" d="M236.132,147.763c7.318-11,18.985-30.113,18.985-40.156a27.207,27.207,0,0,0-54.415,0c0,9.375,10.212,26.86,18.993,40.16-16.134,1.147-26.505,5.081-26.505,10.092,0,5.9,14.926,10.355,34.719,10.355s34.72-4.5,34.72-10.457c0-4.975-10.609-8.958-26.5-10ZM227.91,82.227a25.409,25.409,0,0,1,25.38,25.38c0,11.587-17.592,37.752-25.38,48.765-7.833-11.094-25.38-37.235-25.38-48.765A25.409,25.409,0,0,1,227.91,82.227Zm-7.063,67.221c2.238,3.35,4.1,5.969,5.224,7.549.526.741.906,1.275,1.027,1.47l.711.949.71-.949c.276-.366,2.848-3.923,6.252-9.02,15.962.894,25.829,5,25.829,8.331a2.681,2.681,0,0,1-.9,1.933c-3.656,3.809-17.027,6.573-31.793,6.573-19.383,0-32.892-4.494-32.892-8.527,0-3.31,9.867-7.41,25.829-8.31Z" transform="translate(0)"/>
  </g>
</svg>
