<svg id="Google_Play-Badge-Logo.wine" xmlns="http://www.w3.org/2000/svg" xmlns:xlink="http://www.w3.org/1999/xlink" width="119.5" height="35.465" viewBox="0 0 119.5 35.465">
  <defs>
    <linearGradient id="linear-gradient" x1="0.849" y1="0.31" x2="0.361" y2="0.799" gradientUnits="objectBoundingBox">
      <stop offset="0" stop-color="#00a0ff"/>
      <stop offset="0.007" stop-color="#00a1ff"/>
      <stop offset="0.26" stop-color="#00beff"/>
      <stop offset="0.512" stop-color="#00d2ff"/>
      <stop offset="0.76" stop-color="#00dfff"/>
      <stop offset="1" stop-color="#00e3ff"/>
    </linearGradient>
    <linearGradient id="linear-gradient-2" x1="0.97" y1="0.436" x2="-1.177" y2="0.436" gradientUnits="objectBoundingBox">
      <stop offset="0" stop-color="#ffe000"/>
      <stop offset="0.409" stop-color="#ffbd00"/>
      <stop offset="0.775" stop-color="orange"/>
      <stop offset="1" stop-color="#ff9c00"/>
    </linearGradient>
    <linearGradient id="linear-gradient-3" x1="0.761" y1="0.213" x2="-0.443" y2="1.411" gradientUnits="objectBoundingBox">
      <stop offset="0" stop-color="#ff3a44"/>
      <stop offset="1" stop-color="#c31162"/>
    </linearGradient>
    <linearGradient id="linear-gradient-4" x1="-0.17" y1="-0.275" x2="0.367" y2="0.26" gradientUnits="objectBoundingBox">
      <stop offset="0" stop-color="#32a071"/>
      <stop offset="0.068" stop-color="#2da771"/>
      <stop offset="0.476" stop-color="#15cf74"/>
      <stop offset="0.801" stop-color="#06e775"/>
      <stop offset="1" stop-color="#00f076"/>
    </linearGradient>
    <linearGradient id="linear-gradient-5" x1="0.624" y1="0.038" x2="-0.364" y2="1.027" gradientUnits="objectBoundingBox">
      <stop offset="0" stop-color="#cc2e36"/>
      <stop offset="1" stop-color="#9c0e4e"/>
    </linearGradient>
    <linearGradient id="linear-gradient-6" x1="5.233" y1="-7.998" x2="-1.121" y2="-1.634" gradientUnits="objectBoundingBox">
      <stop offset="0" stop-color="#008de0"/>
      <stop offset="0.007" stop-color="#008de0"/>
      <stop offset="0.26" stop-color="#00a7e0"/>
      <stop offset="0.512" stop-color="#00b8e0"/>
      <stop offset="0.76" stop-color="#00c4e0"/>
      <stop offset="1" stop-color="#00c7e0"/>
    </linearGradient>
    <linearGradient id="linear-gradient-7" x1="0.943" y1="-0.195" x2="-2.414" y2="-0.195" gradientUnits="objectBoundingBox">
      <stop offset="0" stop-color="#e0c500"/>
      <stop offset="0.409" stop-color="#e0a600"/>
      <stop offset="0.775" stop-color="#e09100"/>
      <stop offset="1" stop-color="#e08900"/>
    </linearGradient>
    <linearGradient id="linear-gradient-8" x1="0.944" y1="0.999" x2="-2.414" y2="0.999" gradientUnits="objectBoundingBox">
      <stop offset="0" stop-color="#ffe840"/>
      <stop offset="0.409" stop-color="#ffce40"/>
      <stop offset="0.775" stop-color="#ffbc40"/>
      <stop offset="1" stop-color="#ffb540"/>
    </linearGradient>
    <linearGradient id="linear-gradient-9" x1="5.219" y1="0.865" x2="-1.113" y2="6.933" gradientUnits="objectBoundingBox">
      <stop offset="0" stop-color="#40b8ff"/>
      <stop offset="0.007" stop-color="#40b9ff"/>
      <stop offset="0.26" stop-color="#40ceff"/>
      <stop offset="0.512" stop-color="#40ddff"/>
      <stop offset="0.76" stop-color="#40e7ff"/>
      <stop offset="1" stop-color="#40eaff"/>
    </linearGradient>
    <linearGradient id="linear-gradient-10" x1="-0.137" y1="-0.184" x2="0.304" y2="0.257" gradientUnits="objectBoundingBox">
      <stop offset="0" stop-color="#65b895"/>
      <stop offset="0.068" stop-color="#62bd95"/>
      <stop offset="0.476" stop-color="#50db97"/>
      <stop offset="0.801" stop-color="#44ed98"/>
      <stop offset="1" stop-color="#40f498"/>
    </linearGradient>
  </defs>
  <path id="Path_4" data-name="Path 4" d="M115.074,35.465H4.426A4.443,4.443,0,0,1,0,31.032V4.433A4.443,4.443,0,0,1,4.426,0H115.074A4.443,4.443,0,0,1,119.5,4.433v26.6a4.443,4.443,0,0,1-4.426,4.433" fill="#fff"/>
  <path id="Path_5" data-name="Path 5" d="M115.074,0H4.426A4.443,4.443,0,0,0,0,4.433v26.6a4.443,4.443,0,0,0,4.426,4.433H115.074a4.443,4.443,0,0,0,4.426-4.433V4.433A4.442,4.442,0,0,0,115.074,0m0,.709a3.725,3.725,0,0,1,3.718,3.724v26.6a3.725,3.725,0,0,1-3.718,3.724H4.426A3.725,3.725,0,0,1,.708,31.032V4.433A3.725,3.725,0,0,1,4.426.709H115.074" fill="#a6a6a6"/>
  <path id="Path_6" data-name="Path 6" d="M923.995,155.759a2.4,2.4,0,0,1-.66,1.776,2.573,2.573,0,0,1-1.951.787,2.779,2.779,0,1,1,0-5.558,2.736,2.736,0,0,1,1.09.223,2.189,2.189,0,0,1,.831.594l-.467.468a1.792,1.792,0,0,0-1.454-.631,2.125,2.125,0,1,0,1.484,3.656,1.674,1.674,0,0,0,.445-1.077h-1.929v-.639h2.574a2.281,2.281,0,0,1,.037.4" transform="translate(-882.021 -146.677)"/>
  <path id="Path_7" data-name="Path 7" d="M921.863,153.622h-.089a2.313,2.313,0,0,1-.634,1.713h0a2.485,2.485,0,0,1-1.887.76,2.69,2.69,0,1,1,0-5.38,2.648,2.648,0,0,1,1.055.216,2.1,2.1,0,0,1,.8.57l.068-.057-.062-.063-.467.468.063.062.068-.057a1.883,1.883,0,0,0-1.522-.663A2.213,2.213,0,1,0,920.8,155a1.765,1.765,0,0,0,.471-1.133l.008-.1h-1.937v-.462h2.485v-.089l-.087.016a2.155,2.155,0,0,1,.036.386h.177a2.359,2.359,0,0,0-.038-.417l-.013-.073h-2.736v.816h2.017v-.089l-.088-.008a1.589,1.589,0,0,1-.42,1.022,2.025,2.025,0,0,1-2.81,0,2.141,2.141,0,0,1,0-2.941,1.927,1.927,0,0,1,1.389-.566,1.7,1.7,0,0,1,1.386.6l.062.074.535-.536.057-.057-.052-.062a2.273,2.273,0,0,0-.863-.619,2.822,2.822,0,0,0-1.125-.23,2.868,2.868,0,1,0,0,5.735,2.664,2.664,0,0,0,2.015-.815l-.064-.061.063.063a2.493,2.493,0,0,0,.685-1.838h-.088m4.08-2.222h-2.419v1.687h2.181v.639h-2.181v1.687h2.419v.654h-3.1v-5.32h3.1v.654" transform="translate(-879.889 -144.541)"/>
  <path id="Path_8" data-name="Path 8" d="M1078.936,154.272v-.089h-2.507v1.864h2.181v.462h-2.181v1.864h2.419v.476h-2.924v-5.142h2.924v.565h.089v0h.089v-.742h-3.278v5.5h3.278V158.2h-2.419v-1.509h2.181v-.817h-2.181v-1.509h2.419v-.089h-.089m2.878,4.666h-.683v-4.666h-1.483v-.654h3.65v.654h-1.483v4.666" transform="translate(-1032.882 -147.412)"/>
  <path id="Path_9" data-name="Path 9" d="M1173.678,158.938v-.089h-.594v-4.666H1171.6v-.476h3.473v.476h-1.483v4.755h.089v0h.089v-4.578h1.483v-.831h-3.827v.831h1.484v4.666h.86v-.089h-.089m4.124,0v-5.32h.682v5.32h-.682" transform="translate(-1124.745 -147.412)"/>
  <path id="Path_10" data-name="Path 10" d="M1329.377,158.938h.089v-5.231h.505v5.142h-.594v.089h0v.089h.771v-5.5h-.859v5.5h.089v-.089m3.709,0h-.683v-4.666h-1.484v-.654h3.65v.654h-1.484v4.666" transform="translate(-1276.321 -147.412)"/>
  <path id="Path_11" data-name="Path 11" d="M1370.27,158.2v-.089h-.594v-4.666h-1.483v-.476h3.473v.476h-1.484V158.2h.089v0h.089v-4.578h1.483v-.831h-3.827v.831h1.483v4.666h.86V158.2h-.089m5-1.133a2.04,2.04,0,0,0,2.886,0,2.269,2.269,0,0,0,0-3.054,2.04,2.04,0,0,0-2.886,0,2.273,2.273,0,0,0,0,3.054Zm3.391.445a2.754,2.754,0,0,1-3.894,0,2.877,2.877,0,0,1,0-3.945,2.745,2.745,0,0,1,3.891,0,2.868,2.868,0,0,1,0,3.941Z" transform="translate(-1313.504 -146.677)"/>
  <path id="Path_12" data-name="Path 12" d="M1517,154.934l-.063.062a2.128,2.128,0,0,0,3.011,0,2.358,2.358,0,0,0,0-3.179,2.128,2.128,0,0,0-3.011,0,2.361,2.361,0,0,0,0,3.179l.063-.062.063-.062a2.184,2.184,0,0,1,0-2.929,1.952,1.952,0,0,1,2.76,0,2.182,2.182,0,0,1,0,2.929,1.952,1.952,0,0,1-2.76,0Zm3.39.445-.063-.062a2.667,2.667,0,0,1-3.768,0l0,0,0,0a2.789,2.789,0,0,1,0-3.822,2.657,2.657,0,0,1,3.764,0,2.78,2.78,0,0,1,0,3.818l.063.062.064.062a2.956,2.956,0,0,0,0-4.064,2.833,2.833,0,0,0-4.018,0h0a2.967,2.967,0,0,0,0,4.069l0,0,0,0a2.842,2.842,0,0,0,4.021,0Zm1.74.688v-5.32h.831l2.581,4.138h.029l-.029-1.025v-3.113h.683v5.32h-.712l-2.7-4.339h-.03l.03,1.026v3.313h-.682" transform="translate(-1455.235 -144.54)"/>
  <path id="Path_13" data-name="Path 13" d="M942.305,158.938h.089v-5.231h.693l2.581,4.138h.169l-.032-1.115v-3.023h.506v5.142h-.575l-2.7-4.339h-.169l.032,1.116v3.223h-.593v.089h0v.089h.77v-3.4l-.029-1.027-.089,0v.089h.029V154.6l-.075.047,2.726,4.38h.85v-5.5h-.86v3.2l.029,1.027.089,0v-.089h-.029v.089l.075-.047-2.607-4.18h-.968v5.5h.089v-.089m27.76,15.072h1.652V162.927h-1.652Zm14.877-7.091-1.893,4.805h-.057l-1.965-4.805h-1.779l2.947,6.716-1.68,3.736h1.723l4.541-10.452Zm-9.367,5.832c-.542,0-1.3-.271-1.3-.941,0-.856.94-1.183,1.751-1.183a2.935,2.935,0,0,1,1.509.371A2,2,0,0,1,975.575,172.752Zm.2-6.075a3.1,3.1,0,0,0-2.947,1.7l1.466.613a1.565,1.565,0,0,1,1.509-.813,1.591,1.591,0,0,1,1.737,1.426v.114a3.647,3.647,0,0,0-1.722-.428c-1.58,0-3.189.87-3.189,2.5a2.558,2.558,0,0,0,2.747,2.439,2.33,2.33,0,0,0,2.108-1.084h.057v.855h1.594v-4.25C979.134,167.775,977.668,166.677,975.774,166.677Zm-10.208,1.592h-2.349v-3.8h2.349a1.9,1.9,0,1,1,0,3.8Zm-.042-5.342h-3.958v11.084h1.651v-4.2h2.307a3.447,3.447,0,1,0,0-6.884Zm-21.582,9.827a2.294,2.294,0,0,1,0-4.571,2.3,2.3,0,0,1,0,4.571Zm1.9-5.214h-.057a2.607,2.607,0,0,0-1.982-.843,3.775,3.775,0,0,0,0,7.542,2.566,2.566,0,0,0,1.982-.857h.057v.543c0,1.443-.77,2.214-2.01,2.214a2.085,2.085,0,0,1-1.9-1.343l-1.44.6a3.588,3.588,0,0,0,3.337,2.228c1.939,0,3.579-1.143,3.579-3.928v-6.77h-1.569Zm2.71,6.471H950.2V162.927h-1.654Zm4.093-3.657a2.067,2.067,0,0,1,1.968-2.2,1.456,1.456,0,0,1,1.4.8Zm5.134-1.257a3.5,3.5,0,0,0-3.223-2.4A3.581,3.581,0,0,0,951,170.469a3.687,3.687,0,0,0,3.736,3.771,3.744,3.744,0,0,0,3.138-1.671l-1.283-.857a2.149,2.149,0,0,1-1.854,1.043,1.915,1.915,0,0,1-1.825-1.143l5.034-2.086Zm-40.106-1.243v1.6h3.822a3.34,3.34,0,0,1-.87,2.014,3.908,3.908,0,0,1-2.952,1.171,4.257,4.257,0,0,1,0-8.513,4.07,4.07,0,0,1,2.881,1.143l1.127-1.128a5.566,5.566,0,0,0-4.007-1.614,5.857,5.857,0,1,0,0,11.713,5.179,5.179,0,0,0,5.462-5.385,5.2,5.2,0,0,0-.086-1Zm9.807,4.9a2.292,2.292,0,1,1,2.125-2.285A2.18,2.18,0,0,1,927.476,172.754Zm0-6.056a3.771,3.771,0,1,0,3.779,3.771A3.714,3.714,0,0,0,927.476,166.7Zm8.244,6.056a2.292,2.292,0,1,1,2.125-2.285A2.18,2.18,0,0,1,935.72,172.754Zm0-6.056a3.771,3.771,0,1,0,3.779,3.771A3.714,3.714,0,0,0,935.72,166.7Z" transform="translate(-875.407 -147.412)"/>
  <path id="Path_14" data-name="Path 14" d="M222.015,162.422a1.714,1.714,0,0,0-.474,1.311v19.349a1.777,1.777,0,0,0,.41,1.246l.066.063h0a1.137,1.137,0,0,0,.782.288,2.037,2.037,0,0,0,.992-.3l12.849-7.312,4.413-2.512a1.652,1.652,0,0,0,.928-1.149v0a1.651,1.651,0,0,0-.928-1.15l-4.414-2.512-12.848-7.312a2.04,2.04,0,0,0-.993-.3,1.138,1.138,0,0,0-.781.288Z" transform="translate(-212.713 -155.674)" fill="#00c1ff"/>
  <path id="Path_15" data-name="Path 15" d="M.59-529.6l-.066-.063a1.778,1.778,0,0,1-.41-1.246v-19.349a1.714,1.714,0,0,1,.474-1.311l10.967,10.985L.59-529.6" transform="translate(8.713 558.314)" fill="url(#linear-gradient)"/>
  <path id="Path_16" data-name="Path 16" d="M4.342-177.242.686-180.9l3.656-3.662,4.414,2.512a1.651,1.651,0,0,1,.928,1.15v0a1.652,1.652,0,0,1-.928,1.149l-4.413,2.512" transform="translate(19.583 198.638)" fill="url(#linear-gradient-2)"/>
  <path id="Path_17" data-name="Path 17" d="M1.222-271.745a1.137,1.137,0,0,1-.782-.288h0l10.966-10.984,3.656,3.663L2.214-272.042a2.036,2.036,0,0,1-.992.3" transform="translate(8.863 300.75)" fill="url(#linear-gradient-3)"/>
  <path id="Path_18" data-name="Path 18" d="M11.157-272.332.19-283.317a1.139,1.139,0,0,1,.781-.288,2.04,2.04,0,0,1,.993.3l12.848,7.312-3.656,3.662" transform="translate(9.112 290.066)" fill="url(#linear-gradient-4)"/>
  <path id="Path_19" data-name="Path 19" d="M1.638-187.354a1.14,1.14,0,0,1-.783-.288h0l0,0L.8-187.7l-.006-.006.066-.066a1.137,1.137,0,0,0,.782.288,2.036,2.036,0,0,0,.992-.3l12.849-7.312.082.082-.083.047L2.63-187.652a2.113,2.113,0,0,1-.91.3l-.081,0" transform="translate(8.447 216.49)" fill="url(#linear-gradient-5)"/>
  <path id="Path_20" data-name="Path 20" d="M.525-33.93a1.777,1.777,0,0,1-.41-1.246v-.129a1.777,1.777,0,0,0,.41,1.246L.59-34l-.066.066" transform="translate(8.713 62.713)" fill="url(#linear-gradient-6)"/>
  <path id="Path_21" data-name="Path 21" d="M.724-90.383l-.082-.082,4.413-2.512a1.652,1.652,0,0,0,.928-1.15,1.1,1.1,0,0,1-.1.457,1.9,1.9,0,0,1-.825.822L.724-90.383" transform="translate(23.284 111.861)" fill="url(#linear-gradient-7)"/>
  <path id="Path_22" data-name="Path 22" d="M5.975-90.94a1.651,1.651,0,0,0-.928-1.15L.633-94.6l.082-.082h0l4.331,2.465a1.557,1.557,0,0,1,.928,1.279" transform="translate(23.292 108.672)" fill="url(#linear-gradient-8)"/>
  <path id="Path_23" data-name="Path 23" d="M.115-33.382v-.135c0-.049,0-.1,0-.143v0a.006.006,0,0,1,0,0v-.005a1.691,1.691,0,0,1,.406-1.088l.065.065a1.714,1.714,0,0,0-.474,1.311" transform="translate(8.713 41.441)" fill="url(#linear-gradient-9)"/>
  <path id="Path_24" data-name="Path 24" d="M15.477-187.163,2.629-194.475a2.04,2.04,0,0,0-.993-.3,1.139,1.139,0,0,0-.781.288l-.065-.065q.03-.032.063-.062l0,0a1.138,1.138,0,0,1,.774-.288h.007a2.039,2.039,0,0,1,.993.3l12.931,7.359h0l-.082.082" transform="translate(8.448 201.234)" fill="url(#linear-gradient-10)"/>
</svg>
