<svg xmlns="http://www.w3.org/2000/svg" width="119.664" height="36.5" viewBox="0 0 119.664 36.5">
  <g id="App_Store__iOS_-Badge-Alternative-Logo.wine" data-name="App_Store_(iOS)-Badge-Alternative-Logo.wine" transform="translate(0 -2.167)">
    <path id="Path_1" data-name="Path 1" d="M110.135,0H9.535C9.168,0,8.806,0,8.44,0c-.306,0-.61.007-.919.012a14.451,14.451,0,0,0-2,.161,7.119,7.119,0,0,0-1.9.572A6.448,6.448,0,0,0,2,1.822,5.765,5.765,0,0,0,.819,3.3,5.664,5.664,0,0,0,.194,5.038,10.848,10.848,0,0,0,.015,6.865c-.009.28-.01.56-.015.84V28.8c0,.283.006.558.015.841a10.847,10.847,0,0,0,.179,1.827A5.652,5.652,0,0,0,.819,33.2,5.721,5.721,0,0,0,2,34.676a6.284,6.284,0,0,0,1.619,1.076,7.155,7.155,0,0,0,1.9.576,14.714,14.714,0,0,0,2,.161c.309.006.613.01.919.01.366,0,.728,0,1.095,0h100.6c.359,0,.725,0,1.084,0,.3,0,.617,0,.922-.01a14.52,14.52,0,0,0,2-.161,7.267,7.267,0,0,0,1.908-.576,6.286,6.286,0,0,0,1.617-1.076,5.9,5.9,0,0,0,1.182-1.473,5.663,5.663,0,0,0,.619-1.738,11.279,11.279,0,0,0,.186-1.827c0-.283,0-.558,0-.841.008-.332.008-.661.008-1V8.7c0-.334,0-.666-.008-1,0-.28,0-.561,0-.84a11.278,11.278,0,0,0-.186-1.827,5.675,5.675,0,0,0-.619-1.737,6.213,6.213,0,0,0-2.8-2.555,7.23,7.23,0,0,0-1.908-.572,14.264,14.264,0,0,0-2-.161c-.3,0-.617-.01-.922-.012-.359,0-.725,0-1.084,0Z" transform="translate(0 2.167)" fill="#a6a6a6"/>
    <path id="Path_2" data-name="Path 2" d="M8.445,35.625c-.3,0-.6,0-.9-.01a13.935,13.935,0,0,1-1.869-.148,6.3,6.3,0,0,1-1.657-.5,5.416,5.416,0,0,1-1.4-.924,4.9,4.9,0,0,1-1.564-2.774,10.274,10.274,0,0,1-.166-1.7c-.006-.192-.015-.829-.015-.829V7.752s.009-.628.015-.813a10.238,10.238,0,0,1,.166-1.7,4.935,4.935,0,0,1,1.559-2.78,5.575,5.575,0,0,1,1.4-.929,6.241,6.241,0,0,1,1.653-.494A13.823,13.823,0,0,1,7.543.886l.9-.011H111.214l.913.012a13.6,13.6,0,0,1,1.859.148,6.366,6.366,0,0,1,1.671.5,5.365,5.365,0,0,1,2.415,2.2,4.905,4.905,0,0,1,.535,1.5,10.758,10.758,0,0,1,.174,1.714c0,.257,0,.534,0,.809.008.341.008.665.008.992V27.757c0,.33,0,.652-.008.977,0,.3,0,.566,0,.845a10.54,10.54,0,0,1-.171,1.684,4.885,4.885,0,0,1-.54,1.517,5.035,5.035,0,0,1-1.015,1.259,5.421,5.421,0,0,1-1.4.929,6.282,6.282,0,0,1-1.668.5,13.775,13.775,0,0,1-1.869.148q-.449.01-.9.01l-1.084,0Z" transform="translate(0 2.167)" fill="#fff"/>
    <path id="Path_3" data-name="Path 3" d="M25,19.889a5.146,5.146,0,0,1,2.451-4.318,5.268,5.268,0,0,0-4.15-2.244c-1.746-.183-3.439,1.045-4.329,1.045-.907,0-2.277-1.027-3.753-1a5.527,5.527,0,0,0-4.651,2.837c-2.011,3.482-.511,8.6,1.415,11.414.964,1.378,2.09,2.918,3.564,2.863,1.442-.06,1.981-.92,3.722-.92,1.725,0,2.23.92,3.734.885,1.548-.025,2.523-1.384,3.453-2.776a11.4,11.4,0,0,0,1.579-3.216A4.973,4.973,0,0,1,25,19.889Zm-2.841-8.413a5.067,5.067,0,0,0,1.159-3.63A5.155,5.155,0,0,0,19.98,9.573a4.821,4.821,0,0,0-1.189,3.5,4.263,4.263,0,0,0,3.366-1.592ZM42.3,27.14H37.568L36.432,30.5H34.427L38.91,18.078h2.083L45.477,30.5H43.438Zm-4.243-1.549h3.752l-1.85-5.447h-.052Zm17.1.379c0,2.813-1.506,4.621-3.778,4.621a3.069,3.069,0,0,1-2.849-1.584h-.043v4.484H46.631V21.442h1.8v1.506h.034a3.212,3.212,0,0,1,2.883-1.6c2.3,0,3.813,1.816,3.813,4.622Zm-1.91,0c0-1.833-.947-3.038-2.392-3.038-1.42,0-2.375,1.23-2.375,3.038,0,1.824.955,3.046,2.375,3.046,1.445,0,2.393-1.2,2.393-3.046Zm11.875,0c0,2.813-1.506,4.621-3.779,4.621A3.069,3.069,0,0,1,58.5,29.007h-.043v4.484H56.6V21.442h1.8v1.506h.034a3.212,3.212,0,0,1,2.883-1.6c2.3,0,3.813,1.816,3.813,4.622Zm-1.911,0c0-1.833-.947-3.038-2.393-3.038-1.42,0-2.375,1.23-2.375,3.038,0,1.824.955,3.046,2.375,3.046,1.445,0,2.393-1.2,2.393-3.046Zm8.5,1.066c.138,1.231,1.334,2.04,2.969,2.04,1.566,0,2.693-.809,2.693-1.919,0-.964-.68-1.541-2.289-1.937l-1.609-.388c-2.28-.551-3.339-1.617-3.339-3.348,0-2.143,1.867-3.614,4.518-3.614,2.625,0,4.424,1.472,4.484,3.614H77.26c-.112-1.239-1.137-1.987-2.634-1.987s-2.521.757-2.521,1.858c0,.878.654,1.395,2.255,1.79l1.368.336c2.548.6,3.605,1.626,3.605,3.442,0,2.323-1.85,3.778-4.793,3.778-2.754,0-4.613-1.421-4.733-3.667ZM83.346,19.3v2.142h1.722v1.472H83.346v4.991c0,.775.345,1.137,1.1,1.137A5.808,5.808,0,0,0,85.059,29v1.463a5.1,5.1,0,0,1-1.032.086c-1.833,0-2.548-.688-2.548-2.444V22.914H80.163V21.442h1.316V19.3Zm2.718,6.67c0-2.849,1.678-4.639,4.294-4.639s4.295,1.79,4.295,4.639-1.661,4.639-4.295,4.639S86.064,28.826,86.064,25.97Zm6.7,0c0-1.954-.9-3.108-2.4-3.108s-2.4,1.162-2.4,3.108c0,1.962.9,3.106,2.4,3.106S92.759,27.932,92.759,25.97Zm3.426-4.527h1.772v1.541H98a2.159,2.159,0,0,1,2.178-1.636,2.866,2.866,0,0,1,.637.069v1.738a2.6,2.6,0,0,0-.835-.112,1.873,1.873,0,0,0-1.936,2.083V30.5H96.185Zm13.2,6.395c-.25,1.644-1.851,2.771-3.9,2.771-2.634,0-4.269-1.765-4.269-4.6s1.644-4.682,4.19-4.682c2.5,0,4.08,1.721,4.08,4.466v.637h-6.395v.112a2.358,2.358,0,0,0,2.436,2.565,2.048,2.048,0,0,0,2.091-1.273Zm-6.282-2.7h4.526a2.177,2.177,0,0,0-2.221-2.3,2.292,2.292,0,0,0-2.306,2.3ZM37.826,8.731A2.64,2.64,0,0,1,40.634,11.7c0,1.906-1.03,3-2.808,3H35.671V8.731ZM36.6,13.854h1.125a1.876,1.876,0,0,0,1.968-2.146,1.881,1.881,0,0,0-1.968-2.134H36.6Zm5.083-1.41a2.133,2.133,0,1,1,4.247,0,2.134,2.134,0,1,1-4.247,0Zm3.333,0c0-.976-.438-1.547-1.208-1.547s-1.207.571-1.207,1.547.435,1.55,1.207,1.55S45.014,13.424,45.014,12.444Zm6.56,2.253h-.922l-.931-3.316h-.07L48.724,14.7h-.913l-1.241-4.5h.9l.807,3.436h.066l.926-3.436h.853l.926,3.436h.07l.8-3.436h.889Zm2.28-4.5h.855v.715h.066a1.348,1.348,0,0,1,1.344-.8,1.465,1.465,0,0,1,1.559,1.675V14.7h-.889V12.006c0-.724-.314-1.083-.972-1.083a1.033,1.033,0,0,0-1.075,1.141V14.7h-.889Zm5.24-1.758h.889V14.7h-.889Zm2.124,4.007a2.134,2.134,0,1,1,4.248,0,2.134,2.134,0,1,1-4.248,0Zm3.333,0c0-.976-.438-1.547-1.208-1.547s-1.207.571-1.207,1.547.435,1.55,1.207,1.55S64.551,13.424,64.551,12.444Zm1.85.98c0-.811.6-1.278,1.675-1.344l1.22-.07v-.389c0-.476-.314-.744-.922-.744-.5,0-.84.182-.938.5h-.86c.091-.774.818-1.269,1.84-1.269,1.129,0,1.766.562,1.766,1.513V14.7h-.855v-.633h-.07a1.515,1.515,0,0,1-1.353.707,1.36,1.36,0,0,1-1.5-1.348ZM69.3,13.04v-.377l-1.1.07c-.62.042-.9.252-.9.649s.352.641.835.641A1.061,1.061,0,0,0,69.3,13.04Zm2.053-.6c0-1.423.731-2.324,1.869-2.324a1.484,1.484,0,0,1,1.381.79h.066V8.437h.889V14.7H74.7v-.712h-.07a1.563,1.563,0,0,1-1.414.786c-1.146,0-1.869-.9-1.869-2.328Zm.918,0c0,.955.45,1.53,1.2,1.53s1.212-.583,1.212-1.526-.468-1.53-1.212-1.53S72.266,11.5,72.266,12.444Zm6.964,0a2.133,2.133,0,1,1,4.247,0,2.134,2.134,0,1,1-4.247,0Zm3.333,0c0-.976-.438-1.547-1.208-1.547s-1.207.571-1.207,1.547.435,1.55,1.207,1.55S82.563,13.424,82.563,12.444Zm2.106-2.25h.855v.715h.066a1.348,1.348,0,0,1,1.344-.8,1.465,1.465,0,0,1,1.559,1.675V14.7H87.6V12.006c0-.724-.314-1.083-.972-1.083a1.033,1.033,0,0,0-1.075,1.141V14.7h-.889Zm8.846-1.121v1.142h.976v.748h-.976v2.315c0,.472.194.678.637.678a2.967,2.967,0,0,0,.339-.021v.74a2.915,2.915,0,0,1-.483.045c-.988,0-1.382-.348-1.382-1.216V10.964h-.715v-.749h.715V9.074ZM95.7,8.437h.881v2.481h.07a1.386,1.386,0,0,1,1.373-.807,1.483,1.483,0,0,1,1.551,1.679V14.7h-.89V12.01c0-.719-.335-1.083-.963-1.083a1.052,1.052,0,0,0-1.134,1.142V14.7H95.7Zm9.057,5.045a1.828,1.828,0,0,1-1.951,1.3,2.045,2.045,0,0,1-2.08-2.324,2.077,2.077,0,0,1,2.076-2.353c1.253,0,2.009.856,2.009,2.27v.31h-3.18v.05a1.19,1.19,0,0,0,1.2,1.29,1.079,1.079,0,0,0,1.071-.546Zm-3.126-1.451h2.274a1.087,1.087,0,0,0-1.108-1.167,1.152,1.152,0,0,0-1.166,1.167Z"/>
  </g>
</svg>
