<svg id="Google_Play-Badge-Logo.wine" xmlns="http://www.w3.org/2000/svg" xmlns:xlink="http://www.w3.org/1999/xlink" width="115.664" height="34.326" viewBox="0 0 115.664 34.326">
  <defs>
    <linearGradient id="linear-gradient" x1="0.849" y1="0.31" x2="0.361" y2="0.799" gradientUnits="objectBoundingBox">
      <stop offset="0" stop-color="#00a0ff"/>
      <stop offset="0.007" stop-color="#00a1ff"/>
      <stop offset="0.26" stop-color="#00beff"/>
      <stop offset="0.512" stop-color="#00d2ff"/>
      <stop offset="0.76" stop-color="#00dfff"/>
      <stop offset="1" stop-color="#00e3ff"/>
    </linearGradient>
    <linearGradient id="linear-gradient-2" x1="0.97" y1="0.436" x2="-1.177" y2="0.436" gradientUnits="objectBoundingBox">
      <stop offset="0" stop-color="#ffe000"/>
      <stop offset="0.409" stop-color="#ffbd00"/>
      <stop offset="0.775" stop-color="orange"/>
      <stop offset="1" stop-color="#ff9c00"/>
    </linearGradient>
    <linearGradient id="linear-gradient-3" x1="0.761" y1="0.213" x2="-0.443" y2="1.411" gradientUnits="objectBoundingBox">
      <stop offset="0" stop-color="#ff3a44"/>
      <stop offset="1" stop-color="#c31162"/>
    </linearGradient>
    <linearGradient id="linear-gradient-4" x1="-0.17" y1="-0.275" x2="0.367" y2="0.26" gradientUnits="objectBoundingBox">
      <stop offset="0" stop-color="#32a071"/>
      <stop offset="0.068" stop-color="#2da771"/>
      <stop offset="0.476" stop-color="#15cf74"/>
      <stop offset="0.801" stop-color="#06e775"/>
      <stop offset="1" stop-color="#00f076"/>
    </linearGradient>
    <linearGradient id="linear-gradient-5" x1="0.624" y1="0.038" x2="-0.364" y2="1.027" gradientUnits="objectBoundingBox">
      <stop offset="0" stop-color="#cc2e36"/>
      <stop offset="1" stop-color="#9c0e4e"/>
    </linearGradient>
    <linearGradient id="linear-gradient-6" x1="5.233" y1="-7.998" x2="-1.121" y2="-1.634" gradientUnits="objectBoundingBox">
      <stop offset="0" stop-color="#008de0"/>
      <stop offset="0.007" stop-color="#008de0"/>
      <stop offset="0.26" stop-color="#00a7e0"/>
      <stop offset="0.512" stop-color="#00b8e0"/>
      <stop offset="0.76" stop-color="#00c4e0"/>
      <stop offset="1" stop-color="#00c7e0"/>
    </linearGradient>
    <linearGradient id="linear-gradient-7" x1="0.943" y1="-0.195" x2="-2.414" y2="-0.195" gradientUnits="objectBoundingBox">
      <stop offset="0" stop-color="#e0c500"/>
      <stop offset="0.409" stop-color="#e0a600"/>
      <stop offset="0.775" stop-color="#e09100"/>
      <stop offset="1" stop-color="#e08900"/>
    </linearGradient>
    <linearGradient id="linear-gradient-8" x1="0.944" y1="0.999" x2="-2.414" y2="0.999" gradientUnits="objectBoundingBox">
      <stop offset="0" stop-color="#ffe840"/>
      <stop offset="0.409" stop-color="#ffce40"/>
      <stop offset="0.775" stop-color="#ffbc40"/>
      <stop offset="1" stop-color="#ffb540"/>
    </linearGradient>
    <linearGradient id="linear-gradient-9" x1="5.219" y1="0.865" x2="-1.113" y2="6.933" gradientUnits="objectBoundingBox">
      <stop offset="0" stop-color="#40b8ff"/>
      <stop offset="0.007" stop-color="#40b9ff"/>
      <stop offset="0.26" stop-color="#40ceff"/>
      <stop offset="0.512" stop-color="#40ddff"/>
      <stop offset="0.76" stop-color="#40e7ff"/>
      <stop offset="1" stop-color="#40eaff"/>
    </linearGradient>
    <linearGradient id="linear-gradient-10" x1="-0.137" y1="-0.184" x2="0.304" y2="0.257" gradientUnits="objectBoundingBox">
      <stop offset="0" stop-color="#65b895"/>
      <stop offset="0.068" stop-color="#62bd95"/>
      <stop offset="0.476" stop-color="#50db97"/>
      <stop offset="0.801" stop-color="#44ed98"/>
      <stop offset="1" stop-color="#40f498"/>
    </linearGradient>
  </defs>
  <path id="Path_2626" data-name="Path 2626" d="M111.38,34.326H4.284A4.3,4.3,0,0,1,0,30.036V4.291A4.3,4.3,0,0,1,4.284,0h107.1a4.3,4.3,0,0,1,4.284,4.291V30.036a4.3,4.3,0,0,1-4.284,4.291"/>
  <path id="Path_2627" data-name="Path 2627" d="M111.38,0H4.284A4.3,4.3,0,0,0,0,4.291V30.036a4.3,4.3,0,0,0,4.284,4.291h107.1a4.3,4.3,0,0,0,4.284-4.291V4.291A4.3,4.3,0,0,0,111.38,0m0,.687a3.606,3.606,0,0,1,3.6,3.6V30.036a3.606,3.606,0,0,1-3.6,3.6H4.284a3.606,3.606,0,0,1-3.6-3.6V4.291a3.606,3.606,0,0,1,3.6-3.6h107.1" fill="#a6a6a6"/>
  <path id="Path_2628" data-name="Path 2628" d="M923.823,155.663a2.326,2.326,0,0,1-.638,1.719,2.491,2.491,0,0,1-1.889.762,2.69,2.69,0,1,1,0-5.379,2.648,2.648,0,0,1,1.055.216,2.12,2.12,0,0,1,.8.575l-.452.453a1.734,1.734,0,0,0-1.407-.611,2.057,2.057,0,1,0,1.436,3.538,1.621,1.621,0,0,0,.431-1.043H921.3v-.618h2.491a2.2,2.2,0,0,1,.036.389" transform="translate(-883.196 -146.872)" fill="#fff"/>
  <path id="Path_2629" data-name="Path 2629" d="M921.688,153.524H921.6a2.239,2.239,0,0,1-.613,1.658h0a2.4,2.4,0,0,1-1.827.735,2.6,2.6,0,1,1,0-5.208,2.563,2.563,0,0,1,1.021.209,2.038,2.038,0,0,1,.772.552l.066-.055-.06-.061-.452.453.06.06.066-.055a1.823,1.823,0,0,0-1.473-.642,2.142,2.142,0,1,0,1.5,3.685,1.708,1.708,0,0,0,.456-1.1l.008-.093h-1.875v-.447h2.405v-.086l-.084.015a2.1,2.1,0,0,1,.035.374h.171a2.274,2.274,0,0,0-.037-.4l-.013-.07h-2.648v.79h1.952v-.086l-.085-.007a1.538,1.538,0,0,1-.406.99,1.959,1.959,0,0,1-2.72,0,2.072,2.072,0,0,1,0-2.847,1.865,1.865,0,0,1,1.344-.547,1.648,1.648,0,0,1,1.342.58l.06.072.518-.519.056-.056-.051-.06a2.2,2.2,0,0,0-.836-.6,2.733,2.733,0,0,0-1.089-.223,2.775,2.775,0,1,0,0,5.551,2.579,2.579,0,0,0,1.951-.788l-.062-.059.061.061a2.413,2.413,0,0,0,.663-1.779h-.086m3.949-2.151H923.3v1.633h2.111v.619H923.3v1.633h2.341v.633h-3V150.74h3v.633" transform="translate(-881.061 -144.733)" fill="#fff"/>
  <path id="Path_2630" data-name="Path 2630" d="M1078.834,154.248v-.086h-2.427v1.8h2.111v.447h-2.111v1.8h2.341v.461h-2.83V153.7h2.83v.547h.086v0h.086v-.718h-3.172v5.321h3.172v-.8h-2.341v-1.461h2.111v-.79h-2.111v-1.461h2.341v-.086h-.086m2.786,4.516h-.661v-4.516h-1.436v-.633h3.532v.633h-1.436v4.516" transform="translate(-1034.258 -147.609)" fill="#fff"/>
  <path id="Path_2631" data-name="Path 2631" d="M1173.605,158.765v-.086h-.575v-4.516h-1.436V153.7h3.361v.461h-1.436v4.6h.086v0h.086v-4.431h1.436v-.8h-3.7v.8h1.436v4.516h.832v-.086h-.086m3.992,0v-5.149h.66v5.149h-.66" transform="translate(-1126.244 -147.609)" fill="#fff"/>
  <path id="Path_2632" data-name="Path 2632" d="M1329.375,158.765h.086V153.7h.489v4.977h-.574v.086h0v.086h.746V153.53h-.832v5.321h.086v-.086m3.59,0h-.661v-4.516h-1.436v-.633h3.532v.633h-1.436v4.516" transform="translate(-1278.021 -147.609)" fill="#fff"/>
  <path id="Path_2633" data-name="Path 2633" d="M1370.2,158.028v-.086h-.575v-4.516h-1.436v-.461h3.361v.461h-1.436v4.6h.086v0h.086V153.6h1.436v-.8h-3.7v.8h1.436v4.516h.832v-.086h-.086m4.842-1.1a1.975,1.975,0,0,0,2.793,0,2.2,2.2,0,0,0,0-2.956,1.974,1.974,0,0,0-2.793,0,2.2,2.2,0,0,0,0,2.956Zm3.281.431a2.666,2.666,0,0,1-3.769,0,2.785,2.785,0,0,1,0-3.818,2.657,2.657,0,0,1,3.766,0,2.776,2.776,0,0,1,0,3.815Z" transform="translate(-1315.254 -146.872)" fill="#fff"/>
  <path id="Path_2634" data-name="Path 2634" d="M1516.959,154.793l-.061.06a2.06,2.06,0,0,0,2.915,0,2.282,2.282,0,0,0,0-3.077,2.06,2.06,0,0,0-2.915,0,2.285,2.285,0,0,0,0,3.077l.061-.06.061-.06a2.114,2.114,0,0,1,0-2.835,1.889,1.889,0,0,1,2.671,0,2.112,2.112,0,0,1,0,2.835,1.889,1.889,0,0,1-2.671,0Zm3.281.431-.061-.06a2.581,2.581,0,0,1-3.647,0l0,0,0,0a2.7,2.7,0,0,1,0-3.7,2.572,2.572,0,0,1,3.643,0,2.69,2.69,0,0,1,0,3.7l.061.06.062.06a2.862,2.862,0,0,0,0-3.934,2.742,2.742,0,0,0-3.889,0h0a2.871,2.871,0,0,0,0,3.938l0,0,0,0a2.751,2.751,0,0,0,3.892,0Zm1.684.665V150.74h.8l2.5,4.006h.029l-.029-.992V150.74h.661v5.149h-.689l-2.614-4.2h-.028l.028.993v3.207h-.66" transform="translate(-1457.174 -144.733)" fill="#fff"/>
  <path id="Path_2635" data-name="Path 2635" d="M941.324,158.765h.086V153.7h.671l2.5,4.006h.164l-.031-1.079V153.7h.49v4.977h-.556l-2.614-4.2h-.164l.031,1.08v3.12h-.574v.086h0v.086h.746v-3.294l-.028-.994-.086,0v.086h.028v-.086l-.073.046,2.639,4.24h.823V153.53h-.832v3.1l.028.994.086,0v-.086h-.028v.086l.073-.046-2.524-4.046h-.937v5.321h.086v-.086m26.869,14.589h1.6V162.625h-1.6Zm14.4-6.864-1.833,4.651h-.055l-1.9-4.651h-1.722l2.852,6.5-1.626,3.616h1.668l4.4-10.117Zm-9.066,5.645c-.524,0-1.254-.262-1.254-.911,0-.828.91-1.145,1.695-1.145a2.841,2.841,0,0,1,1.461.359A1.939,1.939,0,0,1,973.526,172.135Zm.193-5.88a3,3,0,0,0-2.852,1.643l1.419.593a1.515,1.515,0,0,1,1.461-.787,1.54,1.54,0,0,1,1.681,1.38v.11a3.53,3.53,0,0,0-1.667-.414c-1.529,0-3.087.842-3.087,2.415a2.476,2.476,0,0,0,2.659,2.36,2.256,2.256,0,0,0,2.04-1.049h.055v.828h1.543v-4.113A2.94,2.94,0,0,0,973.719,166.255Zm-9.88,1.541h-2.274v-3.677h2.274a1.839,1.839,0,1,1,0,3.677Zm-.041-5.17h-3.831v10.728h1.6v-4.064H963.8a3.336,3.336,0,1,0,0-6.663Zm-20.889,9.512a2.22,2.22,0,0,1,0-4.424,2.23,2.23,0,0,1,0,4.424Zm1.836-5.046h-.055a2.524,2.524,0,0,0-1.919-.816,3.653,3.653,0,0,0,0,7.3,2.483,2.483,0,0,0,1.919-.829h.055v.525c0,1.4-.745,2.143-1.946,2.143a2.018,2.018,0,0,1-1.836-1.3l-1.394.581a3.473,3.473,0,0,0,3.23,2.157c1.877,0,3.464-1.106,3.464-3.8V166.5h-1.518Zm2.622,6.263h1.6V162.625h-1.6Zm3.962-3.539a2,2,0,0,1,1.9-2.129,1.409,1.409,0,0,1,1.352.774ZM956.3,168.6a3.387,3.387,0,0,0-3.12-2.323,3.466,3.466,0,0,0-3.437,3.65,3.569,3.569,0,0,0,3.616,3.65,3.624,3.624,0,0,0,3.037-1.617l-1.242-.83a2.08,2.08,0,0,1-1.795,1.009,1.854,1.854,0,0,1-1.767-1.106l4.872-2.019Zm-38.819-1.2v1.548h3.7a3.233,3.233,0,0,1-.842,1.949,3.783,3.783,0,0,1-2.857,1.134,4.12,4.12,0,0,1,0-8.24,3.939,3.939,0,0,1,2.788,1.106l1.09-1.092a5.387,5.387,0,0,0-3.879-1.562,5.669,5.669,0,1,0,0,11.337,5.013,5.013,0,0,0,5.287-5.212,5.025,5.025,0,0,0-.083-.968Zm9.492,4.742a2.218,2.218,0,1,1,2.057-2.212A2.11,2.11,0,0,1,926.971,172.137Zm0-5.862a3.65,3.65,0,1,0,3.658,3.65A3.595,3.595,0,0,0,926.971,166.275Zm7.979,5.862a2.218,2.218,0,1,1,2.057-2.212A2.11,2.11,0,0,1,934.95,172.137Zm0-5.862a3.65,3.65,0,1,0,3.658,3.65A3.594,3.594,0,0,0,934.95,166.275Z" transform="translate(-876.573 -147.609)" fill="#fff"/>
  <path id="Path_2636" data-name="Path 2636" d="M222,162.413a1.659,1.659,0,0,0-.459,1.268v18.728a1.72,1.72,0,0,0,.4,1.206l.064.061h0a1.1,1.1,0,0,0,.757.279,1.971,1.971,0,0,0,.96-.288l12.436-7.077,4.272-2.431a1.6,1.6,0,0,0,.9-1.113v0a1.6,1.6,0,0,0-.9-1.113l-4.272-2.431-12.436-7.077a1.975,1.975,0,0,0-.962-.289,1.1,1.1,0,0,0-.756.279Z" transform="translate(-212.997 -155.881)" fill="#00c1ff"/>
  <path id="Path_2637" data-name="Path 2637" d="M.575-530.3l-.064-.061a1.72,1.72,0,0,1-.4-1.206V-550.3a1.659,1.659,0,0,1,.459-1.268l10.615,10.632L.575-530.3" transform="translate(8.429 558.098)" fill="url(#linear-gradient)"/>
  <path id="Path_2638" data-name="Path 2638" d="M4.225-177.477.686-181.022l3.539-3.545L8.5-182.136a1.6,1.6,0,0,1,.9,1.113v0a1.6,1.6,0,0,1-.9,1.113l-4.272,2.431" transform="translate(18.933 198.186)" fill="url(#linear-gradient-2)"/>
  <path id="Path_2639" data-name="Path 2639" d="M1.2-272.106a1.1,1.1,0,0,1-.757-.279h0l10.614-10.631,3.539,3.545L2.157-272.394a1.971,1.971,0,0,1-.96.288" transform="translate(8.565 300.181)" fill="url(#linear-gradient-3)"/>
  <path id="Path_2640" data-name="Path 2640" d="M10.805-272.694.19-283.326a1.1,1.1,0,0,1,.756-.279,1.974,1.974,0,0,1,.962.289l12.436,7.077-3.539,3.545" transform="translate(8.813 289.858)" fill="url(#linear-gradient-4)"/>
  <path id="Path_2641" data-name="Path 2641" d="M1.611-187.6a1.1,1.1,0,0,1-.757-.279h0l0,0L.8-187.938l-.005-.006.064-.064a1.1,1.1,0,0,0,.757.279,1.971,1.971,0,0,0,.96-.288l12.436-7.077.08.08-.081.046L2.57-187.891a2.045,2.045,0,0,1-.881.286l-.078,0" transform="translate(8.151 215.803)" fill="url(#linear-gradient-5)"/>
  <path id="Path_2642" data-name="Path 2642" d="M.512-33.974a1.72,1.72,0,0,1-.4-1.206v-.125a1.72,1.72,0,0,0,.4,1.206l.064.061-.064.064" transform="translate(8.429 61.834)" fill="url(#linear-gradient-6)"/>
  <path id="Path_2643" data-name="Path 2643" d="M.722-90.5l-.08-.08,4.272-2.431a1.6,1.6,0,0,0,.9-1.113,1.064,1.064,0,0,1-.1.443,1.84,1.84,0,0,1-.8.8L.722-90.5" transform="translate(22.516 111.292)" fill="url(#linear-gradient-7)"/>
  <path id="Path_2644" data-name="Path 2644" d="M5.8-91.06a1.6,1.6,0,0,0-.9-1.113L.633-94.6l.08-.08h0L4.905-92.3a1.507,1.507,0,0,1,.9,1.238" transform="translate(22.524 108.223)" fill="url(#linear-gradient-8)"/>
  <path id="Path_2645" data-name="Path 2645" d="M.115-33.426v-.131c0-.047,0-.094,0-.138v0a.006.006,0,0,1,0,0v-.005a1.637,1.637,0,0,1,.393-1.053l.063.063a1.659,1.659,0,0,0-.459,1.269" transform="translate(8.429 41.227)" fill="url(#linear-gradient-9)"/>
  <path id="Path_2646" data-name="Path 2646" d="M15.005-187.411,2.57-194.489a1.974,1.974,0,0,0-.962-.289,1.1,1.1,0,0,0-.756.279l-.063-.063q.029-.031.061-.06l0,0A1.1,1.1,0,0,1,1.6-194.9h.006a1.974,1.974,0,0,1,.962.289l12.516,7.123h0l-.08.08" transform="translate(8.152 201.031)" fill="url(#linear-gradient-10)"/>
</svg>
