<svg id="App_Store__iOS_-Badge-Alternative-Logo.wine" data-name="App_Store_(iOS)-Badge-Alternative-Logo.wine" xmlns="http://www.w3.org/2000/svg" width="115.664" height="38.663" viewBox="0 0 115.664 38.663">
  <path id="Path_2623" data-name="Path 2623" d="M106.453,0H9.216c-.354,0-.7,0-1.058,0-.3,0-.589.008-.888.012A12.773,12.773,0,0,0,5.333.185,6.442,6.442,0,0,0,3.5.791,6.223,6.223,0,0,0,1.931,1.93,6.049,6.049,0,0,0,.792,3.5a6.381,6.381,0,0,0-.6,1.84A12.559,12.559,0,0,0,.015,7.272c-.009.3-.01.594-.015.89V30.5c0,.3.006.591.015.891A12.558,12.558,0,0,0,.188,33.33a6.367,6.367,0,0,0,.6,1.841,6,6,0,0,0,1.139,1.56A6.065,6.065,0,0,0,3.5,37.87a6.477,6.477,0,0,0,1.837.61,13,13,0,0,0,1.937.171c.3.007.592.01.888.01.353,0,.7,0,1.058,0h97.237c.347,0,.7,0,1.048,0,.295,0,.6,0,.891-.01a12.835,12.835,0,0,0,1.933-.171,6.577,6.577,0,0,0,1.844-.61,6.067,6.067,0,0,0,1.563-1.139,6.181,6.181,0,0,0,1.142-1.56,6.383,6.383,0,0,0,.6-1.841,13.056,13.056,0,0,0,.179-1.935c0-.3,0-.591,0-.891.008-.351.008-.7.008-1.057V9.218c0-.354,0-.705-.008-1.055,0-.3,0-.594,0-.89a13.055,13.055,0,0,0-.179-1.935,6.4,6.4,0,0,0-.6-1.84A6.25,6.25,0,0,0,112.17.791a6.541,6.541,0,0,0-1.844-.606,12.608,12.608,0,0,0-1.933-.171c-.295,0-.6-.01-.891-.012-.347,0-.7,0-1.048,0Z"/>
  <path id="Path_2624" data-name="Path 2624" d="M8.192,37.846c-.295,0-.582,0-.874-.01a12.264,12.264,0,0,1-1.807-.158,5.687,5.687,0,0,1-1.6-.53,5.225,5.225,0,0,1-1.35-.983,5.143,5.143,0,0,1-.986-1.35,5.531,5.531,0,0,1-.525-1.6A12,12,0,0,1,.887,31.4c-.006-.2-.014-.882-.014-.882V8.191s.009-.668.014-.865a11.957,11.957,0,0,1,.16-1.809,5.563,5.563,0,0,1,.525-1.607,5.194,5.194,0,0,1,.981-1.351,5.379,5.379,0,0,1,1.356-.988,5.628,5.628,0,0,1,1.6-.526A12.165,12.165,0,0,1,7.32.887L8.192.875h99.333l.882.012a11.971,11.971,0,0,1,1.8.157,5.74,5.74,0,0,1,1.615.53,5.407,5.407,0,0,1,2.334,2.339,5.57,5.57,0,0,1,.517,1.594,12.561,12.561,0,0,1,.168,1.824c0,.274,0,.568,0,.86.008.362.008.707.008,1.055V29.476c0,.351,0,.694-.008,1.039,0,.314,0,.6,0,.9a12.306,12.306,0,0,1-.165,1.792,5.548,5.548,0,0,1-.522,1.614,5.3,5.3,0,0,1-.982,1.339,5.232,5.232,0,0,1-1.353.988,5.666,5.666,0,0,1-1.612.531,12.123,12.123,0,0,1-1.807.158q-.434.01-.867.01l-1.048,0Z" transform="translate(-0.029 -0.029)" fill="#fff"/>
  <path id="Path_2625" data-name="Path 2625" d="M24.482,19.487a4.974,4.974,0,0,1,2.369-4.173,5.092,5.092,0,0,0-4.012-2.169c-1.688-.177-3.324,1.01-4.184,1.01-.877,0-2.2-.992-3.627-.963a5.343,5.343,0,0,0-4.5,2.742C8.588,19.3,10.038,24.245,11.9,26.966c.932,1.332,2.02,2.82,3.445,2.767,1.394-.058,1.915-.889,3.6-.889,1.667,0,2.156.889,3.609.856,1.5-.024,2.439-1.338,3.338-2.683a11.018,11.018,0,0,0,1.526-3.108,4.807,4.807,0,0,1-2.934-4.422Zm-2.746-8.131a4.9,4.9,0,0,0,1.12-3.509,4.983,4.983,0,0,0-3.224,1.668,4.66,4.66,0,0,0-1.15,3.379,4.12,4.12,0,0,0,3.253-1.538ZM41.209,26.495H36.634l-1.1,3.244H33.6l4.334-12h2.013l4.334,12H42.307Zm-4.1-1.5h3.627l-1.788-5.265H38.9Zm16.529.366c0,2.719-1.456,4.467-3.652,4.467A2.967,2.967,0,0,1,47.231,28.3H47.19v4.334h-1.8V20.988h1.739v1.456h.033A3.1,3.1,0,0,1,49.952,20.9c2.221,0,3.685,1.756,3.685,4.467Zm-1.846,0c0-1.772-.916-2.937-2.313-2.937-1.373,0-2.3,1.189-2.3,2.936,0,1.763.923,2.944,2.3,2.944,1.4,0,2.313-1.156,2.313-2.944Zm11.479,0c0,2.719-1.456,4.467-3.652,4.467A2.967,2.967,0,0,1,56.863,28.3h-.042v4.334h-1.8V20.988h1.739v1.456H56.8A3.1,3.1,0,0,1,59.583,20.9c2.221,0,3.686,1.756,3.686,4.467Zm-1.847,0c0-1.772-.916-2.937-2.313-2.937-1.373,0-2.3,1.189-2.3,2.936,0,1.763.923,2.944,2.3,2.944,1.4,0,2.313-1.156,2.313-2.944Zm8.212,1.031c.133,1.19,1.289,1.972,2.869,1.972,1.514,0,2.6-.782,2.6-1.855,0-.932-.657-1.489-2.212-1.872l-1.556-.375c-2.2-.532-3.227-1.563-3.227-3.236,0-2.071,1.8-3.493,4.367-3.493,2.537,0,4.276,1.422,4.334,3.493H75c-.109-1.2-1.1-1.921-2.546-1.921s-2.437.732-2.437,1.8c0,.849.632,1.348,2.18,1.73l1.322.325C75.981,23.542,77,24.531,77,26.287c0,2.246-1.788,3.652-4.633,3.652-2.662,0-4.459-1.373-4.575-3.544Zm11.248-7.478v2.071h1.664v1.423H80.881v4.824c0,.749.333,1.1,1.065,1.1a5.614,5.614,0,0,0,.591-.042v1.414a4.933,4.933,0,0,1-1,.083c-1.772,0-2.463-.665-2.463-2.363V22.411H77.8V20.988h1.272V18.917Zm2.627,6.447c0-2.753,1.622-4.484,4.15-4.484s4.151,1.73,4.151,4.484-1.606,4.484-4.151,4.484S83.508,28.125,83.508,25.364Zm6.471,0c0-1.889-.866-3-2.321-3s-2.321,1.123-2.321,3c0,1.9.866,3,2.321,3S89.98,27.26,89.98,25.364Zm3.311-4.376H95v1.489h.042A2.087,2.087,0,0,1,97.151,20.9a2.77,2.77,0,0,1,.615.067v1.68a2.511,2.511,0,0,0-.807-.109,1.81,1.81,0,0,0-1.872,2.013v5.191h-1.8Zm12.757,6.181c-.242,1.589-1.789,2.679-3.768,2.679-2.546,0-4.126-1.706-4.126-4.442s1.589-4.525,4.05-4.525c2.421,0,3.944,1.663,3.944,4.317v.615H99.967v.109a2.279,2.279,0,0,0,2.354,2.479,1.98,1.98,0,0,0,2.021-1.231Zm-6.072-2.612h4.375a2.1,2.1,0,0,0-2.146-2.221,2.215,2.215,0,0,0-2.229,2.221ZM36.883,8.7A2.551,2.551,0,0,1,39.6,11.567c0,1.842-1,2.9-2.714,2.9H34.8V8.7ZM35.7,13.653h1.087a1.813,1.813,0,0,0,1.9-2.074,1.818,1.818,0,0,0-1.9-2.062H35.7Zm4.913-1.362a2.062,2.062,0,1,1,4.105,0,2.062,2.062,0,1,1-4.105,0Zm3.222,0c0-.943-.424-1.5-1.168-1.5s-1.167.552-1.167,1.5.42,1.5,1.167,1.5S43.83,13.238,43.83,12.291Zm6.34,2.178h-.891l-.9-3.206h-.068l-.9,3.206h-.883l-1.2-4.352h.871l.78,3.321h.064l.895-3.321h.824l.895,3.321h.068l.776-3.321h.859Zm2.2-4.352H53.2v.691h.064a1.3,1.3,0,0,1,1.3-.775,1.416,1.416,0,0,1,1.507,1.619v2.818h-.859v-2.6c0-.7-.3-1.047-.939-1.047a1,1,0,0,0-1.039,1.1v2.546h-.859Zm5.065-1.7H58.3v6.052H57.44Zm2.053,3.873a2.062,2.062,0,1,1,4.106,0,2.062,2.062,0,1,1-4.106,0Zm3.222,0c0-.943-.424-1.5-1.168-1.5s-1.167.552-1.167,1.5.42,1.5,1.167,1.5S62.714,13.238,62.714,12.291Zm1.788.947c0-.784.583-1.235,1.619-1.3l1.179-.068V11.5c0-.46-.3-.719-.891-.719-.48,0-.812.176-.907.484H64.67c.088-.748.791-1.227,1.778-1.227,1.091,0,1.707.543,1.707,1.463v2.974h-.827v-.612h-.068a1.464,1.464,0,0,1-1.307.683,1.315,1.315,0,0,1-1.451-1.3Zm2.8-.372V12.5l-1.063.068c-.6.04-.871.244-.871.628s.34.62.807.62a1.026,1.026,0,0,0,1.127-.951Zm1.984-.575c0-1.375.707-2.247,1.807-2.247a1.434,1.434,0,0,1,1.335.764h.064V8.417h.859v6.052h-.823v-.688h-.068a1.511,1.511,0,0,1-1.367.759c-1.107,0-1.807-.871-1.807-2.25Zm.887,0c0,.923.435,1.479,1.163,1.479s1.171-.564,1.171-1.475-.452-1.479-1.171-1.479S70.172,11.375,70.172,12.291Zm6.731,0a2.062,2.062,0,1,1,4.105,0,2.062,2.062,0,1,1-4.105,0Zm3.222,0c0-.943-.424-1.5-1.168-1.5s-1.167.552-1.167,1.5.42,1.5,1.167,1.5S80.124,13.238,80.124,12.291Zm2.036-2.174h.827v.691h.064a1.3,1.3,0,0,1,1.3-.775,1.416,1.416,0,0,1,1.507,1.619v2.818H85v-2.6c0-.7-.3-1.047-.939-1.047a1,1,0,0,0-1.039,1.1v2.546H82.16Zm8.55-1.084v1.1h.943v.723H90.71V13.1c0,.456.188.656.615.656a2.868,2.868,0,0,0,.327-.02v.716a2.818,2.818,0,0,1-.467.044c-.955,0-1.336-.336-1.336-1.175V10.86H89.16v-.724h.691v-1.1Zm2.116-.616h.851v2.4h.068a1.339,1.339,0,0,1,1.327-.78,1.434,1.434,0,0,1,1.5,1.623v2.81h-.86v-2.6c0-.7-.324-1.047-.931-1.047a1.017,1.017,0,0,0-1.1,1.1v2.542h-.859Zm8.754,4.876a1.767,1.767,0,0,1-1.886,1.259,1.977,1.977,0,0,1-2.011-2.247,2.007,2.007,0,0,1,2.007-2.274c1.211,0,1.942.827,1.942,2.194v.3H98.559v.048a1.15,1.15,0,0,0,1.159,1.247,1.043,1.043,0,0,0,1.035-.528Zm-3.022-1.4h2.2a1.05,1.05,0,0,0-1.071-1.128,1.113,1.113,0,0,0-1.127,1.128Z" transform="translate(-0.321 -0.262)"/>
</svg>
