<svg xmlns="http://www.w3.org/2000/svg" xmlns:xlink="http://www.w3.org/1999/xlink" width="21" height="18" viewBox="0 0 21 18">
  <defs>
    <clipPath id="clip-path">
      <rect id="Rectangle_1" data-name="Rectangle 1" width="21" height="18" transform="translate(578 372)" fill="#ff7575" stroke="#707070" stroke-width="1"/>
    </clipPath>
  </defs>
  <g id="Mask_Group_1" data-name="Mask Group 1" transform="translate(-578 -372)" clip-path="url(#clip-path)">
    <path id="Icon_awesome-file-alt" data-name="Icon awesome-file-alt" d="M7.875,4.781V0H.844A.842.842,0,0,0,0,.844V17.156A.842.842,0,0,0,.844,18H12.656a.842.842,0,0,0,.844-.844V5.625H8.724a.846.846,0,0,1-.849-.844Zm2.25,8.3A.423.423,0,0,1,9.7,13.5H3.8a.423.423,0,0,1-.422-.422V12.8a.423.423,0,0,1,.422-.422H9.7a.423.423,0,0,1,.422.422Zm0-2.25a.423.423,0,0,1-.422.422H3.8a.423.423,0,0,1-.422-.422v-.278a.423.423,0,0,1,.422-.422H9.7a.423.423,0,0,1,.422.422Zm0-2.536v.281a.423.423,0,0,1-.422.422H3.8a.423.423,0,0,1-.422-.422V8.3A.423.423,0,0,1,3.8,7.875H9.7a.423.423,0,0,1,.421.422ZM13.5,4.281v.214H9V0h.214a.843.843,0,0,1,.6.246L13.253,3.7a.841.841,0,0,1,.248.59Z" transform="translate(581.75 372)" fill="#be8b13"/>
  </g>
</svg>
