<svg xmlns="http://www.w3.org/2000/svg" width="13.309" height="17.745" viewBox="0 0 13.309 17.745">
  <path id="Icon_awesome-file-alt" data-name="Icon awesome-file-alt" d="M7.763,4.713V0H.832A.83.83,0,0,0,0,.832V16.913a.83.83,0,0,0,.832.832H12.477a.83.83,0,0,0,.832-.832V5.545H8.6A.834.834,0,0,1,7.763,4.713Zm2.218,8.179a.417.417,0,0,1-.416.416H3.743a.417.417,0,0,1-.416-.416v-.277a.417.417,0,0,1,.416-.416H9.566a.417.417,0,0,1,.416.416Zm0-2.218a.417.417,0,0,1-.416.416H3.743a.417.417,0,0,1-.416-.416V10.4a.417.417,0,0,1,.416-.416H9.566a.417.417,0,0,1,.416.416Zm0-2.5v.277a.417.417,0,0,1-.416.416H3.743a.417.417,0,0,1-.416-.416V8.179a.417.417,0,0,1,.416-.416H9.566A.417.417,0,0,1,9.981,8.179Zm3.327-3.954v.211H8.872V0h.211a.831.831,0,0,1,.589.243l3.393,3.4A.829.829,0,0,1,13.309,4.225Z" fill="#BE8B13"/>
</svg>
