<svg xmlns="http://www.w3.org/2000/svg" width="21.053" height="14.737" viewBox="0 0 21.053 14.737">
  <path id="Icon_awesome-money-check" data-name="Icon awesome-money-check" d="M0,15.934a1.053,1.053,0,0,0,1.053,1.053H20a1.053,1.053,0,0,0,1.053-1.053V5.408H0ZM14.737,9.092a.526.526,0,0,1,.526-.526h3.158a.526.526,0,0,1,.526.526v1.053a.526.526,0,0,1-.526.526H15.263a.526.526,0,0,1-.526-.526Zm0,3.947A.263.263,0,0,1,15,12.776h3.684a.263.263,0,0,1,.263.263v.526a.263.263,0,0,1-.263.263H15a.263.263,0,0,1-.263-.263ZM2.105,9.882a.263.263,0,0,1,.263-.263h10a.263.263,0,0,1,.263.263v.526a.263.263,0,0,1-.263.263h-10a.263.263,0,0,1-.263-.263Zm0,3.158a.263.263,0,0,1,.263-.263H8.158a.263.263,0,0,1,.263.263v.526a.263.263,0,0,1-.263.263H2.368a.263.263,0,0,1-.263-.263ZM20.526,2.25h-20A.526.526,0,0,0,0,2.776V4.355H21.053V2.776A.526.526,0,0,0,20.526,2.25Z" transform="translate(0 -2.25)" fill="#BE8B13"/>
</svg>
